<?xml version="1.0" encoding="utf-8"?>
<!-- Generator: Adobe Illustrator 14.0.0, SVG Export Plug-In . SVG Version: 6.00 Build 43363)  -->
<!DOCTYPE svg PUBLIC "-//W3C//DTD SVG 1.1//EN" "http://www.w3.org/Graphics/SVG/1.1/DTD/svg11.dtd">
<svg version="1.1" id="Layer_1" xmlns="http://www.w3.org/2000/svg" xmlns:xlink="http://www.w3.org/1999/xlink" x="0px" y="0px"
	 width="181px" height="150px" viewBox="0 0 181 150" enable-background="new 0 0 181 150" xml:space="preserve">
<g>
	<defs>
		<rect id="SVGID_1_" x="40.5" y="17" width="99.926" height="114.981"/>
	</defs>
	<clipPath id="SVGID_2_">
		<use xlink:href="#SVGID_1_"  overflow="visible"/>
	</clipPath>
	<g clip-path="url(#SVGID_2_)" enable-background="new    ">
		<g>
			<g>
				<defs>
					<path id="SVGID_3_" d="M140.42,50.81c0-1.934-0.404-3.642-1.221-5.108c-0.803-1.442-2.004-2.65-3.615-3.606
						c-13.303-7.854-26.619-15.685-39.918-23.547c-3.585-2.119-7.061-2.042-10.62,0.107c-5.295,3.197-31.805,18.75-39.704,23.436
						c-3.253,1.928-4.836,4.88-4.837,8.716c-0.005,15.795,0,31.591-0.005,47.387c0.001,1.892,0.387,3.566,1.168,5.011
						c0.802,1.485,2.021,2.728,3.669,3.705c7.9,4.686,34.413,20.236,39.707,23.435c3.561,2.151,7.036,2.228,10.623,0.107
						c13.299-7.862,26.615-15.692,39.92-23.547c1.648-0.977,2.867-2.22,3.67-3.704c0.779-1.444,1.167-3.12,1.168-5.012
						C140.426,98.188,140.426,66.605,140.42,50.81"/>
				</defs>
				<use xlink:href="#SVGID_3_"  overflow="visible" fill-rule="evenodd" clip-rule="evenodd" fill="#FFFF00"/>
				<clipPath id="SVGID_4_">
					<use xlink:href="#SVGID_3_"  overflow="visible"/>
				</clipPath>
				<g clip-path="url(#SVGID_4_)">
					<defs>
						<rect id="SVGID_5_" x="40.5" y="17" width="100" height="115"/>
					</defs>
					<use xlink:href="#SVGID_5_"  overflow="visible" fill="#FFFF00"/>
					<clipPath id="SVGID_6_">
						<use xlink:href="#SVGID_5_"  overflow="visible"/>
					</clipPath>
					<rect x="35.5" y="12" clip-path="url(#SVGID_6_)" fill="#FFFF00" width="109.926" height="125"/>
				</g>
			</g>
		</g>
	</g>
</g>
<g>
	<defs>
		<path id="SVGID_7_" d="M76.118,82.895c2.849,5.091,8.203,8.525,14.345,8.525c6.18,0,11.564-3.478,14.398-8.624l-14.246-8.45
			L76.118,82.895"/>
	</defs>
	<use xlink:href="#SVGID_7_"  overflow="visible" fill-rule="evenodd" clip-rule="evenodd" fill="#FFFF00"/>
	<clipPath id="SVGID_8_">
		<use xlink:href="#SVGID_7_"  overflow="visible"/>
	</clipPath>
	<rect x="71.118" y="69.346" clip-path="url(#SVGID_8_)" fill="#FFFF00" width="38.744" height="27.074"/>
</g>
<g>
	<defs>
		<path id="SVGID_9_" d="M140.42,50.81c0-1.934-0.404-3.642-1.221-5.108L90.615,74.346l48.643,28.854
			c0.779-1.444,1.167-3.12,1.168-5.012C140.426,98.188,140.426,66.605,140.42,50.81"/>
	</defs>
	<use xlink:href="#SVGID_9_"  overflow="visible" fill-rule="evenodd" clip-rule="evenodd" fill="#FFFF00"/>
	<clipPath id="SVGID_10_">
		<use xlink:href="#SVGID_9_"  overflow="visible"/>
	</clipPath>
	<rect x="85.615" y="40.701" clip-path="url(#SVGID_10_)" fill="#FFFF00" width="59.811" height="67.499"/>
</g>
<g>
	<defs>
		<path id="SVGID_11_" d="M104.861,82.796c-2.834,5.146-8.219,8.624-14.398,8.624c-6.142,0-11.497-3.435-14.345-8.525
			c-1.383-2.475-2.179-5.339-2.179-8.395c0-9.345,7.398-16.92,16.524-16.92c6.103,0,11.429,3.392,14.291,8.431l14.443-8.517
			c-5.741-10.146-16.459-16.974-28.734-16.974c-18.328,0-33.184,15.214-33.184,33.979c0,6.156,1.599,11.93,4.395,16.909
			c5.726,10.201,16.475,17.069,28.789,17.069c12.337,0,23.102-6.896,28.82-17.127L104.861,82.796"/>
	</defs>
	<clipPath id="SVGID_12_">
		<use xlink:href="#SVGID_11_"  overflow="visible"/>
	</clipPath>
	<rect x="52.279" y="35.521" clip-path="url(#SVGID_12_)" fill="#FFFFFE" width="72.004" height="77.958"/>
</g>
<g>
	<defs>
		<rect id="SVGID_13_" x="119.829" y="66.466" width="3.282" height="16.278"/>
	</defs>
	<clipPath id="SVGID_14_">
		<use xlink:href="#SVGID_13_"  overflow="visible"/>
	</clipPath>
	<rect x="114.829" y="61.466" clip-path="url(#SVGID_14_)" fill="#FFFFFE" width="13.282" height="26.278"/>
</g>
<g>
	<defs>
		<rect id="SVGID_15_" x="127.111" y="66.466" width="3.281" height="16.278"/>
	</defs>
	<clipPath id="SVGID_16_">
		<use xlink:href="#SVGID_15_"  overflow="visible"/>
	</clipPath>
	<rect x="122.111" y="61.466" clip-path="url(#SVGID_16_)" fill="#FFFFFE" width="13.281" height="26.278"/>
</g>
<g>
	<defs>
		<rect id="SVGID_17_" x="117.162" y="69.196" width="15.898" height="3.36"/>
	</defs>
	<clipPath id="SVGID_18_">
		<use xlink:href="#SVGID_17_"  overflow="visible"/>
	</clipPath>
	<rect x="112.162" y="64.196" clip-path="url(#SVGID_18_)" fill="#FFFFFE" width="25.898" height="13.36"/>
</g>
<g>
	<defs>
		<rect id="SVGID_19_" x="117.162" y="76.653" width="15.898" height="3.36"/>
	</defs>
	<clipPath id="SVGID_20_">
		<use xlink:href="#SVGID_19_"  overflow="visible"/>
	</clipPath>
	<rect x="112.162" y="71.653" clip-path="url(#SVGID_20_)" fill="#FFFFFE" width="25.898" height="13.36"/>
</g>
</svg>
