        <!-- Generator: Adobe Illustrator 14.0.0, SVG Export Plug-In . SVG Version: 6.00 Build 43363)  -->
                                <svg height="150px" id="Layer_1" version="1.1" viewbox="0 0 181 150" width="181px"
                                    x="0px" xmlns="http://www.w3.org/2000/svg" y="0px">
                                    <g id="Page-1">
                                        <g id="search" transform="translate(3.000000, 3.000000)">
                                            <g id="Group">
                                                <path
                                                    d="M113.404,105.615l-16.114-16.5 c14.626-14.895,14.403-38.832-0.493-53.457c-14.9-14.628-38.838-14.406-53.465,0.494c-14.626,14.896-14.406,38.833,0.494,53.459 c14.706,14.439,38.264,14.439,52.969,0l16.306,16.307l-3.21,3.213l27.18,27.178l6.424-6.422l-27.18-27.182L113.404,105.615z"
                                                    fill="#FFFFFF" id="Shape" stroke="#eddbfb" stroke-linecap="round"
                                                    stroke-width="3"></path>
                                                <rect fill="#6928e6" height="8.014" id="Rectangle-path" width="13.294"
                                                    x="52.706" y="44.833"></rect>
                                                <rect fill="#6928e6" height="8.014" id="Rectangle-path_1_"
                                                    width="13.294" x="52.706" y="57.923"></rect>
                                                <rect fill="#6928e6" height="8.014" id="Rectangle-path_2_"
                                                    width="13.294" x="52.706" y="71.014"></rect>
                                                <rect fill="#6928e6" height="8.014" id="Rectangle-path_3_"
                                                    width="13.294" x="73.706" y="44.833"></rect>
                                                <rect fill="#6928e6" height="8.014" id="Rectangle-path_4_"
                                                    width="13.294" x="73.706" y="57.923"></rect>
                                                <rect fill="#6928e6" height="8.014" id="Rectangle-path_5_"
                                                    width="13.294" x="73.706" y="71.014"></rect>
                                            </g>
                                        </g>
                                    </g>
                                </svg>