<?xml version="1.0" encoding="utf-8"?>
<!-- Generator: Adobe Illustrator 14.0.0, SVG Export Plug-In . SVG Version: 6.00 Build 43363)  -->
<!DOCTYPE svg PUBLIC "-//W3C//DTD SVG 1.1//EN" "http://www.w3.org/Graphics/SVG/1.1/DTD/svg11.dtd">
<svg version="1.1" id="Layer_1" xmlns="http://www.w3.org/2000/svg" xmlns:xlink="http://www.w3.org/1999/xlink" x="0px" y="0px"
	 width="181px" height="150px" viewBox="0 0 181 150" enable-background="new 0 0 181 150" xml:space="preserve">
<g id="Page-1">
	<g id="search" transform="translate(3.000000, 3.000000)">
		<g id="Group">
			<path id="Shape" fill="#EC1C24" stroke="#F4F0ED" stroke-width="6" stroke-linecap="round" d="M113.404,105.615l-16.114-16.5
				c14.626-14.895,14.403-38.832-0.493-53.457c-14.9-14.628-38.838-14.406-53.465,0.494c-14.626,14.896-14.406,38.833,0.494,53.459
				c14.706,14.439,38.264,14.439,52.969,0l16.306,16.307l-3.21,3.213l27.18,27.178l6.424-6.422l-27.18-27.182L113.404,105.615z"/>
			<rect id="Rectangle-path" x="52.706" y="44.833" fill="#FFFFFF" width="13.294" height="8.014"/>
			<rect id="Rectangle-path_1_" x="52.706" y="57.923" fill="#FFFFFF" width="13.294" height="8.014"/>
			<rect id="Rectangle-path_2_" x="52.706" y="71.014" fill="#FFFFFF" width="13.294" height="8.014"/>
			<rect id="Rectangle-path_3_" x="73.706" y="44.833" fill="#FFFFFF" width="13.294" height="8.014"/>
			<rect id="Rectangle-path_4_" x="73.706" y="57.923" fill="#FFFFFF" width="13.294" height="8.014"/>
			<rect id="Rectangle-path_5_" x="73.706" y="71.014" fill="#FFFFFF" width="13.294" height="8.014"/>
		</g>
	</g>
</g>
</svg>
