<?xml version="1.0" encoding="UTF-8"?>
<svg width="119px" height="120px" viewBox="0 0 119 120" version="1.1" xmlns="http://www.w3.org/2000/svg" xmlns:xlink="http://www.w3.org/1999/xlink">
    <!-- Generator: Sketch 46.2 (44496) - http://www.bohemiancoding.com/sketch -->
    <title>search</title>
    <desc>Created with Sketch.</desc>
    <defs></defs>
    <g id="Page-1" stroke="none" stroke-width="1" fill="none" fill-rule="evenodd">
        <g id="search" transform="translate(3.000000, 3.000000)" fill-rule="nonzero">
            <g id="Group">
                <path d="M81.4038049,81.6016481 L65.29,65.102 C79.916,50.206 79.693,26.269 64.797,11.644 C49.897,-2.984 25.959,-2.762 11.332,12.138 C-3.294,27.034 -3.074,50.97 11.826,65.598 C26.532,80.036 50.09,80.036 64.795,65.598 L81.1006679,81.9048324 L77.89,85.116 L105.07,112.295 L111.494,105.872 L84.314,78.691 L81.4038049,81.6016481 Z" id="Shape" stroke="#F4F0ED" stroke-width="6" fill="#EC1C24" stroke-linecap="round"></path>
                <rect id="Rectangle-path" fill="#FFFFFF" x="20.706" y="20.819" width="13.294" height="8.014"></rect>
                <rect id="Rectangle-path" fill="#FFFFFF" x="20.706" y="33.909" width="13.294" height="8.014"></rect>
                <rect id="Rectangle-path" fill="#FFFFFF" x="20.706" y="47" width="13.294" height="8.014"></rect>
                <rect id="Rectangle-path" fill="#FFFFFF" x="41.706" y="20.819" width="13.294" height="8.014"></rect>
                <rect id="Rectangle-path" fill="#FFFFFF" x="41.706" y="33.909" width="13.294" height="8.014"></rect>
                <rect id="Rectangle-path" fill="#FFFFFF" x="41.706" y="47" width="13.294" height="8.014"></rect>
            </g>
        </g>
    </g>
</svg>