<?xml version="1.0" encoding="utf-8"?>
<!-- Generator: Adobe Illustrator 14.0.0, SVG Export Plug-In . SVG Version: 6.00 Build 43363)  -->
<!DOCTYPE svg PUBLIC "-//W3C//DTD SVG 1.1//EN" "http://www.w3.org/Graphics/SVG/1.1/DTD/svg11.dtd">
<svg version="1.1" id="Layer_1" xmlns="http://www.w3.org/2000/svg" xmlns:xlink="http://www.w3.org/1999/xlink" x="0px" y="0px"
	 width="181px" height="150px" viewBox="0 0 181 150" enable-background="new 0 0 181 150" xml:space="preserve">
<g display="none">
	<path display="inline" fill="#F4F0ED" d="M89.998,60.19c0,0.211-0.17,0.382-0.383,0.382H56.814c-0.21,0-0.382-0.17-0.382-0.382
		v-2.864c0-0.211,0.171-0.382,0.382-0.382h32.801c0.213,0,0.385,0.171,0.385,0.382L89.998,60.19L89.998,60.19z"/>
	<path display="inline" fill="#F4F0ED" d="M89.998,67.85c0,0.211-0.17,0.382-0.383,0.382H56.814c-0.21,0-0.382-0.17-0.382-0.382
		v-2.864c0-0.211,0.171-0.383,0.382-0.383h32.801c0.213,0,0.385,0.171,0.385,0.383L89.998,67.85L89.998,67.85z"/>
	<path display="inline" fill="#F4F0ED" d="M89.998,75.51c0,0.21-0.17,0.383-0.383,0.383H56.814c-0.21,0-0.382-0.172-0.382-0.383
		v-2.865c0-0.211,0.171-0.383,0.382-0.383h32.801c0.213,0,0.385,0.172,0.385,0.383L89.998,75.51L89.998,75.51z"/>
</g>
<g>
	<path fill="#EC1C24" stroke="#F4F0ED" stroke-width="6" stroke-linecap="round" d="M100.29,93.102
		c14.626-14.896,14.403-38.833-0.493-53.458c-14.9-14.628-38.838-14.406-53.465,0.494c-14.626,14.896-14.406,38.832,0.494,53.46
		c14.706,14.438,38.264,14.438,52.969,0l42.007,42.01 M119.314,106.691l27.18,27.181l-6.424,6.423l-27.18-27.179"/>
	<rect x="55.706" y="48.819" fill="#FFFFFF" width="13.294" height="8.014"/>
	<rect x="55.706" y="61.909" fill="#FFFFFF" width="13.294" height="8.014"/>
	<rect x="55.706" y="75" fill="#FFFFFF" width="13.294" height="8.014"/>
	<rect x="76.706" y="48.819" fill="#FFFFFF" width="13.294" height="8.014"/>
	<rect x="76.706" y="61.909" fill="#FFFFFF" width="13.294" height="8.014"/>
	<rect x="76.706" y="75" fill="#FFFFFF" width="13.294" height="8.014"/>
</g>
</svg>
