<?xml version="1.0" encoding="utf-8"?>
<!-- Generator: Adobe Illustrator 14.0.0, SVG Export Plug-In . SVG Version: 6.00 Build 43363)  -->
<!DOCTYPE svg PUBLIC "-//W3C//DTD SVG 1.1//EN" "http://www.w3.org/Graphics/SVG/1.1/DTD/svg11.dtd">
<svg version="1.1" id="Layer_1" xmlns="http://www.w3.org/2000/svg" xmlns:xlink="http://www.w3.org/1999/xlink" x="0px" y="0px"
	 width="181px" height="150px" viewBox="0 0 181 150" enable-background="new 0 0 181 150" xml:space="preserve">
<g>
	<defs>
		<path id="SVGID_1_" d="M115.904,109.679l-16.114-16.5c14.626-14.896,14.403-38.833-0.493-53.458
			c-14.9-14.628-38.838-14.405-53.465,0.494c-14.626,14.896-14.406,38.832,0.494,53.46c14.706,14.438,38.264,14.438,52.969,0
			l16.306,16.308l-3.21,3.211l27.18,27.179l6.424-6.423l-27.18-27.181L115.904,109.679z"/>
	</defs>
	<clipPath id="SVGID_2_">
		<use xlink:href="#SVGID_1_"  overflow="visible"/>
	</clipPath>
	<rect x="30.005" y="23.894" clip-path="url(#SVGID_2_)" fill="#EC1C24" width="120.989" height="121.479"/>
</g>
<path fill="none" stroke="#F4F0ED" stroke-width="6" stroke-linecap="round" stroke-miterlimit="10" d="M115.904,109.679
	l-16.114-16.5c14.626-14.896,14.403-38.833-0.493-53.458c-14.9-14.628-38.838-14.405-53.465,0.494
	c-14.626,14.896-14.406,38.832,0.494,53.46c14.706,14.438,38.264,14.438,52.969,0l16.306,16.308l-3.21,3.211l27.18,27.179
	l6.424-6.423l-27.18-27.181L115.904,109.679z"/>
<g>
	<defs>
		<rect id="SVGID_3_" x="55.206" y="48.896" width="13.294" height="8.014"/>
	</defs>
	<clipPath id="SVGID_4_">
		<use xlink:href="#SVGID_3_"  overflow="visible"/>
	</clipPath>
	<rect x="50.206" y="43.896" clip-path="url(#SVGID_4_)" fill="#FFFFFF" width="23.294" height="18.014"/>
</g>
<g>
	<defs>
		<rect id="SVGID_5_" x="55.206" y="61.986" width="13.294" height="8.014"/>
	</defs>
	<clipPath id="SVGID_6_">
		<use xlink:href="#SVGID_5_"  overflow="visible"/>
	</clipPath>
	<rect x="50.206" y="56.986" clip-path="url(#SVGID_6_)" fill="#FFFFFF" width="23.294" height="18.014"/>
</g>
<g>
	<defs>
		<rect id="SVGID_7_" x="55.206" y="75.077" width="13.294" height="8.014"/>
	</defs>
	<clipPath id="SVGID_8_">
		<use xlink:href="#SVGID_7_"  overflow="visible"/>
	</clipPath>
	<rect x="50.206" y="70.077" clip-path="url(#SVGID_8_)" fill="#FFFFFF" width="23.294" height="18.014"/>
</g>
<g>
	<defs>
		<rect id="SVGID_9_" x="76.206" y="48.896" width="13.294" height="8.014"/>
	</defs>
	<clipPath id="SVGID_10_">
		<use xlink:href="#SVGID_9_"  overflow="visible"/>
	</clipPath>
	<rect x="71.206" y="43.896" clip-path="url(#SVGID_10_)" fill="#FFFFFF" width="23.294" height="18.014"/>
</g>
<g>
	<defs>
		<rect id="SVGID_11_" x="76.206" y="61.986" width="13.294" height="8.014"/>
	</defs>
	<clipPath id="SVGID_12_">
		<use xlink:href="#SVGID_11_"  overflow="visible"/>
	</clipPath>
	<rect x="71.206" y="56.986" clip-path="url(#SVGID_12_)" fill="#FFFFFF" width="23.294" height="18.014"/>
</g>
<g>
	<defs>
		<rect id="SVGID_13_" x="76.206" y="75.077" width="13.294" height="8.014"/>
	</defs>
	<clipPath id="SVGID_14_">
		<use xlink:href="#SVGID_13_"  overflow="visible"/>
	</clipPath>
	<rect x="71.206" y="70.077" clip-path="url(#SVGID_14_)" fill="#FFFFFF" width="23.294" height="18.014"/>
</g>
</svg>
