<?xml version="1.0" encoding="UTF-8"?>
<svg width="112px" height="116px" viewBox="0 0 112 116" version="1.1" xmlns="http://www.w3.org/2000/svg" xmlns:xlink="http://www.w3.org/1999/xlink">
    <!-- Generator: Sketch 52.6 (67491) - http://www.bohemiancoding.com/sketch -->
    <title>sss</title>
    <desc>Created with Sketch.</desc>
    <g id="Page-1" stroke="none" stroke-width="1" fill="none" fill-rule="evenodd">
        <g id="sss" transform="translate(2.000000, 2.000000)">
            <path d="M85.7258415,55.9132138 C87.6233326,55.91059 89.16368,57.4466833 89.1663039,59.3441743 C89.1663082,59.3473416 89.1663082,59.3505089 89.1663039,59.3536761 L89.0846342,118.4147 C89.0820009,120.318985 87.538929,121.862057 85.6346437,121.86469 C83.7371527,121.867314 82.1968052,120.331221 82.1941814,118.43373 C82.194177,118.430563 82.194177,118.427395 82.1941814,118.424228 L82.275851,59.3632043 C82.2784843,57.4589189 83.8215562,55.9158471 85.7258415,55.9132138 Z" id="Rectangle" fill="#EDDBFB" transform="translate(85.680243, 88.888952) rotate(-45.000000) translate(-85.680243, -88.888952) "></path>
            <circle id="Oval" stroke="#EDDBFB" stroke-width="3.20441989" fill="#FFFFFF" cx="38" cy="38" r="38"></circle>
            <rect id="Rectangle-path_3_" fill="#6928E6" x="41" y="20" width="13" height="8"></rect>
            <rect id="Rectangle-path" fill="#6928E6" x="20" y="20" width="13" height="8"></rect>
            <rect id="Rectangle-path_1_" fill="#6928E6" x="20" y="33" width="13" height="8"></rect>
            <rect id="Rectangle-path_2_" fill="#6928E6" x="20" y="46" width="13" height="8"></rect>
            <rect id="Rectangle-path_4_" fill="#6928E6" x="41" y="33" width="13" height="8"></rect>
            <rect id="Rectangle-path_5_" fill="#6928E6" x="41" y="46" width="13" height="8"></rect>
        </g>
    </g>
</svg>