<?xml version="1.0" encoding="UTF-8"?>
<svg width="89px" height="89px" viewBox="0 0 89 89" version="1.1" xmlns="http://www.w3.org/2000/svg" xmlns:xlink="http://www.w3.org/1999/xlink">
    <!-- Generator: Sketch 50.2 (55047) - http://www.bohemiancoding.com/sketch -->
    <title>ally</title>
    <desc>Created with Sketch.</desc>
    <defs></defs>
    <g id="Page-1" stroke="none" stroke-width="1" fill="none" fill-rule="evenodd">
        <g id="ally">
            <rect id="biz_act" fill-opacity="0.993772645" fill="#BABABA" x="0" y="0" width="89" height="89" rx="8"></rect>
            <g id="Ally_Bank_logo" transform="translate(13.000000, 27.000000)" fill="#3E0046" fill-rule="nonzero">
                <polygon id="rect3252" points="24 0 30 0 30 28 24 28"></polygon>
                <polygon id="rect3254" points="33 0 39 0 39 28 33 28"></polygon>
                <polygon id="rect3256" points="41 8 47.8571433 8 52.0000076 20.3030309 56.1428605 8 63 8 52.2857148 36 45.4285715 36 48.7058461 28.0821584"></polygon>
                <path d="M21,18.5666382 C20.9999773,17.1069934 20.7444261,15.7330151 20.2333464,14.4446956 C19.7222213,13.1564061 19.0098702,12.0394533 18.0962893,11.0938369 C17.1826743,10.1482506 16.0901908,9.39621366 14.8188352,8.83771466 C13.5474493,8.27926078 12.1514974,8.00002256 10.6309758,8 C4.01611048,8 0,12.6549729 0,18.5666382 C0,24.3542761 4.57439586,28.8799806 9.47458372,29 L14.8958738,23.0414579 L14.8075977,22.8933718 L14.8075977,28.5811427 L21,28.5811427 L21,18.5666382 Z M14.7853158,22.91575 L10.519165,22.9265067 C7.59589753,22.9265067 4.36385889,18.7472839 7.66021113,15.4728464 C10.5849282,12.5675733 14.9673371,14.9504149 14.9673371,18.9934437 L14.7853158,22.91575 Z" id="text3259"></path>
            </g>
        </g>
    </g>
</svg>