<?xml version="1.0" encoding="UTF-8"?>
<svg width="82px" height="82px" viewBox="0 0 82 82" version="1.1" xmlns="http://www.w3.org/2000/svg" xmlns:xlink="http://www.w3.org/1999/xlink">
    <!-- Generator: Sketch 52.6 (67491) - http://www.bohemiancoding.com/sketch -->
    <title>Artboard</title>
    <desc>Created with Sketch.</desc>
    <g id="Artboard" stroke="none" stroke-width="1" fill="none" fill-rule="evenodd">
        <g id="Group-2" transform="translate(11.000000, 14.000000)">
            <ellipse id="Oval" fill="#9013FE" cx="33" cy="15.5" rx="16" ry="15.5"></ellipse>
            <ellipse id="Oval-Copy" fill="#9013FE" cx="18.5" cy="16" rx="9.5" ry="9"></ellipse>
            <rect id="Rectangle" fill="#9013FE" x="0" y="14" width="56" height="19" rx="9"></rect>
            <g id="Group" transform="translate(7.000000, 15.000000)" stroke="#9013FE">
                <polyline id="Path" stroke-width="1.5" points="0 0 0 11.6804962 9.34628906 24.949707 9.34628906 32.0159302"></polyline>
                <ellipse id="Oval" stroke-width="1.4" cx="9.4" cy="34.3125" rx="2.4" ry="2.3125"></ellipse>
            </g>
            <g id="Group-Copy" transform="translate(30.000000, 28.500000) scale(-1, 1) translate(-30.000000, -28.500000) translate(24.000000, 10.000000)" stroke="#9013FE">
                <polyline id="Path" stroke-width="1.5" points="0 0 0 11.6804962 9.34628906 24.949707 9.34628906 32.0159302"></polyline>
                <ellipse id="Oval" stroke-width="1.4" cx="9.4" cy="34.3125" rx="2.4" ry="2.3125"></ellipse>
            </g>
            <g id="Group-Copy-2" transform="translate(41.000000, 35.500000) scale(-1, 1) translate(-41.000000, -35.500000) translate(35.000000, 17.000000)" stroke="#9013FE">
                <polyline id="Path" stroke-width="1.5" points="0 0 0 11.6804962 9.34628906 24.949707 9.34628906 32.0159302"></polyline>
                <ellipse id="Oval" stroke-width="1.4" cx="9.4" cy="34.3125" rx="2.4" ry="2.3125"></ellipse>
            </g>
            <text id="API" font-family="ArialMT, Arial" font-size="15" font-weight="normal" letter-spacing="-0.294736743" fill="#FFFFFF">
                <tspan x="16.3534821" y="24">API</tspan>
            </text>
        </g>
    </g>
</svg>