<?xml version="1.0" encoding="UTF-8"?>
<svg width="89px" height="89px" viewBox="0 0 89 89" version="1.1" xmlns="http://www.w3.org/2000/svg" xmlns:xlink="http://www.w3.org/1999/xlink">
    <!-- Generator: Sketch 50.2 (55047) - http://www.bohemiancoding.com/sketch -->
    <title>bank_america</title>
    <desc>Created with Sketch.</desc>
    <defs></defs>
    <g id="Page-1" stroke="none" stroke-width="1" fill="none" fill-rule="evenodd">
        <g id="bank_america">
            <rect id="biz_act" stroke="#E31836" stroke-width="2" fill="#FFFFFF" x="1" y="1" width="87" height="87" rx="8"></rect>
            <g id="Bank_of_America_logo" transform="translate(9.000000, 26.000000)">
                <path d="M28.1221765,9.0104902 C30.272098,9.85929412 32.3962549,10.7710784 34.4946471,11.741549 C27.813,14.4554314 21.3589412,17.6674314 15.2026078,21.3460588 C13.1185294,20.2539216 11.0043922,19.221902 8.86019608,18.2528627 C15.0079412,14.673 21.4462549,11.5769412 28.1221765,9.0104902" id="Shape" fill="#0067B1"></path>
                <path d="M20.1666078,6.20070588 C13.2273137,8.39786275 6.54996078,11.2720588 0.221862745,14.7588824 C2.24009804,15.4888824 4.23972549,16.2661176 6.21072549,17.0977451 C12.3427255,13.4892549 18.8239804,10.4533137 25.5671765,8.04001961 C23.7836863,7.38445098 21.9801569,6.77182353 20.1666078,6.20070588" id="Shape" fill="#0067B1"></path>
                <path d="M42.6048039,8.73996078 C37.1541373,6.10337255 31.4959216,3.88331373 25.6773922,2.11127451 C23.6305294,2.701 21.6022745,3.34368627 19.5911961,4.04362745 C25.5829216,5.81709804 31.4071765,8.06292157 37.0167255,10.7496078 C38.8603333,10.0425098 40.7254118,9.36976471 42.6048039,8.73996078" id="Shape" fill="#E31836"></path>
                <path d="M51.4979216,6.08905882 C45.9212941,3.65572549 40.1528627,1.62031373 34.259902,0 C32.3819412,0.387901961 30.5168627,0.821607843 28.6646667,1.29682353 C34.517549,3.00445098 40.2086863,5.17011765 45.698,7.74801961 C47.6174706,7.154 49.5512549,6.60005882 51.4979216,6.08905882" id="Shape" fill="#E31836"></path>
                <path d="M65.7772941,10.8855882 C51.7856275,15.6019608 38.6771176,22.3193922 26.8181961,30.7287059 C29.784,32.5494118 32.6710784,34.4817647 35.4937451,36.5171765 C46.6713333,27.6512549 59.079902,20.2653725 72.4346078,14.6543922 C70.2560588,13.3332353 68.0288431,12.0779216 65.7772941,10.8855882" id="Shape" fill="#E31836"></path>
                <path d="M56.1556078,6.31378431 C41.6085686,10.1613137 27.9318039,16.3691765 15.6019608,24.5451765 C18.3802549,25.9121373 21.108451,27.3707059 23.7808235,28.9237451 C35.8644706,20.5588039 49.2735686,14.0460588 63.5758431,9.7505098 C61.1367843,8.52811765 58.6619412,7.37729412 56.1556078,6.31378431" id="Shape" fill="#E31836"></path>
            </g>
        </g>
    </g>
</svg>