<?xml version="1.0" encoding="UTF-8"?>
<svg width="100px" height="100px" viewBox="0 0 100 100" version="1.1" xmlns="http://www.w3.org/2000/svg" xmlns:xlink="http://www.w3.org/1999/xlink">
    <!-- Generator: Sketch 52.6 (67491) - http://www.bohemiancoding.com/sketch -->
    <title>barnhart</title>
    <desc>Created with Sketch.</desc>
    <g id="barnhart" stroke="none" stroke-width="1" fill="none" fill-rule="evenodd">
        <g id="Group-2" transform="translate(11.000000, 22.000000)" stroke="#000000">
            <path d="M11.525612,26 C1.81248742,27.6989035 -0.873709377,32.4146654 2.21756054,35.2587205 C4.12089313,37.0098399 8.426856,37.2726752 14,38" id="Path" stroke-width="2"></path>
            <path d="M73.3890754,37.7229786 C58.3344914,37.4262476 64.8355457,37.0571858 63.8085213,37.137498 C53.201349,37.9669669 57.865062,44.057337 60.5956265,46.7420725 C62.4396522,48.5551487 66.6169435,48.8216568 72.0229741,49.5680218" id="Path-Copy" stroke-width="2" transform="translate(65.287516, 43.347175) rotate(167.000000) translate(-65.287516, -43.347175) "></path>
            <path d="M35,27 C38.3137085,27 41,25.3754235 41,21.6839692 C41,17.992515 38.3137085,15 35,15 C31.6862915,15 29,17.992515 29,21.6839692 C29,25.3754235 31.6862915,27 35,27 Z" id="Oval" stroke-width="2"></path>
            <path d="M16.5164555,19.6979613 C19.8910104,19.6934444 22.6287684,18.0808153 22.6336326,14.4248286 C22.6384969,10.7688419 19.9056041,8.72486673 16.5310492,8.72938355 C14.8128655,8.73168334 12.3820845,9.40269287 11.2705974,10.4078638 C10.1990965,11.3768732 10.415676,12.6466758 10.4132884,14.4411855 C10.4084241,18.0971722 13.1419006,19.7024781 16.5164555,19.6979613 Z" id="Oval-Copy" stroke-width="2" transform="translate(16.515249, 14.213673) rotate(-12.000000) translate(-16.515249, -14.213673) "></path>
            <path d="M22,17.1261997 C26.568627,16.9361899 24.0485878,16.4970439 29,20" id="Path-2" stroke-width="2"></path>
            <g id="Group" transform="translate(0.000000, 41.000000)">
                <path d="M2.8612572,0.294433594 C2.79678485,2.31309668 2.73231251,4.33175976 2.66784016,6.35042284" id="Path-3"></path>
                <polyline id="Path-5" points="5.04977098 1.52212279 5.04977098 2.67376855 5.04977098 6.95418939 5.04977098 7.07329357 5.04977098 7.19239775"></polyline>
                <path d="M6.40078899,1.70261143 C6.62418567,3.50291685 6.84758234,5.30322228 7.07097902,7.10352771" id="Path-6"></path>
                <path d="M7.3465983,2.07824767 C7.38850533,3.73318493 7.43041235,5.38812218 7.47231938,7.04305943" id="Path-7"></path>
                <path d="M7.93555318,2.28713807 C8.08899736,3.43878384 8.24244155,4.5904296 8.39588573,5.74207536" id="Path-8"></path>
                <path d="M8.51773846,1.94906545 C8.63733467,3.73349032 8.75693087,5.51791519 8.87652707,7.30234006" id="Path-9"></path>
                <path d="M9.3900493,2.25507157 C9.61312362,4.13508517 9.83619794,6.01509878 10.0592723,7.89511238" id="Path-10"></path>
                <path d="M10.7091535,1.7236837 C10.7088311,3.49772513 10.7085088,5.27176656 10.7081864,7.04580799" id="Path-11"></path>
                <path d="M11.8657874,1.80614044 C11.9834494,3.81197692 12.1011114,5.8178134 12.2187735,7.82364988" id="Path-12"></path>
                <path d="M12.871556,1.93990359 C13.0949527,3.3428897 13.3183493,4.74587582 13.541746,6.14886193" id="Path-13"></path>
                <path d="M14.0223874,1.52945228 C14.2103242,2.91961179 14.3982611,4.3097713 14.586198,5.6999308" id="Path-14"></path>
                <path d="M15.2438159,2.13413502 C15.2360793,4.25602172 15.2283426,6.37790842 15.2206059,8.49979512" id="Path-15"></path>
                <path d="M16.8955975,2.60138986 C16.9375045,3.15720935 16.9794115,3.71302884 17.0213185,4.26884832" id="Path-16"></path>
                <path d="M17.2727607,2.10756562 C17.495835,3.77288632 17.7189093,5.43820701 17.9419836,7.10352771" id="Path-17"></path>
                <path d="M17.8065917,2.05625921 C18.0444947,3.53009704 18.2823976,5.00393486 18.5203006,6.47777269" id="Path-18"></path>
                <path d="M15.2592893,2.78920798 C15.6132425,3.75822734 15.9671957,4.7272467 16.3211488,5.69626606" id="Path-19"></path>
                <path d="M1.89223784,1.85561448 C1.53022562,3.54292364 1.16821339,5.2302328 0.806201172,6.91754196" id="Path-20"></path>
                <path d="M5.22384631,1.0841859 C5.40211235,3.52124057 5.58037839,5.95829525 5.75864442,8.39534992" id="Path-21"></path>
                <path d="M9.88519692,1.81072137 C9.99673408,3.0949087 10.1082712,4.37909603 10.2198084,5.66328337" id="Path-22"></path>
                <path d="M14.5368767,2.66369051 C14.6206907,3.6696627 14.7045048,4.67563489 14.7883188,5.68160709" id="Path-23"></path>
                <path d="M15.8753226,0.964165536 C16.3304973,3.05948285 16.7856721,5.15480015 17.2408469,7.25011746" id="Path-24"></path>
                <polyline id="Path-25" points="17.4555398 2.10573325 17.4555398 3.04390768 17.4555398 5.53135259 17.4555398 6.68299835"></polyline>
                <path d="M10.0176876,1.20878719 C10.0170429,2.34730095 10.0163981,3.48581472 10.0157534,4.62432848" id="Path-26"></path>
                <path d="M7.51873946,0.618763426 C7.45491184,1.48578075 7.39108422,2.35279807 7.3272566,3.21981539" id="Path-27"></path>
                <path d="M6.35146764,1.45982215 C6.10486092,2.28713807 5.8582542,3.114454 5.61164747,3.94176993" id="Path-28"></path>
                <path d="M4.52657789,0.675566956 C4.35733798,1.52273358 4.18809808,2.36990021 4.01885817,3.21706683" id="Path-29"></path>
                <path d="M4.02175942,2.24957445 C3.82963183,3.93688361 3.63750424,5.62419276 3.44537665,7.31150192" id="Path-4"></path>
                <path d="M3.25486087,2.54550252 C3.25421615,3.29982896 3.25357142,4.05415541 3.2529267,4.80848186" id="Path-30"></path>
            </g>
            <path d="M29,10.5610106 C32.6833308,6.5918618 36.0969418,3.83549189 39.2408329,2.2919009 C43.9566695,-0.0234855805 44.6460791,4.71513753e-06 50.5100068,4.71513753e-06 C56.3739345,4.71513753e-06 58.1152281,0.684721177 62.2530876,2.2919009 C66.3909471,3.89908063 65.5545841,3.31655666 69.2487686,7.27829873 C72.9429532,11.2400408 73.4622868,13.1862171 75.1050367,16.0746739 C76.7477865,18.9631306 76.9985114,18.7210769 77.6661705,22.0786662 C78.1112765,24.3170591 78.1112765,26.6089553 77.6661705,28.9543548 L73.5953839,37" id="Path-31" stroke-width="2"></path>
            <path d="M14.3417969,13 C14.4472656,13.6666667 14.5527344,14.3333333 14.6582031,15" id="Path-32"></path>
            <path d="M15.4692383,13 C15.4897461,14 15.5102539,15 15.5307617,16" id="Path-33"></path>
            <path d="M34.3095703,21 C34.4365234,21.3333333 34.5634766,21.6666667 34.6904297,22" id="Path-34"></path>
            <path d="M34.2460938,20 C34.4153646,20.6666667 34.5846354,21.3333333 34.7539062,22" id="Path-35"></path>
            <path d="M35.2460938,20 C35.4153646,20.6666667 35.5846354,21.3333333 35.7539062,22" id="Path-36"></path>
            <path d="M13.46875,13 C13.4895833,13.6666667 13.5104167,14.3333333 13.53125,15" id="Path-37"></path>
            <path d="M14.4047852,12 C14.4682617,12.3333333 14.5317383,12.6666667 14.5952148,13" id="Path-38"></path>
            <path d="M59.2143555,45 C59.4047852,45.3333333 59.5952148,45.6666667 59.7856445,46" id="Path-39"></path>
            <path d="M59.3271484,44 C59.4423828,44.3333333 59.5576172,44.6666667 59.6728516,45" id="Path-40"></path>
            <path d="M60.4047852,44.0556641 C60.4682617,44.351888 60.5317383,44.648112 60.5952148,44.9443359" id="Path-41"></path>
            <path d="M54,28 C53.3333333,30.6666667 52.6666667,33.3333333 52,36" id="Path-42"></path>
            <path d="M54,30 C53.3333333,32.3333333 52.6666667,34.6666667 52,37" id="Path-43"></path>
            <path d="M55,29 C54.6666667,31.3333333 54.3333333,33.6666667 54,36" id="Path-44"></path>
            <path d="M57,30 C55.713316,36.4995154 56.9508879,33.9801345 54,38" id="Path-45"></path>
            <path d="M56,31 C55.3333333,33 54.6666667,35 54,37" id="Path-46"></path>
            <path d="M58,31 C57.3333333,32.6666667 56.6666667,34.3333333 56,36" id="Path-47"></path>
            <path d="M58,32 C57.6666667,33.3333333 57.3333333,34.6666667 57,36" id="Path-48"></path>
            <path d="M59,32 C58.6666667,33.3333333 58.3333333,34.6666667 58,36" id="Path-49"></path>
            <path d="M59.6938477,33 C59.5646159,34 59.4353841,35 59.3061523,36" id="Path-50"></path>
            <path d="M60.644043,33 C60.5480143,34 60.4519857,35 60.355957,36" id="Path-51"></path>
            <path d="M60.5976562,33 C60.5325521,34 60.4674479,35 60.4023438,36" id="Path-52"></path>
            <path d="M44,22 C48.3333333,25 52.6666667,28 57,31" id="Path-53"></path>
            <path d="M45,23 C49.3333333,26 53.6666667,29 58,32" id="Path-54" stroke-width="3"></path>
            <path d="M61.9710575,53 C61.9736834,60.2087928 62.4949136,56.083537 59,65" id="Path-55" stroke-width="2"></path>
            <path d="M62,55 C61.3333333,58.3333333 60.6666667,61.6666667 60,65" id="Path-56" stroke-width="2"></path>
            <path d="M61,56 C60.3333333,58.6666667 59.6666667,61.3333333 59,64" id="Path-57" stroke-width="2"></path>
            <path d="M61.6640625,55 C61.5546875,57 61.4453125,59 61.3359375,61" id="Path-58" stroke-width="2"></path>
            <path d="M49,63 C56.6666667,64.3333333 64.3333333,65.6666667 72,67" id="Path-59" stroke-width="2"></path>
            <path d="M48,62 C64.8683952,68.496947 56.7923762,66.8850041 72,68" id="Path-60" stroke-width="2"></path>
            <path d="M53,65 C59.3333333,66 65.6666667,67 72,68" id="Path-61" stroke-width="2"></path>
            <path d="M53,65 C58.3333333,66 63.6666667,67 69,68" id="Path-62" stroke-width="2"></path>
            <path d="M23,58 C41.5668195,62.6210712 32.2129229,59.6843203 51,67" id="Path-63" stroke-width="2"></path>
            <path d="M23,57 C31.6666667,60.3333333 40.3333333,63.6666667 49,67" id="Path-64" stroke-width="2"></path>
            <path d="M23,56 C92.7752729,89.1240602 9.32283228,50.9564355 49.9607487,66.6013639 C50.6479393,66.865921 50.8270889,67.83375 51.260259,68.449943" id="Path-65" stroke-width="2"></path>
            <path d="M6,61.7110424 C15.8189473,57.9335117 18.5942489,57.590005 27,64" id="Path-66" stroke-width="2"></path>
        </g>
    </g>
</svg>