<?xml version="1.0" encoding="UTF-8"?>
<svg width="100px" height="100px" viewBox="0 0 100 100" version="1.1" xmlns="http://www.w3.org/2000/svg" xmlns:xlink="http://www.w3.org/1999/xlink">
    <!-- Generator: Sketch 52.6 (67491) - http://www.bohemiancoding.com/sketch -->
    <title>barnhart</title>
    <desc>Created with Sketch.</desc>
    <g id="barnhart" stroke="none" stroke-width="1" fill="none" fill-rule="evenodd">
        <path d="M21.8630379,40 C11.8385338,41.8628764 9.06622399,47.0337892 12.2565926,50.1523438 C14.2209415,52.0724758 18.6649432,52.3606791 24.4167489,53.1582031" id="Path" stroke="#000000" stroke-width="2"></path>
        <path d="M88.0932524,52.8794889 C72.0784802,52.5427321 78.9934162,52.1623682 77.9010411,52.2457312 C66.6189228,53.1067096 71.58924,59.5543601 74.4979745,62.39762 C76.4623234,64.3177521 80.9063251,64.6059554 86.6581307,65.4034794" id="Path-Copy" stroke="#000000" stroke-width="2" transform="translate(79.477665, 58.818786) rotate(167.000000) translate(-79.477665, -58.818786) "></path>
        <path d="M47.5,41.5673828 C51.0898509,41.5673828 54,39.8659932 54,36 C54,32.1340068 51.0898509,29 47.5,29 C43.9101491,29 41,32.1340068 41,36 C41,39.8659932 43.9101491,41.5673828 47.5,41.5673828 Z" id="Oval" stroke="#000000" stroke-width="2"></path>
        <path d="M27.5829823,33.8253559 C31.1728331,33.8253559 34.0829823,32.1239664 34.0829823,28.2579731 C34.0829823,24.3919799 31.1728331,22.2267231 27.5829823,22.2267231 C25.7551788,22.2267231 23.1702595,22.9328374 21.9892803,23.9941759 C20.8507873,25.0173322 21.0829823,26.3603836 21.0829823,28.2579731 C21.0829823,32.1239664 23.9931314,33.8253559 27.5829823,33.8253559 Z" id="Oval-Copy" stroke="#000000" stroke-width="2" transform="translate(27.573237, 28.026040) rotate(-12.000000) translate(-27.573237, -28.026040) "></path>
        <path d="M33.9296875,30.6748047 C38.5282706,30.4609545 35.9917078,29.9667089 40.9755859,33.9091797" id="Path-2" stroke="#000000" stroke-width="2"></path>
        <g id="Group" transform="translate(10.000000, 56.000000)" stroke="#000000">
            <path d="M3.01184968,0.327148437 C2.94398405,2.57010742 2.87611843,4.8130664 2.8082528,7.05602538" id="Path-3"></path>
            <polyline id="Path-5" points="5.3155484 1.69124755 5.3155484 2.97085395 5.3155484 7.72687711 5.3155484 7.85921508 5.3155484 7.99155305"></polyline>
            <path d="M6.73767262,1.89179047 C6.97282702,3.89212984 7.20798141,5.8924692 7.44313581,7.89280856" id="Path-6"></path>
            <path d="M7.73326137,2.30916408 C7.77737403,4.14798325 7.82148669,5.98680242 7.86559934,7.82562159" id="Path-7"></path>
            <path d="M8.35321387,2.54126453 C8.51473407,3.82087093 8.67625426,5.10047733 8.83777445,6.38008373" id="Path-8"></path>
            <path d="M8.96604049,2.16562828 C9.09193123,4.14832258 9.21782197,6.13101688 9.3437127,8.11371118" id="Path-9"></path>
            <path d="M9.88426243,2.50563507 C10.1190775,4.59453908 10.3538926,6.68344309 10.5887076,8.77234709" id="Path-10"></path>
            <path d="M11.2727932,1.91520412 C11.2724538,3.88636126 11.2721145,5.8575184 11.2717752,7.82867555" id="Path-11"></path>
            <path d="M12.4903025,2.00682271 C12.6141573,4.23552991 12.7380121,6.46423711 12.8618668,8.69294431" id="Path-12"></path>
            <path d="M13.5490063,2.15544844 C13.7841607,3.71432189 14.0193151,5.27319535 14.2544695,6.83206881" id="Path-13"></path>
            <path d="M14.7604077,1.69939142 C14.958236,3.2440131 15.1560644,4.78863477 15.3538927,6.33325645" id="Path-14"></path>
            <path d="M16.0461221,2.37126113 C16.0379782,4.72891302 16.0298343,7.08656491 16.0216904,9.4442168" id="Path-15"></path>
            <path d="M17.7848394,2.89043318 C17.8289521,3.50801039 17.8730647,4.1255876 17.9171774,4.7431648" id="Path-16"></path>
            <path d="M18.1818533,2.34173958 C18.4166684,4.19209591 18.6514835,6.04245224 18.8862986,7.89280856" id="Path-17"></path>
            <path d="M18.7437807,2.28473246 C18.9942049,3.92233004 19.2446291,5.55992763 19.4950532,7.19752521" id="Path-18"></path>
            <path d="M16.0624098,3.09911998 C16.4349921,4.17580816 16.8075744,5.25249634 17.1801567,6.32918451" id="Path-19"></path>
            <path d="M1.9918293,2.06179387 C1.61076381,3.93658182 1.22969831,5.81136978 0.848632813,7.68615773" id="Path-20"></path>
            <path d="M5.49878559,1.204651 C5.68643405,3.91248953 5.87408251,6.62032805 6.06173097,9.32816658" id="Path-21"></path>
            <path d="M10.4054704,2.01191263 C10.522878,3.43878745 10.6402855,4.86566226 10.757693,6.29253707" id="Path-22"></path>
            <path d="M15.3019754,2.95965612 C15.3902008,4.077403 15.4784261,5.19514988 15.5666514,6.31289676" id="Path-23"></path>
            <path d="M16.7108659,1.07129504 C17.1899972,3.39942538 17.6691285,5.72755573 18.1482599,8.05568607" id="Path-24"></path>
            <polyline id="Path-25" points="18.3742524 2.33970361 18.3742524 3.38211965 18.3742524 6.14594732 18.3742524 7.42555372"></polyline>
            <path d="M10.5449343,1.34309688 C10.5442557,2.60811217 10.543577,3.87312746 10.5428983,5.13814275" id="Path-26"></path>
            <path d="M7.91446259,0.687514918 C7.84727562,1.6508675 7.78008865,2.61422008 7.71290168,3.57757265" id="Path-27"></path>
            <path d="M6.68575541,1.62202461 C6.42616939,2.54126453 6.16658336,3.46050445 5.90699734,4.37974437" id="Path-28"></path>
            <path d="M4.76481883,0.750629952 C4.58667156,1.6919262 4.40852429,2.63322245 4.23037702,3.5745187" id="Path-29"></path>
            <path d="M4.23343097,2.49952717 C4.0311914,4.37431512 3.82895183,6.24910307 3.62671226,8.12389102" id="Path-4"></path>
            <path d="M3.42616934,2.82833613 C3.42549068,3.66647663 3.42481202,4.50461712 3.42413337,5.34275762" id="Path-30"></path>
        </g>
        <path d="M41,24.1689453 C44.886133,19.9713143 48.4876955,17.0562752 51.8046875,15.4238281 C56.7801755,12.9751575 57.5075436,13 63.6943359,13 C69.8811283,13 71.7182966,13.7241318 76.0839844,15.4238281 C80.4496722,17.1235244 79.5672594,16.5074677 83.4648438,20.6972656 C87.3624281,24.8870635 87.9103559,26.9452705 89.6435547,30 C91.3767534,33.0547295 91.6412831,32.798742 92.3457031,36.3496094 C92.8153165,38.7168543 92.8153165,41.1406824 92.3457031,43.6210938 L88.0507813,52.1298828" id="Path-31" stroke="#000000" stroke-width="2"></path>
        <path d="M25.5234375,26.7333984 C25.6289062,27.3889974 25.734375,28.0445964 25.8398438,28.7001953" id="Path-32" stroke="#000000"></path>
        <path d="M26.3408203,26.7753906 C26.3613281,27.6852214 26.3818359,28.5950521 26.4023438,29.5048828" id="Path-33" stroke="#000000"></path>
        <path d="M46.1708984,34.6054688 C46.2978516,35.1132812 46.4248047,35.6210938 46.5517578,36.1289062" id="Path-34" stroke="#000000"></path>
        <path d="M46.8056641,34.0800781 C46.9749349,34.7994792 47.1442057,35.5188802 47.3134766,36.2382812" id="Path-35" stroke="#000000"></path>
        <path d="M47.1845703,33.6787109 C47.3538411,34.5250651 47.523112,35.3714193 47.6923828,36.2177734" id="Path-36" stroke="#000000"></path>
        <path d="M24.7509766,26.7402344 C24.7718099,27.3961589 24.7926432,28.0520833 24.8134766,28.7080078" id="Path-37" stroke="#000000"></path>
        <path d="M25.3193359,25.9355469 C25.3828125,26.2952474 25.4462891,26.6549479 25.5097656,27.0146484" id="Path-38" stroke="#000000"></path>
        <path d="M73.5546875,60.3525391 C73.7451172,60.796875 73.9355469,61.2412109 74.1259766,61.6855469" id="Path-39" stroke="#000000"></path>
        <path d="M73.2851562,59.4394531 C73.4003906,59.9560547 73.515625,60.4726562 73.6308594,60.9892578" id="Path-40" stroke="#000000"></path>
        <path d="M73.9462891,59.3232422 C74.0097656,59.6194661 74.0732422,59.9156901 74.1367188,60.2119141" id="Path-41" stroke="#000000"></path>
        <path d="M67.2636719,42.8769531 C66.5341797,45.648763 65.8046875,48.4205729 65.0751953,51.1923828" id="Path-42" stroke="#000000"></path>
        <path d="M68.1220703,44.4589844 C67.3059896,46.828776 66.4899089,49.1985677 65.6738281,51.5683594" id="Path-43" stroke="#000000"></path>
        <path d="M68.5673828,44.140625 C68.0641276,46.561849 67.5608724,48.9830729 67.0576172,51.4042969" id="Path-44" stroke="#000000"></path>
        <path d="M70.9863281,44.3623047 C69.4144124,50.9863835 70.9263289,48.4187187 67.3212891,52.515625" id="Path-45" stroke="#000000"></path>
        <path d="M69.359375,45.9160156 C68.7890625,48.1803385 68.21875,50.4446615 67.6484375,52.7089844" id="Path-46" stroke="#000000"></path>
        <path d="M71.9404297,45.9619141 C71.2851562,47.632487 70.6298828,49.3030599 69.9746094,50.9736328" id="Path-47" stroke="#000000"></path>
        <path d="M71.8144531,47.578125 C71.3795573,48.8372396 70.9446615,50.0963542 70.5097656,51.3554688" id="Path-48" stroke="#000000"></path>
        <path d="M73.0878906,47.2695312 C72.6318359,48.7226562 72.1757812,50.1757812 71.7197266,51.6289062" id="Path-49" stroke="#000000"></path>
        <path d="M73.3330078,48.0361328 C73.203776,48.9671224 73.0745443,49.898112 72.9453125,50.8291016" id="Path-50" stroke="#000000"></path>
        <path d="M74.2431641,48.1738281 C74.1471354,49.2617188 74.0511068,50.3496094 73.9550781,51.4375" id="Path-51" stroke="#000000"></path>
        <path d="M74.7792969,48.390625 C74.7141927,49.2864583 74.6490885,50.1822917 74.5839844,51.078125" id="Path-52" stroke="#000000"></path>
        <path d="M56.6357422,36.3701172 C61.1214193,39.5439453 65.6070964,42.7177734 70.0927734,45.8916016" id="Path-53" stroke="#000000"></path>
        <path d="M58.1582031,36.984375 C62.9111328,40.1259766 67.6640625,43.2675781 72.4169922,46.4091797" id="Path-54" stroke="#000000" stroke-width="3"></path>
        <path d="M76.5361328,69.65625 C76.5393212,76.9624272 77.1721925,72.7814429 72.9287109,81.8183594" id="Path-55" stroke="#000000" stroke-width="2"></path>
        <path d="M75.3837891,71.2685547 C74.84375,74.7981771 74.3037109,78.3277995 73.7636719,81.8574219" id="Path-56" stroke="#000000" stroke-width="2"></path>
        <path d="M75.6660156,71.6582031 C74.7841797,74.5126953 73.9023438,77.3671875 73.0205078,80.2216797" id="Path-57" stroke="#000000" stroke-width="2"></path>
        <path d="M75.4130859,71.0283203 C75.3037109,73.1653646 75.1943359,75.3024089 75.0849609,77.4394531" id="Path-58" stroke="#000000" stroke-width="2"></path>
        <path d="M62.1738281,79.4765625 C70.218099,80.843099 78.2623698,82.2096354 86.3066406,83.5761719" id="Path-59" stroke="#000000" stroke-width="2"></path>
        <path d="M61.03125,78.9414062 C79.3286816,85.5218915 70.5684881,83.8892221 87.0644531,85.0185547" id="Path-60" stroke="#000000" stroke-width="2"></path>
        <path d="M66.3388672,81.5097656 C73.0836589,82.3971354 79.8284505,83.2845052 86.5732422,84.171875" id="Path-61" stroke="#000000" stroke-width="2"></path>
        <path d="M66.8876953,81.4101562 C72.4645182,82.4661458 78.0413411,83.5221354 83.6181641,84.578125" id="Path-62" stroke="#000000" stroke-width="2"></path>
        <path d="M34.1455078,74.0947266 C53.8811718,79.063782 43.9384155,75.9058826 63.9082031,83.7724609" id="Path-63" stroke="#000000" stroke-width="2"></path>
        <path d="M34.8867188,73.2607422 C44.0755208,76.7841797 53.2643229,80.3076172 62.453125,83.8310547" id="Path-64" stroke="#000000" stroke-width="2"></path>
        <path d="M34.0859375,72.2988281 C109.068091,106.421277 19.3881306,67.1032461 63.0585938,83.2197266 C63.7970649,83.4922576 63.9895833,84.4892578 64.4550781,85.1240234" id="Path-65" stroke="#000000" stroke-width="2"></path>
        <path d="M15.8232422,78.5253906 C26.4111212,74.1529887 29.4037595,73.7553878 38.4677734,81.1748047" id="Path-66" stroke="#000000" stroke-width="2"></path>
    </g>
</svg>