<?xml version="1.0" encoding="UTF-8"?>
<svg width="100px" height="100px" viewBox="0 0 100 100" version="1.1" xmlns="http://www.w3.org/2000/svg" xmlns:xlink="http://www.w3.org/1999/xlink">
    <!-- Generator: Sketch 52.6 (67491) - http://www.bohemiancoding.com/sketch -->
    <title>barnhart</title>
    <desc>Created with Sketch.</desc>
    <g id="barnhart" stroke="none" stroke-width="1" fill="none" fill-rule="evenodd">
        <g id="Group-2" transform="translate(11.000000, 24.000000)" stroke="#000000">
            <path d="M10.934555,24.6666667 C1.71953935,26.2784469 -0.828903768,30.7523749 2.10383949,33.450581 C3.90956527,35.1118994 7.99470954,35.3612559 13.2820513,36.0512821" id="Path" stroke-width="2"></path>
            <path d="M69.6255331,35.7884669 C55.342979,35.5069528 61.5106459,35.1568173 60.5362895,35.2330109 C50.4730747,36.019943 54.8976229,41.7979863 57.4881585,44.3450432 C59.2376188,46.0651411 63.20069,46.3179821 68.3294882,47.026072" id="Path-Copy" stroke-width="2" transform="translate(61.939438, 41.124243) rotate(167.000000) translate(-61.939438, -41.124243) "></path>
            <path d="M33.2051282,25.6153846 C36.3489029,25.6153846 38.8974359,24.0741197 38.8974359,20.5719708 C38.8974359,17.0698219 36.3489029,14.2307692 33.2051282,14.2307692 C30.0613535,14.2307692 27.5128205,17.0698219 27.5128205,20.5719708 C27.5128205,24.0741197 30.0613535,25.6153846 33.2051282,25.6153846 Z" id="Oval" stroke-width="2"></path>
            <path d="M15.6694578,18.6878094 C18.8709586,18.6835242 21.4683187,17.153594 21.4729335,13.6850938 C21.4775484,10.2165936 18.8848038,8.27743766 15.6833031,8.28172286 C14.0532314,8.2839047 11.7471058,8.92050349 10.692618,9.87412716 C9.67606591,10.7934438 9.88153877,11.9981283 9.87927362,13.7006119 C9.87465879,17.1691121 12.467957,18.6920946 15.6694578,18.6878094 Z" id="Oval-Copy" stroke-width="2" transform="translate(15.668314, 13.484767) rotate(-12.000000) translate(-15.668314, -13.484767) "></path>
            <path d="M20.8717949,16.247933 C25.2061333,16.0676674 22.8153269,15.6510416 27.5128205,18.974359" id="Path-2" stroke-width="2"></path>
            <g id="Group" transform="translate(0.000000, 38.897436)">
                <path d="M2.71452606,0.279334435 C2.65335999,2.19447633 2.59219392,4.10961823 2.53102784,6.02476013" id="Path-3"></path>
                <polyline id="Path-5" points="4.79080836 1.44406521 4.79080836 2.53665222 4.79080836 6.5975643 4.79080836 6.71056057 4.79080836 6.82355684"></polyline>
                <path d="M6.0725434,1.61529802 C6.28448384,3.32328009 6.49642427,5.03126216 6.70836471,6.73924424" id="Path-6"></path>
                <path d="M6.96984967,1.97167087 C7.00960762,3.54173955 7.04936556,5.11180822 7.08912351,6.6818769" id="Path-7"></path>
                <path d="M7.52860174,2.16984894 C7.67417699,3.26243595 7.81975224,4.35502295 7.96532749,5.44760996" id="Path-8"></path>
                <path d="M8.08093136,1.84911338 C8.19439443,3.54202928 8.30785749,5.23494518 8.42132055,6.92786109" id="Path-9"></path>
                <path d="M8.90850831,2.13942687 C9.12014292,3.92302952 9.33177753,5.70663217 9.54341214,7.49023483" id="Path-10"></path>
                <path d="M10.1599661,1.63528967 C10.1596603,3.31835461 10.1593545,5.00141956 10.1590487,6.6844845" id="Path-11"></path>
                <path d="M11.2572855,1.71351785 C11.3689136,3.61649092 11.4805416,5.51946399 11.5921697,7.42243706" id="Path-12"></path>
                <path d="M12.2114762,1.84042136 C12.4234166,3.17145946 12.6353571,4.50249757 12.8472975,5.83353568" id="Path-13"></path>
                <path d="M13.3032906,1.45101883 C13.4815897,2.76988811 13.6598888,4.08875738 13.8381879,5.40762666" id="Path-14"></path>
                <path d="M14.4620818,2.0246922 C14.4547419,4.0377642 14.4474019,6.05083619 14.440062,8.06390819" id="Path-15"></path>
                <path d="M16.0291566,2.46798525 C16.0689145,2.99530118 16.1086724,3.5226171 16.1484304,4.04993302" id="Path-16"></path>
                <path d="M16.3869781,1.99948534 C16.5986127,3.57940497 16.8102473,5.1593246 17.0218819,6.73924424" id="Path-17"></path>
                <path d="M16.8934332,1.95081002 C17.119136,3.34906642 17.3448388,4.74732282 17.5705416,6.14557922" id="Path-18"></path>
                <path d="M14.4767617,2.64617168 C14.8125634,3.56549774 15.1483651,4.48482379 15.4841669,5.40414985" id="Path-19"></path>
                <path d="M1.7952,1.76045477 C1.45175251,3.36123525 1.10830501,4.96201573 0.764857522,6.56279621" id="Path-20"></path>
                <path d="M4.95595676,1.02858662 C5.12508095,3.34066413 5.29420513,5.65274165 5.46332932,7.96481916" id="Path-21"></path>
                <path d="M9.37826375,1.71786386 C9.48408105,2.93619544 9.58989835,4.15452701 9.69571566,5.37285858" id="Path-22"></path>
                <path d="M13.7913958,2.52709099 C13.8709117,3.48147487 13.9504276,4.43585874 14.0299435,5.39024262" id="Path-23"></path>
                <path d="M15.0612035,0.91472115 C15.4930359,2.90258629 15.9248684,4.89045143 16.3567009,6.87831657" id="Path-24"></path>
                <polyline id="Path-25" points="16.5603839 1.99774693 16.5603839 2.88780985 16.5603839 5.24769348 16.5603839 6.34028048"></polyline>
                <path d="M9.50396002,1.1467981 C9.50334836,2.22692654 9.5027367,3.30705499 9.50212504,4.38718343" id="Path-26"></path>
                <path d="M7.13316308,0.587031969 C7.07260867,1.40958686 7.01205426,2.23214176 6.95149985,3.05469665" id="Path-27"></path>
                <path d="M6.02575135,1.38495947 C5.79179113,2.16984894 5.5578309,2.95473841 5.32387068,3.73962788" id="Path-28"></path>
                <path d="M4.29444569,0.640922497 C4.13388475,1.44464468 3.97332382,2.24836686 3.81276288,3.05208905" id="Path-29"></path>
                <path d="M3.81551535,2.13421166 C3.63324046,3.73499214 3.45096556,5.33577262 3.26869067,6.93655311" id="Path-4"></path>
                <path d="M3.08794493,2.41496393 C3.08733327,3.13060697 3.08672161,3.84625001 3.08610994,4.56189304" id="Path-30"></path>
            </g>
            <path d="M27.5128205,10.0194203 C31.0072626,6.2538176 34.2458165,3.6388 37.2284825,2.17436752 C41.7024813,-0.0222811917 42.3565365,4.47333561e-06 47.91975,4.47333561e-06 C53.4829635,4.47333561e-06 55.13496,0.649607271 59.0606216,2.17436752 C62.9862832,3.69912777 62.1928105,3.14647683 65.6975497,6.90505264 C69.2022889,10.6636284 69.6949901,12.5100008 71.2534963,15.2503316 C72.8120026,17.9906624 73.0498698,17.7610217 73.6832899,20.9464269 C74.10557,23.0700304 74.10557,25.2443934 73.6832899,27.4695161 L69.8212616,35.1025641" id="Path-31" stroke-width="2"></path>
            <path d="M13.6063201,12.3333333 C13.7063802,12.965812 13.8064403,13.5982906 13.9065004,14.2307692" id="Path-32"></path>
            <path d="M14.675944,12.3333333 C14.6954001,13.2820513 14.7148563,14.2307692 14.7343124,15.1794872" id="Path-33"></path>
            <path d="M32.5501052,19.9230769 C32.6705479,20.2393162 32.7909906,20.5555556 32.9114333,20.8717949" id="Path-34"></path>
            <path d="M32.4898838,18.974359 C32.6504741,19.6068376 32.8110644,20.2393162 32.9716546,20.8717949" id="Path-35"></path>
            <path d="M33.4386018,18.974359 C33.599192,19.6068376 33.7597823,20.2393162 33.9203726,20.8717949" id="Path-36"></path>
            <path d="M12.7780449,12.3333333 C12.7978098,12.965812 12.8175748,13.5982906 12.8373397,14.2307692" id="Path-37"></path>
            <path d="M13.6660782,11.3846154 C13.7262996,11.7008547 13.7865209,12.017094 13.8467423,12.3333333" id="Path-38"></path>
            <path d="M56.1777219,42.6923077 C56.3583859,43.008547 56.53905,43.3247863 56.719714,43.6410256" id="Path-39"></path>
            <path d="M56.2847306,41.7435897 C56.3940555,42.0598291 56.5033804,42.3760684 56.6127053,42.6923077" id="Path-40"></path>
            <path d="M57.3071039,41.7963992 C57.3673252,42.0774322 57.4275466,42.3584652 57.4877679,42.6394982" id="Path-41"></path>
            <path d="M51.2307692,26.5641026 C50.5982906,29.0940171 49.965812,31.6239316 49.3333333,34.1538462" id="Path-42"></path>
            <path d="M51.2307692,28.4615385 C50.5982906,30.6752137 49.965812,32.8888889 49.3333333,35.1025641" id="Path-43"></path>
            <path d="M52.1794872,27.5128205 C51.8632479,29.7264957 51.5470085,31.9401709 51.2307692,34.1538462" id="Path-44"></path>
            <path d="M54.0769231,28.4615385 C52.8562229,34.6277453 54.0303296,32.2375635 51.2307692,36.0512821" id="Path-45"></path>
            <path d="M53.1282051,29.4102564 C52.4957265,31.3076923 51.8632479,33.2051282 51.2307692,35.1025641" id="Path-46"></path>
            <path d="M55.025641,29.4102564 C54.3931624,30.991453 53.7606838,32.5726496 53.1282051,34.1538462" id="Path-47"></path>
            <path d="M55.025641,30.3589744 C54.7094017,31.6239316 54.3931624,32.8888889 54.0769231,34.1538462" id="Path-48"></path>
            <path d="M55.974359,30.3589744 C55.6581197,31.6239316 55.3418803,32.8888889 55.025641,34.1538462" id="Path-49"></path>
            <path d="M56.6326247,31.3076923 C56.5100202,32.2564103 56.3874157,33.2051282 56.2648112,34.1538462" id="Path-50"></path>
            <path d="M57.534092,31.3076923 C57.4429879,32.2564103 57.3518838,33.2051282 57.2607797,34.1538462" id="Path-51"></path>
            <path d="M57.4900841,31.3076923 C57.4283186,32.2564103 57.3665532,33.2051282 57.3047877,34.1538462" id="Path-52"></path>
            <path d="M41.7435897,20.8717949 C45.8547009,23.7179487 49.965812,26.5641026 54.0769231,29.4102564" id="Path-53"></path>
            <path d="M42.6923077,21.8205128 C46.8034188,24.6666667 50.9145299,27.5128205 55.025641,30.3589744" id="Path-54" stroke-width="3"></path>
            <path d="M58.7930546,50.2820513 C58.7955458,57.1211624 59.2900462,53.2074582 55.974359,61.6666667" id="Path-55" stroke-width="2"></path>
            <path d="M58.8205128,52.1794872 C58.1880342,55.3418803 57.5555556,58.5042735 56.9230769,61.6666667" id="Path-56" stroke-width="2"></path>
            <path d="M57.8717949,53.1282051 C57.2393162,55.6581197 56.6068376,58.1880342 55.974359,60.7179487" id="Path-57" stroke-width="2"></path>
            <path d="M58.5018029,52.1794872 C58.3980369,54.0769231 58.2942708,55.974359 58.1905048,57.8717949" id="Path-58" stroke-width="2"></path>
            <path d="M46.4871795,59.7692308 C53.7606838,61.034188 61.034188,62.2991453 68.3076923,63.5641026" id="Path-59" stroke-width="2"></path>
            <path d="M45.5384615,58.8205128 C61.5418108,64.984283 53.8799467,63.4550039 68.3076923,64.5128205" id="Path-60" stroke-width="2"></path>
            <path d="M50.2820513,61.6666667 C56.2905983,62.6153846 62.2991453,63.5641026 68.3076923,64.5128205" id="Path-61" stroke-width="2"></path>
            <path d="M50.2820513,61.6666667 C55.3418803,62.6153846 60.4017094,63.5641026 65.4615385,64.5128205" id="Path-62" stroke-width="2"></path>
            <path d="M21.8205128,55.025641 C39.4351878,59.4097342 30.5609781,56.6235859 48.3846154,63.5641026" id="Path-63" stroke-width="2"></path>
            <path d="M21.8205128,54.0769231 C30.042735,57.2393162 38.2649573,60.4017094 46.4871795,63.5641026" id="Path-64" stroke-width="2"></path>
            <path d="M21.8205128,53.1282051 C88.0175666,84.5535956 8.84473832,48.343285 47.398659,63.1859094 C48.050609,63.4368994 48.2205715,64.3550961 48.6315278,64.9396895" id="Path-65" stroke-width="2"></path>
            <path d="M5.69230769,58.5463735 C15.0077193,54.9625624 17.6406977,54.6366714 25.6153846,60.7179487" id="Path-66" stroke-width="2"></path>
        </g>
    </g>
</svg>