<?xml version="1.0" encoding="UTF-8"?>
<svg width="341px" height="341px" viewBox="0 0 341 341" version="1.1" xmlns="http://www.w3.org/2000/svg" xmlns:xlink="http://www.w3.org/1999/xlink">
    <!-- Generator: Sketch 52.6 (67491) - http://www.bohemiancoding.com/sketch -->
    <title>battleshipnotes</title>
    <desc>Created with Sketch.</desc>
    <g id="Page-1" stroke="none" stroke-width="1" fill="none" fill-rule="evenodd">
        <g id="battleshipnotes" transform="translate(12.000000, 12.000000)">
            <path d="M158.5,317 C70.9628672,317 0,246.037133 0,158.5 C0,70.9628672 70.9628672,0 158.5,0 C246.037133,0 317,70.9628672 317,158.5 C317,246.037133 246.037133,317 158.5,317 Z" id="Oval-2" stroke="#9013FE" stroke-width="24"></path>
            <g id="Shape" transform="translate(83.000000, 68.000000)">
                <path d="M124.660843,172.957299 L13.1139005,172.957299 C9.82229399,172.957299 7.16099507,169.955999 7.16099507,166.287743 L7.16099507,14.6926412 C7.16099507,11.0047686 9.83980252,8.02308443 13.1139005,8.02308443 L124.660843,8.02308443 C127.95245,8.02308443 130.613749,11.024385 130.613749,14.6926412 L137.757236,14.6926412 C137.757236,6.59109135 131.874364,0 124.643335,0 L13.1139005,0 C5.88287126,2.78765005e-15 0,6.59109135 0,14.6926412 L0,166.307359 C0,174.408909 5.88287126,181 13.1139005,181 L124.660843,181 C131.891873,181 137.774744,174.408909 137.774744,166.307359 L137.774744,133.351902 L130.631257,133.351902 L130.613749,166.287743 C130.613749,169.975615 127.934942,172.957299 124.660843,172.957299 Z" id="Path" stroke="#979797" stroke-width="4" fill="#979797"></path>
                <path d="M171.572053,33.3682433 C171.357219,33.0361537 171.106579,32.7431337 170.820134,32.5087177 C170.605299,32.3329057 165.574599,28.1134169 159.988911,25.144147 C158.323947,24.2650869 156.641079,23.8157895 154.976114,23.8157895 C150.10654,23.8157895 147.439016,27.5859808 147.080959,28.1134169 L140.582225,38.3495841 C140.564323,38.3691188 140.564323,38.4081881 140.54642,38.4277228 C140.528517,38.4472575 140.510614,38.4667921 140.492711,38.4863268 L95.9325255,115.413858 C95.7176915,115.785017 95.6281771,116.17571 95.5207601,116.566404 C95.5028572,116.644542 95.4312457,116.703146 95.4312457,116.781285 L90.3289345,145.887944 C90.0603919,147.450717 90.6690887,149.05256 91.8685794,149.951155 C92.4772762,150.400452 93.1933899,150.634868 93.909504,150.634868 C94.5898121,150.634868 95.288023,150.419987 95.8967197,150.009759 L118.454307,134.167141 C118.687044,134.010864 118.812364,133.737379 119.009295,133.522497 C119.170421,133.346685 119.385255,133.249012 119.528478,133.014596 L166.416033,56.0089259 C167.991484,53.4889535 171.625762,47.648087 172.968475,45.2453226 C175.779222,40.1467738 172.001722,34.0519567 171.572053,33.3682433 Z M153.042607,32.723599 C153.06051,32.7040644 154.689669,31.1998947 156.784302,32.313371 C160.740831,34.4231154 164.536234,37.3533158 165.861045,38.4277228 C166.344422,39.3653868 166.791993,40.6742099 166.702479,41.0844379 C165.753628,42.7839542 163.408355,46.593215 161.671779,49.3866727 L148.692215,39.5998029 L153.042607,32.723599 Z M157.58993,56.0089259 L115.482434,125.181193 L103.970904,116.429661 L144.646172,46.2220563 L157.58993,56.0089259 Z M99.1013294,138.249887 L101.536117,124.341202 L109.878843,130.670436 L99.1013294,138.249887 Z" fill="#9013FE" fill-rule="nonzero"></path>
                <path d="M114.020478,39.2960526 C114.020478,37.6470426 112.444854,36.3190789 110.48831,36.3190789 L21.9417236,36.3190789 C19.98518,36.3190789 18.4095563,37.6470426 18.4095563,39.2960526 C18.4095563,40.9450627 19.98518,42.2730263 21.9417236,42.2730263 L110.470996,42.2730263 C112.42754,42.2730263 114.020478,40.9450627 114.020478,39.2960526 Z" id="Path" stroke="#979797" stroke-width="7"></path>
                <path d="M102.143345,73.8289474 C102.143345,72.1799373 100.763451,70.8519737 99.0499559,70.8519737 L21.5029451,70.8519737 C19.7894503,70.8519737 18.4095563,72.1799373 18.4095563,73.8289474 C18.4095563,75.4779574 19.7894503,76.8059211 21.5029451,76.8059211 L99.0347922,76.8059211 C100.748287,76.8059211 102.143345,75.4779574 102.143345,73.8289474 Z" id="Path-Copy" stroke="#979797" stroke-width="7"></path>
                <path d="M87.2969283,108.361842 C87.2969283,106.712832 86.1616963,105.384868 84.7520127,105.384868 L20.9544719,105.384868 C19.5447883,105.384868 18.4095563,106.712832 18.4095563,108.361842 C18.4095563,110.010852 19.5447883,111.338816 20.9544719,111.338816 L84.7395376,111.338816 C86.1492212,111.338816 87.2969283,110.010852 87.2969283,108.361842 Z" id="Path-Copy-2" stroke="#979797" stroke-width="7"></path>
                <path d="M68.887372,142.894737 C68.887372,141.245727 68.055521,139.917763 67.0225631,139.917763 L20.2743652,139.917763 C19.2414073,139.917763 18.4095563,141.245727 18.4095563,142.894737 C18.4095563,144.543747 19.2414073,145.871711 20.2743652,145.871711 L67.0134219,145.871711 C68.0463797,145.871711 68.887372,144.543747 68.887372,142.894737 Z" id="Path-Copy-3" stroke="#979797" stroke-width="7"></path>
            </g>
        </g>
    </g>
</svg>