<?xml version="1.0" encoding="UTF-8"?>
<svg width="293px" height="304px" viewBox="0 0 293 304" version="1.1" xmlns="http://www.w3.org/2000/svg" xmlns:xlink="http://www.w3.org/1999/xlink">
    <!-- Generator: Sketch 52.6 (67491) - http://www.bohemiancoding.com/sketch -->
    <title>battle_notes</title>
    <desc>Created with Sketch.</desc>
    <g id="Page-1" stroke="none" stroke-width="1" fill="none" fill-rule="evenodd">
        <g id="battle_notes" fill="#000088">
            <g id="Shape">
                <path d="M209.917397,290.491817 L22.0826026,290.491817 C16.5398399,290.491817 12.0584572,285.450959 12.0584572,279.28991 L12.0584572,24.6771432 C12.0584572,18.4831473 16.5693226,13.4752357 22.0826026,13.4752357 L209.917397,13.4752357 C215.46016,13.4752357 219.941543,18.5160941 219.941543,24.6771432 L231.970517,24.6771432 C231.970517,11.0701203 222.064303,0 209.887915,0 L22.0826026,0 C9.90621425,4.68201998e-15 0,11.0701203 0,24.6771432 L0,279.322857 C0,292.92988 9.90621425,304 22.0826026,304 L209.917397,304 C222.093786,304 232,292.92988 232,279.322857 L232,223.972255 L219.971025,223.972255 L219.941543,279.28991 C219.941543,285.483906 215.430678,290.491817 209.917397,290.491817 Z" id="Path"></path>
                <path d="M288.911561,56.0439004 C288.5498,55.4861366 288.127746,54.9939925 287.645398,54.6002772 C287.283636,54.3049907 278.8124,47.2181146 269.406615,42.2310536 C266.602968,40.7546211 263.769173,40 260.965526,40 C252.76561,40 248.273745,46.3322551 247.67081,47.2181146 L236.727541,64.4103513 C236.697394,64.4431609 236.697394,64.5087801 236.667247,64.5415897 C236.6371,64.5743993 236.606954,64.6072089 236.576807,64.6400185 L161.541552,193.84427 C161.179791,194.467653 161.029057,195.123845 160.848177,195.780037 C160.81803,195.911275 160.697442,196.009704 160.697442,196.140943 L152.10562,245.027264 C151.653418,247.652033 152.678408,250.342421 154.69824,251.851664 C155.723229,252.606285 156.929099,253 158.134969,253 C159.280546,253 160.456269,252.639094 161.481258,251.950093 L199.46616,225.341497 C199.858068,225.07902 200.069095,224.619686 200.400709,224.25878 C200.67203,223.963494 201.033791,223.799446 201.274965,223.40573 L280.229298,94.0702402 C282.882212,89.8378003 289.002001,80.0277263 291.263007,75.9921441 C295.996047,67.4288356 289.635083,57.1922367 288.911561,56.0439004 Z M257.709677,54.9611829 C257.739824,54.9283733 260.483178,52.402033 264.010347,54.2721811 C270.672778,57.8156192 277.063889,62.7370608 279.294749,64.5415897 C280.10871,66.1164508 280.862379,68.314695 280.711646,69.0036968 C279.113868,71.8581331 275.164644,78.2560075 272.240409,82.9477818 L250.384017,66.5101661 L257.709677,54.9611829 Z M265.366951,94.0702402 L194.4618,210.249076 L175.077441,195.55037 L243.570852,77.632625 L265.366951,94.0702402 Z M166.877526,232.198706 L170.977484,208.838263 L185.025868,219.468577 L166.877526,232.198706 Z" fill-rule="nonzero"></path>
                <path d="M192,66 C192,63.230392 189.346794,61 186.052155,61 L36.947845,61 C33.6532053,61 31,63.230392 31,66 C31,68.769608 33.6532053,71 36.947845,71 L186.022999,71 C189.317638,71 192,68.769608 192,66 Z" id="Path"></path>
                <path d="M172,124 C172,121.230392 169.676385,119 166.791018,119 L36.2089823,119 C33.3236146,119 31,121.230392 31,124 C31,126.769608 33.3236146,129 36.2089823,129 L166.765483,129 C169.650851,129 172,126.769608 172,124 Z" id="Path-Copy"></path>
                <path d="M147,182 C147,179.230392 145.088374,177 142.714596,177 L35.2854038,177 C32.9116262,177 31,179.230392 31,182 C31,184.769608 32.9116262,187 35.2854038,187 L142.693589,187 C145.067367,187 147,184.769608 147,182 Z" id="Path-Copy-2"></path>
                <path d="M116,240 C116,237.230392 114.599239,235 112.859833,235 L34.1401666,235 C32.4007606,235 31,237.230392 31,240 C31,242.769608 32.4007606,245 34.1401666,245 L112.84444,245 C114.583846,245 116,242.769608 116,240 Z" id="Path-Copy-3" stroke="#979797"></path>
            </g>
        </g>
    </g>
</svg>