<?xml version="1.0" encoding="UTF-8"?>
<svg width="100px" height="100px" viewBox="0 0 100 100" version="1.1" xmlns="http://www.w3.org/2000/svg" xmlns:xlink="http://www.w3.org/1999/xlink">
    <!-- Generator: Sketch 52.6 (67491) - http://www.bohemiancoding.com/sketch -->
    <title>biz</title>
    <desc>Created with Sketch.</desc>
    <defs>
        <linearGradient x1="50%" y1="50%" x2="50%" y2="73.2482888%" id="linearGradient-1">
            <stop stop-color="#DCCE3C" offset="0%"></stop>
            <stop stop-color="#EEE33E" offset="100%"></stop>
        </linearGradient>
    </defs>
    <g id="biz" stroke="none" stroke-width="1" fill="none" fill-rule="evenodd">
        <g id="Group" transform="translate(18.500000, 18.500000)" fill="url(#linearGradient-1)" stroke="#2F1CF8" stroke-width="2">
            <path d="M26.1934085,17.7768718 L25.3561728,18.1198093 L20.3988045,8.79635554 L20.7226134,8.30149983 C21.1875782,7.59092485 21.2375091,6.68063006 20.8318288,5.91765623 C20.2248092,4.77601844 18.8072423,4.34262475 17.6656045,4.94964433 C16.5239667,5.55666391 16.090573,6.9742308 16.6975926,8.11586859 C17.0861884,8.84671093 17.8207313,9.30773008 18.6327005,9.3546824 L19.1939762,9.3871383 L24.1775146,18.7598109 L23.4432891,19.26559 C22.3203628,20.0391299 21.3091706,20.9663727 20.4408622,22.018156 L19.8527881,22.7304911 L11.0656662,16.5776821 L11.0985279,16.0200803 C11.1461103,15.2126958 10.7782422,14.4335087 10.1039784,13.9613842 C9.04482733,13.2197586 7.58500936,13.4771639 6.84338376,14.536315 C6.10175817,15.5954661 6.35916346,17.0552841 7.41831458,17.7969097 C8.12984386,18.2951278 9.04512787,18.3544178 9.80899786,17.9734287 L10.341477,17.7078485 L19.1178169,23.8531079 L18.7171179,24.6296285 C18.1052537,25.8153691 17.6579535,27.0810296 17.3900288,28.3968368 L17.2056189,29.3024939 L6.40022416,27.9757582 L6.1729495,27.4495998 C5.84506536,26.6905226 5.14249822,26.1541307 4.30730094,26.0515813 C3.02395388,25.8940061 1.85585559,26.8066245 1.69828038,28.0899716 C1.54070517,29.3733187 2.45332358,30.541417 3.73667064,30.6989922 C4.58089664,30.8026501 5.40060325,30.443267 5.90052433,29.7734262 L6.2476928,29.3082576 L17.0859728,30.639031 L17.0963397,31.5131792 C17.1120241,32.8357011 17.3029884,34.1327131 17.6606328,35.3802382 L17.9131427,36.261036 L7.5879647,40.2245 L7.13699954,39.8475905 C6.48883304,39.3058633 5.59643689,39.1487512 4.79391782,39.4568094 C3.58681255,39.9201737 2.98389136,41.2743569 3.44725566,42.4814622 C3.91061997,43.6885674 5.26480312,44.2914886 6.4719084,43.8281243 C7.24894874,43.5298465 7.79768391,42.8511207 7.93959936,42.0456755 L8.03778813,41.4884023 L18.4232481,37.5017978 L18.8406865,38.2759732 C19.4505841,39.4070805 20.2076281,40.4537659 21.0902697,41.3885411 L21.7233131,42.0589755 L14.1832008,50.4331186 L13.6367973,50.336242 C12.8449162,50.1958426 12.0327528,50.4665297 11.4850665,51.074797 C10.6198908,52.035672 10.6974703,53.5159785 11.6583453,54.3811542 C12.6192202,55.2463299 14.0995267,55.1687503 14.9647024,54.2078754 C15.5489213,53.5590346 15.7179125,52.6519023 15.4270269,51.8446865 L15.2240616,51.2814518 L22.7459288,42.927572 L23.4684339,43.4230665 C24.5081271,44.136089 25.6356692,44.7125031 26.8248825,45.1361662 L27.6789116,45.4404184 L24.9352446,56.4446656 L24.3896972,56.6080974 C23.6019219,56.8440944 22.989522,57.4737664 22.787057,58.2858094 C22.4742556,59.540387 23.2377161,60.8109987 24.4922937,61.1238 C25.7468713,61.4366013 27.017483,60.6731408 27.3302843,59.4185632 C27.5371508,58.5888671 27.2764075,57.7268634 26.6661044,57.1492664 L26.2418836,56.7477795 L28.9839521,45.7499431 L29.8658492,45.8625732 C30.4840683,45.9415281 31.1099196,45.9813814 31.7409823,45.9813814 C32.3720449,45.9813814 32.9978962,45.9415281 33.6161153,45.8625732 L34.4980124,45.7499431 L37.240081,56.7477795 L36.8158601,57.1492664 C36.205557,57.7268634 35.9448138,58.5888671 36.1516802,59.4185632 C36.4644816,60.6731408 37.7350932,61.4366013 38.9896708,61.1238 C40.2442484,60.8109987 41.0077089,59.540387 40.6949076,58.2858094 C40.4924426,57.4737664 39.8800426,56.8440944 39.0922673,56.6080974 L38.5467199,56.4446656 L35.8030529,45.4404184 L36.6570821,45.1361662 C37.8462954,44.7125031 38.9738375,44.136089 40.0135307,43.4230665 L40.7360358,42.927572 L48.257903,51.2814518 L48.0549376,51.8446865 C47.7640521,52.6519023 47.9330433,53.5590346 48.5172621,54.2078754 C49.3824378,55.1687503 50.8627443,55.2463299 51.8236193,54.3811542 C52.7844942,53.5159785 52.8620738,52.035672 51.9968981,51.074797 C51.4492118,50.4665297 50.6370484,50.1958426 49.8451672,50.336242 L49.2987638,50.4331186 L41.7586515,42.0589755 L42.3916949,41.3885411 C43.2743364,40.4537659 44.0313805,39.4070805 44.641278,38.2759732 L45.0587165,37.5017978 L55.4441764,41.4884023 L55.5423652,42.0456755 C55.6842807,42.8511207 56.2330158,43.5298465 57.0100562,43.8281243 C58.2171614,44.2914886 59.5713446,43.6885674 60.0347089,42.4814622 C60.4980732,41.2743569 59.895152,39.9201737 58.6880467,39.4568094 C57.8855276,39.1487512 56.9931308,39.3058632 56.3449611,39.8475913 L55.8939962,40.2244994 L45.5688218,36.2610363 L45.8213317,35.3802385 C46.1789762,34.1327133 46.3699405,32.8357012 46.3856249,31.5131792 L46.3959918,30.639031 L57.2342718,29.3082576 L57.5814402,29.7734262 C58.0813613,30.443267 58.9010679,30.8026501 59.7452939,30.6989922 C61.028641,30.541417 61.9412594,29.3733187 61.7836842,28.0899716 C61.626109,26.8066245 60.4580107,25.8940061 59.1746636,26.0515813 C58.3394663,26.1541307 57.6368992,26.6905226 57.3090151,27.4495998 L57.0817404,27.9757582 L46.2763457,29.3024939 L46.0919357,28.3968368 C45.824011,27.0810296 45.3767109,25.8153691 44.7648467,24.6296285 L44.3641476,23.8531079 L53.1404876,17.7078485 L53.6729667,17.9734287 C54.4368367,18.3544178 55.3521207,18.2951278 56.06365,17.7969097 C57.1228011,17.0552841 57.3802064,15.5954661 56.6385808,14.536315 C55.8969552,13.4771639 54.4371372,13.2197586 53.3779861,13.9613842 C52.7037223,14.4335087 52.3358543,15.2126958 52.3834366,16.0200803 L52.4162983,16.5776821 L43.6291764,22.7304911 L43.0411024,22.018156 C42.1727939,20.9663727 41.1616017,20.0391299 40.0386755,19.26559 L39.30445,18.7598109 L44.2879884,9.3871383 L44.8492641,9.3546824 C45.6612333,9.30773008 46.3957762,8.84671093 46.784372,8.11586859 C47.3913916,6.9742308 46.9579979,5.55666391 45.8163601,4.94964433 C44.6747223,4.34262475 43.2571554,4.77601844 42.6501358,5.91765623 C42.2444554,6.68063006 42.2943863,7.59092485 42.7593511,8.30149983 L43.08316,8.79635554 L38.1257917,18.1198093 L37.288556,17.7768718 C36.0216174,17.257925 34.6839297,16.9188049 33.3060085,16.7725457 L32.4115603,16.6776047 L32.4115603,6.13577613 L32.9108343,5.84696169 C33.6304581,5.43068185 34.0821383,4.66442258 34.0821383,3.81839872 C34.0821383,2.52541394 33.0339671,1.47724269 31.7409823,1.47724269 C30.4479975,1.47724269 29.3998263,2.52541394 29.3998263,3.81839872 C29.3998263,4.66442258 29.8515065,5.43068185 30.5711302,5.84696169 L31.0704043,6.13577613 L31.0704043,16.6776047 L30.1759561,16.7725457 C28.7980349,16.9188049 27.4603471,17.257925 26.1934085,17.7768718 Z" id="Combined-Shape"></path>
        </g>
    </g>
</svg>