<?xml version="1.0" encoding="UTF-8"?>
<svg width="88px" height="101px" viewBox="0 0 88 101" version="1.1" xmlns="http://www.w3.org/2000/svg" xmlns:xlink="http://www.w3.org/1999/xlink">
    <!-- Generator: Sketch 46.2 (44496) - http://www.bohemiancoding.com/sketch -->
    <title>c++</title>
    <desc>Created with Sketch.</desc>
    <defs></defs>
    <g id="Page-1" stroke="none" stroke-width="1" fill="none" fill-rule="evenodd">
        <g id="c++" fill-rule="nonzero">
            <g id="c">
                <path d="M87.8518438,29.4166667 C87.8511563,27.7395833 87.4960625,26.2576389 86.7779688,24.9857639 C86.0725938,23.7350694 85.01625,22.6868056 83.5993125,21.8579861 C71.9032188,15.0458333 60.1957813,8.25451389 48.5034688,1.43541667 C45.3512813,-0.402777778 42.295,-0.335763889 39.1661875,1.52881944 C34.5107813,4.30208333 11.2028125,17.790625 4.25734375,21.8541667 C1.397,23.5267361 0.00515625,26.0864583 0.00446875,29.4135417 C0,43.1131944 0.00446875,56.8125 0,70.5125 C0.0006875,72.1527778 0.34065625,73.6059028 1.027125,74.8586806 C1.73284375,76.1472222 2.80396875,77.2243056 4.2535625,78.071875 C11.199375,82.1354167 34.5104375,95.6229167 39.1648125,98.396875 C42.295,100.2625 45.3512813,100.329167 48.5045,98.4902778 C60.1971563,91.6708333 71.9052813,84.8798611 83.6030938,78.0677083 C85.0526875,77.2204861 86.1238125,76.1427083 86.8295313,74.8552083 C87.5149688,73.6024306 87.855625,72.1493056 87.8563125,70.5086806 C87.8563125,70.5086806 87.8563125,43.1166667 87.8518438,29.4166667" id="Shape" fill="#5C8DBC"></path>
                <path d="M44.0625625,49.8295139 L1.027125,74.8586806 C1.73284375,76.1472222 2.80396875,77.2243056 4.2535625,78.071875 C11.199375,82.1354167 34.5104375,95.6229167 39.1648125,98.396875 C42.295,100.2625 45.3512813,100.329167 48.5045,98.4902778 C60.1971563,91.6708333 71.9052813,84.8798611 83.6030938,78.0677083 C85.0526875,77.2204861 86.1238125,76.1427083 86.8295313,74.8552083 L44.0625625,49.8295139" id="Shape" fill="#1A4674"></path>
                <path d="M31.3159687,57.2434028 C33.8201875,61.659375 38.5278438,64.6378472 43.9281563,64.6378472 C49.3618125,64.6378472 54.0962813,61.6215278 56.5877813,57.1583333 L44.0625625,49.8295139 L31.3159687,57.2434028" id="Shape" fill="#1A4674"></path>
                <path d="M87.8518438,29.4166667 C87.8511563,27.7395833 87.4960625,26.2576389 86.7779688,24.9857639 L44.0625625,49.8295139 L86.8295313,74.8552083 C87.5149688,73.6024306 87.855625,72.1493056 87.8563125,70.5086806 C87.8563125,70.5086806 87.8563125,43.1166667 87.8518438,29.4166667" id="Shape" fill="#1B598E"></path>
                <path d="M85.50025,51.6184028 L82.1583125,51.6184028 L82.1583125,54.9947917 L78.8156875,54.9947917 L78.8156875,51.6184028 L75.4740938,51.6184028 L75.4740938,48.2430556 L78.8156875,48.2430556 L78.8156875,44.8673611 L82.1583125,44.8673611 L82.1583125,48.2430556 L85.50025,48.2430556 L85.50025,51.6184028 M73.3057188,51.6184028 L69.964125,51.6184028 L69.964125,54.9947917 L66.6221875,54.9947917 L66.6221875,51.6184028 L63.28025,51.6184028 L63.28025,48.2430556 L66.6221875,48.2430556 L66.6221875,44.8673611 L69.964125,44.8673611 L69.964125,48.2430556 L73.3057188,48.2430556 L73.3057188,51.6184028" id="Shape" fill="#FFFFFF"></path>
                <path d="M56.5877812,57.1583333 C54.0962812,61.6215278 49.3618125,64.6378472 43.9281562,64.6378472 C38.5278437,64.6378472 33.8201875,61.659375 31.3159687,57.2434028 C30.057964,55.0275572 29.3972977,52.5171912 29.3999063,49.9628472 C29.3999063,41.8583333 35.9046875,35.2881944 43.9281562,35.2881944 C49.29375,35.2881944 53.9766562,38.2295139 56.49325,42.6003472 L69.1917187,35.2142361 C64.1444375,26.4135417 54.7212187,20.4927083 43.9281562,20.4927083 C27.8145313,20.4927083 14.752375,33.6871528 14.752375,49.9628472 C14.752375,55.3024306 16.1586563,60.3097222 18.6164688,64.6288194 C23.6510313,73.4760417 33.1010625,79.4333333 43.9281562,79.4333333 C54.7751875,79.4333333 64.24,73.4520833 69.2673437,64.5788194 L56.5877812,57.1583333" id="Shape" fill="#FFFFFF"></path>
            </g>
        </g>
    </g>
</svg>