<?xml version="1.0" encoding="UTF-8"?>
<svg width="100px" height="115px" viewBox="0 0 100 115" version="1.1" xmlns="http://www.w3.org/2000/svg" xmlns:xlink="http://www.w3.org/1999/xlink">
    <!-- Generator: Sketch 51 (57462) - http://www.bohemiancoding.com/sketch -->
    <title>c_sharp</title>
    <desc>Created with Sketch.</desc>
    <defs>
        <polygon id="path-1" points="0 0 99.9252308 0 99.9252308 114.981096 0 114.981096"></polygon>
        <polygon id="path-3" points="0 0 99.9252308 0 99.9252308 114.981096 0 114.981096"></polygon>
    </defs>
    <g id="c_sharp" stroke="none" stroke-width="1" fill="none" fill-rule="evenodd">
        <g id="C-Sharp-01">
            <g id="Group-4">
                <g id="Fill-1-Clipped">
                    <mask id="mask-2" fill="white">
                        <use xlink:href="#path-1"></use>
                    </mask>
                    <g id="path-1"></g>
                    <path d="M99.9203077,33.81 C99.9193846,31.8764247 99.5156923,30.1678082 98.6987692,28.7011644 C97.8966154,27.2590959 96.6950769,26.0504932 95.0836923,25.0948904 C81.7806154,17.2405479 68.4649231,9.41015068 55.1664615,1.54793151 C51.5812308,-0.571534247 48.1052308,-0.494342466 44.5464615,1.65568493 C39.2516923,4.853 12.7418462,20.405411 4.84215385,25.0904795 C1.58892308,27.0190137 0.00584615385,29.9702603 0.00523076923,33.8065342 C0,49.601863 0.00523076923,65.3971918 0,81.1931507 C0.000923076923,83.0845068 0.387384615,84.7600411 1.16830769,86.2043151 C1.97076923,87.689863 3.18923077,88.931863 4.83784615,89.9092055 C12.7378462,94.594274 39.2510769,110.145425 44.5449231,113.343685 C48.1052308,115.494658 51.5812308,115.571534 55.1676923,113.451438 C68.4664615,105.588589 81.7830769,97.7585068 95.088,89.9044795 C96.7366154,88.9274521 97.9547692,87.6848219 98.7575385,86.2002192 C99.5372308,84.7559452 99.9246154,83.080411 99.9252308,81.1887397 C99.9252308,81.1887397 99.9252308,49.6059589 99.9203077,33.81" id="Fill-1" fill="#8D4482" fill-rule="nonzero" mask="url(#mask-2)"></path>
                </g>
                <g id="Fill-3-Clipped">
                    <mask id="mask-4" fill="white">
                        <use xlink:href="#path-3"></use>
                    </mask>
                    <g id="path-1"></g>
                    <path d="M50.1153846,57.3459315 L1.16830769,86.2043151 C1.97076923,87.689863 3.18923077,88.931863 4.83784615,89.9092055 C12.7378462,94.594274 39.2510769,110.145425 44.5449231,113.343685 C48.1052308,115.494658 51.5812308,115.571534 55.1676923,113.451438 C68.4664615,105.588589 81.7830769,97.7585068 95.088,89.9044795 C96.7366154,88.9274521 97.9547692,87.6848219 98.7575385,86.2002192 L50.1153846,57.3459315" id="Fill-3" fill="#5B2863" fill-rule="nonzero" mask="url(#mask-4)"></path>
                </g>
            </g>
            <path d="M35.6178462,65.8940548 C38.4661538,70.9855616 43.8206154,74.4198082 49.9627692,74.4198082 C56.1427692,74.4198082 61.5276923,70.9420822 64.3612308,65.7960685 L50.1153846,57.3459315 L35.6178462,65.8940548" id="Fill-5" fill="#5B2863" fill-rule="nonzero"></path>
            <path d="M99.9203077,33.81 C99.9193846,31.8764247 99.5156923,30.1678082 98.6987692,28.7011644 L50.1153846,57.3459315 L98.7575385,86.2002192 C99.5372308,84.7559452 99.9246154,83.080411 99.9252308,81.1887397 C99.9252308,81.1887397 99.9252308,49.6059589 99.9203077,33.81" id="Fill-6" fill="#732E71" fill-rule="nonzero"></path>
            <path d="M64.3612308,65.7960685 C61.5276923,70.9420822 56.1427692,74.4198082 49.9627692,74.4198082 C43.8206154,74.4198082 38.4661538,70.9855616 35.6178462,65.8940548 C34.2341538,63.4198219 33.4387692,60.5555342 33.4387692,57.4996849 C33.4387692,48.1550685 40.8369231,40.5798767 49.9627692,40.5798767 C56.0652308,40.5798767 61.3916923,43.971274 64.2538462,49.0107945 L78.6966154,40.4944932 C72.956,30.3473973 62.2384615,23.5208082 49.9627692,23.5208082 C31.6353846,23.5208082 16.7790769,38.7338904 16.7790769,57.4996849 C16.7790769,63.6561233 18.3784615,69.4294384 21.1738462,74.409411 C26.9,84.6100685 37.6483077,91.4788767 49.9627692,91.4788767 C62.2996923,91.4788767 73.0649231,84.5826575 78.7827692,74.3517534 L64.3612308,65.7960685" id="Fill-7" fill="#FFFFFE" fill-rule="nonzero"></path>
            <polygon id="Fill-8" fill="#FFFFFE" fill-rule="nonzero" points="79.3292308 65.7440822 82.6113846 65.7440822 82.6113846 49.4657534 79.3292308 49.4657534"></polygon>
            <polygon id="Fill-9" fill="#FFFFFE" fill-rule="nonzero" points="86.6113846 65.7440822 89.8932308 65.7440822 89.8932308 49.4657534 86.6113846 49.4657534"></polygon>
            <polygon id="Fill-10" fill="#FFFFFE" fill-rule="nonzero" points="76.6624615 55.5569726 92.56 55.5569726 92.56 52.196137 76.6624615 52.196137"></polygon>
            <polygon id="Fill-11" fill="#FFFFFE" fill-rule="nonzero" points="76.6624615 63.0136986 92.56 63.0136986 92.56 59.652863 76.6624615 59.652863"></polygon>
        </g>
    </g>
</svg>