<?xml version="1.0" encoding="UTF-8"?>
<svg width="150px" height="130px" viewBox="0 0 150 130" version="1.1" xmlns="http://www.w3.org/2000/svg" xmlns:xlink="http://www.w3.org/1999/xlink">
    <!-- Generator: Sketch 52.6 (67491) - http://www.bohemiancoding.com/sketch -->
    <title>cali</title>
    <desc>Created with Sketch.</desc>
    <g id="cali" stroke="none" stroke-width="1" fill="none" fill-rule="evenodd">
        <path d="M2.5,27.5 L2.5,95.5 L145.5,95.5 L145.5,27.5 L105.516497,27.5 L94.1120828,8.5 L53.8879172,8.5 L42.4835034,27.5 L2.5,27.5 Z" id="camera" stroke="#000000"></path>
        <g id="lens" transform="translate(42.000000, 25.000000)">
            <path d="M0.869659196,40 L64.1303408,40 C60.7445218,54.3335 47.8679082,65 32.5,65 C17.1320918,65 4.25547821,54.3335 0.869659196,40 Z" id="Combined-Shape" fill="#DE3129"></path>
            <circle id="Oval-Copy" stroke="#DE3129" stroke-width="2" cx="33.5" cy="32.5" r="32.5"></circle>
            <path d="M16.446736,14 C16.4832317,14 16.5197274,14 16.5581958,14 C16.9774032,15.393991 17.3887195,16.7998206 17.821736,18.18 C19.2135043,18.18 20.606259,18.18 22,18.18 C22,18.2174888 22,18.2530045 22,18.2885202 C20.838056,19.1083408 19.7234577,19.9735426 18.6443687,20.8752466 C19.0270803,22.2712108 19.5094154,23.5665471 19.8546449,25 C19.8181492,25 19.7796808,25 19.7451578,25 C18.7173601,24.1377578 17.6195301,23.3465471 16.5552367,22.5237668 C15.383429,23.2794619 14.3418221,24.1604484 13.2538558,25 C13.2183465,25 13.1808644,25 13.1433824,25 C13.5339849,23.5902242 13.9699605,22.2317489 14.4098816,20.8752466 C13.2982425,19.9666368 12.1353121,19.1142601 11,18.2352466 C11,18.2155157 11,18.1977578 11,18.1780269 C12.3927547,18.1780269 13.7864957,18.1780269 15.1772776,18.1780269 C15.626076,16.8106726 16.0699426,15.4413453 16.446736,14 Z" id="Path" stroke="#FFFFFF" fill="#DE3129"></path>
        </g>
    </g>
</svg>