<?xml version="1.0" encoding="UTF-8"?>
<svg width="80px" height="80px" viewBox="0 0 80 80" version="1.1" xmlns="http://www.w3.org/2000/svg" xmlns:xlink="http://www.w3.org/1999/xlink">
    <!-- Generator: Sketch 52.6 (67491) - http://www.bohemiancoding.com/sketch -->
    <title>camera </title>
    <desc>Created with Sketch.</desc>
    <g id="camera-" stroke="none" stroke-width="1" fill="none" fill-rule="evenodd">
        <path d="M12.9553195,26 L67.0446889,26 C68.9386734,29.9330065 70,34.3425602 70,39 C70,43.6574398 68.9386734,48.0669935 67.0446796,52.0000019 L12.9553195,52 C11.0613262,48.0669921 10,43.6574391 10,39 C10,34.3425609 11.0613262,29.9330079 12.9553195,26 Z" id="Combined-Shape" fill="#000099"></path>
        <circle id="Oval-Copy" fill="#EDDBFB" cx="40" cy="39" r="30"></circle>
        <path d="M12.9553195,26 L67.0446889,26 C68.9386734,29.9330065 70,34.3425602 70,39 C70,43.6574398 68.9386734,48.0669935 67.0446796,52.0000019 L12.9553195,52 C11.0613262,48.0669921 10,43.6574391 10,39 C10,34.3425609 11.0613262,29.9330079 12.9553195,26 Z" id="Combined-Shape" fill="#000099"></path>
        <circle id="Oval-Copy-2" stroke="#5042D3" stroke-width="2" cx="40" cy="40" r="30"></circle>
        <circle id="Oval" stroke="#EDDBFB" fill="#FFFFFF" cx="40" cy="39" r="10"></circle>
    </g>
</svg>