<?xml version="1.0" encoding="UTF-8"?>
<svg width="100px" height="100px" viewBox="0 0 100 100" version="1.1" xmlns="http://www.w3.org/2000/svg" xmlns:xlink="http://www.w3.org/1999/xlink">
    <!-- Generator: Sketch 52.6 (67491) - http://www.bohemiancoding.com/sketch -->
    <title>covid</title>
    <desc>Created with Sketch.</desc>
    <defs>
        <radialGradient cx="50%" cy="50%" fx="50%" fy="50%" r="100%" id="radialGradient-1">
            <stop stop-color="#BB2F2F" offset="0%"></stop>
            <stop stop-color="#4B2020" offset="100%"></stop>
        </radialGradient>
        <radialGradient cx="39.0929383%" cy="38.7176514%" fx="39.0929383%" fy="38.7176514%" r="60.9070617%" id="radialGradient-2">
            <stop stop-color="#AB2C2C" offset="0%"></stop>
            <stop stop-color="#94AB2C" offset="100%"></stop>
        </radialGradient>
    </defs>
    <g id="covid" stroke="none" stroke-width="1" fill="none" fill-rule="evenodd">
        <circle id="Oval" fill="url(#radialGradient-1)" cx="51.5" cy="45.5" r="15.5"></circle>
        <path d="M42.1745775,22.9864386 L51.5,7 L60.8254225,22.9864386 L78.7236111,18.2763889 L74.0135614,36.1745775 L90,45.5 L74.0135614,54.8254225 L78.7236111,72.7236111 L60.8254225,68.0135614 L51.5,84 L42.1745775,68.0135614 L24.2763889,72.7236111 L28.9864386,54.8254225 L13,45.5 L28.9864386,36.1745775 L24.2763889,18.2763889 L42.1745775,22.9864386 Z M51.5,64 C61.7172679,64 70,55.7172679 70,45.5 C70,35.2827321 61.7172679,27 51.5,27 C41.2827321,27 33,35.2827321 33,45.5 C33,55.7172679 41.2827321,64 51.5,64 Z" id="Combined-Shape-Copy-2" fill="url(#radialGradient-2)" transform="translate(51.500000, 45.500000) rotate(-270.000000) translate(-51.500000, -45.500000) "></path>
        <path d="M42.1745775,22.9864386 L51.5,7 L60.8254225,22.9864386 L78.7236111,18.2763889 L74.0135614,36.1745775 L90,45.5 L74.0135614,54.8254225 L78.7236111,72.7236111 L60.8254225,68.0135614 L51.5,84 L42.1745775,68.0135614 L24.2763889,72.7236111 L28.9864386,54.8254225 L13,45.5 L28.9864386,36.1745775 L24.2763889,18.2763889 L42.1745775,22.9864386 Z M51.5,64 C61.7172679,64 70,55.7172679 70,45.5 C70,35.2827321 61.7172679,27 51.5,27 C41.2827321,27 33,35.2827321 33,45.5 C33,55.7172679 41.2827321,64 51.5,64 Z" id="Combined-Shape-Copy-2" fill="url(#radialGradient-2)" transform="translate(51.500000, 45.500000) rotate(-292.000000) translate(-51.500000, -45.500000) "></path>
    </g>
</svg>