<?xml version="1.0" encoding="UTF-8"?>
<svg width="100px" height="100px" viewBox="0 0 100 100" version="1.1" xmlns="http://www.w3.org/2000/svg" xmlns:xlink="http://www.w3.org/1999/xlink">
    <!-- Generator: Sketch 52.6 (67491) - http://www.bohemiancoding.com/sketch -->
    <title>covid19</title>
    <desc>Created with Sketch.</desc>
    <defs>
        <radialGradient cx="50%" cy="50%" fx="50%" fy="50%" r="25.0682374%" gradientTransform="translate(0.500000,0.500000),scale(0.993495,1.000000),rotate(-90.000000),scale(1.000000,6.003343),translate(-0.500000,-0.500000)" id="radialGradient-1">
            <stop stop-color="#9C2A2A" offset="0%"></stop>
            <stop stop-color="#992A2A" offset="100%"></stop>
        </radialGradient>
        <radialGradient cx="50%" cy="50%" fx="50%" fy="50%" r="100%" id="radialGradient-2">
            <stop stop-color="#EFE43E" offset="0%"></stop>
            <stop stop-color="#4B2020" offset="100%"></stop>
        </radialGradient>
    </defs>
    <g id="covid19" stroke="none" stroke-width="1" fill="none" fill-rule="evenodd">
        <g id="Group" transform="translate(18.500000, 18.500000)">
            <path d="M25.8143667,16.8514922 C27.1505029,16.3042017 28.5791793,15.9364177 30.0704043,15.7781319 L30.0704043,6.71256756 C29.0717304,6.13486594 28.3998263,5.05509814 28.3998263,3.81839872 C28.3998263,1.97312919 29.8957128,0.477242686 31.7409823,0.477242686 C33.5862518,0.477242686 35.0821383,1.97312919 35.0821383,3.81839872 C35.0821383,5.05509814 34.4102341,6.13486594 33.4115603,6.71256756 L33.4115603,15.7781319 C34.9027853,15.9364177 36.3314617,16.3042017 37.6675978,16.8514922 L41.9225747,8.84904456 C41.2768413,7.86221285 41.1744231,6.56301362 41.7671882,5.44818467 C42.6334898,3.81890839 44.6565553,3.20039517 46.2858316,4.06669674 C47.9151079,4.9329983 48.5336211,6.95606387 47.6673196,8.58534015 C47.0990635,9.65407436 46.0330764,10.2878987 44.9069929,10.3530147 L40.605965,18.4420716 C41.8066864,19.2692015 42.8861523,20.259716 43.8122643,21.381517 L51.3851687,16.0789122 C51.3191891,14.9593602 51.8183255,13.8326957 52.8044097,13.1422321 C54.315966,12.083829 56.3993297,12.4511823 57.4577328,13.9627386 C58.516136,15.4742949 58.1487827,17.5576586 56.6372264,18.6160617 C55.5976826,19.3439581 54.2876889,19.3975094 53.2266398,18.8682987 L45.6535074,24.1710631 C46.3000777,25.4240613 46.7823477,26.7756403 47.0718283,28.197311 L56.3909971,27.053061 C56.8459476,25.9998154 57.8318004,25.2089544 59.0527943,25.0590352 C60.8843094,24.8341534 62.5513486,26.1365871 62.7762303,27.9681023 C63.0011121,29.7996174 61.6986784,31.4666565 59.8671633,31.6915383 C58.633217,31.8430479 57.4739284,31.3012909 56.78003,30.3715413 L47.3855545,31.5250378 C47.3685794,32.9563984 47.1593945,34.3415292 46.7826092,35.6558206 L55.7036689,39.0802946 C56.6036633,38.3280961 57.8736756,38.0730566 59.0464147,38.523229 C60.7691222,39.1845145 61.6295748,41.1171226 60.9682893,42.8398301 C60.3070039,44.5625376 58.3743957,45.4229902 56.6516882,44.7617047 C55.5155001,44.325563 54.7543827,43.336411 54.5575352,42.2191976 L45.5214762,38.7505795 C44.8672417,39.9639134 44.0574414,41.0809846 43.1187863,42.0750817 L49.6705913,49.3515983 C50.7684805,49.1569441 51.939005,49.5160237 52.7400429,50.4056664 C53.9747693,51.7769689 53.8640524,53.8895727 52.4927499,55.124299 C51.1214474,56.3590253 49.0088436,56.2483085 47.7741173,54.877006 C46.9206716,53.9291585 46.7100257,52.6271464 47.1141572,51.50567 L40.5791076,44.2477621 C39.477037,45.003563 38.2733242,45.6219357 36.9926766,46.0781728 L39.3792408,55.6501589 C40.4721231,55.977558 41.3691866,56.8566294 41.6652033,58.0438875 C42.1116144,59.8343446 41.0220498,61.6476846 39.2315927,62.0940957 C37.4411356,62.5405068 35.6277956,61.4509422 35.1813845,59.6604851 C34.8790537,58.4479023 35.28122,57.224824 36.1284824,56.4229663 L33.7427998,46.8545163 C33.0873371,46.9382277 32.4191992,46.9813814 31.7409823,46.9813814 C31.0627653,46.9813814 30.3946275,46.9382277 29.7391647,46.8545163 L27.3534822,56.4229663 C28.2007445,57.224824 28.6029109,58.4479023 28.3005801,59.6604851 C27.854169,61.4509422 26.040829,62.5405068 24.2503718,62.0940957 C22.4599147,61.6476846 21.3703501,59.8343446 21.8167612,58.0438875 C22.1127779,56.8566294 23.0098415,55.977558 24.1027238,55.6501589 L26.489288,46.0781728 C25.2086403,45.6219357 24.0049276,45.003563 22.902857,44.2477621 L16.3678073,51.50567 C16.7719388,52.6271464 16.561293,53.9291585 15.7078473,54.877006 C14.4731209,56.2483085 12.3605172,56.3590253 10.9892147,55.124299 C9.61791219,53.8895727 9.50719531,51.7769689 10.7419216,50.4056664 C11.5429595,49.5160237 12.713484,49.1569441 13.8113733,49.3515983 L20.3631783,42.0750817 C19.4245232,41.0809846 18.6147228,39.9639134 17.9604884,38.7505795 L8.92442933,42.2191976 C8.72758188,43.336411 7.96646442,44.325563 6.83027635,44.7617047 C5.10756884,45.4229902 3.17496069,44.5625376 2.51367524,42.8398301 C1.85238978,41.1171226 2.71284237,39.1845145 4.43554987,38.523229 C5.60828896,38.0730566 6.87830131,38.3280961 7.77829302,39.0802949 L16.6993552,35.6558203 C16.3225701,34.341529 16.1133851,32.9563983 16.09641,31.5250378 L6.70193457,30.3715413 C6.00803621,31.3012909 4.84874756,31.8430479 3.6148013,31.6915383 C1.78328613,31.4666565 0.480852443,29.7996174 0.705734228,27.9681023 C0.930616013,26.1365871 2.59765512,24.8341534 4.42917028,25.0590352 C5.65016417,25.2089544 6.63601699,25.9998154 7.09096748,27.053061 L16.4101362,28.197311 C16.6996169,26.7756403 17.1818868,25.4240613 17.8284572,24.1710631 L10.2553248,18.8682987 C9.19427564,19.3975094 7.88428197,19.3439581 6.84473814,18.6160617 C5.33318184,17.5576586 4.9658286,15.4742949 6.02423172,13.9627386 C7.08263484,12.4511823 9.16599858,12.083829 10.6775549,13.1422321 C11.6636391,13.8326957 12.1627755,14.9593602 12.0967958,16.0789122 L19.6697003,21.381517 C20.5958123,20.259716 21.6752781,19.2692015 22.8759995,18.4420716 L18.5749717,10.3530147 C17.4488881,10.2878987 16.3829011,9.65407436 15.814645,8.58534015 C14.9483434,6.95606387 15.5668567,4.9329983 17.1961329,4.06669674 C18.8254092,3.20039517 20.8484748,3.81890839 21.7147763,5.44818467 C22.3075414,6.56301362 22.2051233,7.86221285 21.5593898,8.84904456 L25.8143667,16.8514922 Z" id="Combined-Shape" fill="url(#radialGradient-1)"></path>
            <circle id="Oval-Copy" fill="url(#radialGradient-2)" cx="27.8572079" cy="39.551254" r="3.8837744"></circle>
            <circle id="Oval-Copy-2" fill="url(#radialGradient-2)" cx="36.9823052" cy="23.3610038" r="2.14793943"></circle>
            <circle id="Oval-Copy-3" fill="url(#radialGradient-2)" cx="36.6974349" cy="33.2346698" r="1.86306903"></circle>
        </g>
    </g>
</svg>