<?xml version="1.0" encoding="UTF-8"?>
<svg width="100px" height="100px" viewBox="0 0 100 100" version="1.1" xmlns="http://www.w3.org/2000/svg" xmlns:xlink="http://www.w3.org/1999/xlink">
    <!-- Generator: Sketch 52.6 (67491) - http://www.bohemiancoding.com/sketch -->
    <title>covid</title>
    <desc>Created with Sketch.</desc>
    <defs>
        <linearGradient x1="50%" y1="13.9246324%" x2="50%" y2="64.1601562%" id="linearGradient-1">
            <stop stop-color="#3F1F1F" offset="0%"></stop>
            <stop stop-color="#862526" offset="100%"></stop>
        </linearGradient>
        <linearGradient x1="50%" y1="0%" x2="50%" y2="100%" id="linearGradient-2">
            <stop stop-color="#FAF779" offset="0%"></stop>
            <stop stop-color="#F3B144" offset="100%"></stop>
        </linearGradient>
    </defs>
    <g id="covid" stroke="none" stroke-width="1" fill="none" fill-rule="evenodd">
        <g id="Group" transform="translate(9.000000, 8.000000)" fill="url(#linearGradient-1)">
            <rect id="Rectangle" x="39" y="0" width="6" height="31" rx="3"></rect>
            <path d="M61.5652715,7.89709404 L61.5652715,7.89709404 C63.3319889,7.89709404 64.7641963,9.32930143 64.7641963,11.0960188 L64.7641963,35.7734381 C64.7641963,37.5401555 63.3319889,38.9723629 61.5652715,38.9723629 L61.5652715,38.9723629 C59.7985542,38.9723629 58.3663468,37.5401555 58.3663468,35.7734381 L58.3663468,11.0960188 C58.3663468,9.32930143 59.7985542,7.89709404 61.5652715,7.89709404 Z" id="Rectangle" transform="translate(61.565272, 23.434728) rotate(45.000000) translate(-61.565272, -23.434728) "></path>
            <path d="M69,27 L69,27 C70.6568542,27 72,28.3431458 72,30 L72,55 C72,56.6568542 70.6568542,58 69,58 L69,58 C67.3431458,58 66,56.6568542 66,55 L66,30 C66,28.3431458 67.3431458,27 69,27 Z" id="Rectangle" transform="translate(69.000000, 42.500000) rotate(90.000000) translate(-69.000000, -42.500000) "></path>
            <path d="M61.5652715,46.0276371 L61.5652715,46.0276371 C63.3319889,46.0276371 64.7641963,47.4598445 64.7641963,49.2265619 L64.7641963,73.9039812 C64.7641963,75.6706986 63.3319889,77.102906 61.5652715,77.102906 L61.5652715,77.102906 C59.7985542,77.102906 58.3663468,75.6706986 58.3663468,73.9039812 L58.3663468,49.2265619 C58.3663468,47.4598445 59.7985542,46.0276371 61.5652715,46.0276371 Z" id="Rectangle" transform="translate(61.565272, 61.565272) rotate(135.000000) translate(-61.565272, -61.565272) "></path>
            <rect id="Rectangle" transform="translate(42.000000, 69.500000) rotate(180.000000) translate(-42.000000, -69.500000) " x="39" y="54" width="6" height="31" rx="3"></rect>
            <path d="M23.4347285,46.0276371 L23.4347285,46.0276371 C25.2014458,46.0276371 26.6336532,47.4598445 26.6336532,49.2265619 L26.6336532,73.9039812 C26.6336532,75.6706986 25.2014458,77.102906 23.4347285,77.102906 L23.4347285,77.102906 C21.6680111,77.102906 20.2358037,75.6706986 20.2358037,73.9039812 L20.2358037,49.2265619 C20.2358037,47.4598445 21.6680111,46.0276371 23.4347285,46.0276371 Z" id="Rectangle" transform="translate(23.434728, 61.565272) rotate(225.000000) translate(-23.434728, -61.565272) "></path>
            <path d="M16,27 L16,27 C17.6568542,27 19,28.3431458 19,30 L19,55 C19,56.6568542 17.6568542,58 16,58 L16,58 C14.3431458,58 13,56.6568542 13,55 L13,30 C13,28.3431458 14.3431458,27 16,27 Z" id="Rectangle" transform="translate(16.000000, 42.500000) rotate(270.000000) translate(-16.000000, -42.500000) "></path>
            <path d="M23.4347285,7.89709404 L23.4347285,7.89709404 C25.2014458,7.89709404 26.6336532,9.32930143 26.6336532,11.0960188 L26.6336532,35.7734381 C26.6336532,37.5401555 25.2014458,38.9723629 23.4347285,38.9723629 L23.4347285,38.9723629 C21.6680111,38.9723629 20.2358037,37.5401555 20.2358037,35.7734381 L20.2358037,11.0960188 C20.2358037,9.32930143 21.6680111,7.89709404 23.4347285,7.89709404 Z" id="Rectangle" transform="translate(23.434728, 23.434728) rotate(315.000000) translate(-23.434728, -23.434728) "></path>
        </g>
        <polygon id="Triangle" fill="url(#linearGradient-2)" points="51 42 58 56 44 56"></polygon>
    </g>
</svg>