<?xml version="1.0" encoding="UTF-8"?>
<svg width="100px" height="100px" viewBox="0 0 100 100" version="1.1" xmlns="http://www.w3.org/2000/svg" xmlns:xlink="http://www.w3.org/1999/xlink">
    <!-- Generator: Sketch 52.6 (67491) - http://www.bohemiancoding.com/sketch -->
    <title>covid</title>
    <desc>Created with Sketch.</desc>
    <defs>
        <linearGradient x1="50%" y1="13.9246324%" x2="50%" y2="64.1601562%" id="linearGradient-1">
            <stop stop-color="#3F1F1F" offset="0%"></stop>
            <stop stop-color="#862526" offset="100%"></stop>
        </linearGradient>
    </defs>
    <g id="covid" stroke="none" stroke-width="1" fill="none" fill-rule="evenodd">
        <g id="Group" transform="translate(12.000000, 13.000000)" fill="url(#linearGradient-1)">
            <rect id="Rectangle" x="35" y="0" width="6" height="31" rx="3"></rect>
            <rect id="Rectangle" transform="translate(53.556349, 21.943651) rotate(45.000000) translate(-53.556349, -21.943651) " x="50.5563492" y="6.44365081" width="6" height="31" rx="3"></rect>
            <rect id="Rectangle" transform="translate(60.000000, 37.500000) rotate(90.000000) translate(-60.000000, -37.500000) " x="57" y="22" width="6" height="31" rx="3"></rect>
            <rect id="Rectangle" transform="translate(53.556349, 53.056349) rotate(135.000000) translate(-53.556349, -53.056349) " x="50.5563492" y="37.5563492" width="6" height="31" rx="3"></rect>
            <rect id="Rectangle" transform="translate(38.000000, 59.500000) rotate(180.000000) translate(-38.000000, -59.500000) " x="35" y="44" width="6" height="31" rx="3"></rect>
            <rect id="Rectangle" transform="translate(22.443651, 53.056349) rotate(225.000000) translate(-22.443651, -53.056349) " x="19.4436508" y="37.5563492" width="6" height="31" rx="3"></rect>
            <rect id="Rectangle" transform="translate(16.000000, 37.500000) rotate(270.000000) translate(-16.000000, -37.500000) " x="13" y="22" width="6" height="31" rx="3"></rect>
            <rect id="Rectangle" transform="translate(22.443651, 21.943651) rotate(315.000000) translate(-22.443651, -21.943651) " x="19.4436508" y="6.44365081" width="6" height="31" rx="3"></rect>
        </g>
    </g>
</svg>