<?xml version="1.0" encoding="utf-8"?>
<!-- Generator: Adobe Illustrator 14.0.0, SVG Export Plug-In . SVG Version: 6.00 Build 43363)  -->
<!DOCTYPE svg PUBLIC "-//W3C//DTD SVG 1.1//EN" "http://www.w3.org/Graphics/SVG/1.1/DTD/svg11.dtd">
<svg version="1.1" id="Layer_1" xmlns="http://www.w3.org/2000/svg" xmlns:xlink="http://www.w3.org/1999/xlink" x="0px" y="0px"
	 width="278px" height="169px" viewBox="0 0 278 169" enable-background="new 0 0 278 169" xml:space="preserve">
<title>crest</title>
<desc>Created with Sketch.</desc>
<g id="Page-1">
	<g id="crest_1_">
		<g id="Group-3" transform="translate(-2.000000, 0.000000)">
			<g id="thirteen_strips" transform="translate(7.000000, 0.000000)">
				<path id="Line" fill="none" stroke="#7F1C25" stroke-width="13" stroke-linecap="square" d="M0.5,6.5h266"/>
				<path id="Line-Copy" fill="none" stroke="#228E69" stroke-width="13" stroke-linecap="square" d="M0.5,19.5h266"/>
				<path id="Line-Copy-2" fill="none" stroke="#7F1C25" stroke-width="13" stroke-linecap="square" d="M0.5,32.5h266"/>
				<path id="Line-Copy-3" fill="none" stroke="#228E69" stroke-width="13" stroke-linecap="square" d="M0.5,45.5h266"/>
				<path id="Line-Copy-4" fill="none" stroke="#7F1C25" stroke-width="13" stroke-linecap="square" d="M0.5,58.5h266"/>
				<path id="Line-Copy-5" fill="none" stroke="#228E69" stroke-width="13" stroke-linecap="square" d="M0.5,71.5h266"/>
				<path id="Line-Copy-6" fill="none" stroke="#7F1C25" stroke-width="13" stroke-linecap="square" d="M0.5,84.5h266"/>
				<path id="Line-Copy-8" fill="none" stroke="#7F1C25" stroke-width="13" stroke-linecap="square" d="M0.5,110.5h266"/>
				<path id="Line-Copy-9" fill="none" stroke="#228E69" stroke-width="13" stroke-linecap="square" d="M0.5,123.5h266"/>
				<path id="Line-Copy-10" fill="none" stroke="#7F1C25" stroke-width="13" stroke-linecap="square" d="M0.5,136.5h266"/>
				<path id="Line-Copy-11" fill="none" stroke="#228E69" stroke-width="13" stroke-linecap="square" d="M0.5,149.5h266"/>
				<path id="Line-Copy-12" fill="none" stroke="#7F1C25" stroke-width="13" stroke-linecap="square" d="M0.5,162.5h266"/>
				<path id="Line-Copy-7" fill="none" stroke="#228E69" stroke-width="13" stroke-linecap="square" d="M0.5,97.5h266"/>
			</g>
			<g id="st_andrew_cross" transform="translate(0.000000, 1.000000)">
				<path id="Line-2" fill="none" stroke="#F4F0ED" stroke-width="13" stroke-linecap="square" d="M0.5,0.5l281,166"/>
				<path id="Line-2_1_" fill="none" stroke="#F4F0ED" stroke-width="13" stroke-linecap="square" d="M281.5,0.5l-281,166"/>
			</g>
			<g id="crest" transform="translate(122.000000, 60.000000)">
			</g>
			<g id="Group-2" transform="translate(122.000000, 60.000000)">
				<g id="Group">
					<path id="Shape" fill="#7F1C25" d="M19,49.948c0,0,19-8.548,19-30.271V0H0v19.677C0,41.4,19,49.948,19,49.948L19,49.948z"/>
					<path id="crest-border" fill="none" stroke="#F4F0ED" stroke-width="0.75" d="M19,49.211c0.008-0.004,0.017-0.008,0.027-0.013
						c0.043-0.021,0.095-0.045,0.154-0.073c0.168-0.082,0.364-0.182,0.584-0.299c0.631-0.336,1.334-0.744,2.09-1.229
						c2.163-1.385,4.326-3.1,6.345-5.161c2.595-2.651,4.757-5.685,6.343-9.117c1.874-4.057,2.883-8.549,2.883-13.493V0.741H0.574
						v19.084c0,4.944,1.009,9.437,2.883,13.493c1.585,3.433,3.748,6.466,6.343,9.117c2.019,2.062,4.182,3.776,6.344,5.161
						c0.757,0.485,1.459,0.894,2.09,1.229c0.221,0.117,0.417,0.217,0.585,0.299C18.9,49.164,18.961,49.193,19,49.211z"/>
				</g>
				<g id="tree" transform="translate(16.000000, 14.000000)">
					<rect id="Rectangle" x="2.638" y="6.963" fill="#F4F0ED" width="1" height="22.914"/>
					<g id="path-2-link">
						<polygon id="path-2" fill="#F4F0ED" points="2.115,9.871 0.836,9.871 2.39,6.709 1.193,6.709 2.394,4.269 1.553,4.269 
							2.625,2.085 2.112,2.085 3.138,0 4.163,2.085 3.65,2.085 4.724,4.269 3.881,4.269 5.082,6.71 3.887,6.71 5.44,9.871 
							4.162,9.871 6.092,13.799 4.123,13.799 3.138,11.795 2.152,13.799 0.184,13.799 						"/>
					</g>
				</g>
				<g id="tree-copy" transform="translate(4.000000, 6.000000)">
					<rect id="Rectangle_1_" x="2.638" y="6.963" fill="#F4F0ED" width="1" height="22.914"/>
					<g id="tree_1_">
						<polygon id="path-4" fill="#F4F0ED" points="2.115,9.871 0.836,9.871 2.39,6.709 1.193,6.709 2.394,4.269 1.552,4.269 
							2.625,2.085 2.112,2.085 3.138,0 4.163,2.085 3.65,2.085 4.724,4.269 3.881,4.269 5.082,6.71 3.886,6.71 5.44,9.871 
							4.162,9.871 6.092,13.798 4.123,13.798 3.138,11.795 2.152,13.799 0.184,13.799 						"/>
					</g>
				</g>
				<g id="tree-copy-2" transform="translate(28.000000, 6.000000)">
					<rect id="Rectangle_2_" x="2.638" y="6.963" fill="#F4F0ED" width="1" height="22.914"/>
					<g id="tree_2_">
						<polygon id="path-6" fill="#F4F0ED" points="2.115,9.871 0.836,9.871 2.39,6.709 1.193,6.709 2.394,4.269 1.553,4.269 
							2.625,2.085 2.112,2.085 3.138,0 4.163,2.085 3.65,2.085 4.724,4.269 3.881,4.269 5.082,6.71 3.887,6.71 5.44,9.871 
							4.162,9.871 6.092,13.798 4.123,13.798 3.138,11.795 2.152,13.799 0.184,13.799 						"/>
					</g>
				</g>
			</g>
		</g>
	</g>
</g>
</svg>
