<?xml version="1.0" encoding="UTF-8"?>
<svg width="82px" height="121px" viewBox="0 0 82 121" version="1.1" xmlns="http://www.w3.org/2000/svg" xmlns:xlink="http://www.w3.org/1999/xlink">
    <!-- Generator: Sketch 52.6 (67491) - http://www.bohemiancoding.com/sketch -->
    <title>css</title>
    <desc>Created with Sketch.</desc>
    <g id="css" stroke="none" stroke-width="1" fill="none" fill-rule="evenodd">
        <g id="css-3" transform="translate(1.000000, 6.000000)">
            <polygon id="Path" fill="#264DE4" points="39.95125 112.714526 7.394375 103.66138 0.1390625 22.1511302 79.8609375 22.1511302 72.598125 103.648859"></polygon>
            <polygon id="Path" fill="#2965F1" points="66.3803125 98.4593102 72.5865625 28.815626 40 28.815626 40 105.784903 66.3803125 98.4593102"></polygon>
            <path d="M16.7715625,59.0467258 L17.6659375,69.043626 L40,69.043626 L40,59.0467258 L16.7715625,59.0467258 Z M14.9740625,38.8128393 L15.88125,48.8097396 L40,48.8097396 L40,38.8128393 L14.9740625,38.8128393 Z M40,85.0098061 L39.95625,85.0213878 L28.84125,82.0151496 L28.130625,74.0422327 L18.111875,74.0422327 L19.51,89.738903 L39.9540625,95.4233352 L40,95.4108144 L40,85.0098061 Z" id="Shape" fill="#EBEBEB" fill-rule="nonzero"></path>
            <path d="M18.90125,0 L30.98875,0 L30.98875,5.06340166 L23.95625,5.06340166 L23.95625,10.1268033 L30.989375,10.1268033 L30.989375,15.189892 L18.90125,15.189892 L18.90125,0 Z M33.4065625,0 L45.494375,0 L45.494375,4.40293075 L38.4615625,4.40293075 L38.4615625,5.28345429 L45.494375,5.28345429 L45.494375,15.4102576 L33.406875,15.4102576 L33.406875,10.7866482 L40.4396875,10.7866482 L40.4396875,9.90612465 L33.40625,9.90612465 L33.40625,0 L33.4065625,0 Z M47.9121875,0 L60,0 L60,4.40293075 L52.9671875,4.40293075 L52.9671875,5.28345429 L60,5.28345429 L60,15.4102576 L47.9121875,15.4102576 L47.9121875,10.7866482 L54.945,10.7866482 L54.945,9.90612465 L47.9125,9.90612465 L47.9125,0 L47.9121875,0 Z" id="Shape" fill="#000000" fill-rule="nonzero"></path>
            <polygon id="Path" fill="#FFFFFF" points="63.1646875 59.0467258 64.96625 38.8128393 39.965625 38.8128393 39.965625 48.8097396 54.02875 48.8097396 53.120625 59.0467258 39.965625 59.0467258 39.965625 69.043626 52.2553125 69.043626 51.0965625 82.0088892 39.9653125 85.0182576 39.9653125 95.4186399 60.425625 89.738903 60.575625 88.0498504 62.92125 61.7311801 63.1646875 59.0467258"></polygon>
        </g>
    </g>
</svg>