<?xml version="1.0" encoding="UTF-8"?>
<svg width="341px" height="341px" viewBox="0 0 341 341" version="1.1" xmlns="http://www.w3.org/2000/svg" xmlns:xlink="http://www.w3.org/1999/xlink">
    <!-- Generator: Sketch 52.6 (67491) - http://www.bohemiancoding.com/sketch -->
    <title>debug</title>
    <desc>Created with Sketch.</desc>
    <g id="Page-1" stroke="none" stroke-width="1" fill="none" fill-rule="evenodd">
        <g id="debug" transform="translate(12.000000, 12.000000)">
            <g id="Group" transform="translate(43.000000, 43.000000)">
                <circle id="Oval-Copy" stroke="#D0021B" stroke-width="24" cx="115" cy="116" r="85"></circle>
                <rect id="Rectangle" fill="#D0021B" x="106" y="0" width="22" height="58"></rect>
                <polygon id="Rectangle" fill="#D0021B" points="189.990096 26 205.316828 41.3267316 164.326732 82.3168279 149 66.9900962"></polygon>
                <rect id="Rectangle" fill="#D0021B" x="174" y="105" width="57.96875" height="21.6752717"></rect>
                <polygon id="Rectangle" fill="#D0021B" points="205.316828 189.990096 189.990096 205.316828 149 164.326732 164.326732 149"></polygon>
                <rect id="Rectangle" fill="#D0021B" x="106" y="174" width="22" height="58"></rect>
                <polygon id="Rectangle" fill="#D0021B" points="41.3267316 205.316828 26 189.990096 66.9900962 149 82.3168279 164.326732"></polygon>
                <rect id="Rectangle" fill="#D0021B" x="0" y="105" width="57.96875" height="21.6752717"></rect>
                <polygon id="Rectangle" fill="#D0021B" points="26 41.3267316 41.3267316 26 82.3168279 66.9900962 66.9900962 82.3168279"></polygon>
            </g>
            <path d="M158.5,317 C70.9628672,317 0,246.037133 0,158.5 C0,70.9628672 70.9628672,0 158.5,0 C246.037133,0 317,70.9628672 317,158.5 C317,246.037133 246.037133,317 158.5,317 Z" id="Oval-2" stroke="#F5A623" stroke-width="24"></path>
        </g>
    </g>
</svg>