<?xml version="1.0" encoding="UTF-8"?>
<svg width="209px" height="134px" viewBox="0 0 209 134" version="1.1" xmlns="http://www.w3.org/2000/svg" xmlns:xlink="http://www.w3.org/1999/xlink">
    <!-- Generator: Sketch 52.6 (67491) - http://www.bohemiancoding.com/sketch -->
    <title>design</title>
    <desc>Created with Sketch.</desc>
    <g id="design" stroke="none" stroke-width="1" fill="none" fill-rule="evenodd">
        <g id="laptop" transform="translate(-2.000000, 3.000000)">
            <path d="M35.5376344,0 L178.225806,-8.8817842e-16 C180.98723,-1.39544373e-15 183.225806,2.23857625 183.225806,5 L183.225806,98.25 L30.5376344,98.25 L30.5376344,5 C30.5376344,2.23857625 32.7762107,-3.80913106e-16 35.5376344,-8.8817842e-16 Z" id="Rectangle" stroke="#4A4A4A" stroke-width="6" fill="#000000"></path>
            <path d="M182.821831,101.511628 L30.1087562,101.511628 C29.4643009,101.511628 28.8447402,101.760498 28.3793603,102.206305 L5.42561864,124.194677 C4.93336715,124.666226 4.65501452,125.318333 4.65501452,126 C4.65501452,127.380712 5.77430265,128.5 7.15501452,128.5 L205.832114,128.5 C207.212826,128.5 208.332114,127.380712 208.332114,126 C208.332114,125.317266 208.052892,124.664234 207.55929,124.192553 L184.549007,102.204181 C184.083848,101.75968 183.465224,101.511628 182.821831,101.511628 Z" id="Combined-Shape" stroke="#979797" stroke-width="5" fill="#D8D8D8"></path>
        </g>
        <g id="screen" transform="translate(58.000000, 16.000000)">
            <rect id="Rectangle" stroke="#979797" stroke-width="0.5" fill="#FFFFFF" x="0.25" y="0.25" width="92.5" height="66.5"></rect>
            <g id="Group" transform="translate(8.454545, 6.852273)">
                <rect id="Rectangle" fill="#000099" x="0" y="0" width="23.8264463" height="23.6022727"></rect>
                <path d="M25.7479339,0.380681818 L73.4008264,0.380681818" id="Line" stroke="#4A4A4A" stroke-linecap="square"></path>
                <path d="M25.7479339,4.1875 L73.4008264,4.1875" id="Line-Copy" stroke="#4A4A4A" stroke-linecap="square"></path>
                <path d="M25.7479339,7.99431818 L73.4008264,7.99431818" id="Line-Copy-2" stroke="#4A4A4A" stroke-linecap="square"></path>
                <path d="M25.7479339,11.8011364 L73.4008264,11.8011364" id="Line-Copy-3" stroke="#4A4A4A" stroke-linecap="square"></path>
                <path d="M25.7479339,15.6079545 L73.4008264,15.6079545" id="Line-Copy-4" stroke="#4A4A4A" stroke-linecap="square"></path>
                <path d="M25.7479339,19.4147727 L73.4008264,19.4147727" id="Line-Copy-5" stroke="#4A4A4A" stroke-linecap="square"></path>
                <path d="M25.7479339,23.2215909 L73.4008264,23.2215909" id="Line-Copy-6" stroke="#4A4A4A" stroke-linecap="square"></path>
            </g>
            <g id="Group-Copy" transform="translate(46.115702, 50.250000) rotate(-180.000000) translate(-46.115702, -50.250000) translate(8.454545, 38.068182)">
                <ellipse id="Oval" fill="#D0021B" cx="12.2975207" cy="12.1818182" rx="12.2975207" ry="12.1818182"></ellipse>
                <path d="M27.285124,0.380681818 L74.9380165,0.380681818" id="Line" stroke="#4A4A4A" stroke-linecap="square"></path>
                <path d="M27.285124,4.1875 L74.9380165,4.1875" id="Line-Copy" stroke="#4A4A4A" stroke-linecap="square"></path>
                <path d="M27.285124,7.99431818 L74.9380165,7.99431818" id="Line-Copy-2" stroke="#4A4A4A" stroke-linecap="square"></path>
                <path d="M27.285124,11.8011364 L74.9380165,11.8011364" id="Line-Copy-3" stroke="#4A4A4A" stroke-linecap="square"></path>
                <path d="M27.285124,15.6079545 L74.9380165,15.6079545" id="Line-Copy-4" stroke="#4A4A4A" stroke-linecap="square"></path>
                <path d="M27.285124,19.4147727 L74.9380165,19.4147727" id="Line-Copy-5" stroke="#4A4A4A" stroke-linecap="square"></path>
                <path d="M27.285124,23.2215909 L74.9380165,23.2215909" id="Line-Copy-6" stroke="#4A4A4A" stroke-linecap="square"></path>
            </g>
        </g>
    </g>
</svg>