<?xml version="1.0" encoding="UTF-8"?>
<svg width="80px" height="80px" viewBox="0 0 80 80" version="1.1" xmlns="http://www.w3.org/2000/svg" xmlns:xlink="http://www.w3.org/1999/xlink">
    <!-- Generator: Sketch 52.6 (67491) - http://www.bohemiancoding.com/sketch -->
    <title>design</title>
    <desc>Created with Sketch.</desc>
    <g id="design" stroke="none" stroke-width="1" fill="none" fill-rule="evenodd">
        <rect id="Rectangle" fill="#5042D3" x="6" y="8" width="67" height="63"></rect>
        <path d="M39.6347942,24 C39.7374796,24 39.8515744,24 39.9504566,24 C41.1598617,27.9982596 42.3426448,32.0345254 43.5938847,36.0061806 C47.5910067,36.0061806 51.5957351,36.0061806 55.5928571,36.0061806 C55.5928571,36.1011963 55.5928571,36.2190157 55.5928571,36.3216327 C52.2612882,38.6666195 49.0590268,41.1560302 45.9594507,43.7480578 C47.0585642,47.7539186 48.4505211,51.4709318 49.4355397,55.5984127 C49.3366576,55.5984127 49.2187596,55.5984127 49.1198774,55.5984127 C46.1762309,53.1052014 43.0158042,50.847629 39.9504566,48.483639 C36.5960687,50.6423951 33.599178,53.1774133 30.4767829,55.5984127 C30.3702944,55.5984127 30.2638059,55.5984127 30.1611206,55.5984127 C31.283053,51.5469443 32.5342929,47.6398998 33.7969423,43.7480578 C30.6060904,41.137027 27.263112,38.6932239 24,36.1620063 C24,36.1011963 24,36.06319 24,36.0099813 C28.0009252,36.0099813 32.0018504,36.0099813 36.0103819,36.0099813 C37.2692282,32.0763323 38.5546966,28.1274809 39.6347942,24 Z" id="Shape" fill="#F7DF1E" fill-rule="nonzero"></path>
    </g>
</svg>