<?xml version="1.0" encoding="UTF-8"?>
<svg width="80px" height="80px" viewBox="0 0 80 80" version="1.1" xmlns="http://www.w3.org/2000/svg" xmlns:xlink="http://www.w3.org/1999/xlink">
    <!-- Generator: Sketch 52.6 (67491) - http://www.bohemiancoding.com/sketch -->
    <title>dinner</title>
    <desc>Created with Sketch.</desc>
    <g id="dinner" stroke="none" stroke-width="1" fill="none" fill-rule="evenodd">
        <rect id="Rectangle" stroke="#000000" fill="#FFFFFF" x="6.5" y="8.5" width="66" height="62"></rect>
        <rect id="Rectangle" stroke="#000000" fill="#FFCC00" x="14.5" y="18.5" width="51" height="43"></rect>
        <g id="fork-head" transform="translate(27.000000, 20.000000)">
            <path d="M1.55293474,5.18147644 L12.9220423,5.58096075 L12.9220423,13.4808088 L1.5540064,13.7924865 C-0.833319993,13.8579398 -2.82169085,11.9756898 -2.88714422,9.58836344 C-2.88822706,9.54886811 -2.88876856,9.5093598 -2.88876856,9.46984964 L-2.88876856,9.46984964 C-2.88876856,7.09998489 -0.967613591,5.17882992 1.40225116,5.17882992 C1.45249064,5.17882992 1.50272625,5.17971223 1.55293474,5.18147644 Z" id="Rectangle" fill="#000000" transform="translate(5.016637, 9.486486) rotate(-90.000000) translate(-5.016637, -9.486486) "></path>
            <rect id="Rectangle-Copy" fill="#7ED321" x="2.22222222" y="0" width="1.11111111" height="12.6486486" rx="0.555555556"></rect>
            <rect id="Rectangle-Copy-2" fill="#7ED321" x="4.44444444" y="0" width="1.11111111" height="12.6486486" rx="0.555555556"></rect>
            <rect id="Rectangle-Copy-3" fill="#7ED321" x="6.66666667" y="0" width="1.11111111" height="12.6486486" rx="0.555555556"></rect>
            <path d="M5.0242815,14.7567568 L5.0245497,14.7567568 C5.56511136,14.7567568 6.00746234,15.1870318 6.02242075,15.7273864 L6.63821806,37.972328 C6.65350087,38.5244013 6.21834623,38.9843342 5.66627298,38.9996171 C5.65705119,38.9998723 5.64782632,39 5.638601,39 L4.36348237,39 C3.81119762,39 3.36348237,38.5522847 3.36348237,38 C3.36348237,37.9901001 3.36362938,37.9802008 3.36392336,37.9703052 L4.02472249,15.727062 C4.04077909,15.1865786 4.48355963,14.7567568 5.0242815,14.7567568 Z" id="Rectangle" fill="#000000"></path>
        </g>
        <g id="spoon-head" transform="translate(43.000000, 21.000000)" fill="#000000">
            <path d="M5.0245497,12.6857143 L5.0245497,12.6857143 C5.56493204,12.6857143 6.00696349,13.1161822 6.02128472,13.6563748 L6.63945273,36.973498 C6.65408939,37.5255887 6.21839676,37.9850121 5.66630599,37.9996488 C5.65747392,37.9998829 5.64863914,38 5.63980397,38 L4.3621889,38 C3.80990415,38 3.3621889,37.5522847 3.3621889,37 C3.3621889,36.9905188 3.36232374,36.981038 3.36259339,36.9715606 L4.02593346,13.6563231 C4.04131006,13.1158626 4.4838705,12.6857143 5.0245497,12.6857143 Z" id="Rectangle"></path>
            <g id="Oval-2">
                <path d="M5,14.8 C7.76142375,14.8 10,11.4869071 10,7.4 C10,3.31309285 7.76142375,0 5,0 C3.92549811,0 2.9301594,0.501628112 2.11506524,1.35528394 C0.835402384,2.69548696 0,4.90335565 0,7.4 C0,11.4869071 2.23857625,14.8 5,14.8 Z" id="Oval"></path>
            </g>
        </g>
    </g>
</svg>