<?xml version="1.0" encoding="UTF-8"?>
<svg width="100px" height="100px" viewBox="0 0 100 100" version="1.1" xmlns="http://www.w3.org/2000/svg" xmlns:xlink="http://www.w3.org/1999/xlink">
    <!-- Generator: Sketch 52.6 (67491) - http://www.bohemiancoding.com/sketch -->
    <title>dinner</title>
    <desc>Created with Sketch.</desc>
    <defs>
        <linearGradient x1="50%" y1="72.3083496%" x2="50%" y2="169.98291%" id="linearGradient-1">
            <stop stop-color="#C5450E" offset="0%"></stop>
            <stop stop-color="#E99943" offset="93.9269807%"></stop>
            <stop stop-color="#2F1CF8" offset="100%"></stop>
        </linearGradient>
        <polygon id="path-2" points="33.5 0 67 64 0 64"></polygon>
        <linearGradient x1="50%" y1="-43.6447144%" x2="50%" y2="169.98291%" id="linearGradient-4">
            <stop stop-color="#D66B00" offset="0%"></stop>
            <stop stop-color="#E99943" offset="85.7334777%"></stop>
            <stop stop-color="#2F1CF8" offset="100%"></stop>
        </linearGradient>
    </defs>
    <g id="dinner" stroke="none" stroke-width="1" fill="none" fill-rule="evenodd">
        <g id="Oval-+-Oval-Copy-2-+-Oval-Copy-3-Mask-Copy" transform="translate(16.000000, 18.000000)">
            <mask id="mask-3" fill="white">
                <use xlink:href="#path-2"></use>
            </mask>
            <use id="Mask" fill="url(#linearGradient-1)" transform="translate(33.500000, 32.000000) rotate(-180.000000) translate(-33.500000, -32.000000) " xlink:href="#path-2"></use>
        </g>
        <path d="M50.0116951,18 C50.0039274,18.1656914 50,18.332387 50,18.5 C50,24.2989899 54.7010101,29 60.5,29 C66.2989899,29 71,24.2989899 71,18.5 C71,18.332387 70.9960726,18.1656914 70.9883049,18 L83,18 L62.0063637,58.1072455 C61.5144327,58.0365726 61.0114873,58 60.5,58 C54.7010101,58 50,62.7010101 50,68.5 C50,71.2667648 51.0701163,73.7835905 52.8190328,75.6591612 L49.5,82 L30.287765,45.2960287 C34.2149222,43.7765078 37,39.9634988 37,35.5 C37,29.7010101 32.2989899,25 26.5,25 C24.3168642,25 22.2893433,25.6662665 20.6096814,26.8065554 L16,18 L50.0116951,18 Z M54.5,53 C60.2989899,53 65,48.2989899 65,42.5 C65,36.7010101 60.2989899,32 54.5,32 C48.7010101,32 44,36.7010101 44,42.5 C44,48.2989899 48.7010101,53 54.5,53 Z" id="Combined-Shape" fill="url(#linearGradient-4)"></path>
    </g>
</svg>