<?xml version="1.0" encoding="UTF-8"?>
<svg width="89px" height="89px" viewBox="0 0 89 89" version="1.1" xmlns="http://www.w3.org/2000/svg" xmlns:xlink="http://www.w3.org/1999/xlink">
    <!-- Generator: Sketch 50.2 (55047) - http://www.bohemiancoding.com/sketch -->
    <title>earnings</title>
    <desc>Created with Sketch.</desc>
    <defs></defs>
    <g id="Page-1" stroke="none" stroke-width="1" fill="none" fill-rule="evenodd">
        <g id="earnings">
            <rect id="biz_act" fill="#EC1C24" x="0" y="0" width="89" height="89" rx="8"></rect>
            <g id="149122" transform="translate(18.000000, 16.000000)" fill="#FFFFFF">
                <g id="Group">
                    <path d="M33.35,21.35 C32.797,21.35 32.35,21.7003745 32.35,22.1338356 C32.35,26.8877983 27.415,30.7560268 21.35,30.7560268 L-2.65,30.7560268 L-2.65,23.7297248 L-16.35,31.5398624 L-2.65,39.35 L-2.65,32.323698 L21.35,32.323698 C28.518,32.323698 34.35,27.7523689 34.35,22.1338356 C34.35,21.7003745 33.903,21.35 33.35,21.35 Z M-4.65,36.2710939 L-12.95,31.5398624 L-4.65,26.8086309 L-4.65,36.2710939 Z" id="Shape" fill-rule="nonzero" transform="translate(9.000000, 30.350000) scale(-1, 1) rotate(-90.000000) translate(-9.000000, -30.350000) "></path>
                    <path d="M67.35,21.35 C66.797,21.35 66.35,21.7003745 66.35,22.1338356 C66.35,26.8877983 61.415,30.7560268 55.35,30.7560268 L31.35,30.7560268 L31.35,23.7297248 L17.65,31.5398624 L31.35,39.35 L31.35,32.323698 L55.35,32.323698 C62.518,32.323698 68.35,27.7523689 68.35,22.1338356 C68.35,21.7003745 67.903,21.35 67.35,21.35 Z M29.35,36.2710939 L21.05,31.5398624 L29.35,26.8086309 L29.35,36.2710939 Z" id="Shape-Copy" fill-rule="nonzero" transform="translate(43.000000, 30.350000) rotate(-90.000000) translate(-43.000000, -30.350000) "></path>
                    <text id="$" font-family="ArialMT, Arial" font-size="24" font-weight="normal" letter-spacing="-0.631579">
                        <tspan x="20.1419614" y="22">$</tspan>
                    </text>
                </g>
            </g>
        </g>
    </g>
</svg>