<?xml version="1.0" encoding="UTF-8"?>
<svg width="100px" height="100px" viewBox="0 0 100 100" version="1.1" xmlns="http://www.w3.org/2000/svg" xmlns:xlink="http://www.w3.org/1999/xlink">
    <!-- Generator: Sketch 52.6 (67491) - http://www.bohemiancoding.com/sketch -->
    <title>eightbit</title>
    <desc>Created with Sketch.</desc>
    <defs>
        <linearGradient x1="50%" y1="10.7939749%" x2="50%" y2="71.3142164%" id="linearGradient-1">
            <stop stop-color="#4935CF" stop-opacity="0.562301857" offset="0%"></stop>
            <stop stop-color="#E42727" offset="100%"></stop>
        </linearGradient>
    </defs>
    <g id="eightbit" stroke="none" stroke-width="1" fill="none" fill-rule="evenodd">
        <g id="Group-2" transform="translate(29.000000, 12.000000)" fill="url(#linearGradient-1)">
            <g id="Group">
                <path d="M18.4285714,21.5 L18.4285714,26.8982684 C18.4285714,28.5945716 19.8036968,29.969697 21.5,29.969697 C23.1963032,29.969697 24.5714286,28.5945716 24.5714286,26.8982684 L24.5714286,21.5 L24.5714286,16.1017316 C24.5714286,14.4054284 23.1963032,13.030303 21.5,13.030303 C19.8036968,13.030303 18.4285714,14.4054284 18.4285714,16.1017316 L18.4285714,21.5 Z M0,21.5 L21.5,0 L43,21.5 L21.5,43 L0,21.5 Z" id="Combined-Shape-Copy-3"></path>
            </g>
            <g id="Group-Copy" transform="translate(0.000000, 34.000000)">
                <path d="M18.4285714,21.5 L18.4285714,26.8982684 C18.4285714,28.5945716 19.8036968,29.969697 21.5,29.969697 C23.1963032,29.969697 24.5714286,28.5945716 24.5714286,26.8982684 L24.5714286,21.5 L24.5714286,16.1017316 C24.5714286,14.4054284 23.1963032,13.030303 21.5,13.030303 C19.8036968,13.030303 18.4285714,14.4054284 18.4285714,16.1017316 L18.4285714,21.5 Z M0,21.5 L21.5,0 L43,21.5 L21.5,43 L0,21.5 Z" id="Combined-Shape-Copy-3"></path>
            </g>
        </g>
    </g>
</svg>