<?xml version="1.0" encoding="UTF-8"?>
<svg width="100px" height="100px" viewBox="0 0 100 100" version="1.1" xmlns="http://www.w3.org/2000/svg" xmlns:xlink="http://www.w3.org/1999/xlink">
    <!-- Generator: Sketch 52.6 (67491) - http://www.bohemiancoding.com/sketch -->
    <title>eightbit</title>
    <desc>Created with Sketch.</desc>
    <defs>
        <linearGradient x1="50%" y1="10.7939749%" x2="50%" y2="71.3142164%" id="linearGradient-1">
            <stop stop-color="#4935CF" stop-opacity="0.562301857" offset="0%"></stop>
            <stop stop-color="#E42727" offset="100%"></stop>
        </linearGradient>
    </defs>
    <g id="eightbit" stroke="none" stroke-width="1" fill="none" fill-rule="evenodd">
        <g id="Group-2" transform="translate(32.000000, 15.000000)" fill="url(#linearGradient-1)">
            <g id="Group">
                <path d="M15.4285714,18 L15.4285714,22.5194805 C15.4285714,23.9396413 16.5798392,25.0909091 18,25.0909091 C19.4201608,25.0909091 20.5714286,23.9396413 20.5714286,22.5194805 L20.5714286,18 L20.5714286,13.4805195 C20.5714286,12.0603587 19.4201608,10.9090909 18,10.9090909 C16.5798392,10.9090909 15.4285714,12.0603587 15.4285714,13.4805195 L15.4285714,18 Z M0,18 L18,0 L36,18 L18,36 L0,18 Z" id="Combined-Shape-Copy-3"></path>
            </g>
            <g id="Group-Copy" transform="translate(0.000000, 35.000000)">
                <path d="M15.4285714,18 L15.4285714,22.5194805 C15.4285714,23.9396413 16.5798392,25.0909091 18,25.0909091 C19.4201608,25.0909091 20.5714286,23.9396413 20.5714286,22.5194805 L20.5714286,18 L20.5714286,13.4805195 C20.5714286,12.0603587 19.4201608,10.9090909 18,10.9090909 C16.5798392,10.9090909 15.4285714,12.0603587 15.4285714,13.4805195 L15.4285714,18 Z M0,18 L18,0 L36,18 L18,36 L0,18 Z" id="Combined-Shape-Copy-3"></path>
            </g>
        </g>
    </g>
</svg>