<?xml version="1.0" encoding="UTF-8"?>
<svg width="100px" height="100px" viewBox="0 0 100 100" version="1.1" xmlns="http://www.w3.org/2000/svg" xmlns:xlink="http://www.w3.org/1999/xlink">
    <!-- Generator: Sketch 52.6 (67491) - http://www.bohemiancoding.com/sketch -->
    <title>eightbit</title>
    <desc>Created with Sketch.</desc>
    <defs>
        <linearGradient x1="50%" y1="10.7939749%" x2="50%" y2="71.3142164%" id="linearGradient-1">
            <stop stop-color="#4935CF" stop-opacity="0.562301857" offset="0%"></stop>
            <stop stop-color="#E42727" offset="100%"></stop>
        </linearGradient>
    </defs>
    <g id="eightbit" stroke="none" stroke-width="1" fill="none" fill-rule="evenodd">
        <g id="Group-2" transform="translate(30.000000, 9.000000)" fill="url(#linearGradient-1)">
            <g id="Group">
                <path d="M17.5714286,20.5 L17.5714286,25.6471861 C17.5714286,27.2645915 18.8825947,28.5757576 20.5,28.5757576 C22.1174053,28.5757576 23.4285714,27.2645915 23.4285714,25.6471861 L23.4285714,20.5 L23.4285714,15.3528139 C23.4285714,13.7354085 22.1174053,12.4242424 20.5,12.4242424 C18.8825947,12.4242424 17.5714286,13.7354085 17.5714286,15.3528139 L17.5714286,20.5 Z M0,20.5 L20.5,0 L41,20.5 L20.5,41 L0,20.5 Z" id="Combined-Shape-Copy-3"></path>
            </g>
            <g id="Group-Copy" transform="translate(0.000000, 41.000000)">
                <path d="M17.5714286,20.5 L17.5714286,25.6471861 C17.5714286,27.2645915 18.8825947,28.5757576 20.5,28.5757576 C22.1174053,28.5757576 23.4285714,27.2645915 23.4285714,25.6471861 L23.4285714,20.5 L23.4285714,15.3528139 C23.4285714,13.7354085 22.1174053,12.4242424 20.5,12.4242424 C18.8825947,12.4242424 17.5714286,13.7354085 17.5714286,15.3528139 L17.5714286,20.5 Z M0,20.5 L20.5,0 L41,20.5 L20.5,41 L0,20.5 Z" id="Combined-Shape-Copy-3"></path>
            </g>
        </g>
    </g>
</svg>