<?xml version="1.0" encoding="UTF-8"?>
<svg width="220px" height="220px" viewBox="0 0 220 220" version="1.1" xmlns="http://www.w3.org/2000/svg" xmlns:xlink="http://www.w3.org/1999/xlink">
    <!-- Generator: Sketch 52.6 (67491) - http://www.bohemiancoding.com/sketch -->
    <title>erroricon</title>
    <desc>Created with Sketch.</desc>
    <g id="erroricon" stroke="none" stroke-width="1" fill="none" fill-rule="evenodd">
        <g id="Group-3" transform="translate(8.052734, 14.000000)">
            <circle id="background" stroke="#D3424C" stroke-width="4" fill="#F8E71C" cx="96" cy="96" r="94"></circle>
            <rect id="Rectangle" stroke="#373636" stroke-width="2" fill="#D59164" x="64" y="95" width="6" height="17" rx="3"></rect>
            <g id="Group" transform="translate(64.000000, 73.000000)"></g>
            <path d="M53.3502819,181.914685 C53.1197746,180.764019 53,179.60827 53,178.454016 C53,162.902544 76.0826789,153 98.6596296,153 C121.23658,153 143,162.902544 143,178.454016 C143,178.817909 142.986029,179.181952 142.958468,179.545936 C129.070044,187.475425 113.030739,192 95.9470666,192 C80.645216,192 66.1812394,188.370029 53.3502794,181.914672 Z" id="Combined-Shape" fill="#D3424C"></path>
            <rect id="Rectangle" stroke="#979797" fill="#D59164" x="87.5" y="141.5" width="22" height="12"></rect>
            <path d="M84,140 L84,155.275445 C88.857112,161.091815 93.6994043,164 98.5268767,164 C103.354349,164 108.178724,161.091815 113,155.275445 L113,140 C108.190605,145.589428 103.36623,148.384142 98.5268767,148.384142 C93.6875232,148.384142 88.845231,145.589428 84,140 Z" id="Path-3" stroke="#D3424C" fill="#9E050A"></path>
            <rect id="Rectangle-Copy" stroke="#373636" stroke-width="2" fill="#D59164" x="127" y="95" width="6" height="17" rx="3"></rect>
            <path d="M100.227273,73 L127,73 C127,101.213244 127,115.319866 127,115.319866 C127,115.319866 126.730673,125.326223 116.279805,135.449525 C108.567147,142.920443 101.614065,146.144304 98.5,145.995057 C95.3859346,146.144304 88.4328525,142.920443 80.7201949,135.449525 C70.2693272,125.326223 70.0000002,115.319866 70.0000002,115.319866 C70.0000002,115.319866 70.0000002,101.213244 70,73 L100.227273,73 Z" id="Combined-Shape" stroke="#373636" stroke-width="2" fill="#D59164"></path>
            <g id="Group-2" transform="translate(77.000000, 84.000000)" fill="#000000">
                <rect id="Rectangle" transform="translate(5.000000, 4.300000) rotate(-32.000000) translate(-5.000000, -4.300000) " x="0" y="3" width="10" height="2.6" rx="1.3"></rect>
                <ellipse id="Oval" cx="5" cy="12.9666667" rx="3.18181818" ry="3.03333333"></ellipse>
            </g>
            <g id="Group-2" transform="translate(111.000000, 90.500000)" fill="#000000">
                <rect id="Rectangle" transform="translate(6.818182, 6.890625) rotate(-45.000000) translate(-6.818182, -6.890625) " x="5.31818182" y="-0.109375" width="3" height="14" rx="1.5"></rect>
                <rect id="Rectangle-Copy-2" transform="translate(6.818182, 6.890625) scale(-1, 1) rotate(-45.000000) translate(-6.818182, -6.890625) " x="5.31818182" y="-0.109375" width="3" height="14" rx="1.5"></rect>
            </g>
            <polyline id="Path-2" stroke="#000000" stroke-width="2" points="98.7424469 103 102 116 96 116"></polyline>
            <path d="M93.3834543,129 C93.1543049,129 92.9288498,129.057741 92.7279102,129.167889 C92.0674428,129.529936 91.8255253,130.358848 92.1875722,131.019315 L93.109808,132.701712 C93.5486679,133.502306 94.3890525,134 95.3020416,134 L101.732903,134 C102.655965,134 103.50392,133.491367 103.9385,132.677006 L104.817845,131.029198 C104.924515,130.829308 104.980315,130.606224 104.980315,130.379653 C104.980315,129.617692 104.362623,129 103.600662,129 L93.3834543,129 Z" id="Rectangle" stroke="#000000" stroke-width="2" fill="#FFFFFF" transform="translate(98.500000, 131.500000) scale(-1, -1) translate(-98.500000, -131.500000) "></path>
            <path d="M89.4722434,79.9968253 C86.2836178,82.9670561 81.5234785,84.6714286 76.2056075,84.6714286 C75.9366046,84.6714286 75.6690289,84.6670674 75.4030115,84.6584018 C73.6084848,89.5322077 69.0021657,93 63.6028037,93 C56.6424674,93 51,87.2372651 51,80.1285714 C51,74.662613 54.3359697,69.9924196 59.0419461,68.1258581 C60.0926184,62.2967988 64.8146747,57.5570854 71.0347584,55.8376441 C71.0055238,55.4831763 70.9906542,55.1252437 70.9906542,54.7642857 C70.9906542,46.6101959 78.5788001,40 87.9392523,40 C94.7696311,40 100.656308,43.5197372 103.339555,48.5907137 C105.738289,47.4577144 108.486159,46.8142857 111.406542,46.8142857 C113.387468,46.8142857 115.28902,47.1103304 117.056075,47.6544017 C118.82313,47.1103304 120.724681,46.8142857 122.705607,46.8142857 C132.06606,46.8142857 139.654206,53.4244816 139.654206,61.5785714 C139.654206,63.2590577 139.33191,64.8739693 138.738227,66.3789587 C141.950182,68.7394205 144,72.3262904 144,76.3428571 C144,83.4515509 137.579261,89.2142857 129.658879,89.2142857 C122.59994,89.2142857 116.732174,84.6369256 115.539286,78.6088968 C112.456452,82.2840333 107.471174,84.6714286 101.845794,84.6714286 C96.9643315,84.6714286 92.5648664,82.8737144 89.4722434,79.9968253 Z" id="Combined-Shape" stroke="#000000" stroke-width="2" fill="#373636"></path>
        </g>
    </g>
</svg>