<?xml version="1.0" encoding="UTF-8"?>
<svg width="100px" height="100px" viewBox="0 0 100 100" version="1.1" xmlns="http://www.w3.org/2000/svg" xmlns:xlink="http://www.w3.org/1999/xlink">
    <!-- Generator: Sketch 52.6 (67491) - http://www.bohemiancoding.com/sketch -->
    <title>euro</title>
    <desc>Created with Sketch.</desc>
    <defs>
        <linearGradient x1="50%" y1="0%" x2="50%" y2="100%" id="linearGradient-1">
            <stop stop-color="#0000C9" offset="0%"></stop>
            <stop stop-color="#08089B" offset="100%"></stop>
        </linearGradient>
    </defs>
    <g id="euro" stroke="none" stroke-width="1" fill="none" fill-rule="evenodd">
        <g id="Group-2" transform="translate(29.500000, 13.000000)">
            <path d="M20.4352117,73.8591885 C20.9066874,73.8591885 40.4888074,33.774986 40.4888074,22.0335355 C40.4888074,10.292085 31.5105068,0.773758679 20.4352117,0.773758679 C9.35991664,0.773758679 0.381616032,10.292085 0.381616032,22.0335355 C0.381616032,33.774986 19.9637361,73.8591885 20.4352117,73.8591885 Z" id="Oval" fill="url(#linearGradient-1)"></path>
            <g id="euro" transform="translate(3.998194, 7.154157)" fill="#FFCC00">
                <g id="Group" transform="translate(0.104530, 0.532302)">
                    <path d="M2.56866867,14.0398721 C2.58211732,14.0398721 2.59556597,14.0398721 2.60951273,14.0398721 C2.76890418,14.5658639 2.92281655,15.0953424 3.08519659,15.6138627 C3.60869788,15.6138627 4.13369348,15.6138627 4.65868907,15.6138627 C4.65868907,15.6268133 4.65868907,15.6427524 4.65868907,15.6552049 C4.22235497,15.9660182 3.80196002,16.289284 3.39501372,16.6279908 C3.53946222,17.1534845 3.72077,17.6441113 3.85127175,18.1815594 C3.837325,18.1815594 3.82288015,18.1815594 3.80992959,18.1815594 C3.42390342,17.8563012 3.01097994,17.5609289 2.61001083,17.2486213 C2.16869575,17.5335335 1.7766924,17.865267 1.3682518,18.1815594 C1.35530125,18.1815594 1.3403583,18.1815594 1.32641155,18.1815594 C1.47285244,17.6505866 1.63772297,17.140534 1.80209541,16.6279908 C1.38518714,16.2882878 0.947358753,15.9670144 0.519990425,15.6332886 C0.519990425,15.6268133 0.519990425,15.6223304 0.519990425,15.6138627 C1.04448792,15.6138627 1.56798921,15.6138627 2.09248671,15.6138627 C2.25984773,15.0973348 2.42671066,14.5823012 2.56866867,14.0398721 Z" id="Path"></path>
                    <path d="M29.5327212,14.0398721 C29.5431812,14.0398721 29.5606147,14.0398721 29.5735652,14.0398721 C29.7289719,14.5658639 29.8878653,15.0953424 30.0492491,15.6138627 C30.5737466,15.6138627 31.0972479,15.6138627 31.6232397,15.6138627 C31.6232397,15.6268133 31.6232397,15.6427524 31.6232397,15.6552049 C31.1864075,15.9660182 30.7620277,16.289284 30.3615567,16.6279908 C30.5065033,17.1534845 30.6833282,17.6441113 30.8168186,18.1815594 C30.8033699,18.1815594 30.7859365,18.1815594 30.7749783,18.1815594 C30.3889521,17.8563012 29.9760287,17.5609289 29.5745614,17.2486213 C29.1337445,17.5335335 28.7407449,17.865267 28.3337986,18.1815594 C28.3218442,18.1815594 28.3059051,18.1815594 28.2919584,18.1815594 C28.4418859,17.6505866 28.604266,17.140534 28.7676422,16.6279908 C28.3507339,16.2882878 27.9119094,15.9670144 27.4850391,15.6332886 C27.4850391,15.6268133 27.4850391,15.6223304 27.4850391,15.6138627 C28.0105328,15.6138627 28.5345322,15.6138627 29.0590297,15.6138627 C29.2253945,15.0973348 29.3907632,14.5823012 29.5327212,14.0398721 Z" id="Path"></path>
                    <path d="M27.8287269,7.22240094 C27.8401832,7.22240094 27.859609,7.22240094 27.8705672,7.22240094 C28.0274682,7.74739653 28.1818786,8.27587881 28.3452549,8.79539532 C28.8687562,8.79539532 29.3937518,8.79539532 29.9192454,8.79539532 C29.9192454,8.80934207 29.9192454,8.82378692 29.9192454,8.83773367 C29.4804209,9.14655461 29.0625164,9.47181279 28.6555701,9.81101772 C28.7995205,10.3360133 28.9823226,10.8231534 29.1128243,11.363092 C29.0983795,11.363092 29.0829384,11.363092 29.0699879,11.363092 C28.6839617,11.0383319 28.2710382,10.7409672 27.8705672,10.4316482 C27.4292521,10.7160623 27.0377469,11.0458034 26.6283101,11.363092 C26.61785,11.363092 26.6019109,11.363092 26.5934432,11.363092 C26.7408803,10.8326173 26.9047546,10.3210704 27.0641461,9.81101772 C26.6457435,9.46982039 26.2079151,9.1475508 25.7860259,8.81631544 C25.7860259,8.80884397 25.7860259,8.80236869 25.7860259,8.79489722 C26.3115196,8.79489722 26.8340247,8.79489722 27.3530431,8.79489722 C27.5189098,8.28085979 27.6862708,7.76482997 27.8287269,7.22240094 Z" id="Path"></path>
                    <path d="M15.9859421,0.495085511 C15.9993908,0.495085511 16.0128395,0.495085511 16.0272843,0.495085511 C16.1846834,1.01908491 16.34009,1.54756719 16.5034663,2.06857799 C17.0274657,2.06857799 17.5514651,2.06857799 18.0764606,2.06857799 C18.0764606,2.08003425 18.0764606,2.0944791 18.0764606,2.10942205 C17.6386323,2.41774489 17.2192335,2.74300307 16.8117891,3.0827061 C16.9577319,3.60770169 17.1385416,4.09533991 17.2705376,4.63478035 C17.2555947,4.63478035 17.2416479,4.63478035 17.2252107,4.63478035 C16.8411769,4.31002027 16.426261,4.01265559 16.0272843,3.70283846 C15.584973,3.98725258 15.194464,4.31898604 14.7850272,4.63478035 C14.7705823,4.63478035 14.7571337,4.63478035 14.743685,4.63478035 C14.890624,4.10380758 15.0544984,3.59226064 15.219867,3.0827061 C14.8019625,2.74051258 14.363636,2.41923918 13.9362677,2.08850192 C13.9362677,2.08053235 13.9362677,2.07555137 13.9362677,2.06758179 C14.4607652,2.06758179 14.9852627,2.06758179 15.508764,2.06758179 C15.6781174,1.55155197 15.8444822,1.03552215 15.9859421,0.495085511 Z" id="Path"></path>
                    <path d="M15.9859421,27.4566475 C15.9993908,27.4566475 16.0128395,27.4566475 16.0272843,27.4566475 C16.1846834,27.9831374 16.34009,28.5101254 16.5034663,29.0296419 C17.0274657,29.0296419 17.5514651,29.0296419 18.0764606,29.0296419 C18.0764606,29.040102 18.0764606,29.0590297 18.0764606,29.0724784 C17.6386323,29.3753221 17.2192335,29.7055613 16.8117891,30.0447662 C16.9577319,30.5717542 17.1385416,31.0534152 17.2705376,31.5923576 C17.2555947,31.5923576 17.2416479,31.5923576 17.2252107,31.5923576 C16.8411769,31.2705861 16.426261,30.971229 16.0272843,30.6614119 C15.584973,30.9418412 15.194464,31.2755671 14.7850272,31.5923576 C14.7705823,31.5923576 14.7571337,31.5923576 14.743685,31.5923576 C14.890624,31.0633772 15.0544984,30.5498379 15.219867,30.0447662 C14.8019625,29.7020746 14.363636,29.3837898 13.9362677,29.0530525 C13.9362677,29.0425925 13.9362677,29.0386077 13.9362677,29.0296419 C14.4607652,29.0296419 14.9852627,29.0296419 15.508764,29.0296419 C15.6781174,28.5161026 15.8444822,27.9995747 15.9859421,27.4566475 Z" id="Path"></path>
                    <path d="M4.33243469,20.6750394 C4.34588335,20.6750394 4.36132439,20.6750394 4.37377685,20.6750394 C4.5331683,21.1995369 4.68708067,21.7275211 4.85045691,22.24903 C5.3739582,22.24903 5.8984557,22.24903 6.42245509,22.24903 C6.42245509,22.25949 6.42245509,22.2764254 6.42245509,22.2908702 C5.9856229,22.5991931 5.56672224,22.9239531 5.16027404,23.2636562 C5.30422444,23.7891499 5.48553222,24.27629 5.61653207,24.8162285 C5.60208722,24.8162285 5.58814047,24.8162285 5.57469181,24.8162285 C5.18916374,24.4904722 4.77574216,24.1936057 4.37477305,23.8842866 C3.93445416,24.1642179 3.54294891,24.4964494 3.13351212,24.8162285 C3.11956537,24.8162285 3.10561862,24.8162285 3.09216996,24.8162285 C3.23910896,24.2852558 3.4024852,23.7682297 3.56835192,23.2636562 C3.15094556,22.9209646 2.71261907,22.6001893 2.28624694,22.2684558 C2.28624694,22.2579957 2.28624694,22.2560033 2.28624694,22.24903 C2.81024634,22.24903 3.33424573,22.24903 3.85774703,22.24903 C4.02510805,21.7344944 4.19097478,21.2169703 4.33243469,20.6750394 Z" id="Path"></path>
                    <path d="M4.33243469,7.22240094 C4.34588335,7.22240094 4.36132439,7.22240094 4.37377685,7.22240094 C4.5331683,7.74739653 4.68708067,8.27587881 4.85045691,8.79539532 C5.3739582,8.79539532 5.8984557,8.79539532 6.42245509,8.79539532 C6.42245509,8.80934207 6.42245509,8.82378692 6.42245509,8.83773367 C5.9856229,9.14655461 5.56672224,9.47181279 5.16027404,9.81101772 C5.30422444,10.3360133 5.48553222,10.8231534 5.61653207,11.363092 C5.60208722,11.363092 5.58814047,11.363092 5.57469181,11.363092 C5.18916374,11.0383319 4.77574216,10.7409672 4.37477305,10.4316482 C3.93445416,10.7160623 3.54294891,11.0458034 3.13351212,11.363092 C3.11956537,11.363092 3.10561862,11.363092 3.09216996,11.363092 C3.23910896,10.8326173 3.4024852,10.3210704 3.56835192,9.81101772 C3.15094556,9.46982039 2.71261907,9.1475508 2.28624694,8.81631544 C2.28624694,8.80884397 2.28624694,8.80236869 2.28624694,8.79489722 C2.81024634,8.79489722 3.33424573,8.79489722 3.85774703,8.79489722 C4.02510805,8.28085979 4.19097478,7.76482997 4.33243469,7.22240094 Z" id="Path"></path>
                    <path d="M9.32487379,2.23245233 C9.33832245,2.23245233 9.35326539,2.23245233 9.36621595,2.23245233 C9.5246112,2.75645172 9.67951977,3.2854321 9.84339411,3.80594481 C10.3668954,3.80594481 10.8913929,3.80594481 11.4148942,3.80594481 C11.4148942,3.81839726 11.4148942,3.83383831 11.4148942,3.84728696 C10.9785601,4.1546136 10.5591613,4.48086798 10.1532112,4.82057101 C10.2971616,5.3455666 10.4794656,5.83270672 10.6084731,6.37364146 C10.5955225,6.37364146 10.5800815,6.37364146 10.5671309,6.37364146 C10.1816028,6.04688899 9.76768317,5.7510186 9.36621595,5.44120147 C8.92689326,5.7241213 8.53439182,6.05635285 8.12545312,6.37364146 C8.11150637,6.37364146 8.09755962,6.37364146 8.08411097,6.37364146 C8.23104996,5.84266869 8.3949243,5.33062365 8.56029293,4.82057101 C8.14238847,4.47837749 7.70456007,4.15810029 7.27719175,3.82636683 C7.27719175,3.81839726 7.27719175,3.81341628 7.27719175,3.8064429 C7.80119114,3.8064429 8.32519054,3.8064429 8.85018613,3.8064429 C9.01505666,3.29091118 9.18341388,2.77338706 9.32487379,2.23245233 Z" id="Path"></path>
                    <path d="M22.8377821,2.23245233 C22.8502346,2.23245233 22.8651775,2.23245233 22.8786262,2.23245233 C23.0370215,2.75645172 23.1914319,3.2854321 23.3553063,3.80594481 C23.8773133,3.80594481 24.4038031,3.80594481 24.9283006,3.80594481 C24.9283006,3.81839726 24.9283006,3.83383831 24.9283006,3.84728696 C24.4894761,4.1546136 24.0710735,4.48086798 23.6661196,4.82057101 C23.8085757,5.3455666 23.9913778,5.83270672 24.1208833,6.37364146 C24.1074347,6.37364146 24.0934879,6.37364146 24.078545,6.37364146 C23.693515,6.04688899 23.2800934,5.7510186 22.8786262,5.44120147 C22.436813,5.7241213 22.046304,6.05635285 21.6383615,6.37364146 C21.625909,6.37364146 21.6114642,6.37364146 21.5965212,6.37364146 C21.7444564,5.84266869 21.9078326,5.33062365 22.0741975,4.82057101 C21.6533044,4.47837749 21.2174684,4.15810029 20.7901001,3.82636683 C20.7901001,3.81839726 20.7901001,3.81341628 20.7901001,3.8064429 C21.3145976,3.8064429 21.838597,3.8064429 22.3625964,3.8064429 C22.5294593,3.29091118 22.6948279,2.77338706 22.8377821,2.23245233 Z" id="Path"></path>
                    <path d="M27.8287269,20.7965754 C27.8401832,20.7965754 27.859609,20.7965754 27.8705672,20.7965754 C28.0274682,21.321571 28.1818786,21.8500532 28.3452549,22.370566 C28.8687562,22.370566 29.3937518,22.370566 29.9192454,22.370566 C29.9192454,22.381026 29.9192454,22.3989576 29.9192454,22.41141 C29.4804209,22.7197328 29.0625164,23.0444929 28.6555701,23.384196 C28.7995205,23.9096896 28.9823226,24.392845 29.1128243,24.9317873 C29.0983795,24.9317873 29.0829384,24.9317873 29.0699879,24.9317873 C28.6839617,24.6100158 28.2710382,24.3096626 27.8705672,23.9998454 C27.4292521,24.2832634 27.0377469,24.6144987 26.6283101,24.9317873 C26.61785,24.9317873 26.6019109,24.9317873 26.5934432,24.9317873 C26.7408803,24.4028069 26.9047546,23.8892676 27.0641461,23.384196 C26.6457435,23.0415043 26.2079151,22.720729 25.7860259,22.3899918 C25.7860259,22.3795317 25.7860259,22.3770412 25.7860259,22.370566 C26.3115196,22.370566 26.8340247,22.370566 27.3530431,22.370566 C27.5189098,21.854038 27.6862708,21.3390044 27.8287269,20.7965754 Z" id="Path"></path>
                    <path d="M9.32487379,25.6326116 C9.33832245,25.6326116 9.35326539,25.6326116 9.36621595,25.6326116 C9.5246112,26.1581053 9.67951977,26.6860895 9.84339411,27.205606 C10.3668954,27.205606 10.8913929,27.205606 11.4148942,27.205606 C11.4148942,27.2160661 11.4148942,27.2330014 11.4148942,27.2464501 C10.9785601,27.5542748 10.5591613,27.879533 10.1532112,28.2187379 C10.2971616,28.7457259 10.4794656,29.2293793 10.6084731,29.7673255 C10.5955225,29.7673255 10.5800815,29.7673255 10.5671309,29.7673255 C10.1816028,29.445554 9.76768317,29.1442045 9.36621595,28.8428551 C8.92689326,29.1227863 8.53439182,29.4550178 8.12545312,29.7673255 C8.11150637,29.7673255 8.09755962,29.7673255 8.08411097,29.7673255 C8.23104996,29.2383451 8.3949243,28.7267982 8.56029293,28.2187379 C8.14238847,27.8760463 7.70456007,27.5577615 7.27719175,27.226028 C7.27719175,27.215568 7.27719175,27.2145718 7.27719175,27.205606 C7.80119114,27.205606 8.32519054,27.205606 8.85018613,27.205606 C9.01505666,26.6890781 9.18341388,26.1740444 9.32487379,25.6326116 Z" id="Path"></path>
                    <path d="M22.8377821,25.8761817 C22.8502346,25.8761817 22.8651775,25.8761817 22.8786262,25.8761817 C23.0370215,26.4051621 23.1914319,26.9281653 23.3553063,27.448678 C23.8773133,27.448678 24.4038031,27.448678 24.9283006,27.448678 C24.9283006,27.4626247 24.9283006,27.4785639 24.9283006,27.4915144 C24.4894761,27.798343 24.0710735,28.1250954 23.6661196,28.4638023 C23.8085757,28.9892959 23.9913778,29.475938 24.1208833,30.0153784 C24.1074347,30.0153784 24.0934879,30.0153784 24.078545,30.0153784 C23.693515,29.6926107 23.2800934,29.3937518 22.8786262,29.0844327 C22.436813,29.3683487 22.046304,29.699086 21.6383615,30.0153784 C21.625909,30.0153784 21.6114642,30.0153784 21.5965212,30.0153784 C21.7444564,29.486398 21.9078326,28.974353 22.0741975,28.4638023 C21.6533044,28.1221068 21.2174684,27.8013315 20.7901001,27.4691 C20.7901001,27.4626247 20.7901001,27.4561494 20.7901001,27.448678 C21.3145976,27.448678 21.838597,27.448678 22.3625964,27.448678 C22.5294593,26.9336443 22.6948279,26.4176145 22.8377821,25.8761817 Z" id="Path"></path>
                </g>
            </g>
        </g>
    </g>
</svg>