<?xml version="1.0" encoding="UTF-8"?>
<svg width="150px" height="150px" viewBox="0 0 100 100" version="1.1" xmlns="http://www.w3.org/2000/svg" xmlns:xlink="http://www.w3.org/1999/xlink">
    <!-- Generator: Sketch 52.6 (67491) - http://www.bohemiancoding.com/sketch -->
    <title>Europe</title>
    <desc>Created with Sketch.</desc>
    <g id="Europe" stroke="none" stroke-width="1" fill="none" fill-rule="evenodd">
        <g id="Group-2" transform="translate(16.000000, 16.000000)" fill="#FFFFFF" stroke="#000099" stroke-width="0.75">
            <g id="euro" transform="translate(0.734994, 0.326527)">
                <g id="Group" transform="translate(0.221411, 0.127493)">
                    <path d="M4.44081168,28.7384794 C4.46929787,28.7384794 4.49778406,28.7384794 4.5273253,28.7384794 C4.86493944,29.8526061 5.1909481,30.9741181 5.5348925,32.0724191 C6.64374395,32.0724191 7.75576053,32.0724191 8.86777711,32.0724191 C8.86777711,32.0998502 8.86777711,32.1336116 8.86777711,32.1599877 C7.9435584,32.8183353 7.0531011,33.503059 6.19112999,34.2204891 C6.49709281,35.3335607 6.88112889,36.3727792 7.15755047,37.5111719 C7.12800924,37.5111719 7.09741295,37.5111719 7.0699818,37.5111719 C6.25232256,36.822228 5.37769092,36.1965868 4.52838035,35.5350741 C3.59361119,36.1385594 2.76329141,36.8412188 1.89815517,37.5111719 C1.87072402,37.5111719 1.8390727,37.5111719 1.80953146,37.5111719 C2.11971445,36.3864948 2.46893408,35.3061295 2.81709866,34.2204891 C1.93402668,33.5009489 1.00664283,32.8204454 0.101414913,32.1135658 C0.101414913,32.0998502 0.101414913,32.0903548 0.101414913,32.0724191 C1.21237645,32.0724191 2.32122789,32.0724191 3.43218943,32.0724191 C3.78668428,30.9783383 4.14012408,29.8874226 4.44081168,28.7384794 Z" id="Path"></path>
                    <path d="M61.554574,28.7384794 C61.5767299,28.7384794 61.6136565,28.7384794 61.6410876,28.7384794 C61.9702614,29.8526061 62.3068205,30.9741181 62.6486548,32.0724191 C63.7596164,32.0724191 64.8684678,32.0724191 65.9825945,32.0724191 C65.9825945,32.0998502 65.9825945,32.1336116 65.9825945,32.1599877 C65.0573207,32.8183353 64.1584231,33.503059 63.3101675,34.2204891 C63.6171854,35.3335607 63.9917261,36.3727792 64.2744779,37.5111719 C64.2459917,37.5111719 64.2090652,37.5111719 64.1858542,37.5111719 C63.368195,36.822228 62.4935633,36.1965868 61.6431977,35.5350741 C60.7094836,36.1385594 59.8770537,36.8412188 59.0150826,37.5111719 C58.9897616,37.5111719 58.9560001,37.5111719 58.9264589,37.5111719 C59.2440272,36.3864948 59.5879716,35.3061295 59.9340261,34.2204891 C59.0509541,33.5009489 58.1214602,32.8204454 57.2172873,32.1135658 C57.2172873,32.0998502 57.2172873,32.0903548 57.2172873,32.0724191 C58.3303589,32.0724191 59.4402654,32.0724191 60.551227,32.0724191 C60.9036117,30.9783383 61.2538864,29.8874226 61.554574,28.7384794 Z" id="Path"></path>
                    <path d="M57.9452678,14.2980896 C57.9695338,14.2980896 58.0106806,14.2980896 58.0338915,14.2980896 C58.3662304,15.4101061 58.6932941,16.529508 59.0393486,17.6299191 C60.1482001,17.6299191 61.2602167,17.6299191 62.3732883,17.6299191 C62.3732883,17.6594604 62.3732883,17.6900566 62.3732883,17.7195979 C61.4437944,18.3737253 60.5586123,19.0626691 59.6966412,19.7811542 C60.0015489,20.8931708 60.3887502,21.925004 60.6651717,23.0686719 C60.6345755,23.0686719 60.6018691,23.0686719 60.5744379,23.0686719 C59.7567787,22.3807831 58.8821471,21.7509217 58.0338915,21.0957393 C57.0991224,21.6981695 56.2698576,22.3966088 55.4026113,23.0686719 C55.3804554,23.0686719 55.346694,23.0686719 55.3287582,23.0686719 C55.6410513,21.9450499 55.9881608,20.8615195 56.325775,19.7811542 C55.4395379,19.058449 54.512154,18.3758354 53.6185316,17.674231 C53.6185316,17.6584053 53.6185316,17.6446897 53.6185316,17.6288641 C54.7316032,17.6288641 55.8383446,17.6288641 56.9377006,17.6288641 C57.2890303,16.5400585 57.6435252,15.4470327 57.9452678,14.2980896 Z" id="Path"></path>
                    <path d="M32.8605371,0.0486627036 C32.8890233,0.0486627036 32.9175095,0.0486627036 32.9481058,0.0486627036 C33.2814997,1.15856919 33.6106735,2.27797108 33.956728,3.38154731 C35.0666345,3.38154731 36.176541,3.38154731 37.2885576,3.38154731 C37.2885576,3.40581332 37.2885576,3.43640961 37.2885576,3.46806093 C36.3611737,4.12113329 35.4728265,4.81007714 34.6098004,5.52961728 C34.9189283,6.64163386 35.3019094,7.67452213 35.5814961,8.81713499 C35.5498447,8.81713499 35.5203035,8.81713499 35.485487,8.81713499 C34.672048,8.12924617 33.7931962,7.49938479 32.9481058,6.8431473 C32.0112265,7.44557754 31.1840719,8.14823697 30.3168255,8.81713499 C30.2862293,8.81713499 30.2577431,8.81713499 30.2292569,8.81713499 C30.5404949,7.69245788 30.8876045,6.60892749 31.2378791,5.52961728 C30.352697,4.80480192 29.4242582,4.12429842 28.5190302,3.42374908 C28.5190302,3.40686837 28.5190302,3.39631793 28.5190302,3.37943722 C29.6299918,3.37943722 30.7409533,3.37943722 31.8498048,3.37943722 C32.2085198,2.28641144 32.5609045,1.19338565 32.8605371,0.0486627036 Z" id="Path"></path>
                    <path d="M32.8605371,57.1571498 C32.8890233,57.1571498 32.9175095,57.1571498 32.9481058,57.1571498 C33.2814997,58.2723315 33.6106735,59.3885683 33.956728,60.4889794 C35.0666345,60.4889794 36.176541,60.4889794 37.2885576,60.4889794 C37.2885576,60.5111353 37.2885576,60.551227 37.2885576,60.5797132 C36.3611737,61.22118 35.4728265,61.9206743 34.6098004,62.6391594 C34.9189283,63.7553962 35.3019094,64.7756239 35.5814961,65.9171817 C35.5498447,65.9171817 35.5203035,65.9171817 35.485487,65.9171817 C34.672048,65.2356232 33.7931962,64.6015416 32.9481058,63.9453041 C32.0112265,64.539294 31.1840719,65.2461736 30.3168255,65.9171817 C30.2862293,65.9171817 30.2577431,65.9171817 30.2292569,65.9171817 C30.5404949,64.7967248 30.8876045,63.7089742 31.2378791,62.6391594 C30.352697,61.913289 29.4242582,61.2391158 28.5190302,60.5385664 C28.5190302,60.5164105 28.5190302,60.5079702 28.5190302,60.4889794 C29.6299918,60.4889794 30.7409533,60.4889794 31.8498048,60.4889794 C32.2085198,59.4012288 32.5609045,58.307148 32.8605371,57.1571498 Z" id="Path"></path>
                    <path d="M8.17672316,42.7927231 C8.20520936,42.7927231 8.23791573,42.7927231 8.26429183,42.7927231 C8.60190597,43.9036847 8.92791463,45.0220315 9.27396912,46.1266628 C10.3828206,46.1266628 11.4937821,46.1266628 12.6036886,46.1266628 C12.6036886,46.1488187 12.6036886,46.1846902 12.6036886,46.2152865 C11.6784148,46.8683588 10.7911227,47.5562476 9.93020661,48.2757878 C10.2351144,49.3888594 10.6191505,50.4206926 10.8966271,51.5643605 C10.8660308,51.5643605 10.8364896,51.5643605 10.8080034,51.5643605 C9.99139917,50.8743616 9.11571249,50.2455553 8.26640192,49.5903729 C7.33374285,50.1833077 6.50447812,50.8870222 5.63723179,51.5643605 C5.60769055,51.5643605 5.57814932,51.5643605 5.54966312,51.5643605 C5.86090116,50.4396834 6.20695566,49.3445476 6.55828537,48.2757878 C5.67415834,47.5499174 4.74571945,46.8704689 3.84260162,46.1678095 C3.84260162,46.1456536 3.84260162,46.1414334 3.84260162,46.1266628 C4.95250811,46.1266628 6.0624146,46.1266628 7.17126605,46.1266628 C7.5257609,45.0368021 7.87709061,43.9406112 8.17672316,42.7927231 Z" id="Path"></path>
                    <path d="M8.17672316,14.2980896 C8.20520936,14.2980896 8.23791573,14.2980896 8.26429183,14.2980896 C8.60190597,15.4101061 8.92791463,16.529508 9.27396912,17.6299191 C10.3828206,17.6299191 11.4937821,17.6299191 12.6036886,17.6299191 C12.6036886,17.6594604 12.6036886,17.6900566 12.6036886,17.7195979 C11.6784148,18.3737253 10.7911227,19.0626691 9.93020661,19.7811542 C10.2351144,20.8931708 10.6191505,21.925004 10.8966271,23.0686719 C10.8660308,23.0686719 10.8364896,23.0686719 10.8080034,23.0686719 C9.99139917,22.3807831 9.11571249,21.7509217 8.26640192,21.0957393 C7.33374285,21.6981695 6.50447812,22.3966088 5.63723179,23.0686719 C5.60769055,23.0686719 5.57814932,23.0686719 5.54966312,23.0686719 C5.86090116,21.9450499 6.20695566,20.8615195 6.55828537,19.7811542 C5.67415834,19.058449 4.74571945,18.3758354 3.84260162,17.674231 C3.84260162,17.6584053 3.84260162,17.6446897 3.84260162,17.6288641 C4.95250811,17.6288641 6.0624146,17.6288641 7.17126605,17.6288641 C7.5257609,16.5400585 7.87709061,15.4470327 8.17672316,14.2980896 Z" id="Path"></path>
                    <path d="M18.7514311,3.72865685 C18.7799173,3.72865685 18.8115686,3.72865685 18.8389998,3.72865685 C19.1745038,4.83856334 19.5026226,5.95902027 19.8497321,7.06154145 C20.9585836,7.06154145 22.0695451,7.06154145 23.1783965,7.06154145 C23.1783965,7.08791756 23.1783965,7.12062393 23.1783965,7.14911012 C22.2541778,7.80007239 21.3658306,8.49112633 20.5059696,9.21066647 C20.8108774,10.3226831 21.1970235,11.3545163 21.47028,12.5002943 C21.4428488,12.5002943 21.4101425,12.5002943 21.3827113,12.5002943 C20.5661071,11.8081853 19.6893654,11.181489 18.8389998,10.5252515 C17.9084508,11.1245166 17.077076,11.8282311 16.2108847,12.5002943 C16.1813435,12.5002943 16.1518022,12.5002943 16.123316,12.5002943 C16.4345541,11.3756172 16.7816636,10.2910317 17.1319383,9.21066647 C16.2467562,8.48585111 15.3193723,7.8074577 14.4141444,7.10479826 C14.4141444,7.08791756 14.4141444,7.07736711 14.4141444,7.0625965 C15.5240509,7.0625965 16.6339574,7.0625965 17.745974,7.0625965 C18.0951936,5.97062576 18.4517986,4.87443484 18.7514311,3.72865685 Z" id="Path"></path>
                    <path d="M47.373725,3.72865685 C47.4001011,3.72865685 47.4317524,3.72865685 47.4602386,3.72865685 C47.7957427,4.83856334 48.1228064,5.95902027 48.4699159,7.06154145 C49.5756022,7.06154145 50.6907839,7.06154145 51.8017455,7.06154145 C51.8017455,7.08791756 51.8017455,7.12062393 51.8017455,7.14911012 C50.8722515,7.80007239 49.9860144,8.49112633 49.1282635,9.21066647 C49.4300061,10.3226831 49.8172074,11.3545163 50.0915188,12.5002943 C50.0630327,12.5002943 50.0334914,12.5002943 50.0018401,12.5002943 C49.1862909,11.8081853 48.3106042,11.181489 47.4602386,10.5252515 C46.5244144,11.1245166 45.6972598,11.8282311 44.8331786,12.5002943 C44.8068025,12.5002943 44.7762062,12.5002943 44.7445549,12.5002943 C45.057903,11.3756172 45.4039575,10.2910317 45.7563423,9.21066647 C44.8648299,8.48585111 43.9416662,7.8074577 43.0364383,7.10479826 C43.0364383,7.08791756 43.0364383,7.07736711 43.0364383,7.0625965 C44.1473999,7.0625965 45.2573064,7.0625965 46.3672128,7.0625965 C46.7206526,5.97062576 47.0709273,4.87443484 47.373725,3.72865685 Z" id="Path"></path>
                    <path d="M57.9452678,43.0501539 C57.9695338,43.0501539 58.0106806,43.0501539 58.0338915,43.0501539 C58.3662304,44.1621705 58.6932941,45.2815724 59.0393486,46.3840936 C60.1482001,46.3840936 61.2602167,46.3840936 62.3732883,46.3840936 C62.3732883,46.4062495 62.3732883,46.4442311 62.3732883,46.4706072 C61.4437944,47.1236795 60.5586123,47.8115683 59.6966412,48.5311085 C60.0015489,49.6441801 60.3887502,50.667573 60.6651717,51.8091308 C60.6345755,51.8091308 60.6018691,51.8091308 60.5744379,51.8091308 C59.7567787,51.1275722 58.8821471,50.4913806 58.0338915,49.8351431 C57.0991224,50.4354633 56.2698576,51.1370676 55.4026113,51.8091308 C55.3804554,51.8091308 55.346694,51.8091308 55.3287582,51.8091308 C55.6410513,50.6886739 55.9881608,49.6009233 56.325775,48.5311085 C55.4395379,47.8052381 54.512154,47.1257896 53.6185316,46.4252403 C53.6185316,46.4030843 53.6185316,46.3978091 53.6185316,46.3840936 C54.7316032,46.3840936 55.8383446,46.3840936 56.9377006,46.3840936 C57.2890303,45.2900127 57.6435252,44.199097 57.9452678,43.0501539 Z" id="Path"></path>
                    <path d="M18.7514311,53.293578 C18.7799173,53.293578 18.8115686,53.293578 18.8389998,53.293578 C19.1745038,54.4066496 19.5026226,55.5249964 19.8497321,56.6254075 C20.9585836,56.6254075 22.0695451,56.6254075 23.1783965,56.6254075 C23.1783965,56.6475635 23.1783965,56.683435 23.1783965,56.7119212 C22.2541778,57.3639385 21.3658306,58.0528823 20.5059696,58.7713674 C20.8108774,59.8876042 21.1970235,60.9120521 21.47028,62.0514998 C21.4428488,62.0514998 21.4101425,62.0514998 21.3827113,62.0514998 C20.5661071,61.3699413 19.6893654,60.7316395 18.8389998,60.0933378 C17.9084508,60.6862726 17.077076,61.3899871 16.2108847,62.0514998 C16.1813435,62.0514998 16.1518022,62.0514998 16.123316,62.0514998 C16.4345541,60.9310429 16.7816636,59.8475125 17.1319383,58.7713674 C16.2467562,58.045497 15.3193723,57.3713238 14.4141444,56.6686643 C14.4141444,56.6465084 14.4141444,56.6443983 14.4141444,56.6254075 C15.5240509,56.6254075 16.6339574,56.6254075 17.745974,56.6254075 C18.0951936,55.5313267 18.4517986,54.440411 18.7514311,53.293578 Z" id="Path"></path>
                    <path d="M47.373725,53.8094946 C47.4001011,53.8094946 47.4317524,53.8094946 47.4602386,53.8094946 C47.7957427,54.9299515 48.1228064,56.0377479 48.4699159,57.1402691 C49.5756022,57.1402691 50.6907839,57.1402691 51.8017455,57.1402691 C51.8017455,57.1698103 51.8017455,57.2035717 51.8017455,57.2310029 C50.8722515,57.8809101 49.9860144,58.5730191 49.1282635,59.2904492 C49.4300061,60.4035208 49.8172074,61.434299 50.0915188,62.5769118 C50.0630327,62.5769118 50.0334914,62.5769118 50.0018401,62.5769118 C49.1862909,61.8932432 48.3106042,61.2602167 47.4602386,60.6050342 C46.5244144,61.2064094 45.6972598,61.9069588 44.8331786,62.5769118 C44.8068025,62.5769118 44.7762062,62.5769118 44.7445549,62.5769118 C45.057903,61.4564549 45.4039575,60.3718695 45.7563423,59.2904492 C44.8648299,58.5666888 43.9416662,57.8872404 43.0364383,57.1835259 C43.0364383,57.1698103 43.0364383,57.1560948 43.0364383,57.1402691 C44.1473999,57.1402691 45.2573064,57.1402691 46.3672128,57.1402691 C46.7206526,56.0493534 47.0709273,54.9563276 47.373725,53.8094946 Z" id="Path"></path>
                </g>
            </g>
        </g>
    </g>
</svg>