<?xml version="1.0" encoding="UTF-8"?>
<svg width="89px" height="89px" viewBox="0 0 89 89" version="1.1" xmlns="http://www.w3.org/2000/svg" xmlns:xlink="http://www.w3.org/1999/xlink">
    <!-- Generator: Sketch 52.6 (67491) - http://www.bohemiancoding.com/sketch -->
    <title>Artboard</title>
    <desc>Created with Sketch.</desc>
    <g id="Artboard" stroke="none" stroke-width="1" fill="none" fill-rule="evenodd">
        <g id="excel" transform="translate(3.000000, 2.000000)">
            <path d="M43.4534831,0 L49.0597753,0 C49.0597753,2.67 49.0597753,5.33 49.0597753,8 C58.5074157,8 67.9550562,8.02 77.4026966,7.97 C78.9977528,8.04 80.7532584,7.92 82.1406742,8.93 C83.112809,10.41 82.9995506,12.29 83.065618,13.99 C83.018427,31.35 83.0373034,48.7 83.0467416,66.05 C82.9995506,68.96 83.301573,71.93 82.7258427,74.8 C82.3483146,76.88 79.988764,76.93 78.4125843,77 C68.6346067,77.03 58.847191,76.98 49.0597753,77 C49.0597753,80 49.0597753,83 49.0597753,86 L43.1986517,86 C28.8148315,83.23 14.4026966,80.67 0,78 C0,54.67 0,31.34 0,8.01 C14.4876404,5.34 28.9752809,2.71 43.4534831,0 Z" id="path10" fill="#207245"></path>
            <path d="M49.0597753,11 C59.4417978,11 69.8238202,11 80.2058427,11 C80.2058427,32 80.2058427,53 80.2058427,74 C69.8238202,74 59.4417978,74 49.0597753,74 C49.0597753,72 49.0597753,70 49.0597753,68 C51.5797753,68 54.0903371,68 56.6103371,68 C56.6103371,65.67 56.6103371,63.33 56.6103371,61 C54.0903371,61 51.5797753,61 49.0597753,61 C49.0597753,59.67 49.0597753,58.33 49.0597753,57 C51.5797753,57 54.0903371,57 56.6103371,57 C56.6103371,54.67 56.6103371,52.33 56.6103371,50 C54.0903371,50 51.5797753,50 49.0597753,50 C49.0597753,48.67 49.0597753,47.33 49.0597753,46 C51.5797753,46 54.0903371,46 56.6103371,46 C56.6103371,43.67 56.6103371,41.33 56.6103371,39 C54.0903371,39 51.5797753,39 49.0597753,39 C49.0597753,37.67 49.0597753,36.33 49.0597753,35 C51.5797753,35 54.0903371,35 56.6103371,35 C56.6103371,32.67 56.6103371,30.33 56.6103371,28 C54.0903371,28 51.5797753,28 49.0597753,28 C49.0597753,26.67 49.0597753,25.33 49.0597753,24 C51.5797753,24 54.0903371,24 56.6103371,24 C56.6103371,21.67 56.6103371,19.33 56.6103371,17 C54.0903371,17 51.5797753,17 49.0597753,17 C49.0597753,15 49.0597753,13 49.0597753,11 Z" id="path48" fill="#FFFFFF"></path>
            <path d="M60.385618,17 C64.7932584,17 69.1914607,17 73.5991011,17 C73.5991011,19.33 73.5991011,21.67 73.5991011,24 C69.1914607,24 64.7932584,24 60.385618,24 C60.385618,21.67 60.385618,19.33 60.385618,17 Z" id="path58" fill="#207245"></path>
            <path d="M27.9559551,26.37 C30.0889888,26.21 32.2314607,26.07 34.3739326,25.96 C31.8539326,31.43 29.3244944,36.9 26.7573034,42.35 C29.352809,47.95 32.0049438,53.51 34.6098876,59.11 C32.3352809,58.97 30.0701124,58.82 27.7955056,58.65 C26.1910112,54.48 24.2373034,50.45 23.0858427,46.09 C21.8022472,50.15 19.971236,53.98 18.4988764,57.96 C16.4319101,57.93 14.3649438,57.84 12.2979775,57.75 C14.7235955,52.72 17.0642697,47.65 19.5653933,42.65 C17.4417978,37.5 15.1105618,32.45 12.9208989,27.33 C14.9973034,27.2 17.0737079,27.07 19.1501124,26.95 C20.5564045,30.86 22.0948315,34.72 23.2557303,38.73 C24.501573,34.48 26.3608989,30.48 27.9559551,26.37 Z" id="path72" fill="#FFFFFF"></path>
            <path d="M60.385618,28 C64.7932584,28 69.1914607,28 73.5991011,28 C73.5991011,30.33 73.5991011,32.67 73.5991011,35 C69.1914607,35 64.7932584,35 60.385618,35 C60.385618,32.67 60.385618,30.33 60.385618,28 Z" id="path90" fill="#207245"></path>
            <path d="M60.385618,39 C64.7932584,39 69.1914607,39 73.5991011,39 C73.5991011,41.33 73.5991011,43.67 73.5991011,46 C69.1914607,46 64.7932584,46 60.385618,46 C60.385618,43.67 60.385618,41.33 60.385618,39 Z" id="path108" fill="#207245"></path>
            <path d="M60.385618,50 C64.7932584,50 69.1914607,50 73.5991011,50 C73.5991011,52.33 73.5991011,54.67 73.5991011,57 C69.1914607,57 64.7932584,57 60.385618,57 C60.385618,54.67 60.385618,52.33 60.385618,50 Z" id="path114" fill="#207245"></path>
            <path d="M60.385618,61 C64.7932584,61 69.1914607,61 73.5991011,61 C73.5991011,63.33 73.5991011,65.67 73.5991011,68 C69.1914607,68 64.7932584,68 60.385618,68 C60.385618,65.67 60.385618,63.33 60.385618,61 Z" id="path120" fill="#207245"></path>
        </g>
    </g>
</svg>