<?xml version="1.0" encoding="UTF-8"?>
<svg width="90px" height="90px" viewBox="0 0 90 90" version="1.1" xmlns="http://www.w3.org/2000/svg" xmlns:xlink="http://www.w3.org/1999/xlink">
    <!-- Generator: Sketch 52.6 (67491) - http://www.bohemiancoding.com/sketch -->
    <title>excel</title>
    <desc>Created with Sketch.</desc>
    <defs>
        <linearGradient x1="17.3720088%" y1="-6.51027087%" x2="82.6281304%" y2="106.510431%" id="linearGradient-1">
            <stop stop-color="#18884F" offset="0%"></stop>
            <stop stop-color="#117E43" offset="50%"></stop>
            <stop stop-color="#0B6631" offset="100%"></stop>
        </linearGradient>
    </defs>
    <g id="excel" stroke="none" stroke-width="1" fill="none" fill-rule="evenodd">
        <g id="Group-1" transform="translate(10.000000, 13.000000)">
            <path d="M43.8543171,30.9166667 L16.3617886,26.0650407 L16.3617886,61.9135772 C16.3617886,63.5508943 17.6889431,64.8780488 19.3261463,64.8780488 L66.7652033,64.8780488 C68.4025203,64.8780488 69.7296748,63.5508943 69.7296748,61.9135772 L69.7296748,48.7059431 L43.8543171,30.9166667 Z" id="Path" fill="#185C37"></path>
            <path d="M43.8543171,0.189690325 L19.3261463,0.189690325 C17.6889431,0.189690325 16.3617886,1.51686585 16.3617886,3.15402927 L16.3617886,16.3617886 L43.8543171,32.5338943 L58.4090244,37.3855203 L69.7296748,32.5338943 L69.7296748,16.3617886 L43.8543171,0.189690325 Z" id="Path" fill="#21A366"></path>
            <polygon id="Path" fill="#107C41" points="16.3617886 16.3617886 43.8543171 16.3617886 43.8543171 32.5338943 16.3617886 32.5338943"></polygon>
            <path d="M36.0383902,13.1273902 L16.3617886,13.1273902 L16.3617886,53.5575691 L36.0383902,53.5575691 C37.6733171,53.5522764 38.9973984,52.2281951 39.0026911,50.5932683 L39.0026911,16.0916911 C38.9973984,14.4567642 37.6733171,13.1326829 36.0383902,13.1273902 Z" id="Path" fill="#000000" opacity="0.1"></path>
            <path d="M34.4211626,14.744561 L16.3617886,14.744561 L16.3617886,55.1747967 L34.4211626,55.1747967 C36.0560894,55.1695041 37.3801707,53.8454228 37.3855203,52.210439 L37.3855203,17.7089187 C37.3801707,16.0739919 36.0560894,14.7499106 34.4211626,14.744561 Z" id="Path" fill="#000000" opacity="0.2"></path>
            <path d="M34.4211626,14.744561 L16.3617886,14.744561 L16.3617886,51.9403984 L34.4211626,51.9403984 C36.0560894,51.9350488 37.3801707,50.6109675 37.3855203,48.9760407 L37.3855203,17.7089187 C37.3801707,16.0739919 36.0560894,14.7499106 34.4211626,14.744561 Z" id="Path" fill="#000000" opacity="0.2"></path>
            <path d="M32.803935,14.744561 L16.3617886,14.744561 L16.3617886,51.9403984 L32.803935,51.9403984 C34.4389187,51.9350488 35.763,50.6109675 35.7682927,48.9760407 L35.7682927,17.7089187 C35.763,16.0739919 34.4389187,14.7499106 32.803935,14.744561 Z" id="Path" fill="#000000" opacity="0.2"></path>
            <path d="M3.15402927,14.744561 L32.803935,14.744561 C34.4410813,14.744561 35.7682358,16.0717724 35.7682358,17.7089187 L35.7682358,47.358813 C35.7682358,48.9959593 34.4410813,50.3231138 32.803935,50.3231138 L3.15402927,50.3231138 C1.51686585,50.3231707 0.189690325,48.9960163 0.189690325,47.358813 L0.189690325,17.7089187 C0.189690325,16.0717724 1.51686585,14.744561 3.15402927,14.744561 Z" id="Path" fill="url(#linearGradient-1)"></path>
            <path d="M9.37060976,42.1691951 L15.6065285,32.5064065 L9.89293496,22.8969431 L14.4890325,22.8969431 L17.6070488,29.0423171 C17.8949024,29.6261057 18.0922114,30.0595366 18.1989187,30.3457398 L18.2393821,30.3457398 C18.4409024,29.8869268 18.6566504,29.4344309 18.8862276,28.988935 L22.2193089,22.900187 L26.4386016,22.900187 L20.5794309,32.4530244 L26.5874228,42.1691951 L22.0980325,42.1691951 L18.4965041,35.423813 C18.3268537,35.136813 18.1829268,34.8354146 18.0663171,34.5230325 L18.0129919,34.5230325 C17.9074797,34.8290407 17.7674797,35.1220163 17.5957236,35.3963252 L13.8874878,42.1691951 L9.37060976,42.1691951 Z" id="Path" fill="#FFFFFF"></path>
            <path d="M66.7652033,0.189690325 L43.8543171,0.189690325 L43.8543171,16.3617886 L69.7296748,16.3617886 L69.7296748,3.15402927 C69.7296748,1.51686585 68.4025203,0.189690325 66.7652033,0.189690325 Z" id="Path" fill="#33C481"></path>
            <polygon id="Path" fill="#107C41" points="43.8543171 32.5338943 69.7296748 32.5338943 69.7296748 48.7059431 43.8543171 48.7059431"></polygon>
        </g>
    </g>
</svg>