<?xml version="1.0" encoding="UTF-8"?>
<svg width="278px" height="169px" viewBox="0 0 278 169" version="1.1" xmlns="http://www.w3.org/2000/svg" xmlns:xlink="http://www.w3.org/1999/xlink">
    <!-- Generator: Sketch 46.2 (44496) - http://www.bohemiancoding.com/sketch -->
    <title>family_crest</title>
    <desc>Created with Sketch.</desc>
    <defs></defs>
    <g id="Page-1" stroke="none" stroke-width="1" fill="none" fill-rule="evenodd">
        <g id="family_crest">
            <g id="thirteen_strips" transform="translate(5.000000, 0.000000)" stroke-width="13" stroke-linecap="square">
                <path d="M0.5,6.5 L266.5,6.5" id="Line" stroke="#7F1C25"></path>
                <path d="M0.5,19.5 L266.5,19.5" id="Line-Copy" stroke="#228E69"></path>
                <path d="M0.5,32.5 L266.5,32.5" id="Line-Copy-2" stroke="#7F1C25"></path>
                <path d="M0.5,45.5 L266.5,45.5" id="Line-Copy-3" stroke="#228E69"></path>
                <path d="M0.5,58.5 L266.5,58.5" id="Line-Copy-4" stroke="#7F1C25"></path>
                <path d="M0.5,71.5 L266.5,71.5" id="Line-Copy-5" stroke="#228E69"></path>
                <path d="M0.5,84.5 L266.5,84.5" id="Line-Copy-6" stroke="#7F1C25"></path>
                <path d="M0.5,110.5 L266.5,110.5" id="Line-Copy-8" stroke="#7F1C25"></path>
                <path d="M0.5,123.5 L266.5,123.5" id="Line-Copy-9" stroke="#228E69"></path>
                <path d="M0.5,136.5 L266.5,136.5" id="Line-Copy-10" stroke="#7F1C25"></path>
                <path d="M0.5,149.5 L266.5,149.5" id="Line-Copy-11" stroke="#228E69"></path>
                <path d="M0.5,162.5 L266.5,162.5" id="Line-Copy-12" stroke="#7F1C25"></path>
                <path d="M0.5,97.5 L266.5,97.5" id="Line-Copy-7" stroke="#228E69"></path>
            </g>
            <g id="st_andrew_cross" transform="translate(-2.000000, 1.000000)" stroke="#F4F0ED" stroke-width="13" stroke-linecap="square">
                <path d="M0.5,0.5 L281.5,166.5" id="Line-2"></path>
                <path d="M0.5,0.5 L281.5,166.5" id="Line-2" transform="translate(141.000000, 83.500000) scale(-1, 1) translate(-141.000000, -83.500000) "></path>
            </g>
            <g id="crest" transform="translate(123.000000, 63.000000)" fill-rule="nonzero">
                <g id="Group" stroke="#F4F0ED" stroke-width="0.5" fill="#7F1C25">
                    <path d="M16.5,42.7305313 C16.5,42.7305313 33,35.4178165 33,16.83324 L33,3.90798505e-14 L0,3.90798505e-14 L0,16.83324 C0,35.4178165 16.5,42.7305313 16.5,42.7305313 L16.5,42.7305313 Z" id="Shape"></path>
                </g>
                <g id="tree" transform="translate(14.000000, 12.000000)" fill="#F4F0ED">
                    <rect id="Rectangle" x="2.20955506" y="6.00649372" width="1" height="19.7668247"></rect>
                    <g id="path-2-link">
                        <polygon id="path-2" points="1.61755375 8.51528563 0.546358556 8.51528563 1.84790226 5.78803308 0.845960791 5.78803308 1.85131167 3.68218352 1.14641538 3.68218352 2.04500899 1.79907363 1.61563594 1.79907363 2.47459513 0 3.3337674 1.79907363 2.90375508 1.79907363 3.80298796 3.68218352 3.0976655 3.68218352 4.10344256 5.78832386 3.10171417 5.78832386 4.40347097 8.51528563 3.33227578 8.51528563 4.94940335 11.9031969 3.29967326 11.9031969 2.47459513 10.175365 1.64909083 11.9037784 0 11.9037784"></polygon>
                    </g>
                </g>
                <g id="tree-copy" transform="translate(4.000000, 5.000000)" fill="#F4F0ED">
                    <rect id="Rectangle" x="2.20955506" y="6.00649372" width="1" height="19.7668247"></rect>
                    <g id="tree">
                        <polygon id="path-4" points="1.61755375 8.51528563 0.546358556 8.51528563 1.84790226 5.78803308 0.845960791 5.78803308 1.85131167 3.68218352 1.14641538 3.68218352 2.04500899 1.79907363 1.61563594 1.79907363 2.47459513 0 3.3337674 1.79907363 2.90375508 1.79907363 3.80298796 3.68218352 3.0976655 3.68218352 4.10344256 5.78832386 3.10171417 5.78832386 4.40347097 8.51528563 3.33227578 8.51528563 4.94940335 11.9031969 3.29967326 11.9031969 2.47459513 10.175365 1.64909083 11.9037784 0 11.9037784"></polygon>
                    </g>
                </g>
                <g id="tree-copy-2" transform="translate(23.000000, 5.000000)" fill="#F4F0ED">
                    <rect id="Rectangle" x="2.20955506" y="6.00649372" width="1" height="19.7668247"></rect>
                    <g id="tree">
                        <polygon id="path-6" points="1.61755375 8.51528563 0.546358556 8.51528563 1.84790226 5.78803308 0.845960791 5.78803308 1.85131167 3.68218352 1.14641538 3.68218352 2.04500899 1.79907363 1.61563594 1.79907363 2.47459513 0 3.3337674 1.79907363 2.90375508 1.79907363 3.80298796 3.68218352 3.0976655 3.68218352 4.10344256 5.78832386 3.10171417 5.78832386 4.40347097 8.51528563 3.33227578 8.51528563 4.94940335 11.9031969 3.29967326 11.9031969 2.47459513 10.175365 1.64909083 11.9037784 0 11.9037784"></polygon>
                    </g>
                </g>
            </g>
        </g>
    </g>
</svg>