<?xml version="1.0" encoding="UTF-8"?>
<svg width="100px" height="100px" viewBox="0 0 100 100" version="1.1" xmlns="http://www.w3.org/2000/svg" xmlns:xlink="http://www.w3.org/1999/xlink">
    <!-- Generator: Sketch 52.6 (67491) - http://www.bohemiancoding.com/sketch -->
    <title>farm</title>
    <desc>Created with Sketch.</desc>
    <defs>
        <linearGradient x1="50%" y1="0%" x2="50%" y2="100%" id="linearGradient-1">
            <stop stop-color="#F34F4F" offset="0%"></stop>
            <stop stop-color="#E42727" offset="100%"></stop>
        </linearGradient>
    </defs>
    <g id="farm" stroke="none" stroke-width="1" fill="none" fill-rule="evenodd">
        <path d="M69,78 L69,55 L30,55 L30,78 L20,78 L20,47.5172414 L13,47.5172414 L20.0312104,32.6268483 L48.5,26 L76.9687896,32.6268483 L84,47.5172414 L78,47.5172414 L78,78 L69,78 Z M49,41 C51.209139,41 53,39.209139 53,37 C53,34.790861 51.209139,33 49,33 C46.790861,33 45,34.790861 45,37 C45,39.209139 46.790861,41 49,41 Z" id="Combined-Shape" fill="url(#linearGradient-1)"></path>
        <rect id="Rectangle" fill="#FFFFFF" x="-7" y="49" width="111" height="1"></rect>
        <rect id="Rectangle-Copy" fill="#FFFFFF" x="-7" y="55" width="111" height="1"></rect>
        <rect id="Rectangle-Copy-2" fill="#FFFFFF" x="-7" y="58" width="111" height="1"></rect>
        <rect id="Rectangle-Copy-4" fill="#FFFFFF" x="-7" y="61" width="111" height="1"></rect>
        <rect id="Rectangle-Copy-5" fill="#FFFFFF" x="-7" y="64" width="111" height="1"></rect>
        <rect id="Rectangle-Copy-6" fill="#FFFFFF" x="-7" y="67" width="111" height="1"></rect>
        <rect id="Rectangle-Copy-7" fill="#FFFFFF" x="-7" y="70" width="111" height="1"></rect>
        <rect id="Rectangle-Copy-8" fill="#FFFFFF" x="-7" y="73" width="111" height="1"></rect>
        <rect id="Rectangle-Copy-3" fill="#FFFFFF" x="-7" y="52" width="111" height="1"></rect>
    </g>
</svg>