<?xml version="1.0" encoding="UTF-8"?>
<svg width="100px" height="100px" viewBox="0 0 100 100" version="1.1" xmlns="http://www.w3.org/2000/svg" xmlns:xlink="http://www.w3.org/1999/xlink">
    <!-- Generator: Sketch 52.6 (67491) - http://www.bohemiancoding.com/sketch -->
    <title>farm</title>
    <desc>Created with Sketch.</desc>
    <defs>
        <linearGradient x1="50%" y1="73.8656851%" x2="50%" y2="21.1313101%" id="linearGradient-1">
            <stop stop-color="#FCF53C" offset="0%"></stop>
            <stop stop-color="#EDECE4" offset="100%"></stop>
        </linearGradient>
        <linearGradient x1="50%" y1="0%" x2="50%" y2="100%" id="linearGradient-2">
            <stop stop-color="#F34F4F" offset="0%"></stop>
            <stop stop-color="#E42727" offset="100%"></stop>
        </linearGradient>
    </defs>
    <g id="farm" stroke="none" stroke-width="1" fill="none" fill-rule="evenodd">
        <rect id="Rectangle" fill="url(#linearGradient-1)" x="38" y="31" width="21" height="13"></rect>
        <path d="M78,47.5172414 L78,78 L20,78 L20,47.5172414 L13,47.5172414 L20.0312104,32.6268483 L48.5,26 L76.9687896,32.6268483 L84,47.5172414 L78,47.5172414 Z M49,41 C51.209139,41 53,39.209139 53,37 C53,34.790861 51.209139,33 49,33 C46.790861,33 45,34.790861 45,37 C45,39.209139 46.790861,41 49,41 Z" id="Combined-Shape" fill="url(#linearGradient-2)"></path>
        <path d="M62.4315011,60 L48.6025841,67.6654939 L34.773667,60 L62.4315011,60 Z M64,61.417275 L64,76.2004209 L50.6652494,68.808848 L64,61.417275 Z M34.0839722,78 L48.6025841,69.952202 L63.1211959,78 L34.0839722,78 Z M34,75.7598384 L34,61.8578575 L46.5399187,68.808848 L34,75.7598384 Z" id="Combined-Shape" fill="#FFFFFF"></path>
    </g>
</svg>