<?xml version="1.0" encoding="UTF-8"?>
<svg width="100px" height="100px" viewBox="0 0 100 100" version="1.1" xmlns="http://www.w3.org/2000/svg" xmlns:xlink="http://www.w3.org/1999/xlink">
    <!-- Generator: Sketch 52.6 (67491) - http://www.bohemiancoding.com/sketch -->
    <title>farm</title>
    <desc>Created with Sketch.</desc>
    <defs>
        <linearGradient x1="50%" y1="0%" x2="50%" y2="100%" id="linearGradient-1">
            <stop stop-color="#F34F4F" offset="0%"></stop>
            <stop stop-color="#E42727" offset="100%"></stop>
        </linearGradient>
    </defs>
    <g id="farm" stroke="none" stroke-width="1" fill="none" fill-rule="evenodd">
        <path d="M70,76 L70,53 L31,53 L31,76 L22,76 L22,45.5172414 L15,45.5172414 L22.0312104,30.6268483 L50.5,24 L78.9687896,30.6268483 L86,45.5172414 L80,45.5172414 L80,76 L70,76 Z M51,39 C53.209139,39 55,37.209139 55,35 C55,32.790861 53.209139,31 51,31 C48.790861,31 47,32.790861 47,35 C47,37.209139 48.790861,39 51,39 Z" id="Combined-Shape" fill="url(#linearGradient-1)"></path>
    </g>
</svg>