<?xml version="1.0" encoding="UTF-8"?>
<svg width="90px" height="90px" viewBox="0 0 90 90" version="1.1" xmlns="http://www.w3.org/2000/svg" xmlns:xlink="http://www.w3.org/1999/xlink">
    <!-- Generator: Sketch 52.6 (67491) - http://www.bohemiancoding.com/sketch -->
    <title>Fidelity</title>
    <desc>Created with Sketch.</desc>
    <g id="Fidelity" stroke="none" stroke-width="1" fill="none" fill-rule="evenodd">
        <path d="M29.3242697,6.81971639 C18.9354727,10.6753524 9.29638273,19.9931394 5.22654473,30.2748354 C0.942504726,40.3423294 0.942504726,52.8731464 5.11944373,62.8335394 C8.65377673,72.0442254 16.4721497,80.2910024 25.3615327,84.7892444 C26.4325427,85.3247494 27.6106537,85.8602544 28.7887647,86.2886584 L37.9994507,57.6926914 L58.5628427,57.6926914 L54.0646007,54.8009644 L38.6420567,54.8009644 L44.6397127,35.4156834 L34.4651177,51.8021364 L37.5710467,53.9441564 L33.1799057,53.9441564 L29.3242697,60.1560144 L12.8307157,68.8311954 L12.5094127,68.9382964 C12.4023117,68.9382964 12.5094127,68.8311954 12.5094127,68.8311954 L33.1799057,51.2666314 L6.83305973,54.3725604 L6.83305973,54.1583584 L32.3230977,46.6612884 L6.72595873,39.1642184 C6.61885773,39.1642184 6.61885773,39.0571174 6.72595873,38.9500164 L33.0728047,41.7346424 L12.4023117,24.8126844 L12.5094127,24.7055834 L35.7503297,37.4506024 L23.4337147,13.9954834 C23.4337147,13.9954834 23.5408157,13.8883824 23.5408157,13.9954834 L39.8201677,35.0943804 L37.8923497,7.67652439 C37.8923497,7.56942339 37.9994507,7.67652439 38.1065517,7.67652439 L44.9610157,34.0233704 L52.7793887,8.42623139 L52.9935907,8.42623139 L49.6734597,34.7730774 L66.8096197,14.7451904 C66.9167207,14.7451904 66.9167207,14.7451904 66.9167207,14.8522914 L53.8503987,37.9861074 L77.5197197,25.9907954 C77.5197197,25.8836944 77.7339217,25.9907954 77.7339217,25.9907954 L56.6350247,41.9488444 L83.6244767,40.2352284 L83.6244767,40.3423294 L57.3847317,46.8754904 L82.6605677,55.7648734 L82.8747697,55.8719744 C82.8747697,55.8719744 82.8747697,55.9790754 82.7676687,55.9790754 L55.8853177,51.9092374 L76.6629117,69.7951044 C76.6629117,69.9022054 76.6629117,70.0093064 76.5558107,70.0093064 L60.7048627,61.2270244 L72.0575687,80.0768004 L72.0575687,80.1839014 C78.6978307,74.9359524 83.5173757,67.5459834 85.8735977,59.8347114 C89.6221327,48.2678034 87.9085167,35.3085824 81.8037597,25.1339874 C76.3416087,15.7090994 66.9167207,8.64043339 57.0634287,5.74870639 C48.3882477,3.07118139 37.5710467,3.49958539 29.3242697,6.81971639 Z" id="Path" fill="#568200"></path>
    </g>
</svg>