<?xml version="1.0" encoding="UTF-8"?>
<svg width="90px" height="90px" viewBox="0 0 90 90" version="1.1" xmlns="http://www.w3.org/2000/svg" xmlns:xlink="http://www.w3.org/1999/xlink">
    <!-- Generator: Sketch 52.6 (67491) - http://www.bohemiancoding.com/sketch -->
    <title>fidelity</title>
    <desc>Created with Sketch.</desc>
    <g id="fidelity" stroke="none" stroke-width="1" fill="none" fill-rule="evenodd">
        <g transform="translate(9.000000, 10.500000)" fill="#568200" id="Path">
            <path d="M22.8338297,2.35632734 C14.152316,5.57833243 6.09730333,13.3648447 2.69629797,21.9568583 C-0.88370768,30.3698715 -0.88370768,40.841388 2.60679783,49.1649012 C5.56030249,56.8619133 12.0938128,63.7534242 19.5223245,67.5124301 C20.4173259,67.9599308 21.4018274,68.4074315 22.386329,68.7654321 L30.0833411,44.8688944 L47.2673682,44.8688944 L43.5083623,42.4523906 L30.620342,42.4523906 L35.6323499,26.252865 L27.1298365,39.9463866 L29.7253406,41.7363895 L26.0558348,41.7363895 L22.8338297,46.9273976 L9.05080797,54.1769091 L8.78230754,54.2664092 C8.6928074,54.2664092 8.78230754,54.1769091 8.78230754,54.1769091 L26.0558348,39.4988859 L4.03880009,42.09439 L4.03880009,41.9153897 L25.3398337,35.6503799 L3.94929994,29.38537 C3.8597998,29.38537 3.8597998,29.2958698 3.94929994,29.2063697 L25.9663346,31.5333734 L8.6928074,17.3923511 L8.78230754,17.3028509 L28.2038382,27.9533677 L17.9113219,8.35283681 C17.9113219,8.35283681 18.0008221,8.26333667 18.0008221,8.35283681 L31.6048435,25.9843646 L29.993841,3.07232847 C29.993841,2.98282833 30.0833411,3.07232847 30.1728413,3.07232847 L35.9008503,25.0893632 L42.4343606,3.69882946 L42.6133609,3.69882946 L39.8388565,25.7158642 L54.1588791,8.9793378 C54.2483792,8.9793378 54.2483792,8.9793378 54.2483792,9.06883794 L43.329362,28.4008684 L63.1088932,18.3768526 C63.1088932,18.2873525 63.2878935,18.3768526 63.2878935,18.3768526 L45.6563657,31.7123736 L68.2104013,30.2803714 L68.2104013,30.3698715 L46.2828667,35.8293801 L67.4049,43.2578919 L67.5839003,43.347392 C67.5839003,43.347392 67.5839003,43.4368921 67.4944001,43.4368921 L45.0298647,40.0358868 L62.3928921,54.9824103 C62.3928921,55.0719105 62.3928921,55.1614106 62.3033919,55.1614106 L49.0573711,47.8223991 L58.544386,63.5744239 L58.544386,63.663924 C64.0933948,59.2784171 68.1209011,53.1029074 70.0899042,46.6588972 C73.2224092,36.992882 71.7904069,26.1633649 66.6888989,17.6608515 C62.1243917,9.78483907 54.2483792,3.87782974 46.0143663,1.46132593 C38.7648548,-0.776177597 29.7253406,-0.418177032 22.8338297,2.35632734 Z"></path>
        </g>
    </g>
</svg>