<?xml version="1.0" encoding="UTF-8"?>
<svg width="150px" height="150px" viewBox="0 0 150 150" version="1.1" xmlns="http://www.w3.org/2000/svg" xmlns:xlink="http://www.w3.org/1999/xlink">
    <!-- Generator: Sketch 52.6 (67491) - http://www.bohemiancoding.com/sketch -->
    <title>fivepx</title>
    <desc>Created with Sketch.</desc>
    <g id="fivepx" stroke="none" stroke-width="1" fill="none" fill-rule="evenodd">
        <g id="500px" transform="translate(42.000000, 33.000000)" fill="#FFFFFF" fill-rule="nonzero">
            <path d="M65.8355233,69.8191199 L65.8356958,69.8191199 C65.2280354,69.2280961 64.7120064,68.8791601 64.2579837,68.752152 C63.7975881,68.623128 63.3864527,68.7192241 63.0688435,69.0298562 L62.7700084,69.3208321 C59.6402481,72.3737281 55.9958368,74.7705841 51.9378787,76.444704 C47.7385125,78.1771199 43.2763089,79.055592 38.6752804,79.055592 C34.0740799,79.055592 29.6120485,78.1771199 25.4128544,76.444704 C21.355241,74.7707521 17.7110019,72.374064 14.5812416,69.3210001 C11.3204072,66.1405922 8.8632413,62.5862161 7.27812303,58.7564881 C5.73244756,55.0223521 5.22761418,52.2137281 5.06174773,51.290904 C5.04624619,51.2043841 5.03401721,51.1360081 5.0243718,51.086616 C4.81165628,49.999824 3.78614347,49.923888 2.31229179,50.1438 C1.69946436,50.235192 -0.165715015,50.513568 0.0118637027,51.822456 L0.0161696852,51.8523599 C0.509979757,54.88224 1.38219957,57.8531521 2.6090601,60.6822721 C4.58085562,65.2293601 7.4028243,69.3120961 10.9967695,72.8172481 C14.5907147,76.322904 18.7766465,79.0754161 23.4383031,80.9983441 C28.2644483,82.990152 33.3909787,84 38.6752804,84 C43.9568264,84 49.083529,82.9896481 53.9124301,80.9968321 C58.5725366,79.074576 62.7584683,76.3215599 66.3541361,72.814224 C66.3624034,72.80616 66.5587563,72.6161521 66.6662337,72.5019119 C67.0618672,72.081744 67.4061735,71.3465761 65.8355233,69.8191199 Z M38.6265368,8.99992802 C33.5771695,8.99992802 28.205887,9.99415201 24.2595401,11.6592 C23.837726,11.820312 23.5855677,12.150768 23.5301066,12.61512 C23.4782626,13.053096 23.5995191,13.631016 23.9012823,14.382984 C24.1460344,14.992992 24.7960655,16.613352 26.054618,16.145136 C30.0934573,14.642376 34.5582444,13.814808 38.6265368,13.814808 C43.2365215,13.814808 47.7073371,14.69496 51.9151431,16.430736 C55.2584804,17.810352 58.4132153,19.803168 61.8430164,22.702008 C62.0931079,22.91352 62.3585286,23.020704 62.6318723,23.020704 C63.3005055,23.020704 63.9419244,22.379952 64.4905068,21.77952 C65.4063031,20.7774 66.0353211,19.944456 65.1329593,19.11084 C61.8576567,16.084488 58.2685343,13.823712 53.8378505,11.996208 C49.0192839,10.008096 43.9013652,8.99992802 38.6265368,8.99992802 Z M31.742821,50.642928 C31.7488493,51.1995121 32.2710788,51.6875521 32.5830042,51.9792 L32.6810085,52.0714321 C33.2159836,52.584672 33.7256397,52.8449041 34.1955086,52.8449041 C34.584597,52.8449041 34.8243542,52.66548 34.9092681,52.5883679 C35.1448915,52.37484 37.8106392,49.740264 38.0650366,49.488936 L41.0378869,52.3792081 C41.3131253,52.6816081 41.612305,52.8331441 41.9609174,52.842552 C42.4356089,52.842552 42.9530159,52.5672 43.4984976,52.0242239 C44.7813358,50.7465839 44.1393999,50.0576161 43.8290247,49.72464 L40.8169039,46.785648 L43.9582044,43.699992 C44.6469892,42.9728879 44.0388122,42.200256 43.4320132,41.6083921 C42.5510093,40.748904 41.7010082,40.527144 41.156043,41.016864 L38.0326557,44.0687522 L34.873959,40.9869601 C34.7065424,40.8305521 34.4953772,40.7478961 34.2633708,40.7478961 C33.8424179,40.7478961 33.3444742,41.025432 32.7829742,41.5731119 C31.8115445,42.520464 31.603307,43.175328 32.1088294,43.6978081 L35.2683871,46.7701919 L32.1274313,49.8392161 C31.8690723,50.09088 31.7397207,50.3611919 31.742821,50.642928 Z M11.7127683,55.1930401 C11.7317146,55.2439442 12.1778144,56.447328 12.4363456,57.043728 C13.8554252,60.316536 15.8876767,63.2563679 18.4766056,65.7817441 C21.0638121,68.304936 24.0781721,70.2870002 27.4363217,71.672328 C30.9126276,73.106712 34.604577,73.833984 38.4096876,73.833984 C42.214109,73.833984 45.9060584,73.106544 49.3830532,71.6719921 C52.7398249,70.2871681 55.7543572,68.304936 58.3425972,65.7804 C60.930665,63.2563679 62.9627441,60.3160321 64.3828573,57.0415441 C65.8534364,53.6502961 66.5990601,50.0490481 66.5990601,46.338096 C66.5990601,42.626976 65.8534364,39.025728 64.3828573,35.6348159 C62.9630885,32.3604961 60.9308372,29.4201601 58.3425972,26.895624 C55.7552183,24.37176 52.7406863,22.389528 49.3830532,21.004032 C45.9064031,19.569648 42.2144537,18.842376 38.4096876,18.842376 C34.5597946,18.842376 30.7130023,19.589808 27.2849233,21.004032 C24.5447684,22.134672 19.9067085,25.04544 17.1918727,27.776448 L17.1758544,27.7924079 L17.1758544,5.16381601 L56.1467182,5.16348001 C57.5649368,5.14836 57.5649368,3.216696 57.5649368,2.58182399 C57.5649368,1.947288 57.5649368,0.016128 56.1424124,0.000335999999 L14.0045844,0 C12.8574707,0 12.147328,0.93072 12.147328,1.793064 L12.147328,33.6440161 C12.147328,34.6715039 13.4596193,35.4135601 14.6789013,35.6679121 C17.0601096,36.164016 17.6102419,35.4216239 18.1934442,34.6360561 L18.2707796,34.531896 C19.1610846,33.241824 21.943266,30.510648 21.9711687,30.483432 C26.312977,26.2484881 32.1184749,23.916312 38.317884,23.916312 C44.4876679,23.916312 50.2766307,26.2484881 54.6184391,30.483432 C58.9748875,34.732992 61.374181,40.363512 61.374181,46.338096 C61.374181,52.3343521 58.9872887,57.9647042 54.6528868,62.1924241 C50.3739459,66.3660481 44.3962088,68.7597119 38.2527776,68.7597119 C34.0916483,68.7597119 30.0750279,67.6782961 26.6343754,65.6317201 L26.649016,46.2650161 C26.649016,43.682688 27.7980242,40.8755761 29.7222818,38.755752 C31.9224664,36.332352 34.9545671,34.99776 38.260356,34.99776 C41.4617679,34.99776 44.4516698,36.1831679 46.6795852,38.335752 C48.8914824,40.4730481 50.1095585,43.3204799 50.1095585,46.35372 C50.1095585,52.825584 44.8920857,57.895152 38.2315921,57.895152 C36.947548,57.895152 34.6133612,57.34176 34.5174237,57.318912 C33.1725792,56.9283121 32.6004004,58.7494321 32.4121428,59.3496961 C31.6882212,61.658184 32.7760846,62.115816 33.0015456,62.184192 C35.1448915,62.833008 36.5503642,62.9559841 38.3940138,62.9559841 C47.7967294,62.9559841 55.4462211,55.490904 55.4462211,46.3154161 C55.4462211,37.2135119 47.8013797,29.8084081 38.4045204,29.8084081 C33.802803,29.8084081 29.4797687,31.524192 26.2320245,34.6395841 C23.1391234,37.606632 21.3650586,41.5626959 21.3650586,45.4925519 L21.3633362,45.59016 C21.3483514,46.080216 21.3385338,57.6901921 21.3356057,61.5002639 L21.3180373,61.48128 C19.5506899,59.5724639 17.8038389,56.6506079 16.6457018,53.6654161 C16.191679,52.4954639 15.1661663,52.7026081 13.7667219,53.122944 C13.1556169,53.306568 11.295777,53.8653361 11.7070844,55.1767439 L11.7127683,55.1930401 Z" id="Shape"></path>
        </g>
    </g>
</svg>