<?xml version="1.0" encoding="UTF-8"?>
<svg width="150px" height="150px" viewBox="0 0 100 100" version="1.1" xmlns="http://www.w3.org/2000/svg" xmlns:xlink="http://www.w3.org/1999/xlink">
    <!-- Generator: Sketch 52.6 (67491) - http://www.bohemiancoding.com/sketch -->
    <title>Fivehundred</title>
    <desc>Created with Sketch.</desc>
    <g id="Fivehundred" stroke="none" stroke-width="1" fill="none" fill-rule="evenodd">
        <g id="five" transform="translate(20.610779, 16.500000)" fill="#FFFFFF" fill-rule="nonzero" stroke="#000099" stroke-width="1.5">
            <path d="M51.950951,55.0944155 L51.9510871,55.0944155 C51.471581,54.6280374 51.0643815,54.3526913 50.7061112,54.2524689 C50.342812,54.1506558 50.0183842,54.2264854 49.7677581,54.4716059 L49.5319467,54.7012156 C47.0622462,57.1102623 44.1864335,59.0016264 40.9842902,60.322678 C37.6705614,61.6897311 34.1494271,62.3829353 30.5187458,62.3829353 C26.8879287,62.3829353 23.3669303,61.6897311 20.0533373,60.322678 C16.851466,59.001759 13.9757891,57.1105273 11.5060887,54.7013482 C8.93295732,52.1916815 6.9940025,49.3869158 5.74318231,46.3648693 C4.52348652,43.4182547 4.12512143,41.2019635 3.99423587,40.4737611 C3.98200357,40.4054881 3.97235365,40.3515324 3.96474244,40.312557 C3.79688817,39.4549671 2.98765384,39.3950459 1.82463435,39.5685789 C1.34105093,39.6406965 -0.13076607,39.8603636 0.00936167295,40.8932099 L0.0127595329,40.9168071 C0.402426107,43.3076919 1.09069661,45.652045 2.05881486,47.8845096 C3.61476288,51.4726264 5.84158435,54.694322 8.67757413,57.4602449 C11.5135639,60.2265654 14.8166916,62.3985785 18.4952147,63.9159651 C22.3035361,65.4877049 26.3488921,66.2845781 30.5187458,66.2845781 C34.6864249,66.2845781 38.7319168,65.4873073 42.5424129,63.9147719 C46.2197128,62.3979156 49.5228404,60.2255047 52.3601895,57.4578585 C52.3667132,57.4514952 52.5216557,57.3015596 52.6064664,57.2114124 C52.9186616,56.879857 53.1903544,56.2997345 51.950951,55.0944155 Z M30.4802821,7.10186228 C26.4958156,7.10186228 22.2573252,7.88640654 19.1432545,9.20029944 C18.8104001,9.32743326 18.6114215,9.58819679 18.567657,9.95461794 C18.5267468,10.3002257 18.6224306,10.7562636 18.8605525,11.3496432 C19.0536869,11.8310018 19.5666279,13.1096313 20.5597543,12.740161 C23.746811,11.5543299 27.2699839,10.9012943 30.4802821,10.9012943 C34.1180308,10.9012943 37.6459609,11.5958241 40.9663495,12.9655286 C43.604584,14.0541865 46.093992,15.6267219 48.8004554,17.9142026 C48.9978031,18.0811072 49.2072471,18.1656863 49.4229432,18.1656863 C49.9505631,18.1656863 50.4567081,17.6600676 50.8895956,17.1862654 C51.6122524,16.3954904 52.1086119,15.7382125 51.3965563,15.0804044 C48.8120081,12.6923036 45.979824,10.9083204 42.483562,9.46623317 C38.6812209,7.89740977 34.6426604,7.10186228 30.4802821,7.10186228 Z M25.0483274,39.9624419 C25.0530843,40.4016436 25.4651767,40.7867569 25.7113177,41.0168969 L25.7886531,41.0896775 C26.2108031,41.4946762 26.6129738,41.7000259 26.9837483,41.7000259 C27.2907788,41.7000259 27.4799717,41.5584419 27.5469775,41.4975926 C27.7329084,41.3290973 29.8364556,39.2501478 30.0372011,39.0518243 L32.3830836,41.3325442 C32.6002748,41.5711686 32.8363581,41.690746 33.1114489,41.6981698 C33.486029,41.6981698 33.8943159,41.480889 34.3247567,41.0524254 C35.337047,40.0442369 34.830494,39.500571 34.5855763,39.2378188 L32.2087054,36.918654 L34.6875123,34.4837563 C35.2310338,33.909997 34.7511201,33.3003115 34.2722937,32.8332704 C33.5770917,32.1550465 32.906354,31.9800553 32.4763208,32.3664943 L30.0116492,34.7747458 L27.519115,32.3428971 C27.3870062,32.2194752 27.2203753,32.1542512 27.0372985,32.1542512 C26.7051237,32.1542512 26.3121953,32.3732554 25.8691144,32.8054307 C25.1025572,33.5529883 24.9382366,34.0697429 25.3371454,34.482033 L27.830359,36.9064576 L25.3518242,39.3282311 C25.1479525,39.5268196 25.0458809,39.7401233 25.0483274,39.9624419 Z M9.2425703,43.552945 C9.25752086,43.5931135 9.60953916,44.5427062 9.81354668,45.0133267 C10.9333454,47.5959064 12.5369994,49.915734 14.5799287,51.9085137 C16.6214988,53.8995698 19.0001367,55.4636209 21.6500596,56.556786 C24.39322,57.6886614 27.3065451,58.2625533 30.3091659,58.2625533 C33.3112429,58.2625533 36.224568,57.6885289 38.968272,56.5565209 C41.6171076,55.4637534 43.9958815,53.8995698 46.0382671,51.9074531 C48.0805169,49.915734 49.6840349,47.5955088 50.8046492,45.0116034 C51.9650863,42.3355624 52.5534595,39.49381 52.5534595,36.5654898 C52.5534595,33.6370371 51.9650863,30.7952847 50.8046492,28.1195088 C49.6843066,25.5357361 48.0806528,23.2155107 46.0382671,21.2233939 C43.996561,19.2318075 41.6177874,17.667624 38.968272,16.5743262 C36.22484,15.4424507 33.3115149,14.8685589 30.3091659,14.8685589 C27.2712072,14.8685589 24.2356952,15.458359 21.5305908,16.5743262 C19.3683288,17.4665166 15.7084259,19.7634098 13.5661432,21.918454 L13.5535031,21.931048 L13.5535031,4.07477816 L44.3054944,4.07451302 C45.4246137,4.06258179 45.4246137,2.53830163 45.4246137,2.03732278 C45.4246137,1.53660909 45.4246137,0.012726639 44.3020967,0.000265138312 L11.0510472,0 C10.1458574,0 9.58548228,0.734433125 9.58548228,1.4149106 L9.58548228,26.5485644 C9.58548228,27.3593572 10.6210141,27.9449154 11.5831521,28.1456251 C13.4621687,28.5371017 13.8962792,27.9512785 14.3564854,27.3313853 L14.4175109,27.2491923 C15.1200525,26.2311938 17.3154777,24.076017 17.3374958,24.0545408 C20.7636259,20.7127376 25.3447566,18.8724125 30.2367235,18.8724125 C35.1053131,18.8724125 39.6733959,20.7127376 43.0995261,24.0545408 C46.5372088,27.4078776 48.4304964,31.8509329 48.4304964,36.5654898 C48.4304964,41.2971482 46.5469946,45.740071 43.1267088,49.0761737 C39.7501875,52.3695893 35.0331425,54.2584344 30.1853479,54.2584344 C26.901792,54.2584344 23.7322683,53.4050869 21.0172421,51.7901295 L21.028795,36.5078223 C21.028795,34.4701017 21.9354798,32.2550038 23.4539156,30.5822461 C25.1900859,28.669936 27.582723,27.6168066 30.191328,27.6168066 C32.717569,27.6168066 35.0769069,28.5522145 36.8349597,30.2508232 C38.5803724,31.9373681 39.5415589,34.1842825 39.5415589,36.5778187 C39.5415589,41.6847803 35.42444,45.6851872 30.1686304,45.6851872 C29.1553885,45.6851872 27.3134767,45.2485044 27.2377722,45.230475 C26.1765526,44.9222518 25.7250451,46.3593014 25.5764906,46.832971 C25.0052425,48.6546037 25.8636778,49.0157221 26.0415896,49.0696777 C27.7329084,49.5816598 28.8419699,49.6787005 30.2967977,49.6787005 C37.7165005,49.6787005 43.7527306,43.78799 43.7527306,36.547593 C43.7527306,29.3652611 37.7201701,23.521878 30.3050885,23.521878 C26.6738635,23.521878 23.262548,24.8758067 20.6997461,27.3341693 C18.2591313,29.675473 16.859213,32.7972115 16.859213,35.8982692 L16.8578539,35.9752919 C16.8460294,36.3619961 16.8382823,45.5234529 16.8359717,48.5299886 L16.8221084,48.5150084 C15.4274909,47.0087576 14.049047,44.7031148 13.1351586,42.3474936 C12.7768882,41.4242819 11.967654,41.5877398 10.8633494,41.9194277 C10.3811252,42.0643258 8.91352158,42.5052509 9.23808512,43.5400856 L9.2425703,43.552945 Z" id="Shape"></path>
        </g>
    </g>
</svg>