<?xml version="1.0" encoding="UTF-8"?>
<svg width="150px" height="150px" viewBox="0 0 150 150" version="1.1" xmlns="http://www.w3.org/2000/svg" xmlns:xlink="http://www.w3.org/1999/xlink">
    <!-- Generator: Sketch 52.6 (67491) - http://www.bohemiancoding.com/sketch -->
    <title>five_px</title>
    <desc>Created with Sketch.</desc>
    <g id="five_px" stroke="none" stroke-width="1" fill="none" fill-rule="evenodd">
        <g id="500px" transform="translate(21.000000, 11.000000)" fill="#FFFFFF" fill-rule="nonzero">
            <path d="M97.2793553,106.39104 L97.2796102,106.39104 C96.381724,105.490432 95.6192333,104.95872 94.948364,104.765184 C94.268078,104.568576 93.6605794,104.715008 93.1912762,105.188352 L92.7497139,105.631744 C88.1251427,110.283776 82.740117,113.936128 76.7440298,116.487168 C70.5389961,119.12704 63.9455908,120.465664 57.1470561,120.465664 C50.3482673,120.465664 43.7551165,119.12704 37.5503371,116.487168 C31.5547591,113.936384 26.1699879,110.284288 21.5454167,105.632 C16.7271688,100.785664 13.0964312,95.3694721 10.7542415,89.5336961 C8.47033297,83.8435842 7.72438514,79.5637762 7.47929888,78.1575681 C7.45639362,78.0257282 7.43832394,77.9215361 7.42407177,77.846272 C7.10976077,76.190208 5.59445079,76.074496 3.41666996,76.4096001 C2.51114883,76.548864 -0.244862485,76.9730561 0.0175299488,78.967552 L0.02389252,79.0131199 C0.753552178,83.63008 2.04235459,88.1571842 3.85517836,92.4682242 C6.76872695,99.3971202 10.9385016,105.618432 16.248958,110.959616 C21.5594143,116.301568 27.744597,120.495872 34.6327165,123.426048 C41.7638863,126.461184 49.3389088,128 57.1470561,128 C64.9511316,128 72.5264085,126.460416 79.6616504,123.423744 C86.5474794,120.494592 92.7326621,116.29952 98.0456637,110.955008 C98.0578796,110.94272 98.3480131,110.653184 98.5068229,110.479104 C99.0914158,109.838848 99.6001669,108.718592 97.2793553,106.39104 Z M57.075032,13.714176 C49.6140265,13.714176 41.6773554,15.229184 35.8461861,17.7664 C35.2229086,18.011904 34.8503164,18.515456 34.7683665,19.22304 C34.6917612,19.890432 34.8709312,20.771072 35.3168201,21.916928 C35.6784687,22.846464 36.6389624,25.315584 38.4986147,24.602112 C44.4664519,22.312192 51.0636746,21.051136 57.075032,21.051136 C63.8868005,21.051136 70.492931,22.39232 76.7104353,25.037312 C81.6505904,27.139584 86.3120644,30.176256 91.3799795,34.593536 C91.7495177,34.91584 92.1417064,35.079168 92.5456024,35.079168 C93.5335827,35.079168 94.481351,34.102784 95.2919429,33.18784 C96.6451344,31.6608 97.5745789,30.391552 96.2412384,29.12128 C91.4016121,24.509696 86.0982821,21.064704 79.5514508,18.279936 C72.4314791,15.250432 64.8691815,13.714176 57.075032,13.714176 Z M46.9035714,77.170176 C46.9124788,78.0183041 47.6841314,78.7619842 48.145036,79.2064 L48.2898483,79.3469441 C49.080334,80.129024 49.8334079,80.5255682 50.5276919,80.5255682 C51.1026135,80.5255682 51.4568815,80.25216 51.5823513,80.1346559 C51.9305114,79.80928 55.869452,75.7946879 56.2453526,75.411712 L60.6380717,79.8159361 C61.0447672,80.2767362 61.4868387,80.5076482 62.0019526,80.521984 C62.7033624,80.521984 63.4678891,80.1024 64.2738995,79.2750079 C66.1694365,77.3281279 65.2209044,76.2782721 64.7622903,75.77088 L60.3115446,71.2924159 L64.9531677,66.590464 C65.9709243,65.4824959 65.0722747,64.305152 64.1756613,63.4032641 C62.8738795,62.093568 61.6179076,61.755648 60.8126606,62.5018881 L56.1975062,67.1523842 L51.5301783,62.4563202 C51.2828015,62.2179842 50.9707813,62.0920322 50.6279658,62.0920322 C50.0059607,62.0920322 49.2701932,62.5149441 48.4405141,63.3495039 C47.005118,64.7930879 46.6974237,65.790976 47.4443897,66.5871361 L52.1129899,71.2688639 L47.4718762,75.9454721 C47.0901217,76.32896 46.8989902,76.7408639 46.9035714,77.170176 Z M17.3069263,84.1036801 C17.3349216,84.1812482 17.994084,86.014976 18.3760927,86.923776 C20.4729417,91.910912 23.4758208,96.3906559 27.301253,100.238848 C31.1241403,104.083712 35.5781946,107.104 40.5402365,109.214976 C45.6768676,111.400704 51.1321361,112.508928 56.754613,112.508928 C62.3760715,112.508928 67.8313401,111.400448 72.968989,109.214464 C77.9289951,107.104256 82.383304,104.083712 86.2077183,100.2368 C90.0318781,96.3906559 93.0345025,91.9101441 95.1328787,86.9204481 C97.3058239,81.7528321 98.4075664,76.2652161 98.4075664,70.610432 C98.4075664,64.955392 97.3058239,59.467776 95.1328787,54.3006719 C93.0350114,49.3112322 90.0321326,44.8307201 86.2077183,40.9838081 C82.3845763,37.13792 77.9302678,34.117376 72.968989,32.006144 C67.8318494,29.820416 62.3765809,28.712192 56.754613,28.712192 C51.0659652,28.712192 45.3818989,29.851136 40.3165284,32.006144 C36.2676428,33.729024 29.4143902,38.16448 25.4029163,42.326016 L25.3792475,42.3503359 L25.3792475,7.86867201 L82.9630613,7.86816001 C85.0586379,7.84512 85.0586379,4.901632 85.0586379,3.93420799 C85.0586379,2.967296 85.0586379,0.024576 82.9566989,0.000511999999 L20.6933411,0 C18.9983522,0 17.9490369,1.41824 17.9490369,2.732288 L17.9490369,51.2670721 C17.9490369,52.8327679 19.8880941,53.9635201 21.6897198,54.3511041 C25.2082216,55.107072 26.0211037,53.9758078 26.8828503,52.7787521 L26.9971221,52.620032 C28.3126473,50.654208 32.4236318,46.4924161 32.4648613,46.450944 C38.880369,39.9976962 47.4586421,36.443904 56.618963,36.443904 C65.7355093,36.443904 74.2893499,39.9976962 80.7048578,46.450944 C87.141998,52.926464 90.6872227,61.506304 90.6872227,70.610432 C90.6872227,79.7475842 87.1603222,88.3271682 80.7557582,94.7694081 C74.4331439,101.129216 65.6003683,104.776704 56.5227609,104.776704 C50.3742266,104.776704 44.4392203,103.128832 39.3552712,100.01024 L39.3769042,70.4990722 C39.3769042,66.564096 41.0746924,62.2865921 43.9179985,59.056384 C47.1690175,55.363584 51.6492857,53.32992 56.5339589,53.32992 C61.2644034,53.32992 65.682318,55.1362559 68.9743125,58.4163841 C72.2426382,61.6732161 74.042482,66.0121599 74.042482,70.63424 C74.042482,80.4961279 66.3330819,88.221184 56.491457,88.221184 C54.594138,88.221184 51.1451158,87.3779199 51.0033575,87.343104 C49.0161991,86.7479041 48.1707409,89.5229441 47.8925692,90.4376321 C46.822894,93.955328 48.4303339,94.6526719 48.7634778,94.756864 C51.9305114,95.7455359 54.0072546,95.9329281 56.7314532,95.9329281 C70.6250181,95.9329281 81.9279983,84.557568 81.9279983,70.5758721 C81.9279983,56.7063039 70.6318894,45.4223362 56.7469778,45.4223362 C49.9474253,45.4223362 43.5596583,48.0368639 38.7607526,52.7841281 C34.1906451,57.305344 31.5692657,63.3336319 31.5692657,69.3219839 L31.5667207,69.47072 C31.544579,70.217472 31.5300723,87.9088641 31.5257458,93.7146879 L31.4997865,93.6857599 C28.8883328,90.7770879 26.3071649,86.3247359 24.5958878,81.7758722 C23.9250183,79.9930879 22.4097083,80.3087361 20.3418727,80.949248 C19.4388966,81.2290561 16.6907749,82.0805121 17.2985277,84.0788479 L17.3069263,84.1036801 Z" id="Shape"></path>
        </g>
    </g>
</svg>