<?xml version="1.0" encoding="UTF-8"?>
<svg width="80px" height="80px" viewBox="0 0 80 80" version="1.1" xmlns="http://www.w3.org/2000/svg" xmlns:xlink="http://www.w3.org/1999/xlink">
    <!-- Generator: Sketch 52.6 (67491) - http://www.bohemiancoding.com/sketch -->
    <title>forest</title>
    <desc>Created with Sketch.</desc>
    <g id="forest" stroke="none" stroke-width="1" fill="none" fill-rule="evenodd">
        <rect id="Rectangle" stroke="#5042D3" stroke-width="2" fill="#5042D3" x="7" y="9" width="65" height="61"></rect>
        <g id="Group-2" transform="translate(11.000000, 29.000000)">
            <g id="Group">
                <polygon id="Triangle-Copy-2" fill="#FFFFFF" points="7.69799805 8.39781605 15.3959961 18.5287751 0 18.5287751"></polygon>
                <polygon id="Triangle-Copy-3" fill="#FFFFFF" points="7.69799805 4.19890803 13.9963601 12.9302311 1.39963601 12.9302311"></polygon>
                <polygon id="Triangle-Copy-4" fill="#FFFFFF" points="7.69799805 9.76996262e-15 12.5967241 7.33168706 2.79927202 7.33168706"></polygon>
                <path d="M7.69799805,2 L8,30" id="Line" stroke="#FFFFFF" stroke-linecap="square"></path>
            </g>
        </g>
        <g id="Group-2-Copy" transform="translate(32.000000, 29.000000)" fill="#FFFFFF" stroke="#FFFFFF">
            <g id="Group">
                <polygon id="Triangle-Copy-2" points="7.69799805 8.39781605 15.3959961 18.5287751 0 18.5287751"></polygon>
                <polygon id="Triangle-Copy-3" points="7.69799805 4.19890803 13.9963601 12.9302311 1.39963601 12.9302311"></polygon>
                <polygon id="Triangle-Copy-4" points="7.69799805 9.76996262e-15 12.5967241 7.33168706 2.79927202 7.33168706"></polygon>
                <path d="M7.69799805,2 L8,30" id="Line" stroke-linecap="square"></path>
            </g>
        </g>
        <g id="Group-2-Copy-2" transform="translate(6.000000, 29.000000)">
            <g id="Group">
                <polygon id="Triangle-Copy-2" fill="#FFFFFF" points="54.697998 8.39781605 62.3959961 18.5287751 47 18.5287751"></polygon>
                <polygon id="Triangle-Copy-3" fill="#FFFFFF" points="54.697998 4.19890803 60.9963601 12.9302311 48.399636 12.9302311"></polygon>
                <polygon id="Triangle-Copy-4" fill="#FFFFFF" points="54.697998 1.42108547e-14 59.5967241 7.33168706 49.799272 7.33168706"></polygon>
                <path d="M54.697998,2 L55,30" id="Line" stroke="#FFFFFF" stroke-linecap="square"></path>
                <rect id="Rectangle" stroke="#000000" fill="#000000" x="0.5" y="29.5" width="66" height="12"></rect>
            </g>
        </g>
    </g>
</svg>