<?xml version="1.0" encoding="UTF-8"?>
<svg width="100px" height="100px" viewBox="0 0 100 100" version="1.1" xmlns="http://www.w3.org/2000/svg" xmlns:xlink="http://www.w3.org/1999/xlink">
    <!-- Generator: Sketch 52.6 (67491) - http://www.bohemiancoding.com/sketch -->
    <title>forest</title>
    <desc>Created with Sketch.</desc>
    <defs>
        <linearGradient x1="50%" y1="35.0067139%" x2="50%" y2="119.781494%" id="linearGradient-1">
            <stop stop-color="#3E6617" offset="0%"></stop>
            <stop stop-color="#E8F81C" offset="100%"></stop>
        </linearGradient>
    </defs>
    <g id="forest" stroke="none" stroke-width="1" fill="none" fill-rule="evenodd">
        <g id="Group" transform="translate(17.000000, 11.000000)">
            <rect id="Rectangle" fill="#8F753E" x="31" y="61" width="6" height="18"></rect>
            <path d="M63.3359375,57 L3.6640625,57 L5.234375,54 L61.765625,54 L63.3359375,57 Z M64.90625,60 L67,64 L0,64 L2.09375,60 L64.90625,60 Z M60.1953125,51 L6.8046875,51 L8.375,48 L58.625,48 L60.1953125,51 Z M57.0546875,45 L9.9453125,45 L11.515625,42 L55.484375,42 L57.0546875,45 Z M53.9140625,39 L13.0859375,39 L14.65625,36 L52.34375,36 L53.9140625,39 Z M50.7734375,33 L16.2265625,33 L17.796875,30 L49.203125,30 L50.7734375,33 Z M47.6328125,27 L19.3671875,27 L20.9375,24 L46.0625,24 L47.6328125,27 Z M44.4921875,21 L22.5078125,21 L24.078125,18 L42.921875,18 L44.4921875,21 Z M41.3515625,15 L25.6484375,15 L27.21875,12 L39.78125,12 L41.3515625,15 Z M38.2109375,9 L28.7890625,9 L33.5,0 L38.2109375,9 Z" id="Combined-Shape" fill="url(#linearGradient-1)"></path>
        </g>
    </g>
</svg>