<?xml version="1.0" encoding="UTF-8"?>
<svg width="343px" height="335px" viewBox="0 0 343 335" version="1.1" xmlns="http://www.w3.org/2000/svg" xmlns:xlink="http://www.w3.org/1999/xlink">
    <!-- Generator: Sketch 52.6 (67491) - http://www.bohemiancoding.com/sketch -->
    <title>githubsqr</title>
    <desc>Created with Sketch.</desc>
    <g id="Page-1" stroke="none" stroke-width="1" fill="none" fill-rule="evenodd">
        <g id="githubsqr" fill="#000000" fill-rule="nonzero">
            <path d="M227.060491,333.972991 C218.304241,335.536607 215.072768,330.116071 215.072768,325.633705 C215.072768,320.004687 215.28125,291.234152 215.28125,267.988393 C215.28125,251.726786 209.860714,241.40692 203.502009,235.986384 C242.071205,231.7125 282.725223,226.396205 282.725223,159.786161 C282.725223,140.814286 275.949554,131.328348 264.9,119.132143 C266.672098,114.649777 272.613839,96.1991071 263.127902,72.2236607 C248.638393,67.7412946 215.489732,90.8828125 215.489732,90.8828125 C201.729911,87.0258929 186.823438,85.0453125 172.125446,85.0453125 C157.427455,85.0453125 142.520982,87.0258929 128.761161,90.8828125 C128.761161,90.8828125 95.6125,67.7412946 81.1229911,72.2236607 C71.6370536,96.0948661 77.4745536,114.545536 79.3508929,119.132143 C68.3013393,131.328348 63.0892857,140.814286 63.0892857,159.786161 C63.0892857,226.083482 101.971205,231.7125 140.540402,235.986384 C135.53683,240.46875 131.054464,248.182589 129.490848,259.232143 C119.587946,263.714509 94.2573661,271.428348 79.1424107,244.742634 C69.6564732,228.272545 52.5609375,226.917411 52.5609375,226.917411 C35.6738839,226.708929 51.4142857,237.55 51.4142857,237.55 C62.6723214,242.762054 70.5946429,262.776339 70.5946429,262.776339 C80.7060268,293.735937 129.073884,283.31183 129.073884,283.31183 C129.073884,297.801339 129.282366,321.359821 129.282366,325.633705 C129.282366,330.116071 126.155134,335.536607 117.294643,333.972991 C48.4955357,310.935714 0.336160714,245.472321 0.336160714,168.959375 C0.336160714,73.2660714 73.5133929,0.610044643 169.206696,0.610044643 C264.9,0.610044643 342.455357,73.2660714 342.455357,168.959375 C342.559598,245.472321 295.859598,311.039955 227.060491,333.972991 Z M124.8,270.281696 C122.81942,270.698661 120.94308,269.864732 120.734598,268.509598 C120.526116,266.945982 121.88125,265.590848 123.86183,265.173884 C125.842411,264.965402 127.71875,265.79933 127.927232,267.154464 C128.239955,268.509598 126.884821,269.864732 124.8,270.281696 Z M114.897098,269.343527 C114.897098,270.698661 113.333482,271.845312 111.248661,271.845312 C108.955357,272.053795 107.391741,270.907143 107.391741,269.343527 C107.391741,267.988393 108.955357,266.841741 111.040179,266.841741 C113.020759,266.633259 114.897098,267.779911 114.897098,269.343527 Z M100.616071,268.196875 C100.199107,269.552009 98.1142857,270.177455 96.3421875,269.552009 C94.3616071,269.135045 93.0064732,267.571429 93.4234375,266.216295 C93.8404018,264.861161 95.9252232,264.235714 97.6973214,264.652679 C99.7821429,265.278125 101.137277,266.841741 100.616071,268.196875 Z M87.7944196,262.567857 C86.85625,263.714509 84.8756696,263.506027 83.3120536,261.942411 C81.7484375,260.587277 81.3314732,258.606696 82.3738839,257.668527 C83.3120536,256.521875 85.2926339,256.730357 86.85625,258.293973 C88.2113839,259.649107 88.7325893,261.733929 87.7944196,262.567857 Z M78.3084821,253.08192 C77.3703125,253.707366 75.5982143,253.08192 74.4515625,251.518304 C73.3049107,249.954687 73.3049107,248.182589 74.4515625,247.452902 C75.5982143,246.514732 77.3703125,247.24442 78.3084821,248.808036 C79.4551339,250.371652 79.4551339,252.247991 78.3084821,253.08192 Z M71.5328125,242.970536 C70.5946429,243.908705 69.0310268,243.3875 67.884375,242.345089 C66.7377232,240.989955 66.5292411,239.426339 67.4674107,238.696652 C68.4055804,237.758482 69.9691964,238.279688 71.1158482,239.322098 C72.2625,240.677232 72.4709821,242.240848 71.5328125,242.970536 Z M64.5486607,235.256696 C64.1316964,236.194866 62.7765625,236.403348 61.6299107,235.673661 C60.2747768,235.048214 59.6493304,233.901562 60.0662946,232.963393 C60.4832589,232.337946 61.6299107,232.025223 62.9850446,232.546429 C64.3401786,233.276116 64.965625,234.422768 64.5486607,235.256696 Z" id="Shape"></path>
        </g>
    </g>
</svg>