<?xml version="1.0" encoding="utf-8"?>
<!DOCTYPE svg PUBLIC "-//W3C//DTD SVG 1.1//EN" "http://www.w3.org/Graphics/SVG/1.1/DTD/svg11.dtd">
<svg version="1.1" id="Layer_1" xmlns="http://www.w3.org/2000/svg" xmlns:xlink="http://www.w3.org/1999/xlink" x="0px" y="0px"
	 viewBox="0 0 1629.0995 1611.8289" enable-background="new 0 0 1629.0995 1611.8289" xml:space="preserve">
<g>
	<path fill="none" stroke="#000000" stroke-miterlimit="10" d="M14.5497,1596.7352
		c533.3333-524.4279,1066.6667-1048.8557,1600-1573.2836c0,521.6418,0,1043.2837,0,1564.9257
		c-533.3333-524.428-1066.6666-1048.8557-1600-1573.2837C14.5497,542.3075,14.5497,1069.5214,14.5497,1596.7352z"/>
	<path fill="none" stroke="#000000" stroke-miterlimit="10" d="M14.5497,90.4099
		c533.3333,474.4824,1066.6667,948.9647,1600,1423.447"/>
	<path fill="none" stroke="#000000" stroke-miterlimit="10" d="M14.5497,165.7262
		c533.3333,424.5369,1066.6667,849.0737,1600,1273.6105"/>
	<path fill="none" stroke="#000000" stroke-miterlimit="10" d="M14.5497,241.0424
		c533.3333,374.5913,1066.6667,749.1826,1600,1123.7739"/>
	<path fill="none" stroke="#000000" stroke-miterlimit="10" d="M14.5497,316.3587
		c533.3333,324.6458,1066.6667,649.2916,1600,973.9374"/>
	<path fill="none" stroke="#000000" stroke-miterlimit="10" d="M14.5497,391.675
		c533.3333,274.7003,1066.6667,549.4006,1600,824.1009"/>
	<path fill="none" stroke="#000000" stroke-miterlimit="10" d="M14.5497,466.9913
		c533.3333,224.7548,1066.6667,449.5096,1600,674.2643"/>
	<path fill="none" stroke="#000000" stroke-miterlimit="10" d="M14.5497,542.3075
		c533.3333,174.8093,1066.6667,349.6186,1600,524.4279"/>
	<path fill="none" stroke="#000000" stroke-miterlimit="10" d="M14.5497,617.6238
		c533.3333,124.8638,1066.6667,249.7275,1600,374.5914"/>
	<path fill="none" stroke="#000000" stroke-miterlimit="10" d="M14.5497,692.9401
		c533.3333,74.9183,1066.6667,149.8365,1600,224.7548"/>
	<path fill="none" stroke="#000000" stroke-miterlimit="10" d="M14.5497,768.2563c533.3333,24.9727,1066.6667,49.9455,1600,74.9182"
		/>
	<path fill="none" stroke="#000000" stroke-miterlimit="10" d="M14.5497,843.5726c533.3333-24.9727,1066.6667-49.9455,1600-74.9183"
		/>
	<path fill="none" stroke="#000000" stroke-miterlimit="10" d="M14.5497,918.8889
		c533.3333-74.9183,1066.6667-149.8365,1600-224.7548"/>
	<path fill="none" stroke="#000000" stroke-miterlimit="10" d="M14.5497,994.2051
		c533.3333-124.8638,1066.6667-249.7276,1600-374.5914"/>
	<path fill="none" stroke="#000000" stroke-miterlimit="10" d="M14.5497,1069.5214
		c533.3333-174.8093,1066.6667-349.6185,1600-524.4279"/>
	<path fill="none" stroke="#000000" stroke-miterlimit="10" d="M14.5497,1144.8376
		c533.3333-224.7548,1066.6667-449.5096,1600-674.2644"/>
	<path fill="none" stroke="#000000" stroke-miterlimit="10" d="M14.5497,1220.1539
		c533.3333-274.7003,1066.6667-549.4006,1600-824.101"/>
	<path fill="none" stroke="#000000" stroke-miterlimit="10" d="M14.5497,1295.4702
		c533.3333-324.6459,1066.6667-649.2917,1600-973.9375"/>
	<path fill="none" stroke="#000000" stroke-miterlimit="10" d="M14.5497,1370.7865
		c533.3333-374.5914,1066.6667-749.1827,1600-1123.774"/>
	<path fill="none" stroke="#000000" stroke-miterlimit="10" d="M14.5497,1446.1028
		c533.3333-424.5369,1066.6667-849.0737,1600-1273.6106"/>
	<path fill="none" stroke="#000000" stroke-miterlimit="10" d="M14.5497,1521.4189
		c533.3333-474.4823,1066.6667-948.9647,1600-1423.447"/>
	<path fill="none" stroke="#000000" stroke-miterlimit="10" d="M1538.3593,98.3699c0,471.6964,0,943.3928,0,1415.0891"/>
	<path fill="none" stroke="#000000" stroke-miterlimit="10" d="M1462.1688,173.2882c0,421.7509,0,843.5016,0,1265.2526"/>
	<path fill="none" stroke="#000000" stroke-miterlimit="10" d="M1385.9783,248.2065c0,371.8053,0,743.6107,0,1115.416"/>
	<path fill="none" stroke="#000000" stroke-miterlimit="10" d="M1309.7878,323.1247c0,321.8598,0,643.7196,0,965.5795"/>
	<path fill="none" stroke="#000000" stroke-miterlimit="10" d="M1233.5973,398.043c0,271.9143,0,543.8286,0,815.7429"/>
	<path fill="none" stroke="#000000" stroke-miterlimit="10" d="M1157.4069,472.9612c0,221.9688,0,443.9376,0,665.9064"/>
	<path fill="none" stroke="#000000" stroke-miterlimit="10" d="M1081.2164,547.8795c0,172.0233,0,344.0466,0,516.0698"/>
	<path fill="none" stroke="#000000" stroke-miterlimit="10" d="M1005.0259,622.7978c0,122.0778,0,244.1556,0,366.2333"/>
	<path fill="none" stroke="#000000" stroke-miterlimit="10" d="M928.8354,697.7161c0,72.1323,0,144.2645,0,216.3968"/>
	<path fill="none" stroke="#000000" stroke-miterlimit="10" d="M852.645,772.6343c0,22.1868,0,44.3735,0,66.5602"/>
	<path fill="none" stroke="#000000" stroke-miterlimit="10" d="M776.4545,847.5526c0-27.7588,0-55.5175,0-83.2763"/>
	<path fill="none" stroke="#000000" stroke-miterlimit="10" d="M700.264,922.4708c0-77.7042,0-155.4085,0-233.1128"/>
	<path fill="none" stroke="#000000" stroke-miterlimit="10" d="M624.0735,997.3891c0-127.6498,0-255.2996,0-382.9493"/>
	<path fill="none" stroke="#000000" stroke-miterlimit="10" d="M547.8831,1072.3074c0-177.5953,0-355.1906,0-532.7858"/>
	<path fill="none" stroke="#000000" stroke-miterlimit="10" d="M471.6926,1147.2257c0-227.5408,0-455.0817,0-682.6224"/>
	<path fill="none" stroke="#000000" stroke-miterlimit="10" d="M395.5021,1222.1439c0-277.4863,0-554.9726,0-832.4589"/>
	<path fill="none" stroke="#000000" stroke-miterlimit="10" d="M319.3116,1297.0621c0-327.4318,0-654.8636,0-982.2954"/>
	<path fill="none" stroke="#000000" stroke-miterlimit="10" d="M243.1212,1371.9805c0-377.3773,0-754.7547,0-1132.132"/>
	<path fill="none" stroke="#000000" stroke-miterlimit="10" d="M166.9307,1446.8987c0-427.3228,0-854.6456,0-1281.9685"/>
	<path fill="none" stroke="#000000" stroke-miterlimit="10" d="M90.7402,1521.817c0-477.2684,0-954.5367,0-1431.8051"/>
</g>
</svg>
