<?xml version="1.0" encoding="UTF-8"?>
<svg width="134px" height="132px" viewBox="0 0 134 132" version="1.1" xmlns="http://www.w3.org/2000/svg" xmlns:xlink="http://www.w3.org/1999/xlink">
    <!-- Generator: Sketch 52.6 (67491) - http://www.bohemiancoding.com/sketch -->
    <title>headshotmap</title>
    <desc>Created with Sketch.</desc>
    <g id="Page-1" stroke="none" stroke-width="1" fill="none" fill-rule="evenodd">
        <g id="headshotmap" transform="translate(2.000000, 2.000000)">
            <ellipse id="background" stroke="#5042D3" stroke-width="3" fill="#EDDBFB" cx="65.015873" cy="64" rx="65.015873" ry="64"></ellipse>
            <rect id="Rectangle" stroke="#373636" stroke-width="0.5" fill="#D59164" x="43.7542419" y="62.0057471" width="2.26528006" height="9.70114943" rx="1.11494253"></rect>
            <path d="M34.6409871,120.237815 C34.4821144,119.466296 34.3995622,118.691368 34.3995622,117.917444 C34.3995622,107.490212 50.3088536,100.850575 65.8695818,100.850575 C81.4303099,100.850575 96.4303275,107.490212 96.4303275,117.917444 C96.4303275,118.161432 96.4206985,118.405521 96.4017024,118.649571 C86.8293739,123.966281 75.7745919,127 64,127 C53.4534945,127 43.4844774,124.566111 34.6409854,120.237807 L34.6409871,120.237815 Z" id="Combined-Shape" fill="#5042D3"></path>
            <rect id="Rectangle" stroke="#979797" fill="#D59164" x="56.4360518" y="89.1321839" width="17.9228243" height="7.96551724"></rect>
            <path d="M55.6511586,91.8850575 L55.6511586,102.346689 C58.9562768,106.330122 62.2513106,108.321839 65.53626,108.321839 C68.8212094,108.321839 72.1040507,106.330122 75.3847838,102.346689 L75.3847838,91.8850575 C72.1121353,95.713066 68.829294,97.62707 65.53626,97.62707 C62.2432259,97.62707 58.9481921,95.713066 55.6511586,91.8850575 Z" id="Path-3" stroke="#5042D3" fill="#000099"></path>
            <rect id="Rectangle-Copy" stroke="#373636" stroke-width="0.5" fill="#D59164" x="85.0164204" y="62.0057471" width="2.26528006" height="9.70114943" rx="1.11494253"></rect>
            <path d="M66.7139484,46.3103448 L85.2515964,46.3103448 C85.2515963,65.3679446 85.2515963,74.8967444 85.2515963,74.8967444 C85.2515963,74.8967444 85.0651122,81.6558801 77.8288488,88.4940111 C72.4885436,93.5404976 67.6741747,95.7181645 65.5179712,95.6173506 C63.3617677,95.7181645 58.5473987,93.5404976 53.2070936,88.4940111 C45.9708302,81.6558801 45.7843461,74.8967444 45.7843461,74.8967444 C45.7843461,74.8967444 45.784346,65.3679446 45.7843459,46.3103448 L66.7139484,46.3103448 Z" id="Combined-Shape" stroke="#373636" fill="#D59164"></path>
            <g id="Group-2" transform="translate(51.097245, 56.022989)" fill="#000000">
                <rect id="Rectangle" x="0" y="0" width="6.83087028" height="1.79310345" rx="0.896551724"></rect>
                <ellipse id="Oval" cx="3.41543514" cy="6.87356322" rx="2.17345872" ry="2.09195402"></ellipse>
            </g>
            <g id="Group-2" transform="translate(73.866813, 56.022989)" fill="#000000">
                <rect id="Rectangle" x="0" y="0" width="6.83087028" height="1.79310345" rx="0.896551724"></rect>
                <ellipse id="Oval" cx="3.41543514" cy="6.87356322" rx="2.17345872" ry="2.09195402"></ellipse>
            </g>
            <polyline id="Path-2" stroke="#000000" points="65.7345648 66.4827586 67.7949279 75.4482759 64 75.4482759"></polyline>
            <path d="M61.7177845,84.6666667 C61.629442,84.6666667 61.542746,84.6901998 61.4668892,84.7347708 C61.2347448,84.8711713 61.1588842,85.1669955 61.2974498,85.3955127 L61.6220058,85.9307585 C62.0802961,86.6865537 62.9085814,87.1494253 63.8027483,87.1494253 L67.2491332,87.1494253 C68.1539406,87.1494253 68.9904169,86.6755634 69.4450074,85.9054676 L69.7400641,85.405629 C69.7843679,85.3305766 69.8077049,85.2453192 69.8077049,85.1585157 C69.8077049,84.886875 69.5840011,84.6666667 69.3080487,84.6666667 L61.7177845,84.6666667 Z" id="Rectangle" stroke="#000000" fill="#FFFFFF"></path>
            <path d="M59.2556745,49.6770007 C57.0697589,51.9798798 53.806515,53.3013136 50.1609264,53.3013136 C49.9765154,53.3013136 49.7930828,53.2979323 49.6107185,53.2912137 C48.3805069,57.0699724 45.2227123,59.7586207 41.5212587,59.7586207 C36.7497019,59.7586207 32.881591,55.2906577 32.881591,49.7791461 C32.881591,45.5412799 35.1685162,41.9203861 38.3946294,40.4732038 C39.1149025,35.9538182 42.3520391,32.2790241 46.6161264,30.9459071 C46.596085,30.6710812 46.5858915,30.3935689 46.5858915,30.113711 C46.5858915,23.791683 51.7878338,18.6666667 58.2047549,18.6666667 C62.8872211,18.6666667 66.9227464,21.3955889 68.7622071,25.3272179 C70.4066243,24.4487809 72.2903859,23.9499179 74.292412,23.9499179 C75.650407,23.9499179 76.953988,24.1794472 78.1653666,24.6012765 C79.376745,24.1794472 80.680326,23.9499179 82.038321,23.9499179 C88.4552421,23.9499179 93.6571845,29.0749342 93.6571845,35.3969622 C93.6571845,36.6998767 93.4362393,37.9519498 93.0292486,39.1187979 C95.2311572,40.9489109 96.6363802,43.7298825 96.6363802,46.8440066 C96.6363802,52.3555182 92.2347367,56.8234811 86.8050343,56.8234811 C81.9658823,56.8234811 77.9433212,53.2745628 77.125554,48.6009122 C75.0121624,51.4503186 71.594578,53.3013136 67.7381814,53.3013136 C64.3917658,53.3013136 61.375777,51.90751 59.2556745,49.6770007 Z" id="Combined-Shape" stroke="#000000" fill="#373636"></path>
        </g>
    </g>
</svg>