<?xml version="1.0" encoding="UTF-8"?>
<svg width="200px" height="180px" viewBox="0 0 200 180" version="1.1" xmlns="http://www.w3.org/2000/svg" xmlns:xlink="http://www.w3.org/1999/xlink">
    <!-- Generator: Sketch 52.6 (67491) - http://www.bohemiancoding.com/sketch -->
    <title>headshot</title>
    <desc>Created with Sketch.</desc>
    <g id="headshot" stroke="none" stroke-width="1" fill="none" fill-rule="evenodd">
        <g id="Group-3" transform="translate(13.000000, 3.000000)">
            <circle id="background" stroke="#5042D3" stroke-width="4" fill="#EDDBFB" cx="87" cy="87" r="85"></circle>
            <rect id="Rectangle" stroke="#373636" stroke-width="3" fill="#D59164" x="58.5" y="86.5" width="4" height="14" rx="2"></rect>
            <g id="Group" transform="translate(58.000000, 66.000000)"></g>
            <path d="M48.318089,164.949076 C48.1087666,163.916427 48,162.879216 48,161.843348 C48,147.886899 68.9612565,139 89.4632639,139 C109.965271,139 129.728516,147.886899 129.728516,161.843348 C129.728516,162.169919 129.715829,162.496623 129.6908,162.823276 C117.078798,169.939484 102.513591,174 87,174 C73.1044719,174 59.9698126,170.742333 48.3180868,164.949065 Z" id="Combined-Shape" fill="#5042D3"></path>
            <rect id="Rectangle" stroke="#979797" fill="#D59164" x="79.5" y="128.5" width="20" height="11"></rect>
            <path d="M76,127 L76,141.002491 C80.3546522,146.334164 84.6960176,149 89.0240964,149 C93.3521751,149 97.6774763,146.334164 102,141.002491 L102,127 C97.6881283,132.123642 93.3628271,134.685463 89.0240964,134.685463 C84.6853657,134.685463 80.3440002,132.123642 76,127 Z" id="Path-3" stroke="#5042D3" fill="#000099"></path>
            <rect id="Rectangle-Copy" stroke="#373636" stroke-width="3" fill="#D59164" x="115.5" y="86.5" width="4" height="14" rx="2"></rect>
            <path d="M90.5757576,66 L115,66 C115,91.5078643 115,104.261796 115,104.261796 C115,104.261796 114.754298,113.30864 105.220173,122.461215 C98.1840644,129.215743 91.8409018,132.130466 89,131.995531 C86.1590982,132.130466 79.8159356,129.215743 72.7798269,122.461215 C63.245702,113.30864 63.0000002,104.261796 63.0000002,104.261796 C63.0000002,104.261796 63.0000001,91.5078643 63,66 L90.5757576,66 Z" id="Combined-Shape" stroke="#373636" stroke-width="3" fill="#D59164"></path>
            <g id="Group-2" transform="translate(70.000000, 79.000000)" fill="#000000">
                <rect id="Rectangle" x="0" y="0" width="9" height="2.4" rx="1.2"></rect>
                <ellipse id="Oval" cx="4.5" cy="9.2" rx="2.86363636" ry="2.8"></ellipse>
            </g>
            <g id="Group-2" transform="translate(100.000000, 79.000000)" fill="#000000">
                <rect id="Rectangle" x="0" y="0" width="9" height="2.4" rx="1.2"></rect>
                <ellipse id="Oval" cx="4.5" cy="9.2" rx="2.86363636" ry="2.8"></ellipse>
            </g>
            <polyline id="Path-2" stroke="#000000" stroke-width="2" points="89.2853724 93 92 105 87 105"></polyline>
            <path d="M83.9930713,117 C83.8155945,117 83.6414255,117.048028 83.489032,117.13899 C83.0226623,117.417364 82.870261,118.021097 83.1486342,118.487467 L83.9209351,119.781333 C84.3720647,120.537128 85.187408,121 86.0676036,121 L91.9626232,121 C92.8532929,121 93.6766993,120.526138 94.1241869,119.756042 L94.8554529,118.497583 C94.9438362,118.345482 94.9903919,118.172699 94.9903919,117.996783 C94.9903919,117.446275 94.5441171,117 93.9936093,117 L83.9930713,117 Z" id="Rectangle" stroke="#000000" stroke-width="2" fill="#FFFFFF"></path>
            <path d="M80.7491231,70.5061394 C77.8690741,73.5884545 73.5695935,75.3571429 68.7663551,75.3571429 C68.5233848,75.3571429 68.2817035,75.3526171 68.0414298,75.3436245 C66.4205669,80.4013477 62.2600206,84 57.3831776,84 C51.0964222,84 46,78.0198034 46,70.6428571 C46,64.9706362 49.0131339,60.124209 53.2636932,58.1872113 C54.2126876,52.1381874 58.4777707,47.2196169 64.0959108,45.435291 C64.0695053,45.0674471 64.0560748,44.6960076 64.0560748,44.3214286 C64.0560748,35.8596372 70.9098839,29 79.364486,29 C85.5338603,29 90.850859,32.6525574 93.2744368,37.9148916 C95.4410356,36.7391376 97.922982,36.0714286 100.560748,36.0714286 C102.349971,36.0714286 104.067502,36.3786448 105.663551,36.943247 C107.259601,36.3786448 108.977131,36.0714286 110.766355,36.0714286 C119.220957,36.0714286 126.074766,42.9310658 126.074766,51.3928571 C126.074766,53.136758 125.78366,54.8126097 125.247431,56.3743911 C128.148551,58.823927 130,62.5461504 130,66.7142857 C130,74.091232 124.200623,80.0714286 117.046729,80.0714286 C110.670914,80.0714286 105.370996,75.3213378 104.293548,69.0658364 C101.509053,72.8796572 97.0062216,75.3571429 91.9252336,75.3571429 C87.5161704,75.3571429 83.54246,73.4915904 80.7491231,70.5061394 Z" id="Combined-Shape" stroke="#000000" stroke-width="3" fill="#373636"></path>
        </g>
    </g>
</svg>