<?xml version="1.0" encoding="UTF-8"?>
<svg width="103px" height="108px" viewBox="0 0 103 108" version="1.1" xmlns="http://www.w3.org/2000/svg" xmlns:xlink="http://www.w3.org/1999/xlink">
    <!-- Generator: Sketch 52.6 (67491) - http://www.bohemiancoding.com/sketch -->
    <title>headshot_80px</title>
    <desc>Created with Sketch.</desc>
    <g id="headshot_80px" stroke="none" stroke-width="1" fill="none" fill-rule="evenodd">
        <g id="Group-3" transform="translate(1.000000, 3.000000)">
            <circle id="background" stroke="#5042D3" stroke-width="2" fill="#EDDBFB" cx="50" cy="50" r="49"></circle>
            <rect id="Rectangle" stroke="#373636" fill="#D59164" x="33.2586207" y="49.3505747" width="3.02298851" height="8.77011494" rx="1.51149425"></rect>
            <g id="Group" transform="translate(33.333333, 37.931034)"></g>
            <path d="M27.7690167,94.7983193 C27.6487164,94.2048433 27.5862069,93.6087449 27.5862069,93.0134182 C27.5862069,84.9924705 39.632906,79.8850575 51.4156689,79.8850575 C63.1984318,79.8850575 74.5566182,84.9924705 74.5566182,93.0134182 C74.5566182,93.2011019 74.549327,93.3888623 74.5349429,93.576593 C67.2866653,97.6663702 58.9158569,100 50,100 C42.0140643,100 34.4654095,98.1277778 27.7690154,94.798313 Z" id="Combined-Shape" fill="#5042D3"></path>
            <rect id="Rectangle" stroke="#979797" fill="#D59164" x="45.9022989" y="74.0632184" width="11.0689655" height="5.89655172"></rect>
            <path d="M43.6781609,72.9885057 L43.6781609,81.0359143 C46.1808346,84.100094 48.6758722,85.6321839 51.1632738,85.6321839 C53.6506754,85.6321839 56.1364807,84.100094 58.6206897,81.0359143 L58.6206897,72.9885057 C56.1426025,75.9331277 53.6567972,77.4054386 51.1632738,77.4054386 C48.6697504,77.4054386 46.1747128,75.9331277 43.6781609,72.9885057 Z" id="Path-3" stroke="#5042D3" fill="#000099"></path>
            <rect id="Rectangle-Copy" stroke="#373636" fill="#D59164" x="66.0172414" y="49.3505747" width="3.02298851" height="8.77011494" rx="1.51149425"></rect>
            <path d="M52.0550331,37.9310345 L66.091954,37.9310345 C66.0919539,52.5907266 66.0919539,59.9205726 66.0919539,59.9205726 C66.0919539,59.9205726 65.950746,65.1199078 60.4713638,70.3800085 C56.4276232,74.2619212 52.7821275,75.9370496 51.1494253,75.8595004 C49.5167231,75.9370496 45.8712274,74.2619212 41.8274867,70.3800085 C36.3481046,65.1199078 36.2068967,59.9205726 36.2068967,59.9205726 C36.2068967,59.9205726 36.2068966,52.5907266 36.2068966,37.9310345 L52.0550331,37.9310345 Z" id="Combined-Shape" stroke="#373636" fill="#D59164"></path>
            <g id="Group-2" transform="translate(40.229885, 45.402299)" fill="#000000">
                <rect id="Rectangle" x="0" y="0" width="5.17241379" height="1.37931034" rx="0.689655172"></rect>
                <ellipse id="Oval" cx="2.5862069" cy="5.28735632" rx="1.64576803" ry="1.6091954"></ellipse>
            </g>
            <g id="Group-2" transform="translate(57.471264, 45.402299)" fill="#000000">
                <rect id="Rectangle" x="0" y="0" width="5.17241379" height="1.37931034" rx="0.689655172"></rect>
                <ellipse id="Oval" cx="2.5862069" cy="5.28735632" rx="1.64576803" ry="1.6091954"></ellipse>
            </g>
            <polyline id="Path-2" stroke="#000000" points="51.3134324 53.4482759 52.8735632 60.3448276 50 60.3448276"></polyline>
            <path d="M48.27188,67.1666667 C48.1563987,67.1666667 48.0430696,67.1979175 47.9439096,67.2571055 C47.6404501,67.4382386 47.541285,67.8310785 47.7224181,68.134538 L47.7331648,68.1525423 C48.2745202,69.0594966 49.2529322,69.6149425 50.3091669,69.6149425 L52.0155901,69.6149425 C53.0719334,69.6149425 54.0485018,69.0529375 54.5792266,68.1395961 C54.6366462,68.0407809 54.6668919,67.9285297 54.6668919,67.8142429 C54.6668919,67.4565964 54.3769622,67.1666667 54.0193157,67.1666667 L48.27188,67.1666667 Z" id="Rectangle" stroke="#000000" fill="#FFFFFF"></path>
            <path d="M46.407542,40.5207698 C44.7523415,42.2922152 42.2813756,43.3087028 39.5208938,43.3087028 C39.3812556,43.3087028 39.2423583,43.3061018 39.10427,43.3009336 C38.1727396,46.2076711 35.781621,48.2758621 32.9788377,48.2758621 C29.3657599,48.2758621 26.4367816,44.8389675 26.4367816,40.5993432 C26.4367816,37.3394461 28.1684678,34.5541431 30.6113179,33.440926 C31.156717,29.9644755 33.6079142,27.1377109 36.8367303,26.1122362 C36.8215548,25.9008317 36.8138361,25.6873607 36.8138361,25.4720854 C36.8138361,20.6089869 40.7528069,16.6666667 45.6117736,16.6666667 C49.157391,16.6666667 52.2131373,18.7658376 53.6059982,21.7901676 C54.8511699,21.1144469 56.2775759,20.7307061 57.7935331,20.7307061 C58.8218226,20.7307061 59.8089092,20.9072671 60.726179,21.2317512 C61.6434488,20.9072671 62.6305353,20.7307061 63.6588248,20.7307061 C68.5177915,20.7307061 72.4567623,24.6730263 72.4567623,29.5361248 C72.4567623,30.5383667 72.28946,31.5014998 71.981282,32.3990753 C73.6485926,33.8068546 74.7126437,35.9460635 74.7126437,38.3415435 C74.7126437,42.5811678 71.3796684,46.0180624 67.268235,46.0180624 C63.6039734,46.0180624 60.5580437,43.2881252 59.9388209,39.6930094 C58.3385365,41.8848605 55.7507021,43.3087028 52.830594,43.3087028 C50.2966496,43.3087028 48.012908,42.2365462 46.407542,40.5207698 Z" id="Combined-Shape" stroke="#000000" fill="#373636"></path>
        </g>
    </g>
</svg>