<?xml version="1.0" encoding="UTF-8"?>
<svg width="130px" height="130px" viewBox="0 0 130 130" version="1.1" xmlns="http://www.w3.org/2000/svg" xmlns:xlink="http://www.w3.org/1999/xlink">
    <!-- Generator: Sketch 52.6 (67491) - http://www.bohemiancoding.com/sketch -->
    <title>headshotmap</title>
    <desc>Created with Sketch.</desc>
    <g id="Page-1" stroke="none" stroke-width="1" fill="none" fill-rule="evenodd">
        <g id="headshotmap">
            <circle id="background" stroke="#5042D3" stroke-width="4" fill="#EDDBFB" cx="65" cy="65" r="63"></circle>
            <rect id="Rectangle" stroke="#373636" stroke-width="3" fill="#D59164" x="44.0862069" y="65.0057471" width="2.22988506" height="9.70114943" rx="1.11494253"></rect>
            <g id="Group" transform="translate(43.333333, 49.310345)"></g>
            <path d="M36.0997217,123.237815 C35.9433314,122.466296 35.862069,121.691368 35.862069,120.917444 C35.862069,110.490212 51.5227778,103.850575 66.8403696,103.850575 C82.1579613,103.850575 96.9236036,110.490212 96.9236036,120.917444 C96.9236036,121.161432 96.9141251,121.405521 96.8954258,121.649571 C87.4726649,126.966281 76.5906139,130 65,130 C54.6182836,130 44.8050324,127.566111 36.09972,123.237807 Z" id="Combined-Shape" fill="#5042D3"></path>
            <rect id="Rectangle" stroke="#979797" fill="#D59164" x="59.5229885" y="96.1321839" width="14.6896552" height="7.96551724"></rect>
            <path d="M56.7816092,94.8850575 L56.7816092,105.346689 C60.035085,109.330122 63.2786339,111.321839 66.5122559,111.321839 C69.745878,111.321839 72.9774249,109.330122 76.2068966,105.346689 L76.2068966,94.8850575 C72.9853832,98.713066 69.7538363,100.62707 66.5122559,100.62707 C63.2706755,100.62707 60.0271266,98.713066 56.7816092,94.8850575 Z" id="Path-3" stroke="#5042D3" fill="#000099"></path>
            <rect id="Rectangle-Copy" stroke="#373636" stroke-width="3" fill="#D59164" x="86.6724138" y="65.0057471" width="2.22988506" height="9.70114943" rx="1.11494253"></rect>
            <path d="M67.671543,49.3103448 L85.9195402,49.3103448 C85.9195401,68.3679446 85.9195401,77.8967444 85.9195401,77.8967444 C85.9195401,77.8967444 85.7359698,84.6558801 78.612773,91.4940111 C73.3559101,96.5404976 68.6167657,98.7181645 66.4942529,98.6173506 C64.3717401,98.7181645 59.6325956,96.5404976 54.3757328,91.4940111 C47.252536,84.6558801 47.0689657,77.8967444 47.0689657,77.8967444 C47.0689657,77.8967444 47.0689656,68.3679446 47.0689655,49.3103448 L67.671543,49.3103448 Z" id="Combined-Shape" stroke="#373636" stroke-width="3" fill="#D59164"></path>
            <g id="Group-2" transform="translate(52.298851, 59.022989)" fill="#000000">
                <rect id="Rectangle" x="0" y="0" width="6.72413793" height="1.79310345" rx="0.896551724"></rect>
                <ellipse id="Oval" cx="3.36206897" cy="6.87356322" rx="2.13949843" ry="2.09195402"></ellipse>
            </g>
            <g id="Group-2" transform="translate(74.712644, 59.022989)" fill="#000000">
                <rect id="Rectangle" x="0" y="0" width="6.72413793" height="1.79310345" rx="0.896551724"></rect>
                <ellipse id="Oval" cx="3.36206897" cy="6.87356322" rx="2.13949843" ry="2.09195402"></ellipse>
            </g>
            <polyline id="Path-2" stroke="#000000" stroke-width="2" points="66.7074622 69.4827586 68.7356322 78.4482759 65 78.4482759"></polyline>
            <path d="M62.7534441,87.6666667 C62.666482,87.6666667 62.5811406,87.6901998 62.5064691,87.7347708 C62.2779519,87.8711713 62.2032766,88.1669955 62.3396771,88.3955127 L62.659162,88.9307585 C63.1102915,89.6865537 63.9256348,90.1494253 64.8058304,90.1494253 L68.1983655,90.1494253 C69.0890353,90.1494253 69.9124416,89.6755634 70.3599292,88.9054676 L70.6503756,88.405629 C70.6939872,88.3305766 70.7169595,88.2453192 70.7169595,88.1585157 C70.7169595,87.886875 70.4967511,87.6666667 70.2251104,87.6666667 L62.7534441,87.6666667 Z" id="Rectangle" stroke="#000000" stroke-width="2" fill="#FFFFFF"></path>
            <path d="M60.3298046,52.6770007 C58.1780439,54.9798798 54.9657882,56.3013136 51.3771619,56.3013136 C51.1956323,56.3013136 51.0150659,56.2979323 50.835551,56.2912137 C49.6245615,60.0699724 46.5161074,62.7586207 42.872489,62.7586207 C38.1754878,62.7586207 34.3678161,58.2906577 34.3678161,52.7791461 C34.3678161,48.5412799 36.6190081,44.9203861 39.7947133,43.4732038 C40.5037321,38.9538182 43.6902885,35.2790241 47.8877494,33.9459071 C47.8680212,33.6710812 47.8579869,33.3935689 47.8579869,33.113711 C47.8579869,26.791683 52.9786489,21.6666667 59.2953056,21.6666667 C63.9046083,21.6666667 67.8770785,24.3955889 69.6877976,28.3272179 C71.3065208,27.4487809 73.1608486,26.9499179 75.1315931,26.9499179 C76.4683694,26.9499179 77.7515819,27.1794472 78.9440327,27.6012765 C80.1364834,27.1794472 81.4196959,26.9499179 82.7564722,26.9499179 C89.0731289,26.9499179 94.193791,32.0749342 94.193791,38.3969622 C94.193791,39.6998767 93.9762981,40.9519498 93.5756666,42.1187979 C95.7431704,43.9489109 97.1264368,46.7298825 97.1264368,49.8440066 C97.1264368,55.3555182 92.7935689,59.8234811 87.4487056,59.8234811 C82.6851654,59.8234811 78.7254568,56.2745628 77.9204672,51.6009122 C75.8400974,54.4503186 72.4759127,56.3013136 68.6797723,56.3013136 C65.3856445,56.3013136 62.4167805,54.90751 60.3298046,52.6770007 Z" id="Combined-Shape" stroke="#000000" stroke-width="3" fill="#373636"></path>
        </g>
    </g>
</svg>