<?xml version="1.0" encoding="UTF-8"?>
<svg width="80px" height="113px" viewBox="0 0 80 113" version="1.1" xmlns="http://www.w3.org/2000/svg" xmlns:xlink="http://www.w3.org/1999/xlink">
    <!-- Generator: Sketch 52.6 (67491) - http://www.bohemiancoding.com/sketch -->
    <title>html-5</title>
    <desc>Created with Sketch.</desc>
    <g id="Page-1" stroke="none" stroke-width="1" fill="none" fill-rule="evenodd">
        <g id="html-5">
            <polygon id="Path" fill="#E44D26" points="79.8609375 22.114375 72.598125 103.476875 39.95125 112.5275 7.394375 103.489375 0.1390625 22.114375"></polygon>
            <polygon id="Path" fill="#F16529" points="40 105.609375 66.3803125 98.2959375 72.5865625 28.7678125 40 28.7678125"></polygon>
            <path d="M25.88125,48.72875 L40,48.72875 L40,38.7484375 L14.9740625,38.7484375 L15.2128125,41.4259375 L17.6659375,68.9290625 L40,68.9290625 L40,58.94875 L26.7934375,58.94875 L25.88125,48.72875 Z M28.130625,73.919375 L18.111875,73.919375 L19.51,89.59 L39.9540625,95.265 L40,95.2525 L40,84.86875 L39.95625,84.8803125 L28.84125,81.8790625 L28.130625,73.919375 Z" id="Shape" fill="#EBEBEB" fill-rule="nonzero"></path>
            <path d="M7.55625,0 L12.628125,0 L12.628125,5.0109375 L17.2678125,5.0109375 L17.2678125,0 L22.34,0 L22.34,15.174375 L17.268125,15.174375 L17.268125,10.093125 L12.6284375,10.093125 L12.6284375,15.174375 L7.5565625,15.174375 L7.5565625,0 L7.55625,0 Z M29.009375,5.0321875 L24.545,5.0321875 L24.545,0 L38.549375,0 L38.549375,5.0321875 L34.0821875,5.0321875 L34.0821875,15.174375 L29.0103125,15.174375 L29.0103125,5.0321875 L29.01,5.0321875 L29.009375,5.0321875 Z M40.771875,0 L46.0603125,0 L49.3134375,5.331875 L52.5634375,0 L57.8540625,0 L57.8540625,15.174375 L52.8028125,15.174375 L52.8028125,7.653125 L49.3134375,13.0484375 L49.2259375,13.0484375 L45.734375,7.653125 L45.734375,15.174375 L40.771875,15.174375 L40.771875,0 Z M60.378125,0 L65.4515625,0 L65.4515625,10.15875 L72.5840625,10.15875 L72.5840625,15.174375 L60.3778125,15.174375 L60.3778125,0 L60.378125,0 Z" id="Shape" fill="#000000" fill-rule="nonzero"></path>
            <path d="M39.965625,68.9290625 L52.2553125,68.9290625 L51.0965625,81.8728125 L39.9653125,84.8771875 L39.9653125,95.2603125 L60.425625,89.59 L60.575625,87.90375 L62.92125,61.62875 L63.1646875,58.94875 L39.965625,58.94875 L39.965625,68.9290625 Z M39.965625,48.704375 L39.965625,48.72875 L64.0728125,48.72875 L64.2728125,46.485625 L64.7278125,41.4259375 L64.96625,38.7484375 L39.965625,38.7484375 L39.965625,48.7046875 L39.965625,48.704375 Z" id="Shape" fill="#FFFFFF" fill-rule="nonzero"></path>
        </g>
    </g>
</svg>