<?xml version="1.0" encoding="UTF-8" standalone="no"?>
<!DOCTYPE svg PUBLIC "-//W3C//DTD SVG 1.1//EN" "http://www.w3.org/Graphics/SVG/1.1/DTD/svg11.dtd">
<svg version="1.1" xmlns="http://www.w3.org/2000/svg" xmlns:xlink="http://www.w3.org/1999/xlink" preserveAspectRatio="xMidYMid meet" viewBox="0 0 640 640" width="200" height="200"><defs><path d="M90.61 18.92L90.79 18.94L90.98 18.98L91.17 19.02L91.36 19.07L91.55 19.13L91.74 19.2L91.92 19.27L92.1 19.35L92.26 19.44L92.42 19.54L92.56 19.64L92.7 19.74L92.84 19.86L92.96 19.97L93.08 20.1L93.19 20.23L93.29 20.36L93.39 20.5L93.48 20.65L93.56 20.8L93.64 20.95L93.71 21.11L93.78 21.27L93.84 21.44L93.9 21.61L93.95 21.79L93.99 21.96L94.04 22.15L94.07 22.33L94.1 22.52L94.13 22.72L94.13 49.72L94.13 49.82L94.13 49.92L94.12 50.02L94.11 50.12L94.1 50.22L94.09 50.31L94.08 50.4L94.06 50.49L94.04 50.58L94.02 50.66L93.99 50.75L93.97 50.83L93.94 50.91L93.9 50.99L93.86 51.07L93.82 51.15L93.78 51.22L93.73 51.3L93.68 51.37L93.63 51.44L93.57 51.51L93.51 51.58L93.45 51.65L93.38 51.72L93.31 51.79L93.23 51.85L92.5 52.46L91.78 53.06L91.08 53.63L90.41 54.19L89.76 54.72L89.13 55.24L88.53 55.73L87.96 56.2L87.41 56.66L86.88 57.09L86.38 57.49L85.92 57.88L85.47 58.24L85.06 58.58L84.68 58.89L84.33 59.18L84.01 59.44L83.71 59.68L83.46 59.89L83.23 60.07L83.04 60.23L82.88 60.36L82.75 60.46L82.66 60.53L82.61 60.58L82.59 60.59L72.28 69L55.81 55.1L60.51 49.95L77.1 31.46L87.18 20.36L87.33 20.21L87.47 20.07L87.62 19.93L87.77 19.81L87.92 19.69L88.07 19.58L88.23 19.47L88.39 19.38L88.54 19.29L88.71 19.21L88.87 19.15L89.03 19.08L89.2 19.03L89.37 18.99L89.54 18.95L89.71 18.92L89.89 18.91L90.07 18.9L90.25 18.89L90.43 18.9L90.61 18.92Z" id="bDYaYkbBC"></path><path d="M16.92 47.26C15.8 46.14 14.68 45.91 13.45 46.7C12.44 47.37 12.33 48.27 12.33 49.39C12.33 53.3 12.33 84.58 12.33 88.5C12.33 89.5 12.55 90.4 13.45 90.96C14.57 91.63 15.8 91.52 16.81 90.4C20.17 86.7 27.45 78.63 27.45 78.63C27.46 77.32 27.5 70.74 27.57 58.91C21.44 52.19 17.89 48.3 16.92 47.26Z" id="bh1ozdu7G"></path><path d="M104.55 7.47C102.31 6.35 99.85 7.03 98.28 8.71C98.73 8.48 99.29 8.37 99.85 8.37C102.42 8.37 104.55 10.5 104.55 13.08C104.55 24.15 104.55 112.72 104.55 123.79C104.55 126.37 102.42 128.5 99.85 128.5C99.29 128.5 98.73 128.39 98.28 128.16C99.73 129.85 102.31 130.52 104.55 129.4C107.12 128.19 127.65 118.51 130.22 117.29C133.58 115.73 135.59 112.36 135.59 108.67C135.59 100.62 135.59 36.25 135.59 28.21C135.59 24.51 133.46 21.15 130.22 19.58C125.08 17.16 107.12 8.69 104.55 7.47Z" id="cPaL4YgV5"></path><path d="M15.35 36.72C18.49 35.38 21.63 34.15 24.77 32.8C26.67 32.02 28.46 32.35 30.03 33.7C38.1 40.31 94.24 86.37 94.24 86.37C94.24 86.37 94.13 114.83 94.13 115.39C93.91 116.96 93.01 118.08 91.55 118.42C90.1 118.86 88.64 118.53 87.52 117.29C86.18 115.73 25.77 48.94 18.04 40.42C17.15 39.41 16.25 38.63 14.9 38.96C14.01 39.3 13.22 39.86 12.44 40.31C12.66 38.74 13.78 37.51 15.35 36.72Z" id="d38kfDzm7A"></path></defs><g><g><g><use xlink:href="#bDYaYkbBC" opacity="1" fill="#6c4fa1" fill-opacity="1"></use><g><use xlink:href="#bDYaYkbBC" opacity="1" fill-opacity="0" stroke="#000000" stroke-width="1" stroke-opacity="0"></use></g></g><g><use xlink:href="#bh1ozdu7G" opacity="1" fill="#64439a" fill-opacity="1"></use><g><use xlink:href="#bh1ozdu7G" opacity="1" fill-opacity="0" stroke="#000000" stroke-width="1" stroke-opacity="0"></use></g></g><g><use xlink:href="#cPaL4YgV5" opacity="1" fill="#8369ae" fill-opacity="1"></use><g><use xlink:href="#cPaL4YgV5" opacity="1" fill-opacity="0" stroke="#000000" stroke-width="1" stroke-opacity="0"></use></g></g><g><use xlink:href="#d38kfDzm7A" opacity="1" fill="#7559a6" fill-opacity="1"></use><g><use xlink:href="#d38kfDzm7A" opacity="1" fill-opacity="0" stroke="#000000" stroke-width="1" stroke-opacity="0"></use></g></g></g></g></svg>