<?xml version="1.0" encoding="UTF-8"?>
<svg width="100px" height="100px" viewBox="0 0 100 100" version="1.1" xmlns="http://www.w3.org/2000/svg" xmlns:xlink="http://www.w3.org/1999/xlink">
    <!-- Generator: Sketch 52.6 (67491) - http://www.bohemiancoding.com/sketch -->
    <title>ideas</title>
    <desc>Created with Sketch.</desc>
    <g id="ideas" stroke="none" stroke-width="1" fill="none" fill-rule="evenodd">
        <g id="Group" transform="translate(13.000000, 10.000000)" fill="#D5C5E1">
            <rect id="Rectangle" x="34" y="0.0643920898" width="6" height="33" rx="3"></rect>
            <rect id="Rectangle" transform="translate(57.728845, 28.532196) rotate(60.000000) translate(-57.728845, -28.532196) " x="54.7288445" y="12.032196" width="6" height="33" rx="3"></rect>
            <rect id="Rectangle" transform="translate(57.728845, 52.467804) rotate(120.000000) translate(-57.728845, -52.467804) " x="54.7288445" y="35.967804" width="6" height="33" rx="3"></rect>
            <rect id="Rectangle" transform="translate(37.000000, 64.435608) rotate(180.000000) translate(-37.000000, -64.435608) " x="34" y="47.9356079" width="6" height="33" rx="3"></rect>
            <rect id="Rectangle" transform="translate(16.271155, 52.467804) rotate(240.000000) translate(-16.271155, -52.467804) " x="13.2711555" y="35.967804" width="6" height="33" rx="3"></rect>
            <rect id="Rectangle" transform="translate(16.271155, 28.532196) rotate(300.000000) translate(-16.271155, -28.532196) " x="13.2711555" y="12.032196" width="6" height="33" rx="3"></rect>
        </g>
        <g id="Group-Copy" transform="translate(50.000000, 50.500000) rotate(-31.000000) translate(-50.000000, -50.500000) translate(13.000000, 10.000000)" fill="#FFFFFF">
            <rect id="Rectangle" x="34" y="0.0643920898" width="6" height="33" rx="3"></rect>
            <rect id="Rectangle" transform="translate(57.728845, 28.532196) rotate(60.000000) translate(-57.728845, -28.532196) " x="54.7288445" y="12.032196" width="6" height="33" rx="3"></rect>
            <rect id="Rectangle" transform="translate(57.728845, 52.467804) rotate(120.000000) translate(-57.728845, -52.467804) " x="54.7288445" y="35.967804" width="6" height="33" rx="3"></rect>
            <rect id="Rectangle" transform="translate(37.000000, 64.435608) rotate(180.000000) translate(-37.000000, -64.435608) " x="34" y="47.9356079" width="6" height="33" rx="3"></rect>
            <rect id="Rectangle" transform="translate(16.271155, 52.467804) rotate(240.000000) translate(-16.271155, -52.467804) " x="13.2711555" y="35.967804" width="6" height="33" rx="3"></rect>
            <rect id="Rectangle" transform="translate(16.271155, 28.532196) rotate(300.000000) translate(-16.271155, -28.532196) " x="13.2711555" y="12.032196" width="6" height="33" rx="3"></rect>
        </g>
    </g>
</svg>