<?xml version="1.0" encoding="UTF-8"?>
<svg width="150px" height="150px" viewBox="0 0 100 100" version="1.1" xmlns="http://www.w3.org/2000/svg" xmlns:xlink="http://www.w3.org/1999/xlink">
    <!-- Generator: Sketch 52.6 (67491) - http://www.bohemiancoding.com/sketch -->
    <title>Ideas</title>
    <desc>Created with Sketch.</desc>
    <g id="Ideas" stroke="none" stroke-width="1" fill="none" fill-rule="evenodd">
        <g id="Group" transform="translate(17.500000, 14.000000)">
            <rect id="Rectangle" fill="#FFFFFF" x="29.9339433" y="0.0566914461" width="5.28246058" height="29.0535332" rx="2.64123029"></rect>
            <path d="M50.8250576,11.0932669 C49.6424888,11.0932669 48.6838273,12.0519283 48.6838273,13.2344972 L48.6838273,37.0055698 C48.6838273,38.1881386 49.6424888,39.1468001 50.8250576,39.1468001 C52.0076264,39.1468001 52.9662879,38.1881386 52.9662879,37.0055698 L52.9662879,13.2344972 C52.9662879,12.0519283 52.0076264,11.0932669 50.8250576,11.0932669 Z" id="Rectangle" stroke="#D5C5E1" transform="translate(50.825058, 25.120033) rotate(60.000000) translate(-50.825058, -25.120033) "></path>
            <path d="M50.8250576,31.6664178 L50.8250576,31.6664178 C52.2837688,31.6664178 53.4662879,32.8489369 53.4662879,34.3076481 L53.4662879,58.0787207 C53.4662879,59.5374319 52.2837688,60.719951 50.8250576,60.719951 L50.8250576,60.719951 C49.3663464,60.719951 48.1838273,59.5374319 48.1838273,58.0787207 L48.1838273,34.3076481 C48.1838273,32.8489369 49.3663464,31.6664178 50.8250576,31.6664178 Z" id="Rectangle" fill="#FFFFFF" transform="translate(50.825058, 46.193184) rotate(120.000000) translate(-50.825058, -46.193184) "></path>
            <rect id="Rectangle" stroke="#D5C5E1" transform="translate(32.575174, 56.729760) rotate(180.000000) translate(-32.575174, -56.729760) " x="30.4339433" y="42.7029932" width="4.28246058" height="28.0535332" rx="2.14123029"></rect>
            <path d="M14.3252896,31.6664178 L14.3252896,31.6664178 C15.7840008,31.6664178 16.9665199,32.8489369 16.9665199,34.3076481 L16.9665199,58.0787207 C16.9665199,59.5374319 15.7840008,60.719951 14.3252896,60.719951 L14.3252896,60.719951 C12.8665784,60.719951 11.6840593,59.5374319 11.6840593,58.0787207 L11.6840593,34.3076481 C11.6840593,32.8489369 12.8665784,31.6664178 14.3252896,31.6664178 Z" id="Rectangle" fill="#FFFFFF" transform="translate(14.325290, 46.193184) rotate(240.000000) translate(-14.325290, -46.193184) "></path>
            <path d="M14.3252896,11.0932669 C13.1427208,11.0932669 12.1840593,12.0519283 12.1840593,13.2344972 L12.1840593,37.0055698 C12.1840593,38.1881386 13.1427208,39.1468001 14.3252896,39.1468001 C15.5078584,39.1468001 16.4665199,38.1881386 16.4665199,37.0055698 L16.4665199,13.2344972 C16.4665199,12.0519283 15.5078584,11.0932669 14.3252896,11.0932669 Z" id="Rectangle" stroke="#D5C5E1" transform="translate(14.325290, 25.120033) rotate(300.000000) translate(-14.325290, -25.120033) "></path>
        </g>
    </g>
</svg>