<?xml version="1.0" encoding="UTF-8"?>
<svg width="100px" height="100px" viewBox="0 0 100 100" version="1.1" xmlns="http://www.w3.org/2000/svg" xmlns:xlink="http://www.w3.org/1999/xlink">
    <!-- Generator: Sketch 52.6 (67491) - http://www.bohemiancoding.com/sketch -->
    <title>ideas</title>
    <desc>Created with Sketch.</desc>
    <g id="ideas" stroke="none" stroke-width="1" fill="none" fill-rule="evenodd">
        <g id="Group" transform="translate(17.500000, 14.000000)">
            <rect id="Rectangle" fill="#FFFFFF" x="29.9339433" y="0.0566914461" width="5.28246058" height="29.0535332" rx="2.64123029"></rect>
            <path d="M50.8250576,10.5932669 L50.8250576,10.5932669 C52.2837688,10.5932669 53.4662879,11.775786 53.4662879,13.2344972 L53.4662879,37.0055698 C53.4662879,38.464281 52.2837688,39.6468001 50.8250576,39.6468001 L50.8250576,39.6468001 C49.3663464,39.6468001 48.1838273,38.464281 48.1838273,37.0055698 L48.1838273,13.2344972 C48.1838273,11.775786 49.3663464,10.5932669 50.8250576,10.5932669 Z" id="Rectangle" fill="#D5C5E1" transform="translate(50.825058, 25.120033) rotate(60.000000) translate(-50.825058, -25.120033) "></path>
            <path d="M50.8250576,31.6664178 L50.8250576,31.6664178 C52.2837688,31.6664178 53.4662879,32.8489369 53.4662879,34.3076481 L53.4662879,58.0787207 C53.4662879,59.5374319 52.2837688,60.719951 50.8250576,60.719951 L50.8250576,60.719951 C49.3663464,60.719951 48.1838273,59.5374319 48.1838273,58.0787207 L48.1838273,34.3076481 C48.1838273,32.8489369 49.3663464,31.6664178 50.8250576,31.6664178 Z" id="Rectangle" fill="#FFFFFF" transform="translate(50.825058, 46.193184) rotate(120.000000) translate(-50.825058, -46.193184) "></path>
            <rect id="Rectangle" fill="#D5C5E1" transform="translate(32.575174, 56.729760) rotate(180.000000) translate(-32.575174, -56.729760) " x="29.9339433" y="42.2029932" width="5.28246058" height="29.0535332" rx="2.64123029"></rect>
            <path d="M14.3252896,31.6664178 L14.3252896,31.6664178 C15.7840008,31.6664178 16.9665199,32.8489369 16.9665199,34.3076481 L16.9665199,58.0787207 C16.9665199,59.5374319 15.7840008,60.719951 14.3252896,60.719951 L14.3252896,60.719951 C12.8665784,60.719951 11.6840593,59.5374319 11.6840593,58.0787207 L11.6840593,34.3076481 C11.6840593,32.8489369 12.8665784,31.6664178 14.3252896,31.6664178 Z" id="Rectangle" fill="#FFFFFF" transform="translate(14.325290, 46.193184) rotate(240.000000) translate(-14.325290, -46.193184) "></path>
            <path d="M14.3252896,10.5932669 L14.3252896,10.5932669 C15.7840008,10.5932669 16.9665199,11.775786 16.9665199,13.2344972 L16.9665199,37.0055698 C16.9665199,38.464281 15.7840008,39.6468001 14.3252896,39.6468001 L14.3252896,39.6468001 C12.8665784,39.6468001 11.6840593,38.464281 11.6840593,37.0055698 L11.6840593,13.2344972 C11.6840593,11.775786 12.8665784,10.5932669 14.3252896,10.5932669 Z" id="Rectangle" fill="#D5C5E1" transform="translate(14.325290, 25.120033) rotate(300.000000) translate(-14.325290, -25.120033) "></path>
        </g>
    </g>
</svg>