<?xml version="1.0" encoding="UTF-8"?>
<svg width="100px" height="100px" viewBox="0 0 100 100" version="1.1" xmlns="http://www.w3.org/2000/svg" xmlns:xlink="http://www.w3.org/1999/xlink">
    <!-- Generator: Sketch 52.6 (67491) - http://www.bohemiancoding.com/sketch -->
    <title>ipad</title>
    <desc>Created with Sketch.</desc>
    <defs>
        <radialGradient cx="38.6656746%" cy="50%" fx="38.6656746%" fy="50%" r="159.638566%" gradientTransform="translate(0.386657,0.500000),scale(1.000000,0.840000),rotate(-32.256414),translate(-0.386657,-0.500000)" id="radialGradient-1">
            <stop stop-color="#2E1CF7" offset="0%"></stop>
            <stop stop-color="#EEE748" offset="100%"></stop>
        </radialGradient>
    </defs>
    <g id="ipad" stroke="none" stroke-width="1" fill="none" fill-rule="evenodd">
        <g id="apple" transform="translate(19.000000, 13.000000)" fill="url(#radialGradient-1)" fill-rule="nonzero">
            <path d="M52.6156776,39.7982984 C52.7244059,51.1634266 62.8874032,54.9454106 63,54.993552 C62.9140672,55.2601401 61.3761198,60.3831106 57.6456442,65.6747771 C54.4206796,70.2498206 51.0738619,74.8078334 45.8014322,74.9022389 C40.620738,74.994901 38.9548585,71.9204215 33.0318545,71.9204215 C27.1106466,71.9204215 25.259777,74.8079675 20.35567,74.9950352 C15.2664346,75.1821027 11.3908957,70.0480021 8.13940524,65.489721 C1.49509123,56.1658424 -3.58253904,39.1426901 3.23543647,27.6517774 C6.6224575,21.9453437 12.6753277,18.3317876 19.2451759,18.2391254 C24.2426759,18.1465974 28.9595821,21.50255 32.0147535,21.50255 C35.0679908,21.50255 40.8000638,17.4667172 46.8261318,18.0594332 C49.3488519,18.1613482 56.4302899,19.0485448 60.9772649,25.5088811 C60.6108764,25.7293392 52.5278107,30.296739 52.6156776,39.7982984 M42.8105591,11.7574281 C45.5674144,8.64470366 47.4229386,4.31150405 46.9167328,0 C42.9429254,0.148976337 38.1377056,2.47000926 35.2873906,5.58102438 C32.7329611,8.33596897 30.4958443,12.7454318 31.0994571,16.9715999 C35.5287229,17.2912482 40.0535629,14.872125 42.8105591,11.7574281" id="Shape"></path>
        </g>
    </g>
</svg>