<?xml version="1.0" encoding="UTF-8"?>
<svg xmlns="http://www.w3.org/2000/svg" xmlns:xlink="http://www.w3.org/1999/xlink" width="58pt" height="54pt" viewBox="0 0 58 54" version="1.1">
<g id="surface1">
<path style=" stroke:none;fill-rule:nonzero;fill:rgb(0%,0%,0%);fill-opacity:1;" d="M 50.878906 10.421875 C 50.316406 9.476562 44.613281 6.730469 36.285156 5.023438 C 32.917969 8.8125 32.917969 10.328125 32.824219 10.898438 C 32.730469 11.464844 33.945312 13.074219 35.164062 14.6875 C 37.410156 17.71875 38.0625 18.285156 38.4375 19.234375 C 39.09375 20.84375 37.96875 24.824219 37.222656 28.328125 C 37.222656 28.234375 35.164062 20.65625 34.320312 15.824219 C 34.226562 15.351562 34.320312 15.160156 34.320312 15.160156 C 29.269531 14.6875 25.808594 14.496094 25.246094 17.148438 C 22.910156 17.148438 21.785156 17.8125 21.503906 18.285156 C 20.945312 19.328125 21.597656 21.414062 22.066406 22.453125 C 22.441406 21.601562 24.40625 21.792969 25.058594 21.792969 C 25.433594 21.886719 25.433594 21.980469 25.527344 22.265625 L 25.527344 32.402344 L 19.445312 32.402344 L 14.300781 46.707031 C 16.640625 47.84375 19.261719 48.792969 20.851562 48.792969 C 22.441406 48.792969 26.371094 46.707031 26.929688 46.707031 C 27.398438 46.707031 31.328125 48.792969 32.917969 48.792969 C 34.507812 48.792969 37.035156 47.9375 39.464844 46.707031 L 34.320312 32.402344 C 34.320312 32.402344 28.988281 32.402344 28.242188 32.402344 C 28.242188 30.128906 28.242188 25.011719 28.242188 22.644531 C 28.148438 22.074219 27.867188 21.792969 27.679688 21.792969 L 30.671875 21.695312 C 30.207031 19.992188 29.644531 18.664062 28.800781 18.570312 C 28.988281 18.191406 29.269531 18.003906 29.550781 17.71875 L 27.210938 17.71875 C 27.398438 16.488281 30.484375 16.867188 31.796875 17.054688 C 33.105469 23.875 35.722656 33.160156 35.816406 33.253906 C 35.910156 33.351562 38.0625 34.203125 38.25 34.296875 C 39.464844 31.550781 41.429688 23.402344 41.523438 21.414062 C 43.113281 21.980469 42.554688 24.066406 42.179688 26.246094 C 40.402344 37.328125 38.90625 40.738281 38.625 42.824219 C 40.214844 42.445312 41.058594 42.160156 41.335938 41.96875 C 41.523438 41.589844 42.273438 39.792969 42.925781 37.707031 C 43.863281 34.675781 45.265625 27.097656 45.265625 24.066406 C 45.265625 23.402344 44.613281 22.550781 43.582031 22.074219 C 43.582031 22.074219 44.144531 21.128906 44.332031 20.464844 C 44.707031 19.800781 44.984375 18.382812 44.984375 18.382812 C 45.640625 18.570312 46.109375 18.855469 46.203125 19.519531 C 46.574219 22.453125 46.390625 22.644531 46.015625 28.042969 C 46.015625 29.65625 45.359375 33.160156 44.796875 36.761719 C 43.675781 43.203125 42.554688 46.042969 42.554688 47.085938 C 44.238281 46.519531 45.546875 46.042969 45.734375 45.855469 C 45.828125 45.664062 47.042969 42.539062 47.980469 37.707031 C 48.351562 35.625 48.539062 33.632812 48.914062 31.550781 C 49.382812 28.800781 49.476562 25.867188 49.476562 23.589844 C 49.476562 20.085938 49.945312 20.085938 47.324219 18.761719 C 48.351562 16.011719 48.074219 14.117188 47.886719 13.550781 C 47.417969 12.601562 46.949219 12.601562 44.707031 12.695312 C 45.453125 13.550781 45.265625 14.96875 45.078125 15.917969 C 44.613281 15.539062 44.890625 14.875 42.460938 14.96875 C 42.085938 10.992188 41.335938 10.613281 41.335938 10.421875 C 40.964844 9.949219 39 10.234375 38.4375 10.421875 C 38.90625 10.800781 39.746094 13.738281 39.371094 15.066406 C 39.1875 14.6875 35.816406 10.800781 36.003906 10.042969 C 36.191406 9.570312 36.472656 9.097656 37.59375 7.769531 C 41.523438 8.625 48.167969 11.085938 48.632812 11.84375 C 49.007812 12.792969 49.382812 13.832031 49.664062 15.351562 C 50.039062 17.625 50.691406 23.023438 50.316406 31.171875 C 49.945312 39.695312 48.820312 44.433594 49.007812 44.246094 C 50.222656 43.867188 52.1875 41.96875 52.375 41.496094 C 52.9375 40.074219 53.125 35.148438 53.3125 30.601562 C 53.21875 26.148438 52.75 20.464844 52.5625 18.285156 C 51.910156 12.980469 51.535156 11.558594 50.878906 10.421875 Z M 20.757812 45.855469 C 19.539062 45.855469 17.761719 45.664062 17.761719 45.664062 L 20.757812 36.664062 L 23.5625 45.664062 C 23.5625 45.570312 21.878906 45.855469 20.757812 45.855469 Z M 35.816406 45.570312 C 35.816406 45.570312 34.039062 45.761719 32.824219 45.761719 C 31.796875 45.761719 30.019531 45.570312 30.019531 45.570312 L 32.824219 36.570312 Z M 28.054688 38.65625 L 28.054688 35.148438 L 30.671875 35.148438 L 26.742188 46.328125 L 22.816406 35.246094 L 25.433594 35.246094 L 25.433594 37.707031 C 25.433594 37.707031 25.433594 37.898438 25.527344 37.898438 C 25.902344 38.085938 25.996094 38.085938 25.996094 38.085938 Z M 28.335938 20.371094 L 23.84375 20.371094 C 23.46875 19.234375 23.84375 18.949219 24.871094 18.855469 C 26.648438 18.761719 28.242188 18.761719 28.335938 20.371094 Z M 41.148438 15.445312 C 42.742188 15.253906 42.085938 18.191406 41.617188 19.421875 C 40.964844 18.003906 40.496094 17.148438 39.464844 15.824219 C 40.027344 15.539062 40.496094 15.539062 41.148438 15.445312 Z M 41.148438 15.445312 "/>
<path style=" stroke:none;fill-rule:nonzero;fill:rgb(0%,0%,0%);fill-opacity:1;" d="M 11.871094 40.453125 C 12.617188 39.507812 15.425781 36.664062 15.890625 35.054688 C 16.359375 33.160156 16.828125 28.613281 16.828125 27.570312 C 16.828125 27.570312 14.019531 29.558594 12.617188 31.074219 C 11.964844 31.738281 11.121094 32.96875 11.121094 32.96875 C 10.746094 31.359375 11.214844 29.464844 11.871094 28.421875 C 12.804688 26.8125 16.171875 23.875 16.640625 22.644531 C 17.390625 20.65625 17.296875 18.949219 17.855469 16.867188 C 15.613281 17.71875 12.804688 19.421875 11.402344 20.9375 C 11.308594 18.664062 11.964844 16.960938 13.460938 15.824219 C 15.613281 14.117188 18.511719 13.171875 20.289062 12.601562 C 21.878906 12.128906 24.5 11.65625 25.714844 10.992188 C 28.054688 9.855469 30.296875 6.445312 30.859375 4.738281 C 30.113281 4.738281 27.304688 4.644531 24.59375 5.6875 C 23.5625 6.160156 23.09375 7.109375 22.722656 7.867188 C 22.253906 8.527344 21.785156 9.285156 21.410156 9.855469 C 20.289062 11.558594 18.980469 12.414062 17.296875 12.886719 C 17.296875 12.792969 18.417969 12.035156 19.167969 10.328125 C 19.820312 8.8125 20.664062 5.96875 20.664062 5.6875 C 19.167969 5.875 18.324219 6.351562 16.734375 6.917969 C 15.144531 7.582031 14.582031 8.339844 14.300781 9.003906 C 13.179688 10.707031 13.554688 15.632812 11.308594 17.433594 C 11.402344 14.875 11.964844 12.128906 11.121094 9.003906 C 6.632812 10.898438 5.695312 12.507812 6.070312 14.402344 C 6.539062 17.054688 9.34375 18.191406 10.558594 20.464844 C 11.027344 21.128906 11.121094 22.074219 11.121094 22.074219 C 11.214844 22.074219 10.1875 23.308594 10.558594 25.867188 C 10.558594 25.867188 9.625 23.96875 8.78125 22.832031 C 7.472656 21.128906 4.851562 18.285156 4.851562 18.285156 C 4.292969 25.390625 5.226562 26.8125 5.507812 27.382812 C 6.445312 28.898438 9.625 31.171875 10.371094 32.6875 C 10.746094 33.351562 10.839844 33.632812 10.839844 33.632812 C 10.933594 33.824219 10.1875 34.769531 10.277344 36.097656 C 10.371094 36.570312 10.464844 37.042969 10.652344 37.707031 C 10.652344 37.707031 9.625 36.191406 8.316406 34.675781 C 7.191406 33.253906 4.851562 31.550781 4.761719 31.550781 C 4.667969 32.402344 5.132812 36.285156 5.226562 36.949219 C 5.414062 38.9375 5.601562 40.738281 7.285156 42.539062 C 8.59375 43.960938 13.179688 45.855469 14.113281 46.234375 C 14.113281 46.234375 13.925781 45.285156 13.460938 44.054688 C 12.617188 42.632812 11.871094 40.453125 11.871094 40.453125 Z M 11.871094 40.453125 "/>
</g>
</svg>
