<?xml version="1.0" encoding="UTF-8" standalone="no"?>
<svg
   xmlns:dc="http://purl.org/dc/elements/1.1/"
   xmlns:cc="http://creativecommons.org/ns#"
   xmlns:rdf="http://www.w3.org/1999/02/22-rdf-syntax-ns#"
   xmlns:svg="http://www.w3.org/2000/svg"
   xmlns="http://www.w3.org/2000/svg"
   height="56.502365"
   width="61.988209"
   xml:space="preserve"
   viewBox="0 0 61.988211 56.502367"
   y="0px"
   x="0px"
   id="Layer_1"
   version="1.1"><metadata
     id="metadata23"><rdf:RDF><cc:Work
         rdf:about=""><dc:format>image/svg+xml</dc:format><dc:type
           rdf:resource="http://purl.org/dc/dcmitype/StillImage" /><dc:title></dc:title></cc:Work></rdf:RDF></metadata><defs
     id="defs21" /><style
     id="style2"
     type="text/css">
	.st0{fill:#000000;}
</style><path
     class="st0"
     d="m 54.388207,11.002367 c -0.6,-1 -6.7,-3.9000001 -15.6,-5.7000001 -3.6,4 -3.6,5.6000001 -3.7,6.2000001 -0.1,0.6 1.2,2.3 2.5,4 2.4,3.2 3.1,3.8 3.5,4.8 0.7,1.7 -0.5,5.9 -1.3,9.6 0,-0.1 -2.2,-8.1 -3.1,-13.2 -0.1,-0.5 0,-0.7 0,-0.7 -5.4,-0.5 -9.1,-0.7 -9.7,2.1 -2.5,0 -3.7,0.7 -4,1.2 -0.6,1.1 0.1,3.3 0.6,4.4 0.4,-0.9 2.5,-0.7 3.2,-0.7 0.4,0.1 0.4,0.2 0.5,0.5 v 10.7 h -6.5 l -5.5,15.1 c 2.5,1.2 5.3,2.2 7,2.2 1.7,0 5.9,-2.2 6.5,-2.2 0.5,0 4.7,2.2 6.4,2.2 1.7,0 4.4,-0.9 7,-2.2 l -5.5,-15.1 c 0,0 -5.7,0 -6.5,0 0,-2.4 0,-7.8 0,-10.3 -0.1,-0.6 -0.4,-0.9 -0.6,-0.9 l 3.2,-0.1 c -0.5,-1.8 -1.1,-3.2 -2,-3.3 0.2,-0.4 0.5,-0.6 0.8,-0.9 h -2.5 c 0.2,-1.3 3.5,-0.9 4.9,-0.7 1.4,7.2 4.2,17 4.3,17.1 0.1,0.1 2.4,1 2.6,1.1 1.3,-2.9 3.4,-11.5 3.5,-13.6 1.7,0.6 1.1,2.8 0.7,5.1 -1.9,11.7 -3.5,15.3 -3.8,17.5 1.7,-0.4 2.6,-0.7 2.9,-0.9 0.2,-0.4 1,-2.3 1.7,-4.5 1,-3.2 2.5,-11.2 2.5,-14.4 0,-0.7 -0.7,-1.6 -1.8,-2.1 0,0 0.6,-1 0.8,-1.7 0.4,-0.7 0.7,-2.2 0.7,-2.2 0.7,0.2 1.2,0.5 1.3,1.2 0.4,3.1 0.2,3.3 -0.2,9 0,1.7 -0.7,5.4 -1.3,9.2 -1.2,6.8 -2.4,9.8 -2.4,10.9 1.8,-0.6 3.2,-1.1 3.4,-1.3 0.1,-0.2 1.4,-3.5 2.4,-8.6 0.4,-2.2 0.6,-4.3 1,-6.5 0.5,-2.9 0.6,-6 0.6,-8.4 0,-3.7 0.5,-3.7 -2.3,-5.1 1.1,-2.9 0.8,-4.9 0.6,-5.5 -0.5,-1 -1,-1 -3.4,-0.9 0.8,0.9 0.6,2.4 0.4,3.4 -0.5,-0.4 -0.2,-1.1 -2.8,-1 -0.4,-4.2 -1.2,-4.6 -1.2,-4.8 -0.4,-0.5 -2.5,-0.2 -3.1,0 0.5,0.4 1.4,3.5 1,4.9 -0.2,-0.4 -3.8,-4.5 -3.6,-5.3 0.2,-0.5 0.5,-1.0000001 1.7,-2.4000001 4.2,0.9 11.3,3.5000001 11.8,4.3000001 0.4,1 0.8,2.1 1.1,3.7 0.4,2.4 1.1,8.1 0.7,16.7 -0.4,9 -1.6,14 -1.4,13.8 1.3,-0.4 3.4,-2.4 3.6,-2.9 0.6,-1.5 0.8,-6.7 1,-11.5 -0.1,-4.7 -0.6,-10.7 -0.8,-13 -0.7,-5.6 -1.1,-7.1 -1.8,-8.3 z m -32.2,37.4 c -1.3,0 -3.2,-0.2 -3.2,-0.2 l 3.2,-9.5 3,9.5 c 0,-0.1 -1.8,0.2 -3,0.2 z m 16.1,-0.3 c 0,0 -1.9,0.2 -3.2,0.2 -1.1,0 -3,-0.2 -3,-0.2 l 3,-9.5 z m -8.3,-7.3 v -3.7 h 2.8 l -4.2,11.8 -4.2,-11.7 h 2.8 v 2.6 c 0,0 0,0.2 0.1,0.2 0.4,0.2 0.5,0.2 0.5,0.2 z m 0.3,-19.3 h -4.8 c -0.4,-1.2 0,-1.5 1.1,-1.6 1.9,-0.1 3.6,-0.1 3.7,1.6 z m 13.7,-5.2 c 1.7,-0.2 1,2.9 0.5,4.2 -0.7,-1.5 -1.2,-2.4 -2.3,-3.8 0.6,-0.3 1.1,-0.3 1.8,-0.4 z"
     id="path12"
     style="fill:#000000" /><path
     class="st0"
     d="m 12.688207,42.702367 c 0.8,-1 3.8,-4 4.3,-5.7 0.5,-2 1,-6.8 1,-7.9 0,0 -3,2.1 -4.5,3.7 -0.7,0.7 -1.6,2 -1.6,2 -0.4,-1.7 0.1,-3.7 0.8,-4.8 1,-1.7 4.6,-4.8 5.1,-6.1 0.8,-2.1 0.7,-3.9 1.3,-6.1 -2.4,0.9 -5.4,2.7 -6.9,4.3 -0.1,-2.4 0.6,-4.2 2.2,-5.4 2.3,-1.8 5.4,-2.8 7.3,-3.4 1.7,-0.5 4.5,-1 5.8,-1.7 2.5,-1.2 4.9,-4.8000001 5.5,-6.6000001 -0.8,0 -3.8,-0.1 -6.7,1 -1.1,0.5 -1.6,1.5 -2,2.3 -0.5,0.7 -1,1.5 -1.4,2.1000001 -1.2,1.8 -2.6,2.7 -4.4,3.2 0,-0.1 1.2,-0.9 2,-2.7 0.7,-1.6000001 1.6,-4.6000001 1.6,-4.9000001 -1.6,0.2 -2.5,0.7 -4.2,1.3 -1.7,0.7 -2.3,1.5 -2.6,2.2 -1.2,1.8000001 -0.8,7.0000001 -3.2,8.9000001 0.1,-2.7 0.7,-5.6 -0.2,-8.9000001 -4.7999998,2.0000001 -5.7999998,3.7000001 -5.3999998,5.7000001 0.5,2.8 3.5,4 4.7999998,6.4 0.5,0.7 0.6,1.7 0.6,1.7 0.1,0 -1,1.3 -0.6,4 0,0 -1,-2 -1.8999998,-3.2 -1.4,-1.8 -4.2,-4.8 -4.2,-4.8 -0.6,7.5 0.4,9 0.7,9.6 1,1.6 4.3999998,4 5.1999998,5.6 0.4,0.7 0.5,1 0.5,1 0.1,0.2 -0.7,1.2 -0.6,2.6 0.1,0.5 0.2,1 0.4,1.7 0,0 -1.1,-1.6 -2.4999998,-3.2 -1.2,-1.5 -3.7,-3.3 -3.8,-3.3 -0.1,0.9 0.4,5 0.5,5.7 0.2,2.1 0.4,4 2.2,5.9 1.4,1.5 6.2999998,3.5 7.2999998,3.9 0,0 -0.2,-1 -0.7,-2.3 -0.9,-1.5 -1.7,-3.8 -1.7,-3.8 z"
     id="path14"
     style="fill:#000000" /></svg>