<svg version="1.1" viewBox="0.0 0.0 100.0 100.0" fill="none" stroke="none" stroke-linecap="square" stroke-miterlimit="10" xmlns:xlink="http://www.w3.org/1999/xlink" xmlns="http://www.w3.org/2000/svg"><clipPath id="p.0"><path d="m0 0l100.0 0l0 100.0l-100.0 0l0 -100.0z" clip-rule="nonzero"/></clipPath><g clip-path="url(#p.0)"><path fill="#000000" fill-opacity="0.0" d="m0 0l100.0 0l0 100.0l-100.0 0z" fill-rule="evenodd"/><path fill="#ff6347" d="m3.511811 50.0l0 0c0 -25.674717 20.813473 -46.48819 46.48819 -46.48819l0 0c12.329433 0 24.153885 4.897848 32.872116 13.616075c8.718224 8.718227 13.616074 20.54268 13.616074 32.872116l0 0c0 25.67472 -20.813469 46.48819 -46.48819 46.48819l0 0c-25.674717 0 -46.48819 -20.813469 -46.48819 -46.48819z" fill-rule="evenodd"/><path fill="#000000" fill-opacity="0.0" d="m13.511811 20.598425l72.97638 0l0 58.803146l-72.97638 0z" fill-rule="evenodd"/><path fill="#ffffff" d="m21.015373 66.39842l0 -33.39062l4.421875 0l0 16.5625l16.578125 -16.5625l5.984375 0l-14.0 13.53125l14.625 19.859371l-5.828125 0l-11.90625 -16.906246l-5.453125 5.328125l0 11.578121l-4.421875 0zm31.369354 0l0 -33.39062l14.796875 0q4.46875 0 6.796875 0.90625q2.328125 0.890625 3.71875 3.171875q1.390625 2.265625 1.390625 5.03125q0 3.546875 -2.3125 5.984375q-2.296875 2.4375 -7.109375 3.109375q1.765625 0.828125 2.671875 1.65625q1.9375 1.78125 3.671875 4.4375l5.796875 9.093746l-5.546875 0l-4.421875 -6.953121q-1.9375 -3.0 -3.1875 -4.59375q-1.25 -1.59375 -2.25 -2.234375q-0.984375 -0.640625 -2.015625 -0.890625q-0.75 -0.15625 -2.453125 -0.15625l-5.125 0l0 14.828121l-4.421875 0zm4.421875 -18.656246l9.5 0q3.015625 0 4.71875 -0.625q1.71875 -0.625 2.609375 -2.0q0.890625 -1.390625 0.890625 -3.0q0 -2.375 -1.71875 -3.890625q-1.71875 -1.53125 -5.4375 -1.53125l-10.5625 0l0 11.046875z" fill-rule="nonzero"/></g></svg>