<?xml version="1.0" encoding="UTF-8"?>
<svg width="181px" height="150px" viewBox="0 0 181 150" version="1.1" xmlns="http://www.w3.org/2000/svg" xmlns:xlink="http://www.w3.org/1999/xlink">
    <!-- Generator: Sketch 52.6 (67491) - http://www.bohemiancoding.com/sketch -->
    <title>magnify</title>
    <desc>Created with Sketch.</desc>
    <g id="magnify" stroke="none" stroke-width="1" fill="none" fill-rule="evenodd">
        <g id="Group-2" transform="translate(-6.000000, 0.000000)">
            <ellipse id="Oval" fill="#EDDBFB" transform="translate(50.923378, 50.858672) rotate(13.000000) translate(-50.923378, -50.858672) " cx="50.9233782" cy="50.858672" rx="42" ry="42.5"></ellipse>
            <path d="M77.5933518,53.924017 L77.5933518,53.924017 C80.3679883,53.9175746 82.6224983,56.1616393 82.6289407,58.9362759 C82.6289722,58.949822 82.6289489,58.9633682 82.6288707,58.9769141 L82.1296733,145.536097 C82.1135038,148.339832 79.8395117,150.606003 77.0357374,150.612513 L77.0357374,150.612513 C74.2611008,150.618956 72.0065909,148.374891 72.0001484,145.600254 C72.000117,145.586708 72.0001403,145.573162 72.0002184,145.559616 L72.4994159,59.0004337 C72.5155854,56.1966984 74.7895775,53.9305271 77.5933518,53.924017 Z" id="Rectangle" fill="#EDDBFB" transform="translate(77.314545, 102.268265) rotate(-32.000000) translate(-77.314545, -102.268265) "></path>
            <circle id="Oval" fill="#FFFFFF" cx="50.5" cy="50.5" r="36.5"></circle>
        </g>
        <g id="Group" transform="translate(28.000000, 24.000000)" fill="#7ED322">
            <rect id="Rectangle-Copy" x="18" y="0" width="15" height="16"></rect>
            <rect id="Rectangle-Copy-3" x="18" y="19" width="15" height="16"></rect>
            <rect id="Rectangle-Copy-5" x="18" y="38" width="15" height="16"></rect>
            <rect id="Rectangle-Copy-2" x="0" y="0" width="15" height="16"></rect>
            <rect id="Rectangle-Copy-4" x="0" y="19" width="15" height="16"></rect>
            <rect id="Rectangle-Copy-6" x="0" y="38" width="15" height="16"></rect>
        </g>
    </g>
</svg>