<?xml version="1.0" encoding="UTF-8"?>
<svg width="90px" height="90px" viewBox="0 0 90 90" version="1.1" xmlns="http://www.w3.org/2000/svg" xmlns:xlink="http://www.w3.org/1999/xlink">
    <!-- Generator: Sketch 52.6 (67491) - http://www.bohemiancoding.com/sketch -->
    <title>map</title>
    <desc>Created with Sketch.</desc>
    <g id="map" stroke="none" stroke-width="1" fill="none" fill-rule="evenodd">
        <g id="euromap" transform="translate(23.000000, 10.000000)" fill-rule="nonzero">
            <path d="M0,23.5828536 C0,10.5583805 9.40254451,0 21,0 C32.5966986,0 42,10.5583805 42,23.5828536 C42,36.6065781 21,74 21,74 C21,74 0,36.6065781 0,23.5828536 Z" id="Shape" stroke="#5042D3" fill="#5042D3"></path>
            <circle id="Oval" stroke="#EDDBFB" fill="#5042D3" cx="21.5" cy="20.5" r="13.5"></circle>
            <path d="M21.4573041,15 C21.4830689,15 21.516195,15 21.5478488,15 C21.8901521,16.1413737 22.2250941,17.2901063 22.5806478,18.4211774 C23.7209226,18.4211774 24.8597252,18.4211774 26,18.4211774 C26,18.4498774 26,18.4815209 26,18.5116926 C25.0452315,19.1806214 24.1412563,19.8907604 23.2497955,20.625184 C23.5678063,21.7672935 23.9645837,22.8284546 24.2465238,24 C24.2148699,24 24.1832161,24 24.1515622,24 C23.3079503,23.2942764 22.4186979,22.6481603 21.5441682,21.9740801 C20.5864551,22.5914963 19.7318011,23.3134096 18.8454932,24 C18.8182562,24 18.7866023,24 18.7571569,24 C19.0736954,22.8475879 19.4299853,21.7334424 19.7884836,20.625184 C18.8815639,19.8856092 17.9290038,19.1850368 17,18.4638594 C17,18.4484056 17,18.4351594 17,18.4211774 C18.141011,18.4211774 19.2820219,18.4211774 20.4193522,18.4211774 C20.7837396,17.2996729 21.1481269,16.1781684 21.4573041,15 Z" id="Shape" fill="#FFFFFF"></path>
        </g>
    </g>
</svg>