<?xml version="1.0" encoding="UTF-8"?>
<svg width="89px" height="89px" viewBox="0 0 89 89" version="1.1" xmlns="http://www.w3.org/2000/svg" xmlns:xlink="http://www.w3.org/1999/xlink">
    <!-- Generator: Sketch 50.2 (55047) - http://www.bohemiancoding.com/sketch -->
    <title>map</title>
    <desc>Created with Sketch.</desc>
    <defs></defs>
    <g id="Page-1" stroke="none" stroke-width="1" fill="none" fill-rule="evenodd">
        <g id="map">
            <g id="Group-3">
                <circle id="Oval-3" fill="#3D9AE3" cx="44.5" cy="44.5" r="44.5"></circle>
                <path d="M-1.32858134e-15,44.2670157 C0.125439205,19.7975381 20.0004397,0 44.4994029,0 C68.9983662,0 88.8733667,19.7975381 88.9988059,44.2670157 L0,44.2670157 Z" id="Combined-Shape" fill="#40A459"></path>
            </g>
            <g id="Group-2" transform="translate(34.000000, 7.000000)">
                <g id="Map_marker">
                    <ellipse id="Oval-4" fill="#FFCE00" cx="10.6363636" cy="9.98319328" rx="6.54545455" ry="6.65546218"></ellipse>
                    <path d="M10.5,32.9818115 C10.5,32.9878743 10.5119726,33 10.5119726,33 C10.5119726,33 21,16.6909792 21,11.3314349 C21,3.44368914 15.6841505,0.012125666 10.5,0 C5.31584949,0.012125666 0,3.44368914 0,11.3314349 C0,16.6909792 10.4940137,33 10.4940137,33 C10.4940137,33 10.5,32.9818115 10.5,32.9818115 Z M6.86630559,10.8827852 C6.86630559,8.84567334 8.49458381,7.19658277 10.5059863,7.19658277 C12.5173888,7.19658277 14.145667,8.84567334 14.145667,10.8827852 C14.145667,12.9198971 12.5114025,14.5689877 10.5,14.5689877 C8.49458381,14.5689877 6.86630559,12.9198971 6.86630559,10.8827852 Z" id="Shape" fill="#CD2900" fill-rule="nonzero"></path>
                </g>
            </g>
            <g id="Simpleicons_Places_map-folded-paper" transform="translate(17.000000, 49.000000)" fill="#F4F0ED" fill-rule="nonzero">
                <path d="M14.3579321,0 L18.9607751,3.28569107 L10.4061229,23 L0,19.7143631 L14.3579321,0 Z M44.5943507,22.9999458 L55,19.7143631 L40.6420679,0 L36.0394752,3.28569107 L44.5943507,22.9999458 Z M14.2047975,22.9999458 L25.781289,19.7143631 L26.6786394,0 L20.8583875,3.28569107 L14.2047975,22.9999458 Z M29.2189377,19.7143631 L40.7952025,22.9999458 L34.1416125,3.28569107 L28.321469,0 L29.2189377,19.7143631 Z" id="Shape"></path>
            </g>
        </g>
    </g>
</svg>