<?xml version="1.0" encoding="UTF-8"?>
<svg width="80px" height="80px" viewBox="0 0 80 80" version="1.1" xmlns="http://www.w3.org/2000/svg" xmlns:xlink="http://www.w3.org/1999/xlink">
    <!-- Generator: Sketch 52.6 (67491) - http://www.bohemiancoding.com/sketch -->
    <title>mapmarker</title>
    <desc>Created with Sketch.</desc>
    <g id="mapmarker" stroke="none" stroke-width="1" fill="none" fill-rule="evenodd">
        <path d="M40.5,70.6412154 C40.5279798,70.5981697 40.5563261,70.5545297 40.5850352,70.5102998 C41.317234,69.3822578 42.1333755,68.1051913 43.0124354,66.7049168 C45.5240513,62.7041065 48.035605,58.5194988 50.3786373,54.3583357 C51.6433382,52.1122607 52.8256375,49.9307175 53.9103763,47.8324868 C58.4277813,39.0943851 61,32.2990563 61,28.3780347 C61,17.1248344 51.8231069,8 40.5,8 C29.1768931,8 20,17.1248344 20,28.3780347 C20,32.2990563 22.5722187,39.0943851 27.0896237,47.8324868 C28.1743625,49.9307175 29.3566618,52.1122607 30.6213627,54.3583357 C32.964395,58.5194988 35.4759487,62.7041065 37.9875646,66.7049168 C38.8666245,68.1051913 39.682766,69.3822578 40.4149648,70.5102998 C40.4436739,70.5545297 40.4720202,70.5981697 40.5,70.6412154 Z" id="Oval" stroke="#4034AC" stroke-width="2" fill="#5042D3"></path>
        <path d="M40.6859559,18 C40.7561385,18 40.8341192,18 40.9017025,18 C41.728298,20.732924 42.536698,23.4918264 43.3918864,26.2065655 C46.1238104,26.2065655 48.8609331,26.2065655 51.5928571,26.2065655 C51.5928571,26.2715114 51.5928571,26.3520444 51.5928571,26.4221859 C49.3158206,28.0250511 47.1271621,29.726634 45.0086863,31.4983585 C45.7599004,34.2364782 46.711265,36.7771623 47.3844984,39.5984127 C47.3169152,39.5984127 47.2363351,39.5984127 47.1687518,39.5984127 C45.1568496,37.894232 42.9967841,36.3511171 40.9017025,34.7352628 C38.6090698,36.2108339 36.5607766,37.9435908 34.4267047,39.5984127 C34.3539227,39.5984127 34.2811407,39.5984127 34.2109581,39.5984127 C34.9777683,36.829119 35.8329567,34.1585431 36.6959432,31.4983585 C34.5150828,29.7136448 32.2302482,28.0432359 30,26.3130768 C30,26.2715114 30,26.2455331 30,26.2091634 C32.7345234,26.2091634 35.4690468,26.2091634 38.2087689,26.2091634 C39.069156,23.5204026 39.9477386,20.8212504 40.6859559,18 Z" id="Shape" fill="#F7DF1E" fill-rule="nonzero"></path>
    </g>
</svg>