<?xml version="1.0" encoding="UTF-8"?>
<svg width="640px" height="787px" viewBox="0 0 640 787" version="1.1" xmlns="http://www.w3.org/2000/svg" xmlns:xlink="http://www.w3.org/1999/xlink">
    <!-- Generator: Sketch 52.6 (67491) - http://www.bohemiancoding.com/sketch -->
    <title>modern</title>
    <desc>Created with Sketch.</desc>
    <defs>
        <linearGradient x1="2.71244518%" y1="1.55557753%" x2="55.9621711%" y2="55.2897547%" id="linearGradient-1">
            <stop stop-color="#0B121D" offset="0%"></stop>
            <stop stop-color="#FCF4E0" offset="100%"></stop>
        </linearGradient>
        <linearGradient x1="50%" y1="0%" x2="50%" y2="50%" id="linearGradient-2">
            <stop stop-color="#667A82" offset="0%"></stop>
            <stop stop-color="#D8D8D8" offset="100%"></stop>
        </linearGradient>
        <polygon id="path-3" points="14 10 16.2304688 10 16.2304688 74.9501953 14 74.9501953"></polygon>
        <filter x="-67.3%" y="-2.3%" width="234.5%" height="104.6%" filterUnits="objectBoundingBox" id="filter-4">
            <feGaussianBlur stdDeviation="1.5" in="SourceAlpha" result="shadowBlurInner1"></feGaussianBlur>
            <feOffset dx="0" dy="0" in="shadowBlurInner1" result="shadowOffsetInner1"></feOffset>
            <feComposite in="shadowOffsetInner1" in2="SourceAlpha" operator="arithmetic" k2="-1" k3="1" result="shadowInnerInner1"></feComposite>
            <feColorMatrix values="0 0 0 0 0.992156863   0 0 0 0 0.960784314   0 0 0 0 0.882352941  0 0 0 1 0" type="matrix" in="shadowInnerInner1"></feColorMatrix>
        </filter>
        <polygon id="path-5" points="1.24344979e-14 -2.84217094e-14 2.23046875 -2.84217094e-14 2.23046875 75.9501953 1.24344979e-14 75.9501953"></polygon>
        <filter x="-67.3%" y="-2.0%" width="234.5%" height="103.9%" filterUnits="objectBoundingBox" id="filter-6">
            <feGaussianBlur stdDeviation="1.5" in="SourceAlpha" result="shadowBlurInner1"></feGaussianBlur>
            <feOffset dx="0" dy="0" in="shadowBlurInner1" result="shadowOffsetInner1"></feOffset>
            <feComposite in="shadowOffsetInner1" in2="SourceAlpha" operator="arithmetic" k2="-1" k3="1" result="shadowInnerInner1"></feComposite>
            <feColorMatrix values="0 0 0 0 0.992156863   0 0 0 0 0.960784314   0 0 0 0 0.882352941  0 0 0 1 0" type="matrix" in="shadowInnerInner1"></feColorMatrix>
        </filter>
        <polygon id="path-7" points="26 18 28.2304688 18 28.2304688 82.9501953 26 82.9501953"></polygon>
        <filter x="-67.3%" y="-2.3%" width="234.5%" height="104.6%" filterUnits="objectBoundingBox" id="filter-8">
            <feGaussianBlur stdDeviation="1.5" in="SourceAlpha" result="shadowBlurInner1"></feGaussianBlur>
            <feOffset dx="0" dy="0" in="shadowBlurInner1" result="shadowOffsetInner1"></feOffset>
            <feComposite in="shadowOffsetInner1" in2="SourceAlpha" operator="arithmetic" k2="-1" k3="1" result="shadowInnerInner1"></feComposite>
            <feColorMatrix values="0 0 0 0 0.992156863   0 0 0 0 0.960784314   0 0 0 0 0.882352941  0 0 0 1 0" type="matrix" in="shadowInnerInner1"></feColorMatrix>
        </filter>
        <polygon id="path-9" points="36 25 38.2304688 25 38.2304688 89.9501953 36 89.9501953"></polygon>
        <filter x="-67.3%" y="-2.3%" width="234.5%" height="104.6%" filterUnits="objectBoundingBox" id="filter-10">
            <feGaussianBlur stdDeviation="1.5" in="SourceAlpha" result="shadowBlurInner1"></feGaussianBlur>
            <feOffset dx="0" dy="0" in="shadowBlurInner1" result="shadowOffsetInner1"></feOffset>
            <feComposite in="shadowOffsetInner1" in2="SourceAlpha" operator="arithmetic" k2="-1" k3="1" result="shadowInnerInner1"></feComposite>
            <feColorMatrix values="0 0 0 0 0.992156863   0 0 0 0 0.960784314   0 0 0 0 0.882352941  0 0 0 1 0" type="matrix" in="shadowInnerInner1"></feColorMatrix>
        </filter>
        <polygon id="path-11" points="46 31 48.2304688 31 48.2304688 95.9501953 46 95.9501953"></polygon>
        <filter x="-67.3%" y="-2.3%" width="234.5%" height="104.6%" filterUnits="objectBoundingBox" id="filter-12">
            <feGaussianBlur stdDeviation="1.5" in="SourceAlpha" result="shadowBlurInner1"></feGaussianBlur>
            <feOffset dx="0" dy="0" in="shadowBlurInner1" result="shadowOffsetInner1"></feOffset>
            <feComposite in="shadowOffsetInner1" in2="SourceAlpha" operator="arithmetic" k2="-1" k3="1" result="shadowInnerInner1"></feComposite>
            <feColorMatrix values="0 0 0 0 0.992156863   0 0 0 0 0.960784314   0 0 0 0 0.882352941  0 0 0 1 0" type="matrix" in="shadowInnerInner1"></feColorMatrix>
        </filter>
        <polygon id="path-13" points="55 37 57.2304688 37 57.2304688 101.950195 55 101.950195"></polygon>
        <filter x="-67.3%" y="-2.3%" width="234.5%" height="104.6%" filterUnits="objectBoundingBox" id="filter-14">
            <feGaussianBlur stdDeviation="1.5" in="SourceAlpha" result="shadowBlurInner1"></feGaussianBlur>
            <feOffset dx="0" dy="0" in="shadowBlurInner1" result="shadowOffsetInner1"></feOffset>
            <feComposite in="shadowOffsetInner1" in2="SourceAlpha" operator="arithmetic" k2="-1" k3="1" result="shadowInnerInner1"></feComposite>
            <feColorMatrix values="0 0 0 0 0.992156863   0 0 0 0 0.960784314   0 0 0 0 0.882352941  0 0 0 1 0" type="matrix" in="shadowInnerInner1"></feColorMatrix>
        </filter>
        <polygon id="path-15" points="62 42 64.2304688 42 64.2304688 106.950195 62 106.950195"></polygon>
        <filter x="-67.3%" y="-2.3%" width="234.5%" height="104.6%" filterUnits="objectBoundingBox" id="filter-16">
            <feGaussianBlur stdDeviation="1.5" in="SourceAlpha" result="shadowBlurInner1"></feGaussianBlur>
            <feOffset dx="0" dy="0" in="shadowBlurInner1" result="shadowOffsetInner1"></feOffset>
            <feComposite in="shadowOffsetInner1" in2="SourceAlpha" operator="arithmetic" k2="-1" k3="1" result="shadowInnerInner1"></feComposite>
            <feColorMatrix values="0 0 0 0 0.992156863   0 0 0 0 0.960784314   0 0 0 0 0.882352941  0 0 0 1 0" type="matrix" in="shadowInnerInner1"></feColorMatrix>
        </filter>
        <linearGradient x1="77.1152443%" y1="32.7974246%" x2="-14.2687819%" y2="56.8616214%" id="linearGradient-17">
            <stop stop-color="#3E6540" offset="0%"></stop>
            <stop stop-color="#172B18" offset="100%"></stop>
        </linearGradient>
        <polygon id="path-18" points="362 264 374.952842 264 375.076172 388.914062 363.619105 386.054776"></polygon>
        <filter x="-42.1%" y="-4.4%" width="184.1%" height="108.8%" filterUnits="objectBoundingBox" id="filter-19">
            <feGaussianBlur stdDeviation="2.5" in="SourceAlpha" result="shadowBlurInner1"></feGaussianBlur>
            <feOffset dx="6" dy="5" in="shadowBlurInner1" result="shadowOffsetInner1"></feOffset>
            <feComposite in="shadowOffsetInner1" in2="SourceAlpha" operator="arithmetic" k2="-1" k3="1" result="shadowInnerInner1"></feComposite>
            <feColorMatrix values="0 0 0 0 0   0 0 0 0 0   0 0 0 0 0  0 0 0 0.5 0" type="matrix" in="shadowInnerInner1"></feColorMatrix>
        </filter>
        <linearGradient x1="50%" y1="55.2526471%" x2="50%" y2="100%" id="linearGradient-20">
            <stop stop-color="#485555" offset="0%"></stop>
            <stop stop-color="#283939" offset="100%"></stop>
        </linearGradient>
        <linearGradient x1="50%" y1="47.070391%" x2="50%" y2="60.2979042%" id="linearGradient-21">
            <stop stop-color="#47534F" offset="0%"></stop>
            <stop stop-color="#6D705B" offset="100%"></stop>
        </linearGradient>
        <linearGradient x1="50%" y1="17.3506691%" x2="50%" y2="81.3306495%" id="linearGradient-22">
            <stop stop-color="#121B24" offset="0%"></stop>
            <stop stop-color="#364B46" offset="100%"></stop>
        </linearGradient>
        <linearGradient x1="50%" y1="50%" x2="50%" y2="100%" id="linearGradient-23">
            <stop stop-color="#4C3C37" offset="0%"></stop>
            <stop stop-color="#DAAB76" offset="100%"></stop>
        </linearGradient>
        <linearGradient x1="50%" y1="27.3319869%" x2="50%" y2="100%" id="linearGradient-24">
            <stop stop-color="#544133" offset="0%"></stop>
            <stop stop-color="#DDBB5A" offset="80.2042615%"></stop>
            <stop stop-color="#E2C05C" offset="100%"></stop>
        </linearGradient>
        <linearGradient x1="50%" y1="0%" x2="50%" y2="100%" id="linearGradient-25">
            <stop stop-color="#22202B" offset="0%"></stop>
            <stop stop-color="#0F0E13" offset="100%"></stop>
        </linearGradient>
        <linearGradient x1="74.2973157%" y1="18.4134451%" x2="25.4118744%" y2="85.3830853%" id="linearGradient-26">
            <stop stop-color="#5FA363" offset="0%"></stop>
            <stop stop-color="#1F3820" offset="88.3752933%"></stop>
            <stop stop-color="#172B18" offset="100%"></stop>
        </linearGradient>
        <linearGradient x1="50%" y1="0%" x2="50%" y2="45.7240086%" id="linearGradient-27">
            <stop stop-color="#828E8E" offset="0%"></stop>
            <stop stop-color="#D8D8D8" offset="100%"></stop>
        </linearGradient>
        <linearGradient x1="50%" y1="0%" x2="44.4451904%" y2="56.0728901%" id="linearGradient-28">
            <stop stop-color="#879BA3" offset="0%"></stop>
            <stop stop-color="#4F626A" offset="100%"></stop>
        </linearGradient>
        <linearGradient x1="50%" y1="0%" x2="50%" y2="100%" id="linearGradient-29">
            <stop stop-color="#9999AE" offset="0%"></stop>
            <stop stop-color="#010103" offset="100%"></stop>
        </linearGradient>
    </defs>
    <g id="-" stroke="none" stroke-width="1" fill="none" fill-rule="evenodd">
        <g id="modern" transform="translate(-21.000000, 0.000000)">
            <rect id="Rectangle" fill="url(#linearGradient-1)" x="21" y="0" width="640" height="787"></rect>
            <path d="M55.4101562,356.601562 C49.4695292,404.766932 50.8844392,385.104633 52.4023437,463.890625 C52.6362993,476.033956 60.1321915,478.729842 54.9804687,490.84375" id="Path-2" stroke="#979797" fill="#010103"></path>
            <path d="M32.7773438,372.476562 C41.7870538,392.512649 29.0840994,362.711377 39.1445312,419.742188 C39.9611489,424.371449 43.3642184,428.177508 44.8632812,432.632812 C51.0883436,451.134068 49.8766954,470.962174 44.2070312,489.316406" id="Path-6" stroke="#979797" fill="#010103"></path>
            <path d="M70.7617188,376.300781 C70.2773438,409.796875 70.1339477,443.299636 69.3085938,476.789062 C69.1206961,484.413165 68.9468234,492.085755 67.7226562,499.613281 C67.4880601,501.055837 66.7539062,496.855469 66.2695312,495.476562" id="Path-7" stroke="#979797" fill="#010103"></path>
            <path d="M32.2929688,381.097656 C36.7210232,421.212738 42.1076022,452.567952 41.6445312,491.234375 C41.6285166,492.571595 40.5377604,493.669271 39.984375,494.886719" id="Path-8" stroke="#979797" fill="#010103"></path>
            <path d="M37.7773438,363.003906 C37.7773438,396.217848 27.1497195,429.217985 30.6796875,462.429688 C31.00468,465.487379 35.5581133,466.764186 36.2929688,469.75" id="Path-9" stroke="#979797" fill="#010103"></path>
            <path d="M61.78125,488.773438 C63.4395225,402.674274 78.8292569,411.256878 49.265625,365.417969" id="Path-10" stroke="#979797" fill="#010103"></path>
            <path d="M77.8554687,500.601562 C77.7526042,486.364583 80.0728465,471.902107 77.546875,457.890625 C71.0226588,421.701009 52.7615528,412.294432 65.0078125,383.113281" id="Path-11" stroke="#979797" fill="#010103"></path>
            <path d="M90.90625,502.851562 C90.90625,404.43755 94.924973,444.022341 86.546875,383.566406" id="Path-12" stroke="#979797" fill="#010103"></path>
            <path d="M57.3710938,366.398438 C49.1111984,396.131372 19.3413615,458.451576 49.1484375,489.898438" id="Path-13" stroke="#979797" fill="#010103"></path>
            <path d="M32.3515625,497.929688 C38.4795788,447.731087 39.3271538,396.577411 35.09375,346.1875" id="Path-14" stroke="#979797" fill="#010103"></path>
            <path d="M27.8007812,500.378906 C27.8007812,354.092488 37.1596253,403.29525 26.609375,350.128906" id="Path-15" stroke="#979797" fill="#010103"></path>
            <path d="M48.359375,497.730469 C51.1940104,487.265625 55.5990861,477.103942 56.8632812,466.335938 C61.966237,422.870615 56.3535707,408.145675 66.3125,372.867188" id="Path-16" stroke="#979797" fill="#010103"></path>
            <path d="M78.96875,493.988281 C78.0459403,459.901999 79.4255248,431.361308 61.9882812,400.863281" id="Path-17" stroke="#979797" fill="#010103"></path>
            <path d="M88.390625,497.699219 C82.638887,384.267673 88.2028344,425.868463 80.2226562,372.050781" id="Path-18" stroke="#979797" fill="#010103"></path>
            <path d="M103.855469,493.910156 C93.232774,412.981995 61.0703793,429.560624 66.328125,359.398438" id="Path-19" stroke="#979797" fill="#010103"></path>
            <path d="M61.1679688,501.167969 C65.0866787,472.746808 62.9804738,441.207282 71.7382812,413.824219 C84.9927034,372.381577 82.2617188,406.374408 82.2617188,368.484375" id="Path-20" stroke="#979797" fill="#010103"></path>
            <path d="M85.546875,494.421875 C87.5581572,460.972704 85.1922829,511.518507 83.1367188,449.988281 C82.4335549,428.940128 83.1367188,407.86849 83.1367188,386.808594" id="Path-21" stroke="#979797" fill="#010103"></path>
            <path d="M107.511719,479.148437 C106.66774,426.058279 111.385116,402.632543 88.1875,360.222656" id="Path-22" stroke="#979797" fill="#010103"></path>
            <path d="M107.496094,479.535156 C107.748698,484.697917 108.001302,489.860677 108.253906,495.023438" id="Path-23" stroke="#979797"></path>
            <path d="M111.542969,491.679688 C79.517628,430.640088 78.9332985,430.113232 80.5195312,363.113281" id="Path-24" stroke="#979797" fill="#010103"></path>
            <path d="M24.0742188,494.496094 C23.2338676,473.014758 20.7250733,424.642796 23.109375,405.9375 C35.0589932,312.190496 31.9375,458.996114 31.9375,358.140625" id="Path-25" stroke="#979797" fill="#010103"></path>
            <path d="M34.6796875,497.652344 C38.2018229,477.832031 42.6992414,458.160477 45.2460938,438.191406 C46.8738071,425.429016 43.5509081,414.31635 47.5195312,402.542969 C52.8916574,386.605933 61.4902273,387.403795 64.9648438,367.6875" id="Path-26" stroke="#979797" fill="#010103"></path>
            <path d="M64.375,499.285156 C69.5930508,460.591303 46.046875,429.780967 46.046875,392.425781" id="Path-27" stroke="#979797" fill="#010103"></path>
            <path d="M79.0273438,471.128906 C79.10663,436.636962 90.6677234,373.229978 70.625,333.144531" id="Path-28" stroke="#979797" fill="#010103"></path>
            <path d="M72.78125,436.585938 C74.0320008,421.09587 73.0485599,439.582866 58.3398438,400.816406 C54.0581402,389.5315 51.1419271,377.77474 47.5429688,366.253906" id="Path-29" stroke="#979797" fill="#010103"></path>
            <path d="M71.2929688,455.960938 C66.5734863,435.535017 57.3290446,407.784449 67.5703125,389.027344" id="Path-30" stroke="#979797" fill="#010103"></path>
            <path d="M76.1640625,496.679688 C65.9901811,455.885121 58.6172902,425.532063 65.4960938,384.914062" id="Path-31" stroke="#979797" fill="#010103"></path>
            <path d="M90.5273438,495.039062 C96.5843267,459.489232 92.3764158,431.094221 82.8359375,398.601562" id="Path-32" stroke="#979797" fill="#010103"></path>
            <path d="M61.5195312,364.878906 C60.8528646,411.130208 60.1861979,457.38151 59.5195312,503.632812" id="Path-3" stroke="#979797" fill="#010103"></path>
            <path d="M77.0585938,382.238281 C86.3783876,420.773493 81.1663641,466.793606 80.875,503.902344" id="Path-5" stroke="#090303" fill="#010103"></path>
            <path d="M498,296 L589.507812,370.011719 L589.507812,478.588867 C569.45584,475.207139 554.204538,473.516275 543.753906,473.516275 C533.303274,473.516275 518.051972,473.516275 498,473.516275 L498,296 Z" id="Rectangle" fill="url(#linearGradient-2)"></path>
            <g id="Group" transform="translate(501.000000, 329.000000)">
                <g id="Rectangle">
                    <use fill="#B8D148" fill-rule="evenodd" xlink:href="#path-3"></use>
                    <use fill="black" fill-opacity="1" filter="url(#filter-4)" xlink:href="#path-3"></use>
                </g>
                <g id="Rectangle-Copy-6">
                    <use fill="#B8D148" fill-rule="evenodd" xlink:href="#path-5"></use>
                    <use fill="black" fill-opacity="1" filter="url(#filter-6)" xlink:href="#path-5"></use>
                </g>
                <g id="Rectangle-Copy">
                    <use fill="#B8D148" fill-rule="evenodd" xlink:href="#path-7"></use>
                    <use fill="black" fill-opacity="1" filter="url(#filter-8)" xlink:href="#path-7"></use>
                </g>
                <g id="Rectangle-Copy-2">
                    <use fill="#B8D148" fill-rule="evenodd" xlink:href="#path-9"></use>
                    <use fill="black" fill-opacity="1" filter="url(#filter-10)" xlink:href="#path-9"></use>
                </g>
                <g id="Rectangle-Copy-3">
                    <use fill="#B8D148" fill-rule="evenodd" xlink:href="#path-11"></use>
                    <use fill="black" fill-opacity="1" filter="url(#filter-12)" xlink:href="#path-11"></use>
                </g>
                <g id="Rectangle-Copy-4">
                    <use fill="#B8D148" fill-rule="evenodd" xlink:href="#path-13"></use>
                    <use fill="black" fill-opacity="1" filter="url(#filter-14)" xlink:href="#path-13"></use>
                </g>
                <g id="Rectangle-Copy-5">
                    <use fill="#B8D148" fill-rule="evenodd" xlink:href="#path-15"></use>
                    <use fill="black" fill-opacity="1" filter="url(#filter-16)" xlink:href="#path-15"></use>
                </g>
            </g>
            <polygon id="Rectangle" fill="#D8D8D8" points="282.103473 488 295.042969 488 129.077281 563.595703 116 559.861849"></polygon>
            <path d="M160.841797,554.730469 L215,565.658203 L199.224609,572.771484 C158.525585,564.715139 136.857616,560.249644 134.220703,559.375 C131.58379,558.500356 136.289519,556.952179 148.337891,554.730469 L160.841797,554.730469 Z" id="Rectangle" fill="#D8D8D8"></path>
            <path d="M21,492.73131 L116,486.952223 L268.28125,471.547525 C292.3008,478.584665 298.221372,483.755745 286.042969,487.060765 C273.864565,490.365785 225.054669,492.255966 139.613281,492.73131 L21,517.773763 L21,492.73131 Z" id="Rectangle" fill="#010103"></path>
            <polygon id="Rectangle" fill="#D8D8D8" points="575.058594 417.492188 661 412.322266 661 514.537109 575.058594 545"></polygon>
            <path d="M359.129103,549.343562 C421.887541,521.144168 472.199357,503.296057 510.064551,495.799228 C547.929746,488.3024 598.241562,486.228308 661,489.576951 L661,670.578125 L255.25,598.910111 L359.129103,549.343562 Z" id="Rectangle" fill="url(#linearGradient-17)"></path>
            <g id="Rectangle">
                <use fill="#FAE6AD" fill-rule="evenodd" xlink:href="#path-18"></use>
                <use fill="black" fill-opacity="1" filter="url(#filter-19)" xlink:href="#path-18"></use>
            </g>
            <polygon id="Rectangle" fill="url(#linearGradient-20)" points="215 240.191406 367 274.307625 367 381.914062 291 360.434371 215 375.413929"></polygon>
            <polygon id="Rectangle" fill="#D6D6D6" points="96 338.097656 110.125 333 110.125 441.982422 96 444.277344"></polygon>
            <polygon id="Rectangle" fill="url(#linearGradient-21)" points="406 127 499.511719 226.522758 499.511719 473.15738 439.285156 473.15738 406 489.542969"></polygon>
            <polygon id="Rectangle" fill="url(#linearGradient-22)" points="374 144.977097 406 127 406 489.023437 374 489.023437"></polygon>
            <polygon id="Rectangle" fill="#0F090B" points="215 240.175781 374.269531 145 374.269531 275.270526 366.101563 275.270526"></polygon>
            <polygon id="Rectangle" fill="#E7C7A1" points="110.246818 333 165.963614 345.621276 165.963614 443.010684 132.681671 446.277344 110.246818 443.010684"></polygon>
            <polygon id="Rectangle" fill="url(#linearGradient-23)" points="160.841797 346.454781 215 326.314453 215 380.721765 191.855469 386.97797 191.855469 436.999776 160.841797 440.353516"></polygon>
            <polygon id="Rectangle" fill="#828E8E" points="191.674766 381.033848 291.923828 358 291.923828 489.832031 116 495.087891 116 444.128906 191.674766 435.727732"></polygon>
            <polygon id="Rectangle" fill="url(#linearGradient-24)" points="292 358 374.076172 384.25056 374.076172 490.951172 292 490.951172"></polygon>
            <polygon id="Rectangle" fill="#18101C" points="505.145508 402.779297 525.230469 400.72168 525.230469 476.620117 505.145508 475.171875"></polygon>
            <polygon id="Rectangle" fill="url(#linearGradient-25)" points="527.805664 400.72168 580.483398 423.744141 580.483398 479.101562 527.805664 476.620117"></polygon>
            <path d="M178.5,547.5 L264,550.5" id="Line" stroke="#979797" stroke-linecap="square"></path>
            <path d="M144.5,554.730469 L250.5,558.5" id="Line-Copy-7" stroke="#979797" stroke-linecap="square"></path>
            <path d="M199.5,538.5 L284.071289,541.5" id="Line-Copy" stroke="#979797" stroke-linecap="square"></path>
            <path d="M219.5,529.5 L294.634766,532.5" id="Line-Copy-2" stroke="#979797" stroke-linecap="square"></path>
            <path d="M238.5,521.5 L307.359375,523.868164" id="Line-Copy-3" stroke="#979797" stroke-linecap="square"></path>
            <path d="M251.5,513.5 L322.5,516.5" id="Line-Copy-4" stroke="#979797" stroke-linecap="square"></path>
            <path d="M264.5,506.5 L333.038086,509.5" id="Line-Copy-5" stroke="#979797" stroke-linecap="square"></path>
            <path d="M282.5,499.5 L349.5,501.167969" id="Line-Copy-6" stroke="#979797" stroke-linecap="square"></path>
            <polygon id="Rectangle" fill="url(#linearGradient-26)" points="438.761719 471.547525 499.511719 471.547525 505.145508 474.795076 307.359375 595.652344 199.224609 573.339398 374 487.972784 402.945312 487.904661"></polygon>
            <polygon id="Rectangle" fill="url(#linearGradient-27)" points="499.511719 471.547525 635.441406 476.620117 635.441406 495.236328 509.355469 506.15625 509.355469 530.720703 465.742188 536.550293 465.742188 560.714844 307.359375 595.652344"></polygon>
            <polygon id="driveway" fill="url(#linearGradient-28)" points="21 534 661 670.578125 661 786.949219 21 786.949219"></polygon>
            <polygon id="Path" stroke="#828E8E" fill="#828E8E" points="144.348633 554.730469 162.232422 554.730469 162.232422 547.813477 183.898438 547.813477 183.898438 538.644531 202.900391 538.644531 202.900391 529.773763 220.955078 529.773763 220.955078 521.397461 238.717773 521.397461 238.717773 513.624023 255.303711 513.624023 255.303711 506.484375 270.708008 506.484375 270.708008 499.555664 284.071289 499.555664 284.071289 493.005859"></polygon>
            <polygon id="Rectangle" fill="url(#linearGradient-29)" points="96 444.277344 110.125 441.833984 116 444.277344 116 445.87793 116 447.609375"></polygon>
        </g>
    </g>
</svg>