<?xml version="1.0" encoding="UTF-8"?>
<svg width="353px" height="573px" viewBox="0 0 353 573" version="1.1" xmlns="http://www.w3.org/2000/svg" xmlns:xlink="http://www.w3.org/1999/xlink">
    <!-- Generator: Sketch 52.6 (67491) - http://www.bohemiancoding.com/sketch -->
    <title>Group</title>
    <desc>Created with Sketch.</desc>
    <defs>
        <linearGradient x1="50%" y1="19.765407%" x2="50%" y2="95.0909768%" id="linearGradient-1">
            <stop stop-color="#8DBEEF" offset="0%"></stop>
            <stop stop-color="#F3F3F3" offset="100%"></stop>
        </linearGradient>
        <linearGradient x1="4.02101265%" y1="16.6329175%" x2="56.8643379%" y2="68.0210004%" id="linearGradient-2">
            <stop stop-color="#202020" offset="0%"></stop>
            <stop stop-color="#55495A" offset="100%"></stop>
        </linearGradient>
        <linearGradient x1="50%" y1="36.8655457%" x2="50%" y2="100%" id="linearGradient-3">
            <stop stop-color="#FDB614" offset="0%"></stop>
            <stop stop-color="#F7D07A" offset="100%"></stop>
        </linearGradient>
        <ellipse id="path-4" cx="165.495878" cy="349.70763" rx="4.89558796" ry="1.49815743"></ellipse>
        <filter x="-20.4%" y="-66.7%" width="140.9%" height="233.5%" filterUnits="objectBoundingBox" id="filter-5">
            <feGaussianBlur stdDeviation="1.5" in="SourceAlpha" result="shadowBlurInner1"></feGaussianBlur>
            <feOffset dx="0" dy="1" in="shadowBlurInner1" result="shadowOffsetInner1"></feOffset>
            <feComposite in="shadowOffsetInner1" in2="SourceAlpha" operator="arithmetic" k2="-1" k3="1" result="shadowInnerInner1"></feComposite>
            <feColorMatrix values="0 0 0 0 0.326453408   0 0 0 0 0.987484056   0 0 0 0 0.657080999  0 0 0 0.5 0" type="matrix" in="shadowInnerInner1"></feColorMatrix>
        </filter>
        <linearGradient x1="50%" y1="8.86572199%" x2="50%" y2="53.7845048%" id="linearGradient-6">
            <stop stop-color="#FDC545" offset="0%"></stop>
            <stop stop-color="#FBF2B1" offset="100%"></stop>
        </linearGradient>
    </defs>
    <g id="modern3-copy" stroke="none" stroke-width="1" fill="none" fill-rule="evenodd">
        <g id="Group" transform="translate(8.000000, 8.000000)">
            <rect id="Rectangle" fill="#FFFFFF" x="0" y="1" width="340" height="268"></rect>
            <path d="M336.816451,10.1381084 L148.742134,27.7718097 L336.816451,38.3524914 L336.816451,556.640625 L0,556.640625 L0,87.1865682 L196.968685,104.451006 L73.8221983,85.474812 L168.892903,74.3753159 L0,53.0482989 L0,0.82421875 L336.816451,0.82421875 L336.816451,10.1381084 Z" id="Combined-Shape" fill="url(#linearGradient-1)"></path>
            <polygon id="Rectangle" fill="url(#linearGradient-2)" opacity="0.39953032" points="0 430 339.816451 431.057869 338.859483 556.420057 0 556.420057"></polygon>
            <path d="M40.5556289,497.298275 C46.4736808,499.356291 55.9054774,508.093081 58.3097846,503.472322 L63.5266455,509.365465 C68.1233305,500.531247 49.7924823,495.081822 42.2231885,495.346574" id="Path-20" fill="#FBB731"></path>
            <polygon id="Rectangle" fill="#FBF2B1" points="3.7467556e-15 295.079963 113.040628 314.149657 115.235675 345.095156 213.200361 358.852138 290.419281 427.398745 0 432.344193"></polygon>
            <polygon id="Path-9" fill="url(#linearGradient-3)" points="318.685682 207.893076 256.404501 216.571742 256.404501 360.47065 215.755946 360.47065 215.755946 431.883504 290.72386 431.883504 290.72386 385.674845 318.685682 385.674845 318.685682 349.834631 290.72386 343.622289 290.72386 239.4434 318.685682 235.778815"></polygon>
            <polygon id="Path-10" fill="#FD900F" opacity="0.401297433" points="259.040523 361.898519 217.378171 394.057439 217.389111 356.630859"></polygon>
            <polygon id="Path-7" fill="#CDC894" opacity="0.466122582" points="103.704387 347.605552 147.239594 385.865274 198.153709 391.329177 205.986649 361.189023"></polygon>
            <polygon id="Path" fill="#2071B9" points="102.200185 386.381872 102.200185 438.210741 174.752643 439.140204 173.578092 383.294998"></polygon>
            <polygon id="Path-8" fill="#40BCAC" points="225.211111 350.934063 258.126291 361.634769 217.378171 361.634769"></polygon>
            <polygon id="Path-6" fill="#3DBBAC" points="104.765011 347.605552 174.654886 340.035702 189.595991 342.965448 189.595991 348.080178 189.595991 361.414438"></polygon>
            <polygon id="Path-3" fill="#D0142C" points="199.482516 344.122587 189.800343 344.122587 189.800343 387.28873 199.482516 389.427219"></polygon>
            <polyline id="Path-2" fill="#31102A" points="173.578092 383.196314 199.471162 387.60593 199.471162 345.484882 224.821129 352.955187 224.821129 429.29099 259.040523 429.29099 259.040523 435.049532 173.578092 439.140204"></polyline>
            <polygon id="Path-4-Copy" fill="#300E36" points="160.60029 75.75045 160.60029 257.912723 173.725402 264.459349 173.725402 340.574472 259.555256 361.898519 259.555256 217.896144 303.551459 210.118554 184.611139 119.304955 184.611139 95.6505548"></polygon>
            <path d="M283.969107,195.16699 L283.969107,213.580296 L276.136166,214.964993 L276.136166,189.186364 L283.969107,195.16699 Z M285.927342,196.662146 L303.551459,210.118554 L285.927342,213.234122 L285.927342,196.662146 Z M274.177931,187.691207 L274.177931,215.311167 L266.34499,216.695864 L266.34499,181.710582 L274.177931,187.691207 Z M264.386755,180.215425 L264.386755,217.042038 L259.555256,217.896144 L259.555256,361.898519 L256.553814,361.152824 L256.553814,174.2348 L264.386755,180.215425 Z M254.595579,172.739643 L254.595579,360.666309 L246.762638,358.72025 L246.762638,166.759017 L254.595579,172.739643 Z M244.804403,165.263861 L244.804403,358.233735 L236.971462,356.287676 L236.971462,159.283235 L244.804403,165.263861 Z M235.013227,157.788079 L235.013227,355.801161 L227.180287,353.855101 L227.180287,151.807453 L235.013227,157.788079 Z M225.222051,150.312296 L225.222051,353.368586 L217.389111,351.422527 L217.389111,144.331671 L225.222051,150.312296 Z M215.430875,142.836514 L215.430875,350.936012 L207.597935,348.989953 L207.597935,136.855888 L215.430875,142.836514 Z M205.6397,135.360732 L205.6397,348.503438 L197.806759,346.557378 L197.806759,129.380106 L205.6397,135.360732 Z M195.848524,127.88495 L195.848524,346.070864 L188.015583,344.124804 L188.015583,121.904324 L195.848524,127.88495 Z M186.057348,120.409168 L186.057348,343.638289 L178.224407,341.69223 L178.224407,90.3572542 L184.611139,95.6505548 L184.611139,119.304955 L186.057348,120.409168 Z M176.266172,88.7342759 L176.266172,341.205715 L173.725402,340.574472 L173.725402,264.459349 L168.433231,261.819687 L168.433231,82.242363 L176.266172,88.7342759 Z M166.474996,80.6193847 L166.474996,260.842946 L160.60029,257.912723 L160.60029,75.75045 L166.474996,80.6193847 Z" id="Combined-Shape" fill="#4B0357"></path>
            <polygon id="Path-5-Copy" fill="#2071B9" points="118.357765 127.515684 97.3335093 132.154539 97.3335093 314.993809 103.931079 316.745274 103.931079 347.605552 174.752643 340.95058 174.752643 262.87806 136.043076 268.322767 118.357765 264.876336"></polygon>
            <path d="M169.788211,341.417079 L163.913505,341.969114 L163.913505,264.402643 L169.788211,263.576334 L169.788211,341.417079 Z M171.746446,341.233067 L171.746446,263.300898 L174.752643,262.87806 L174.752643,340.95058 L171.746446,341.233067 Z M161.95527,342.153126 L156.080565,342.705161 L156.080565,265.504387 L161.95527,264.678079 L161.95527,342.153126 Z M154.12233,342.889173 L148.247624,343.441208 L148.247624,266.606132 L154.12233,265.779824 L154.12233,342.889173 Z M146.289389,343.62522 L140.414683,344.177255 L140.414683,267.707877 L146.289389,266.881569 L146.289389,343.62522 Z M138.456448,344.361267 L132.581743,344.913302 L132.581743,267.648239 L136.043076,268.322767 L138.456448,267.983313 L138.456448,344.361267 Z M130.623507,345.097314 L124.748802,345.649349 L124.748802,266.121791 L130.623507,267.266627 L130.623507,345.097314 Z M122.790567,345.833361 L116.915861,346.385396 L116.915861,127.83383 L118.357765,127.515684 L118.357765,264.876336 L122.790567,265.74018 L122.790567,345.833361 Z M114.957626,346.569408 L109.08292,347.121443 L109.08292,129.562113 L114.957626,128.265901 L114.957626,346.569408 Z M107.124685,347.305455 L103.931079,347.605552 L103.931079,316.745274 L101.24998,316.033519 L101.24998,131.290397 L107.124685,129.994184 L107.124685,347.305455 Z M99.2917445,315.513664 L97.3335093,314.993809 L97.3335093,132.154539 L99.2917445,131.722468 L99.2917445,315.513664 Z" id="Combined-Shape" fill="#597D9C"></path>
            <g id="Oval">
                <use fill="#B9F7D5" fill-rule="evenodd" xlink:href="#path-4"></use>
                <use fill="black" fill-opacity="1" filter="url(#filter-5)" xlink:href="#path-4"></use>
            </g>
            <polygon id="Path-11" fill="#D1152B" points="304.978329 197.296561 304.978329 240.008678 337.866736 235.610767 337.866736 190.18324"></polygon>
            <polygon id="Path-12" fill="#FBF2B1" points="290.378303 239.535226 342.916328 231.850313 343 341.426758 290.378303 344.611072"></polygon>
            <polygon id="Path-13" fill="#3E1E79" points="290.378303 344.611072 337.866736 341.658203 336.816451 349.980469 318.348174 351.20791"></polygon>
            <polygon id="Path-16" fill="#D01635" opacity="0.661783854" points="244.955998 375.455375 244.955998 407.326333 249.882184 407.326333 249.882184 375.455375"></polygon>
            <g id="Group-3" transform="translate(290.000000, 383.000000)">
                <polygon id="Path-16-Copy" fill="#1B1464" opacity="0.535063244" points="0 0 0 54 53 54 53 0"></polygon>
                <path d="M53,48.8424892 L0,48.8424892 L0,39.3891042 L53,39.3891042 L53,48.8424892 Z M53,50.4180533 L53,54 L0,54 L0,50.4180533 L53,50.4180533 Z M53,37.81354 L0,37.81354 L0,28.360155 L53,28.360155 L53,37.81354 Z M53,26.7845908 L0,26.7845908 L0,17.3312058 L53,17.3312058 L53,26.7845908 Z M53,15.7556417 L0,15.7556417 L0,6.30225667 L53,6.30225667 L53,15.7556417 Z M53,4.7266925 L0,4.7266925 L0,0 L53,0 L53,4.7266925 Z" id="Combined-Shape" fill="#D01635"></path>
                <rect id="Rectangle" fill="#FDB614" x="7" y="12" width="15" height="8"></rect>
            </g>
            <path d="M90.8446087,529.906191 C96.246121,518.400612 148.467463,526.060403 91.5215767,531.989566" id="Path-21" fill="#FCB832"></path>
            <path d="M64.8890062,542.014968 C64.8890062,510.114701 116.497476,510.548964 65.1452596,544.03397" id="Path-18" fill="#FBB731"></path>
            <path d="M27.5778276,542.014968 C27.5778276,510.114701 79.1862976,510.548964 27.8340811,544.03397" id="Path-18-Copy-2" fill="#FBB731"></path>
            <path d="M4.86667546,525.667427 C4.86667546,493.76716 56.4751455,494.201423 5.1229289,527.686428" id="Path-18-Copy-3" fill="#FBB731"></path>
            <polygon id="Path-5" fill="#A6A6A6" opacity="0.49655878" points="318.685682 351.20791 336.816451 383.294998 336.816451 349.84082"></polygon>
            <path d="M138,538.518607 C138,506.618339 189.60847,507.052603 138.256253,540.537608" id="Path-18-Copy-3" fill="#FBB731"></path>
            <path d="M68.1334565,511.112297 C69.843114,491.334798 101.538616,488.739501 85.818768,502.995327 C81.3516329,507.046429 74.5232187,509.134261 68.8754441,512.203728 L68.1334565,511.112297 Z" id="Path-19" fill="#FBB731"></path>
            <path d="M169.762543,499.625323 L168.679589,500.721673 C164.077508,500.509993 153.154717,496.320618 156.265961,491.213219 L159.216081,495.026815 C160.843425,492.355378 166.247056,498.092487 169.762543,499.625323 Z" id="Path-20" fill="#D0021B"></path>
            <path d="M140.630834,477.250156 C136.93381,483.930691 105.529732,476.743609 140.296127,475.959246 L140.630834,477.250156 Z" id="Path-21" fill="#000000"></path>
            <path d="M156.827224,471.548985 C155.663196,490.806415 124.367301,488.011292 156.745423,470.317585 L156.827224,471.548985 Z" id="Path-18" fill="#D0021B"></path>
            <path d="M179.275756,473.364963 C178.111729,492.622393 146.815834,489.82727 179.193955,472.133563 L179.275756,473.364963 Z" id="Path-18-Copy-2" fill="#D0021B"></path>
            <path d="M192.646416,484.152632 C191.482388,503.410062 160.186494,500.614939 192.564615,482.921232 L192.646416,484.152632 Z" id="Path-18-Copy-3" fill="#D0021B"></path>
            <path d="M93.4191339,470.899882 C92.4786481,490.942828 67.1928661,488.033691 93.3530422,469.618253 L93.4191339,470.899882 Z" id="Path-18-Copy-3" fill="#000099"></path>
            <path d="M153.291752,489.693165 C151.532801,501.548458 132.207897,501.559547 142.265586,493.725182 C145.123697,491.498878 149.342796,490.573645 152.881401,488.997877 L153.291752,489.693165 Z" id="Path-19" fill="#D0021B"></path>
            <rect id="Rectangle" stroke="#E3DFE4" stroke-width="8" x="-4" y="-3.17578125" width="344.816451" height="563.816406"></rect>
            <path d="M97.5740044,462.229269 L96.4910507,463.32562 C91.88897,463.11394 80.9661784,458.924565 84.0774227,453.817166 L87.027543,457.630762 C88.6548868,454.959324 94.0585173,460.696433 97.5740044,462.229269 Z" id="Path-20" fill="#000000"></path>
            <path d="M51.1840321,450.669888 C48.1969907,457.622923 22.8238009,450.142679 50.9136031,449.326322 L51.1840321,450.669888 Z" id="Path-21" fill="#000099"></path>
            <path d="M75.7124194,444.2314 C74.5483919,463.48883 43.2524971,460.693707 75.6306185,443 L75.7124194,444.2314 Z" id="Path-18" fill="#000099"></path>
            <path d="M35.0674974,469.2314 C33.9034699,488.48883 2.60757508,485.693707 34.9856966,468 L35.0674974,469.2314 Z" id="Path-18-Copy-2" fill="#000099"></path>
            <path d="M51.2638869,460.2314 C50.0998594,479.48883 18.8039646,476.693707 51.1820861,459 L51.2638869,460.2314 Z" id="Path-18-Copy-3" fill="#000099"></path>
            <path d="M27.8870232,442.281629 C26.9465374,462.324574 1.66075544,459.415438 27.8209316,441 L27.8870232,442.281629 Z" id="Path-18-Copy-3" fill="#000099"></path>
            <path d="M72.9117117,462.695288 C71.1527606,474.550582 51.8278566,474.56167 61.8855461,466.727306 C64.7436563,464.501001 68.9627561,463.575769 72.5013611,462 L72.9117117,462.695288 Z" id="Path-19" fill="#000000"></path>
            <path d="M119.300211,263.586875 L158.130556,255.252921 L158.130556,78.9424351 L119.300211,88.5254224 L119.300211,263.586875 Z" id="Path-4" stroke="#D51234" stroke-width="5" fill="url(#linearGradient-6)"></path>
            <polygon id="Path-17" stroke="#391E74" stroke-width="0.25" fill="#391E74" points="161.95527 257.125 174.752643 263.52832 132.581743 271.689453 117.885549 266.680368"></polygon>
        </g>
    </g>
</svg>