<?xml version="1.0" encoding="UTF-8"?>
<svg width="640px" height="841px" viewBox="0 0 640 841" version="1.1" xmlns="http://www.w3.org/2000/svg" xmlns:xlink="http://www.w3.org/1999/xlink">
    <!-- Generator: Sketch 52.6 (67491) - http://www.bohemiancoding.com/sketch -->
    <title>modern</title>
    <desc>Created with Sketch.</desc>
    <defs>
        <linearGradient x1="2.71244518%" y1="1.55557753%" x2="55.9621711%" y2="55.2897547%" id="linearGradient-1">
            <stop stop-color="#0B121D" offset="0%"></stop>
            <stop stop-color="#FCF4E0" offset="100%"></stop>
        </linearGradient>
        <linearGradient x1="50%" y1="0%" x2="50%" y2="50%" id="linearGradient-2">
            <stop stop-color="#667A82" offset="0%"></stop>
            <stop stop-color="#D8D8D8" offset="100%"></stop>
        </linearGradient>
        <polygon id="path-3" points="494 393 496.230469 393 496.230469 457.950195 494 457.950195"></polygon>
        <filter x="-67.3%" y="-2.3%" width="234.5%" height="104.6%" filterUnits="objectBoundingBox" id="filter-4">
            <feGaussianBlur stdDeviation="1.5" in="SourceAlpha" result="shadowBlurInner1"></feGaussianBlur>
            <feOffset dx="0" dy="0" in="shadowBlurInner1" result="shadowOffsetInner1"></feOffset>
            <feComposite in="shadowOffsetInner1" in2="SourceAlpha" operator="arithmetic" k2="-1" k3="1" result="shadowInnerInner1"></feComposite>
            <feColorMatrix values="0 0 0 0 0.992156863   0 0 0 0 0.960784314   0 0 0 0 0.882352941  0 0 0 1 0" type="matrix" in="shadowInnerInner1"></feColorMatrix>
        </filter>
        <polygon id="path-5" points="506 401 508.230469 401 508.230469 465.950195 506 465.950195"></polygon>
        <filter x="-67.3%" y="-2.3%" width="234.5%" height="104.6%" filterUnits="objectBoundingBox" id="filter-6">
            <feGaussianBlur stdDeviation="1.5" in="SourceAlpha" result="shadowBlurInner1"></feGaussianBlur>
            <feOffset dx="0" dy="0" in="shadowBlurInner1" result="shadowOffsetInner1"></feOffset>
            <feComposite in="shadowOffsetInner1" in2="SourceAlpha" operator="arithmetic" k2="-1" k3="1" result="shadowInnerInner1"></feComposite>
            <feColorMatrix values="0 0 0 0 0.992156863   0 0 0 0 0.960784314   0 0 0 0 0.882352941  0 0 0 1 0" type="matrix" in="shadowInnerInner1"></feColorMatrix>
        </filter>
        <polygon id="path-7" points="516 408 518.230469 408 518.230469 472.950195 516 472.950195"></polygon>
        <filter x="-67.3%" y="-2.3%" width="234.5%" height="104.6%" filterUnits="objectBoundingBox" id="filter-8">
            <feGaussianBlur stdDeviation="1.5" in="SourceAlpha" result="shadowBlurInner1"></feGaussianBlur>
            <feOffset dx="0" dy="0" in="shadowBlurInner1" result="shadowOffsetInner1"></feOffset>
            <feComposite in="shadowOffsetInner1" in2="SourceAlpha" operator="arithmetic" k2="-1" k3="1" result="shadowInnerInner1"></feComposite>
            <feColorMatrix values="0 0 0 0 0.992156863   0 0 0 0 0.960784314   0 0 0 0 0.882352941  0 0 0 1 0" type="matrix" in="shadowInnerInner1"></feColorMatrix>
        </filter>
        <polygon id="path-9" points="526 414 528.230469 414 528.230469 478.950195 526 478.950195"></polygon>
        <filter x="-67.3%" y="-2.3%" width="234.5%" height="104.6%" filterUnits="objectBoundingBox" id="filter-10">
            <feGaussianBlur stdDeviation="1.5" in="SourceAlpha" result="shadowBlurInner1"></feGaussianBlur>
            <feOffset dx="0" dy="0" in="shadowBlurInner1" result="shadowOffsetInner1"></feOffset>
            <feComposite in="shadowOffsetInner1" in2="SourceAlpha" operator="arithmetic" k2="-1" k3="1" result="shadowInnerInner1"></feComposite>
            <feColorMatrix values="0 0 0 0 0.992156863   0 0 0 0 0.960784314   0 0 0 0 0.882352941  0 0 0 1 0" type="matrix" in="shadowInnerInner1"></feColorMatrix>
        </filter>
        <polygon id="path-11" points="535 420 537.230469 420 537.230469 484.950195 535 484.950195"></polygon>
        <filter x="-67.3%" y="-2.3%" width="234.5%" height="104.6%" filterUnits="objectBoundingBox" id="filter-12">
            <feGaussianBlur stdDeviation="1.5" in="SourceAlpha" result="shadowBlurInner1"></feGaussianBlur>
            <feOffset dx="0" dy="0" in="shadowBlurInner1" result="shadowOffsetInner1"></feOffset>
            <feComposite in="shadowOffsetInner1" in2="SourceAlpha" operator="arithmetic" k2="-1" k3="1" result="shadowInnerInner1"></feComposite>
            <feColorMatrix values="0 0 0 0 0.992156863   0 0 0 0 0.960784314   0 0 0 0 0.882352941  0 0 0 1 0" type="matrix" in="shadowInnerInner1"></feColorMatrix>
        </filter>
        <polygon id="path-13" points="545 425 547.230469 425 547.230469 489.950195 545 489.950195"></polygon>
        <filter x="-67.3%" y="-2.3%" width="234.5%" height="104.6%" filterUnits="objectBoundingBox" id="filter-14">
            <feGaussianBlur stdDeviation="1.5" in="SourceAlpha" result="shadowBlurInner1"></feGaussianBlur>
            <feOffset dx="0" dy="0" in="shadowBlurInner1" result="shadowOffsetInner1"></feOffset>
            <feComposite in="shadowOffsetInner1" in2="SourceAlpha" operator="arithmetic" k2="-1" k3="1" result="shadowInnerInner1"></feComposite>
            <feColorMatrix values="0 0 0 0 0.992156863   0 0 0 0 0.960784314   0 0 0 0 0.882352941  0 0 0 1 0" type="matrix" in="shadowInnerInner1"></feColorMatrix>
        </filter>
        <linearGradient x1="77.1152443%" y1="32.7974246%" x2="-14.2687819%" y2="56.8616214%" id="linearGradient-15">
            <stop stop-color="#3E6540" offset="0%"></stop>
            <stop stop-color="#172B18" offset="100%"></stop>
        </linearGradient>
        <polygon id="path-16" points="341 318 353.952842 318 354.076172 442.914062 342.619105 440.054776"></polygon>
        <filter x="-42.1%" y="-4.4%" width="184.1%" height="108.8%" filterUnits="objectBoundingBox" id="filter-17">
            <feGaussianBlur stdDeviation="2.5" in="SourceAlpha" result="shadowBlurInner1"></feGaussianBlur>
            <feOffset dx="6" dy="5" in="shadowBlurInner1" result="shadowOffsetInner1"></feOffset>
            <feComposite in="shadowOffsetInner1" in2="SourceAlpha" operator="arithmetic" k2="-1" k3="1" result="shadowInnerInner1"></feComposite>
            <feColorMatrix values="0 0 0 0 0   0 0 0 0 0   0 0 0 0 0  0 0 0 0.5 0" type="matrix" in="shadowInnerInner1"></feColorMatrix>
        </filter>
        <linearGradient x1="50%" y1="55.2526471%" x2="50%" y2="100%" id="linearGradient-18">
            <stop stop-color="#485555" offset="0%"></stop>
            <stop stop-color="#283939" offset="100%"></stop>
        </linearGradient>
        <linearGradient x1="50%" y1="47.070391%" x2="50%" y2="60.2979042%" id="linearGradient-19">
            <stop stop-color="#47534F" offset="0%"></stop>
            <stop stop-color="#6D705B" offset="100%"></stop>
        </linearGradient>
        <linearGradient x1="50%" y1="17.3506691%" x2="50%" y2="81.3306495%" id="linearGradient-20">
            <stop stop-color="#121B24" offset="0%"></stop>
            <stop stop-color="#364B46" offset="100%"></stop>
        </linearGradient>
        <linearGradient x1="50%" y1="50%" x2="50%" y2="100%" id="linearGradient-21">
            <stop stop-color="#4C3C37" offset="0%"></stop>
            <stop stop-color="#DAAB76" offset="100%"></stop>
        </linearGradient>
        <linearGradient x1="100%" y1="80.9062391%" x2="61.8498329%" y2="50%" id="linearGradient-22">
            <stop stop-color="#4F626A" offset="0%"></stop>
            <stop stop-color="#585861" offset="0.438668344%"></stop>
            <stop stop-color="#9F041B" offset="100%"></stop>
        </linearGradient>
        <linearGradient x1="50%" y1="27.3319869%" x2="50%" y2="100%" id="linearGradient-23">
            <stop stop-color="#544133" offset="0%"></stop>
            <stop stop-color="#DDBB5A" offset="80.2042615%"></stop>
            <stop stop-color="#E2C05C" offset="100%"></stop>
        </linearGradient>
        <linearGradient x1="50%" y1="0%" x2="50%" y2="100%" id="linearGradient-24">
            <stop stop-color="#22202B" offset="0%"></stop>
            <stop stop-color="#0F0E13" offset="100%"></stop>
        </linearGradient>
        <linearGradient x1="50%" y1="95.324707%" x2="50%" y2="67.6426479%" id="linearGradient-25">
            <stop stop-color="#51EA05" offset="0%"></stop>
            <stop stop-color="#D0021B" offset="100%"></stop>
        </linearGradient>
        <linearGradient x1="74.2973157%" y1="18.4134451%" x2="25.4118744%" y2="85.3830853%" id="linearGradient-26">
            <stop stop-color="#5FA363" offset="0%"></stop>
            <stop stop-color="#1F3820" offset="88.3752933%"></stop>
            <stop stop-color="#172B18" offset="100%"></stop>
        </linearGradient>
        <linearGradient x1="50%" y1="0%" x2="50%" y2="45.7240086%" id="linearGradient-27">
            <stop stop-color="#828E8E" offset="0%"></stop>
            <stop stop-color="#D8D8D8" offset="100%"></stop>
        </linearGradient>
        <linearGradient x1="50%" y1="0%" x2="44.4451904%" y2="56.0728901%" id="linearGradient-28">
            <stop stop-color="#879BA3" offset="0%"></stop>
            <stop stop-color="#4F626A" offset="100%"></stop>
        </linearGradient>
        <polygon id="path-29" points="89.2468175 496.518555 95 497.687012 65.546875 498.277344"></polygon>
        <filter x="-5.1%" y="-85.3%" width="110.2%" height="270.6%" filterUnits="objectBoundingBox" id="filter-30">
            <feGaussianBlur stdDeviation="1.5" in="SourceAlpha" result="shadowBlurInner1"></feGaussianBlur>
            <feOffset dx="0" dy="0" in="shadowBlurInner1" result="shadowOffsetInner1"></feOffset>
            <feComposite in="shadowOffsetInner1" in2="SourceAlpha" operator="arithmetic" k2="-1" k3="1" result="shadowInnerInner1"></feComposite>
            <feColorMatrix values="0 0 0 0 0.992156863   0 0 0 0 0.960784314   0 0 0 0 0.882352941  0 0 0 1 0" type="matrix" in="shadowInnerInner1"></feColorMatrix>
        </filter>
    </defs>
    <g id="modern2" stroke="none" stroke-width="1" fill="none" fill-rule="evenodd">
        <g id="modern">
            <rect id="Rectangle" fill="url(#linearGradient-1)" x="0" y="0" width="640" height="841"></rect>
            <path d="M34.4101562,410.601562 C28.4695292,458.766932 29.8844392,439.104633 31.4023437,517.890625 C31.6362993,530.033956 39.1321915,532.729842 33.9804687,544.84375" id="Path-2" stroke="#979797" fill="#010103"></path>
            <path d="M11.7773438,426.476562 C20.7870538,446.512649 8.0840994,416.711377 18.1445313,473.742188 C18.9611489,478.371449 22.3642184,482.177508 23.8632813,486.632812 C30.0883436,505.134068 28.8766954,524.962174 23.2070313,543.316406" id="Path-6" stroke="#979797" fill="#010103"></path>
            <path d="M49.7617188,430.300781 C49.2773438,463.796875 49.1339477,497.299636 48.3085938,530.789062 C48.1206961,538.413165 47.9468234,546.085755 46.7226562,553.613281 C46.4880601,555.055837 45.7539062,550.855469 45.2695312,549.476562" id="Path-7" stroke="#979797" fill="#010103"></path>
            <path d="M11.2929688,435.097656 C15.7210232,475.212738 21.1076022,506.567952 20.6445312,545.234375 C20.6285166,546.571595 19.5377604,547.669271 18.984375,548.886719" id="Path-8" stroke="#979797" fill="#010103"></path>
            <path d="M16.7773438,417.003906 C16.7773438,450.217848 6.14971949,483.217985 9.6796875,516.429688 C10.00468,519.487379 14.5581133,520.764186 15.2929688,523.75" id="Path-9" stroke="#979797" fill="#010103"></path>
            <path d="M40.78125,542.773438 C42.4395225,456.674274 57.8292569,465.256878 28.265625,419.417969" id="Path-10" stroke="#979797" fill="#010103"></path>
            <path d="M56.8554687,554.601562 C56.7526042,540.364583 59.0728465,525.902107 56.546875,511.890625 C50.0226588,475.701009 31.7615528,466.294432 44.0078125,437.113281" id="Path-11" stroke="#979797" fill="#010103"></path>
            <path d="M69.90625,556.851562 C69.90625,458.43755 73.924973,498.022341 65.546875,437.566406" id="Path-12" stroke="#979797" fill="#010103"></path>
            <path d="M36.3710938,420.398438 C28.1111984,450.131372 -1.65863849,512.451576 28.1484375,543.898438" id="Path-13" stroke="#979797" fill="#010103"></path>
            <path d="M11.3515625,551.929688 C17.4795788,501.731087 18.3271538,450.577411 14.09375,400.1875" id="Path-14" stroke="#979797" fill="#010103"></path>
            <path d="M6.80078125,554.378906 C6.80078125,408.092488 16.1596253,457.29525 5.609375,404.128906" id="Path-15" stroke="#979797" fill="#010103"></path>
            <path d="M27.359375,551.730469 C30.1940104,541.265625 34.5990861,531.103942 35.8632812,520.335938 C40.966237,476.870615 35.3535707,462.145675 45.3125,426.867188" id="Path-16" stroke="#979797" fill="#010103"></path>
            <path d="M57.96875,547.988281 C57.0459403,513.901999 58.4255248,485.361308 40.9882812,454.863281" id="Path-17" stroke="#979797" fill="#010103"></path>
            <path d="M67.390625,551.699219 C61.638887,438.267673 67.2028344,479.868463 59.2226562,426.050781" id="Path-18" stroke="#979797" fill="#010103"></path>
            <path d="M82.8554687,547.910156 C72.232774,466.981995 40.0703793,483.560624 45.328125,413.398438" id="Path-19" stroke="#979797" fill="#010103"></path>
            <path d="M40.1679688,555.167969 C44.0866787,526.746808 41.9804738,495.207282 50.7382813,467.824219 C63.9927034,426.381577 61.2617188,460.374408 61.2617188,422.484375" id="Path-20" stroke="#979797" fill="#010103"></path>
            <path d="M64.546875,548.421875 C66.5581572,514.972704 64.1922829,565.518507 62.1367187,503.988281 C61.4335549,482.940128 62.1367187,461.86849 62.1367187,440.808594" id="Path-21" stroke="#979797" fill="#010103"></path>
            <path d="M86.5117188,533.148437 C85.6677399,480.058279 90.3851162,456.632543 67.1875,414.222656" id="Path-22" stroke="#979797" fill="#010103"></path>
            <path d="M86.4960938,533.535156 C86.7486979,538.697917 87.0013021,543.860677 87.2539062,549.023438" id="Path-23" stroke="#979797"></path>
            <path d="M90.5429688,545.679688 C58.517628,484.640088 57.9332985,484.113232 59.5195312,417.113281" id="Path-24" stroke="#979797" fill="#010103"></path>
            <path d="M3.07421875,548.496094 C2.23386764,527.014758 -0.274926716,478.642796 2.109375,459.9375 C14.0589932,366.190496 10.9375,512.996114 10.9375,412.140625" id="Path-25" stroke="#979797" fill="#010103"></path>
            <path d="M13.6796875,551.652344 C17.2018229,531.832031 21.6992414,512.160477 24.2460938,492.191406 C25.8738071,479.429016 22.5509081,468.31635 26.5195312,456.542969 C31.8916574,440.605933 40.4902273,441.403795 43.9648438,421.6875" id="Path-26" stroke="#979797" fill="#010103"></path>
            <path d="M43.375,553.285156 C48.5930508,514.591303 25.046875,483.780967 25.046875,446.425781" id="Path-27" stroke="#979797" fill="#010103"></path>
            <path d="M58.0273438,525.128906 C58.10663,490.636962 69.6677234,427.229978 49.625,387.144531" id="Path-28" stroke="#979797" fill="#010103"></path>
            <path d="M51.78125,490.585938 C53.0320008,475.09587 52.0485599,493.582866 37.3398438,454.816406 C33.0581402,443.5315 30.1419271,431.77474 26.5429688,420.253906" id="Path-29" stroke="#979797" fill="#010103"></path>
            <path d="M50.2929688,509.960938 C45.5734863,489.535017 36.3290446,461.784449 46.5703125,443.027344" id="Path-30" stroke="#979797" fill="#010103"></path>
            <path d="M55.1640625,550.679688 C44.9901811,509.885121 37.6172902,479.532063 44.4960938,438.914062" id="Path-31" stroke="#979797" fill="#010103"></path>
            <path d="M69.5273438,549.039062 C75.5843267,513.489232 71.3764158,485.094221 61.8359375,452.601562" id="Path-32" stroke="#979797" fill="#010103"></path>
            <path d="M40.5195312,418.878906 C39.8528646,465.130208 39.1861979,511.38151 38.5195312,557.632812" id="Path-3" stroke="#979797" fill="#010103"></path>
            <path d="M56.0585938,436.238281 C65.3783876,474.773493 60.1663641,520.793606 59.875,557.902344" id="Path-5" stroke="#090303" fill="#010103"></path>
            <path d="M477,350 L568.507812,424.011719 L568.507812,532.588867 C548.45584,529.207139 533.204538,527.516275 522.753906,527.516275 C512.303274,527.516275 497.051972,527.516275 477,527.516275 L477,350 Z" id="Rectangle" fill="url(#linearGradient-2)"></path>
            <g id="Rectangle">
                <use fill="#B8D148" fill-rule="evenodd" xlink:href="#path-3"></use>
                <use fill="black" fill-opacity="1" filter="url(#filter-4)" xlink:href="#path-3"></use>
                <path stroke="#8A979D" stroke-width="0.5" d="M494.25,393.25 L494.25,457.700195 L495.980469,457.700195 L495.980469,393.25 L494.25,393.25 Z" stroke-linejoin="square"></path>
            </g>
            <g id="Rectangle-Copy">
                <use fill="#B8D148" fill-rule="evenodd" xlink:href="#path-5"></use>
                <use fill="black" fill-opacity="1" filter="url(#filter-6)" xlink:href="#path-5"></use>
                <path stroke="#86959A" stroke-width="0.5" d="M506.25,401.25 L506.25,465.700195 L507.980469,465.700195 L507.980469,401.25 L506.25,401.25 Z" stroke-linejoin="square"></path>
            </g>
            <g id="Rectangle-Copy-2">
                <use fill="#B8D148" fill-rule="evenodd" xlink:href="#path-7"></use>
                <use fill="black" fill-opacity="1" filter="url(#filter-8)" xlink:href="#path-7"></use>
                <path stroke="#7A8A91" stroke-width="0.5" d="M516.25,408.25 L516.25,472.700195 L517.980469,472.700195 L517.980469,408.25 L516.25,408.25 Z" stroke-linejoin="square"></path>
            </g>
            <g id="Rectangle-Copy-3">
                <use fill="#B8D148" fill-rule="evenodd" xlink:href="#path-9"></use>
                <use fill="black" fill-opacity="1" filter="url(#filter-10)" xlink:href="#path-9"></use>
                <path stroke="#979797" stroke-width="0.5" d="M526.25,414.25 L526.25,478.700195 L527.980469,478.700195 L527.980469,414.25 L526.25,414.25 Z" stroke-linejoin="square"></path>
            </g>
            <g id="Rectangle-Copy-6">
                <use fill="#B8D148" fill-rule="evenodd" xlink:href="#path-11"></use>
                <use fill="black" fill-opacity="1" filter="url(#filter-12)" xlink:href="#path-11"></use>
                <path stroke="#979797" stroke-width="0.5" d="M535.25,420.25 L535.25,484.700195 L536.980469,484.700195 L536.980469,420.25 L535.25,420.25 Z" stroke-linejoin="square"></path>
            </g>
            <g id="Rectangle-Copy-5">
                <use fill="#B8D148" fill-rule="evenodd" xlink:href="#path-13"></use>
                <use fill="black" fill-opacity="1" filter="url(#filter-14)" xlink:href="#path-13"></use>
                <path stroke="#979797" stroke-width="0.5" d="M545.25,425.25 L545.25,489.700195 L546.980469,489.700195 L546.980469,425.25 L545.25,425.25 Z" stroke-linejoin="square"></path>
            </g>
            <polygon id="Rectangle" fill="#D8D8D8" points="261.103473 542 274.042969 542 108.077281 617.595703 95 613.861849"></polygon>
            <path d="M139.841797,608.730469 L194,619.658203 L178.224609,626.771484 C137.525585,618.715139 115.857616,614.249644 113.220703,613.375 C110.58379,612.500356 115.289519,610.952179 127.337891,608.730469 L139.841797,608.730469 Z" id="Rectangle" fill="#D8D8D8"></path>
            <path d="M1.39176888e-14,546.73131 L95,540.952223 L247.28125,525.547525 C271.3008,532.584665 277.221372,537.755745 265.042969,541.060765 C252.864565,544.365785 204.054669,546.255966 118.613281,546.73131 L-2.84217094e-14,571.773763 L1.39176888e-14,546.73131 Z" id="Rectangle" fill="#010103"></path>
            <polygon id="Rectangle" fill="#D8D8D8" points="554.058594 471.492188 640 466.322266 640 568.537109 554.058594 599"></polygon>
            <path d="M338.234179,603.570426 L235.061994,652.799664 L639.75,724.280097 L639.75,543.81399 C577.120756,540.484191 526.907404,542.561676 489.113106,550.044468 C451.270213,557.536881 400.975632,575.378796 338.234179,603.570426 Z M338.234179,603.570426 C338.233309,603.570817 338.232438,603.571208 338.231567,603.571599 L338.236764,603.569192 L338.234179,603.570426 Z" id="Rectangle" stroke="#979797" stroke-width="0.5" fill="url(#linearGradient-15)"></path>
            <g id="Rectangle">
                <use fill="#FAE6AD" fill-rule="evenodd" xlink:href="#path-16"></use>
                <use fill="black" fill-opacity="1" filter="url(#filter-17)" xlink:href="#path-16"></use>
            </g>
            <polygon id="Rectangle" fill="url(#linearGradient-18)" points="194 294.191406 346 328.307625 346 435.914062 270 414.434371 194 429.413929"></polygon>
            <polygon id="Rectangle" fill="#D6D6D6" points="65.3242378 392.097656 89.4492378 387 89.2468175 496.518779 65.546875 498.277344"></polygon>
            <polygon id="Rectangle" fill="url(#linearGradient-19)" points="385 181 478.511719 280.522758 478.511719 527.15738 418.285156 527.15738 385 543.542969"></polygon>
            <polygon id="Rectangle" fill="url(#linearGradient-20)" points="353 198.977097 385 181 385 543.023437 353 543.023437"></polygon>
            <polygon id="Rectangle" fill="#0F090B" points="194 294.175781 353.269531 199 353.269531 329.270526 345.101563 329.270526"></polygon>
            <polygon id="Rectangle" fill="#E7C7A1" points="89.2468175 387 144.963614 399.621276 144.963614 497.010684 111.681671 500.277344 89.2468175 497.010684"></polygon>
            <polygon id="Rectangle" fill="url(#linearGradient-21)" points="139.841797 400.454781 194 380.314453 194 434.721765 170.855469 440.97797 170.855469 490.999776 139.841797 494.353516"></polygon>
            <polygon id="Rectangle" fill="url(#linearGradient-22)" points="170.674766 433.537915 270.923828 410 270.923828 544.717013 95 550.087891 95 498.013732 170.674766 489.428708"></polygon>
            <polygon id="Rectangle" fill="url(#linearGradient-23)" points="271 410 353.076172 436.64545 353.076172 544.951172 271 544.951172"></polygon>
            <polygon id="Rectangle" fill="#18101C" points="484.145508 456.779297 504.230469 454.72168 504.230469 530.620117 484.145508 529.171875"></polygon>
            <polygon id="Rectangle" fill="url(#linearGradient-24)" points="503.805664 454.72168 559.483398 477.744141 559.483398 533.101562 503.805664 530.620117"></polygon>
            <path d="M437.125,613 L640,644.5" id="Path-4" stroke="#559359"></path>
            <path d="M488.125,585 L640,603" id="Path-4" stroke="#559258"></path>
            <path d="M488.125,561 L640,579" id="Path-4" stroke="#56955A"></path>
            <path d="M444.125,591 L640,615.5" id="Path-4" stroke="#4E8852"></path>
            <polygon id="Rectangle" fill="url(#linearGradient-25)" opacity="0.632672991" points="487 468.260254 490 468 490 527.467285 487 527.467285"></polygon>
            <polygon id="Rectangle-Copy-8" fill="url(#linearGradient-25)" opacity="0.632672991" points="491 468.260254 494 468 494 527.467285 491 527.467285"></polygon>
            <polygon id="Rectangle-Copy-9" fill="url(#linearGradient-25)" opacity="0.632672991" points="495 468.260254 498 468 498 527.467285 495 527.467285"></polygon>
            <path d="M157.5,601.5 L243,604.5" id="Line" stroke="#979797" stroke-linecap="square"></path>
            <path d="M123.5,608.730469 L229.5,612.5" id="Line-Copy-7" stroke="#979797" stroke-linecap="square"></path>
            <path d="M178.5,592.5 L263.071289,595.5" id="Line-Copy" stroke="#979797" stroke-linecap="square"></path>
            <path d="M198.5,583.5 L273.634766,586.5" id="Line-Copy-2" stroke="#979797" stroke-linecap="square"></path>
            <path d="M217.5,575.5 L286.359375,577.868164" id="Line-Copy-3" stroke="#979797" stroke-linecap="square"></path>
            <path d="M230.5,567.5 L301.5,570.5" id="Line-Copy-4" stroke="#979797" stroke-linecap="square"></path>
            <path d="M243.5,560.5 L312.038086,563.5" id="Line-Copy-5" stroke="#979797" stroke-linecap="square"></path>
            <path d="M261.5,553.5 L328.5,555.167969" id="Line-Copy-6" stroke="#979797" stroke-linecap="square"></path>
            <polygon id="Rectangle" fill="url(#linearGradient-26)" points="417.761719 525.547525 478.511719 525.547525 484.145508 528.795076 286.359375 649.652344 178.224609 627.339398 353 541.972784 381.945312 541.904661"></polygon>
            <polygon id="Rectangle" fill="url(#linearGradient-27)" points="478.511719 525.547525 614.441406 530.620117 614.441406 549.236328 488.355469 560.15625 488.355469 584.720703 444.742188 590.550293 444.742188 614.714844 286.359375 649.652344"></polygon>
            <path d="M0.25,588.30898 L0.25,840.699219 L639.75,840.699219 L639.75,724.780403 L0.25,588.30898 Z" id="driveway" stroke="#18171E" stroke-width="0.5" fill="url(#linearGradient-28)"></path>
            <polygon id="Path" stroke="#828E8E" fill="#828E8E" points="123.348633 608.730469 141.232422 608.730469 141.232422 601.813477 162.898438 601.813477 162.898438 592.644531 181.900391 592.644531 181.900391 583.773763 199.955078 583.773763 199.955078 575.397461 217.717773 575.397461 217.717773 567.624023 234.303711 567.624023 234.303711 560.484375 249.708008 560.484375 249.708008 553.555664 263.071289 553.555664 263.071289 547.005859"></polygon>
            <g id="Triangle">
                <use fill="#010103" fill-rule="evenodd" xlink:href="#path-29"></use>
                <use fill="black" fill-opacity="1" filter="url(#filter-30)" xlink:href="#path-29"></use>
            </g>
            <path d="M0.107086168,595.599934 L640,732.578125" id="Line-2" stroke="#47534F" stroke-width="0.5" opacity="0.28" stroke-linecap="square"></path>
            <path d="M0.107086168,610.099934 L640,747.078125" id="Line-2-Copy" stroke="#47534F" stroke-width="0.5" opacity="0.28" stroke-linecap="square"></path>
            <path d="M0.107086168,624.099934 L640,761.078125" id="Line-2-Copy-2" stroke="#47534F" stroke-width="0.5" opacity="0.28" stroke-linecap="square"></path>
            <path d="M0.107086168,638.099934 L640,775.078125" id="Line-2-Copy-3" stroke="#47534F" stroke-width="0.5" opacity="0.28" stroke-linecap="square"></path>
            <path d="M0.107086168,652.099934 L640,789.078125" id="Line-2-Copy-4" stroke="#47534F" stroke-width="0.5" opacity="0.28" stroke-linecap="square"></path>
        </g>
    </g>
</svg>