<?xml version="1.0" encoding="UTF-8"?>
<svg width="216px" height="416px" viewBox="0 0 216 416" version="1.1" xmlns="http://www.w3.org/2000/svg" xmlns:xlink="http://www.w3.org/1999/xlink">
    <!-- Generator: Sketch 52.6 (67491) - http://www.bohemiancoding.com/sketch -->
    <title>modernfat</title>
    <desc>Created with Sketch.</desc>
    <defs>
        <linearGradient x1="0%" y1="17.6045186%" x2="50%" y2="100%" id="linearGradient-1">
            <stop stop-color="#818181" offset="0%"></stop>
            <stop stop-color="#4A4A4A" offset="100%"></stop>
        </linearGradient>
        <linearGradient x1="50%" y1="36.8655457%" x2="50%" y2="100%" id="linearGradient-2">
            <stop stop-color="#FDB614" offset="0%"></stop>
            <stop stop-color="#F7D07A" offset="100%"></stop>
        </linearGradient>
        <ellipse id="path-3" cx="103.209538" cy="256.237197" rx="3.01782274" ry="1.09973046"></ellipse>
        <filter x="-33.1%" y="-90.9%" width="166.3%" height="281.9%" filterUnits="objectBoundingBox" id="filter-4">
            <feGaussianBlur stdDeviation="1.5" in="SourceAlpha" result="shadowBlurInner1"></feGaussianBlur>
            <feOffset dx="0" dy="1" in="shadowBlurInner1" result="shadowOffsetInner1"></feOffset>
            <feComposite in="shadowOffsetInner1" in2="SourceAlpha" operator="arithmetic" k2="-1" k3="1" result="shadowInnerInner1"></feComposite>
            <feColorMatrix values="0 0 0 0 0.326453408   0 0 0 0 0.987484056   0 0 0 0 0.657080999  0 0 0 0.5 0" type="matrix" in="shadowInnerInner1"></feColorMatrix>
        </filter>
        <linearGradient x1="50%" y1="15.4872649%" x2="50%" y2="50%" id="linearGradient-5">
            <stop stop-color="#FDC545" offset="0%"></stop>
            <stop stop-color="#FBF2B1" offset="100%"></stop>
        </linearGradient>
    </defs>
    <g id="modern3-copy" stroke="none" stroke-width="1" fill="none" fill-rule="evenodd">
        <g id="modernfat" transform="translate(3.000000, 4.000000)">
            <g id="Group-5">
                <g id="Group-4" transform="translate(1.207129, 0.000000)">
                    <rect id="Rectangle-Copy-27" fill="#FFFFFF" x="0" y="0" width="207.626204" height="398.102426"></rect>
                    <path d="M207.626204,6.8369104 L91.6901905,19.781023 L207.626204,27.5478289 L207.626204,408 L0,408 L0,63.3947436 L121.418833,76.0677966 L45.5067523,62.1382199 L104.111875,53.9905755 L7.10542736e-15,38.3353648 L0,0 L207.626204,0 L207.626204,6.8369104 Z" id="Combined-Shape" fill="#B1CDED"></path>
                </g>
                <polygon id="Rectangle" fill="url(#linearGradient-1)" opacity="0.39953032" points="1.20712909 307.200682 208.833333 308.04416 208.24863 408 1.20712909 408"></polygon>
                <path d="M25.5194635,364.079515 C29.1675711,365.590212 34.9816818,372.0035 36.4637863,368.611607 L39.6796536,372.9375 C42.5132214,366.452695 31.213404,362.452516 26.5474094,362.646858" id="Path-20" fill="#FBB731"></path>
                <polygon id="Rectangle" fill="#FBF2B1" points="0.605922221 216.333305 70.2883753 230.943396 71.6414839 254.652038 132.030565 265.191838 179.631183 317.708263 0.605922221 321.497178"></polygon>
                <polygon id="Path-9" fill="url(#linearGradient-2)" points="197.441053 152.510276 159.048613 158.919643 159.048613 265.191838 133.991329 265.191838 133.991329 317.931646 180.204344 317.931646 180.204344 283.805635 197.441053 283.805635 197.441053 257.336927 180.204344 252.748989 180.204344 175.810815 197.441053 173.104447"></polygon>
                <polygon id="Path-10" fill="#FD900F" opacity="0.401297433" points="160.317118 265.191838 135.198459 288.846782 135.198459 265.191838"></polygon>
                <polygon id="Path-7" fill="#CDC894" opacity="0.466122582" points="63.977842 252.452577 91.7418112 283.09402 123.127168 287.104826 127.955684 264.980286"></polygon>
                <polygon id="Path" fill="#2071B9" points="63.977842 283.451921 63.977842 321.497178 107.634892 321.497178 107.634892 280.431267"></polygon>
                <polygon id="Path-8" fill="#40BCAC" points="140.026975 257.336927 160.317118 265.191838 135.198459 265.191838"></polygon>
                <polygon id="Path-6" fill="#3DBBAC" points="63.977842 254.652038 108.641618 249.498663 117.851872 251.649259 117.851872 255.403754 117.851872 265.191838"></polygon>
                <polygon id="Path-3" fill="#D0142C" points="123.820324 251.649259 117.851872 251.649259 117.851872 283.335596 123.820324 284.905366"></polygon>
                <polyline id="Path-2" fill="#31102A" points="107.634892 280.431267 123.596345 283.668169 123.596345 252.748989 139.223008 258.232606 139.223008 314.26731 160.317118 314.26731 160.317118 318.494399 107.634892 321.497178"></polyline>
                <g id="Group" transform="translate(100.191715, 54.986523)" fill="#300E36">
                    <polygon id="Path-4-Copy" fill-opacity="0.871999547" points="0 0 0 133.717189 8.09080741 138.522774 8.09080741 194.395487 60.999526 210.048518 60.999526 104.342806 88.1204239 98.6336241 14.8011815 31.9714169 14.8011815 14.6077782"></polygon>
                    <path d="M76.0491329,87.6583484 L76.0491329,101.174734 L71.2206166,102.191178 L71.2206166,83.2682382 L76.0491329,87.6583484 Z M77.256262,88.755876 L88.1204239,98.6336241 L77.256262,100.920623 L77.256262,88.755876 Z M70.0134875,82.1707106 L70.0134875,102.44529 L65.1849711,103.461734 L65.1849711,77.7806003 L70.0134875,82.1707106 Z M63.977842,76.6830728 L63.977842,103.715845 L60.999526,104.342806 L60.999526,210.048518 L59.1493256,209.501136 L59.1493256,72.2929625 L63.977842,76.6830728 Z M57.9421965,71.1954349 L57.9421965,209.144007 L53.1136802,207.715492 L53.1136802,66.8053246 L57.9421965,71.1954349 Z M51.9065511,65.7077971 L51.9065511,207.358363 L47.0780347,205.929848 L47.0780347,61.3176868 L51.9065511,65.7077971 Z M45.8709056,60.2201592 L45.8709056,205.572719 L41.0423892,204.144204 L41.0423892,55.830049 L45.8709056,60.2201592 Z M39.8352601,54.7325214 L39.8352601,203.787075 L35.0067437,202.35856 L35.0067437,50.3424111 L39.8352601,54.7325214 Z M33.7996146,49.2448836 L33.7996146,202.001431 L28.9710983,200.572916 L28.9710983,44.8547733 L33.7996146,49.2448836 Z M27.7639692,43.7572457 L27.7639692,200.215787 L22.9354528,198.787271 L22.9354528,39.3671355 L27.7639692,43.7572457 Z M21.7283237,38.2696079 L21.7283237,198.430143 L16.8998073,197.001627 L16.8998073,33.8794976 L21.7283237,38.2696079 Z M15.6926782,32.78197 L15.6926782,196.644498 L10.8641618,195.215983 L10.8641618,10.7222026 L14.8011815,14.6077782 L14.8011815,31.9714169 L15.6926782,32.78197 Z M9.65703276,9.53084674 L9.65703276,194.858854 L8.09080741,194.395487 L8.09080741,138.522774 L4.82851638,136.585116 L4.82851638,4.76542337 L9.65703276,9.53084674 Z M3.62138728,3.57406753 L3.62138728,135.868134 L0,133.717189 L0,0 L3.62138728,3.57406753 Z" id="Combined-Shape"></path>
                </g>
                <g id="Group-2" transform="translate(60.356455, 95.676550)" fill="#2071B9">
                    <polygon id="Path-5-Copy" fill-opacity="0.703832654" points="12.960134 0 0 3.35074124 0 135.419348 4.06698767 136.684468 4.06698767 158.975489 47.7240374 154.168464 47.7240374 97.775059 23.8620187 101.707884 12.960134 99.2184552"></polygon>
                    <path d="M44.6637765,154.505425 L41.0423892,154.904172 L41.0423892,98.8762966 L44.6637765,98.2794367 L44.6637765,154.505425 Z M45.8709056,154.37251 L45.8709056,98.0804834 L47.7240374,97.775059 L47.7240374,154.168464 L45.8709056,154.37251 Z M39.8352601,155.037087 L36.2138728,155.435834 L36.2138728,99.6721099 L39.8352601,99.0752499 L39.8352601,155.037087 Z M35.0067437,155.568749 L31.3853565,155.967496 L31.3853565,100.467923 L35.0067437,99.8710632 L35.0067437,155.568749 Z M30.1782274,156.100412 L26.5568401,156.499158 L26.5568401,101.263736 L30.1782274,100.666876 L30.1782274,156.100412 Z M25.349711,156.632074 L21.7283237,157.03082 L21.7283237,101.220658 L23.8620187,101.707884 L25.349711,101.46269 L25.349711,156.632074 Z M20.5211946,157.163736 L16.8998073,157.562482 L16.8998073,100.118074 L20.5211946,100.945012 L20.5211946,157.163736 Z M15.6926782,157.695398 L12.0712909,158.094144 L12.0712909,0.229803429 L12.960134,0 L12.960134,99.2184552 L15.6926782,99.8424275 L15.6926782,157.695398 Z M10.8641618,158.22706 L7.24277457,158.625806 L7.24277457,1.47817855 L10.8641618,0.54189721 L10.8641618,158.22706 Z M6.03564547,158.758722 L4.06698767,158.975489 L4.06698767,136.684468 L2.41425819,136.170352 L2.41425819,2.72655368 L6.03564547,1.79027233 L6.03564547,158.758722 Z M1.20712909,135.79485 L0,135.419348 L0,3.35074124 L1.20712909,3.03864746 L1.20712909,135.79485 Z" id="Combined-Shape"></path>
                </g>
                <g id="Oval">
                    <use fill="#B9F7D5" fill-rule="evenodd" xlink:href="#path-3"></use>
                    <use fill="black" fill-opacity="1" filter="url(#filter-4)" xlink:href="#path-3"></use>
                </g>
                <polygon id="Path-11" fill="#D1152B" points="188.312139 144.264446 188.312139 175.617503 208.585778 172.389193 208.585778 139.042874"></polygon>
                <polygon id="Path-12" fill="#FBF2B1" points="180.199382 175.617503 208.585778 171.390414 208.585778 251.135908 180.199382 252.748989"></polygon>
                <polygon id="Path-13" fill="#3E1E79" points="180.199382 252.748989 208.585778 251.135908 208.585778 257.336927 197.441053 257.336927"></polygon>
                <polygon id="Path-14" fill="#246FBE" points="197.441053 257.336927 208.585778 257.336927 208.585778 283.805635 197.441053 283.805635"></polygon>
                <polygon id="Path-15" fill="#3CBAAB" points="197.441053 257.336927 208.585778 283.805635 197.441053 283.805635"></polygon>
                <polygon id="Path-16" fill="#D01635" opacity="0.661783854" points="152.098266 274.932615 152.098266 298.327662 155.13495 298.327662 155.13495 274.932615"></polygon>
                <g id="Group-3" transform="translate(179.862235, 283.730458)">
                    <polygon id="Path-16-Copy" fill="#1B1464" opacity="0.535063244" points="0 0 0 37.3908356 28.9710983 37.3908356 28.9710983 0"></polygon>
                    <path d="M28.9710983,33.8196571 L0,33.8196571 L0,27.273917 L28.9710983,27.273917 L28.9710983,33.8196571 Z M28.9710983,34.9106138 L28.9710983,37.3908356 L0,37.3908356 L0,34.9106138 L28.9710983,34.9106138 Z M28.9710983,26.1829603 L0,26.1829603 L0,19.6372202 L28.9710983,19.6372202 L28.9710983,26.1829603 Z M28.9710983,18.5462636 L0,18.5462636 L0,12.0005235 L28.9710983,12.0005235 L28.9710983,18.5462636 Z M28.9710983,10.9095668 L0,10.9095668 L0,4.36382672 L28.9710983,4.36382672 L28.9710983,10.9095668 Z M28.9710983,3.27287004 L0,3.27287004 L0,0 L28.9710983,0 L28.9710983,3.27287004 Z" id="Combined-Shape" fill="#D01635"></path>
                    <rect id="Rectangle" fill="#FDB614" x="3.62138728" y="7.69811321" width="8.44990366" height="5.49865229"></rect>
                </g>
                <path d="M74.4277457,67.8290407 L74.4277457,192.852374 L98.1917148,187.861962 L98.1917148,57.9803545 L74.4277457,67.8290407 Z" id="Rectangle" stroke="#D51234" stroke-width="4" fill="url(#linearGradient-5)"></path>
                <polygon id="Path-17" fill="#391E74" points="72.2544566 195.137719 85.7061657 198.314479 108.641618 193.274406 100.191715 188.234333"></polygon>
                <path d="M56.5040154,388.799823 C59.8337087,380.354092 92.0248889,385.976802 56.9213237,390.329136" id="Path-21" fill="#FCB832"></path>
                <path d="M41.0423892,397.770697 C41.0423892,374.354136 72.8557721,374.672909 41.2003534,399.252756" id="Path-18" fill="#FBB731"></path>
                <path d="M18.1069364,397.770697 C18.1069364,374.354136 49.9203193,374.672909 18.2649006,399.252756" id="Path-18-Copy-2" fill="#FBB731"></path>
                <path d="M3.68128263,385.673662 C3.68128263,362.257101 35.4946655,362.575874 3.83924679,387.155721" id="Path-18-Copy-3" fill="#FBB731"></path>
                <path d="M90.5346821,404.36908 C90.5346821,380.952518 122.348065,381.271292 90.6926462,405.851139" id="Path-18-Copy-3" fill="#FBB731"></path>
                <path d="M42.6738996,374.209063 C43.7277962,359.691284 63.2660838,357.786193 53.5757843,368.250758 C50.8220758,371.224491 46.612787,372.757075 43.1312884,375.010234 L42.6738996,374.209063 Z" id="Path-19" fill="#FBB731"></path>
                <rect id="Rectangle" stroke="#E3DFE4" stroke-width="4" x="-0.792870906" y="-2" width="211.626204" height="412"></rect>
            </g>
        </g>
    </g>
</svg>