<?xml version="1.0" encoding="UTF-8"?>
<svg width="353px" height="573px" viewBox="0 0 353 573" version="1.1" xmlns="http://www.w3.org/2000/svg" xmlns:xlink="http://www.w3.org/1999/xlink">
    <!-- Generator: Sketch 52.6 (67491) - http://www.bohemiancoding.com/sketch -->
    <title>Group</title>
    <desc>Created with Sketch.</desc>
    <defs>
        <linearGradient x1="50%" y1="19.765407%" x2="50%" y2="95.0909768%" id="linearGradient-1">
            <stop stop-color="#8DBEEF" offset="0%"></stop>
            <stop stop-color="#F3F3F3" offset="100%"></stop>
        </linearGradient>
        <linearGradient x1="4.02101265%" y1="16.6329175%" x2="56.8643379%" y2="68.0210004%" id="linearGradient-2">
            <stop stop-color="#202020" offset="0%"></stop>
            <stop stop-color="#55495A" offset="100%"></stop>
        </linearGradient>
        <linearGradient x1="50%" y1="36.8655457%" x2="50%" y2="100%" id="linearGradient-3">
            <stop stop-color="#FDB614" offset="0%"></stop>
            <stop stop-color="#F7D07A" offset="100%"></stop>
        </linearGradient>
        <ellipse id="path-4" cx="173.495878" cy="349.70763" rx="4.89558796" ry="1.49815743"></ellipse>
        <filter x="-20.4%" y="-66.7%" width="140.9%" height="233.5%" filterUnits="objectBoundingBox" id="filter-5">
            <feGaussianBlur stdDeviation="1.5" in="SourceAlpha" result="shadowBlurInner1"></feGaussianBlur>
            <feOffset dx="0" dy="1" in="shadowBlurInner1" result="shadowOffsetInner1"></feOffset>
            <feComposite in="shadowOffsetInner1" in2="SourceAlpha" operator="arithmetic" k2="-1" k3="1" result="shadowInnerInner1"></feComposite>
            <feColorMatrix values="0 0 0 0 0.326453408   0 0 0 0 0.987484056   0 0 0 0 0.657080999  0 0 0 0.5 0" type="matrix" in="shadowInnerInner1"></feColorMatrix>
        </filter>
        <linearGradient x1="50%" y1="24.9354198%" x2="50%" y2="65.6713882%" id="linearGradient-6">
            <stop stop-color="#B1122E" offset="0%"></stop>
            <stop stop-color="#D51234" offset="100%"></stop>
        </linearGradient>
        <linearGradient x1="50%" y1="8.86572199%" x2="50%" y2="53.7845048%" id="linearGradient-7">
            <stop stop-color="#FDC545" offset="0%"></stop>
            <stop stop-color="#FBF2B1" offset="100%"></stop>
        </linearGradient>
    </defs>
    <g id="modern3-copy" stroke="none" stroke-width="1" fill="none" fill-rule="evenodd">
        <g id="Group" transform="translate(0.000000, 8.000000)">
            <rect id="Rectangle" fill="#FFFFFF" x="8" y="1" width="340" height="268"></rect>
            <path d="M344.816451,10.1381084 L156.742134,27.7718097 L344.816451,38.3524914 L344.816451,556.640625 L8,556.640625 L8,87.1865682 L204.968685,104.451006 L81.8221983,85.474812 L176.892903,74.3753159 L8,53.0482989 L8,0.82421875 L344.816451,0.82421875 L344.816451,10.1381084 Z" id="Combined-Shape" fill="url(#linearGradient-1)"></path>
            <polygon id="Rectangle" fill="url(#linearGradient-2)" opacity="0.39953032" points="8 430 347.816451 431.057869 346.859483 556.420057 8 556.420057"></polygon>
            <path d="M1.81524547,545.08672 L347.815245,545.08672" id="Line" stroke="#979797" opacity="0.232375372" stroke-linecap="square" transform="translate(174.815245, 545.052750) rotate(3.000000) translate(-174.815245, -545.052750) "></path>
            <path d="M1.81524547,533.08672 L347.815245,533.08672" id="Line-Copy" stroke="#979797" opacity="0.232375372" stroke-linecap="square" transform="translate(174.815245, 533.052750) rotate(3.000000) translate(-174.815245, -533.052750) "></path>
            <path d="M0.581616206,522.199861 L346.581616,522.199861" id="Line-Copy-2" stroke="#979797" opacity="0.232375372" stroke-linecap="square" transform="translate(173.581616, 522.165892) rotate(3.000000) translate(-173.581616, -522.165892) "></path>
            <path d="M1.15731172,511.214937 L347.157312,511.214937" id="Line-Copy-3" stroke="#979797" opacity="0.232375372" stroke-linecap="square" transform="translate(174.157312, 511.180967) rotate(3.000000) translate(-174.157312, -511.180967) "></path>
            <path d="M1.73300724,500.230012 L347.733007,500.230012" id="Line-Copy-4" stroke="#979797" opacity="0.232375372" stroke-linecap="square" transform="translate(174.733007, 500.196042) rotate(3.000000) translate(-174.733007, -500.196042) "></path>
            <path d="M2.30870276,489.245087 L348.308703,489.245087" id="Line-Copy-5" stroke="#979797" opacity="0.232375372" stroke-linecap="square" transform="translate(175.308703, 489.211117) rotate(3.000000) translate(-175.308703, -489.211117) "></path>
            <path d="M2.88439828,478.260162 L348.884398,478.260162" id="Line-Copy-6" stroke="#979797" opacity="0.232375372" stroke-linecap="square" transform="translate(175.884398, 478.226192) rotate(3.000000) translate(-175.884398, -478.226192) "></path>
            <path d="M3.4600938,467.275237 L349.460094,467.275237" id="Line-Copy-7" stroke="#979797" opacity="0.232375372" stroke-linecap="square" transform="translate(176.460094, 467.241267) rotate(3.000000) translate(-176.460094, -467.241267) "></path>
            <path d="M4.03578932,456.290312 L350.035789,456.290312" id="Line-Copy-8" stroke="#979797" opacity="0.232375372" stroke-linecap="square" transform="translate(177.035789, 456.256343) rotate(3.000000) translate(-177.035789, -456.256343) "></path>
            <path d="M4.61148484,445.305387 L350.611485,445.305387" id="Line-Copy-9" stroke="#979797" opacity="0.232375372" stroke-linecap="square" transform="translate(177.611485, 445.271418) rotate(3.000000) translate(-177.611485, -445.271418) "></path>
            <path d="M48.5556289,497.298275 C54.4736808,499.356291 63.9054774,508.093081 66.3097846,503.472322 L71.5266455,509.365465 C76.1233305,500.531247 57.7924823,495.081822 50.2231885,495.346574" id="Path-20" fill="#FBB731"></path>
            <polygon id="Rectangle" fill="#FBF2B1" points="8 295.079963 121.040628 314.149657 123.235675 345.095156 221.200361 358.852138 298.419281 427.398745 8 432.344193"></polygon>
            <polygon id="Path-9" fill="url(#linearGradient-3)" points="326.685682 207.893076 264.404501 216.571742 264.404501 360.47065 223.755946 360.47065 223.755946 431.883504 298.72386 431.883504 298.72386 385.674845 326.685682 385.674845 326.685682 349.834631 298.72386 343.622289 298.72386 239.4434 326.685682 235.778815"></polygon>
            <polygon id="Path-10" fill="#FD900F" opacity="0.401297433" points="267.040523 361.898519 225.378171 394.057439 225.389111 356.630859"></polygon>
            <path d="M2.05055812,306 L122.153203,325.250546" id="Path-15-Copy-2" stroke="#FDB614" opacity="0.12672061"></path>
            <polygon id="Path-7" fill="#CDC894" opacity="0.466122582" points="111.616211 347.605552 155.239594 385.865274 206.153709 391.329177 213.986649 361.189023"></polygon>
            <polygon id="Path" fill="#2071B9" points="110.200185 386.381872 110.200185 438.210741 182.752643 439.140204 181.578092 383.294998"></polygon>
            <polygon id="Path-8" fill="#40BCAC" points="233.211111 350.934063 266.126291 361.634769 225.378171 361.634769"></polygon>
            <polygon id="Path-6" fill="#3DBBAC" points="112.765011 347.605552 183.478759 340.035702 198.595991 342.965448 198.595991 348.080178 198.595991 361.414438"></polygon>
            <polygon id="Path-3" fill="#D0142C" points="207.482516 344.122587 197.800343 344.122587 197.800343 387.28873 207.482516 389.427219"></polygon>
            <polyline id="Path-2" fill="#31102A" points="181.578092 383.196314 207.471162 387.60593 207.471162 345.484882 232.821129 352.955187 232.821129 429.29099 267.040523 429.29099 267.040523 435.049532 181.578092 439.140204"></polyline>
            <polygon id="Path-4-Copy" fill="#300E36" points="168.60029 75.75045 168.60029 257.912723 181.725402 264.459349 181.725402 340.574472 267.555256 361.898519 267.555256 217.896144 311.551459 210.118554 192.611139 119.304955 192.611139 95.6505548"></polygon>
            <path d="M291.969107,195.16699 L291.969107,213.580296 L284.136166,214.964993 L284.136166,189.186364 L291.969107,195.16699 Z M293.927342,196.662146 L311.551459,210.118554 L293.927342,213.234122 L293.927342,196.662146 Z M282.177931,187.691207 L282.177931,215.311167 L274.34499,216.695864 L274.34499,181.710582 L282.177931,187.691207 Z M272.386755,180.215425 L272.386755,217.042038 L267.555256,217.896144 L267.555256,361.898519 L264.553814,361.152824 L264.553814,174.2348 L272.386755,180.215425 Z M262.595579,172.739643 L262.595579,360.666309 L254.762638,358.72025 L254.762638,166.759017 L262.595579,172.739643 Z M252.804403,165.263861 L252.804403,358.233735 L244.971462,356.287676 L244.971462,159.283235 L252.804403,165.263861 Z M243.013227,157.788079 L243.013227,355.801161 L235.180287,353.855101 L235.180287,151.807453 L243.013227,157.788079 Z M233.222051,150.312296 L233.222051,353.368586 L225.389111,351.422527 L225.389111,144.331671 L233.222051,150.312296 Z M223.430875,142.836514 L223.430875,350.936012 L215.597935,348.989953 L215.597935,136.855888 L223.430875,142.836514 Z M213.6397,135.360732 L213.6397,348.503438 L205.806759,346.557378 L205.806759,129.380106 L213.6397,135.360732 Z M203.848524,127.88495 L203.848524,346.070864 L196.015583,344.124804 L196.015583,121.904324 L203.848524,127.88495 Z M194.057348,120.409168 L194.057348,343.638289 L186.224407,341.69223 L186.224407,90.3572542 L192.611139,95.6505548 L192.611139,119.304955 L194.057348,120.409168 Z M184.266172,88.7342759 L184.266172,341.205715 L181.725402,340.574472 L181.725402,264.459349 L176.433231,261.819687 L176.433231,82.242363 L184.266172,88.7342759 Z M174.474996,80.6193847 L174.474996,260.842946 L168.60029,257.912723 L168.60029,75.75045 L174.474996,80.6193847 Z" id="Combined-Shape" fill="#4B0357"></path>
            <polygon id="Path-5-Copy" fill="#2071B9" points="126.357765 127.515684 105.333509 132.154539 105.333509 314.993809 111.931079 316.745274 111.931079 347.605552 182.752643 340.95058 182.752643 262.87806 144.043076 268.322767 126.357765 264.876336"></polygon>
            <path d="M177.788211,341.417079 L171.913505,341.969114 L171.913505,264.402643 L177.788211,263.576334 L177.788211,341.417079 Z M179.746446,341.233067 L179.746446,263.300898 L182.752643,262.87806 L182.752643,340.95058 L179.746446,341.233067 Z M169.95527,342.153126 L164.080565,342.705161 L164.080565,265.504387 L169.95527,264.678079 L169.95527,342.153126 Z M162.12233,342.889173 L156.247624,343.441208 L156.247624,266.606132 L162.12233,265.779824 L162.12233,342.889173 Z M154.289389,343.62522 L148.414683,344.177255 L148.414683,267.707877 L154.289389,266.881569 L154.289389,343.62522 Z M146.456448,344.361267 L140.581743,344.913302 L140.581743,267.648239 L144.043076,268.322767 L146.456448,267.983313 L146.456448,344.361267 Z M138.623507,345.097314 L132.748802,345.649349 L132.748802,266.121791 L138.623507,267.266627 L138.623507,345.097314 Z M130.790567,345.833361 L124.915861,346.385396 L124.915861,127.83383 L126.357765,127.515684 L126.357765,264.876336 L130.790567,265.74018 L130.790567,345.833361 Z M122.957626,346.569408 L117.08292,347.121443 L117.08292,129.562113 L122.957626,128.265901 L122.957626,346.569408 Z M115.124685,347.305455 L111.931079,347.605552 L111.931079,316.745274 L109.24998,316.033519 L109.24998,131.290397 L115.124685,129.994184 L115.124685,347.305455 Z M107.291744,315.513664 L105.333509,314.993809 L105.333509,132.154539 L107.291744,131.722468 L107.291744,315.513664 Z" id="Combined-Shape" fill="#597D9C"></path>
            <g id="Oval">
                <use fill="#B9F7D5" fill-rule="evenodd" xlink:href="#path-4"></use>
                <use fill="black" fill-opacity="1" filter="url(#filter-5)" xlink:href="#path-4"></use>
            </g>
            <polygon id="Path-11" fill="url(#linearGradient-6)" points="312.978329 197.296561 312.978329 240.008678 345.866736 235.610767 345.866736 190.18324"></polygon>
            <polygon id="Path-12" fill="#FBF2B1" points="298.378303 239.535226 350.916328 231.850313 351 341.426758 298.378303 344.611072"></polygon>
            <polygon id="Path-13" fill="#3E1E79" points="298.378303 344.611072 345.866736 341.658203 344.816451 349.980469 326.348174 351.20791"></polygon>
            <polygon id="Path-16" fill="#D01635" opacity="0.661783854" points="252.955998 375.455375 252.955998 407.326333 257.882184 407.326333 257.882184 375.455375"></polygon>
            <g id="Group-3" transform="translate(298.000000, 383.000000)">
                <polygon id="Path-16-Copy" fill="#1B1464" opacity="0.535063244" points="0 0 0 54 53 54 53 0"></polygon>
                <path d="M53,48.8424892 L0,48.8424892 L0,39.3891042 L53,39.3891042 L53,48.8424892 Z M53,50.4180533 L53,54 L0,54 L0,50.4180533 L53,50.4180533 Z M53,37.81354 L0,37.81354 L0,28.360155 L53,28.360155 L53,37.81354 Z M53,26.7845908 L0,26.7845908 L0,17.3312058 L53,17.3312058 L53,26.7845908 Z M53,15.7556417 L0,15.7556417 L0,6.30225667 L53,6.30225667 L53,15.7556417 Z M53,4.7266925 L0,4.7266925 L0,0 L53,0 L53,4.7266925 Z" id="Combined-Shape" fill="#D01635"></path>
                <rect id="Rectangle" fill="#FDB614" x="7" y="12" width="15" height="8"></rect>
            </g>
            <path d="M98.8446087,529.906191 C104.246121,518.400612 156.467463,526.060403 99.5215767,531.989566" id="Path-21" fill="#FCB832"></path>
            <path d="M72.8890062,542.014968 C72.8890062,510.114701 124.497476,510.548964 73.1452596,544.03397" id="Path-18" fill="#FBB731"></path>
            <path d="M35.5778276,542.014968 C35.5778276,510.114701 87.1862976,510.548964 35.8340811,544.03397" id="Path-18-Copy-2" fill="#FBB731"></path>
            <path d="M12.8666755,525.667427 C12.8666755,493.76716 64.4751455,494.201423 13.1229289,527.686428" id="Path-18-Copy-3" fill="#FBB731"></path>
            <polygon id="Path-5" fill="#A6A6A6" opacity="0.49655878" points="326.685682 351.20791 344.816451 383.294998 344.816451 349.84082"></polygon>
            <path d="M146,538.518607 C146,506.618339 197.60847,507.052603 146.256253,540.537608" id="Path-18-Copy-3" fill="#FBB731"></path>
            <path d="M76.1334565,511.112297 C77.843114,491.334798 109.538616,488.739501 93.818768,502.995327 C89.3516329,507.046429 82.5232187,509.134261 76.8754441,512.203728 L76.1334565,511.112297 Z" id="Path-19" fill="#FBB731"></path>
            <path d="M177.762543,499.625323 L176.679589,500.721673 C172.077508,500.509993 161.154717,496.320618 164.265961,491.213219 L167.216081,495.026815 C168.843425,492.355378 174.247056,498.092487 177.762543,499.625323 Z" id="Path-20" fill="#D0021B"></path>
            <path d="M148.630834,477.250156 C144.93381,483.930691 113.529732,476.743609 148.296127,475.959246 L148.630834,477.250156 Z" id="Path-21" fill="#000000"></path>
            <path d="M164.827224,471.548985 C163.663196,490.806415 132.367301,488.011292 164.745423,470.317585 L164.827224,471.548985 Z" id="Path-18" fill="#D0021B"></path>
            <path d="M187.275756,473.364963 C186.111729,492.622393 154.815834,489.82727 187.193955,472.133563 L187.275756,473.364963 Z" id="Path-18-Copy-2" fill="#D0021B"></path>
            <path d="M200.646416,484.152632 C199.482388,503.410062 168.186494,500.614939 200.564615,482.921232 L200.646416,484.152632 Z" id="Path-18-Copy-3" fill="#D0021B"></path>
            <path d="M101.419134,470.899882 C100.478648,490.942828 75.1928661,488.033691 101.353042,469.618253 L101.419134,470.899882 Z" id="Path-18-Copy-3" fill="#000099"></path>
            <path d="M161.291752,489.693165 C159.532801,501.548458 140.207897,501.559547 150.265586,493.725182 C153.123697,491.498878 157.342796,490.573645 160.881401,488.997877 L161.291752,489.693165 Z" id="Path-19" fill="#D0021B"></path>
            <rect id="Rectangle" stroke="#E3DFE4" stroke-width="8" x="4" y="-3.17578125" width="344.816451" height="563.816406"></rect>
            <path d="M105.574004,462.229269 L104.491051,463.32562 C99.88897,463.11394 88.9661784,458.924565 92.0774227,453.817166 L95.027543,457.630762 C96.6548868,454.959324 102.058517,460.696433 105.574004,462.229269 Z" id="Path-20" fill="#000000"></path>
            <path d="M59.1840321,450.669888 C56.1969907,457.622923 30.8238009,450.142679 58.9136031,449.326322 L59.1840321,450.669888 Z" id="Path-21" fill="#000099"></path>
            <path d="M83.7124194,444.2314 C82.5483919,463.48883 51.2524971,460.693707 83.6306185,443 L83.7124194,444.2314 Z" id="Path-18" fill="#000099"></path>
            <path d="M43.0674974,469.2314 C41.9034699,488.48883 10.6075751,485.693707 42.9856966,468 L43.0674974,469.2314 Z" id="Path-18-Copy-2" fill="#000099"></path>
            <path d="M59.2638869,460.2314 C58.0998594,479.48883 26.8039646,476.693707 59.1820861,459 L59.2638869,460.2314 Z" id="Path-18-Copy-3" fill="#000099"></path>
            <path d="M35.8870232,442.281629 C34.9465374,462.324574 9.66075544,459.415438 35.8209316,441 L35.8870232,442.281629 Z" id="Path-18-Copy-3" fill="#000099"></path>
            <path d="M80.9117117,462.695288 C79.1527606,474.550582 59.8278566,474.56167 69.8855461,466.727306 C72.7436563,464.501001 76.9627561,463.575769 80.5013611,462 L80.9117117,462.695288 Z" id="Path-19" fill="#000000"></path>
            <path d="M127.300211,263.586875 L166.130556,255.252921 L166.130556,78.9424351 L127.300211,88.5254224 L127.300211,263.586875 Z" id="Path-4" stroke="#D51234" stroke-width="5" fill="url(#linearGradient-7)"></path>
            <polygon id="Path-14" fill="#391E74" points="182.752643 262.753906 168.60029 257.027344 124.800211 266.680368 140.581743 270.722656"></polygon>
        </g>
    </g>
</svg>