<?xml version="1.0" encoding="UTF-8"?>
<svg width="173px" height="372px" viewBox="0 0 173 372" version="1.1" xmlns="http://www.w3.org/2000/svg" xmlns:xlink="http://www.w3.org/1999/xlink">
    <!-- Generator: Sketch 52.6 (67491) - http://www.bohemiancoding.com/sketch -->
    <title>modern3</title>
    <desc>Created with Sketch.</desc>
    <defs>
        <linearGradient x1="0%" y1="17.6045186%" x2="50%" y2="100%" id="linearGradient-1">
            <stop stop-color="#818181" offset="0%"></stop>
            <stop stop-color="#4A4A4A" offset="100%"></stop>
        </linearGradient>
        <linearGradient x1="50%" y1="36.8655457%" x2="50%" y2="100%" id="linearGradient-2">
            <stop stop-color="#FDB614" offset="0%"></stop>
            <stop stop-color="#F7D07A" offset="100%"></stop>
        </linearGradient>
        <ellipse id="path-3" cx="144.5" cy="297" rx="2.5" ry="1"></ellipse>
        <filter x="-40.0%" y="-100.0%" width="180.0%" height="300.0%" filterUnits="objectBoundingBox" id="filter-4">
            <feGaussianBlur stdDeviation="1.5" in="SourceAlpha" result="shadowBlurInner1"></feGaussianBlur>
            <feOffset dx="0" dy="1" in="shadowBlurInner1" result="shadowOffsetInner1"></feOffset>
            <feComposite in="shadowOffsetInner1" in2="SourceAlpha" operator="arithmetic" k2="-1" k3="1" result="shadowInnerInner1"></feComposite>
            <feColorMatrix values="0 0 0 0 0.326453408   0 0 0 0 0.987484056   0 0 0 0 0.657080999  0 0 0 0.5 0" type="matrix" in="shadowInnerInner1"></feColorMatrix>
        </filter>
        <linearGradient x1="50%" y1="15.4872649%" x2="50%" y2="50%" id="linearGradient-5">
            <stop stop-color="#FDC545" offset="0%"></stop>
            <stop stop-color="#FBF2B1" offset="100%"></stop>
        </linearGradient>
    </defs>
    <g id="modern3-copy" stroke="none" stroke-width="1" fill="none" fill-rule="evenodd">
        <g id="modern3" transform="translate(-59.000000, -64.000000)">
            <g id="Group-4" transform="translate(60.000000, 64.000000)">
                <rect id="Rectangle-Copy-27" fill="#FFFFFF" x="0" y="0" width="172" height="362"></rect>
                <path d="M172,6.21689647 L75.9572368,17.9871557 L172,25.0496189 L172,371 L0,371 L0,57.6457105 L100.584795,69.1694915 L37.6983311,56.5031362 L86.2475074,49.0943713 L0,34.8588734 L0,0 L172,0 L172,6.21689647 Z" id="Combined-Shape" fill="#B1CDED"></path>
            </g>
            <polygon id="Rectangle" fill="url(#linearGradient-1)" opacity="0.39953032" points="60 343.341797 232 344.108783 231.515625 435 60 435"></polygon>
            <path d="M80.140625,395.0625 C83.1627604,396.436198 87.9792384,402.267888 89.2070312,399.183594 L91.8710938,403.117188 C94.2184548,397.220466 84.8575525,393.583047 80.9921875,393.759766" id="Path-20" fill="#FBB731"></path>
            <polygon id="Rectangle" fill="#FBF2B1" points="59.5019531 260.714844 117.22772 274 118.348651 295.558594 168.375679 305.142578 207.808594 352.896484 59.5019531 356.341797"></polygon>
            <polygon id="Path-9" fill="url(#linearGradient-2)" points="222.5625 202.679688 190.757749 208.507812 190.757749 305.142578 170 305.142578 170 353.099609 208.283407 353.099609 208.283407 322.068359 222.5625 322.068359 222.5625 298 208.283407 293.828125 208.283407 223.867188 222.5625 221.40625"></polygon>
            <polygon id="Path-10" fill="#FD900F" opacity="0.401297433" points="191.808594 305.142578 171 326.652344 171 305.142578"></polygon>
            <polygon id="Path-7" fill="#CDC894" opacity="0.466122582" points="112 295.558594 135 319 161 322.068359 165 305.142578"></polygon>
            <polygon id="Path" fill="#2071B9" points="112 321.746722 112 356.341797 148.166016 356.341797 148.166016 319"></polygon>
            <polygon id="Path-8" fill="#40BCAC" points="175 298 191.808594 305.142578 171 305.142578"></polygon>
            <polygon id="Path-6" fill="#3DBBAC" points="111 295.558594 148.535156 291 156.629883 293.595755 156.629883 295.564917 156.629883 305.142578"></polygon>
            <polyline id="Path-2" fill="#31102A" points="148.166016 319 161.388672 321.943359 161.388672 293.828125 174.333984 298.814453 174.333984 349.767578 191.808594 349.767578 191.808594 353.611328 148.166016 356.341797"></polyline>
            <g id="Group" transform="translate(142.000000, 114.000000)" fill="#300E36">
                <polygon id="Path-4-Copy" fill-opacity="0.871999547" points="7.10542736e-15 0 7.10542736e-15 121.681641 6.67382813 126.054687 6.67382813 176.898437 50.3164063 191.142578 50.3164062 94.9511719 72.6875 89.7558594 12.2089844 29.09375 12.2089844 13.2929687"></polygon>
                <path d="M63,80.0389512 L63,92.0056193 L59,92.9345524 L59,76.0268084 L63,80.0389512 Z M64,81.0419869 L72.6875,89.7558594 L64,91.773386 L64,81.0419869 Z M58,75.0237727 L58,93.1667857 L54,94.0957188 L54,71.01163 L58,75.0237727 Z M53,70.0085943 L53,94.3279521 L50.3164062,94.9511719 L50.3164063,191.142578 L49,190.712927 L49,65.9964516 L53,70.0085943 Z M48,64.9934159 L48,190.386545 L44,189.081018 L44,60.9812731 L48,64.9934159 Z M43,59.9782375 L43,188.754637 L39,187.44911 L39,55.9660947 L43,59.9782375 Z M38,54.963059 L38,187.122728 L34,185.817201 L34,50.9509163 L38,54.963059 Z M33,49.9478806 L33,185.490819 L29,184.185292 L29,45.9357379 L33,49.9478806 Z M28,44.9327022 L28,183.858911 L24,182.553384 L24,40.9205594 L28,44.9327022 Z M23,39.9175238 L23,182.227002 L19,180.921475 L19,35.905381 L23,39.9175238 Z M18,34.9023453 L18,180.595093 L14,179.289566 L14,30.8902026 L18,34.9023453 Z M13,29.8871669 L13,178.963184 L9,177.657658 L9,9.79907215 L12.2089844,13.2929687 L12.2089844,29.09375 L13,29.8871669 Z M8,8.71028635 L8,177.331276 L6.67382813,176.898437 L6.67382812,126.054687 L4,124.302653 L4,4.35514318 L8,8.71028635 Z M3,3.26635738 L3,123.6474 L0,121.681641 L0,0 L3,3.26635738 Z" id="Combined-Shape"></path>
            </g>
            <polygon id="Path-3" fill="#D0142C" points="161.574219 293.828125 156.629883 293.828125 156.629883 320.735352 161.574219 322.068359"></polygon>
            <g id="Group-2" transform="translate(109.000000, 151.000000)" fill="#2071B9">
                <polygon id="Path-5-Copy" fill-opacity="0.703832654" points="10.7363281 0 0 3.046875 0 123.138672 3.36914062 124.289062 3.36914062 144.558594 39.5351562 140.1875 39.5351562 88.9082031 19.7675781 92.484375 10.7363281 90.2207031"></polygon>
                <path d="M37,140.493904 L34,140.85649 L34,89.9095737 L37,89.3668407 L37,140.493904 Z M38,140.373042 L38,89.1859297 L39.5351562,88.9082031 L39.5351562,140.1875 L38,140.373042 Z M33,140.977351 L30,141.339937 L30,90.6332176 L33,90.0904846 L33,140.977351 Z M29,141.460799 L26,141.823385 L26,91.3568615 L29,90.8141285 L29,141.460799 Z M25,141.944247 L22,142.306832 L22,92.0805054 L25,91.5377724 L25,141.944247 Z M21,142.427694 L18,142.79028 L18,92.0413337 L19.7675781,92.484375 L21,92.2614164 L21,142.427694 Z M17,142.911142 L14,143.273728 L14,91.0387385 L17,91.7906849 L17,142.911142 Z M13,143.39459 L10,143.757175 L10,0.208963412 L10.7363281,0 L10.7363281,90.2207031 L13,90.7880897 L13,143.39459 Z M9,143.878037 L6,144.240623 L6,1.34412805 L9,0.492754571 L9,143.878037 Z M5,144.361485 L3.36914062,144.558594 L3.36914062,124.289062 L2,123.82157 L2,2.47929268 L5,1.62791921 L5,144.361485 Z M1,123.480121 L0,123.138672 L0,3.046875 L1,2.76308384 L1,123.480121 Z" id="Combined-Shape"></path>
            </g>
            <g id="Oval">
                <use fill="#B9F7D5" fill-rule="evenodd" xlink:href="#path-3"></use>
                <use fill="black" fill-opacity="1" filter="url(#filter-4)" xlink:href="#path-3"></use>
            </g>
            <polygon id="Path-11" fill="#D1152B" points="215 195.181641 215 223.691406 231.794922 220.755859 231.794922 190.433594"></polygon>
            <polygon id="Path-12" fill="#FBF2B1" points="208.279297 223.691406 231.794922 219.847656 231.794922 292.361328 208.279297 293.828125"></polygon>
            <polygon id="Path-13" fill="#3E1E79" points="208.279297 293.828125 231.794922 292.361328 231.794922 298 222.5625 298"></polygon>
            <polygon id="Path-14" fill="#246FBE" points="222.5625 298 231.794922 298 231.794922 322.068359 222.5625 322.068359"></polygon>
            <polygon id="Path-15" fill="#3CBAAB" points="222.5625 298 231.794922 322.068359 222.5625 322.068359"></polygon>
            <polygon id="Path-16" fill="#D01635" opacity="0.661783854" points="185 314 185 335.273437 187.515625 335.273438 187.515625 314"></polygon>
            <g id="Group-3" transform="translate(208.000000, 322.000000)">
                <polygon id="Path-16-Copy" fill="#1B1464" opacity="0.535063244" points="1.77635684e-15 -7.10542736e-15 1.77635684e-15 34.2734375 23.515625 34.2734375 23.515625 -7.10542736e-15"></polygon>
                <path d="M23.515625,31 L0,31 L0,25 L23.515625,25 L23.515625,31 Z M23.515625,32 L23.515625,34.2734375 L0,34.2734375 L0,32 L23.515625,32 Z M23.515625,24 L0,24 L0,18 L23.515625,18 L23.515625,24 Z M23.515625,17 L0,17 L0,11 L23.515625,11 L23.515625,17 Z M23.515625,10 L0,10 L0,4 L23.515625,4 L23.515625,10 Z M23.515625,3 L0,3 L0,0 L23.515625,0 L23.515625,3 Z" id="Combined-Shape" fill="#D01635"></path>
                <rect id="Rectangle" fill="#FDB614" x="3" y="7" width="7" height="5"></rect>
            </g>
            <path d="M121,126.131535 L121,238.553461 L140,234.208143 L140,117.555955 L121,126.131535 Z" id="Rectangle" stroke="#D51234" stroke-width="4" fill="url(#linearGradient-5)"></path>
            <polygon id="Path-17" fill="#391E74" points="119 241.0625 130 244.330078 149 239.74707 142 235.164062"></polygon>
            <path d="M105.808594,417.541016 C108.566951,409.861196 135.234505,414.974004 106.154297,418.931641" id="Path-21" fill="#FCB832"></path>
            <path d="M93,425.698355 C93,404.405354 119.354582,404.695219 93.1308594,427.046011" id="Path-18" fill="#FBB731"></path>
            <path d="M74,425.698355 C74,404.405354 100.354582,404.695219 74.1308594,427.046011" id="Path-18-Copy-2" fill="#FBB731"></path>
            <path d="M62.049618,414.698355 C62.049618,393.405354 88.4042002,393.695219 62.1804774,416.046011" id="Path-18-Copy-3" fill="#FBB731"></path>
            <path d="M130,434.698355 C130,413.405354 156.354582,413.695219 130.130859,436.046011" id="Path-18-Copy-3" fill="#FBB731"></path>
            <path d="M94.3515625,404.273438 C95.2246228,391.072222 111.410371,389.339896 103.382812,398.855469 C101.101608,401.559525 97.6145833,402.953125 94.7304688,405.001953 L94.3515625,404.273438 Z" id="Path-19" fill="#FBB731"></path>
            <rect id="Rectangle" stroke="#E3DFE4" x="60.5" y="64.5" width="171" height="370"></rect>
        </g>
    </g>
</svg>