<?xml version="1.0" encoding="UTF-8"?>
<svg width="30px" height="36px" viewBox="0 0 30 36" version="1.1" xmlns="http://www.w3.org/2000/svg" xmlns:xlink="http://www.w3.org/1999/xlink">
    <!-- Generator: Sketch 51.2 (57519) - http://www.bohemiancoding.com/sketch -->
    <title>new_logo_sketches</title>
    <desc>Created with Sketch.</desc>
    <defs>
        <linearGradient x1="0.25781251%" y1="49.7500002%" x2="101.257813%" y2="49.7500002%" id="linearGradient-1">
            <stop stop-color="#3023AE" offset="0%"></stop>
            <stop stop-color="#53A0FD" offset="47.5247532%"></stop>
            <stop stop-color="#B4EC51" offset="100%"></stop>
        </linearGradient>
    </defs>
    <g id="Page-1" stroke="none" stroke-width="1" fill="none" fill-rule="evenodd">
        <g id="new_logo_sketches" transform="translate(-6.000000, -6.000000)" fill="url(#linearGradient-1)" fill-rule="nonzero">
            <g id="Group-2-Copy" transform="translate(26.928571, 24.000000) scale(-1, 1) translate(-26.928571, -24.000000) translate(11.857143, 0.000000)">
                <g id="newLogo">
                    <g id="Group-2-Copy-6" transform="translate(15.071429, 32.204473) scale(-1, 1) translate(-15.071429, -32.204473) translate(0.000000, 16.408946)">
                        <g id="Group-2-Copy-5" transform="translate(0.000000, 0.051118)">
                            <g id="Group-2-Copy-3" transform="translate(15.114658, 15.756100) scale(-1, 1) rotate(-163.000000) translate(-15.114658, -15.756100) translate(2.971800, 3.411052)">
                                <g id="Group" transform="translate(12.148359, 12.370312) rotate(-11.000000) translate(-12.148359, -12.370312) translate(1.719788, 2.018875)">
                                    <polygon id="Triangle-Copy-2" transform="translate(10.994054, 14.053084) rotate(-15.000000) translate(-10.994054, -14.053084) " points="1.86876006 18.309233 20.1193478 9.79693532 17.4016998 15.5592107"></polygon>
                                    <polygon id="Triangle-Copy-5" transform="translate(9.397646, 9.588466) rotate(-41.000000) translate(-9.397646, -9.588466) " points="0.272351569 13.6376863 18.5229394 5.53924606 15.8052913 11.0213667"></polygon>
                                    <polygon id="Triangle-Copy-4" transform="translate(10.186665, 11.686652) rotate(-30.000000) translate(-10.186665, -11.686652) " points="1.06137082 15.8125493 19.3119586 7.56075442 16.5943106 13.1466863"></polygon>
                                </g>
                            </g>
                        </g>
                    </g>
                    <g id="Group-2-Copy-6-Copy" transform="translate(15.071429, 15.795527) scale(-1, -1) translate(-15.071429, -15.795527) ">
                        <g id="Group-2-Copy-5" transform="translate(0.000000, 0.051118)">
                            <g id="Group-2-Copy-3" transform="translate(15.114658, 15.756100) scale(-1, 1) rotate(-163.000000) translate(-15.114658, -15.756100) translate(2.971800, 3.411052)">
                                <g id="Group" transform="translate(12.148359, 12.370312) rotate(-11.000000) translate(-12.148359, -12.370312) translate(1.719788, 2.018875)">
                                    <polygon id="Triangle-Copy-2" transform="translate(10.994054, 14.053084) rotate(-15.000000) translate(-10.994054, -14.053084) " points="1.86876006 18.309233 20.1193478 9.79693532 17.4016998 15.5592107"></polygon>
                                    <polygon id="Triangle-Copy-5" transform="translate(9.397646, 9.588466) rotate(-41.000000) translate(-9.397646, -9.588466) " points="0.272351569 13.6376863 18.5229394 5.53924606 15.8052913 11.0213667"></polygon>
                                    <polygon id="Triangle-Copy-4" transform="translate(10.186665, 11.686652) rotate(-30.000000) translate(-10.186665, -11.686652) " points="1.06137082 15.8125493 19.3119586 7.56075442 16.5943106 13.1466863"></polygon>
                                </g>
                            </g>
                        </g>
                    </g>
                </g>
            </g>
            <g id="Group-2">
                <g id="newLogo">
                    <g id="Group-2-Copy-6" transform="translate(15.071429, 32.204473) scale(-1, 1) translate(-15.071429, -32.204473) translate(0.000000, 16.408946)">
                        <g id="Group-2-Copy-5" transform="translate(0.000000, 0.051118)">
                            <g id="Group-2-Copy-3" transform="translate(15.114658, 15.756100) scale(-1, 1) rotate(-163.000000) translate(-15.114658, -15.756100) translate(2.971800, 3.411052)">
                                <g id="Group" transform="translate(12.148359, 12.370312) rotate(-11.000000) translate(-12.148359, -12.370312) translate(1.719788, 2.018875)">
                                    <polygon id="Triangle-Copy-2" transform="translate(10.994054, 14.053084) rotate(-15.000000) translate(-10.994054, -14.053084) " points="1.86876006 18.309233 20.1193478 9.79693532 17.4016998 15.5592107"></polygon>
                                    <polygon id="Triangle-Copy-5" transform="translate(9.397646, 9.588466) rotate(-41.000000) translate(-9.397646, -9.588466) " points="0.272351569 13.6376863 18.5229394 5.53924606 15.8052913 11.0213667"></polygon>
                                    <polygon id="Triangle-Copy-4" transform="translate(10.186665, 11.686652) rotate(-30.000000) translate(-10.186665, -11.686652) " points="1.06137082 15.8125493 19.3119586 7.56075442 16.5943106 13.1466863"></polygon>
                                </g>
                            </g>
                        </g>
                    </g>
                    <g id="Group-2-Copy-6-Copy" transform="translate(15.071429, 15.795527) scale(-1, -1) translate(-15.071429, -15.795527) ">
                        <g id="Group-2-Copy-5" transform="translate(0.000000, 0.051118)">
                            <g id="Group-2-Copy-3" transform="translate(15.114658, 15.756100) scale(-1, 1) rotate(-163.000000) translate(-15.114658, -15.756100) translate(2.971800, 3.411052)">
                                <g id="Group" transform="translate(12.148359, 12.370312) rotate(-11.000000) translate(-12.148359, -12.370312) translate(1.719788, 2.018875)">
                                    <polygon id="Triangle-Copy-2" transform="translate(10.994054, 14.053084) rotate(-15.000000) translate(-10.994054, -14.053084) " points="1.86876006 18.309233 20.1193478 9.79693532 17.4016998 15.5592107"></polygon>
                                    <polygon id="Triangle-Copy-5" transform="translate(9.397646, 9.588466) rotate(-41.000000) translate(-9.397646, -9.588466) " points="0.272351569 13.6376863 18.5229394 5.53924606 15.8052913 11.0213667"></polygon>
                                    <polygon id="Triangle-Copy-4" transform="translate(10.186665, 11.686652) rotate(-30.000000) translate(-10.186665, -11.686652) " points="1.06137082 15.8125493 19.3119586 7.56075442 16.5943106 13.1466863"></polygon>
                                </g>
                            </g>
                        </g>
                    </g>
                </g>
            </g>
        </g>
    </g>
</svg>