<?xml version="1.0" encoding="UTF-8"?>
<svg width="159px" height="282px" viewBox="0 0 159 282" version="1.1" xmlns="http://www.w3.org/2000/svg" xmlns:xlink="http://www.w3.org/1999/xlink">
    <!-- Generator: Sketch 52.6 (67491) - http://www.bohemiancoding.com/sketch -->
    <title>newLogomap</title>
    <desc>Created with Sketch.</desc>
    <defs>
        <linearGradient x1="0.25781251%" y1="49.7500002%" x2="101.257813%" y2="49.7500002%" id="linearGradient-1">
            <stop stop-color="#3023AE" offset="0%"></stop>
            <stop stop-color="#53A0FD" offset="47.5247532%"></stop>
            <stop stop-color="#B4EC51" offset="100%"></stop>
        </linearGradient>
    </defs>
    <g id="Page-1" stroke="none" stroke-width="1" fill="none" fill-rule="evenodd">
        <g id="newLogomap" transform="translate(2.000000, 2.000000)">
            <g id="camera_clear" stroke="#1A73E8" stroke-width="3">
                <g id="usa">
                    <path d="M0,87.9576702 C0,39.3799055 34.6998667,0 77.5,0 C120.297341,0 155,39.3799055 155,87.9576702 C155,136.532643 77.5,276 77.5,276 C77.5,276 0,136.532643 0,87.9576702 Z" id="Shape"></path>
                </g>
            </g>
            <g id="new_logo_sm2" transform="translate(13.000000, 36.000000)" fill="url(#linearGradient-1)">
                <g id="Group-2-Copy" transform="translate(82.500000, 68.500000) scale(-1, 1) translate(-82.500000, -68.500000) translate(36.000000, 0.000000)">
                    <g id="newLogo">
                        <g id="Group-2-Copy-6" transform="translate(46.468282, 91.280329) scale(-1, 1) translate(-46.468282, -91.280329) translate(0.468282, 46.280329)">
                            <g id="Group-2-Copy-5" transform="translate(0.000000, 0.138767)">
                                <g id="Group-2-Copy-3" transform="translate(45.995971, 44.490167) scale(-1, 1) rotate(-163.000000) translate(-45.995971, -44.490167) translate(8.995971, 9.490167)">
                                    <g id="Group" transform="translate(36.705125, 35.455923) rotate(-11.000000) translate(-36.705125, -35.455923) translate(5.205125, 6.455923)">
                                        <polygon id="Triangle-Copy-2" transform="translate(33.088570, 38.885045) rotate(-15.000000) translate(-33.088570, -38.885045) " points="5.66732202 50.3839248 60.5098174 27.3861654 52.3994935 43.0877273"></polygon>
                                        <polygon id="Triangle-Copy-5" transform="translate(28.283893, 26.765275) rotate(-41.000000) translate(-28.283893, -26.765275) " points="0.97610541 37.6776736 55.5916809 15.8528758 47.5652253 30.8921111"></polygon>
                                        <polygon id="Triangle-Copy-4" transform="translate(30.658587, 32.461065) rotate(-30.000000) translate(-30.658587, -32.461065) " points="3.30063124 43.5794224 58.0165436 21.3427072 49.9634186 36.6274717"></polygon>
                                    </g>
                                </g>
                            </g>
                        </g>
                        <g id="Group-2-Copy-6-Copy" transform="translate(46.468282, 45.719670) rotate(180.000000) translate(-46.468282, -45.719670) translate(0.468282, 0.719670)">
                            <g id="Group-2-Copy-5" transform="translate(0.000000, 0.138767)">
                                <g id="Group-2-Copy-3" transform="translate(45.995971, 44.490167) scale(-1, 1) rotate(-163.000000) translate(-45.995971, -44.490167) translate(8.995971, 9.490167)">
                                    <g id="Group" transform="translate(36.705125, 35.455923) rotate(-11.000000) translate(-36.705125, -35.455923) translate(5.205125, 6.455923)">
                                        <polygon id="Triangle-Copy-2" transform="translate(33.088570, 38.885045) rotate(-15.000000) translate(-33.088570, -38.885045) " points="5.66732202 50.3839248 60.5098174 27.3861654 52.3994935 43.0877273"></polygon>
                                        <polygon id="Triangle-Copy-5" transform="translate(28.283893, 26.765275) rotate(-41.000000) translate(-28.283893, -26.765275) " points="0.97610541 37.6776736 55.5916809 15.8528758 47.5652253 30.8921111"></polygon>
                                        <polygon id="Triangle-Copy-4" transform="translate(30.658587, 32.461065) rotate(-30.000000) translate(-30.658587, -32.461065) " points="3.30063124 43.5794224 58.0165436 21.3427072 49.9634186 36.6274717"></polygon>
                                    </g>
                                </g>
                            </g>
                        </g>
                    </g>
                </g>
                <g id="Group-2">
                    <g id="newLogo">
                        <g id="Group-2-Copy-6" transform="translate(46.468282, 91.280329) scale(-1, 1) translate(-46.468282, -91.280329) translate(0.468282, 46.280329)">
                            <g id="Group-2-Copy-5" transform="translate(0.000000, 0.138767)">
                                <g id="Group-2-Copy-3" transform="translate(45.995971, 44.490167) scale(-1, 1) rotate(-163.000000) translate(-45.995971, -44.490167) translate(8.995971, 9.490167)">
                                    <g id="Group" transform="translate(36.705125, 35.455923) rotate(-11.000000) translate(-36.705125, -35.455923) translate(5.205125, 6.455923)">
                                        <polygon id="Triangle-Copy-2" transform="translate(33.088570, 38.885045) rotate(-15.000000) translate(-33.088570, -38.885045) " points="5.66732202 50.3839248 60.5098174 27.3861654 52.3994935 43.0877273"></polygon>
                                        <polygon id="Triangle-Copy-5" transform="translate(28.283893, 26.765275) rotate(-41.000000) translate(-28.283893, -26.765275) " points="0.97610541 37.6776736 55.5916809 15.8528758 47.5652253 30.8921111"></polygon>
                                        <polygon id="Triangle-Copy-4" transform="translate(30.658587, 32.461065) rotate(-30.000000) translate(-30.658587, -32.461065) " points="3.30063124 43.5794224 58.0165436 21.3427072 49.9634186 36.6274717"></polygon>
                                    </g>
                                </g>
                            </g>
                        </g>
                        <g id="Group-2-Copy-6-Copy" transform="translate(46.468282, 45.719670) rotate(180.000000) translate(-46.468282, -45.719670) translate(0.468282, 0.719670)">
                            <g id="Group-2-Copy-5" transform="translate(0.000000, 0.138767)">
                                <g id="Group-2-Copy-3" transform="translate(45.995971, 44.490167) scale(-1, 1) rotate(-163.000000) translate(-45.995971, -44.490167) translate(8.995971, 9.490167)">
                                    <g id="Group" transform="translate(36.705125, 35.455923) rotate(-11.000000) translate(-36.705125, -35.455923) translate(5.205125, 6.455923)">
                                        <polygon id="Triangle-Copy-2" transform="translate(33.088570, 38.885045) rotate(-15.000000) translate(-33.088570, -38.885045) " points="5.66732202 50.3839248 60.5098174 27.3861654 52.3994935 43.0877273"></polygon>
                                        <polygon id="Triangle-Copy-5" transform="translate(28.283893, 26.765275) rotate(-41.000000) translate(-28.283893, -26.765275) " points="0.97610541 37.6776736 55.5916809 15.8528758 47.5652253 30.8921111"></polygon>
                                        <polygon id="Triangle-Copy-4" transform="translate(30.658587, 32.461065) rotate(-30.000000) translate(-30.658587, -32.461065) " points="3.30063124 43.5794224 58.0165436 21.3427072 49.9634186 36.6274717"></polygon>
                                    </g>
                                </g>
                            </g>
                        </g>
                    </g>
                </g>
            </g>
        </g>
    </g>
</svg>