<?xml version="1.0" encoding="UTF-8"?>
<svg width="199px" height="229px" viewBox="0 0 199 229" version="1.1" xmlns="http://www.w3.org/2000/svg" xmlns:xlink="http://www.w3.org/1999/xlink">
    <!-- Generator: Sketch 51.2 (57519) - http://www.bohemiancoding.com/sketch -->
    <title>newLogo</title>
    <desc>Created with Sketch.</desc>
    <defs>
        <linearGradient x1="0.25781251%" y1="49.7500002%" x2="101.257813%" y2="49.7500002%" id="linearGradient-1">
            <stop stop-color="#3023AE" offset="0%"></stop>
            <stop stop-color="#53A0FD" offset="47.5247532%"></stop>
            <stop stop-color="#B4EC51" offset="100%"></stop>
        </linearGradient>
    </defs>
    <g id="newLogo" stroke="none" stroke-width="1" fill="none" fill-rule="evenodd">
        <g id="Group-2" transform="translate(30.000000, -33.000000)" fill="url(#linearGradient-1)">
            <g id="Group-2-Copy-5" transform="translate(0.000000, 98.333333)">
                <g id="Group-2-Copy-3" transform="translate(107.886754, 98.449341) scale(1, -1) rotate(17.000000) translate(-107.886754, -98.449341) translate(21.384384, 20.444534)">
                    <g id="Group" transform="translate(86.502370, 78.004808) rotate(-11.000000) translate(-86.502370, -78.004808) translate(12.284360, 12.291667)">
                        <polygon id="Triangle-Copy-2" transform="translate(78.958378, 88.637820) rotate(-15.000000) translate(-78.958378, -88.637820) " points="15.0813205 116.391457 142.835435 60.8841823 123.811899 98.4590196"></polygon>
                        <polygon id="Triangle-Copy-4" transform="translate(70.636673, 76.003860) rotate(-30.000000) translate(-70.636673, -76.003860) " points="6.75961555 102.408149 134.51373 49.5995704 115.490194 85.3475654"></polygon>
                        <polygon id="Triangle-Copy-5" transform="translate(67.783518, 59.524790) rotate(-41.000000) translate(-67.783518, -59.524790) " points="3.90646093 85.9290798 131.660576 33.1205007 112.637039 68.8684957"></polygon>
                    </g>
                </g>
            </g>
            <g id="Group-2-Copy-7" transform="translate(108.000000, 98.333333) scale(1, -1) translate(-108.000000, -98.333333) ">
                <g id="Group-2-Copy-3" transform="translate(107.886754, 98.449341) scale(1, -1) rotate(17.000000) translate(-107.886754, -98.449341) translate(21.384384, 20.444534)">
                    <g id="Group" transform="translate(86.502370, 78.004808) rotate(-11.000000) translate(-86.502370, -78.004808) translate(12.284360, 12.291667)">
                        <polygon id="Triangle-Copy-2" transform="translate(78.958378, 88.637820) rotate(-15.000000) translate(-78.958378, -88.637820) " points="15.0813205 116.391457 142.835435 60.8841823 123.811899 98.4590196"></polygon>
                        <polygon id="Triangle-Copy-4" transform="translate(70.636673, 76.003860) rotate(-30.000000) translate(-70.636673, -76.003860) " points="6.75961555 102.408149 134.51373 49.5995704 115.490194 85.3475654"></polygon>
                        <polygon id="Triangle-Copy-5" transform="translate(67.783518, 59.524790) rotate(-41.000000) translate(-67.783518, -59.524790) " points="3.90646093 85.9290798 131.660576 33.1205007 112.637039 68.8684957"></polygon>
                    </g>
                </g>
            </g>
        </g>
        <g id="Group-2-Copy-6" transform="translate(61.000000, 114.500000) scale(-1, 1) translate(-61.000000, -114.500000) translate(-47.000000, -33.000000)" fill="url(#linearGradient-1)">
            <g id="Group-2-Copy-5" transform="translate(0.000000, 98.333333)">
                <g id="Group-2-Copy-3" transform="translate(107.886754, 98.449341) scale(1, -1) rotate(17.000000) translate(-107.886754, -98.449341) translate(21.384384, 20.444534)">
                    <g id="Group" transform="translate(86.502370, 78.004808) rotate(-11.000000) translate(-86.502370, -78.004808) translate(12.284360, 12.291667)">
                        <polygon id="Triangle-Copy-2" transform="translate(78.958378, 88.637820) rotate(-15.000000) translate(-78.958378, -88.637820) " points="15.0813205 116.391457 142.835435 60.8841823 123.811899 98.4590196"></polygon>
                        <polygon id="Triangle-Copy-4" transform="translate(70.636673, 76.003860) rotate(-30.000000) translate(-70.636673, -76.003860) " points="6.75961555 102.408149 134.51373 49.5995704 115.490194 85.3475654"></polygon>
                        <polygon id="Triangle-Copy-5" transform="translate(67.783518, 59.524790) rotate(-41.000000) translate(-67.783518, -59.524790) " points="3.90646093 85.9290798 131.660576 33.1205007 112.637039 68.8684957"></polygon>
                    </g>
                </g>
            </g>
            <g id="Group-2-Copy-7" transform="translate(108.000000, 98.333333) scale(1, -1) translate(-108.000000, -98.333333) ">
                <g id="Group-2-Copy-3" transform="translate(107.886754, 98.449341) scale(1, -1) rotate(17.000000) translate(-107.886754, -98.449341) translate(21.384384, 20.444534)">
                    <g id="Group" transform="translate(86.502370, 78.004808) rotate(-11.000000) translate(-86.502370, -78.004808) translate(12.284360, 12.291667)">
                        <polygon id="Triangle-Copy-2" transform="translate(78.958378, 88.637820) rotate(-15.000000) translate(-78.958378, -88.637820) " points="15.0813205 116.391457 142.835435 60.8841823 123.811899 98.4590196"></polygon>
                        <polygon id="Triangle-Copy-4" transform="translate(70.636673, 76.003860) rotate(-30.000000) translate(-70.636673, -76.003860) " points="6.75961555 102.408149 134.51373 49.5995704 115.490194 85.3475654"></polygon>
                        <polygon id="Triangle-Copy-5" transform="translate(67.783518, 59.524790) rotate(-41.000000) translate(-67.783518, -59.524790) " points="3.90646093 85.9290798 131.660576 33.1205007 112.637039 68.8684957"></polygon>
                    </g>
                </g>
            </g>
        </g>
    </g>
</svg>