<?xml version="1.0" encoding="UTF-8"?>
<svg width="161px" height="286px" viewBox="0 0 161 286" version="1.1" xmlns="http://www.w3.org/2000/svg" xmlns:xlink="http://www.w3.org/1999/xlink">
    <!-- Generator: Sketch 51.2 (57519) - http://www.bohemiancoding.com/sketch -->
    <title>Artboard</title>
    <desc>Created with Sketch.</desc>
    <defs>
        <linearGradient x1="0.25781251%" y1="49.7500002%" x2="101.257813%" y2="49.7500002%" id="linearGradient-1">
            <stop stop-color="#3023AE" offset="0%"></stop>
            <stop stop-color="#53A0FD" offset="47.5247532%"></stop>
            <stop stop-color="#B4EC51" offset="100%"></stop>
        </linearGradient>
    </defs>
    <g id="Page-1" stroke="none" stroke-width="1" fill="none" fill-rule="evenodd">
        <g id="Artboard" transform="translate(1.000000, 3.000000)">
            <g id="Group-2" transform="translate(43.183391, 15.000000)" fill="url(#linearGradient-1)" fill-rule="nonzero">
                <g id="Group-2-Copy-5" transform="translate(0.000000, 56.101499)">
                    <g id="Group-2-Copy-3" transform="translate(58.575836, 56.881883) scale(-1, 1) rotate(-163.000000) translate(-58.575836, -56.881883) translate(11.517012, 12.314409)">
                        <g id="Group" transform="translate(47.080146, 44.658682) rotate(-11.000000) translate(-47.080146, -44.658682) translate(6.664921, 7.288440)">
                            <polygon id="Triangle-Copy-2" transform="translate(42.606714, 50.733741) rotate(-15.000000) translate(-42.606714, -50.733741) " points="7.24225347 66.0990766 77.971175 35.3684055 67.4391136 56.1710838"></polygon>
                            <polygon id="Triangle-Copy-4" transform="translate(37.999542, 43.739161) rotate(-30.000000) translate(-37.999542, -43.739161) " points="2.63508117 58.3574528 73.3640027 29.1208696 62.8319413 48.9121471"></polygon>
                            <polygon id="Triangle-Copy-5" transform="translate(36.419941, 34.615801) rotate(-41.000000) translate(-36.419941, -34.615801) " points="1.05548014 49.2340926 71.784402 19.997509 61.2523399 39.7887865"></polygon>
                        </g>
                    </g>
                </g>
                <g id="Group-2-Copy-7" transform="translate(58.408304, 57.116493) scale(-1, 1) rotate(-180.000000) translate(-58.408304, -57.116493) translate(0.000000, 0.369088)">
                    <g id="Group-2-Copy-3" transform="translate(58.575836, 56.881883) scale(-1, 1) rotate(-163.000000) translate(-58.575836, -56.881883) translate(11.517012, 12.314409)">
                        <g id="Group" transform="translate(47.080146, 44.658682) rotate(-11.000000) translate(-47.080146, -44.658682) translate(6.664921, 7.288440)">
                            <polygon id="Triangle-Copy-2" transform="translate(42.606714, 50.733741) rotate(-15.000000) translate(-42.606714, -50.733741) " points="7.24225347 66.0990766 77.971175 35.3684055 67.4391136 56.1710838"></polygon>
                            <polygon id="Triangle-Copy-4" transform="translate(37.999542, 43.739161) rotate(-30.000000) translate(-37.999542, -43.739161) " points="2.63508117 58.3574528 73.3640027 29.1208696 62.8319413 48.9121471"></polygon>
                            <polygon id="Triangle-Copy-5" transform="translate(36.419941, 34.615801) rotate(-41.000000) translate(-36.419941, -34.615801) " points="1.05548014 49.2340926 71.784402 19.997509 61.2523399 39.7887865"></polygon>
                        </g>
                    </g>
                </g>
            </g>
            <g id="Group-2-Copy-6" transform="translate(58.408304, 99.982699) scale(-1, 1) translate(-58.408304, -99.982699) translate(0.000000, 15.000000)" fill="url(#linearGradient-1)" fill-rule="nonzero">
                <g id="Group-2-Copy-5" transform="translate(0.000000, 56.101499)">
                    <g id="Group-2-Copy-3" transform="translate(58.575836, 56.881883) scale(-1, 1) rotate(-163.000000) translate(-58.575836, -56.881883) translate(11.517012, 12.314409)">
                        <g id="Group" transform="translate(47.080146, 44.658682) rotate(-11.000000) translate(-47.080146, -44.658682) translate(6.664921, 7.288440)">
                            <polygon id="Triangle-Copy-2" transform="translate(42.606714, 50.733741) rotate(-15.000000) translate(-42.606714, -50.733741) " points="7.24225347 66.0990766 77.971175 35.3684055 67.4391136 56.1710838"></polygon>
                            <polygon id="Triangle-Copy-4" transform="translate(37.999542, 43.739161) rotate(-30.000000) translate(-37.999542, -43.739161) " points="2.63508117 58.3574528 73.3640027 29.1208696 62.8319413 48.9121471"></polygon>
                            <polygon id="Triangle-Copy-5" transform="translate(36.419941, 34.615801) rotate(-41.000000) translate(-36.419941, -34.615801) " points="1.05548014 49.2340926 71.784402 19.997509 61.2523399 39.7887865"></polygon>
                        </g>
                    </g>
                </g>
                <g id="Group-2-Copy-7" transform="translate(58.408304, 57.116493) scale(-1, 1) rotate(-180.000000) translate(-58.408304, -57.116493) translate(0.000000, 0.369088)">
                    <g id="Group-2-Copy-3" transform="translate(58.575836, 56.881883) scale(-1, 1) rotate(-163.000000) translate(-58.575836, -56.881883) translate(11.517012, 12.314409)">
                        <g id="Group" transform="translate(47.080146, 44.658682) rotate(-11.000000) translate(-47.080146, -44.658682) translate(6.664921, 7.288440)">
                            <polygon id="Triangle-Copy-2" transform="translate(42.606714, 50.733741) rotate(-15.000000) translate(-42.606714, -50.733741) " points="7.24225347 66.0990766 77.971175 35.3684055 67.4391136 56.1710838"></polygon>
                            <polygon id="Triangle-Copy-4" transform="translate(37.999542, 43.739161) rotate(-30.000000) translate(-37.999542, -43.739161) " points="2.63508117 58.3574528 73.3640027 29.1208696 62.8319413 48.9121471"></polygon>
                            <polygon id="Triangle-Copy-5" transform="translate(36.419941, 34.615801) rotate(-41.000000) translate(-36.419941, -34.615801) " points="1.05548014 49.2340926 71.784402 19.997509 61.2523399 39.7887865"></polygon>
                        </g>
                    </g>
                </g>
            </g>
            <g id="camera_clear" transform="translate(2.000000, 0.000000)" stroke="#000099" stroke-width="6">
                <g id="usa">
                    <path d="M0,87.9576702 C0,39.3799055 34.6998667,0 77.5,0 C120.297341,0 155,39.3799055 155,87.9576702 C155,136.532643 77.5,276 77.5,276 C77.5,276 0,136.532643 0,87.9576702 Z" id="Shape"></path>
                </g>
            </g>
        </g>
    </g>
</svg>