<?xml version="1.0" encoding="UTF-8"?>
<svg width="159px" height="283px" viewBox="0 0 159 283" version="1.1" xmlns="http://www.w3.org/2000/svg" xmlns:xlink="http://www.w3.org/1999/xlink">
    <!-- Generator: Sketch 51.2 (57519) - http://www.bohemiancoding.com/sketch -->
    <title>newLogomap</title>
    <desc>Created with Sketch.</desc>
    <defs>
        <linearGradient x1="0.25781251%" y1="49.7500002%" x2="101.257813%" y2="49.7500002%" id="linearGradient-1">
            <stop stop-color="#3023AE" offset="0%"></stop>
            <stop stop-color="#53A0FD" offset="47.5247532%"></stop>
            <stop stop-color="#B4EC51" offset="100%"></stop>
        </linearGradient>
    </defs>
    <g id="Page-1" stroke="none" stroke-width="1" fill="none" fill-rule="evenodd">
        <g id="newLogomap" transform="translate(2.000000, 2.000000)">
            <g id="Group-2">
                <g id="camera_clear"></g>
                <g id="usa"></g>
                <path d="M0,87.9576702 C0,39.3799055 34.6998667,0 77.5,0 C120.297341,0 155,39.3799055 155,87.9576702 C155,136.532643 77.5,276 77.5,276 C77.5,276 0,136.532643 0,87.9576702 Z" id="Shape" stroke="#000099" stroke-width="4" fill-opacity="0.5" fill="#FFFFFF"></path>
                <g id="new_logo_sm2" transform="translate(5.000000, 15.000000)"></g>
                <g id="Group-2-Copy" transform="translate(97.000000, 92.000000) scale(-1, 1) translate(-97.000000, -92.000000) translate(45.000000, 15.000000)" fill="url(#linearGradient-1)" fill-rule="nonzero">
                    <g id="newLogo">
                        <g id="Group-2-Copy-6" transform="translate(51.898927, 102.653116) scale(-1, 1) translate(-51.898927, -102.653116) translate(0.398927, 51.653116)">
                            <g id="Group-2-Copy-5" transform="translate(0.000000, 0.158297)">
                                <g id="Group-2-Copy-3" transform="translate(51.476503, 50.164373) scale(-1, 1) rotate(-163.000000) translate(-51.476503, -50.164373) translate(9.976503, 10.664373)">
                                    <g id="Group" transform="translate(41.370645, 39.246220) rotate(-11.000000) translate(-41.370645, -39.246220) translate(5.870645, 6.246220)">
                                        <polygon id="Triangle-Copy-2" transform="translate(37.404470, 44.357755) rotate(-15.000000) translate(-37.404470, -44.357755) " points="6.35798039 57.5377078 68.4509597 31.1778025 59.2048541 49.0217546"></polygon>
                                        <polygon id="Triangle-Copy-5" transform="translate(31.973097, 30.532239) rotate(-41.000000) translate(-31.973097, -30.532239) " points="0.926606792 43.0713985 63.0195863 17.9930794 53.7734803 34.9694806"></polygon>
                                        <polygon id="Triangle-Copy-4" transform="translate(34.657533, 37.029659) rotate(-30.000000) translate(-34.657533, -37.029659) " points="3.61104386 49.8062644 65.7040231 24.2530543 56.4579175 41.5509262"></polygon>
                                    </g>
                                </g>
                            </g>
                        </g>
                        <g id="Group-2-Copy-6-Copy" transform="translate(51.898927, 51.346883) rotate(180.000000) translate(-51.898927, -51.346883) translate(0.398927, 0.346883)">
                            <g id="Group-2-Copy-5" transform="translate(0.000000, 0.158297)">
                                <g id="Group-2-Copy-3" transform="translate(51.476503, 50.164373) scale(-1, 1) rotate(-163.000000) translate(-51.476503, -50.164373) translate(9.976503, 10.664373)">
                                    <g id="Group" transform="translate(41.370645, 39.246220) rotate(-11.000000) translate(-41.370645, -39.246220) translate(5.870645, 6.246220)">
                                        <polygon id="Triangle-Copy-2" transform="translate(37.404470, 44.357755) rotate(-15.000000) translate(-37.404470, -44.357755) " points="6.35798039 57.5377078 68.4509597 31.1778025 59.2048541 49.0217546"></polygon>
                                        <polygon id="Triangle-Copy-5" transform="translate(31.973097, 30.532239) rotate(-41.000000) translate(-31.973097, -30.532239) " points="0.926606792 43.0713985 63.0195863 17.9930794 53.7734803 34.9694806"></polygon>
                                        <polygon id="Triangle-Copy-4" transform="translate(34.657533, 37.029659) rotate(-30.000000) translate(-34.657533, -37.029659) " points="3.61104386 49.8062644 65.7040231 24.2530543 56.4579175 41.5509262"></polygon>
                                    </g>
                                </g>
                            </g>
                        </g>
                    </g>
                </g>
                <g transform="translate(5.000000, 15.000000)"></g>
                <g id="newLogo" transform="translate(5.000000, 15.000000)" fill="url(#linearGradient-1)" fill-rule="nonzero">
                    <g id="Group-2-Copy-6" transform="translate(51.898927, 102.653116) scale(-1, 1) translate(-51.898927, -102.653116) translate(0.398927, 51.653116)">
                        <g id="Group-2-Copy-5" transform="translate(0.000000, 0.158297)">
                            <g id="Group-2-Copy-3" transform="translate(51.476503, 50.164373) scale(-1, 1) rotate(-163.000000) translate(-51.476503, -50.164373) translate(9.976503, 10.664373)">
                                <g id="Group" transform="translate(41.370645, 39.246220) rotate(-11.000000) translate(-41.370645, -39.246220) translate(5.870645, 6.246220)">
                                    <polygon id="Triangle-Copy-2" transform="translate(37.404470, 44.357755) rotate(-15.000000) translate(-37.404470, -44.357755) " points="6.35798039 57.5377078 68.4509597 31.1778025 59.2048541 49.0217546"></polygon>
                                    <polygon id="Triangle-Copy-5" transform="translate(31.973097, 30.532239) rotate(-41.000000) translate(-31.973097, -30.532239) " points="0.926606792 43.0713985 63.0195863 17.9930794 53.7734803 34.9694806"></polygon>
                                    <polygon id="Triangle-Copy-4" transform="translate(34.657533, 37.029659) rotate(-30.000000) translate(-34.657533, -37.029659) " points="3.61104386 49.8062644 65.7040231 24.2530543 56.4579175 41.5509262"></polygon>
                                </g>
                            </g>
                        </g>
                    </g>
                    <g id="Group-2-Copy-6-Copy" transform="translate(51.898927, 51.346883) rotate(180.000000) translate(-51.898927, -51.346883) translate(0.398927, 0.346883)">
                        <g id="Group-2-Copy-5" transform="translate(0.000000, 0.158297)">
                            <g id="Group-2-Copy-3" transform="translate(51.476503, 50.164373) scale(-1, 1) rotate(-163.000000) translate(-51.476503, -50.164373) translate(9.976503, 10.664373)">
                                <g id="Group" transform="translate(41.370645, 39.246220) rotate(-11.000000) translate(-41.370645, -39.246220) translate(5.870645, 6.246220)">
                                    <polygon id="Triangle-Copy-2" transform="translate(37.404470, 44.357755) rotate(-15.000000) translate(-37.404470, -44.357755) " points="6.35798039 57.5377078 68.4509597 31.1778025 59.2048541 49.0217546"></polygon>
                                    <polygon id="Triangle-Copy-5" transform="translate(31.973097, 30.532239) rotate(-41.000000) translate(-31.973097, -30.532239) " points="0.926606792 43.0713985 63.0195863 17.9930794 53.7734803 34.9694806"></polygon>
                                    <polygon id="Triangle-Copy-4" transform="translate(34.657533, 37.029659) rotate(-30.000000) translate(-34.657533, -37.029659) " points="3.61104386 49.8062644 65.7040231 24.2530543 56.4579175 41.5509262"></polygon>
                                </g>
                            </g>
                        </g>
                    </g>
                </g>
            </g>
        </g>
    </g>
</svg>