<?xml version="1.0" encoding="UTF-8"?>
<svg width="100px" height="100px" viewBox="0 0 100 100" version="1.1" xmlns="http://www.w3.org/2000/svg" xmlns:xlink="http://www.w3.org/1999/xlink">
    <!-- Generator: Sketch 52.6 (67491) - http://www.bohemiancoding.com/sketch -->
    <title>night</title>
    <desc>Created with Sketch.</desc>
    <defs>
        <linearGradient x1="50%" y1="0%" x2="50%" y2="100%" id="linearGradient-1">
            <stop stop-color="#F9F473" offset="0%"></stop>
            <stop stop-color="#FFFFFF" offset="100%"></stop>
        </linearGradient>
    </defs>
    <g id="night" stroke="none" stroke-width="1" fill="none" fill-rule="evenodd">
        <g transform="translate(4.500000, 27.358444)">
            <path d="M66.9465463,14.8525983 C67.185804,15.3879026 66.8906884,15.8263866 66.2920786,15.8263866 L25.8584538,15.8263866 C25.257982,15.8263866 24.974969,15.3925574 25.2281912,14.8637699 L31.8762045,0.963547655 C32.1303577,0.433829186 32.8276497,0 33.4281214,0 L59.2148909,0 C59.8153627,0 60.5005521,0.438484005 60.7416718,0.973788258 L66.9465463,14.8525983 Z" id="Shape" fill="#C5B358"></path>
            <path d="M0,9.53027762 C0,8.38426104 0.980305005,7.44771134 2.17845557,7.44771134 L88.1250444,7.44771134 C89.323195,7.44771134 90.3035,8.38426104 90.3035,9.53027762 L90.3035,51.9142719 C90.3035,53.0584265 89.323195,53.9959072 88.1250444,53.9959072 L2.17845557,53.9959072 C0.980305005,53.9959072 0,53.0584265 0,51.9142719 L0,9.53027762 Z" id="Shape_1_" fill="#C5B358"></path>
            <circle id="Oval" fill="#1A1A1A" cx="45.617232" cy="31.6527732" r="21.4121701"></circle>
            <rect id="Rectangle-path" fill="#1A1A1A" x="0" y="14.8954227" width="90.3035" height="31.6527732"></rect>
            <circle id="Oval_1_" fill="#000000" cx="45.617232" cy="31.6527732" r="19.5502423"></circle>
            <circle id="Oval_2_" fill="#000000" cx="45.15175" cy="31.1872912" r="17.2228325"></circle>
            <g id="Group" transform="translate(38.582543, 23.721809)">
                <circle id="Oval_3_" fill="url(#linearGradient-1)" cx="6.61723196" cy="7.72180928" r="5.85579642"></circle>
                <circle id="Oval_3_-Copy" fill="#000000" cx="8.38160884" cy="6.1985854" r="5.85579642"></circle>
            </g>
        </g>
    </g>
</svg>