<?xml version="1.0" encoding="UTF-8"?>
<svg width="107px" height="64px" viewBox="0 0 107 64" version="1.1" xmlns="http://www.w3.org/2000/svg" xmlns:xlink="http://www.w3.org/1999/xlink">
    <!-- Generator: Sketch 46.2 (44496) - http://www.bohemiancoding.com/sketch -->
    <title>Artboard</title>
    <desc>Created with Sketch.</desc>
    <defs></defs>
    <g id="Page-1" stroke="none" stroke-width="1" fill="none" fill-rule="evenodd">
        <g id="Artboard" fill-rule="nonzero">
            <g id="night">
                <path d="M78.9029886,17.8309164 C79.1823781,18.4738167 78.8372875,19 78.1375378,19 L30.845437,19 C30.1437737,19 29.8120785,18.4795569 30.1086906,17.8443101 L37.8837569,1.15632763 C38.1803691,0.520443101 38.9968499,0 39.6985132,0 L69.8591877,0 C70.5614888,0 71.3632984,0.526183283 71.6446016,1.16908359 L78.9029886,17.8309164 Z" id="Shape" fill="#C5B358"></path>
                <path d="M5.66764617e-16,11.4603474 C5.66764617e-16,10.1071249 1.16201693,9 2.58183445,9 L104.418166,9 C105.838621,9 107,10.1071249 107,11.4603474 L107,61.5396525 C107,62.8922458 105.838621,64 104.418166,64 L2.58183445,64 C1.16201693,64 0,62.8922458 0,61.5396525 L5.66764617e-16,11.4603474 Z" id="Shape" fill="#C5B358"></path>
                <ellipse id="Oval" fill="#222222" cx="54" cy="37.5" rx="25" ry="25.5"></ellipse>
                <rect id="Rectangle-path" fill="#1A1A1A" x="0" y="18" width="107" height="37"></rect>
                <circle id="Oval" fill="#000000" cx="54" cy="37" r="23"></circle>
                <circle id="Oval" fill="#000000" cx="53.5" cy="37.5" r="20.5"></circle>
                <circle id="Oval" fill="#C5B358" cx="53" cy="36" r="1"></circle>
            </g>
        </g>
    </g>
</svg>