<?xml version="1.0" encoding="UTF-8"?>
<svg width="89px" height="89px" viewBox="0 0 89 89" version="1.1" xmlns="http://www.w3.org/2000/svg" xmlns:xlink="http://www.w3.org/1999/xlink">
    <!-- Generator: Sketch 50.2 (55047) - http://www.bohemiancoding.com/sketch -->
    <title>notes</title>
    <desc>Created with Sketch.</desc>
    <defs></defs>
    <g id="Page-1" stroke="none" stroke-width="1" fill="none" fill-rule="evenodd">
        <g id="notes">
            <rect id="biz_act" fill="#EC1C24" x="0" y="0" width="89" height="89" rx="8"></rect>
            <g transform="translate(19.000000, 14.000000)" fill="#FFFF00" fill-rule="nonzero" id="Shape">
                <path d="M41.6215529,57.3339113 L4.37844707,57.3339113 C3.27945101,57.3339113 2.390901,56.3390051 2.390901,55.1230086 L2.390901,4.87048878 C2.390901,3.6479896 3.28529673,2.659586 4.37844707,2.659586 L41.6215529,2.659586 C42.720549,2.659586 43.609099,3.65449225 43.609099,4.87048878 L45.9941543,4.87048878 C45.9941543,2.18489216 44.0299911,0 41.6157072,0 L4.37844707,0 C1.96416317,9.2408289e-16 0,2.18489216 0,4.87048878 L0,55.1295112 C0,57.8151078 1.96416317,60 4.37844707,60 L41.6215529,60 C44.0358368,60 46,57.8151078 46,55.1295112 L46,44.2050504 L43.6149447,44.2050504 L43.609099,55.1230086 C43.609099,56.3455077 42.7147033,57.3339113 41.6215529,57.3339113 Z"></path>
                <path d="M57.1881114,11.163586 C57.1162723,11.0536044 57.0324601,10.9565619 56.9366747,10.8789279 C56.8648356,10.8207024 55.1826043,9.4232902 53.3147888,8.43992606 C52.7580361,8.14879852 52.1952968,8 51.6385441,8 C50.0101921,8 49.1181905,9.24861368 48.9984587,9.4232902 L46.8253272,12.8133087 C46.8193406,12.8197782 46.8193406,12.8327172 46.813354,12.8391867 C46.8073674,12.8456562 46.8013809,12.8521257 46.7953943,12.8585952 L31.8947762,38.3354898 C31.8229372,38.4584104 31.7930042,38.5878004 31.7570847,38.7171904 C31.7510981,38.7430684 31.7271517,38.7624769 31.7271517,38.7883549 L30.0209741,48.4279113 C29.9311753,48.9454713 30.1347193,49.4759704 30.5358207,49.7735675 C30.7393647,49.922366 30.9788282,50 31.2182918,50 C31.4457821,50 31.679259,49.9288355 31.882803,49.792976 L39.4259042,44.5462107 C39.5037298,44.4944547 39.5456359,44.4038817 39.6114884,44.3327172 C39.6653677,44.2744917 39.7372068,44.2421442 39.7850995,44.1645102 L55.463974,18.6617375 C55.9907938,17.8271719 57.2060712,15.8927911 57.6550653,15.0970425 C58.5949596,13.4085028 57.3317895,11.3900185 57.1881114,11.163586 Z M50.9919926,10.9500924 C50.9979792,10.9436229 51.5427587,10.4454713 52.2431895,10.8142329 C53.5662255,11.512939 54.8353822,12.4833641 55.2783898,12.8391867 C55.4400276,13.1497227 55.5896923,13.5831793 55.5597594,13.7190388 C55.2424702,14.2818854 54.4582272,15.5434381 53.8775281,16.4685767 L49.5372517,13.2273567 L50.9919926,10.9500924 Z M52.512586,18.6617375 L38.4321305,41.5702403 L34.5827543,38.6719039 L48.1842827,15.4205176 L52.512586,18.6617375 Z M32.9544023,45.8983364 L33.7685783,41.2920518 L36.5583284,43.3881701 L32.9544023,45.8983364 Z"></path>
                <path d="M38,13 C38,12.4460784 37.4726548,12 36.8178196,12 L7.18218037,12 C6.52734516,12 6,12.4460784 6,13 C6,13.5539216 6.52734516,14 7.18218037,14 L36.8120246,14 C37.4668598,14 38,13.5539216 38,13 Z"></path>
                <path d="M30,25.9999802 C30,25.4460696 29.4627306,25 28.795572,25 L7.20442804,25 C6.53726937,25 6,25.4460696 6,25.9999802 C6,26.5538908 6.53726937,26.9999604 7.20442804,26.9999604 L28.795572,26.9999604 C29.4568266,27.0048623 30,26.5538908 30,25.9999802 Z"></path>
                <path d="M7.17331288,38 C6.52338957,38 6,38.4460784 6,39 C6,39.5539216 6.52338957,40 7.17331288,40 L19.8266871,40 C20.4766104,40 21,39.5539216 21,39 C21,38.4460784 20.4766104,38 19.8266871,38 L7.17331288,38 Z"></path>
            </g>
        </g>
    </g>
</svg>