<?xml version="1.0" encoding="UTF-8"?>
<svg width="82px" height="82px" viewBox="0 0 82 82" version="1.1" xmlns="http://www.w3.org/2000/svg" xmlns:xlink="http://www.w3.org/1999/xlink">
    <!-- Generator: Sketch 52.6 (67491) - http://www.bohemiancoding.com/sketch -->
    <title>Artboard</title>
    <desc>Created with Sketch.</desc>
    <g id="Artboard" stroke="none" stroke-width="1" fill="none" fill-rule="evenodd">
        <rect fill="#FFFFFF" x="0" y="0" width="82" height="82"></rect>
        <g id="732090" transform="translate(2.000000, 2.000000)" fill="#000000">
            <path d="M39,0.0226451613 C17.496375,0.0226451613 0,18.0834194 0,40.2807097 C0,56.841871 10.057125,71.9235484 25.0185,77.8062581 C25.6425,78.0629032 26.3445,78.0226452 26.949,77.7207097 C27.5535,77.4137419 28.01175,76.8702581 28.211625,76.206 L35.524125,52.1014839 C35.87025,50.9591613 35.3925,49.7212258 34.3785,49.1475484 C31.214625,47.346 29.25,43.9492258 29.25,40.2807097 C29.25,34.730129 33.622875,30.2161935 39,30.2161935 C44.377125,30.2161935 48.75,34.730129 48.75,40.2807097 C48.75,43.9492258 46.785375,47.346 43.6215,49.1525806 C42.6075,49.7262581 42.124875,50.9641935 42.475875,52.1065161 L49.788375,76.2110323 C49.98825,76.8752903 50.4465,77.4187742 51.051,77.7257419 C51.387375,77.8918065 51.753,77.9773548 52.11375,77.9773548 C52.40625,77.9773548 52.703625,77.922 52.9815,77.8112903 C67.94775,71.9235484 78,56.841871 78,40.2807097 C78,18.0834194 60.503625,0.0226451613 39,0.0226451613 Z" id="Path"></path>
        </g>
    </g>
</svg>