<?xml version="1.0" encoding="utf-8"?>
<!-- Generator: Adobe Illustrator 14.0.0, SVG Export Plug-In . SVG Version: 6.00 Build 43363)  -->
<!DOCTYPE svg PUBLIC "-//W3C//DTD SVG 1.1//EN" "http://www.w3.org/Graphics/SVG/1.1/DTD/svg11.dtd">
<svg version="1.1" id="Layer_1" xmlns="http://www.w3.org/2000/svg" xmlns:xlink="http://www.w3.org/1999/xlink" x="0px" y="0px"
	 width="187.014px" height="118.62px" viewBox="-6.014 15.442 187.014 118.62"
	 enable-background="new -6.014 15.442 187.014 118.62" xml:space="preserve">
<g>
	<g>
		<defs>
			<path id="SVGID_1_" d="M127.816,49.283c0.468,1.064-0.111,1.935-1.288,1.935h-79.46c-1.178,0-1.736-0.863-1.237-1.911
				l13.062-27.619c0.499-1.053,1.871-1.914,3.05-1.914h50.674c1.182,0,2.527,0.871,3.002,1.935L127.816,49.283z"/>
		</defs>
		<clipPath id="SVGID_2_">
			<use xlink:href="#SVGID_1_"  overflow="visible"/>
		</clipPath>
		<rect x="40.316" y="14.442" clip-path="url(#SVGID_2_)" fill="#BFBDBA" width="92.994" height="42.107"/>
	</g>
</g>
<g>
	<g>
		<defs>
			<path id="SVGID_3_" d="M-3.042,39.622c0-2.269,1.951-4.126,4.335-4.126h171.04c2.384,0,4.336,1.857,4.336,4.126v83.983
				c0,2.268-1.952,4.126-4.336,4.126H1.293c-2.384,0-4.335-1.858-4.335-4.126V39.622z"/>
		</defs>
		<clipPath id="SVGID_4_">
			<use xlink:href="#SVGID_3_"  overflow="visible"/>
		</clipPath>
		<rect x="-8.375" y="30.164" clip-path="url(#SVGID_4_)" fill="#BFBDBA" width="190.375" height="102.898"/>
	</g>
</g>
<g>
	<g>
		<defs>
			<ellipse id="SVGID_5_" cx="86.813" cy="82.19" rx="42.371" ry="41.73"/>
		</defs>
		<clipPath id="SVGID_6_">
			<use xlink:href="#SVGID_5_"  overflow="visible"/>
		</clipPath>
		<rect x="39.111" y="35.128" clip-path="url(#SVGID_6_)" fill="#007D50" width="95.404" height="94.123"/>
	</g>
</g>
<g>
	<g>
		<defs>
			<rect id="SVGID_7_" x="-3.042" y="49.272" width="179.711" height="62.339"/>
		</defs>
		<clipPath id="SVGID_8_">
			<use xlink:href="#SVGID_7_"  overflow="visible"/>
		</clipPath>
		<rect x="-8.375" y="43.941" clip-path="url(#SVGID_8_)" fill="#007D50" width="190.375" height="73.002"/>
	</g>
</g>
<g>
	<g>
		<defs>
			<ellipse id="SVGID_9_" cx="86.813" cy="82.19" rx="39.019" ry="38.427"/>
		</defs>
		<clipPath id="SVGID_10_">
			<use xlink:href="#SVGID_9_"  overflow="visible"/>
		</clipPath>
		<rect x="42.463" y="38.431" clip-path="url(#SVGID_10_)" fill="#4D626B" width="88.7" height="87.518"/>
	</g>
</g>
<g>
	<g>
		<defs>
			<ellipse id="SVGID_11_" cx="86.813" cy="82.191" rx="34.552" ry="34.03"/>
		</defs>
		<clipPath id="SVGID_12_">
			<use xlink:href="#SVGID_11_"  overflow="visible"/>
		</clipPath>
		<rect x="46.93" y="42.83" clip-path="url(#SVGID_12_)" fill="#D1B782" width="79.768" height="78.723"/>
	</g>
</g>
</svg>
