<?xml version="1.0" encoding="UTF-8"?>
<svg width="100px" height="100px" viewBox="0 0 100 100" version="1.1" xmlns="http://www.w3.org/2000/svg" xmlns:xlink="http://www.w3.org/1999/xlink">
    <!-- Generator: Sketch 52.6 (67491) - http://www.bohemiancoding.com/sketch -->
    <title>pacificNW</title>
    <desc>Created with Sketch.</desc>
    <defs>
        <linearGradient x1="50%" y1="29.9346924%" x2="50%" y2="95.4284668%" id="linearGradient-1">
            <stop stop-color="#A8C01A" offset="0%"></stop>
            <stop stop-color="#777586" offset="100%"></stop>
        </linearGradient>
        <linearGradient x1="50%" y1="29.9346924%" x2="50%" y2="95.4284668%" id="linearGradient-2">
            <stop stop-color="#A9C11A" offset="0%"></stop>
            <stop stop-color="#777586" offset="100%"></stop>
        </linearGradient>
        <linearGradient x1="50%" y1="78.2637747%" x2="50%" y2="0%" id="linearGradient-3">
            <stop stop-color="#D3D2DD" offset="0%"></stop>
            <stop stop-color="#46436F" offset="100%"></stop>
        </linearGradient>
    </defs>
    <g id="pacificNW" stroke="none" stroke-width="1" fill="none" fill-rule="evenodd">
        <g id="Group-Copy" transform="translate(50.000000, 71.000000) rotate(-360.000000) translate(-50.000000, -71.000000) translate(17.000000, 57.000000)">
            <path d="M35.6363636,28 L33.5141933,25.1704396 L21,8.48484848 L6.36363636,28 L0,28 L21,0 L33.5141933,16.6855911 L42,28 L35.6363636,28 Z" id="Combined-Shape" fill="url(#linearGradient-1)"></path>
            <path d="M59.6363636,28 L57.5141933,25.1704396 L45,8.48484848 L30.3636364,28 L24,28 L45,-1.42108547e-14 L57.5141933,16.6855911 L66,28 L59.6363636,28 Z" id="Combined-Shape-Copy-3" fill="url(#linearGradient-2)"></path>
        </g>
        <path d="M37.2304408,48.3963716 C34.3418289,51.243186 30.3760774,53 26,53 C17.163444,53 10,45.836556 10,37 C10,28.4136925 16.7634561,21.4070749 25.2534047,21.0171107 C28.4587159,15.0540441 34.7559216,11 42,11 C47.3492146,11 52.1821253,13.2105596 55.6350532,16.7679998 C57.3364077,16.268164 59.1368873,16 61,16 C66.1578857,16 70.835741,18.0552545 74.259287,21.3914847 C75.2974448,21.1356889 76.3828765,21 77.5,21 C84.9558441,21 91,27.0441559 91,34.5 C91,41.9558441 84.9558441,48 77.5,48 C76.6667943,48 75.8512185,47.9245175 75.0597378,47.7800176 C71.5842777,51.6012428 66.5722687,54 61,54 C55.6507854,54 50.8178747,51.7894404 47.3649468,48.2320002 C45.6635923,48.731836 43.8631127,49 42,49 C40.352782,49 38.7545225,48.790384 37.2304408,48.3963716 Z" id="Combined-Shape" fill="url(#linearGradient-3)"></path>
    </g>
</svg>