<?xml version="1.0" encoding="UTF-8"?>
<svg width="110px" height="110px" viewBox="0 0 110 110" version="1.1" xmlns="http://www.w3.org/2000/svg" xmlns:xlink="http://www.w3.org/1999/xlink">
    <!-- Generator: Sketch 52.6 (67491) - http://www.bohemiancoding.com/sketch -->
    <title>projectsicon</title>
    <desc>Created with Sketch.</desc>
    <defs>
        <linearGradient x1="0.25781251%" y1="49.7500002%" x2="101.257813%" y2="49.7500002%" id="linearGradient-1">
            <stop stop-color="#3023AE" offset="0%"></stop>
            <stop stop-color="#53A0FD" offset="47.5247532%"></stop>
            <stop stop-color="#B4EC51" offset="100%"></stop>
        </linearGradient>
    </defs>
    <g id="Page-1" stroke="none" stroke-width="1" fill="none" fill-rule="evenodd">
        <g id="projectsicon">
            <rect id="apple-touch-icon" fill="#F2F2F2" x="0" y="0" width="110" height="110" rx="20"></rect>
            <g id="Group-2" transform="translate(5.339806, 3.203883)" fill="url(#linearGradient-1)">
                <g transform="translate(27.656164, 0.000000)">
                    <g id="Group-2-Copy-5" transform="translate(0.000000, 32.869738)">
                        <g id="Group-2-Copy-3" transform="translate(35.551078, 34.984914) scale(-1, 1) rotate(-163.000000) translate(-35.551078, -34.984914) translate(6.716127, 7.751904)">
                            <g id="Group" transform="translate(28.562497, 26.726258) rotate(-11.000000) translate(-28.562497, -26.726258) translate(3.999390, 4.299073)">
                                <polygon id="Triangle-Copy-2" transform="translate(25.541705, 30.376329) rotate(-15.000000) translate(-25.541705, -30.376329) " points="4.34612749 39.5704249 46.7372821 21.1822341 40.5711288 33.9759879"></polygon>
                                <polygon id="Triangle-Copy-4" transform="translate(22.779815, 26.188393) rotate(-30.000000) translate(-22.779815, -26.188393) " points="1.59083191 34.9323729 43.9687988 17.444414 37.9032022 29.8921981"></polygon>
                                <polygon id="Triangle-Copy-5" transform="translate(21.832882, 20.725871) rotate(-41.000000) translate(-21.832882, -20.725871) " points="0.649262122 29.4701745 43.0165027 11.9815673 36.9897936 24.5191333"></polygon>
                            </g>
                        </g>
                    </g>
                    <g id="Group-2-Copy-7" transform="translate(35.776699, 35.479777) scale(-1, 1) rotate(-180.000000) translate(-35.776699, -35.479777) translate(0.000000, 0.237058)">
                        <g id="Group-2-Copy-3" transform="translate(35.551078, 34.984914) scale(-1, 1) rotate(-163.000000) translate(-35.551078, -34.984914) translate(6.716127, 7.751904)">
                            <g id="Group" transform="translate(28.562497, 26.726258) rotate(-11.000000) translate(-28.562497, -26.726258) translate(3.999390, 4.299073)">
                                <polygon id="Triangle-Copy-2" transform="translate(25.541705, 30.376329) rotate(-15.000000) translate(-25.541705, -30.376329) " points="4.34612749 39.5704249 46.7372821 21.1822341 40.5711288 33.9759879"></polygon>
                                <polygon id="Triangle-Copy-4" transform="translate(22.779815, 26.188393) rotate(-30.000000) translate(-22.779815, -26.188393) " points="1.59083191 34.9323729 43.9687988 17.444414 37.9032022 29.8921981"></polygon>
                                <polygon id="Triangle-Copy-5" transform="translate(21.832882, 20.725871) rotate(-41.000000) translate(-21.832882, -20.725871) " points="0.649262122 29.4701745 43.0165027 11.9815673 36.9897936 24.5191333"></polygon>
                            </g>
                        </g>
                    </g>
                </g>
                <g id="Group-2-Copy-6" transform="translate(35.887525, 51.796117) scale(-1, 1) translate(-35.887525, -51.796117) translate(0.110826, 0.000000)">
                    <g id="Group-2-Copy-5" transform="translate(0.000000, 32.869738)">
                        <g id="Group-2-Copy-3" transform="translate(35.551078, 34.984914) scale(-1, 1) rotate(-163.000000) translate(-35.551078, -34.984914) translate(6.716127, 7.751904)">
                            <g id="Group" transform="translate(28.562497, 26.726258) rotate(-11.000000) translate(-28.562497, -26.726258) translate(3.999390, 4.299073)">
                                <polygon id="Triangle-Copy-2" transform="translate(25.541705, 30.376329) rotate(-15.000000) translate(-25.541705, -30.376329) " points="4.34612749 39.5704249 46.7372821 21.1822341 40.5711288 33.9759879"></polygon>
                                <polygon id="Triangle-Copy-4" transform="translate(22.779815, 26.188393) rotate(-30.000000) translate(-22.779815, -26.188393) " points="1.59083191 34.9323729 43.9687988 17.444414 37.9032022 29.8921981"></polygon>
                                <polygon id="Triangle-Copy-5" transform="translate(21.832882, 20.725871) rotate(-41.000000) translate(-21.832882, -20.725871) " points="0.649262122 29.4701745 43.0165027 11.9815673 36.9897936 24.5191333"></polygon>
                            </g>
                        </g>
                    </g>
                    <g id="Group-2-Copy-7" transform="translate(35.776699, 35.479777) scale(-1, 1) rotate(-180.000000) translate(-35.776699, -35.479777) translate(0.000000, 0.237058)">
                        <g id="Group-2-Copy-3" transform="translate(35.551078, 34.984914) scale(-1, 1) rotate(-163.000000) translate(-35.551078, -34.984914) translate(6.716127, 7.751904)">
                            <g id="Group" transform="translate(28.562497, 26.726258) rotate(-11.000000) translate(-28.562497, -26.726258) translate(3.999390, 4.299073)">
                                <polygon id="Triangle-Copy-2" transform="translate(25.541705, 30.376329) rotate(-15.000000) translate(-25.541705, -30.376329) " points="4.34612749 39.5704249 46.7372821 21.1822341 40.5711288 33.9759879"></polygon>
                                <polygon id="Triangle-Copy-4" transform="translate(22.779815, 26.188393) rotate(-30.000000) translate(-22.779815, -26.188393) " points="1.59083191 34.9323729 43.9687988 17.444414 37.9032022 29.8921981"></polygon>
                                <polygon id="Triangle-Copy-5" transform="translate(21.832882, 20.725871) rotate(-41.000000) translate(-21.832882, -20.725871) " points="0.649262122 29.4701745 43.0165027 11.9815673 36.9897936 24.5191333"></polygon>
                            </g>
                        </g>
                    </g>
                </g>
            </g>
        </g>
    </g>
</svg>