<?xml version="1.0" encoding="UTF-8"?>
<svg width="80px" height="80px" viewBox="0 0 80 80" version="1.1" xmlns="http://www.w3.org/2000/svg" xmlns:xlink="http://www.w3.org/1999/xlink">
    <!-- Generator: Sketch 52.6 (67491) - http://www.bohemiancoding.com/sketch -->
    <title>projectsicon</title>
    <desc>Created with Sketch.</desc>
    <defs>
        <linearGradient x1="0.25781251%" y1="49.7500002%" x2="101.257813%" y2="49.7500002%" id="linearGradient-1">
            <stop stop-color="#3023AE" offset="0%"></stop>
            <stop stop-color="#53A0FD" offset="47.5247532%"></stop>
            <stop stop-color="#B4EC51" offset="100%"></stop>
        </linearGradient>
    </defs>
    <g id="Page-1" stroke="none" stroke-width="1" fill="none" fill-rule="evenodd">
        <g id="projectsicon" transform="translate(0.000000, -3.000000)">
            <rect id="apple-touch-icon" fill="#F2F2F2" x="0" y="3" width="80" height="80" rx="10"></rect>
            <g id="new_logo_sm2" fill="url(#linearGradient-1)">
                <g id="Group-2-Copy" transform="translate(51.428571, 43.000000) scale(-1, 1) translate(-51.428571, -43.000000) translate(22.857143, 0.000000)">
                    <g id="newLogo">
                        <g id="Group-2-Copy-6" transform="translate(28.898107, 56.366720) scale(-1, 1) translate(-28.898107, -56.366720) translate(0.961599, 27.910837)">
                            <g id="Group-2-Copy-5" transform="translate(0.000000, 0.081660)">
                                <g id="Group-2-Copy-3" transform="translate(28.000807, 27.938168) scale(-1, 1) rotate(-163.000000) translate(-28.000807, -27.938168) translate(6.413505, 6.438168)">
                                    <g id="Group" transform="translate(21.429280, 21.520078) rotate(-11.000000) translate(-21.429280, -21.520078) translate(3.016582, 4.446549)">
                                        <polygon id="Triangle-Copy-2" transform="translate(19.181780, 22.882696) rotate(-15.000000) translate(-19.181780, -22.882696) " points="3.26299332 29.678626 35.1005657 16.0867669 30.3338828 25.2350249"></polygon>
                                        <polygon id="Triangle-Copy-5" transform="translate(16.396460, 15.750571) rotate(-41.000000) translate(-16.396460, -15.750571) " points="0.48423374 22.2145217 32.3086858 9.28661953 27.5217038 17.933381"></polygon>
                                        <polygon id="Triangle-Copy-4" transform="translate(17.773094, 19.102375) rotate(-30.000000) translate(-17.773094, -19.102375) " points="1.85796934 25.6886824 33.6882188 12.5160667 28.9051149 21.3425187"></polygon>
                                    </g>
                                </g>
                            </g>
                        </g>
                        <g id="Group-2-Copy-6-Copy" transform="translate(28.898107, 29.633280) rotate(180.000000) translate(-28.898107, -29.633280) translate(0.961599, 1.177397)">
                            <g id="Group-2-Copy-5" transform="translate(0.000000, 0.081660)">
                                <g id="Group-2-Copy-3" transform="translate(28.000807, 27.938168) scale(-1, 1) rotate(-163.000000) translate(-28.000807, -27.938168) translate(6.413505, 6.438168)">
                                    <g id="Group" transform="translate(21.429280, 21.520078) rotate(-11.000000) translate(-21.429280, -21.520078) translate(3.016582, 4.446549)">
                                        <polygon id="Triangle-Copy-2" transform="translate(19.181780, 22.882696) rotate(-15.000000) translate(-19.181780, -22.882696) " points="3.26299332 29.678626 35.1005657 16.0867669 30.3338828 25.2350249"></polygon>
                                        <polygon id="Triangle-Copy-5" transform="translate(16.396460, 15.750571) rotate(-41.000000) translate(-16.396460, -15.750571) " points="0.48423374 22.2145217 32.3086858 9.28661953 27.5217038 17.933381"></polygon>
                                        <polygon id="Triangle-Copy-4" transform="translate(17.773094, 19.102375) rotate(-30.000000) translate(-17.773094, -19.102375) " points="1.85796934 25.6886824 33.6882188 12.5160667 28.9051149 21.3425187"></polygon>
                                    </g>
                                </g>
                            </g>
                        </g>
                    </g>
                </g>
                <g id="Group-2">
                    <g id="newLogo">
                        <g id="Group-2-Copy-6" transform="translate(28.898107, 56.366720) scale(-1, 1) translate(-28.898107, -56.366720) translate(0.961599, 27.910837)">
                            <g id="Group-2-Copy-5" transform="translate(0.000000, 0.081660)">
                                <g id="Group-2-Copy-3" transform="translate(28.000807, 27.938168) scale(-1, 1) rotate(-163.000000) translate(-28.000807, -27.938168) translate(6.413505, 6.438168)">
                                    <g id="Group" transform="translate(21.429280, 21.520078) rotate(-11.000000) translate(-21.429280, -21.520078) translate(3.016582, 4.446549)">
                                        <polygon id="Triangle-Copy-2" transform="translate(19.181780, 22.882696) rotate(-15.000000) translate(-19.181780, -22.882696) " points="3.26299332 29.678626 35.1005657 16.0867669 30.3338828 25.2350249"></polygon>
                                        <polygon id="Triangle-Copy-5" transform="translate(16.396460, 15.750571) rotate(-41.000000) translate(-16.396460, -15.750571) " points="0.48423374 22.2145217 32.3086858 9.28661953 27.5217038 17.933381"></polygon>
                                        <polygon id="Triangle-Copy-4" transform="translate(17.773094, 19.102375) rotate(-30.000000) translate(-17.773094, -19.102375) " points="1.85796934 25.6886824 33.6882188 12.5160667 28.9051149 21.3425187"></polygon>
                                    </g>
                                </g>
                            </g>
                        </g>
                        <g id="Group-2-Copy-6-Copy" transform="translate(28.898107, 29.633280) rotate(180.000000) translate(-28.898107, -29.633280) translate(0.961599, 1.177397)">
                            <g id="Group-2-Copy-5" transform="translate(0.000000, 0.081660)">
                                <g id="Group-2-Copy-3" transform="translate(28.000807, 27.938168) scale(-1, 1) rotate(-163.000000) translate(-28.000807, -27.938168) translate(6.413505, 6.438168)">
                                    <g id="Group" transform="translate(21.429280, 21.520078) rotate(-11.000000) translate(-21.429280, -21.520078) translate(3.016582, 4.446549)">
                                        <polygon id="Triangle-Copy-2" transform="translate(19.181780, 22.882696) rotate(-15.000000) translate(-19.181780, -22.882696) " points="3.26299332 29.678626 35.1005657 16.0867669 30.3338828 25.2350249"></polygon>
                                        <polygon id="Triangle-Copy-5" transform="translate(16.396460, 15.750571) rotate(-41.000000) translate(-16.396460, -15.750571) " points="0.48423374 22.2145217 32.3086858 9.28661953 27.5217038 17.933381"></polygon>
                                        <polygon id="Triangle-Copy-4" transform="translate(17.773094, 19.102375) rotate(-30.000000) translate(-17.773094, -19.102375) " points="1.85796934 25.6886824 33.6882188 12.5160667 28.9051149 21.3425187"></polygon>
                                    </g>
                                </g>
                            </g>
                        </g>
                    </g>
                </g>
            </g>
        </g>
    </g>
</svg>