<?xml version="1.0" encoding="UTF-8"?>
<svg width="80px" height="80px" viewBox="0 0 80 80" version="1.1" xmlns="http://www.w3.org/2000/svg" xmlns:xlink="http://www.w3.org/1999/xlink">
    <!-- Generator: Sketch 52.6 (67491) - http://www.bohemiancoding.com/sketch -->
    <title>projectsicon</title>
    <desc>Created with Sketch.</desc>
    <defs>
        <linearGradient x1="0.25781251%" y1="49.7500002%" x2="101.257813%" y2="49.7500002%" id="linearGradient-1">
            <stop stop-color="#3023AE" offset="0%"></stop>
            <stop stop-color="#53A0FD" offset="47.5247532%"></stop>
            <stop stop-color="#B4EC51" offset="100%"></stop>
        </linearGradient>
    </defs>
    <g id="Page-1" stroke="none" stroke-width="1" fill="none" fill-rule="evenodd">
        <g id="projectsicon">
            <rect id="apple-touch-icon" fill="#F2F2F2" x="0" y="0" width="80" height="80" rx="10"></rect>
            <g id="Group-2" transform="translate(3.883495, 2.330097)" fill="url(#linearGradient-1)">
                <g transform="translate(20.113574, 0.000000)">
                    <g id="Group-2-Copy-5" transform="translate(0.000000, 23.905264)">
                        <g id="Group-2-Copy-3" transform="translate(25.855330, 25.443574) scale(-1, 1) rotate(-163.000000) translate(-25.855330, -25.443574) translate(4.884456, 5.637748)">
                            <g id="Group" transform="translate(20.772725, 19.437278) rotate(-11.000000) translate(-20.772725, -19.437278) translate(2.908647, 3.126599)">
                                <polygon id="Triangle-Copy-2" transform="translate(18.575785, 22.091876) rotate(-15.000000) translate(-18.575785, -22.091876) " points="3.16081999 28.7784908 33.9907506 15.4052612 29.5062755 24.7098094"></polygon>
                                <polygon id="Triangle-Copy-4" transform="translate(16.567138, 19.046104) rotate(-30.000000) translate(-16.567138, -19.046104) " points="1.15696866 25.4053621 31.9773082 12.6868466 27.5659652 21.7397804"></polygon>
                                <polygon id="Triangle-Copy-5" transform="translate(15.878460, 15.073361) rotate(-41.000000) translate(-15.878460, -15.073361) " points="0.472190634 21.4328542 31.2847293 8.7138671 26.9016681 17.8320969"></polygon>
                            </g>
                        </g>
                    </g>
                    <g id="Group-2-Copy-7" transform="translate(26.019417, 25.803474) scale(-1, 1) rotate(-180.000000) translate(-26.019417, -25.803474) translate(0.000000, 0.172406)">
                        <g id="Group-2-Copy-3" transform="translate(25.855330, 25.443574) scale(-1, 1) rotate(-163.000000) translate(-25.855330, -25.443574) translate(4.884456, 5.637748)">
                            <g id="Group" transform="translate(20.772725, 19.437278) rotate(-11.000000) translate(-20.772725, -19.437278) translate(2.908647, 3.126599)">
                                <polygon id="Triangle-Copy-2" transform="translate(18.575785, 22.091876) rotate(-15.000000) translate(-18.575785, -22.091876) " points="3.16081999 28.7784908 33.9907506 15.4052612 29.5062755 24.7098094"></polygon>
                                <polygon id="Triangle-Copy-4" transform="translate(16.567138, 19.046104) rotate(-30.000000) translate(-16.567138, -19.046104) " points="1.15696866 25.4053621 31.9773082 12.6868466 27.5659652 21.7397804"></polygon>
                                <polygon id="Triangle-Copy-5" transform="translate(15.878460, 15.073361) rotate(-41.000000) translate(-15.878460, -15.073361) " points="0.472190634 21.4328542 31.2847293 8.7138671 26.9016681 17.8320969"></polygon>
                            </g>
                        </g>
                    </g>
                </g>
                <g id="Group-2-Copy-6" transform="translate(26.100018, 37.669903) scale(-1, 1) translate(-26.100018, -37.669903) translate(0.080601, 0.000000)">
                    <g id="Group-2-Copy-5" transform="translate(0.000000, 23.905264)">
                        <g id="Group-2-Copy-3" transform="translate(25.855330, 25.443574) scale(-1, 1) rotate(-163.000000) translate(-25.855330, -25.443574) translate(4.884456, 5.637748)">
                            <g id="Group" transform="translate(20.772725, 19.437278) rotate(-11.000000) translate(-20.772725, -19.437278) translate(2.908647, 3.126599)">
                                <polygon id="Triangle-Copy-2" transform="translate(18.575785, 22.091876) rotate(-15.000000) translate(-18.575785, -22.091876) " points="3.16081999 28.7784908 33.9907506 15.4052612 29.5062755 24.7098094"></polygon>
                                <polygon id="Triangle-Copy-4" transform="translate(16.567138, 19.046104) rotate(-30.000000) translate(-16.567138, -19.046104) " points="1.15696866 25.4053621 31.9773082 12.6868466 27.5659652 21.7397804"></polygon>
                                <polygon id="Triangle-Copy-5" transform="translate(15.878460, 15.073361) rotate(-41.000000) translate(-15.878460, -15.073361) " points="0.472190634 21.4328542 31.2847293 8.7138671 26.9016681 17.8320969"></polygon>
                            </g>
                        </g>
                    </g>
                    <g id="Group-2-Copy-7" transform="translate(26.019417, 25.803474) scale(-1, 1) rotate(-180.000000) translate(-26.019417, -25.803474) translate(0.000000, 0.172406)">
                        <g id="Group-2-Copy-3" transform="translate(25.855330, 25.443574) scale(-1, 1) rotate(-163.000000) translate(-25.855330, -25.443574) translate(4.884456, 5.637748)">
                            <g id="Group" transform="translate(20.772725, 19.437278) rotate(-11.000000) translate(-20.772725, -19.437278) translate(2.908647, 3.126599)">
                                <polygon id="Triangle-Copy-2" transform="translate(18.575785, 22.091876) rotate(-15.000000) translate(-18.575785, -22.091876) " points="3.16081999 28.7784908 33.9907506 15.4052612 29.5062755 24.7098094"></polygon>
                                <polygon id="Triangle-Copy-4" transform="translate(16.567138, 19.046104) rotate(-30.000000) translate(-16.567138, -19.046104) " points="1.15696866 25.4053621 31.9773082 12.6868466 27.5659652 21.7397804"></polygon>
                                <polygon id="Triangle-Copy-5" transform="translate(15.878460, 15.073361) rotate(-41.000000) translate(-15.878460, -15.073361) " points="0.472190634 21.4328542 31.2847293 8.7138671 26.9016681 17.8320969"></polygon>
                            </g>
                        </g>
                    </g>
                </g>
            </g>
        </g>
    </g>
</svg>