<?xml version="1.0" encoding="UTF-8"?>
<svg width="70px" height="62px" viewBox="0 0 70 62" version="1.1" xmlns="http://www.w3.org/2000/svg" xmlns:xlink="http://www.w3.org/1999/xlink">
    <!-- Generator: Sketch 46.2 (44496) - http://www.bohemiancoding.com/sketch -->
    <title>React-icon</title>
    <desc>Created with Sketch.</desc>
    <defs></defs>
    <g id="Page-1" stroke="none" stroke-width="1" fill="none" fill-rule="evenodd">
        <g id="React-icon" fill-rule="nonzero" fill="#61DAFB">
            <path d="M70,31.0070954 C70,26.3950561 64.1928251,22.0242618 55.2894415,19.3138018 C57.3440685,10.2883955 56.4309009,3.10780499 52.4072564,0.808880751 C51.4798206,0.269626917 50.3954342,0.0141908904 49.21117,0.0141908904 L49.21117,3.17875944 C49.8675092,3.17875944 50.3954342,3.30647745 50.8377497,3.54772259 C52.7782307,4.65461204 53.6200571,8.86930648 52.9637179,14.2902266 C52.8067672,15.6241703 52.5499389,17.0290684 52.2360375,18.4623484 C49.4394619,17.7811856 46.3860579,17.2561227 43.1757032,16.9155413 C41.2494904,14.2902266 39.2519364,11.906157 37.2401141,9.82009613 C41.8915614,5.52025635 46.2576437,3.16456855 49.2254382,3.16456855 L49.2254382,0 C49.2254382,0 49.2254382,0 49.2254382,0 C45.3016714,0 40.165104,2.78141451 34.9714635,7.60631724 C29.7778231,2.80979629 24.6412556,0.0567635615 20.7174888,0.0567635615 L20.7174888,3.22133211 C23.6710151,3.22133211 28.0513657,5.56282902 32.7028129,9.83428702 C30.7052589,11.9203479 28.7077049,14.2902266 26.8100285,16.9155413 C23.5854056,17.2561227 20.5320016,17.7811856 17.735426,18.4765393 C17.4072564,17.0574502 17.1646963,15.6809339 16.9934774,14.361181 C16.32287,8.94026093 17.150428,4.72556649 19.0766408,3.60448615 C19.5046881,3.34905013 20.0611496,3.235523 20.7174888,3.235523 L20.7174888,0.0709544518 C20.7174888,0.0709544518 20.7174888,0.0709544518 20.7174888,0.0709544518 C19.5189564,0.0709544518 18.4345699,0.326390478 17.4928659,0.865644312 C13.4834896,3.16456855 12.5845903,10.3309682 14.6534855,19.3279927 C5.7786384,22.0526436 0,26.409247 0,31.0070954 C0,35.6191348 5.80717489,39.989929 14.7105585,42.7003891 C12.6559315,51.7257954 13.5690991,58.9063859 17.5927436,61.2053101 C18.5201794,61.744564 19.6045658,62 20.8030982,62 C24.7268651,62 29.8634325,59.2185855 35.057073,54.3936828 C40.2507134,59.1902037 45.3872809,61.9432364 49.3110477,61.9432364 C50.5095801,61.9432364 51.5939666,61.6878004 52.5356706,61.1485466 C56.5450469,58.8496223 57.4439462,51.6832227 55.375051,42.6861982 C64.2213616,39.9757382 70,35.6049439 70,31.0070954 Z M51.4227477,21.5417716 C50.8948227,23.3723964 50.2384835,25.2597848 49.4965349,27.1471733 C48.9115369,26.011902 48.2980024,24.8766308 47.627395,23.7413596 C46.9710558,22.6060883 46.2719119,21.4991989 45.572768,20.4206912 C47.5988585,20.7186999 49.5536078,21.0876631 51.4227477,21.5417716 Z M44.8878924,36.6550698 C43.7749694,38.57084 42.63351,40.387274 41.4492458,42.0759899 C39.3232776,42.2604715 37.1687729,42.3598077 35,42.3598077 C32.8454953,42.3598077 30.6909906,42.2604715 28.5792907,42.0901808 C27.3950265,40.4014649 26.2392988,38.5992218 25.1263759,36.6976425 C24.0419894,34.8386358 23.0574806,32.9512474 22.1585813,31.0496681 C23.0432124,29.1480888 24.0419894,27.2465095 25.1121076,25.3875029 C26.2250306,23.4717327 27.36649,21.6552987 28.5507542,19.9665827 C30.6767224,19.7821012 32.8312271,19.6827649 35,19.6827649 C37.1545047,19.6827649 39.3090094,19.7821012 41.4207093,19.9523919 C42.6049735,21.6411078 43.7607012,23.4433509 44.8736241,25.3449302 C45.9580106,27.2039368 46.9425194,29.0913252 47.8414187,30.9929046 C46.9425194,32.8944839 45.9580106,34.7960632 44.8878924,36.6550698 Z M49.4965349,34.8102541 C50.26702,36.7118334 50.9233592,38.6134127 51.4655524,40.4582284 C49.5964126,40.9123369 47.627395,41.295491 45.5870363,41.5934997 C46.2861802,40.5008011 46.9853241,39.3797208 47.6416633,38.2302586 C48.2980024,37.0949874 48.9115369,35.9455253 49.4965349,34.8102541 Z M35.0285365,49.9519341 C33.7015899,48.5896086 32.3746433,47.0711833 31.0619649,45.4108492 C32.3461068,45.4676127 33.6587852,45.5101854 34.9857318,45.5101854 C36.3269466,45.5101854 37.6538932,45.4818036 38.9523033,45.4108492 C37.6681614,47.0711833 36.3412148,48.5896086 35.0285365,49.9519341 Z M24.4129637,41.5934997 C22.3868732,41.295491 20.4321239,40.9265278 18.5629841,40.4724193 C19.0909091,38.6417945 19.7472483,36.754406 20.4891969,34.8670176 C21.0741949,36.0022889 21.6877293,37.1375601 22.3583367,38.2728313 C23.0289442,39.4081025 23.7138198,40.514992 24.4129637,41.5934997 Z M34.9571953,12.0622568 C36.2841419,13.4245823 37.6110885,14.9430076 38.9237668,16.6033417 C37.6396249,16.5465782 36.3269466,16.5040055 35,16.5040055 C33.6587852,16.5040055 32.3318386,16.5323873 31.0334285,16.6033417 C32.3175703,14.9430076 33.6445169,13.4245823 34.9571953,12.0622568 Z M24.3986955,20.4206912 C23.6995516,21.5133898 23.0004077,22.6344701 22.3440685,23.7839322 C21.6877293,24.9192035 21.0741949,26.0544747 20.4891969,27.1897459 C19.7187118,25.2881666 19.0623726,23.3865873 18.5201794,21.5417716 C20.3893192,21.101854 22.3583367,20.7186999 24.3986955,20.4206912 Z M11.4859356,38.187686 C6.43497758,36.0448615 3.16754994,33.2350652 3.16754994,31.0070954 C3.16754994,28.7791257 6.43497758,25.9551385 11.4859356,23.8265049 C12.7130045,23.301442 14.0542193,22.8331426 15.4382389,22.393225 C16.2515287,25.1746395 17.321647,28.0695811 18.6485936,31.0354772 C17.3359152,33.9871824 16.2800652,36.8679332 15.4810436,39.6351568 C14.0684876,39.1952392 12.7272727,38.7127489 11.4859356,38.187686 Z M19.1622503,58.4664683 C17.2217693,57.3595789 16.3799429,53.1448844 17.0362821,47.7239643 C17.1932328,46.3900206 17.4500611,44.9851225 17.7639625,43.5518425 C20.5605381,44.2330053 23.6139421,44.7580682 26.8242968,45.0986496 C28.7505096,47.7239643 30.7480636,50.1080339 32.7598859,52.1940948 C28.1084386,56.4939345 23.7423563,58.8496223 20.7745618,58.8496223 C20.1324908,58.8354314 19.5902976,58.7077134 19.1622503,58.4664683 Z M53.0065226,47.6530098 C53.67713,53.07393 52.849572,57.2886244 50.9233592,58.4097047 C50.4953119,58.6651408 49.9388504,58.7786679 49.2825112,58.7786679 C46.3289849,58.7786679 41.9486343,56.437171 37.2971871,52.165713 C39.2947411,50.0796521 41.2922951,47.7097734 43.1899715,45.0844587 C46.4145944,44.7438773 49.4679984,44.2188144 52.264574,43.5234607 C52.5927436,44.9567407 52.849572,46.333257 53.0065226,47.6530098 Z M58.4997962,38.187686 C57.2727273,38.7127489 55.9315124,39.1810483 54.5474929,39.6209659 C53.734203,36.8395514 52.6640848,33.9446098 51.3371382,30.9787137 C52.6498166,28.0270085 53.7056665,25.1462577 54.5046881,22.3790341 C55.9172442,22.8189517 57.258459,23.301442 58.5140644,23.8265049 C63.5650224,25.9693294 66.8324501,28.7791257 66.8324501,31.0070954 C66.8181818,33.2350652 63.5507542,36.0590524 58.4997962,38.187686 Z" id="Shape"></path>
            <circle id="Oval" cx="34.5" cy="31.5" r="6.5"></circle>
        </g>
    </g>
</svg>