<?xml version="1.0" encoding="UTF-8"?>
<svg width="88px" height="88px" viewBox="0 0 88 88" version="1.1" xmlns="http://www.w3.org/2000/svg" xmlns:xlink="http://www.w3.org/1999/xlink">
    <!-- Generator: Sketch 46.2 (44496) - http://www.bohemiancoding.com/sketch -->
    <title>react</title>
    <desc>Created with Sketch.</desc>
    <defs></defs>
    <g id="Page-1" stroke="none" stroke-width="1" fill="none" fill-rule="evenodd">
        <g id="react">
            <g id="react-1">
                <polygon id="Shape" fill="#222222" fill-rule="nonzero" points="0 0 88 0 88 88 0 88"></polygon>
                <ellipse id="Oval" fill="#00D8FF" fill-rule="nonzero" cx="44.5" cy="44" rx="7.5" ry="7.41573034"></ellipse>
                <path d="M43.5012178,28.6741573 C53.3947896,28.6741573 62.5868969,30.0729669 69.5162941,32.4219113 C77.8656698,35.2531212 83,39.5455232 83,43.4324384 C83,47.4825081 77.5587791,52.0436351 68.5931864,54.9684188 C61.8147988,57.1806014 52.8930476,58.3370787 43.5012178,58.3370787 C33.8706952,58.3370787 24.7540928,57.2525813 17.8977648,54.9444255 C9.2244489,52.0244405 4,47.4057295 4,43.4324384 C4,39.5767145 8.90294435,35.3179031 17.1354093,32.4914919 C24.0915986,30.1041582 33.5102204,28.6741573 43.5012178,28.6741573 L43.5012178,28.6741573 Z" id="Shape" stroke="#00D8FF" stroke-width="2"></path>
                <path d="M30.5008818,36.4583766 C35.4374067,27.8459783 41.2546718,20.557623 46.7775459,15.7240093 C53.4317576,9.89919892 59.7648154,7.61822273 63.1782922,9.5981688 C66.7353151,11.6613264 68.0272296,18.7220735 66.122203,28.0197436 C64.6818764,35.0486745 61.2465028,43.4016485 56.5581423,51.5784097 C51.7529985,59.9607524 46.2495883,67.3445562 40.8021368,72.1365641 C33.9094926,78.1987723 27.243116,80.3916421 23.7542167,78.3676428 C20.3675027,76.4023812 19.0731551,69.9657209 20.6959556,61.3582174 C22.0681586,54.0796518 25.5132642,45.1539864 30.5008818,36.4583766 Z" id="Shape" stroke="#00D8FF" stroke-width="2"></path>
                <path d="M30.46371,50.9490216 C25.5256993,42.4587092 22.1625136,33.8669767 20.7599729,26.7361767 C19.0711005,18.1444442 20.2649586,11.5738697 23.6669689,9.61549556 C27.2121452,7.57260468 33.9191043,9.94148878 40.9560729,16.1595077 C46.2774771,20.8610544 51.7396207,27.9314852 56.4276977,35.9919696 C61.2346753,44.2552941 64.8380885,52.6248683 66.2382026,59.6687367 C68.012004,68.5840477 66.5754918,75.3960987 63.0982587,77.3979386 C59.7229403,79.3418241 53.5498202,77.2844446 46.9641882,71.6459692 C41.4025564,66.8816386 35.4502516,59.5214361 30.46371,50.9490216 Z" id="Shape" stroke="#00D8FF" stroke-width="2"></path>
            </g>
        </g>
    </g>
</svg>