<?xml version="1.0" encoding="UTF-8"?>
<svg width="100px" height="89px" viewBox="0 0 100 89" version="1.1" xmlns="http://www.w3.org/2000/svg" xmlns:xlink="http://www.w3.org/1999/xlink">
    <!-- Generator: Sketch 46.2 (44496) - http://www.bohemiancoding.com/sketch -->
    <title>React-icon</title>
    <desc>Created with Sketch.</desc>
    <defs></defs>
    <g id="Page-1" stroke="none" stroke-width="1" fill="none" fill-rule="evenodd">
        <g id="React-icon" fill-rule="nonzero" fill="#61DAFB">
            <path d="M100,44.5101854 C100,37.8896773 91.7040359,31.6154726 78.9849164,27.7246509 C81.9200978,14.7688258 80.6155728,4.46120394 74.8675092,1.16113527 C73.5426009,0.38704509 71.9934774,0.0203707942 70.3016714,0.0203707942 L70.3016714,4.56305791 C71.2392988,4.56305791 71.9934774,4.74639506 72.6253567,5.09269856 C75.3974725,6.68162051 76.6000815,12.7317464 75.6624541,20.5133898 C75.4382389,22.4282444 75.0713412,24.4449531 74.6229107,26.5024033 C70.6278027,25.5246052 66.265797,24.7708858 61.679576,24.2819867 C58.9278435,20.5133898 56.0741949,17.0910964 53.2001631,14.0965896 C59.8450876,7.92423896 66.0823481,4.54268711 70.3220546,4.54268711 L70.3220546,0 C70.3220546,0 70.3220546,0 70.3220546,0 C64.7166735,0 57.3787199,3.99267567 49.9592336,10.9187457 C42.5397472,4.03341726 35.2017937,0.0814831769 29.5964126,0.0814831769 L29.5964126,4.62417029 C33.8157358,4.62417029 40.0733795,7.98535134 46.7183041,14.1169604 C43.8646555,17.1114672 41.0110069,20.5133898 38.3000408,24.2819867 C33.6934366,24.7708858 29.3314309,25.5246052 25.3363229,26.5227741 C24.8675092,24.4856947 24.5209947,22.5097276 24.2763962,20.6152438 C23.3183857,12.8336004 24.5006115,6.78347448 27.2523441,5.17418173 C27.8638402,4.80750744 28.6587852,4.64454108 29.5964126,4.64454108 L29.5964126,0.101853971 C29.5964126,0.101853971 29.5964126,0.101853971 29.5964126,0.101853971 C27.8842234,0.101853971 26.3350999,0.468528267 24.9898084,1.24261845 C19.262128,4.54268711 17.9779861,14.8299382 20.9335508,27.7450217 C8.25519772,31.6562142 0,37.9100481 0,44.5101854 C0,51.1306935 8.29596413,57.4048981 21.0150836,61.2957198 C18.0799022,74.251545 19.3844272,84.5591669 25.1324908,87.8592355 C26.4573991,88.6333257 28.0065226,89 29.7187118,89 C35.3240929,89 42.6620465,85.0073243 50.0815328,78.0812543 C57.5010192,84.9665827 64.8389727,88.9185168 70.4443539,88.9185168 C72.156543,88.9185168 73.7056665,88.5518425 75.050958,87.7777523 C80.7786384,84.4776837 82.0627803,74.1904326 79.1072157,61.2753491 C91.7448023,57.3845274 100,51.1103227 100,44.5101854 Z M73.4610681,30.9228656 C72.7068895,33.5506981 71.7692621,36.2600137 70.7093355,38.9693294 C69.8736241,37.3396658 68.9971464,35.7100023 68.0391358,34.0803388 C67.1015084,32.4506752 66.1027313,30.8617533 65.1039543,29.3135729 C67.9983693,29.7413596 70.7908683,30.2710002 73.4610681,30.9228656 Z M64.1255605,52.6177615 C62.5356706,55.3678187 60.9050143,57.9752804 59.2132083,60.3994049 C56.1761109,60.6642252 53.098247,60.8068208 50,60.8068208 C46.9221362,60.8068208 43.8442723,60.6642252 40.8275581,60.4197757 C39.1357521,57.9956512 37.4847126,55.4085603 35.8948227,52.6788739 C34.3456991,50.0102998 32.9392581,47.3009842 31.6551162,44.5712978 C32.9188748,41.8416114 34.3456991,39.1119249 35.8744395,36.4433509 C37.4643294,33.6932937 39.0949857,31.085832 40.7867917,28.6617075 C43.8238891,28.3968872 46.901753,28.2542916 50,28.2542916 C53.0778638,28.2542916 56.1557277,28.3968872 59.1724419,28.6413367 C60.8642479,31.0654612 62.5152874,33.6525521 64.1051773,36.3822385 C65.6543009,39.0508125 67.0607419,41.7601282 68.3448838,44.4898146 C67.0607419,47.219501 65.6543009,49.9491875 64.1255605,52.6177615 Z M70.7093355,49.9695583 C71.8100285,52.6992447 72.7476559,55.4289311 73.5222177,58.0771344 C70.8520179,58.7289998 68.0391358,59.2790112 65.1243375,59.7067979 C66.1231146,58.1382467 67.1218916,56.528954 68.059519,54.8789197 C68.9971464,53.2492561 69.8736241,51.5992218 70.7093355,49.9695583 Z M50.0407664,71.7051957 C48.1451284,69.7495995 46.2494904,67.5699245 44.3742356,65.1865415 C46.208724,65.2680247 48.0839788,65.3291371 49.9796168,65.3291371 C51.895638,65.3291371 53.791276,65.2883955 55.6461476,65.1865415 C53.8116592,67.5699245 51.9160212,69.7495995 50.0407664,71.7051957 Z M34.8756625,59.7067979 C31.9812475,59.2790112 29.1887485,58.7493706 26.5185487,58.0975051 C27.2727273,55.4696727 28.2103547,52.7603571 29.2702813,50.0510414 C30.1059927,51.680705 30.9824704,53.3103685 31.940481,54.940032 C32.8984916,56.5696956 33.8768854,58.1586175 34.8756625,59.7067979 Z M49.9388504,17.3151751 C51.8344884,19.2707713 53.7301264,21.4504463 55.6053812,23.8338293 C53.7708928,23.7523461 51.895638,23.6912337 50,23.6912337 C48.0839788,23.6912337 46.1883408,23.7319753 44.3334692,23.8338293 C46.1679576,21.4504463 48.0635956,19.2707713 49.9388504,17.3151751 Z M34.8552792,29.3135729 C33.8565022,30.8821241 32.8577252,32.4914168 31.9200978,34.1414511 C30.9824704,35.7711147 30.1059927,37.4007782 29.2702813,39.0304417 C28.1695883,36.3007553 27.2319609,33.5710689 26.4573991,30.9228656 C29.1275989,30.291371 31.940481,29.7413596 34.8552792,29.3135729 Z M16.4084794,54.8178073 C9.19282511,51.7418173 4.52507134,47.7084001 4.52507134,44.5101854 C4.52507134,41.3119707 9.19282511,37.2581827 16.4084794,34.2025635 C18.161435,33.4488441 20.0774562,32.7766079 22.054627,32.1451133 C23.2164696,36.137789 24.7452099,40.293431 26.6408479,44.550927 C24.7655932,48.7880522 23.257236,52.9233234 22.1157766,56.8956283 C20.0978394,56.2641337 18.1818182,55.5715267 16.4084794,54.8178073 Z M27.3746433,83.9276722 C24.6025275,82.3387503 23.3999185,76.2886244 24.3375459,68.506981 C24.5617611,66.5921263 24.9286588,64.5754177 25.3770893,62.5179675 C29.3721973,63.4957656 33.734203,64.249485 38.320424,64.7383841 C41.0721565,68.506981 43.9258051,71.9292744 46.7998369,74.9237812 C40.1549124,81.0961318 33.9176519,84.4776837 29.6779454,84.4776837 C28.7607012,84.4573129 27.9861394,84.2739757 27.3746433,83.9276722 Z M75.7236038,68.405127 C76.6816143,76.1867704 75.4993885,82.2368963 72.7476559,83.8461891 C72.1361598,84.2128634 71.3412148,84.3758297 70.4035874,84.3758297 C66.1842642,84.3758297 59.9266205,81.0146487 53.2816959,74.8830396 C56.1353445,71.8885328 58.9889931,68.4866102 61.6999592,64.7180133 C66.3065634,64.2291142 70.6685691,63.4753948 74.6636771,62.4772259 C75.1324908,64.5346761 75.4993885,66.5106432 75.7236038,68.405127 Z M83.5711374,54.8178073 C81.8181818,55.5715267 79.9021606,56.2437629 77.9249898,56.8752575 C76.7631472,52.8825818 75.2344068,48.7269398 73.3387689,44.4694438 C75.2140236,40.2323186 76.7223808,36.0970474 77.8638402,32.1247425 C79.8817774,32.7562371 81.7977986,33.4488441 83.5915206,34.2025635 C90.8071749,37.2785534 95.4749287,41.3119707 95.4749287,44.5101854 C95.4545455,47.7084001 90.7867917,51.7621881 83.5711374,54.8178073 Z" id="Shape"></path>
            <circle id="Oval" cx="49.5" cy="45.5" r="9.5"></circle>
        </g>
    </g>
</svg>