<?xml version="1.0" encoding="UTF-8"?>
<svg width="82px" height="82px" viewBox="0 0 82 82" version="1.1" xmlns="http://www.w3.org/2000/svg" xmlns:xlink="http://www.w3.org/1999/xlink">
    <!-- Generator: Sketch 52.6 (67491) - http://www.bohemiancoding.com/sketch -->
    <title>Repl.it_logo</title>
    <desc>Created with Sketch.</desc>
    <g id="Page-1" stroke="none" stroke-width="1" fill="none" fill-rule="evenodd">
        <g id="Repl.it_logo">
            <path d="M81.59,37.1778889 C81.7020667,38.4151778 81.7795111,39.6634 81.7795111,40.9307556 C81.7795111,39.6634 81.7020667,38.4160889 81.59,37.1778889 Z" id="Path" fill="#56676E"></path>
            <path d="M20.9555556,36.9619556 C20.9555556,36.9619556 9.58944444,78.8402667 55.1459111,79.2047111 C69.4394222,73.8838222 79.9718667,60.8385333 81.5681333,45.1109333 C81.6783778,44.0230667 81.7111778,42.9133333 81.7357778,41.8017778 C81.7403333,41.5093111 81.7795111,41.2250444 81.7795111,40.9307556 C81.7795111,39.6643111 81.7020667,38.4151778 81.59,37.1778889 C69.5542222,84.5584 16.3088889,65.9999778 20.9555556,36.9619556 Z" id="Path" fill="#56676E"></path>
            <path d="M44.5114222,21.4174889 C44.5114222,21.4174889 2.09555556,9.57213333 2.74791111,55.8219556 C4.92218345,61.4109423 8.29641836,66.4547222 12.6325556,70.5974444 C12.8147778,70.7696444 13.0033778,70.9327333 13.1874222,71.1022 C14.4139357,72.232983 15.7082957,73.2878834 17.0632889,74.2610222 C17.2737556,74.4113556 17.4714667,74.5771778 17.6828444,74.7238667 C19.1161375,75.7039996 20.61068,76.5914127 22.1573111,77.3806667 C22.6064889,77.6120889 23.0684222,77.8234667 23.5239778,78.0394 C24.8549186,78.6660441 26.2190569,79.2196075 27.6103111,79.6976222 C27.9519778,79.8142444 28.2781556,79.9600222 28.6243778,80.0684444 C30.2923013,80.5784047 31.9914141,80.9801294 33.7111111,81.2711111 C34.2313556,81.3622222 34.7570667,81.4387556 35.2836889,81.5116444 C37.0677366,81.7692807 38.8668329,81.9089838 40.6692667,81.9298444 C40.7385111,81.9298444 40.8050222,81.9407778 40.8742667,81.9407778 C42.2336444,81.9407778 43.5757111,81.8678889 44.8995556,81.7376 C-2.69142222,70.3878889 15.3977778,17.1717111 44.5114222,21.4174889 Z" id="Path" fill="#56676E"></path>
            <path d="M61.0444444,43.3506667 C61.0444444,43.3506667 71.0794222,1.04413333 25.9083556,2.93377778 C10.7611333,8.91704444 0.0382666667,23.6551778 0.0382666667,40.9271111 C0.0523524531,42.7870736 0.192682449,44.6439347 0.458288889,46.4848889 C9.96482222,-1.37942222 64.124,14.1222222 61.0444444,43.3506667 Z" id="Path" fill="#56676E"></path>
            <path d="M39.3554444,61.5564889 C39.3554444,61.5564889 81.8451111,67.1033333 79.1855778,26.7055778 C73.4027556,11.1556444 58.4714667,0.0564888889 40.9088889,0.0564888889 C38.4220186,0.0660992251 35.9411739,0.301832841 33.497,0.760777778 C80.8419778,6.57275556 68.5365111,61.9701333 39.3554444,61.5564889 Z" id="Path" fill="#56676E"></path>
            <path d="M52.7041333,40.9316667 C52.7041331,45.562327 49.9144959,49.7369541 45.6361825,51.5086904 C41.3578691,53.2804268 36.4335466,52.3003068 33.1596966,49.0254143 C29.8858466,45.7505217 28.9072946,40.8258874 30.680393,36.5481384 C32.4534915,32.2703893 36.6290066,29.4820814 41.2596667,29.4835556 C47.581069,29.4850649 52.7046366,34.6102642 52.7041333,40.9316667 Z" id="Path" fill="#4E4F50"></path>
        </g>
    </g>
</svg>