<?xml version="1.0" encoding="UTF-8"?>
<svg width="312px" height="308px" viewBox="0 0 312 308" version="1.1" xmlns="http://www.w3.org/2000/svg" xmlns:xlink="http://www.w3.org/1999/xlink">
    <!-- Generator: Sketch 52.6 (67491) - http://www.bohemiancoding.com/sketch -->
    <title>replit</title>
    <desc>Created with Sketch.</desc>
    <g id="Page-1" stroke="none" stroke-width="1" fill="none" fill-rule="evenodd">
        <g id="replit">
            <g id="Group" transform="translate(75.000000, 139.000000)" fill="#989BA1">
                <path d="M236.1196,0.881411765 L236.84184,15.0288235 C236.84184,10.2052941 236.54904,5.54576471 236.1196,0.881411765 Z" id="Path"></path>
                <path d="M4.8564,0.0662352941 C4.8564,0.0662352941 -38.48776,157.940353 135.25976,159.315059 C190.851579,138.908931 229.912317,89.0896429 236.03176,30.7872941 C236.45144,26.6872941 236.57832,22.5052941 236.66616,18.3136471 L236.83208,15.0336471 C236.83208,10.2101176 236.53928,5.55058824 236.10984,0.886235294 C190.21344,179.501529 -12.858,109.536235 4.8564,0.0662352941 Z" id="Path"></path>
            </g>
            <path d="M169.509791,80.111499 C169.509791,80.111499 7.55096244,35.5432546 10.0281293,209.611772 C18.3342113,230.648522 31.2135245,249.633612 47.7719434,265.237795 C48.4559737,265.88797 49.2377226,266.499615 49.8924373,267.140157 C54.5829307,271.397595 59.5177207,275.366066 64.6968072,279.035939 C65.4980998,279.604239 66.260305,280.220701 67.0615976,280.779369 C72.5347846,284.467933 78.241811,287.807502 84.147697,290.777605 C85.8577727,291.644504 87.5678485,292.443978 89.3756428,293.253084 C94.4584909,295.611868 99.6681217,297.695523 104.981305,299.494757 C106.285849,299.928206 107.531761,300.482059 108.850962,300.939589 C115.21733,302.866031 121.70096,304.378288 128.272537,305.47636 C130.256224,305.82312 132.279,306.102454 134.282231,306.381788 C141.094505,307.35343 147.964375,307.881136 154.847113,307.961471 C155.110954,307.961471 155.365022,308 155.628862,308 C160.817721,308 165.938176,307.725482 171,307.229423 C-10.7468478,264.491299 58.3548692,64.1846367 169.509791,80.1644762 L169.509791,80.111499 Z" id="Path" fill="#929497"></path>
            <path d="M232.422403,163.340688 C232.422403,163.340688 270.653597,3.73042086 98.5669157,10.8744115 C31.502458,36.5472666 -8.72776011,104.726274 1.61186713,175.186197 C37.8298667,-5.34437808 244.160349,53.0770536 232.422403,163.350342 L232.422403,163.340688 Z M149.798568,232.029193 C149.798568,232.029193 311.67304,252.9495 301.543699,100.560456 C275.476994,30.1887053 201.858578,-11.2120332 127.473072,2.6684763 C307.846509,24.5928044 260.967841,233.583493 149.798568,232.024366 L149.798568,232.029193 Z M200.640255,154.217619 C200.644195,171.694643 190.01407,187.452392 173.708373,194.140557 C157.402677,200.828722 138.63389,197.129629 126.156841,184.768743 C113.679793,172.407858 109.952659,153.820472 116.713986,137.676798 C123.475314,121.533124 139.393014,111.013721 157.042168,111.025437 C181.121651,111.041422 200.63488,130.372979 200.640255,154.217619 Z" id="Shape" fill="#989BA1" fill-rule="nonzero"></path>
        </g>
    </g>
</svg>