<?xml version="1.0" encoding="UTF-8"?>
<svg width="100px" height="100px" viewBox="0 0 100 100" version="1.1" xmlns="http://www.w3.org/2000/svg" xmlns:xlink="http://www.w3.org/1999/xlink">
    <!-- Generator: Sketch 52.6 (67491) - http://www.bohemiancoding.com/sketch -->
    <title>sketches2</title>
    <desc>Created with Sketch.</desc>
    <defs>
        <linearGradient x1="50%" y1="19.765407%" x2="50%" y2="95.0909768%" id="linearGradient-1">
            <stop stop-color="#8DBEEF" offset="0%"></stop>
            <stop stop-color="#F3F3F3" offset="100%"></stop>
        </linearGradient>
        <linearGradient x1="4.02101265%" y1="16.6329175%" x2="56.8643379%" y2="68.0210004%" id="linearGradient-2">
            <stop stop-color="#202020" offset="0%"></stop>
            <stop stop-color="#55495A" offset="100%"></stop>
        </linearGradient>
        <linearGradient x1="50%" y1="36.8655457%" x2="50%" y2="100%" id="linearGradient-3">
            <stop stop-color="#FDB614" offset="0%"></stop>
            <stop stop-color="#F7D07A" offset="100%"></stop>
        </linearGradient>
        <linearGradient x1="50%" y1="24.9354198%" x2="50%" y2="65.6713882%" id="linearGradient-4">
            <stop stop-color="#B1122E" offset="0%"></stop>
            <stop stop-color="#D51234" offset="100%"></stop>
        </linearGradient>
        <linearGradient x1="50%" y1="8.86572199%" x2="50%" y2="53.7845048%" id="linearGradient-5">
            <stop stop-color="#FDC545" offset="0%"></stop>
            <stop stop-color="#FBF2B1" offset="100%"></stop>
        </linearGradient>
    </defs>
    <g id="sketches2" stroke="none" stroke-width="1" fill="none" fill-rule="evenodd">
        <g id="sds" transform="translate(25.000000, 9.000000)">
            <rect id="Rectangle" fill="#FFFFFF" x="1.13960114" y="1.14245014" width="48.4330484" height="38.1766382"></rect>
            <polygon id="Combined-Shape" fill="url(#linearGradient-1)" points="49.1191526 2.44417499 22.3279393 4.95609825 49.1191526 6.46331786 49.1191526 80.2935363 1.13960114 80.2935363 1.13960114 13.4197391 29.1978184 15.8790607 11.6555838 13.1758991 25.1984192 11.5947743 1.13960114 8.55673774 1.13960114 1.11741008 49.1191526 1.11741008"></polygon>
            <polygon id="Rectangle" fill="url(#linearGradient-2)" opacity="0.39953032" points="1.13960114 62.2535613 49.546503 62.4042548 49.4101828 80.2621164 1.13960114 80.2621164"></polygon>
            <path d="M0.258328721,78.6476742 L49.5460779,78.6476742" id="Line" stroke="#979797" opacity="0.232375372" stroke-linecap="square" transform="translate(24.902203, 78.647674) rotate(3.000000) translate(-24.902203, -78.647674) "></path>
            <path d="M0.258328721,76.9382725 L49.5460779,76.9382725" id="Line-Copy" stroke="#979797" opacity="0.232375372" stroke-linecap="square" transform="translate(24.902203, 76.938273) rotate(3.000000) translate(-24.902203, -76.938273) "></path>
            <path d="M0.0825980635,75.3874379 L49.3703473,75.3874379" id="Line-Copy-2" stroke="#979797" opacity="0.232375372" stroke-linecap="square" transform="translate(24.726473, 75.387438) rotate(3.000000) translate(-24.726473, -75.387438) "></path>
            <path d="M0.164605964,73.8226339 L49.4523553,73.8226339" id="Line-Copy-3" stroke="#979797" opacity="0.232375372" stroke-linecap="square" transform="translate(24.808481, 73.822634) rotate(3.000000) translate(-24.808481, -73.822634) "></path>
            <path d="M0.246613873,72.2578298 L49.5343631,72.2578298" id="Line-Copy-4" stroke="#979797" opacity="0.232375372" stroke-linecap="square" transform="translate(24.890488, 72.257830) rotate(3.000000) translate(-24.890488, -72.257830) "></path>
            <path d="M0.328621782,70.6930256 L49.6163711,70.6930256" id="Line-Copy-5" stroke="#979797" opacity="0.232375372" stroke-linecap="square" transform="translate(24.972496, 70.693026) rotate(3.000000) translate(-24.972496, -70.693026) "></path>
            <path d="M0.410629691,69.1282215 L49.6983789,69.1282215" id="Line-Copy-6" stroke="#979797" opacity="0.232375372" stroke-linecap="square" transform="translate(25.054504, 69.128222) rotate(3.000000) translate(-25.054504, -69.128222) "></path>
            <path d="M0.4926376,67.5634174 L49.7803869,67.5634174" id="Line-Copy-7" stroke="#979797" opacity="0.232375372" stroke-linecap="square" transform="translate(25.136512, 67.563417) rotate(3.000000) translate(-25.136512, -67.563417) "></path>
            <path d="M0.574645516,65.9986132 L49.8623947,65.9986132" id="Line-Copy-8" stroke="#979797" opacity="0.232375372" stroke-linecap="square" transform="translate(25.218520, 65.998613) rotate(3.000000) translate(-25.218520, -65.998613) "></path>
            <path d="M0.656653424,64.4338091 L49.9444027,64.4338091" id="Line-Copy-9" stroke="#979797" opacity="0.232375372" stroke-linecap="square" transform="translate(25.300528, 64.433809) rotate(3.000000) translate(-25.300528, -64.433809) "></path>
            <path d="M6.91675625,71.8402101 C7.75978359,72.1333748 9.10334436,73.3779318 9.44583826,72.719704 L10.1889808,73.559183 C10.8437793,72.3007474 8.23254734,71.5244761 7.15430036,71.56219" id="Path-20" fill="#FBB731"></path>
            <polygon id="Rectangle" fill="#FBF2B1" points="1.13960114 43.0341828 17.2422547 45.7506634 17.5549395 50.1588541 31.5100229 52.1185382 42.5098691 61.8830121 1.13960114 62.5874919"></polygon>
            <polygon id="Path-9" fill="url(#linearGradient-3)" points="46.5364219 30.6143983 37.6644588 31.8506755 37.6644588 52.3490954 31.8740664 52.3490954 31.8740664 62.5218667 42.5532564 62.5218667 42.5532564 55.9394366 46.5364219 55.9394366 46.5364219 50.833993 42.5532564 49.949044 42.5532564 35.1087464 46.5364219 34.5867258"></polygon>
            <polygon id="Path-10" fill="#FD900F" opacity="0.401297433" points="38.0399605 52.5524956 32.1051526 57.1335383 32.106711 51.8021167"></polygon>
            <path d="M0.292102296,44.5897436 L17.4007412,47.3319866" id="Path-15-Copy-2" stroke="#FDB614" opacity="0.12672061"></path>
            <polygon id="Path-7" fill="#CDC894" opacity="0.466122582" points="15.8997452 50.5164604 22.1139023 55.9665632 29.3666252 56.744897 30.4824286 52.4514278"></polygon>
            <polygon id="Path" fill="#2071B9" points="15.6980321 56.0401527 15.6980321 63.4231825 26.03314 63.5555846 25.8658251 55.6004271"></polygon>
            <polygon id="Path-8" fill="#40BCAC" points="33.220956 50.9906073 37.9097281 52.5149244 32.1051526 52.5149244"></polygon>
            <polygon id="Path-6" fill="#3DBBAC" points="16.0633919 50.5164604 26.1365754 49.4381342 28.2900272 49.8554769 28.2900272 50.5840709 28.2900272 52.4835382"></polygon>
            <polygon id="Path-3" fill="#D0142C" points="29.555914 50.0203115 28.176687 50.0203115 28.176687 56.1693348 29.555914 56.4739628"></polygon>
            <polyline id="Path-2" fill="#31102A" points="25.8658251 55.5863695 29.5542966 56.2145199 29.5542966 50.2143707 33.165403 51.2785167 33.165403 62.1525627 38.0399605 62.1525627 38.0399605 62.9728678 25.8658251 63.5555846"></polyline>
            <polygon id="Path-4-Copy" fill="#300E36" points="24.0171353 11.7906624 24.0171353 37.7397041 25.8868094 38.6722719 25.8868094 49.5148821 38.1132843 52.5524956 38.1132843 32.0393368 44.3805497 30.9314179 27.4374842 17.9950078 27.4374842 14.6254352"></polygon>
            <path d="M41.5910409,28.8015655 L41.5910409,31.4245436 L40.4752373,31.6217939 L40.4752373,27.9496245 L41.5910409,28.8015655 Z M41.8699917,29.0145507 L44.3805497,30.9314179 L41.8699917,31.3752311 L41.8699917,29.0145507 Z M40.1962865,27.7366392 L40.1962865,31.6711064 L39.0804829,31.8683567 L39.0804829,26.8846983 L40.1962865,27.7366392 Z M38.8015321,26.671713 L38.8015321,31.9176692 L38.1132843,32.0393368 L38.1132843,52.5524956 L37.6857285,52.4462712 L37.6857285,25.8197721 L38.8015321,26.671713 Z M37.4067776,25.6067868 L37.4067776,52.3769671 L36.2909741,52.0997507 L36.2909741,24.7548457 L37.4067776,25.6067868 Z M36.0120232,24.5418605 L36.0120232,52.0304466 L34.8962197,51.7532302 L34.8962197,23.6899195 L36.0120232,24.5418605 Z M34.6172688,23.4769343 L34.6172688,51.6839261 L33.5014654,51.4067095 L33.5014654,22.6249933 L34.6172688,23.4769343 Z M33.2225144,22.412008 L33.2225144,51.3374054 L32.106711,51.060189 L32.106711,21.5600671 L33.2225144,22.412008 Z M31.82776,21.3470818 L31.82776,50.9908849 L30.7119566,50.7136685 L30.7119566,20.4951407 L31.82776,21.3470818 Z M30.4330057,20.2821556 L30.4330057,50.6443644 L29.3172021,50.3671479 L29.3172021,19.4302145 L30.4330057,20.2821556 Z M29.0382513,19.2172293 L29.0382513,50.2978439 L27.9224477,50.0206274 L27.9224477,18.3652883 L29.0382513,19.2172293 Z M27.6434969,18.1523031 L27.6434969,49.9513232 L26.5276933,49.6741068 L26.5276933,13.8714037 L27.4374842,14.6254352 L27.4374842,17.9950078 L27.6434969,18.1523031 Z M26.2487425,13.6402102 L26.2487425,49.6048027 L25.8868094,49.5148821 L25.8868094,38.6722719 L25.1329389,38.2962517 L25.1329389,12.7154363 L26.2487425,13.6402102 Z M24.853988,12.4842428 L24.853988,38.1571148 L24.0171353,37.7397041 L24.0171353,11.7906624 L24.853988,12.4842428 Z" id="Combined-Shape" fill="#4B0357" fill-rule="nonzero"></path>
            <polygon id="Path-5-Copy" fill="#2071B9" points="17.9996816 19.1646274 15.0047734 19.8254329 15.0047734 45.870913 15.9445981 46.1204094 15.9445981 50.5164604 26.03314 49.5684587 26.03314 38.4470171 20.5189567 39.2226164 17.9996816 38.7316718"></polygon>
            <path d="M25.325956,49.6349115 L24.4891033,49.713549 L24.4891033,38.6641942 L25.325956,38.5464863 L25.325956,49.6349115 Z M25.6049068,49.608699 L25.6049068,38.5072504 L26.03314,38.4470171 L26.03314,49.5684587 L25.6049068,49.608699 Z M24.2101524,49.7397615 L23.3732999,49.818399 L23.3732999,38.8211377 L24.2101524,38.7034301 L24.2101524,49.7397615 Z M23.094349,49.8446115 L22.2574963,49.923249 L22.2574963,38.9780815 L23.094349,38.8603738 L23.094349,49.8446115 Z M21.9785454,49.9494615 L21.1416927,50.028099 L21.1416927,39.1350252 L21.9785454,39.0173175 L21.9785454,49.9494615 Z M20.8627419,50.0543115 L20.0258893,50.132949 L20.0258893,39.1265298 L20.5189567,39.2226164 L20.8627419,39.1742611 L20.8627419,50.0543115 Z M19.7469383,50.1591615 L18.9100858,50.237799 L18.9100858,38.909087 L19.7469383,39.0721691 L19.7469383,50.1591615 Z M18.6311349,50.2640115 L17.7942822,50.342649 L17.7942822,19.2099473 L17.9996816,19.1646274 L17.9996816,38.7316718 L18.6311349,38.8547265 L18.6311349,50.2640115 Z M17.5153313,50.3688615 L16.6784786,50.447499 L16.6784786,19.4561415 L17.5153313,19.2714959 L17.5153313,50.3688615 Z M16.3995278,50.4737115 L15.9445981,50.5164604 L15.9445981,46.1204094 L15.5626752,46.0190198 L15.5626752,19.7023358 L16.3995278,19.51769 L16.3995278,50.4737115 Z M15.2837242,45.9449664 L15.0047734,45.870913 L15.0047734,19.8254329 L15.2837242,19.7638843 L15.2837242,45.9449664 Z" id="Combined-Shape" fill="#597D9C" fill-rule="nonzero"></path>
            <g id="Oval" transform="translate(23.931624, 50.572650)">
                <g id="path-4-link" fill="#B9F7D5">
                    <ellipse id="path-4" cx="0.782888604" cy="0.4269075" rx="1" ry="1"></ellipse>
                </g>
                <g id="path-4-link" fill="#000000">
                    <ellipse id="path-4" cx="0.782888604" cy="0.4269075" rx="1" ry="1"></ellipse>
                </g>
            </g>
            <polygon id="Path-11" fill="url(#linearGradient-4)" points="44.5838075 29.1049232 44.5838075 35.1892704 49.2687658 34.5627873 49.2687658 28.0916296"></polygon>
            <polygon id="Path-12" fill="#FBF2B1" points="42.5040318 35.1218271 49.9880809 34.0271101 50 49.6362903 42.5040318 50.0898963"></polygon>
            <polygon id="Path-13" fill="#3E1E79" points="42.5040318 50.0898963 49.2687658 49.6692597 49.1191526 50.8547677 46.4883439 51.0296168"></polygon>
            <polygon id="Path-16" fill="#D01635" opacity="0.661783854" points="36.0336179 54.4836717 36.0336179 59.0236942 36.7353538 59.0236942 36.7353538 54.4836717"></polygon>
            <g id="Group-3" transform="translate(42.450142, 55.558405)">
                <polygon id="Path-16-Copy" fill="#1B1464" opacity="0.535063244" points="0 0 0 7.69230769 7.54985755 7.69230769 7.54985755 0"></polygon>
                <path d="M7.54985755,6.95761954 L0,6.95761954 L0,5.6109835 L7.54985755,5.6109835 L7.54985755,6.95761954 Z M7.54985755,7.18205887 L7.54985755,7.69230769 L0,7.69230769 L0,7.18205887 L7.54985755,7.18205887 Z M7.54985755,5.38654416 L0,5.38654416 L0,4.03990812 L7.54985755,4.03990812 L7.54985755,5.38654416 Z M7.54985755,3.81546877 L0,3.81546877 L0,2.46883274 L7.54985755,2.46883274 L7.54985755,3.81546877 Z M7.54985755,2.2443934 L0,2.2443934 L0,0.89775736 L7.54985755,0.89775736 L7.54985755,2.2443934 Z M7.54985755,0.67331802 L0,0.67331802 L0,0 L7.54985755,0 L7.54985755,0.67331802 Z" id="Combined-Shape" fill="#D01635" fill-rule="nonzero"></path>
                <rect id="Rectangle" fill="#FDB614" x="0.997150997" y="1.70940171" width="2.13675214" height="1.13960114"></rect>
            </g>
            <path d="M14.0804286,76.4852124 C14.8498748,74.846241 22.2888124,75.9373793 14.1768628,76.7819895" id="Path-21" fill="#FCB832"></path>
            <path d="M10.3830493,78.2101094 C10.3830493,73.6659118 17.7346832,73.7277726 10.4195526,78.4977165" id="Path-18" fill="#FBB731"></path>
            <path d="M5.06806661,78.2101094 C5.06806661,73.6659118 12.4197005,73.7277726 5.10456996,78.4977165" id="Path-18-Copy-2" fill="#FBB731"></path>
            <path d="M1.83285976,75.8813999 C1.83285976,71.3372023 9.18449366,71.3990631 1.86936309,76.1690068" id="Path-18-Copy-3" fill="#FBB731"></path>
            <polygon id="Path-5" fill="#A6A6A6" opacity="0.49655878" points="46.5364219 51.0296168 49.1191526 55.6004271 49.1191526 50.8348746"></polygon>
            <path d="M20.7977208,77.7120523 C20.7977208,73.1678546 28.1493547,73.2297155 20.8342241,77.9996593" id="Path-18-Copy-3" fill="#FBB731"></path>
            <path d="M10.8452217,73.8080195 C11.0887627,70.990712 15.6037915,70.6210115 13.3644969,72.651756 C12.7281528,73.228836 11.7554443,73.526248 10.950918,73.963494 L10.8452217,73.8080195 Z" id="Path-19" fill="#FBB731"></path>
            <path d="M25.3222996,72.1716984 L25.1680326,72.3278736 C24.5124655,72.2977198 22.9565124,71.7009427 23.3997095,70.973393 L23.8199546,71.5166403 C24.0517699,71.1360937 24.8215179,71.9533457 25.3222996,72.1716984 Z" id="Path-20" fill="#D0021B"></path>
            <path d="M21.1724835,68.9843527 C20.6458419,69.9359959 16.1723265,68.912195 21.1248044,68.8004624 L21.1724835,68.9843527 Z" id="Path-21" fill="#000000"></path>
            <path d="M23.4796615,68.1722201 C23.3138456,70.9154437 18.8557409,70.5172781 23.468009,67.996807 L23.4796615,68.1722201 Z" id="Path-18" fill="#D0021B"></path>
            <path d="M26.6774581,68.4309064 C26.5116423,71.1741301 22.0535376,70.7759644 26.6658056,68.2554933 L26.6774581,68.4309064 Z" id="Path-18-Copy-2" fill="#D0021B"></path>
            <path d="M28.5821105,69.9676114 C28.4162946,72.710835 23.95819,72.3126694 28.570458,69.7921983 L28.5821105,69.9676114 Z" id="Path-18-Copy-3" fill="#D0021B"></path>
            <path d="M14.4471701,68.0797553 C14.3131977,70.9348758 10.7112345,70.5204688 14.4377553,67.897187 L14.4471701,68.0797553 Z" id="Path-18-Copy-3" fill="#000099"></path>
            <path d="M22.976033,70.7568611 C22.7254702,72.4456493 19.9726349,72.4472289 21.4053541,71.3312225 C21.8124925,71.0140852 22.4135037,70.8822856 22.9175785,70.6578172 L22.976033,70.7568611 Z" id="Path-19" fill="#D0021B"></path>
            <path d="M15.0390319,66.8446252 L14.8847651,67.0008006 C14.229198,66.9706467 12.6732448,66.3738697 13.116442,65.6463199 L13.536687,66.1895672 C13.7685024,65.8090205 14.5382503,66.6262725 15.0390319,66.8446252 Z" id="Path-20" fill="#000000"></path>
            <path d="M8.4307738,65.1979897 C8.00526933,66.1884506 4.39085483,65.1228887 8.39225115,65.0065986 L8.4307738,65.1979897 Z" id="Path-21" fill="#000099"></path>
            <path d="M11.9248461,64.2808262 C11.7590302,67.0240499 7.30092551,66.6258842 11.9131935,64.1054131 L11.9248461,64.2808262 Z" id="Path-18" fill="#000099"></path>
            <path d="M6.13497114,67.8420798 C5.96915526,70.5853034 1.51105058,70.1871377 6.1233186,67.6666667 L6.13497114,67.8420798 Z" id="Path-18-Copy-2" fill="#000099"></path>
            <path d="M8.44214913,66.5600285 C8.27633325,69.3032521 3.81822858,68.9050865 8.4304966,66.3846154 L8.44214913,66.5600285 Z" id="Path-18-Copy-3" fill="#000099"></path>
            <path d="M5.11211157,64.0030811 C4.97813923,66.8582014 1.37617599,66.4437946 5.10269681,63.8205128 L5.11211157,64.0030811 Z" id="Path-18-Copy-3" fill="#000099"></path>
            <path d="M11.5258849,66.9110097 C11.275322,68.599798 8.5224867,68.6013775 9.955206,67.4853712 C10.3623442,67.1682338 10.9633556,67.0364343 11.4674304,66.8119658 L11.5258849,66.9110097 Z" id="Path-19" fill="#000000"></path>
            <polygon id="Path-4" stroke="#D51234" stroke-width="5" fill="url(#linearGradient-5)" points="18.1339332 38.5479879 23.6653214 37.360815 23.6653214 12.2453611 18.1339332 13.610459"></polygon>
            <polygon id="Path-14" fill="#391E74" points="26.03314 38.4293313 24.0171353 37.6135818 17.7778078 38.9886564 20.0258893 39.5644809"></polygon>
            <rect id="Rectangle" stroke="#000000" stroke-width="2" x="1" y="1" width="49" height="80" rx="4"></rect>
        </g>
    </g>
</svg>