<?xml version="1.0" encoding="UTF-8"?>
<svg width="100px" height="100px" viewBox="0 0 100 100" version="1.1" xmlns="http://www.w3.org/2000/svg" xmlns:xlink="http://www.w3.org/1999/xlink">
    <!-- Generator: Sketch 52.6 (67491) - http://www.bohemiancoding.com/sketch -->
    <title>sketches2</title>
    <desc>Created with Sketch.</desc>
    <defs>
        <linearGradient x1="50%" y1="19.765407%" x2="50%" y2="95.0909768%" id="linearGradient-1">
            <stop stop-color="#8DBEEF" offset="0%"></stop>
            <stop stop-color="#F3F3F3" offset="100%"></stop>
        </linearGradient>
        <linearGradient x1="4.02101265%" y1="16.6329175%" x2="56.8643379%" y2="68.0210004%" id="linearGradient-2">
            <stop stop-color="#202020" offset="0%"></stop>
            <stop stop-color="#55495A" offset="100%"></stop>
        </linearGradient>
        <linearGradient x1="50%" y1="36.8655457%" x2="50%" y2="100%" id="linearGradient-3">
            <stop stop-color="#FDB614" offset="0%"></stop>
            <stop stop-color="#F7D07A" offset="100%"></stop>
        </linearGradient>
        <linearGradient x1="50%" y1="24.9354198%" x2="50%" y2="65.6713882%" id="linearGradient-4">
            <stop stop-color="#B1122E" offset="0%"></stop>
            <stop stop-color="#D51234" offset="100%"></stop>
        </linearGradient>
        <linearGradient x1="50%" y1="8.86572199%" x2="50%" y2="53.7845048%" id="linearGradient-5">
            <stop stop-color="#FDC545" offset="0%"></stop>
            <stop stop-color="#FBF2B1" offset="100%"></stop>
        </linearGradient>
    </defs>
    <g id="sketches2" stroke="none" stroke-width="1" fill="none" fill-rule="evenodd">
        <g id="Group-2" transform="translate(21.000000, 9.000000)">
            <rect id="Rectangle" fill="#FFFFFF" x="1.31299046" y="0.143276433" width="56.6401744" height="39.4364197"></rect>
            <polygon id="Combined-Shape" fill="url(#linearGradient-1)" points="57.4228214 1.48795658 26.0917564 4.08277018 57.4228214 5.63972617 57.4228214 81.90625 1.31299046 81.90625 1.31299046 12.8257006 34.1257571 15.3661768 13.6109381 12.5738143 29.4486477 10.9405143 1.31299046 7.80222629 1.31299046 0.117410078 57.4228214 0.117410078"></polygon>
            <polygon id="Rectangle" fill="url(#linearGradient-2)" opacity="0.39953032" points="1.31299046 63.2709782 57.9225876 63.4266445 57.7631675 81.8737932 1.31299046 81.8737932"></polygon>
            <path d="M0.321880384,78.8737552 L57.8825939,81.5383977 L0.321880384,78.8737552 Z" id="Line" stroke="#979797" opacity="0.232375372" stroke-linecap="square"></path>
            <path d="M0.321880384,77.1079454 L57.8825939,79.7725879 L0.321880384,77.1079454 Z" id="Line-Copy" stroke="#979797" opacity="0.232375372" stroke-linecap="square"></path>
            <path d="M0.116371637,75.5059352 L57.6770852,78.1705777 L0.116371637,75.5059352 Z" id="Line-Copy-2" stroke="#979797" opacity="0.232375372" stroke-linecap="square"></path>
            <path d="M0.212276024,73.8894946 L57.7729897,76.5541371 L0.212276024,73.8894946 Z" id="Line-Copy-3" stroke="#979797" opacity="0.232375372" stroke-linecap="square"></path>
            <path d="M0.30818042,72.2730539 L57.868894,74.9376964 L0.30818042,72.2730539 Z" id="Line-Copy-4" stroke="#979797" opacity="0.232375372" stroke-linecap="square"></path>
            <path d="M0.404084816,70.6566132 L57.9647985,73.3212557 L0.404084816,70.6566132 Z" id="Line-Copy-5" stroke="#979797" opacity="0.232375372" stroke-linecap="square"></path>
            <path d="M0.499989212,69.0401724 L58.0607028,71.7048149 L0.499989212,69.0401724 Z" id="Line-Copy-6" stroke="#979797" opacity="0.232375372" stroke-linecap="square"></path>
            <path d="M0.595893608,67.4237317 L58.1566073,70.0883742 L0.595893608,67.4237317 Z" id="Line-Copy-7" stroke="#979797" opacity="0.232375372" stroke-linecap="square"></path>
            <path d="M0.691798012,65.807291 L58.2525116,68.4719335 L0.691798012,65.807291 Z" id="Line-Copy-8" stroke="#979797" opacity="0.232375372" stroke-linecap="square"></path>
            <path d="M0.787702408,64.1908503 L58.3484161,66.8554928 L0.787702408,64.1908503 Z" id="Line-Copy-9" stroke="#979797" opacity="0.232375372" stroke-linecap="square"></path>
            <path d="M8.06910191,73.1739745 C9.05498277,73.4768133 10.626214,74.7624391 11.0267445,74.0824906 L11.8958148,74.9496714 C12.6615708,73.649709 9.60785776,72.8478217 8.34689858,72.8867801" id="Path-20" fill="#FBB731"></path>
            <polygon id="Rectangle" fill="#FBF2B1" points="1.31299046 43.4173841 20.1442872 46.2235052 20.5099573 50.7771608 36.8297717 52.801512 49.6935749 62.8882014 1.31299046 63.6159281"></polygon>
            <polygon id="Path-9" fill="url(#linearGradient-3)" points="54.4024393 30.5877622 44.0270953 31.864835 44.0270953 53.0396773 37.2555034 53.0396773 37.2555034 63.5481374 49.7443144 63.5481374 49.7443144 56.7484953 54.4024393 56.7484953 54.4024393 51.4745784 49.7443144 50.5604272 49.7443144 35.2304183 54.4024393 34.6911716"></polygon>
            <polygon id="Path-10" fill="#FD900F" opacity="0.401297433" points="44.4662269 53.2497894 37.5257478 57.9820009 37.5275703 52.4746489"></polygon>
            <path d="M0.321880386,45.0242765 L20.3296296,47.8570101" id="Path-15-Copy-2" stroke="#FDB614" opacity="0.12672061"></path>
            <polygon id="Path-7" fill="#CDC894" opacity="0.466122582" points="18.5742853 51.1465676 25.8414501 56.7765171 34.3231688 57.5805349 35.6280485 53.1453865"></polygon>
            <polygon id="Path" fill="#2071B9" points="18.3383913 56.8525349 18.3383913 64.4791955 30.4248145 64.6159667 30.2291475 56.3982989"></polygon>
            <polygon id="Path-8" fill="#40BCAC" points="38.8306275 51.6363607 44.3139261 53.2109784 37.5257478 53.2109784"></polygon>
            <polygon id="Path-6" fill="#3DBBAC" points="18.7656625 51.1465676 30.5457773 50.032658 33.064138 50.4637725 33.064138 51.2164092 33.064138 53.1785565"></polygon>
            <polygon id="Path-3" fill="#D0142C" points="34.5445331 50.6340465 32.931592 50.6340465 32.931592 56.9859798 34.5445331 57.3006602"></polygon>
            <polyline id="Path-2" fill="#31102A" points="30.2291475 56.3837774 34.5426416 57.032656 34.5426416 50.8345093 38.7656609 51.9337708 38.7656609 63.1666468 44.4662269 63.1666468 44.4662269 64.014021 30.2291475 64.6159667"></polyline>
            <polygon id="Path-4-Copy" fill="#300E36" points="28.0671917 11.1428664 28.0671917 37.9481943 30.2536877 38.9115357 30.2536877 50.1119384 44.5519756 53.2497894 44.5519756 32.0597219 51.881248 30.9152431 32.067129 17.5519476 32.067129 14.0711832"></polygon>
            <path d="M48.6190485,28.7151082 L48.6190485,31.4246413 L47.3141687,31.6284006 L47.3141687,27.8350542 L48.6190485,28.7151082 Z M48.9452684,28.9351217 L51.881248,30.9152431 L48.9452684,31.3737015 L48.9452684,28.9351217 Z M46.9879488,27.6150406 L46.9879488,31.6793404 L45.6830689,31.8830997 L45.6830689,26.7349867 L46.9879488,27.6150406 Z M45.356849,26.5149732 L45.356849,31.9340395 L44.5519756,32.0597219 L44.5519756,53.2497894 L44.0519692,53.1400598 L44.0519692,25.6349193 L45.356849,26.5149732 Z M43.7257493,25.4149057 L43.7257493,53.0684687 L42.4208694,52.7821045 L42.4208694,24.5348517 L43.7257493,25.4149057 Z M42.0946495,24.3148383 L42.0946495,52.7105135 L40.7897697,52.4241493 L40.7897697,23.4347842 L42.0946495,24.3148383 Z M40.4635498,23.2147708 L40.4635498,52.3525582 L39.1586701,52.0661939 L39.1586701,22.3347168 L40.4635498,23.2147708 Z M38.83245,22.1147032 L38.83245,51.9946028 L37.5275703,51.7082386 L37.5275703,21.2346493 L38.83245,22.1147032 Z M37.2013502,21.0146358 L37.2013502,51.6366475 L35.8964706,51.3502834 L35.8964706,20.1345817 L37.2013502,21.0146358 Z M35.5702507,19.9145683 L35.5702507,51.2786923 L34.2653708,50.9923279 L34.2653708,19.0345143 L35.5702507,19.9145683 Z M33.9391509,18.8145009 L33.9391509,50.920737 L32.6342711,50.6343727 L32.6342711,17.9344468 L33.9391509,18.8145009 Z M32.3080512,17.7144334 L32.3080512,50.5627816 L31.0031713,50.2764174 L31.0031713,13.2922697 L32.067129,14.0711832 L32.067129,17.5519476 L32.3080512,17.7144334 Z M30.6769514,13.0534471 L30.6769514,50.2048263 L30.2536877,50.1119384 L30.2536877,38.9115357 L29.3720716,38.5231072 L29.3720716,12.0981568 L30.6769514,13.0534471 Z M29.0458516,11.8593342 L29.0458516,38.379379 L28.0671917,37.9481943 L28.0671917,11.1428664 L29.0458516,11.8593342 Z" id="Combined-Shape" fill="#4B0357" fill-rule="nonzero"></path>
            <polygon id="Path-5-Copy" fill="#2071B9" points="21.0300624 18.7601631 17.5276579 19.4427744 17.5276579 46.3477229 18.6267388 46.6054524 18.6267388 51.1465676 30.4248145 50.167283 30.4248145 38.6788477 23.9762362 39.4800408 21.0300624 38.9728956"></polygon>
            <path d="M29.597796,50.2359287 L28.6191361,50.3171611 L28.6191361,38.9031913 L29.597796,38.7815993 L29.597796,50.2359287 Z M29.9240159,50.2088512 L29.9240159,38.7410686 L30.4248145,38.6788477 L30.4248145,50.167283 L29.9240159,50.2088512 Z M28.2929161,50.3442387 L27.3142564,50.4254711 L27.3142564,39.0653139 L28.2929161,38.943722 L28.2929161,50.3442387 Z M26.9880365,50.4525486 L26.0093766,50.533781 L26.0093766,39.2274365 L26.9880365,39.1058446 L26.9880365,50.4525486 Z M25.6831566,50.5608585 L24.7044967,50.6420909 L24.7044967,39.3895592 L25.6831566,39.2679673 L25.6831566,50.5608585 Z M24.3782768,50.6691684 L23.3996171,50.7504008 L23.3996171,39.3807834 L23.9762362,39.4800408 L24.3782768,39.4300899 L24.3782768,50.6691684 Z M23.073397,50.7774783 L22.0947372,50.8587107 L22.0947372,39.1561654 L23.073397,39.3246289 L23.073397,50.7774783 Z M21.7685173,50.8857883 L20.7898574,50.9670207 L20.7898574,18.8069785 L21.0300624,18.7601631 L21.0300624,38.9728956 L21.7685173,39.100011 L21.7685173,50.8857883 Z M20.4636375,50.9940982 L19.4849776,51.0753306 L19.4849776,19.0612968 L20.4636375,18.8705581 L20.4636375,50.9940982 Z M19.1587576,51.1024081 L18.6267388,51.1465676 L18.6267388,46.6054524 L18.1800979,46.5007171 L18.1800979,19.3156152 L19.1587576,19.1248764 L19.1587576,51.1024081 Z M17.8538778,46.42422 L17.5276579,46.3477229 L17.5276579,19.4427744 L17.8538778,19.3791948 L17.8538778,46.42422 Z" id="Combined-Shape" fill="#597D9C" fill-rule="nonzero"></path>
            <g id="Oval" transform="translate(27.967190, 51.204611)">
                <g id="path-4-link" fill="#B9F7D5">
                    <ellipse id="path-4" cx="0.915551436" cy="0.440994916" rx="1" ry="1"></ellipse>
                </g>
                <g id="path-4-link" fill="#000000">
                    <ellipse id="path-4" cx="0.915551436" cy="0.440994916" rx="1" ry="1"></ellipse>
                </g>
            </g>
            <polygon id="Path-11" fill="url(#linearGradient-4)" points="52.1189485 29.0284763 52.1189485 35.3135994 57.5977871 34.6664432 57.5977871 27.9817453"></polygon>
            <polygon id="Path-12" fill="#FBF2B1" points="49.6867485 35.2439305 58.4389923 34.1130893 58.4529311 50.237353 49.6867485 50.7059274"></polygon>
            <polygon id="Path-13" fill="#3E1E79" points="49.6867485 50.7059274 57.5977871 50.2714103 57.4228214 51.4960386 54.3462142 51.6766575"></polygon>
            <polygon id="Path-16" fill="#D01635" opacity="0.661783854" points="42.1199035 55.2446919 42.1199035 59.9345295 42.9405507 59.9345295 42.9405507 55.2446919"></polygon>
            <g id="Group-3" transform="translate(49.623727, 56.354890)">
                <polygon id="Path-16-Copy" fill="#1B1464" opacity="0.535063244" points="0 0 0 7.94614428 8.82920365 7.94614428 8.82920365 0"></polygon>
                <path d="M8.82920365,7.18721233 L0,7.18721233 L0,5.79613898 L8.82920365,5.79613898 L8.82920365,7.18721233 Z M8.82920365,7.41905788 L8.82920365,7.94614428 L0,7.94614428 L0,7.41905788 L8.82920365,7.41905788 Z M8.82920365,5.56429342 L0,5.56429342 L0,4.17322006 L8.82920365,4.17322006 L8.82920365,5.56429342 Z M8.82920365,3.9413745 L0,3.9413745 L0,2.55030114 L8.82920365,2.55030114 L8.82920365,3.9413745 Z M8.82920365,2.3184556 L0,2.3184556 L0,0.927382237 L8.82920365,0.927382237 L8.82920365,2.3184556 Z M8.82920365,0.695536677 L0,0.695536677 L0,0 L8.82920365,0 L8.82920365,0.695536677 Z" id="Combined-Shape" fill="#D01635" fill-rule="nonzero"></path>
                <rect id="Rectangle" fill="#FDB614" x="1.16612124" y="1.76580984" width="2.49883122" height="1.17720656"></rect>
            </g>
            <path d="M16.4466801,77.9722561 C17.3465113,76.2792007 26.0459993,77.4063453 16.5594554,78.2788265" id="Path-21" fill="#FCB832"></path>
            <path d="M12.1227688,79.7540726 C12.1227688,75.0599221 20.7201592,75.1238243 12.1654577,80.0511704" id="Path-18" fill="#FBB731"></path>
            <path d="M5.90714624,79.7540726 C5.90714624,75.0599221 14.5045367,75.1238243 5.94983519,80.0511704" id="Path-18-Copy-2" fill="#FBB731"></path>
            <path d="M24.3022377,79.2395802 C24.3022377,74.5454296 32.8996281,74.6093319 24.3449266,79.5366778" id="Path-18-Copy-3" fill="#FBB731"></path>
            <path d="M12.6632577,75.2067192 C12.9480674,72.296444 18.2281814,71.9145439 15.6094316,74.0123004 C14.8652571,74.6084234 13.7277202,74.9156496 12.7868645,75.3673242 L12.6632577,75.2067192 Z" id="Path-19" fill="#FBB731"></path>
            <path d="M29.59352,73.5164016 L29.413112,73.6777304 C28.6464571,73.6465815 26.826843,73.0301115 27.3451413,72.2785536 L27.8365981,72.8397273 C28.1076953,72.4466232 29.0078794,73.2908435 29.59352,73.5164016 Z" id="Path-20" fill="#D0021B"></path>
            <path d="M24.7405051,70.2238774 C24.1246225,71.2069236 18.8930564,70.1493386 24.6847466,70.0339189 L24.7405051,70.2238774 Z" id="Path-21" fill="#000000"></path>
            <path d="M27.4386414,69.3849454 C27.2447274,72.218692 22.0311834,71.8073874 27.4250143,69.2037439 L27.4386414,69.3849454 Z" id="Path-18" fill="#D0021B"></path>
            <path d="M31.1783142,69.6521681 C30.9844004,72.4859147 25.7708565,72.07461 31.1646871,69.4709665 L31.1783142,69.6521681 Z" id="Path-18-Copy-2" fill="#D0021B"></path>
            <path d="M33.4057157,71.2395824 C33.2118018,74.073329 27.998258,73.6620244 33.3920886,71.0583809 L33.4057157,71.2395824 Z" id="Path-18-Copy-3" fill="#D0021B"></path>
            <path d="M16.875567,69.2894294 C16.7188927,72.2387653 12.5065659,71.8106834 16.8645569,69.1008366 L16.875567,69.2894294 Z" id="Path-18-Copy-3" fill="#000099"></path>
            <path d="M26.8496715,72.0548764 C26.5566501,73.7993925 23.3373385,73.8010242 25.0128363,72.648191 C25.4889655,72.3205885 26.1918199,72.1844397 26.7813117,71.9525642 L26.8496715,72.0548764 Z" id="Path-19" fill="#D0021B"></path>
            <path d="M17.5677216,68.0135416 L17.3873139,68.1748705 C16.6206589,68.1437216 14.8010448,67.5272516 15.3193431,66.7756937 L15.8107999,67.3368675 C16.0818971,66.9437632 16.9820811,67.7879835 17.5677216,68.0135416 Z" id="Path-20" fill="#000000"></path>
            <path d="M9.83967429,66.3125692 C9.34206681,67.335714 5.11517888,66.2349899 9.79462387,66.1148623 L9.83967429,66.3125692 Z" id="Path-21" fill="#000099"></path>
            <path d="M13.9258276,65.3651404 C13.7319137,68.198887 8.51836981,67.7875823 13.9122005,65.1839389 L13.9258276,65.3651404 Z" id="Path-18" fill="#000099"></path>
            <path d="M7.15484095,69.0439109 C6.96092707,71.8776575 1.74738313,71.4663528 7.14121386,68.8627094 L7.15484095,69.0439109 Z" id="Path-18-Copy-2" fill="#000099"></path>
            <path d="M9.85297721,67.7195535 C9.65906332,70.5533001 4.44551938,70.1419955 9.83935011,67.538352 L9.85297721,67.7195535 Z" id="Path-18-Copy-3" fill="#000099"></path>
            <path d="M13.4592612,68.0821166 C13.1662398,69.8266329 9.94692821,69.8282645 11.6224261,68.6754314 C12.0985551,68.3478288 12.8014097,68.2116801 13.3909014,67.9798044 L13.4592612,68.0821166 Z" id="Path-19" fill="#000000"></path>
            <polygon id="Path-4" stroke="#D51234" stroke-width="5" fill="url(#linearGradient-5)" points="21.1870633 38.7831504 27.6557618 37.5568022 27.6557618 11.6125697 21.1870633 13.0227141"></polygon>
            <polygon id="Path-14" fill="#391E74" points="30.4248145 38.6605783 28.0671917 37.81791 20.7705914 39.2383604 23.3996171 39.8331864"></polygon>
        </g>
        <path d="M24,84.4607822 C24,79.7666318 32.5973904,79.8305339 24.0426889,84.7578799" id="Path-18-Copy-3" fill="#FBB731"></path>
        <path d="M25.9802443,74.1885928 C25.82357,77.1379285 21.6112432,76.7098468 25.9692342,74 L25.9802443,74.1885928 Z" id="Path-18-Copy-3" fill="#000099"></path>
        <rect id="Rectangle" stroke="#000000" stroke-width="2" x="22" y="9" width="57" height="82" rx="4"></rect>
    </g>
</svg>