<?xml version="1.0" encoding="UTF-8"?>
<svg width="68px" height="150px" viewBox="0 0 68 150" version="1.1" xmlns="http://www.w3.org/2000/svg" xmlns:xlink="http://www.w3.org/1999/xlink">
    <!-- Generator: Sketch 52.6 (67491) - http://www.bohemiancoding.com/sketch -->
    <title>sketches2</title>
    <desc>Created with Sketch.</desc>
    <defs>
        <path d="M0.254,31.907 C0.254,14.51 12.677,0.407 28,0.407 C43.322,0.407 55.746,14.51 55.746,31.907 C55.746,49.303 28,99.25 28,99.25 C28,99.25 0.254,49.303 0.254,31.907 Z" id="path-1"></path>
    </defs>
    <g id="sketches2" stroke="none" stroke-width="1" fill="none" fill-rule="evenodd">
        <g id="Group" transform="translate(6.000000, 30.000000)">
            <mask id="mask-2" fill="white">
                <use xlink:href="#path-1"></use>
            </mask>
            <use id="Mask" fill="#FFFFFF" xlink:href="#path-1"></use>
            <g mask="url(#mask-2)">
                <g transform="translate(19.000000, -1.000000)">
                    <path d="M11.795,45.333 C12.895,45.333 13.923,46.224 14.08,47.312 L16.475,63.948 C16.632,65.037 16.291,66.695 15.719,67.636 L10.041,76.948 C9.468,77.886 8.532,77.886 7.959,76.948 L2.282,67.636 C1.709,66.698 1.369,65.037 1.526,63.948 L3.92,47.312 C4.077,46.224 5.105,45.333 6.205,45.333 L11.795,45.333 Z" id="Shape" stroke="none" fill="#000000" fill-rule="evenodd"></path>
                    <path d="M8.832,47.471 C8.832,46.371 7.932,45.471 6.832,45.471 L6.204,45.471 C5.104,45.471 4.076,46.362 3.919,47.451 L1.525,64.086 C1.369,65.175 1.709,66.834 2.281,67.774 L7.79,76.811 C8.363,77.75 8.831,77.62 8.831,76.52 L8.832,47.471 Z" id="Shape" stroke="none" fill="#333333" fill-rule="evenodd"></path>
                    <circle id="Oval" stroke="none" fill="#000000" fill-rule="evenodd" cx="9" cy="78.741" r="1.088"></circle>
                    <circle id="Oval" stroke="none" fill="#FFFFFF" fill-rule="evenodd" cx="9" cy="61.67" r="1.629"></circle>
                    <path d="M9,61.67 L9,82.559" id="Shape" stroke="#FFFFFF" stroke-width="0.5" fill="none"></path>
                    <path d="M12.102,23.276 C13.202,23.276 14.206,24.17 14.331,25.263 L17.024,48.629 C17.149,49.723 16.352,50.616 15.253,50.616 L2.747,50.616 C1.647,50.616 0.85,49.72 0.976,48.629 L3.67,25.263 C3.796,24.17 4.799,23.276 5.899,23.276 L12.102,23.276 Z" id="Shape" stroke="none" fill="#000000" fill-rule="evenodd"></path>
                    <polygon id="Shape" stroke="none" fill="#000000" fill-rule="evenodd" points="14.883 29.903 3.118 29.903 3.118 1.407 9 0.407 14.883 1.407"></polygon>
                </g>
            </g>
        </g>
    </g>
</svg>