<?xml version="1.0" encoding="UTF-8"?>
<svg width="49px" height="70px" viewBox="0 0 49 70" version="1.1" xmlns="http://www.w3.org/2000/svg" xmlns:xlink="http://www.w3.org/1999/xlink">
    <!-- Generator: Sketch 50.2 (55047) - http://www.bohemiancoding.com/sketch -->
    <title>spread</title>
    <desc>Created with Sketch.</desc>
    <defs></defs>
    <g id="Page-1" stroke="none" stroke-width="1" fill="none" fill-rule="evenodd">
        <g id="spread">
            <path d="M48.6307692,65.7427419 C48.6307692,67.9696966 46.9087875,69.775 44.7846154,69.775 L4.65615385,69.775 C2.53198173,69.775 0.81,67.9696966 0.81,65.7427419 L0.81,4.04919355 C0.81,1.82223891 2.53198173,0.0169354839 4.65615385,0.0169354839 L30.4576923,0.0169354839 L48.6307692,19.5314516 L48.6307692,65.7427419 Z" id="Shape" fill="#23A566" fill-rule="nonzero"></path>
            <polygon id="Shape" fill="#1C8F5A" fill-rule="nonzero" points="32.4607692 19.0362903 48.6307692 35.2322581 48.5830769 19.5064516"></polygon>
            <path d="M48.6307692,19.5056452 L34.2715385,19.5056452 C32.1473663,19.5056452 30.4253846,17.7003417 30.4253846,15.4733871 L30.4253846,0 L48.6307692,19.5056452 Z" id="Shape" fill="#8ED1B1" fill-rule="nonzero"></path>
            <path d="M13.8869231,41.5491935 L36.0661538,41.5491935 L36.0661538,43.9685484 L13.8869231,43.9685484 L13.8869231,41.5491935 Z M13.8869231,47.7322581 L36.0661538,47.7322581 L36.0661538,50.1516129 L13.8869231,50.1516129 L13.8869231,47.7322581 Z" id="Shape" fill="#FFFFFF"></path>
            <path d="M37.1561538,56.8717742 L12.2846154,56.8717742 L12.2846154,34.291129 L37.1561538,34.291129 L37.1561538,56.8717742 Z M15.3615385,37.5169355 L15.3615385,53.6459677 L34.0792308,53.6459677 L34.0792308,37.5169355 L15.3615385,37.5169355 Z" id="Shape" fill="#FFFFFF"></path>
            <polygon id="Shape" fill="#FFFFFF" points="23.1815385 36.0387097 26.2584615 36.0387097 26.2584615 55.258871 23.1815385 55.258871"></polygon>
        </g>
    </g>
</svg>