<?xml version="1.0" encoding="UTF-8"?>
<svg width="82px" height="82px" viewBox="0 0 82 82" version="1.1" xmlns="http://www.w3.org/2000/svg" xmlns:xlink="http://www.w3.org/1999/xlink">
    <!-- Generator: Sketch 52.6 (67491) - http://www.bohemiancoding.com/sketch -->
    <title>Artboard</title>
    <desc>Created with Sketch.</desc>
    <g id="Artboard" stroke="none" stroke-width="1" fill="none" fill-rule="evenodd">
        <g id="sql-svgrepo-com" transform="translate(2.000000, 2.000000)">
            <circle id="Oval" fill="#D7DABA" cx="38.9944051" cy="38.9944051" r="38.9944051"></circle>
            <path d="M23.7616962,15.433962 C22.3091519,15.433962 21.1319114,16.6112025 21.1319114,18.0637468 L21.1319114,60.1503418 C21.1319114,61.6028861 22.3091519,62.7801266 23.7616962,62.7801266 L54.0108861,62.7801266 C55.4634304,62.7801266 56.6406709,61.6028861 56.6406709,60.1503418 L56.6406709,27.614962 L43.961557,15.433962 L23.7616962,15.433962 Z" id="Path" fill="#A53460"></path>
            <g id="Group" transform="translate(15.139241, 15.303797)" fill="#8E2852">
                <path d="M41.5014304,12.3111646 L31.4525949,12.3111646 C30.0000506,12.3111646 28.8228101,11.1339241 28.8228101,9.68137975 L28.8228101,0.130164557 L41.5014304,12.3111646 Z" id="Path"></path>
                <path d="M28.2982025,29.4181772 C28.2982025,31.0948481 26.9392911,32.4537595 25.2639367,32.4537595 L3.10617722,32.4537595 C1.42950633,32.4537595 0.0719113924,31.0948481 0.0719113924,29.4181772 L0.0719113924,20.1452278 C0.0719113924,18.468557 1.42967089,17.1103038 3.10617722,17.1103038 L25.2639367,17.1103038 C26.9392911,17.1103038 28.2982025,18.468557 28.2982025,20.1452278 L28.2982025,29.4181772 Z" id="Path"></path>
            </g>
            <g id="Group" transform="translate(20.734177, 37.189873)" fill="#FFFFFF">
                <path d="M4.90610127,4.44534177 C4.90610127,4.81855696 4.81,5.15408861 4.61796203,5.45144304 C4.42526582,5.74879747 4.14387342,5.98164557 3.77378481,6.15031646 C3.4036962,6.31898734 2.96465823,6.40274684 2.45617722,6.40274684 C1.8471519,6.40274684 1.34475949,6.28755696 0.949493671,6.05734177 C0.668759494,5.89163291 0.440848101,5.67063291 0.266088608,5.39417722 C0.0906708861,5.11772152 0.00263291139,4.84932911 0.00263291139,4.58817722 C0.00263291139,4.43678481 0.0556202532,4.30678481 0.160278481,4.199 C0.266253165,4.09121519 0.399873418,4.03707595 0.562291139,4.03707595 C0.694101266,4.03707595 0.806164557,4.07887342 0.897329114,4.16329114 C0.987835443,4.24770886 1.066,4.37194937 1.13067089,4.53765823 C1.20949367,4.73413924 1.29440506,4.89787342 1.38556962,5.03017722 C1.47607595,5.16198734 1.60475949,5.27092405 1.77046835,5.35649367 C1.93617722,5.44206329 2.15339241,5.48451899 2.42310127,5.48451899 C2.7938481,5.48451899 3.09482278,5.39829114 3.3256962,5.22583544 C3.55788608,5.05337975 3.67291139,4.83797468 3.67291139,4.57994937 C3.67291139,4.37491139 3.61005063,4.20870886 3.4851519,4.08117722 C3.36074684,3.9531519 3.19882278,3.85589873 3.0018481,3.78875949 C2.80355696,3.72162025 2.53944304,3.6495443 2.20818987,3.5738481 C1.76487342,3.47034177 1.39412658,3.34856962 1.0943038,3.21001266 C0.796291139,3.07079747 0.558670886,2.88188608 0.383746835,2.64163291 C0.208329114,2.4015443 0.120291139,2.10353165 0.120291139,1.74693671 C0.120291139,1.40762025 0.212607595,1.10532911 0.398063291,0.841873418 C0.58335443,0.578417722 0.851253165,0.375189873 1.20225316,0.233506329 C1.55325316,0.0918227848 1.96513924,0.0210632911 2.43988608,0.0210632911 C2.81853165,0.0210632911 3.14616456,0.0677974684 3.42327848,0.162088608 C3.69907595,0.25621519 3.92879747,0.380620253 4.11112658,0.536455696 C4.2934557,0.692291139 4.42707595,0.856025316 4.51067089,1.02650633 C4.59443038,1.19698734 4.63688608,1.36450633 4.63688608,1.52708861 C4.63688608,1.67601266 4.58455696,1.80963291 4.47858228,1.92910127 C4.37392405,2.04856962 4.24211392,2.1083038 4.08512658,2.1083038 C3.94229114,2.1083038 3.83335443,2.07259494 3.75946835,2.00117722 C3.68492405,1.92975949 3.60429114,1.81210127 3.51691139,1.64951899 C3.40418987,1.41683544 3.27007595,1.23516456 3.11292405,1.10467089 C2.95593671,0.974177215 2.70350633,0.908848101 2.35563291,0.908848101 C2.03293671,0.908848101 1.77310127,0.979607595 1.57431646,1.12129114 C1.37734177,1.26297468 1.27811392,1.4334557 1.27811392,1.63289873 C1.27811392,1.75664557 1.31201266,1.86311392 1.3791519,1.95312658 C1.44629114,2.04297468 1.53926582,2.11998734 1.65692405,2.18465823 C1.77458228,2.24932911 1.89405063,2.2998481 2.01467089,2.33605063 C2.13529114,2.37241772 2.33489873,2.42589873 2.61250633,2.49616456 C2.96037975,2.5774557 3.27501266,2.6673038 3.55772152,2.76587342 C3.83911392,2.86444304 4.07986076,2.98325316 4.27683544,3.12362025 C4.47512658,3.26398734 4.62898734,3.44137975 4.73989873,3.65629114 C4.8513038,3.87087342 4.90610127,4.13449367 4.90610127,4.44534177 Z" id="Path"></path>
                <path d="M10.9298734,5.53158228 C11.1122025,5.65532911 11.3116456,5.7754557 11.5277089,5.89113924 C11.7437722,6.00682278 11.8866076,6.09979747 11.9568734,6.16891139 C12.0271392,6.23786076 12.0621899,6.33511392 12.0621899,6.46132911 C12.0621899,6.55117722 12.0208861,6.64118987 11.9377848,6.73103797 C11.8553418,6.82088608 11.754962,6.86581013 11.6373038,6.86581013 C11.5418608,6.86581013 11.4261772,6.83503797 11.2900886,6.77349367 C11.154,6.71194937 10.9945443,6.62193671 10.8104051,6.50378481 C10.6269241,6.38612658 10.4255063,6.24822785 10.2069747,6.09124051 C9.80002532,6.29874684 9.30059494,6.40274684 8.70835443,6.40274684 C8.22867089,6.40274684 7.79835443,6.32639241 7.41773418,6.17302532 C7.03777215,6.01965823 6.71820253,5.79981013 6.46034177,5.51232911 C6.20248101,5.2248481 6.00846835,4.88306329 5.87731646,4.48713924 C5.74731646,4.09121519 5.6821519,3.66089873 5.6821519,3.19470886 C5.6821519,2.72062025 5.74994937,2.28520253 5.88603797,1.88993671 C6.02278481,1.49401266 6.21975949,1.15782278 6.47778481,0.879556962 C6.73581013,0.601291139 7.05044304,0.389506329 7.42053165,0.241734177 C7.79062025,0.0939620253 8.21172152,0.0207341772 8.68334177,0.0207341772 C9.32313924,0.0207341772 9.87292405,0.150734177 10.3310506,0.409911392 C10.7903291,0.669088608 11.1377089,1.03851899 11.3728608,1.51705063 C11.6080127,1.99558228 11.7263291,2.55705063 11.7263291,3.20293671 C11.7253418,4.18303797 11.4600759,4.95892405 10.9298734,5.53158228 Z M9.94894937,4.84982278 C10.122557,4.65037975 10.2512405,4.41456962 10.3343418,4.14288608 C10.4167848,3.87070886 10.4580886,3.55492405 10.4580886,3.19586076 C10.4580886,2.74398734 10.3853544,2.35234177 10.239557,2.02158228 C10.0937595,1.69082278 9.88543038,1.44036709 9.61391139,1.27037975 C9.3435443,1.10039241 9.0326962,1.01548101 8.6816962,1.01548101 C8.43239241,1.01548101 8.20135443,1.06221519 7.98907595,1.15650633 C7.77729114,1.25063291 7.59496203,1.38737975 7.44175949,1.56724051 C7.28905063,1.74710127 7.16892405,1.97616456 7.07973418,2.25558228 C6.9916962,2.53516456 6.94743038,2.84848101 6.94743038,3.19635443 C6.94743038,3.90625316 7.11313924,4.45307595 7.44439241,4.836 C7.77564557,5.21892405 8.19378481,5.41046835 8.69864557,5.41046835 C8.9061519,5.41046835 9.11974684,5.3666962 9.33844304,5.27997468 C9.20663291,5.18140506 9.04158228,5.08349367 8.84394937,4.98508861 C8.64565823,4.88651899 8.51022785,4.81082278 8.43749367,4.75783544 C8.36475949,4.7048481 8.32789873,4.6291519 8.32789873,4.53058228 C8.32789873,4.44616456 8.36294937,4.37227848 8.43321519,4.30760759 C8.50348101,4.24293671 8.58032911,4.21101266 8.66474684,4.21101266 C8.92079747,4.21018987 9.34798734,4.42312658 9.94894937,4.84982278 Z" id="Shape" fill-rule="nonzero"></path>
                <path d="M14.0189367,0.779341772 L14.0189367,5.27043038 L16.5526203,5.27043038 C16.7545316,5.27043038 16.9097089,5.31963291 17.0181519,5.4175443 C17.1259367,5.51611392 17.1800759,5.63920253 17.1800759,5.78829114 C17.1800759,5.93968354 17.1264304,6.06227848 17.019962,6.15656962 C16.9134937,6.2506962 16.7576582,6.29759494 16.5526203,6.29759494 L13.5349747,6.29759494 C13.2627975,6.29759494 13.0669747,6.23720253 12.9475063,6.11658228 C12.8286962,5.99596203 12.768962,5.80063291 12.768962,5.53158228 L12.768962,0.779341772 C12.768962,0.526911392 12.8262278,0.337177215 12.9389494,0.210962025 C13.053481,0.0847468354 13.2024051,0.0213924051 13.3878608,0.0213924051 C13.5762785,0.0213924051 13.7283291,0.0842531646 13.8446709,0.208493671 C13.9611772,0.334050633 14.0189367,0.524443038 14.0189367,0.779341772 Z" id="Path"></path>
            </g>
        </g>
    </g>
</svg>