<?xml version="1.0" encoding="UTF-8"?>
<svg width="100px" height="100px" viewBox="0 0 100 100" version="1.1" xmlns="http://www.w3.org/2000/svg" xmlns:xlink="http://www.w3.org/1999/xlink">
    <!-- Generator: Sketch 52.6 (67491) - http://www.bohemiancoding.com/sketch -->
    <title>suburb</title>
    <desc>Created with Sketch.</desc>
    <defs>
        <linearGradient x1="-34.7625732%" y1="11.3792067%" x2="63.5559082%" y2="70.5228365%" id="linearGradient-1">
            <stop stop-color="#69FFB4" offset="0%"></stop>
            <stop stop-color="#FF69B4" offset="100%"></stop>
        </linearGradient>
        <linearGradient x1="9.48914367%" y1="-16.6992188%" x2="59.8036729%" y2="78.9930556%" id="linearGradient-2">
            <stop stop-color="#69FFB4" offset="0%"></stop>
            <stop stop-color="#FF69B4" offset="100%"></stop>
        </linearGradient>
    </defs>
    <g id="suburb" stroke="none" stroke-width="1" fill="none" fill-rule="evenodd">
        <g id="Group" transform="translate(12.000000, 16.000000)">
            <path d="M56.3076068,59.2576819 L56.3076068,55.4405031 L70,55.4405031 L70,59.2576819 L56.3076068,59.2576819 Z M47.4979007,59.2576819 L6,59.2576819 L6,55.4405031 L47.4979007,55.4405031 L47.4979007,59.2576819 Z M56.3076068,67 L56.3076068,63.0748607 L70,63.0748607 L70,67 L56.3076068,67 Z M47.4979007,67 L6,67 L6,63.0748607 L47.4979007,63.0748607 L47.4979007,67 Z M56.3076068,51.6233243 L56.3076068,47.8061455 L70,47.8061455 L70,51.6233243 L56.3076068,51.6233243 Z M47.4979007,51.6233243 L6,51.6233243 L6,47.8061455 L47.4979007,47.8061455 L47.4979007,51.6233243 Z M70,43.9889667 L6,43.9889667 L6,40.171788 L70,40.171788 L70,43.9889667 Z M70,36.3546092 L6,36.3546092 L6,32.5374304 L70,32.5374304 L70,36.3546092 Z M70,28.7202516 L6,28.7202516 L6,26.8277907 L8.48072716,24.9030728 L67.5192728,24.9030728 L70,26.8277907 L70,28.7202516 Z M62.599394,21.085894 L13.400606,21.085894 L18.3204848,17.2687152 L57.6795152,17.2687152 L62.599394,21.085894 Z M47.8397576,9.63435759 L52.7596364,13.4515364 L23.2403636,13.4515364 L28.1602424,9.63435759 L47.8397576,9.63435759 Z M42.9198788,5.8171788 L33.0801212,5.8171788 L38,2 L42.9198788,5.8171788 Z" id="Combined-Shape" fill="url(#linearGradient-1)"></path>
            <polygon id="Triangle" fill="url(#linearGradient-2)" points="38.5 0 77 29 0 29"></polygon>
        </g>
    </g>
</svg>