<?xml version="1.0" encoding="UTF-8"?>
<svg width="135px" height="100px" viewBox="0 0 135 100" version="1.1" xmlns="http://www.w3.org/2000/svg" xmlns:xlink="http://www.w3.org/1999/xlink">
    <!-- Generator: Sketch 52.6 (67491) - http://www.bohemiancoding.com/sketch -->
    <title>suburban</title>
    <desc>Created with Sketch.</desc>
    <g id="suburban" stroke="none" stroke-width="1" fill="none" fill-rule="evenodd">
        <g id="cal" transform="translate(46.000000, 2.000000)" fill="#222222" fill-rule="nonzero">
            <path d="M-24.967033,27.9940421 C-24.967033,26.8858348 -23.9251918,25.9791667 -22.6522117,25.9791667 L68.6522117,25.9791667 C69.9257639,25.9791667 70.967033,26.8858348 70.967033,27.9940421 L70.967033,69.0059579 C70.967033,70.1136497 69.9257639,71.0208333 68.6522117,71.0208333 L-22.6522117,71.0208333 C-23.9251918,71.0208333 -24.967033,70.1136497 -24.967033,69.0059579 L-24.967033,27.9940421 Z" id="Shape" transform="translate(23.000000, 48.500000) rotate(-90.000000) translate(-23.000000, -48.500000) "></path>
        </g>
        <rect id="Rectangle" fill="#FFFFFF" x="48" y="5" width="42" height="85" rx="1"></rect>
        <circle id="Oval" stroke="#4A4A4A" stroke-width="0.5" cx="68.5" cy="94.5" r="2.5"></circle>
        <rect id="Rectangle" fill="#D0021B" x="51" y="11" width="35" height="19"></rect>
        <rect id="Rectangle-Copy" fill="#F8E71C" x="51" y="38" width="35" height="19"></rect>
        <rect id="Rectangle-Copy-2" fill="#BD10E0" x="51" y="65" width="35" height="19"></rect>
    </g>
</svg>