<?xml version="1.0" encoding="UTF-8"?>
<svg width="100px" height="100px" viewBox="0 0 100 100" version="1.1" xmlns="http://www.w3.org/2000/svg" xmlns:xlink="http://www.w3.org/1999/xlink">
    <!-- Generator: Sketch 52.6 (67491) - http://www.bohemiancoding.com/sketch -->
    <title>suburb</title>
    <desc>Created with Sketch.</desc>
    <defs>
        <linearGradient x1="0%" y1="0%" x2="101.999998%" y2="100.999999%" id="linearGradient-1">
            <stop stop-color="#3023AE" offset="0%"></stop>
            <stop stop-color="#C86DD7" offset="100%"></stop>
        </linearGradient>
    </defs>
    <g id="suburb" stroke="none" stroke-width="1" fill="none" fill-rule="evenodd">
        <g id="Group" transform="translate(12.000000, 18.000000)">
            <path d="M56.3076068,57.2576819 L56.3076068,53.4405031 L70,53.4405031 L70,57.2576819 L56.3076068,57.2576819 Z M47.4979007,57.2576819 L6,57.2576819 L6,53.4405031 L47.4979007,53.4405031 L47.4979007,57.2576819 Z M56.3076068,65 L56.3076068,61.0748607 L70,61.0748607 L70,65 L56.3076068,65 Z M47.4979007,65 L6,65 L6,61.0748607 L47.4979007,61.0748607 L47.4979007,65 Z M56.3076068,49.6233243 L56.3076068,45.8061455 L70,45.8061455 L70,49.6233243 L56.3076068,49.6233243 Z M47.4979007,49.6233243 L6,49.6233243 L6,45.8061455 L47.4979007,45.8061455 L47.4979007,49.6233243 Z M70,41.9889667 L6,41.9889667 L6,38.171788 L70,38.171788 L70,41.9889667 Z M70,34.3546092 L6,34.3546092 L6,30.5374304 L70,30.5374304 L70,34.3546092 Z M70,26.7202516 L6,26.7202516 L6,24.8277907 L8.48072716,22.9030728 L67.5192728,22.9030728 L70,24.8277907 L70,26.7202516 Z M62.599394,19.085894 L13.400606,19.085894 L18.3204848,15.2687152 L57.6795152,15.2687152 L62.599394,19.085894 Z M47.8397576,7.63435759 L52.7596364,11.4515364 L23.2403636,11.4515364 L28.1602424,7.63435759 L47.8397576,7.63435759 Z M42.9198788,3.8171788 L33.0801212,3.8171788 L38,0 L42.9198788,3.8171788 Z" id="Combined-Shape" fill="url(#linearGradient-1)"></path>
            <polygon id="Triangle" fill="#B464D2" points="38.5 0 77 27 0 27"></polygon>
        </g>
    </g>
</svg>