<?xml version="1.0" encoding="UTF-8"?>
<svg width="609px" height="286px" viewBox="0 0 609 286" version="1.1" xmlns="http://www.w3.org/2000/svg" xmlns:xlink="http://www.w3.org/1999/xlink">
    <!-- Generator: Sketch 52.6 (67491) - http://www.bohemiancoding.com/sketch -->
    <title>taj</title>
    <desc>Created with Sketch.</desc>
    <defs>
        <path d="M15,33 L15,40 L10,40 L10,33 C10,29.6862915 11.1192881,27 12.5,27 C13.8807119,27 15,29.6862915 15,33 Z" id="path-1"></path>
        <filter x="-40.0%" y="-15.4%" width="180.0%" height="130.8%" filterUnits="objectBoundingBox" id="filter-2">
            <feGaussianBlur stdDeviation="1.5" in="SourceAlpha" result="shadowBlurInner1"></feGaussianBlur>
            <feOffset dx="0" dy="1" in="shadowBlurInner1" result="shadowOffsetInner1"></feOffset>
            <feComposite in="shadowOffsetInner1" in2="SourceAlpha" operator="arithmetic" k2="-1" k3="1" result="shadowInnerInner1"></feComposite>
            <feColorMatrix values="0 0 0 0 0   0 0 0 0 0   0 0 0 0 0  0 0 0 0.5 0" type="matrix" in="shadowInnerInner1"></feColorMatrix>
        </filter>
        <path d="M27,33 L27,40 L22,40 L22,33 C22,29.6862915 23.1192881,27 24.5,27 C25.8807119,27 27,29.6862915 27,33 Z" id="path-3"></path>
        <filter x="-40.0%" y="-15.4%" width="180.0%" height="130.8%" filterUnits="objectBoundingBox" id="filter-4">
            <feGaussianBlur stdDeviation="1.5" in="SourceAlpha" result="shadowBlurInner1"></feGaussianBlur>
            <feOffset dx="0" dy="1" in="shadowBlurInner1" result="shadowOffsetInner1"></feOffset>
            <feComposite in="shadowOffsetInner1" in2="SourceAlpha" operator="arithmetic" k2="-1" k3="1" result="shadowInnerInner1"></feComposite>
            <feColorMatrix values="0 0 0 0 0   0 0 0 0 0   0 0 0 0 0  0 0 0 0.5 0" type="matrix" in="shadowInnerInner1"></feColorMatrix>
        </filter>
        <path d="M21,33 L21,40 L16,40 L16,33 C16,29.6862915 17.1192881,27 18.5,27 C19.8807119,27 21,29.6862915 21,33 Z" id="path-5"></path>
        <filter x="-40.0%" y="-15.4%" width="180.0%" height="130.8%" filterUnits="objectBoundingBox" id="filter-6">
            <feGaussianBlur stdDeviation="1.5" in="SourceAlpha" result="shadowBlurInner1"></feGaussianBlur>
            <feOffset dx="0" dy="1" in="shadowBlurInner1" result="shadowOffsetInner1"></feOffset>
            <feComposite in="shadowOffsetInner1" in2="SourceAlpha" operator="arithmetic" k2="-1" k3="1" result="shadowInnerInner1"></feComposite>
            <feColorMatrix values="0 0 0 0 0   0 0 0 0 0   0 0 0 0 0  0 0 0 0.5 0" type="matrix" in="shadowInnerInner1"></feColorMatrix>
        </filter>
        <path d="M587,33 L587,40 L582,40 L582,33 C582,29.6862915 583.119288,27 584.5,27 C585.880712,27 587,29.6862915 587,33 Z" id="path-7"></path>
        <filter x="-40.0%" y="-15.4%" width="180.0%" height="130.8%" filterUnits="objectBoundingBox" id="filter-8">
            <feGaussianBlur stdDeviation="1.5" in="SourceAlpha" result="shadowBlurInner1"></feGaussianBlur>
            <feOffset dx="0" dy="1" in="shadowBlurInner1" result="shadowOffsetInner1"></feOffset>
            <feComposite in="shadowOffsetInner1" in2="SourceAlpha" operator="arithmetic" k2="-1" k3="1" result="shadowInnerInner1"></feComposite>
            <feColorMatrix values="0 0 0 0 0   0 0 0 0 0   0 0 0 0 0  0 0 0 0.5 0" type="matrix" in="shadowInnerInner1"></feColorMatrix>
        </filter>
        <path d="M599,33 L599,40 L594,40 L594,33 C594,29.6862915 595.119288,27 596.5,27 C597.880712,27 599,29.6862915 599,33 Z" id="path-9"></path>
        <filter x="-40.0%" y="-15.4%" width="180.0%" height="130.8%" filterUnits="objectBoundingBox" id="filter-10">
            <feGaussianBlur stdDeviation="1.5" in="SourceAlpha" result="shadowBlurInner1"></feGaussianBlur>
            <feOffset dx="0" dy="1" in="shadowBlurInner1" result="shadowOffsetInner1"></feOffset>
            <feComposite in="shadowOffsetInner1" in2="SourceAlpha" operator="arithmetic" k2="-1" k3="1" result="shadowInnerInner1"></feComposite>
            <feColorMatrix values="0 0 0 0 0   0 0 0 0 0   0 0 0 0 0  0 0 0 0.5 0" type="matrix" in="shadowInnerInner1"></feColorMatrix>
        </filter>
        <path d="M593,33 L593,40 L588,40 L588,33 C588,29.6862915 589.119288,27 590.5,27 C591.880712,27 593,29.6862915 593,33 Z" id="path-11"></path>
        <filter x="-40.0%" y="-15.4%" width="180.0%" height="130.8%" filterUnits="objectBoundingBox" id="filter-12">
            <feGaussianBlur stdDeviation="1.5" in="SourceAlpha" result="shadowBlurInner1"></feGaussianBlur>
            <feOffset dx="0" dy="1" in="shadowBlurInner1" result="shadowOffsetInner1"></feOffset>
            <feComposite in="shadowOffsetInner1" in2="SourceAlpha" operator="arithmetic" k2="-1" k3="1" result="shadowInnerInner1"></feComposite>
            <feColorMatrix values="0 0 0 0 0   0 0 0 0 0   0 0 0 0 0  0 0 0 0.5 0" type="matrix" in="shadowInnerInner1"></feColorMatrix>
        </filter>
        <path d="M137,83.6153846 L137,89 L133,89 L133,83.6153846 C133,81.0663781 133.895431,79 135,79 C136.104569,79 137,81.0663781 137,83.6153846 Z" id="path-13"></path>
        <filter x="-50.0%" y="-20.0%" width="200.0%" height="140.0%" filterUnits="objectBoundingBox" id="filter-14">
            <feGaussianBlur stdDeviation="1.5" in="SourceAlpha" result="shadowBlurInner1"></feGaussianBlur>
            <feOffset dx="0" dy="1" in="shadowBlurInner1" result="shadowOffsetInner1"></feOffset>
            <feComposite in="shadowOffsetInner1" in2="SourceAlpha" operator="arithmetic" k2="-1" k3="1" result="shadowInnerInner1"></feComposite>
            <feColorMatrix values="0 0 0 0 0   0 0 0 0 0   0 0 0 0 0  0 0 0 0.5 0" type="matrix" in="shadowInnerInner1"></feColorMatrix>
        </filter>
        <path d="M127,83.6153846 L127,89 L123,89 L123,83.6153846 C123,81.0663781 123.895431,79 125,79 C126.104569,79 127,81.0663781 127,83.6153846 Z" id="path-15"></path>
        <filter x="-50.0%" y="-20.0%" width="200.0%" height="140.0%" filterUnits="objectBoundingBox" id="filter-16">
            <feGaussianBlur stdDeviation="1.5" in="SourceAlpha" result="shadowBlurInner1"></feGaussianBlur>
            <feOffset dx="0" dy="1" in="shadowBlurInner1" result="shadowOffsetInner1"></feOffset>
            <feComposite in="shadowOffsetInner1" in2="SourceAlpha" operator="arithmetic" k2="-1" k3="1" result="shadowInnerInner1"></feComposite>
            <feColorMatrix values="0 0 0 0 0   0 0 0 0 0   0 0 0 0 0  0 0 0 0.5 0" type="matrix" in="shadowInnerInner1"></feColorMatrix>
        </filter>
        <path d="M132,83.6153846 L132,89 L128,89 L128,83.6153846 C128,81.0663781 128.895431,79 130,79 C131.104569,79 132,81.0663781 132,83.6153846 Z" id="path-17"></path>
        <filter x="-50.0%" y="-20.0%" width="200.0%" height="140.0%" filterUnits="objectBoundingBox" id="filter-18">
            <feGaussianBlur stdDeviation="1.5" in="SourceAlpha" result="shadowBlurInner1"></feGaussianBlur>
            <feOffset dx="0" dy="1" in="shadowBlurInner1" result="shadowOffsetInner1"></feOffset>
            <feComposite in="shadowOffsetInner1" in2="SourceAlpha" operator="arithmetic" k2="-1" k3="1" result="shadowInnerInner1"></feComposite>
            <feColorMatrix values="0 0 0 0 0   0 0 0 0 0   0 0 0 0 0  0 0 0 0.5 0" type="matrix" in="shadowInnerInner1"></feColorMatrix>
        </filter>
        <path d="M486,84.6153846 L486,90 L482,90 L482,84.6153846 C482,82.0663781 482.895431,80 484,80 C485.104569,80 486,82.0663781 486,84.6153846 Z" id="path-19"></path>
        <filter x="-50.0%" y="-20.0%" width="200.0%" height="140.0%" filterUnits="objectBoundingBox" id="filter-20">
            <feGaussianBlur stdDeviation="1.5" in="SourceAlpha" result="shadowBlurInner1"></feGaussianBlur>
            <feOffset dx="0" dy="1" in="shadowBlurInner1" result="shadowOffsetInner1"></feOffset>
            <feComposite in="shadowOffsetInner1" in2="SourceAlpha" operator="arithmetic" k2="-1" k3="1" result="shadowInnerInner1"></feComposite>
            <feColorMatrix values="0 0 0 0 0   0 0 0 0 0   0 0 0 0 0  0 0 0 0.5 0" type="matrix" in="shadowInnerInner1"></feColorMatrix>
        </filter>
        <path d="M476,84.6153846 L476,90 L472,90 L472,84.6153846 C472,82.0663781 472.895431,80 474,80 C475.104569,80 476,82.0663781 476,84.6153846 Z" id="path-21"></path>
        <filter x="-50.0%" y="-20.0%" width="200.0%" height="140.0%" filterUnits="objectBoundingBox" id="filter-22">
            <feGaussianBlur stdDeviation="1.5" in="SourceAlpha" result="shadowBlurInner1"></feGaussianBlur>
            <feOffset dx="0" dy="1" in="shadowBlurInner1" result="shadowOffsetInner1"></feOffset>
            <feComposite in="shadowOffsetInner1" in2="SourceAlpha" operator="arithmetic" k2="-1" k3="1" result="shadowInnerInner1"></feComposite>
            <feColorMatrix values="0 0 0 0 0   0 0 0 0 0   0 0 0 0 0  0 0 0 0.5 0" type="matrix" in="shadowInnerInner1"></feColorMatrix>
        </filter>
        <path d="M481,84.6153846 L481,90 L477,90 L477,84.6153846 C477,82.0663781 477.895431,80 479,80 C480.104569,80 481,82.0663781 481,84.6153846 Z" id="path-23"></path>
        <filter x="-50.0%" y="-20.0%" width="200.0%" height="140.0%" filterUnits="objectBoundingBox" id="filter-24">
            <feGaussianBlur stdDeviation="1.5" in="SourceAlpha" result="shadowBlurInner1"></feGaussianBlur>
            <feOffset dx="0" dy="1" in="shadowBlurInner1" result="shadowOffsetInner1"></feOffset>
            <feComposite in="shadowOffsetInner1" in2="SourceAlpha" operator="arithmetic" k2="-1" k3="1" result="shadowInnerInner1"></feComposite>
            <feColorMatrix values="0 0 0 0 0   0 0 0 0 0   0 0 0 0 0  0 0 0 0.5 0" type="matrix" in="shadowInnerInner1"></feColorMatrix>
        </filter>
        <path d="M230,168 L230,192 L196,192 L196,168 C196,156.40202 203.611159,147 213,147 C222.388841,147 230,156.40202 230,168 Z" id="path-25"></path>
        <filter x="-30.9%" y="-23.3%" width="161.8%" height="146.7%" filterUnits="objectBoundingBox" id="filter-26">
            <feGaussianBlur stdDeviation="4" in="SourceAlpha" result="shadowBlurInner1"></feGaussianBlur>
            <feOffset dx="-13" dy="3" in="shadowBlurInner1" result="shadowOffsetInner1"></feOffset>
            <feComposite in="shadowOffsetInner1" in2="SourceAlpha" operator="arithmetic" k2="-1" k3="1" result="shadowInnerInner1"></feComposite>
            <feColorMatrix values="0 0 0 0 0   0 0 0 0 0   0 0 0 0 0  0 0 0 0.5 0" type="matrix" in="shadowInnerInner1"></feColorMatrix>
        </filter>
        <path d="M237,117 L237,124 L229,124 L229,117 C229,113.134007 230.790861,110 233,110 C235.209139,110 237,113.134007 237,117 Z" id="path-27"></path>
        <filter x="-131.2%" y="-75.0%" width="362.5%" height="250.0%" filterUnits="objectBoundingBox" id="filter-28">
            <feGaussianBlur stdDeviation="4" in="SourceAlpha" result="shadowBlurInner1"></feGaussianBlur>
            <feOffset dx="-13" dy="3" in="shadowBlurInner1" result="shadowOffsetInner1"></feOffset>
            <feComposite in="shadowOffsetInner1" in2="SourceAlpha" operator="arithmetic" k2="-1" k3="1" result="shadowInnerInner1"></feComposite>
            <feColorMatrix values="0 0 0 0 0   0 0 0 0 0   0 0 0 0 0  0 0 0 0.5 0" type="matrix" in="shadowInnerInner1"></feColorMatrix>
        </filter>
        <path d="M223,117 L223,124 L215,124 L215,117 C215,113.134007 216.790861,110 219,110 C221.209139,110 223,113.134007 223,117 Z" id="path-29"></path>
        <filter x="-131.2%" y="-75.0%" width="362.5%" height="250.0%" filterUnits="objectBoundingBox" id="filter-30">
            <feGaussianBlur stdDeviation="4" in="SourceAlpha" result="shadowBlurInner1"></feGaussianBlur>
            <feOffset dx="-13" dy="3" in="shadowBlurInner1" result="shadowOffsetInner1"></feOffset>
            <feComposite in="shadowOffsetInner1" in2="SourceAlpha" operator="arithmetic" k2="-1" k3="1" result="shadowInnerInner1"></feComposite>
            <feColorMatrix values="0 0 0 0 0   0 0 0 0 0   0 0 0 0 0  0 0 0 0.5 0" type="matrix" in="shadowInnerInner1"></feColorMatrix>
        </filter>
        <path d="M209,117 L209,124 L201,124 L201,117 C201,113.134007 202.790861,110 205,110 C207.209139,110 209,113.134007 209,117 Z" id="path-31"></path>
        <filter x="-131.2%" y="-75.0%" width="362.5%" height="250.0%" filterUnits="objectBoundingBox" id="filter-32">
            <feGaussianBlur stdDeviation="4" in="SourceAlpha" result="shadowBlurInner1"></feGaussianBlur>
            <feOffset dx="-13" dy="3" in="shadowBlurInner1" result="shadowOffsetInner1"></feOffset>
            <feComposite in="shadowOffsetInner1" in2="SourceAlpha" operator="arithmetic" k2="-1" k3="1" result="shadowInnerInner1"></feComposite>
            <feColorMatrix values="0 0 0 0 0   0 0 0 0 0   0 0 0 0 0  0 0 0 0.5 0" type="matrix" in="shadowInnerInner1"></feColorMatrix>
        </filter>
        <path d="M230,218 L230,242 L196,242 L196,218 C196,206.40202 203.611159,197 213,197 C222.388841,197 230,206.40202 230,218 Z" id="path-33"></path>
        <filter x="-38.2%" y="-28.9%" width="176.5%" height="157.8%" filterUnits="objectBoundingBox" id="filter-34">
            <feGaussianBlur stdDeviation="4" in="SourceAlpha" result="shadowBlurInner1"></feGaussianBlur>
            <feOffset dx="-7" dy="18" in="shadowBlurInner1" result="shadowOffsetInner1"></feOffset>
            <feComposite in="shadowOffsetInner1" in2="SourceAlpha" operator="arithmetic" k2="-1" k3="1" result="shadowInnerInner1"></feComposite>
            <feColorMatrix values="0 0 0 0 0   0 0 0 0 0   0 0 0 0 0  0 0 0 0.5 0" type="matrix" in="shadowInnerInner1"></feColorMatrix>
        </filter>
        <path d="M186,170 L186,191 L164,194 L164,170 C164,158.40202 168.924868,149 175,149 C181.075132,149 186,158.40202 186,170 Z" id="path-35"></path>
        <filter x="-47.7%" y="-23.3%" width="195.5%" height="146.7%" filterUnits="objectBoundingBox" id="filter-36">
            <feGaussianBlur stdDeviation="4" in="SourceAlpha" result="shadowBlurInner1"></feGaussianBlur>
            <feOffset dx="-13" dy="3" in="shadowBlurInner1" result="shadowOffsetInner1"></feOffset>
            <feComposite in="shadowOffsetInner1" in2="SourceAlpha" operator="arithmetic" k2="-1" k3="1" result="shadowInnerInner1"></feComposite>
            <feColorMatrix values="0 0 0 0 0   0 0 0 0 0   0 0 0 0 0  0 0 0 0.5 0" type="matrix" in="shadowInnerInner1"></feColorMatrix>
        </filter>
        <path d="M186,222 L186,243 L164,246 L164,222 C164,210.40202 168.924868,201 175,201 C181.075132,201 186,210.40202 186,222 Z" id="path-37"></path>
        <filter x="-47.7%" y="-23.3%" width="195.5%" height="146.7%" filterUnits="objectBoundingBox" id="filter-38">
            <feGaussianBlur stdDeviation="4" in="SourceAlpha" result="shadowBlurInner1"></feGaussianBlur>
            <feOffset dx="-13" dy="3" in="shadowBlurInner1" result="shadowOffsetInner1"></feOffset>
            <feComposite in="shadowOffsetInner1" in2="SourceAlpha" operator="arithmetic" k2="-1" k3="1" result="shadowInnerInner1"></feComposite>
            <feColorMatrix values="0 0 0 0 0   0 0 0 0 0   0 0 0 0 0  0 0 0 0.5 0" type="matrix" in="shadowInnerInner1"></feColorMatrix>
        </filter>
        <path d="M416,167 L416,191 L382,191 L382,167 C382,155.40202 389.611159,146 399,146 C408.388841,146 416,155.40202 416,167 Z" id="path-39"></path>
        <filter x="-30.9%" y="-23.3%" width="161.8%" height="146.7%" filterUnits="objectBoundingBox" id="filter-40">
            <feGaussianBlur stdDeviation="4" in="SourceAlpha" result="shadowBlurInner1"></feGaussianBlur>
            <feOffset dx="-13" dy="3" in="shadowBlurInner1" result="shadowOffsetInner1"></feOffset>
            <feComposite in="shadowOffsetInner1" in2="SourceAlpha" operator="arithmetic" k2="-1" k3="1" result="shadowInnerInner1"></feComposite>
            <feColorMatrix values="0 0 0 0 0   0 0 0 0 0   0 0 0 0 0  0 0 0 0.5 0" type="matrix" in="shadowInnerInner1"></feColorMatrix>
        </filter>
        <path d="M383,116 L383,123 L375,123 L375,116 C375,112.134007 376.790861,109 379,109 C381.209139,109 383,112.134007 383,116 Z" id="path-41"></path>
        <filter x="-131.2%" y="-75.0%" width="362.5%" height="250.0%" filterUnits="objectBoundingBox" id="filter-42">
            <feGaussianBlur stdDeviation="4" in="SourceAlpha" result="shadowBlurInner1"></feGaussianBlur>
            <feOffset dx="-13" dy="3" in="shadowBlurInner1" result="shadowOffsetInner1"></feOffset>
            <feComposite in="shadowOffsetInner1" in2="SourceAlpha" operator="arithmetic" k2="-1" k3="1" result="shadowInnerInner1"></feComposite>
            <feColorMatrix values="0 0 0 0 0   0 0 0 0 0   0 0 0 0 0  0 0 0 0.5 0" type="matrix" in="shadowInnerInner1"></feColorMatrix>
        </filter>
        <path d="M397,116 L397,123 L389,123 L389,116 C389,112.134007 390.790861,109 393,109 C395.209139,109 397,112.134007 397,116 Z" id="path-43"></path>
        <filter x="-131.2%" y="-75.0%" width="362.5%" height="250.0%" filterUnits="objectBoundingBox" id="filter-44">
            <feGaussianBlur stdDeviation="4" in="SourceAlpha" result="shadowBlurInner1"></feGaussianBlur>
            <feOffset dx="-13" dy="3" in="shadowBlurInner1" result="shadowOffsetInner1"></feOffset>
            <feComposite in="shadowOffsetInner1" in2="SourceAlpha" operator="arithmetic" k2="-1" k3="1" result="shadowInnerInner1"></feComposite>
            <feColorMatrix values="0 0 0 0 0   0 0 0 0 0   0 0 0 0 0  0 0 0 0.5 0" type="matrix" in="shadowInnerInner1"></feColorMatrix>
        </filter>
        <path d="M411,116 L411,123 L403,123 L403,116 C403,112.134007 404.790861,109 407,109 C409.209139,109 411,112.134007 411,116 Z" id="path-45"></path>
        <filter x="-131.2%" y="-75.0%" width="362.5%" height="250.0%" filterUnits="objectBoundingBox" id="filter-46">
            <feGaussianBlur stdDeviation="4" in="SourceAlpha" result="shadowBlurInner1"></feGaussianBlur>
            <feOffset dx="-13" dy="3" in="shadowBlurInner1" result="shadowOffsetInner1"></feOffset>
            <feComposite in="shadowOffsetInner1" in2="SourceAlpha" operator="arithmetic" k2="-1" k3="1" result="shadowInnerInner1"></feComposite>
            <feColorMatrix values="0 0 0 0 0   0 0 0 0 0   0 0 0 0 0  0 0 0 0.5 0" type="matrix" in="shadowInnerInner1"></feColorMatrix>
        </filter>
        <path d="M416,217 L416,241 L382,241 L382,217 C382,205.40202 389.611159,196 399,196 C408.388841,196 416,205.40202 416,217 Z" id="path-47"></path>
        <filter x="-38.2%" y="-28.9%" width="176.5%" height="157.8%" filterUnits="objectBoundingBox" id="filter-48">
            <feGaussianBlur stdDeviation="4" in="SourceAlpha" result="shadowBlurInner1"></feGaussianBlur>
            <feOffset dx="-7" dy="18" in="shadowBlurInner1" result="shadowOffsetInner1"></feOffset>
            <feComposite in="shadowOffsetInner1" in2="SourceAlpha" operator="arithmetic" k2="-1" k3="1" result="shadowInnerInner1"></feComposite>
            <feColorMatrix values="0 0 0 0 0   0 0 0 0 0   0 0 0 0 0  0 0 0 0.5 0" type="matrix" in="shadowInnerInner1"></feColorMatrix>
        </filter>
        <path d="M448,169 L448,190 L426,193 L426,169 C426,157.40202 430.924868,148 437,148 C443.075132,148 448,157.40202 448,169 Z" id="path-49"></path>
        <filter x="-47.7%" y="-23.3%" width="195.5%" height="146.7%" filterUnits="objectBoundingBox" id="filter-50">
            <feGaussianBlur stdDeviation="4" in="SourceAlpha" result="shadowBlurInner1"></feGaussianBlur>
            <feOffset dx="-13" dy="3" in="shadowBlurInner1" result="shadowOffsetInner1"></feOffset>
            <feComposite in="shadowOffsetInner1" in2="SourceAlpha" operator="arithmetic" k2="-1" k3="1" result="shadowInnerInner1"></feComposite>
            <feColorMatrix values="0 0 0 0 0   0 0 0 0 0   0 0 0 0 0  0 0 0 0.5 0" type="matrix" in="shadowInnerInner1"></feColorMatrix>
        </filter>
        <path d="M448,221 L448,242 L426,245 L426,221 C426,209.40202 430.924868,200 437,200 C443.075132,200 448,209.40202 448,221 Z" id="path-51"></path>
        <filter x="-47.7%" y="-23.3%" width="195.5%" height="146.7%" filterUnits="objectBoundingBox" id="filter-52">
            <feGaussianBlur stdDeviation="4" in="SourceAlpha" result="shadowBlurInner1"></feGaussianBlur>
            <feOffset dx="-13" dy="3" in="shadowBlurInner1" result="shadowOffsetInner1"></feOffset>
            <feComposite in="shadowOffsetInner1" in2="SourceAlpha" operator="arithmetic" k2="-1" k3="1" result="shadowInnerInner1"></feComposite>
            <feColorMatrix values="0 0 0 0 0   0 0 0 0 0   0 0 0 0 0  0 0 0 0.5 0" type="matrix" in="shadowInnerInner1"></feColorMatrix>
        </filter>
        <path d="M341,189 L341,241 L269,241 L269,189 C269,164.147186 285.117749,144 305,144 C324.882251,144 341,164.147186 341,189 Z" id="path-53"></path>
        <filter x="-14.6%" y="-10.8%" width="129.2%" height="121.6%" filterUnits="objectBoundingBox" id="filter-54">
            <feGaussianBlur stdDeviation="4" in="SourceAlpha" result="shadowBlurInner1"></feGaussianBlur>
            <feOffset dx="0" dy="13" in="shadowBlurInner1" result="shadowOffsetInner1"></feOffset>
            <feComposite in="shadowOffsetInner1" in2="SourceAlpha" operator="arithmetic" k2="-1" k3="1" result="shadowInnerInner1"></feComposite>
            <feColorMatrix values="0 0 0 0 0   0 0 0 0 0   0 0 0 0 0  0 0 0 0.5 0" type="matrix" in="shadowInnerInner1"></feColorMatrix>
        </filter>
    </defs>
    <g id="taj" stroke="none" stroke-width="1" fill="none" fill-rule="evenodd">
        <g>
            <rect id="Rectangle" fill="#E9DED2" x="233" y="109" width="143" height="35"></rect>
            <path d="M304,220 C345.973641,220 382,174.109187 382,117.5 C382,60.8908131 345.973641,15 304,15 C262.026359,15 228,60.8908131 228,117.5 C228,174.109187 262.026359,220 304,220 Z" id="Oval" fill="#E6E0DF"></path>
            <polygon id="Polygon" fill="#F0E2DA" transform="translate(18.563932, 134.102641) rotate(-180.000000) translate(-18.563932, -134.102641) " points="18.5639319 23 34.1278638 23 28.1829708 245.205282 8.94489298 245.205282 3 23"></polygon>
            <rect id="Rectangle" fill="#D2C2BA" x="0" y="181" width="37" height="6"></rect>
            <rect id="Rectangle-Copy" fill="#B9A99F" x="3" y="118" width="31" height="6"></rect>
            <rect id="Rectangle-Copy-2" fill="#948C80" x="5" y="45" width="27" height="4"></rect>
            <path d="M9.00229935,23 C9.00076909,22.8337713 9,22.6670984 9,22.5 C9,10.0735931 13.2532949,-5.32907052e-15 18.5,-5.32907052e-15 C23.7467051,-5.32907052e-15 28,10.0735931 28,22.5 C28,22.6670984 27.9992309,22.8337713 27.9977006,23 L9.00229935,23 Z" id="Combined-Shape" fill="#F5F0EF"></path>
            <g id="Combined-Shape">
                <use fill="#848484" fill-rule="evenodd" xlink:href="#path-1"></use>
                <use fill="black" fill-opacity="1" filter="url(#filter-2)" xlink:href="#path-1"></use>
            </g>
            <g id="Combined-Shape-Copy-2">
                <use fill="#848484" fill-rule="evenodd" xlink:href="#path-3"></use>
                <use fill="black" fill-opacity="1" filter="url(#filter-4)" xlink:href="#path-3"></use>
            </g>
            <g id="Combined-Shape-Copy-3">
                <use fill="#848484" fill-rule="evenodd" xlink:href="#path-5"></use>
                <use fill="black" fill-opacity="1" filter="url(#filter-6)" xlink:href="#path-5"></use>
            </g>
            <rect id="Rectangle-Copy-3" fill="#948C80" x="5" y="20" width="27" height="3"></rect>
            <polygon id="Polygon" fill="#F0E2DA" transform="translate(590.563932, 134.102641) rotate(-180.000000) translate(-590.563932, -134.102641) " points="590.563932 23 606.127864 23 600.182971 245.205282 580.944893 245.205282 575 23"></polygon>
            <rect id="Rectangle" fill="#D2C2BA" x="572" y="181" width="37" height="6"></rect>
            <rect id="Rectangle-Copy" fill="#B9A99F" x="575" y="118" width="31" height="6"></rect>
            <rect id="Rectangle-Copy-2" fill="#948C80" x="577" y="45" width="27" height="4"></rect>
            <path d="M581.002299,23 C581.000769,22.8337713 581,22.6670984 581,22.5 C581,10.0735931 585.253295,-5.32907052e-15 590.5,-5.32907052e-15 C595.746705,-5.32907052e-15 600,10.0735931 600,22.5 C600,22.6670984 599.999231,22.8337713 599.997701,23 L581.002299,23 Z" id="Combined-Shape" fill="#F5F0EF"></path>
            <g id="Combined-Shape">
                <use fill="#848484" fill-rule="evenodd" xlink:href="#path-7"></use>
                <use fill="black" fill-opacity="1" filter="url(#filter-8)" xlink:href="#path-7"></use>
            </g>
            <g id="Combined-Shape-Copy-2">
                <use fill="#848484" fill-rule="evenodd" xlink:href="#path-9"></use>
                <use fill="black" fill-opacity="1" filter="url(#filter-10)" xlink:href="#path-9"></use>
            </g>
            <g id="Combined-Shape-Copy-3">
                <use fill="#848484" fill-rule="evenodd" xlink:href="#path-11"></use>
                <use fill="black" fill-opacity="1" filter="url(#filter-12)" xlink:href="#path-11"></use>
            </g>
            <rect id="Rectangle-Copy-3" fill="#948C80" x="577" y="20" width="27" height="3"></rect>
            <polygon id="Polygon" fill="#F0E2DA" transform="translate(130.000000, 160.500000) scale(-1, 1) rotate(-180.000000) translate(-130.000000, -160.500000) " points="130 76 142 76 137.416408 245 122.583592 245 118 76"></polygon>
            <rect id="Rectangle" fill="#D2C2BA" transform="translate(130.000000, 198.500000) scale(-1, 1) translate(-130.000000, -198.500000) " x="116" y="196" width="28" height="5"></rect>
            <rect id="Rectangle-Copy" fill="#B9A99F" transform="translate(130.500000, 150.500000) scale(-1, 1) translate(-130.500000, -150.500000) " x="119" y="148" width="23" height="5"></rect>
            <rect id="Rectangle-Copy-2" fill="#948C80" transform="translate(130.000000, 94.500000) scale(-1, 1) translate(-130.000000, -94.500000) " x="120" y="93" width="20" height="3"></rect>
            <path d="M123.001694,76 C123.000567,75.8771353 123,75.7539423 123,75.6304348 C123,66.4456993 126.134007,59 130,59 C133.865993,59 137,66.4456993 137,75.6304348 C137,75.7539423 136.999433,75.8771353 136.998306,76 L123.001694,76 Z" id="Combined-Shape" fill="#F5F0EF" transform="translate(130.000000, 67.500000) scale(-1, 1) translate(-130.000000, -67.500000) "></path>
            <g id="Combined-Shape" transform="translate(135.000000, 84.000000) scale(-1, 1) translate(-135.000000, -84.000000) ">
                <use fill="#848484" fill-rule="evenodd" xlink:href="#path-13"></use>
                <use fill="black" fill-opacity="1" filter="url(#filter-14)" xlink:href="#path-13"></use>
            </g>
            <g id="Combined-Shape-Copy-2" transform="translate(125.000000, 84.000000) scale(-1, 1) translate(-125.000000, -84.000000) ">
                <use fill="#848484" fill-rule="evenodd" xlink:href="#path-15"></use>
                <use fill="black" fill-opacity="1" filter="url(#filter-16)" xlink:href="#path-15"></use>
            </g>
            <g id="Combined-Shape-Copy-3" transform="translate(130.000000, 84.000000) scale(-1, 1) translate(-130.000000, -84.000000) ">
                <use fill="#848484" fill-rule="evenodd" xlink:href="#path-17"></use>
                <use fill="black" fill-opacity="1" filter="url(#filter-18)" xlink:href="#path-17"></use>
            </g>
            <rect id="Rectangle-Copy-3" fill="#948C80" transform="translate(130.000000, 75.000000) scale(-1, 1) translate(-130.000000, -75.000000) " x="120" y="74" width="20" height="2"></rect>
            <polygon id="Polygon" fill="#F0E2DA" transform="translate(479.000000, 161.500000) scale(-1, 1) rotate(-180.000000) translate(-479.000000, -161.500000) " points="479 77 491 77 486.416408 246 471.583592 246 467 77"></polygon>
            <rect id="Rectangle" fill="#D2C2BA" transform="translate(479.000000, 199.500000) scale(-1, 1) translate(-479.000000, -199.500000) " x="465" y="197" width="28" height="5"></rect>
            <rect id="Rectangle-Copy" fill="#B9A99F" transform="translate(479.500000, 151.500000) scale(-1, 1) translate(-479.500000, -151.500000) " x="468" y="149" width="23" height="5"></rect>
            <rect id="Rectangle-Copy-2" fill="#948C80" transform="translate(479.000000, 95.500000) scale(-1, 1) translate(-479.000000, -95.500000) " x="469" y="94" width="20" height="3"></rect>
            <path d="M472.001694,77 C472.000567,76.8771353 472,76.7539423 472,76.6304348 C472,67.4456993 475.134007,60 479,60 C482.865993,60 486,67.4456993 486,76.6304348 C486,76.7539423 485.999433,76.8771353 485.998306,77 L472.001694,77 Z" id="Combined-Shape" fill="#F5F0EF" transform="translate(479.000000, 68.500000) scale(-1, 1) translate(-479.000000, -68.500000) "></path>
            <g id="Combined-Shape" transform="translate(484.000000, 85.000000) scale(-1, 1) translate(-484.000000, -85.000000) ">
                <use fill="#848484" fill-rule="evenodd" xlink:href="#path-19"></use>
                <use fill="black" fill-opacity="1" filter="url(#filter-20)" xlink:href="#path-19"></use>
            </g>
            <g id="Combined-Shape-Copy-2" transform="translate(474.000000, 85.000000) scale(-1, 1) translate(-474.000000, -85.000000) ">
                <use fill="#848484" fill-rule="evenodd" xlink:href="#path-21"></use>
                <use fill="black" fill-opacity="1" filter="url(#filter-22)" xlink:href="#path-21"></use>
            </g>
            <g id="Combined-Shape-Copy-3" transform="translate(479.000000, 85.000000) scale(-1, 1) translate(-479.000000, -85.000000) ">
                <use fill="#848484" fill-rule="evenodd" xlink:href="#path-23"></use>
                <use fill="black" fill-opacity="1" filter="url(#filter-24)" xlink:href="#path-23"></use>
            </g>
            <rect id="Rectangle-Copy-3" fill="#948C80" transform="translate(479.000000, 76.000000) scale(-1, 1) translate(-479.000000, -76.000000) " x="469" y="75" width="20" height="2"></rect>
            <g id="Group-3" opacity="0.213681176" transform="translate(156.000000, 127.000000)"></g>
            <g id="Group-3-Copy" opacity="0.213681176" transform="translate(156.000000, 138.000000)"></g>
            <rect id="Rectangle" fill="#E9DED2" x="196" y="106" width="44" height="21"></rect>
            <path d="M157.5,134.623679 L157.5,275.5 L241.5,275.5 L241.5,128.5 L184.377496,128.5 L157.5,134.623679 Z" id="Rectangle-Copy-5" stroke="#D2C8BF" stroke-width="3" fill="#E9DED2"></path>
            <g id="Combined-Shape-Copy-2">
                <use fill="#848484" fill-rule="evenodd" xlink:href="#path-25"></use>
                <use fill="black" fill-opacity="1" filter="url(#filter-26)" xlink:href="#path-25"></use>
            </g>
            <g id="Combined-Shape-Copy-8">
                <use fill="#848484" fill-rule="evenodd" xlink:href="#path-27"></use>
                <use fill="black" fill-opacity="1" filter="url(#filter-28)" xlink:href="#path-27"></use>
            </g>
            <g id="Combined-Shape-Copy-9">
                <use fill="#848484" fill-rule="evenodd" xlink:href="#path-29"></use>
                <use fill="black" fill-opacity="1" filter="url(#filter-30)" xlink:href="#path-29"></use>
            </g>
            <g id="Combined-Shape-Copy-10">
                <use fill="#848484" fill-rule="evenodd" xlink:href="#path-31"></use>
                <use fill="black" fill-opacity="1" filter="url(#filter-32)" xlink:href="#path-31"></use>
            </g>
            <g id="Combined-Shape-Copy-4">
                <use fill="#848484" fill-rule="evenodd" xlink:href="#path-33"></use>
                <use fill="black" fill-opacity="1" filter="url(#filter-34)" xlink:href="#path-33"></use>
            </g>
            <rect id="Rectangle" fill="#D8D8D8" x="210" y="182" width="5" height="10"></rect>
            <rect id="Rectangle-Copy-4" fill="#D8D8D8" x="210" y="232" width="5" height="10"></rect>
            <path d="M199.005963,103 C199.001996,102.833841 199,102.667166 199,102.5 C199,91.7304474 207.282732,83 217.5,83 C227.717268,83 236,91.7304474 236,102.5 C236,102.667166 235.998004,102.833841 235.994037,103 L199.005963,103 Z" id="Combined-Shape" fill="#F5F0EF"></path>
            <rect id="Rectangle-Copy-2" fill="#948C80" x="194" y="102" width="46" height="6"></rect>
            <g id="Combined-Shape-Copy-5">
                <use fill="#848484" fill-rule="evenodd" xlink:href="#path-35"></use>
                <use fill="black" fill-opacity="1" filter="url(#filter-36)" xlink:href="#path-35"></use>
            </g>
            <g id="Combined-Shape-Copy-6">
                <use fill="#848484" fill-rule="evenodd" xlink:href="#path-37"></use>
                <use fill="black" fill-opacity="1" filter="url(#filter-38)" xlink:href="#path-37"></use>
            </g>
            <g id="Group-3" opacity="0.213681176" transform="translate(412.500000, 185.500000) scale(-1, 1) translate(-412.500000, -185.500000) translate(369.000000, 126.000000)"></g>
            <g id="Group-3-Copy" opacity="0.213681176" transform="translate(423.000000, 182.000000) scale(-1, 1) translate(-423.000000, -182.000000) translate(390.000000, 137.000000)"></g>
            <rect id="Rectangle" fill="#E9DED2" transform="translate(394.000000, 115.500000) scale(-1, 1) translate(-394.000000, -115.500000) " x="372" y="105" width="44" height="21"></rect>
            <path d="M370.5,132.351929 L370.5,243.5 L454.5,243.5 L454.5,127.5 L397.343254,127.5 L370.5,132.351929 Z" id="Rectangle-Copy-5" stroke="#D2C8BF" stroke-width="3" fill="#E9DED2" transform="translate(412.500000, 185.500000) scale(-1, 1) translate(-412.500000, -185.500000) "></path>
            <g id="Combined-Shape-Copy-2" transform="translate(399.000000, 168.500000) scale(-1, 1) translate(-399.000000, -168.500000) ">
                <use fill="#848484" fill-rule="evenodd" xlink:href="#path-39"></use>
                <use fill="black" fill-opacity="1" filter="url(#filter-40)" xlink:href="#path-39"></use>
            </g>
            <g id="Combined-Shape-Copy-8" transform="translate(379.000000, 116.000000) scale(-1, 1) translate(-379.000000, -116.000000) ">
                <use fill="#848484" fill-rule="evenodd" xlink:href="#path-41"></use>
                <use fill="black" fill-opacity="1" filter="url(#filter-42)" xlink:href="#path-41"></use>
            </g>
            <g id="Combined-Shape-Copy-9" transform="translate(393.000000, 116.000000) scale(-1, 1) translate(-393.000000, -116.000000) ">
                <use fill="#848484" fill-rule="evenodd" xlink:href="#path-43"></use>
                <use fill="black" fill-opacity="1" filter="url(#filter-44)" xlink:href="#path-43"></use>
            </g>
            <g id="Combined-Shape-Copy-10" transform="translate(407.000000, 116.000000) scale(-1, 1) translate(-407.000000, -116.000000) ">
                <use fill="#848484" fill-rule="evenodd" xlink:href="#path-45"></use>
                <use fill="black" fill-opacity="1" filter="url(#filter-46)" xlink:href="#path-45"></use>
            </g>
            <g id="Combined-Shape-Copy-4" transform="translate(399.000000, 218.500000) scale(-1, 1) translate(-399.000000, -218.500000) ">
                <use fill="#848484" fill-rule="evenodd" xlink:href="#path-47"></use>
                <use fill="black" fill-opacity="1" filter="url(#filter-48)" xlink:href="#path-47"></use>
            </g>
            <rect id="Rectangle" fill="#D8D8D8" transform="translate(399.500000, 186.000000) scale(-1, 1) translate(-399.500000, -186.000000) " x="397" y="181" width="5" height="10"></rect>
            <rect id="Rectangle-Copy-4" fill="#D8D8D8" transform="translate(399.500000, 236.000000) scale(-1, 1) translate(-399.500000, -236.000000) " x="397" y="231" width="5" height="10"></rect>
            <path d="M376.005963,102 C376.001996,101.833841 376,101.667166 376,101.5 C376,90.7304474 384.282732,82 394.5,82 C404.717268,82 413,90.7304474 413,101.5 C413,101.667166 412.998004,101.833841 412.994037,102 L376.005963,102 Z" id="Combined-Shape" fill="#F5F0EF" transform="translate(394.500000, 92.000000) scale(-1, 1) translate(-394.500000, -92.000000) "></path>
            <rect id="Rectangle-Copy-2" fill="#948C80" transform="translate(395.000000, 104.000000) scale(-1, 1) translate(-395.000000, -104.000000) " x="372" y="101" width="46" height="6"></rect>
            <g id="Combined-Shape-Copy-5" transform="translate(437.000000, 170.500000) scale(-1, 1) translate(-437.000000, -170.500000) ">
                <use fill="#848484" fill-rule="evenodd" xlink:href="#path-49"></use>
                <use fill="black" fill-opacity="1" filter="url(#filter-50)" xlink:href="#path-49"></use>
            </g>
            <g id="Combined-Shape-Copy-6" transform="translate(437.000000, 222.500000) scale(-1, 1) translate(-437.000000, -222.500000) ">
                <use fill="#848484" fill-rule="evenodd" xlink:href="#path-51"></use>
                <use fill="black" fill-opacity="1" filter="url(#filter-52)" xlink:href="#path-51"></use>
            </g>
            <rect id="Rectangle" fill="#E9DED2" x="243" y="109" width="126" height="134"></rect>
            <g id="Combined-Shape-Copy-2">
                <use fill="#848484" fill-rule="evenodd" xlink:href="#path-53"></use>
                <use fill="black" fill-opacity="1" filter="url(#filter-54)" xlink:href="#path-53"></use>
            </g>
            <rect id="Rectangle" stroke="#D2C8BF" stroke-width="4" x="257" y="129" width="97" height="127"></rect>
            <rect id="_BASE" fill="#F0E2DA" x="1" y="241" width="608" height="45"></rect>
        </g>
    </g>
</svg>