<?xml version="1.0" encoding="UTF-8"?>
<svg width="90px" height="90px" viewBox="0 0 90 90" version="1.1" xmlns="http://www.w3.org/2000/svg" xmlns:xlink="http://www.w3.org/1999/xlink">
    <!-- Generator: Sketch 52.6 (67491) - http://www.bohemiancoding.com/sketch -->
    <title>union</title>
    <desc>Created with Sketch.</desc>
    <g id="union" stroke="none" stroke-width="1" fill="none" fill-rule="evenodd">
        <g transform="translate(20.000000, 13.000000)" fill="#DB1F26" id="Group">
            <g transform="translate(25.500000, 31.500000) scale(-1, 1) translate(-25.500000, -31.500000) ">
                <g transform="translate(25.606742, 31.606742) rotate(-180.000000) translate(-25.606742, -31.606742) translate(0.438202, 0.932584)">
                    <path d="M50.3370787,46.4044944 L50.3370787,23.7829795 C50.3370787,5.16560383 34.3063094,-1.86596381 19.6629213,0.414898607 C24.7999811,1.78453871 29.5460031,5.39761937 29.5460031,15.2376977 L29.5460031,25.6110375 C29.5460031,35.3987251 32.4671813,44.7710301 50.3370787,46.4044944" id="Path"></path>
                    <path d="M0,61.3483146 L0,21.985532 C0,4.12940084 10.2794615,1.4513552 13.6304832,0.897792692 C17.1486069,0.318048174 21.6387964,2.04419072 23.5955056,5.12992767 C21.1428811,6.670926 20.9218754,11.8605745 20.9218754,17.9703337 L20.9218754,41.2667126 C20.9218754,56.300797 10.6837402,61.3483146 0,61.3483146" id="Path"></path>
                </g>
            </g>
        </g>
    </g>
</svg>