<?xml version="1.0" encoding="UTF-8"?>
<svg width="90px" height="90px" viewBox="0 0 90 90" version="1.1" xmlns="http://www.w3.org/2000/svg" xmlns:xlink="http://www.w3.org/1999/xlink">
    <!-- Generator: Sketch 52.6 (67491) - http://www.bohemiancoding.com/sketch -->
    <title>us_bank</title>
    <desc>Created with Sketch.</desc>
    <g id="us_bank" stroke="none" stroke-width="1" fill="none" fill-rule="evenodd">
        <g id="us-bank-2" transform="translate(8.000000, 36.000000)">
            <polygon id="Path" fill="#BF4956" points="0.549750731 0.0516266429 0.549750731 14.6426088 12.8865418 18.8600074 25.2523071 14.6426088 25.2523071 0.0516266429"></polygon>
            <path d="M12.8575677,14.1798498 L9.07271217,14.1798498 L9.07271217,12.879737 C8.32145312,13.9194961 7.25271987,14.4683498 5.7212276,14.4683498 C3.9012353,14.4683498 2.1673377,13.3420821 2.1673377,10.9728222 L2.1673377,3.92299075 L6.09665017,3.92299075 L6.09665017,9.35440739 C6.09665017,10.5104771 6.24110714,11.3478308 7.39717684,11.3478308 C8.03295309,11.3478308 8.9282552,11.0299427 8.9282552,9.35440739 L8.9282552,3.92299075 L12.8575677,3.92299075 L12.8575677,14.1798498 Z M20.1673389,6.92802693 C20.1093905,6.58116463 19.9939077,6.35019904 19.7049938,6.17676789 C19.4736143,5.94538838 19.1557261,5.82990558 18.8088638,5.82990558 C18.3179585,5.82990558 17.653208,5.97477648 17.653208,6.63911299 C17.653208,6.95700111 17.8841736,7.10145809 18.1155531,7.18838062 C18.7798897,7.47688065 20.2534336,7.53482901 21.5825205,7.9971741 C22.8246849,8.40198476 23.9803407,9.15282989 23.9803407,10.8287791 C23.9803407,13.6889444 21.2931926,14.4691777 18.7794757,14.4691777 C16.3526814,14.4691777 13.7234817,13.486953 13.6369731,10.8287791 L17.364708,10.8287791 C17.4226564,11.2046156 17.5671133,11.4931156 17.8845876,11.7534693 C18.0580187,11.8975124 18.4338552,12.0419694 18.9247605,12.0419694 C19.4160798,12.0419694 20.2538475,11.8689521 20.2538475,11.2617361 C20.2538475,10.655348 19.8784249,10.510891 18.0580187,10.1930029 C15.0823706,9.67312335 13.8683526,8.69048479 13.8683526,6.95700111 C13.8683526,4.35677559 16.6709834,3.69202516 18.7223552,3.69202516 C20.9757184,3.69202516 23.6338923,4.29882723 23.7208149,6.92802693 L20.1673389,6.92802693 Z" id="Shape" fill="#FFFFFF" fill-rule="nonzero"></path>
            <path d="M26.6103682,0.109161082 L30.5107065,0.109161082 L30.5107065,5.04967236 L30.5686549,5.04967236 C31.175457,4.2119047 32.2156299,3.69202516 33.3712857,3.69202516 C36.8096928,3.69202516 37.7629433,6.58075071 37.7629433,9.00837292 C37.7629433,11.5792103 36.3473477,14.4683498 33.4577944,14.4683498 C31.5512934,14.4683498 30.9444914,13.7175047 30.4241979,13.0817284 L30.3952237,13.0817284 L30.3952237,14.1794359 L26.6099543,14.1794359 L26.6099543,0.109161082 L26.6103682,0.109161082 Z M32.0997332,6.55219045 C30.7126979,6.55219045 30.3952237,7.85230321 30.3952237,9.06590736 C30.3952237,10.2795115 30.7131119,11.6375726 32.0997332,11.6375726 C33.5153288,11.6375726 33.8332169,10.2795115 33.8332169,9.06590736 C33.8332169,7.85230321 33.5157427,6.55219045 32.0997332,6.55219045 Z M48.6555786,11.8970985 C48.6555786,12.7063059 48.713113,13.5444875 49.1170959,14.1802637 L45.1592231,14.1802637 C45.0727145,13.91991 44.9862059,13.4865391 45.0143522,13.1980391 L44.9862059,13.1980391 C44.1480243,14.1802637 42.9344202,14.4687637 41.6636955,14.4687637 C39.6984184,14.4687637 38.0808314,13.4865391 38.0808314,11.3482448 C38.0808314,8.14163108 41.8661008,8.2281397 43.8595243,7.85271713 C44.3794038,7.76620851 44.9282575,7.62175154 44.9282575,6.95700111 C44.9282575,6.26369042 44.2928952,5.97477648 43.6281448,5.97477648 C42.4145406,5.97477648 42.183575,6.58116463 42.183575,7.04392365 L38.5431765,7.04392365 C38.6296851,4.15437026 41.3743676,3.69243908 43.8019898,3.69243908 C48.713113,3.69243908 48.6559925,5.71483671 48.6559925,7.70826016 L48.6559925,11.8970985 L48.6555786,11.8970985 Z M44.9278436,9.58661473 C44.4456694,9.82777566 43.9292738,9.99334614 43.3967653,10.0775201 C42.5010492,10.2795115 42.0387042,10.510891 42.0387042,11.2046156 C42.0387042,11.6669607 42.5594115,12.128478 43.2523083,12.128478 C44.1480243,12.128478 44.8417489,11.6375726 44.9282575,10.5398652 L44.9282575,9.58661473 L44.9278436,9.58661473 Z M50.0711741,3.92299075 L53.8270555,3.92299075 L53.8270555,5.22310351 L53.8845899,5.22310351 C54.635435,4.2119047 55.6470478,3.69202516 57.2364884,3.69202516 C59.0568946,3.69202516 60.732016,4.81870677 60.732016,7.15899252 L60.732016,14.1798498 L56.8320916,14.1798498 L56.8320916,8.83452785 C56.8320916,7.62133762 56.6872208,6.81213022 55.5605391,6.81213022 C54.8668145,6.81213022 53.9719263,7.15857861 53.9719263,8.77699341 L53.9719263,14.1798498 L50.0711741,14.1798498 L50.0711741,3.92299075 Z M62.1484394,0.109161082 L66.0479499,0.109161082 L66.0479499,6.92802693 L68.5331065,3.92299075 L72.9537382,3.92299075 L69.3133397,7.79476877 L73.502592,14.1798498 L68.7926324,14.1798498 L66.7416745,10.5104771 L66.0479499,11.2617361 L66.0479499,14.1798498 L62.1484394,14.1798498 L62.1484394,0.109161082 Z M75.294024,12.7928145 C75.4380671,12.9376854 75.4670412,13.1115305 75.4670412,13.342496 C75.4670412,13.5444875 75.4380671,13.7175047 75.294024,13.8623756 C75.0912047,14.064367 74.9471617,14.0937551 74.7161961,14.0937551 C74.542351,14.0937551 74.3403596,14.0647809 74.2244629,13.8623756 C74.0224715,13.7175047 73.9930834,13.5444875 73.9930834,13.342496 C73.9930834,13.1111165 74.0220576,12.9372715 74.2244629,12.7928145 C74.3693338,12.6487714 74.542351,12.5622628 74.7161961,12.5622628 C74.9471617,12.5622628 75.0912047,12.6487714 75.294024,12.7928145 Z M75.3805326,12.7063059 C75.2066875,12.5622628 74.9471617,12.4749264 74.7161961,12.4749264 C74.4852305,12.4749264 74.253851,12.5622628 74.1089801,12.7063059 C73.9359629,12.8801509 73.8494543,13.1115305 73.8494543,13.342496 C73.8494543,13.5730477 73.9359629,13.8040133 74.1089801,13.9488842 C74.253851,14.1508756 74.4848166,14.2373842 74.7161961,14.2373842 C74.9475756,14.2373842 75.2071015,14.1508756 75.3805326,13.9488842 C75.5254035,13.8040133 75.6119121,13.5730477 75.6119121,13.342496 C75.6102701,13.1101293 75.5285503,12.8854365 75.3805326,12.7063059 Z M74.8606531,13.3135219 L74.5419371,13.3135219 L74.5419371,12.9666596 L74.686808,12.9666596 C74.7733166,12.9666596 74.8606531,12.9666596 74.9181875,13.024194 C74.9471617,13.024194 74.9471617,13.0825563 74.9471617,13.1690649 C74.9471617,13.1976252 74.9181875,13.2551596 74.8606531,13.3135219 Z M74.3693338,13.8040133 L74.542351,13.8040133 L74.542351,13.457151 L74.6872219,13.457151 C74.7737305,13.457151 74.8320928,13.457151 74.861067,13.4861252 C74.9186014,13.4861252 74.9475756,13.5726338 74.9475756,13.6881166 L74.9475756,13.8035994 L75.149567,13.8035994 C75.0912047,13.8035994 75.0912047,13.775453 75.0912047,13.775453 L75.0912047,13.6305822 C75.0912047,13.5722199 75.0912047,13.5440735 75.0630584,13.4857113 C75.0046961,13.3992026 74.9475756,13.3992026 74.9181875,13.3992026 C74.9471617,13.3416682 75.0046961,13.3416682 75.0630584,13.312694 C75.0912047,13.312694 75.149567,13.1972112 75.149567,13.1107026 C75.149567,13.0233662 75.0912047,12.9368575 74.9475756,12.8793231 C74.9186014,12.8793231 74.8320928,12.8503489 74.7161961,12.8503489 L74.3693338,12.8503489 L74.3693338,13.8040133 Z" id="Shape" fill="#325390" fill-rule="nonzero"></path>
        </g>
    </g>
</svg>