<?xml version="1.0" encoding="UTF-8"?>
<svg width="67px" height="115px" viewBox="0 0 67 115" version="1.1" xmlns="http://www.w3.org/2000/svg" xmlns:xlink="http://www.w3.org/1999/xlink">
    <!-- Generator: Sketch 51.2 (57519) - http://www.bohemiancoding.com/sketch -->
    <title>usa</title>
    <desc>Created with Sketch.</desc>
    <defs></defs>
    <g id="usa" stroke="none" stroke-width="1" fill="none" fill-rule="evenodd">
        <g transform="translate(1.000000, 1.000000)">
            <path d="M0.294730714,36.37398 C0.294730714,16.5414 14.7098475,0.46398 32.49,0.46398 C50.2689921,0.46398 64.6852693,16.5414 64.6852693,36.37398 C64.6852693,56.20542 32.49,113.145 32.49,113.145 C32.49,113.145 0.294730714,56.20542 0.294730714,36.37398 Z" id="Shape" stroke="#1B1464" fill="#1B1464" fill-rule="nonzero"></path>
            <g id="Group" transform="translate(11.603571, 11.400000)">
                <g transform="translate(6.962143, 6.840000)" fill="#1B1464" fill-rule="nonzero" id="Oval">
                    <ellipse cx="13.9753414" cy="13.39272" rx="13.4972743" ry="13.26048"></ellipse>
                    <ellipse cx="13.9753414" cy="13.39386" rx="6.07563" ry="5.96904"></ellipse>
                    <ellipse cx="14.13315" cy="13.32318" rx="13.4972743" ry="13.26048"></ellipse>
                    <ellipse cx="13.9753414" cy="13.39386" rx="11.3645379" ry="11.16516"></ellipse>
                </g>
                <path d="M20.8168071,11.99166 C20.8574196,11.99166 20.9107961,11.99166 20.9618518,11.99166 C21.5118611,13.794 22.0502668,15.60888 22.6223229,17.39526 C24.4533664,17.39526 26.2820893,17.39526 28.1177743,17.39526 C28.1177743,17.43972 28.1177743,17.48988 28.1177743,17.53776 C26.5837821,18.59454 25.1286943,19.71516 23.6968136,20.87454 C24.20505,22.67802 24.8409257,24.35382 25.2946254,26.20404 C25.2424093,26.20404 25.1925139,26.20404 25.1426186,26.20404 C23.7873214,25.09026 22.3566011,24.06882 20.9525689,23.0052 C19.4139354,23.9799 18.0400725,25.1199 16.6174746,26.20404 C16.5722207,26.20404 16.5223254,26.20404 16.4747507,26.20404 C16.9829871,24.3846 17.5562036,22.62558 18.1329011,20.87454 C16.6754925,19.70718 15.1449814,18.60138 13.6516018,17.46252 C13.6516018,17.43858 13.6516018,17.41806 13.6516018,17.39526 C15.4849661,17.39526 17.3183304,17.39526 19.1458929,17.39526 C19.7341939,15.62256 20.3166932,13.85214 20.8168071,11.99166 Z" id="Shape" fill="#FFFFFF" fill-rule="nonzero"></path>
                <ellipse id="Oval" stroke="#FFFFFF" stroke-width="3.55" cx="20.8864286" cy="20.3889" rx="14.5624821" ry="14.307"></ellipse>
                <ellipse id="Oval" stroke="#FFFFFF" stroke-width="3.55" cx="20.8864286" cy="20.2635" rx="20.4269271" ry="20.06856"></ellipse>
                <ellipse id="Oval" stroke="#FF0000" stroke-width="3.75" cx="20.8864286" cy="20.26464" rx="17.5794107" ry="17.271"></ellipse>
            </g>
        </g>
    </g>
</svg>