<?xml version="1.0" encoding="UTF-8"?>
<svg width="89px" height="89px" viewBox="0 0 89 89" version="1.1" xmlns="http://www.w3.org/2000/svg" xmlns:xlink="http://www.w3.org/1999/xlink">
    <!-- Generator: Sketch 50.2 (55047) - http://www.bohemiancoding.com/sketch -->
    <title>vanguard</title>
    <desc>Created with Sketch.</desc>
    <defs></defs>
    <g id="Page-1" stroke="none" stroke-width="1" fill="none" fill-rule="evenodd">
        <g id="vanguard" fill="#971B1F">
            <g id="Group-3">
                <path d="M8,0 L81,0 C85.418278,-8.11624501e-16 89,3.581722 89,8 L89,81 C89,85.418278 85.418278,89 81,89 L8,89 C3.581722,89 5.41083001e-16,85.418278 0,81 L0,8 C-5.41083001e-16,3.581722 3.581722,8.11624501e-16 8,0 Z M21.9030305,24.68 C22.2121654,25.21307 23.0715335,25.36994 23.5229514,25.85 C24.3674702,26.74811 24.9579314,28.28846 25.5028548,29.81 C28.1922836,37.31951 30.7981064,44.48135 33.4224683,51.86 C34.5012457,54.893 35.5207159,57.88352 37.2922795,60.05 C39.6963321,62.98994 43.4263801,63.93071 47.4617832,65.45 C52.1190559,51.80699 56.8122368,38.20133 61.3211068,24.41 C58.161541,24.4433 54.6524322,24.36563 51.6015811,24.41 C51.2007407,24.41585 50.6563573,24.24818 50.3416426,24.59 C50.6905556,25.03631 51.1979508,25.24943 51.6015811,25.58 C52.0239305,25.92587 52.4281908,26.23448 52.6815284,26.75 C53.490319,28.39565 52.8697092,29.9414 52.321546,31.7 C50.2477772,38.35325 48.2150464,45.16625 46.111849,51.59 C45.9505769,52.08257 45.8909998,52.66784 45.4818798,53.03 C42.3944005,44.19146 39.3732479,34.88897 36.3023278,26.21 C36.1049674,25.65209 36.1156769,24.90473 35.5823629,24.5 C31.2925423,24.29003 26.6127707,24.47003 22.1730173,24.41 C22.0434237,24.4604 21.953428,24.5504 21.9030305,24.68" id="Fill-1"></path>
            </g>
        </g>
    </g>
</svg>