<?xml version="1.0" encoding="UTF-8"?>
<svg width="90px" height="90px" viewBox="0 0 90 90" version="1.1" xmlns="http://www.w3.org/2000/svg" xmlns:xlink="http://www.w3.org/1999/xlink">
    <!-- Generator: Sketch 52.6 (67491) - http://www.bohemiancoding.com/sketch -->
    <title>vanguard</title>
    <desc>Created with Sketch.</desc>
    <g id="vanguard" stroke="none" stroke-width="1" fill="none" fill-rule="evenodd">
        <g id="vanguard3" transform="translate(25.000000, 24.000000)" fill="#971B1F" fill-rule="nonzero">
            <path d="M0,0.320365995 C0.313698616,0.878404565 1.18575345,1.04262223 1.64383557,1.54516785 C2.50082189,2.4853446 3.09999999,4.09784336 3.65296802,5.69065107 C6.38210049,13.5519005 9.0263927,21.0491953 11.6894977,28.7734553 C12.7842009,31.9485186 13.8187214,35.0791122 15.6164384,37.3470683 C18.0559817,40.4247128 21.8410959,41.4095477 25.9360731,43 C30.6621005,28.7179624 35.4245662,14.4750242 40,0.037719412 C36.79379,0.0725791572 33.2328767,-0.00872884313 30.1369863,0.037719412 C29.7302283,0.0438434213 29.1778083,-0.131680107 28.8584475,0.226150467 C29.2125114,0.693365269 29.7273972,0.916467638 30.1369863,1.26252127 C30.5655708,1.62459154 30.9757991,1.94765659 31.2328767,2.48732313 C32.0536073,4.21005405 31.4238356,5.82820574 30.8675799,7.66917715 C28.7631963,14.63406 26.7004566,21.7661755 24.56621,28.4908087 C24.4025571,29.0064503 24.3421004,29.6191339 23.9269406,29.9982572 C20.7938813,20.7457271 17.7281278,11.0075159 14.6118722,1.92202996 C14.4115982,1.33798791 14.4224658,0.555622167 13.8812785,0.13193494 C9.52812789,-0.0878698863 4.77926945,0.100561169 0.273972578,0.037719412 C0.142465806,0.0904801074 0.0511415114,0.184695635 0,0.320365995 Z" id="Fill-1"></path>
        </g>
    </g>
</svg>