<?xml version="1.0" encoding="UTF-8"?>
<svg width="89px" height="89px" viewBox="0 0 89 89" version="1.1" xmlns="http://www.w3.org/2000/svg" xmlns:xlink="http://www.w3.org/1999/xlink">
    <!-- Generator: Sketch 50.2 (55047) - http://www.bohemiancoding.com/sketch -->
    <title>vanguard</title>
    <desc>Created with Sketch.</desc>
    <defs>
        <polygon id="path-1" points="0 0 81 0 81 81 0 81"></polygon>
    </defs>
    <g id="Page-1" stroke="none" stroke-width="1" fill="none" fill-rule="evenodd">
        <g id="vanguard">
            <rect id="biz_act" stroke="#971B1F" stroke-width="2" x="1" y="1" width="87" height="87" rx="8"></rect>
            <g id="Group-3" transform="translate(4.000000, 4.000000)">
                <mask id="mask-2" fill="white">
                    <use xlink:href="#path-1"></use>
                </mask>
                <g id="Clip-2"></g>
                <path d="M61.7409399,22.68 C61.6749731,23.004 61.7409399,22.77 61.7409399,22.77 L61.9059018,22.725 L62.0109267,22.86 C62.0810333,22.84011 62.1155916,22.78467 62.1009223,22.68 C62.8195373,22.98132 62.9538107,23.86701 63.1808696,24.66 C63.6228381,24.44202 63.6594663,23.81868 63.9008345,23.4 L63.9908301,23.4 L63.9458323,23.265 L64.0808257,23.22 C64.0988248,22.90806 64.155792,22.63491 64.5308037,22.68 C64.5242341,23.44122 64.7647023,24.31818 64.5308037,25.02 C64.1040446,24.99678 64.3111245,24.33969 64.2608169,23.94 L64.1258235,23.895 L64.0808257,23.76 C63.7184134,24.05754 63.7599014,24.759 63.3608608,25.02 C62.8290768,24.83181 62.9080029,24.03288 62.5509004,23.67 L62.415907,23.715 L62.2809135,23.67 L62.2809135,25.02 C61.7083615,24.78258 62.1500599,23.53086 62.0109267,22.86 L61.8459648,22.905 C61.8459648,22.905 61.7409399,22.77 60.9309794,23.04 C61.0777623,23.51097 61.0777623,24.54903 60.9309794,25.02 C60.5437283,24.68727 60.8474635,23.66352 60.7509882,23.04 C60.7275894,22.7034 60.0054646,23.06556 60.0310233,22.68 L61.7409399,22.68 Z M18.9030305,22.68 C18.953428,22.5504 19.0434237,22.4604 19.1730173,22.41 C23.6127707,22.47003 28.2925423,22.29003 32.5823629,22.5 C33.1156769,22.90473 33.1049674,23.65209 33.3023278,24.21 C36.3732479,32.88897 39.3944005,42.19146 42.4818798,51.03 C42.8909998,50.66784 42.9505769,50.08257 43.111849,49.59 C45.2150464,43.16625 47.2477772,36.35325 49.321546,29.7 C49.8697092,27.9414 50.490319,26.39565 49.6815284,24.75 C49.4281908,24.23448 49.0239305,23.92587 48.6015811,23.58 C48.1979508,23.24943 47.6905556,23.03631 47.3416426,22.59 C47.6563573,22.24818 48.2007407,22.41585 48.6015811,22.41 C51.6524322,22.36563 55.161541,22.4433 58.3211068,22.41 C53.8122368,36.20133 49.1190559,49.80699 44.4617832,63.45 C40.4263801,61.93071 36.6963321,60.98994 34.2922795,58.05 C32.5207159,55.88352 31.5012457,52.893 30.4224683,49.86 C27.7981064,42.48135 25.1922836,35.31951 22.5028548,27.81 C21.9579314,26.28846 21.3674702,24.74811 20.5229514,23.85 C20.0715335,23.36994 19.2121654,23.21307 18.9030305,22.68 Z" id="Fill-1" fill="#971B1F" mask="url(#mask-2)"></path>
            </g>
        </g>
    </g>
</svg>