<?xml version="1.0" encoding="UTF-8"?>
<svg width="91px" height="91px" viewBox="0 0 91 91" version="1.1" xmlns="http://www.w3.org/2000/svg" xmlns:xlink="http://www.w3.org/1999/xlink">
    <!-- Generator: Sketch 50.2 (55047) - http://www.bohemiancoding.com/sketch -->
    <title>vanguard</title>
    <desc>Created with Sketch.</desc>
    <defs>
        <polygon id="path-1" points="0 0 82.862069 0 82.862069 82.862069 0 82.862069"></polygon>
    </defs>
    <g id="Page-1" stroke="none" stroke-width="1" fill="none" fill-rule="evenodd">
        <g id="vanguard" transform="translate(1.000000, 1.000000)">
            <rect id="biz_act" stroke="#971B1F" stroke-width="2" x="0" y="0" width="89" height="89" rx="8"></rect>
            <g id="Group-3" transform="translate(3.068966, 3.068966)">
                <g id="Fill-1-Clipped">
                    <mask id="mask-2" fill="white">
                        <use xlink:href="#path-1"></use>
                    </mask>
                    <g id="path-1"></g>
                    <path d="M63.1602719,23.2013793 C63.0927886,23.5328276 63.1602719,23.2934483 63.1602719,23.2934483 L63.329026,23.2474138 L63.4364652,23.3855172 C63.5081835,23.36517 63.5435362,23.3084555 63.5285297,23.2013793 C64.2636646,23.5096262 64.4010247,24.4156769 64.6333034,25.2268966 C65.0854321,25.0039055 65.1229023,24.3662359 65.3698192,23.937931 L65.4618837,23.937931 L65.4158514,23.7998276 L65.5539481,23.7537931 C65.572361,23.4346821 65.6306378,23.1552528 66.0142705,23.2013793 C66.0075498,23.9800986 66.253546,24.8772186 66.0142705,25.5951724 C65.5777008,25.5714186 65.7895412,24.8992231 65.7380771,24.4903448 L65.5999804,24.4443103 L65.5539481,24.3062069 C65.1832045,24.6105869 65.2256463,25.3281724 64.8174323,25.5951724 C64.2734234,25.4026562 64.3541639,24.58536 63.9888521,24.2141379 L63.8507554,24.2601724 L63.7126586,24.2141379 L63.7126586,25.5951724 C63.1269445,25.3522945 63.5787969,24.0717993 63.4364652,23.3855172 L63.2677111,23.4315517 C63.2677111,23.4315517 63.1602719,23.2934483 62.3316916,23.5696552 C62.4818488,24.0514521 62.4818488,25.1133755 62.3316916,25.5951724 C61.9355381,25.2547934 62.2462558,24.207509 62.1475626,23.5696552 C62.1236259,23.2253172 61.3849006,23.5958028 61.4110468,23.2013793 L63.1602719,23.2013793 Z M19.3375829,23.2013793 C19.389139,23.0688 19.4812036,22.976731 19.6137763,22.9251724 C24.155593,22.9865824 28.9429456,22.8024445 33.3313827,23.0172414 C33.8769568,23.4312755 33.8660011,24.1958162 34.0678986,24.7665517 C37.2094145,33.6450383 40.3000189,43.1613786 43.4584747,52.2031034 C43.8769998,51.8326179 43.9379465,51.2338934 44.102926,50.73 C46.2544728,44.1585776 48.333933,37.1889569 50.4553746,30.3827586 C51.0161393,28.583731 51.651016,27.0024466 50.8236325,25.3189655 C50.564471,24.7915945 50.1509174,24.47589 49.7188588,24.122069 C49.3059497,23.7838997 48.7868902,23.5658803 48.4299562,23.1093103 C48.7519057,22.7596324 49.3088037,22.9311569 49.7188588,22.9251724 C52.8398444,22.8797824 56.4296224,22.9592379 59.6618219,22.9251724 C55.0492997,37.0335445 50.2482296,50.9519783 45.4838932,64.9086207 C41.3557222,63.3544045 37.5399259,62.3920076 35.0806078,59.3844828 C33.2683186,57.1681986 32.2254123,54.108931 31.1218354,51.0062069 C28.4371433,43.4579328 25.7714166,36.1314528 23.0201618,28.4493103 C22.4627114,26.8927924 21.8586764,25.3170321 20.9947434,24.3982759 C20.5329481,23.90718 19.6538244,23.7467038 19.3375829,23.2013793 Z" id="Fill-1" fill="#971B1F" fill-rule="nonzero" mask="url(#mask-2)"></path>
                </g>
            </g>
        </g>
    </g>
</svg>