<?xml version="1.0" encoding="UTF-8"?>
<svg width="102px" height="101px" viewBox="0 0 102 101" version="1.1" xmlns="http://www.w3.org/2000/svg" xmlns:xlink="http://www.w3.org/1999/xlink">
    <!-- Generator: Sketch 48.2 (47327) - http://www.bohemiancoding.com/sketch -->
    <title>vim</title>
    <desc>Created with Sketch.</desc>
    <defs></defs>
    <g id="Page-1" stroke="none" stroke-width="1" fill="none" fill-rule="evenodd">
        <g id="vim" fill-rule="nonzero" stroke="#000000">
            <g id="Icon-Vim" transform="translate(1.000000, 0.000000)">
                <polygon id="path2890" fill="#19953F" points="50.1492488 0 0 50.4451066 49.8507437 100 100 49.8516353"></polygon>
                <polygon id="path3664" fill="#D0D0CF" points="7.70561893 4.37500415 5.625 6.44817417 5.625 14.4446895 7.89138866 16.6289192 10.900855 16.7029646 10.9751626 86.4133108 13.9474753 89.375 23.1616452 89.375 96.875 14.7408543 96.875 7.04050787 94.7943811 4.96733785 61.5044781 4.67117307 59.4238592 7.63284157 59.4238592 14.1485206 61.5044781 16.8140243 64.179559 16.8140243 38.3204389 41.6920687 38.5805183 16.9250882 41.5528281 16.925084 43.9678317 14.4446853 43.9678317 7.92900635 41.2927508 4.9673337 7.70561893 4.375 7.70561893 4.37500415"></polygon>
                <polygon id="path3666" fill="#D0D0CF" points="53.992538 52.7272731 55.7835853 51.25 60.8582095 51.3977302 62.5 53.0227294 60.7089569 58.0454571 59.2164189 59.375 53.9307123 59.3138066 52.5 57.6022748 53.992538 52.7272731"></polygon>
                <polygon id="path3668" fill="#D0D0CF" points="47.6632885 62.5 59.375 62.6480253 53.2263518 81.2993687 55.4222964 81.2993687 54.1047313 85 43.125 84.8519913 49.127253 66.9407907 46.1993241 67.088816"></polygon>
                <polygon id="path3670" fill="#D0D0CF" points="61.9160556 62.5 60.3719782 66.541257 63.2070309 66.541257 56.875 85 66.6605848 85 68.0743811 81.3621436 65.5358671 81.1950474 69.0328453 70.2483509 75.2600353 70.0993412 70.6637754 84.7019806 80.2756548 84.8510111 81.4861334 81.4057847 79.1763814 81.3376528 82.9698901 70.2483509 88.3074803 70.2483509 83.7112204 84.8510111 93.811324 84.9563589 95.058871 81.504749 92.6442739 81.4238502 97.5 65.9271526 95.5725353 62.7980111 89.4936147 62.7980111 87.1213501 65.1821207 84.7490854 65.1821207 82.2285597 62.6490055 77.0392348 62.6490055 74.8152354 64.8841054 72.2947055 64.8841054 69.7741798 62.5 61.9160556 62.5"></polygon>
            </g>
        </g>
    </g>
</svg>