<?xml version="1.0" encoding="UTF-8"?>
<svg width="100px" height="100px" viewBox="0 0 100 100" version="1.1" xmlns="http://www.w3.org/2000/svg" xmlns:xlink="http://www.w3.org/1999/xlink">
    <!-- Generator: Sketch 48.2 (47327) - http://www.bohemiancoding.com/sketch -->
    <title>vimm</title>
    <desc>Created with Sketch.</desc>
    <defs></defs>
    <g id="Page-1" stroke="none" stroke-width="1" fill="none" fill-rule="evenodd">
        <g id="vimm" fill-rule="nonzero" stroke="#000000">
            <g id="Icon-Vim" transform="translate(7.000000, 7.000000)">
                <polygon id="path2890" fill="#19953F" points="43.128354 0 0 43.8872427 42.8716396 87 86 43.3709227"></polygon>
                <polygon id="path3664" fill="#D0D0CF" points="6.80130297 5.00000361 5 6.80488104 5 13.7665532 6.96213374 15.6681179 9.56758951 15.7325809 9.63192161 76.4215882 12.2052115 79 20.1824107 79 84 14.0243908 84 7.32055979 82.198697 5.51568236 53.3778496 5.25784479 51.5765466 7.83623854 51.5765466 13.508712 53.3778496 15.8292682 55.69381 15.8292682 33.3061882 37.487801 33.5313529 15.9259591 36.1046402 15.9259555 38.1954378 13.7665496 38.1954378 8.09407611 35.8794774 5.51567875 6.80130297 5 6.80130297 5.00000361"></polygon>
                <polygon id="path3666" fill="#D0D0CF" points="46.3432842 46.2727276 47.9552267 45 52.5223885 45.1272753 54 46.5272745 52.3880612 50.8545477 51.044777 52 46.2876411 51.9472796 45 50.472729 46.3432842 46.2727276"></polygon>
                <polygon id="path3668" fill="#D0D0CF" points="40.9099101 55 51 55.131578 45.7027031 71.7105499 47.5945938 71.7105499 46.4594608 75 37 74.8684367 42.1711718 58.9473695 39.6486485 59.0789475"></polygon>
                <polygon id="path3670" fill="#D0D0CF" points="53.3430633 55 52.0127812 58.412617 54.4552882 58.412617 49 74 57.4306577 74 58.6486976 70.9280323 56.4616701 70.7869289 59.4744513 61.5430519 64.839415 61.4172215 60.8795603 73.7483391 69.1605642 73.8741872 70.203438 70.9648848 68.2134979 70.9073513 71.4817515 61.5430519 76.0802907 61.5430519 72.1204361 73.8741872 80.8220638 73.9631475 81.8968734 71.0484547 79.8166052 70.9801402 84 57.8940399 82.339415 55.2516538 77.1021911 55.2516538 75.0583939 57.2649019 73.0145967 57.2649019 70.8430668 55.1258269 66.3722638 55.1258269 64.4562028 57.0132446 62.2846694 57.0132446 60.1131395 55 53.3430633 55"></polygon>
            </g>
        </g>
    </g>
</svg>