<?xml version="1.0" encoding="UTF-8" standalone="no"?>
<!DOCTYPE svg PUBLIC "-//W3C//DTD SVG 1.1//EN" "http://www.w3.org/Graphics/SVG/1.1/DTD/svg11.dtd">
<svg version="1.1" xmlns="http://www.w3.org/2000/svg" xmlns:xlink="http://www.w3.org/1999/xlink" preserveAspectRatio="xMidYMid meet" viewBox="0 0 640 640" width="640" height="640"><defs><path d="M119.48 24.29L119.66 24.3L119.84 24.32L120.02 24.35L120.21 24.38L120.39 24.42L120.57 24.46L120.76 24.51L120.95 24.56L121.14 24.62L121.32 24.69L121.5 24.76L121.68 24.83L121.85 24.91L122.01 24.99L122.17 25.08L122.32 25.17L122.47 25.27L122.61 25.37L122.75 25.47L122.88 25.58L123.01 25.69L123.13 25.8L123.25 25.92L123.37 26.04L123.47 26.17L123.58 26.29L123.68 26.43L123.77 26.56L123.87 26.7L123.95 26.84L124.04 26.99L124.12 27.14L124.19 27.29L124.26 27.44L124.33 27.6L124.39 27.76L124.45 27.92L124.51 28.09L124.56 28.25L124.62 28.42L124.66 28.6L124.71 28.77L124.75 28.95L124.78 29.13L124.82 29.31L124.85 29.5L124.88 29.68L124.91 29.87L124.91 69.39L124.91 69.49L124.9 69.59L124.9 69.69L124.9 69.78L124.89 69.88L124.88 69.97L124.87 70.06L124.86 70.16L124.85 70.25L124.84 70.34L124.82 70.42L124.8 70.51L124.79 70.6L124.76 70.68L124.74 70.77L124.72 70.85L124.69 70.93L124.66 71.01L124.64 71.09L124.6 71.17L124.57 71.25L124.53 71.32L124.5 71.4L124.46 71.48L124.42 71.55L124.37 71.62L124.33 71.7L124.28 71.77L124.23 71.84L124.18 71.91L124.12 71.98L124.06 72.05L124 72.11L123.94 72.18L123.88 72.25L123.81 72.31L123.74 72.38L123.67 72.44L123.59 72.5L122.87 73.1L122.16 73.69L121.46 74.27L120.78 74.83L120.11 75.38L119.46 75.92L118.82 76.45L118.2 76.96L117.59 77.46L117 77.94L116.43 78.42L115.87 78.87L115.33 79.32L114.81 79.75L114.3 80.16L113.81 80.56L113.34 80.95L112.88 81.32L112.45 81.68L112.03 82.02L111.64 82.34L111.26 82.65L110.9 82.95L110.56 83.22L110.24 83.48L109.94 83.73L109.66 83.95L109.41 84.16L109.17 84.36L108.95 84.53L108.76 84.69L108.59 84.83L108.44 84.95L108.31 85.06L108.21 85.14L108.12 85.21L108.06 85.26L108.02 85.29L92.93 97.59L68.83 77.26L75.71 69.72L99.98 42.66L114.74 26.43L114.88 26.28L115.02 26.13L115.16 26L115.31 25.86L115.45 25.73L115.6 25.61L115.74 25.49L115.89 25.38L116.04 25.28L116.19 25.17L116.34 25.08L116.5 24.99L116.65 24.9L116.81 24.82L116.97 24.75L117.13 24.68L117.29 24.61L117.45 24.56L117.61 24.5L117.77 24.46L117.94 24.41L118.11 24.38L118.27 24.35L118.44 24.32L118.61 24.3L118.79 24.29L118.96 24.28L119.13 24.28L119.31 24.28L119.48 24.29Z" id="mqIqn83mk"></path><path d="M11.93 65.78C10.29 64.14 8.65 63.81 6.84 64.96C5.37 65.94 5.2 67.26 5.2 68.9C5.2 74.62 5.2 120.4 5.2 126.12C5.2 127.6 5.53 128.91 6.84 129.73C8.48 130.72 10.29 130.55 11.76 128.91C16.68 123.5 27.34 111.69 27.34 111.69C27.35 109.77 27.41 100.15 27.5 82.83C18.54 73 13.35 67.31 11.93 65.78Z" id="bPzDzp5Ka"></path><path d="M140.16 7.57C136.88 5.93 133.27 6.91 130.97 9.37C131.63 9.04 132.45 8.88 133.27 8.88C137.04 8.88 140.16 12 140.16 15.77C140.16 31.97 140.16 161.58 140.16 177.78C140.16 181.55 137.04 184.66 133.27 184.66C132.45 184.66 131.63 184.5 130.97 184.17C133.11 186.63 136.88 187.62 140.16 185.98C143.91 184.2 173.95 170.04 177.71 168.27C182.63 165.97 185.58 161.05 185.58 155.64C185.58 143.87 185.58 49.68 185.58 37.9C185.58 32.49 182.46 27.57 177.71 25.28C170.2 21.74 143.91 9.34 140.16 7.57Z" id="arnhe40Fs"></path><path d="M9.63 50.37C14.22 48.4 18.81 46.6 23.41 44.63C26.19 43.48 28.82 43.97 31.11 45.94C42.92 55.61 125.07 123.01 125.07 123.01C125.07 123.01 124.91 164.66 124.91 165.48C124.58 167.77 123.27 169.41 121.14 169.91C119 170.56 116.87 170.07 115.23 168.27C113.26 165.97 24.88 68.24 13.57 55.78C12.26 54.3 10.94 53.15 8.98 53.65C7.66 54.14 6.52 54.96 5.37 55.61C5.7 53.32 7.34 51.51 9.63 50.37Z" id="a12alnpohQ"></path></defs><g><g><g><use xlink:href="#mqIqn83mk" opacity="1" fill="#6c4fa1" fill-opacity="1"></use><g><use xlink:href="#mqIqn83mk" opacity="1" fill-opacity="0" stroke="#000000" stroke-width="1" stroke-opacity="0"></use></g></g><g><use xlink:href="#bPzDzp5Ka" opacity="1" fill="#64439a" fill-opacity="1"></use><g><use xlink:href="#bPzDzp5Ka" opacity="1" fill-opacity="0" stroke="#000000" stroke-width="1" stroke-opacity="0"></use></g></g><g><use xlink:href="#arnhe40Fs" opacity="1" fill="#8369ae" fill-opacity="1"></use><g><use xlink:href="#arnhe40Fs" opacity="1" fill-opacity="0" stroke="#000000" stroke-width="1" stroke-opacity="0"></use></g></g><g><use xlink:href="#a12alnpohQ" opacity="1" fill="#7559a6" fill-opacity="1"></use><g><use xlink:href="#a12alnpohQ" opacity="1" fill-opacity="0" stroke="#000000" stroke-width="1" stroke-opacity="0"></use></g></g></g></g></svg>