<?xml version="1.0" encoding="UTF-8" standalone="no"?>
<!DOCTYPE svg PUBLIC "-//W3C//DTD SVG 1.1//EN" "http://www.w3.org/Graphics/SVG/1.1/DTD/svg11.dtd">
<svg version="1.1" xmlns="http://www.w3.org/2000/svg" xmlns:xlink="http://www.w3.org/1999/xlink" preserveAspectRatio="xMidYMid meet" viewBox="0 0 640 640" width="100" height="100"><defs><path d="M256.92 171.46L257.1 171.47L257.29 171.5L257.47 171.53L257.66 171.58L257.85 171.63L258.04 171.69L258.22 171.75L258.4 171.83L258.57 171.91L258.74 171.99L258.89 172.09L259.04 172.18L259.18 172.29L259.31 172.4L259.44 172.51L259.56 172.63L259.67 172.76L259.77 172.89L259.87 173.02L259.96 173.16L260.05 173.31L260.13 173.46L260.21 173.61L260.28 173.77L260.34 173.93L260.4 174.1L260.45 174.27L260.5 174.44L260.55 174.62L260.58 174.8L260.62 174.99L260.65 175.17L260.68 175.36L260.68 203.05L260.68 203.15L260.68 203.25L260.67 203.35L260.66 203.44L260.65 203.54L260.64 203.63L260.63 203.72L260.61 203.81L260.59 203.89L260.57 203.98L260.55 204.06L260.52 204.15L260.49 204.23L260.46 204.31L260.43 204.39L260.39 204.46L260.35 204.54L260.3 204.61L260.26 204.69L260.21 204.76L260.15 204.83L260.1 204.9L260.04 204.97L259.97 205.03L259.91 205.1L259.84 205.17L259.76 205.23L259.03 205.83L258.32 206.42L257.63 206.99L256.96 207.54L256.32 208.07L255.7 208.59L255.1 209.08L254.52 209.55L253.97 210L253.44 210.44L252.94 210.85L252.47 211.24L252.02 211.6L251.6 211.95L251.2 212.27L250.84 212.57L250.5 212.84L250.2 213.09L249.92 213.32L249.67 213.52L249.46 213.7L249.27 213.85L249.12 213.97L249 214.07L248.92 214.14L248.85 214.19L238.28 222.81L221.39 208.56L226.22 203.28L243.22 184.32L253.56 172.95L253.7 172.8L253.84 172.66L253.99 172.52L254.13 172.4L254.28 172.28L254.43 172.17L254.59 172.07L254.74 171.97L254.9 171.88L255.06 171.8L255.22 171.73L255.38 171.67L255.54 171.61L255.71 171.56L255.88 171.52L256.05 171.49L256.22 171.47L256.39 171.45L256.57 171.45L256.74 171.45L256.92 171.46Z" id="a2k2XKasvP"></path><path d="M181.53 200.52C180.38 199.37 179.23 199.14 177.97 199.95C176.93 200.64 176.82 201.55 176.82 202.7C176.82 206.71 176.82 238.79 176.82 242.8C176.82 243.83 177.05 244.75 177.97 245.32C179.12 246.01 180.38 245.9 181.41 244.75C184.86 240.96 192.33 232.69 192.33 232.69C192.33 231.34 192.37 224.6 192.44 212.47C186.16 205.58 182.52 201.59 181.53 200.52Z" id="b187kalru7"></path><path d="M271.36 159.74C269.07 158.59 266.54 159.28 264.93 161C265.39 160.77 265.96 160.66 266.54 160.66C269.18 160.66 271.36 162.84 271.36 165.48C271.36 176.83 271.36 267.63 271.36 278.98C271.36 281.62 269.18 283.81 266.54 283.81C265.96 283.81 265.39 283.69 264.93 283.46C266.42 285.19 269.07 285.88 271.36 284.73C273.99 283.49 295.04 273.56 297.67 272.32C301.12 270.71 303.18 267.27 303.18 263.47C303.18 255.23 303.18 189.24 303.18 180.99C303.18 177.2 301 173.75 297.67 172.15C292.41 169.66 273.99 160.98 271.36 159.74Z" id="bkyCbtcu3"></path><path d="M179.92 189.72C183.14 188.34 186.35 187.08 189.57 185.7C191.52 184.9 193.36 185.24 194.97 186.62C203.24 193.4 260.79 240.61 260.79 240.61C260.79 240.61 260.68 269.79 260.68 270.37C260.45 271.98 259.53 273.12 258.04 273.47C256.54 273.93 255.05 273.58 253.9 272.32C252.52 270.71 190.6 202.24 182.68 193.51C181.76 192.48 180.84 191.68 179.46 192.02C178.54 192.36 177.74 192.94 176.93 193.4C177.16 191.79 178.31 190.53 179.92 189.72Z" id="d1k2eJOrIH"></path></defs><g><g><g><use xlink:href="#a2k2XKasvP" opacity="1" fill="#6c4fa1" fill-opacity="1"></use><g><use xlink:href="#a2k2XKasvP" opacity="1" fill-opacity="0" stroke="#000000" stroke-width="1" stroke-opacity="0"></use></g></g><g><use xlink:href="#b187kalru7" opacity="1" fill="#64439a" fill-opacity="1"></use><g><use xlink:href="#b187kalru7" opacity="1" fill-opacity="0" stroke="#000000" stroke-width="1" stroke-opacity="0"></use></g></g><g><use xlink:href="#bkyCbtcu3" opacity="1" fill="#8369ae" fill-opacity="1"></use><g><use xlink:href="#bkyCbtcu3" opacity="1" fill-opacity="0" stroke="#000000" stroke-width="1" stroke-opacity="0"></use></g></g><g><use xlink:href="#d1k2eJOrIH" opacity="1" fill="#7559a6" fill-opacity="1"></use><g><use xlink:href="#d1k2eJOrIH" opacity="1" fill-opacity="0" stroke="#000000" stroke-width="1" stroke-opacity="0"></use></g></g></g></g></svg>