<svg id="VS2019" xmlns="http://www.w3.org/2000/svg" viewBox="0 0 128 128"><style>.st0{fill:#6c4fa1}.st1{fill:#64439a}.st2{fill:#8369ae}.st3{fill:#7559a6}</style><path class="st0" d="M62.5 64.5L47.8 52.1l4.2-4.6L66.8 31l9-9.9c1.1-1.2 2.4-1.6 3.9-1.1s2.1 1.7 2.3 3.2v24.1c0 .8-.2 1.4-.8 1.9-5.8 4.8-9.5 7.8-9.5 7.8l-9.2 7.5zM33.7 67.7s7 7.8 10.6 11.7c-2.2 1.8-4.2 3.5-6.3 5.2-4.4 3.6-8.8 7.2-13.1 10.8-1.5 1.2-3.1 1.6-4.9.8-2.7-1.1-5.4-2.2-8.1-3.4-1.5-.6-2.5-1.8-2.8-3.3.7.4 1.3.9 2 1.1 1 .3 1.9-.2 2.7-1 2.1-2.3 19.9-21.9 19.9-21.9z"/><path class="st1" d="M22.6 55.5s-8.2-9-9.5-10.4c-1-1-2-1.2-3.1-.5-.9.6-1 1.4-1 2.4v34.9c0 .9.2 1.7 1 2.2 1 .6 2.1.5 3-.5 3-3.3 9.5-10.5 9.5-10.5l.1-17.6z"/><path class="st2" d="M114.2 20.4L91.3 9.6c-2-1-4.2-.4-5.6 1.1.4-.2.9-.3 1.4-.3 2.3 0 4.2 1.9 4.2 4.2v98.8c0 2.3-1.9 4.2-4.2 4.2-.5 0-1-.1-1.4-.3 1.3 1.5 3.6 2.1 5.6 1.1l22.9-10.8c3-1.4 4.8-4.4 4.8-7.7V28.1c0-3.3-1.9-6.3-4.8-7.7z"/><path class="st3" d="M9.1 38.9c.2-1.4 1.2-2.5 2.6-3.2 2.8-1.2 5.6-2.3 8.4-3.5 1.7-.7 3.3-.4 4.7.8 7.2 5.9 57.3 47 57.3 47s-.1 25.4-.1 25.9c-.2 1.4-1 2.4-2.3 2.7-1.3.4-2.6.1-3.6-1-1.2-1.4-55.1-61-62-68.6-.8-.9-1.6-1.6-2.8-1.3-.8.3-1.5.8-2.2 1.2z"/></svg>