<?xml version="1.0" encoding="UTF-8"?>
<svg width="200px" height="200px" viewBox="0 0 200 200" version="1.1" xmlns="http://www.w3.org/2000/svg" xmlns:xlink="http://www.w3.org/1999/xlink">
    <!-- Generator: Sketch 52.6 (67491) - http://www.bohemiancoding.com/sketch -->
    <title>vsicon</title>
    <desc>Created with Sketch.</desc>
    <g id="vsicon" stroke="none" stroke-width="1" fill="none" fill-rule="evenodd">
        <g id="icon_vs2019" transform="translate(10.000000, 10.000000)">
            <g id="Group" transform="translate(64.000000, 18.000000)">
                <g id="bDYaYkbBC-link" fill="#6C4FA1">
                    <polygon id="bDYaYkbBC" points="50.72816 0.214045249 50.99024 0.243113122 51.26688 0.301248869 51.54352 0.359384615 51.82016 0.432054299 52.0968 0.519257919 52.37344 0.620995475 52.63552 0.722733032 52.8976 0.839004525 53.13056 0.969809955 53.36352 1.11514932 53.56736 1.26048869 53.7712 1.40582805 53.97504 1.58023529 54.14976 1.7401086 54.32448 1.92904977 54.48464 2.11799095 54.63024 2.30693213 54.77584 2.51040724 54.90688 2.72841629 55.02336 2.94642534 55.13984 3.16443439 55.24176 3.39697738 55.34368 3.62952036 55.43104 3.87659729 55.5184 4.12367421 55.5912 4.38528507 55.64944 4.63236199 55.72224 4.90850679 55.76592 5.17011765 55.8096 5.44626244 55.85328 5.73694118 55.85328 44.9785701 55.85328 45.1239095 55.85328 45.2692489 55.83872 45.4145882 55.82416 45.5599276 55.8096 45.705267 55.79504 45.8360724 55.78048 45.9668778 55.75136 46.0976833 55.72224 46.2284887 55.69312 46.3447602 55.64944 46.4755656 55.62032 46.5918371 55.57664 46.7081086 55.5184 46.8243801 55.46016 46.9406516 55.40192 47.0569231 55.34368 47.1586606 55.27088 47.2749321 55.19808 47.3766697 55.12528 47.4784072 55.03792 47.5801448 54.95056 47.6818824 54.8632 47.7836199 54.76128 47.8853575 54.65936 47.987095 54.54288 48.0742986 53.48 48.9608688 52.43168 49.832905 51.41248 50.6613394 50.43696 51.4752398 49.49056 52.2455385 48.57328 53.0013032 47.69968 53.7134661 46.86976 54.3965611 46.06896 55.0651222 45.29728 55.6900814 44.56928 56.2714389 43.89952 56.8382624 43.24432 57.3614842 42.64736 57.855638 42.09408 58.30619 41.58448 58.7276742 41.11856 59.1055566 40.68176 59.454371 40.31776 59.7595837 39.98288 60.0211946 39.70624 60.2537376 39.47328 60.4426787 39.284 60.5880181 39.15296 60.6897557 39.08016 60.7624253 39.05104 60.7769593 24.03968 73 0.05936 52.7978281 6.90256 45.3128507 31.0576 18.4396018 45.73408 2.30693213 45.95248 2.08892308 46.15632 1.88544796 46.37472 1.68197285 46.59312 1.50756561 46.81152 1.33315837 47.02992 1.17328507 47.26288 1.01341176 47.49584 0.882606335 47.71424 0.751800905 47.96176 0.635529412 48.19472 0.548325792 48.42768 0.446588235 48.6752 0.373918552 48.92272 0.315782805 49.17024 0.257647059 49.41776 0.214045249 49.67984 0.199511312 49.94192 0.184977376 50.204 0.170443439 50.46608 0.184977376"></polygon>
                </g>
                <g id="bDYaYkbBC-link" fill="#000000" fill-opacity="0" stroke="#000000" stroke-opacity="0" stroke-width="0.5">
                    <polygon id="bDYaYkbBC" points="50.72816 0.214045249 50.99024 0.243113122 51.26688 0.301248869 51.54352 0.359384615 51.82016 0.432054299 52.0968 0.519257919 52.37344 0.620995475 52.63552 0.722733032 52.8976 0.839004525 53.13056 0.969809955 53.36352 1.11514932 53.56736 1.26048869 53.7712 1.40582805 53.97504 1.58023529 54.14976 1.7401086 54.32448 1.92904977 54.48464 2.11799095 54.63024 2.30693213 54.77584 2.51040724 54.90688 2.72841629 55.02336 2.94642534 55.13984 3.16443439 55.24176 3.39697738 55.34368 3.62952036 55.43104 3.87659729 55.5184 4.12367421 55.5912 4.38528507 55.64944 4.63236199 55.72224 4.90850679 55.76592 5.17011765 55.8096 5.44626244 55.85328 5.73694118 55.85328 44.9785701 55.85328 45.1239095 55.85328 45.2692489 55.83872 45.4145882 55.82416 45.5599276 55.8096 45.705267 55.79504 45.8360724 55.78048 45.9668778 55.75136 46.0976833 55.72224 46.2284887 55.69312 46.3447602 55.64944 46.4755656 55.62032 46.5918371 55.57664 46.7081086 55.5184 46.8243801 55.46016 46.9406516 55.40192 47.0569231 55.34368 47.1586606 55.27088 47.2749321 55.19808 47.3766697 55.12528 47.4784072 55.03792 47.5801448 54.95056 47.6818824 54.8632 47.7836199 54.76128 47.8853575 54.65936 47.987095 54.54288 48.0742986 53.48 48.9608688 52.43168 49.832905 51.41248 50.6613394 50.43696 51.4752398 49.49056 52.2455385 48.57328 53.0013032 47.69968 53.7134661 46.86976 54.3965611 46.06896 55.0651222 45.29728 55.6900814 44.56928 56.2714389 43.89952 56.8382624 43.24432 57.3614842 42.64736 57.855638 42.09408 58.30619 41.58448 58.7276742 41.11856 59.1055566 40.68176 59.454371 40.31776 59.7595837 39.98288 60.0211946 39.70624 60.2537376 39.47328 60.4426787 39.284 60.5880181 39.15296 60.6897557 39.08016 60.7624253 39.05104 60.7769593 24.03968 73 0.05936 52.7978281 6.90256 45.3128507 31.0576 18.4396018 45.73408 2.30693213 45.95248 2.08892308 46.15632 1.88544796 46.37472 1.68197285 46.59312 1.50756561 46.81152 1.33315837 47.02992 1.17328507 47.26288 1.01341176 47.49584 0.882606335 47.71424 0.751800905 47.96176 0.635529412 48.19472 0.548325792 48.42768 0.446588235 48.6752 0.373918552 48.92272 0.315782805 49.17024 0.257647059 49.41776 0.214045249 49.67984 0.199511312 49.94192 0.184977376 50.204 0.170443439 50.46608 0.184977376"></polygon>
                </g>
            </g>
            <g id="Group" transform="translate(0.000000, 57.000000)">
                <g id="bh1ozdu7G-link" fill="#64439A">
                    <path d="M7.38,1.8626087 C5.7,0.206956522 4.02,-0.133043478 2.175,1.03478261 C0.66,2.02521739 0.495,3.35565217 0.495,5.01130435 C0.495,10.7913043 0.495,57.0313043 0.495,62.826087 C0.495,64.3043478 0.825,65.6347826 2.175,66.4626087 C3.855,67.4530435 5.7,67.2904348 7.215,65.6347826 C12.255,60.1652174 23.175,48.2356522 23.175,48.2356522 C23.19,46.2991304 23.25,36.5721739 23.355,19.0843478 C14.16,9.15043478 8.835,3.4 7.38,1.8626087 Z" id="bh1ozdu7G"></path>
                </g>
                <g id="bh1ozdu7G-link" fill="#000000" fill-opacity="0" stroke="#000000" stroke-opacity="0" stroke-width="0.5">
                    <path d="M7.38,1.8626087 C5.7,0.206956522 4.02,-0.133043478 2.175,1.03478261 C0.66,2.02521739 0.495,3.35565217 0.495,5.01130435 C0.495,10.7913043 0.495,57.0313043 0.495,62.826087 C0.495,64.3043478 0.825,65.6347826 2.175,66.4626087 C3.855,67.4530435 5.7,67.2904348 7.215,65.6347826 C12.255,60.1652174 23.175,48.2356522 23.175,48.2356522 C23.19,46.2991304 23.25,36.5721739 23.355,19.0843478 C14.16,9.15043478 8.835,3.4 7.38,1.8626087 Z" id="bh1ozdu7G"></path>
                </g>
            </g>
            <g id="Group" transform="translate(126.000000, 0.000000)">
                <g id="cPaL4YgV5-link" fill="#8369AE">
                    <path d="M9.48026316,1.02220766 C6.23815789,-0.613760081 2.67763158,0.379506048 0.405263158,2.83345766 C1.05657895,2.4975 1.86710526,2.3368246 2.67763158,2.3368246 C6.39736842,2.3368246 9.48026316,5.44808468 9.48026316,9.21665323 C9.48026316,25.3864415 9.48026316,154.759355 9.48026316,170.929143 C9.48026316,174.697712 6.39736842,177.808972 2.67763158,177.808972 C1.86710526,177.808972 1.05657895,177.648296 0.405263158,177.312339 C2.50394737,179.780897 6.23815789,180.759556 9.48026316,179.123589 C13.2,177.356159 42.9144737,163.216724 46.6342105,161.434687 C51.4973684,159.156018 54.4065789,154.233508 54.4065789,148.843579 C54.4065789,137.08506 54.4065789,43.0607359 54.4065789,31.3168246 C54.4065789,25.9122883 51.3236842,21.0043851 46.6342105,18.7111089 C39.1947368,15.17625 13.2,2.80424395 9.48026316,1.02220766 Z" id="cPaL4YgV5"></path>
                </g>
                <g id="cPaL4YgV5-link" fill="#000000" fill-opacity="0" stroke="#000000" stroke-opacity="0" stroke-width="0.5">
                    <path d="M9.48026316,1.02220766 C6.23815789,-0.613760081 2.67763158,0.379506048 0.405263158,2.83345766 C1.05657895,2.4975 1.86710526,2.3368246 2.67763158,2.3368246 C6.39736842,2.3368246 9.48026316,5.44808468 9.48026316,9.21665323 C9.48026316,25.3864415 9.48026316,154.759355 9.48026316,170.929143 C9.48026316,174.697712 6.39736842,177.808972 2.67763158,177.808972 C1.86710526,177.808972 1.05657895,177.648296 0.405263158,177.312339 C2.50394737,179.780897 6.23815789,180.759556 9.48026316,179.123589 C13.2,177.356159 42.9144737,163.216724 46.6342105,161.434687 C51.4973684,159.156018 54.4065789,154.233508 54.4065789,148.843579 C54.4065789,137.08506 54.4065789,43.0607359 54.4065789,31.3168246 C54.4065789,25.9122883 51.3236842,21.0043851 46.6342105,18.7111089 C39.1947368,15.17625 13.2,2.80424395 9.48026316,1.02220766 Z" id="cPaL4YgV5"></path>
                </g>
            </g>
            <g id="Group" transform="translate(0.000000, 37.000000)">
                <g id="d38kfDzm7A-link" fill="#7559A6">
                    <path d="M4.88373494,6.89011494 C9.4613253,4.93402299 14.0389157,3.13850575 18.616506,1.16781609 C21.3863855,0.0291954023 23.9959036,0.51091954 26.2846988,2.4816092 C38.0493976,12.1306897 119.892048,79.3677011 119.892048,79.3677011 C119.892048,79.3677011 119.731687,120.912759 119.731687,121.73023 C119.410964,124.022069 118.098916,125.657011 115.970482,126.153333 C113.856627,126.795632 111.728193,126.313908 110.095422,124.503793 C108.141928,122.226552 20.0743373,24.7285057 8.8053012,12.2912644 C7.50783133,10.8168966 6.19578313,9.67827586 4.22771084,10.16 C2.93024096,10.6563218 1.77855422,11.4737931 0.641445783,12.1306897 C0.962168675,9.83885057 2.59493976,8.04333333 4.88373494,6.89011494 Z" id="d38kfDzm7A"></path>
                </g>
                <g id="d38kfDzm7A-link" fill="#000000" fill-opacity="0" stroke="#000000" stroke-opacity="0" stroke-width="0.5">
                    <path d="M4.88373494,6.89011494 C9.4613253,4.93402299 14.0389157,3.13850575 18.616506,1.16781609 C21.3863855,0.0291954023 23.9959036,0.51091954 26.2846988,2.4816092 C38.0493976,12.1306897 119.892048,79.3677011 119.892048,79.3677011 C119.892048,79.3677011 119.731687,120.912759 119.731687,121.73023 C119.410964,124.022069 118.098916,125.657011 115.970482,126.153333 C113.856627,126.795632 111.728193,126.313908 110.095422,124.503793 C108.141928,122.226552 20.0743373,24.7285057 8.8053012,12.2912644 C7.50783133,10.8168966 6.19578313,9.67827586 4.22771084,10.16 C2.93024096,10.6563218 1.77855422,11.4737931 0.641445783,12.1306897 C0.962168675,9.83885057 2.59493976,8.04333333 4.88373494,6.89011494 Z" id="d38kfDzm7A"></path>
                </g>
            </g>
        </g>
    </g>
</svg>