<?xml version="1.0" encoding="UTF-8"?>
<svg width="100px" height="100px" viewBox="0 0 100 100" version="1.1" xmlns="http://www.w3.org/2000/svg" xmlns:xlink="http://www.w3.org/1999/xlink">
    <!-- Generator: Sketch 52.6 (67491) - http://www.bohemiancoding.com/sketch -->
    <title>vsicon</title>
    <desc>Created with Sketch.</desc>
    <g id="vsicon" stroke="none" stroke-width="1" fill="none" fill-rule="evenodd">
        <g id="icon_vs2019" transform="translate(7.000000, 8.000000)">
            <g id="Group" transform="translate(30.000000, 9.000000)">
                <g id="bDYaYkbBC-link" fill="#6C4FA1">
                    <polygon id="bDYaYkbBC" points="24.45822 0.0996923077 24.58458 0.113230769 24.71796 0.140307692 24.85134 0.167384615 24.98472 0.201230769 25.1181 0.241846154 25.25148 0.289230769 25.37784 0.336615385 25.5042 0.390769231 25.61652 0.451692308 25.72884 0.519384615 25.82712 0.587076923 25.9254 0.654769231 26.02368 0.736 26.10792 0.810461538 26.19216 0.898461538 26.26938 0.986461538 26.33958 1.07446154 26.40978 1.16923077 26.47296 1.27076923 26.52912 1.37230769 26.58528 1.47384615 26.63442 1.58215385 26.68356 1.69046154 26.72568 1.80553846 26.7678 1.92061538 26.8029 2.04246154 26.83098 2.15753846 26.86608 2.28615385 26.88714 2.408 26.9082 2.53661538 26.92926 2.672 26.92926 20.9489231 26.92926 21.0166154 26.92926 21.0843077 26.92224 21.152 26.91522 21.2196923 26.9082 21.2873846 26.90118 21.3483077 26.89416 21.4092308 26.88012 21.4701538 26.86608 21.5310769 26.85204 21.5852308 26.83098 21.6461538 26.81694 21.7003077 26.79588 21.7544615 26.7678 21.8086154 26.73972 21.8627692 26.71164 21.9169231 26.68356 21.9643077 26.64846 22.0184615 26.61336 22.0658462 26.57826 22.1132308 26.53614 22.1606154 26.49402 22.208 26.4519 22.2553846 26.40276 22.3027692 26.35362 22.3501538 26.29746 22.3907692 25.785 22.8036923 25.27956 23.2098462 24.78816 23.5956923 24.31782 23.9747692 23.86152 24.3335385 23.41926 24.6855385 22.99806 25.0172308 22.59792 25.3353846 22.21182 25.6467692 21.83976 25.9378462 21.48876 26.2086154 21.16584 26.4726154 20.84994 26.7163077 20.56212 26.9464615 20.29536 27.1563077 20.04966 27.3526154 19.82502 27.5286154 19.61442 27.6910769 19.43892 27.8332308 19.27746 27.9550769 19.14408 28.0633846 19.03176 28.1513846 18.9405 28.2190769 18.87732 28.2664615 18.84222 28.3003077 18.82818 28.3070769 11.59056 34 0.02862 24.5907692 3.32802 21.1046154 14.9742 8.58830769 22.05036 1.07446154 22.15566 0.972923077 22.25394 0.878153846 22.35924 0.783384615 22.46454 0.702153846 22.56984 0.620923077 22.67514 0.546461538 22.78746 0.472 22.89978 0.411076923 23.00508 0.350153846 23.12442 0.296 23.23674 0.255384615 23.34906 0.208 23.4684 0.174153846 23.58774 0.147076923 23.70708 0.12 23.82642 0.0996923077 23.95278 0.0929230769 24.07914 0.0861538462 24.2055 0.0793846154 24.33186 0.0861538462"></polygon>
                </g>
                <g id="bDYaYkbBC-link" fill="#000000" fill-opacity="0" stroke="#000000" stroke-opacity="0" stroke-width="0.5">
                    <polygon id="bDYaYkbBC" points="24.45822 0.0996923077 24.58458 0.113230769 24.71796 0.140307692 24.85134 0.167384615 24.98472 0.201230769 25.1181 0.241846154 25.25148 0.289230769 25.37784 0.336615385 25.5042 0.390769231 25.61652 0.451692308 25.72884 0.519384615 25.82712 0.587076923 25.9254 0.654769231 26.02368 0.736 26.10792 0.810461538 26.19216 0.898461538 26.26938 0.986461538 26.33958 1.07446154 26.40978 1.16923077 26.47296 1.27076923 26.52912 1.37230769 26.58528 1.47384615 26.63442 1.58215385 26.68356 1.69046154 26.72568 1.80553846 26.7678 1.92061538 26.8029 2.04246154 26.83098 2.15753846 26.86608 2.28615385 26.88714 2.408 26.9082 2.53661538 26.92926 2.672 26.92926 20.9489231 26.92926 21.0166154 26.92926 21.0843077 26.92224 21.152 26.91522 21.2196923 26.9082 21.2873846 26.90118 21.3483077 26.89416 21.4092308 26.88012 21.4701538 26.86608 21.5310769 26.85204 21.5852308 26.83098 21.6461538 26.81694 21.7003077 26.79588 21.7544615 26.7678 21.8086154 26.73972 21.8627692 26.71164 21.9169231 26.68356 21.9643077 26.64846 22.0184615 26.61336 22.0658462 26.57826 22.1132308 26.53614 22.1606154 26.49402 22.208 26.4519 22.2553846 26.40276 22.3027692 26.35362 22.3501538 26.29746 22.3907692 25.785 22.8036923 25.27956 23.2098462 24.78816 23.5956923 24.31782 23.9747692 23.86152 24.3335385 23.41926 24.6855385 22.99806 25.0172308 22.59792 25.3353846 22.21182 25.6467692 21.83976 25.9378462 21.48876 26.2086154 21.16584 26.4726154 20.84994 26.7163077 20.56212 26.9464615 20.29536 27.1563077 20.04966 27.3526154 19.82502 27.5286154 19.61442 27.6910769 19.43892 27.8332308 19.27746 27.9550769 19.14408 28.0633846 19.03176 28.1513846 18.9405 28.2190769 18.87732 28.2664615 18.84222 28.3003077 18.82818 28.3070769 11.59056 34 0.02862 24.5907692 3.32802 21.1046154 14.9742 8.58830769 22.05036 1.07446154 22.15566 0.972923077 22.25394 0.878153846 22.35924 0.783384615 22.46454 0.702153846 22.56984 0.620923077 22.67514 0.546461538 22.78746 0.472 22.89978 0.411076923 23.00508 0.350153846 23.12442 0.296 23.23674 0.255384615 23.34906 0.208 23.4684 0.174153846 23.58774 0.147076923 23.70708 0.12 23.82642 0.0996923077 23.95278 0.0929230769 24.07914 0.0861538462 24.2055 0.0793846154 24.33186 0.0861538462"></polygon>
                </g>
            </g>
            <g id="Group" transform="translate(0.000000, 27.000000)">
                <g id="bh1ozdu7G-link" fill="#64439A">
                    <path d="M3.3825,0.876521739 C2.6125,0.0973913043 1.8425,-0.0626086957 0.996875,0.486956522 C0.3025,0.953043478 0.226875,1.57913043 0.226875,2.35826087 C0.226875,5.07826087 0.226875,26.8382609 0.226875,29.5652174 C0.226875,30.2608696 0.378125,30.8869565 0.996875,31.2765217 C1.766875,31.7426087 2.6125,31.666087 3.306875,30.8869565 C5.616875,28.3130435 10.621875,22.6991304 10.621875,22.6991304 C10.62875,21.7878261 10.65625,17.2104348 10.704375,8.98086957 C6.49,4.30608696 4.049375,1.6 3.3825,0.876521739 Z" id="bh1ozdu7G"></path>
                </g>
                <g id="bh1ozdu7G-link" fill="#000000" fill-opacity="0" stroke="#000000" stroke-opacity="0" stroke-width="0.5">
                    <path d="M3.3825,0.876521739 C2.6125,0.0973913043 1.8425,-0.0626086957 0.996875,0.486956522 C0.3025,0.953043478 0.226875,1.57913043 0.226875,2.35826087 C0.226875,5.07826087 0.226875,26.8382609 0.226875,29.5652174 C0.226875,30.2608696 0.378125,30.8869565 0.996875,31.2765217 C1.766875,31.7426087 2.6125,31.666087 3.306875,30.8869565 C5.616875,28.3130435 10.621875,22.6991304 10.621875,22.6991304 C10.62875,21.7878261 10.65625,17.2104348 10.704375,8.98086957 C6.49,4.30608696 4.049375,1.6 3.3825,0.876521739 Z" id="bh1ozdu7G"></path>
                </g>
            </g>
            <g id="Group" transform="translate(60.000000, 0.000000)">
                <g id="cPaL4YgV5-link" fill="#8369AE">
                    <path d="M4.48157895,0.482709173 C2.94894737,-0.289831149 1.26578947,0.17921119 0.191578947,1.33802167 C0.499473684,1.179375 0.882631579,1.1035005 1.26578947,1.1035005 C3.02421053,1.1035005 4.48157895,2.57270665 4.48157895,4.35230847 C4.48157895,11.9880418 4.48157895,73.0808065 4.48157895,80.7165398 C4.48157895,82.4961416 3.02421053,83.9653478 1.26578947,83.9653478 C0.882631579,83.9653478 0.499473684,83.8894733 0.191578947,83.7308266 C1.18368421,84.8965348 2.94894737,85.3586794 4.48157895,84.5861391 C6.24,83.7515197 20.2868421,77.074564 22.0452632,76.2330469 C24.3442105,75.1570086 25.7194737,72.8324899 25.7194737,70.2872455 C25.7194737,64.7346119 25.7194737,20.3342364 25.7194737,14.7885005 C25.7194737,12.2363584 24.2621053,9.9187374 22.0452632,8.83580141 C18.5284211,7.1665625 6.24,1.32422631 4.48157895,0.482709173 Z" id="cPaL4YgV5"></path>
                </g>
                <g id="cPaL4YgV5-link" fill="#000000" fill-opacity="0" stroke="#000000" stroke-opacity="0" stroke-width="0.5">
                    <path d="M4.48157895,0.482709173 C2.94894737,-0.289831149 1.26578947,0.17921119 0.191578947,1.33802167 C0.499473684,1.179375 0.882631579,1.1035005 1.26578947,1.1035005 C3.02421053,1.1035005 4.48157895,2.57270665 4.48157895,4.35230847 C4.48157895,11.9880418 4.48157895,73.0808065 4.48157895,80.7165398 C4.48157895,82.4961416 3.02421053,83.9653478 1.26578947,83.9653478 C0.882631579,83.9653478 0.499473684,83.8894733 0.191578947,83.7308266 C1.18368421,84.8965348 2.94894737,85.3586794 4.48157895,84.5861391 C6.24,83.7515197 20.2868421,77.074564 22.0452632,76.2330469 C24.3442105,75.1570086 25.7194737,72.8324899 25.7194737,70.2872455 C25.7194737,64.7346119 25.7194737,20.3342364 25.7194737,14.7885005 C25.7194737,12.2363584 24.2621053,9.9187374 22.0452632,8.83580141 C18.5284211,7.1665625 6.24,1.32422631 4.48157895,0.482709173 Z" id="cPaL4YgV5"></path>
                </g>
            </g>
            <g id="Group" transform="translate(0.000000, 17.000000)">
                <g id="d38kfDzm7A-link" fill="#7559A6">
                    <path d="M2.3197741,3.25517241 C4.49412952,2.33103448 6.66848494,1.48275862 8.84284036,0.551724138 C10.1585331,0.0137931034 11.3980542,0.24137931 12.4852319,1.17241379 C18.0734639,5.73103448 56.9487229,37.4965517 56.9487229,37.4965517 C56.9487229,37.4965517 56.8725512,57.1241379 56.8725512,57.5103448 C56.7202078,58.5931034 56.0969849,59.3655172 55.0859789,59.6 C54.0818976,59.9034483 53.0708916,59.6758621 52.2953253,58.8206897 C51.3674157,57.7448276 9.53531024,11.6827586 4.18251807,5.80689655 C3.56621988,5.11034483 2.94299699,4.57241379 2.00816265,4.8 C1.39186446,5.03448276 0.844813253,5.42068966 0.304686747,5.73103448 C0.45703012,4.64827586 1.23259639,3.8 2.3197741,3.25517241 Z" id="d38kfDzm7A"></path>
                </g>
                <g id="d38kfDzm7A-link" fill="#000000" fill-opacity="0" stroke="#000000" stroke-opacity="0" stroke-width="0.5">
                    <path d="M2.3197741,3.25517241 C4.49412952,2.33103448 6.66848494,1.48275862 8.84284036,0.551724138 C10.1585331,0.0137931034 11.3980542,0.24137931 12.4852319,1.17241379 C18.0734639,5.73103448 56.9487229,37.4965517 56.9487229,37.4965517 C56.9487229,37.4965517 56.8725512,57.1241379 56.8725512,57.5103448 C56.7202078,58.5931034 56.0969849,59.3655172 55.0859789,59.6 C54.0818976,59.9034483 53.0708916,59.6758621 52.2953253,58.8206897 C51.3674157,57.7448276 9.53531024,11.6827586 4.18251807,5.80689655 C3.56621988,5.11034483 2.94299699,4.57241379 2.00816265,4.8 C1.39186446,5.03448276 0.844813253,5.42068966 0.304686747,5.73103448 C0.45703012,4.64827586 1.23259639,3.8 2.3197741,3.25517241 Z" id="d38kfDzm7A"></path>
                </g>
            </g>
        </g>
    </g>
</svg>