<?xml version="1.0" encoding="UTF-8"?>
<svg width="90px" height="90px" viewBox="0 0 90 90" version="1.1" xmlns="http://www.w3.org/2000/svg" xmlns:xlink="http://www.w3.org/1999/xlink">
    <!-- Generator: Sketch 52.6 (67491) - http://www.bohemiancoding.com/sketch -->
    <title>wellsfargo</title>
    <desc>Created with Sketch.</desc>
    <g id="wellsfargo" stroke="none" stroke-width="1" fill="none" fill-rule="evenodd">
        <g id="Wells_Fargo_Bank" transform="translate(5.000000, 26.000000)" fill="#B31E30" fill-rule="nonzero">
            <path d="M27.3685505,2.26853663 L27.3685505,6.68179505 L28.377899,6.68179505 C29.6517525,6.68179505 30.2295139,6.06226832 30.2295139,4.32898416 L30.2295139,4.05750495 L31.7122,4.05750495 L31.7122,10.9071109 L30.2295139,10.9071109 L30.2295139,10.6147505 C30.2295139,8.89538812 29.6517525,8.24105248 28.377899,8.24105248 L27.3685505,8.24105248 L27.3685505,13.1763911 L31.6008257,13.1763911 C33.5290327,13.1763911 34.2251218,11.9025287 34.4548416,9.46618713 L35.9932149,9.46618713 L35.9932149,14.7495703 L22.0921416,14.7495703 L22.0921416,13.1763911 L23.268536,13.1763911 C23.9994456,13.1763911 24.3892606,12.9745208 24.3892606,11.7006614 L24.3892606,3.46582475 C24.3892606,2.54697525 23.9715929,2.26853663 22.9900968,2.26853663 L22.5585287,2.26853663 C21.5491802,2.26853663 21.0688743,2.50520693 20.7138644,3.55631782 L16.8783703,14.7495703 L13.9617168,14.7495703 L11.7411554,7.45446436 L11.6994554,7.45446436 L9.23525545,14.7495703 L6.28379901,14.7495703 L2.30212772,3.02032178 C2.12802673,2.4425604 1.82877228,2.26853663 1.02130891,2.26853663 L0.728951485,2.26853663 L0.728951485,0.702316832 L6.86853168,0.702316832 L6.86853168,2.26853663 L5.97752574,2.26853663 C5.51113861,2.26853663 5.3231901,2.54697525 5.3231901,2.82541386 C5.3231901,3.03424356 5.39981485,3.2987604 5.51113861,3.59112079 L8.17023762,11.4291822 L8.21193465,11.4291822 L10.7457406,4.05750495 L10.3907277,3.05512475 C10.1749446,2.42863861 9.75032871,2.26853663 9.13079307,2.26853663 L8.62960297,2.26853663 L8.62960297,0.702316832 L14.9710475,0.702316832 L14.9710475,2.26853663 L13.8503426,2.26853663 C13.4187584,2.26853663 13.2516941,2.45648218 13.2516941,2.73492079 C13.2516941,2.9507099 13.3561178,3.25003267 13.425795,3.4519 L15.7507505,11.2899644 L15.7924475,11.2899644 L18.4933178,3.63288911 C18.5768931,3.38229109 18.6533426,3.17346139 18.6533426,2.90894455 C18.6533426,2.57481881 18.4933178,2.26853663 17.7484208,2.26853663 L16.7251535,2.26853663 L16.7251535,0.702316832 L35.9932149,0.702316832 L35.9931436,5.50538812 L34.412999,5.50538812 C34.0927891,3.47278416 33.9118089,2.26853663 31.0926139,2.26853663 L27.3685505,2.26853663 Z M50.4581337,14.7495703 L50.4581337,9.46618713 L48.8362208,9.46618713 C48.6204376,11.8816475 48.1818822,13.1763911 45.9822228,13.1763911 L42.7871307,13.1763911 L42.7871307,3.24307327 C42.7871307,2.46344455 43.1073406,2.26853663 44.040097,2.26853663 L45.2304287,2.26853663 L45.2304287,0.702316832 L37.4689327,0.702316832 L37.4689327,2.26853663 L38.6940673,2.26853663 C39.5433198,2.26853663 39.8287089,2.54697525 39.8287089,3.18738614 L39.8287089,12.2366574 C39.8287089,12.9745208 39.4249743,13.1763911 38.8263257,13.1763911 L37.4689327,13.1763911 L37.4689327,14.7495703 L50.4581337,14.7495703 Z M64.8743158,14.7495703 L64.8743158,9.46618713 L63.2454525,9.46618713 C63.0296515,11.8816475 62.577198,13.1763911 60.4053733,13.1763911 L57.2033129,13.1763911 L57.2033129,3.24307327 C57.2033129,2.46344455 57.5235228,2.26853663 58.456297,2.26853663 L59.6396604,2.26853663 L59.6396604,0.702316832 L51.871199,0.702316832 L51.871199,2.26853663 L53.103299,2.26853663 C53.959502,2.26853663 54.2449089,2.54697525 54.2449089,3.18738614 L54.2449089,12.2366574 C54.2449089,12.9745208 53.8342089,13.1763911 53.2425257,13.1763911 L51.871199,13.1763911 L51.871199,14.7495703 L64.8743158,14.7495703 Z M75.5663812,1.76038416 C75.4341554,1.62812277 74.1393822,0.284657426 71.6125446,0.284657426 C68.9604139,0.284657426 66.2804307,1.62812574 66.2804307,4.5099703 C66.2804307,7.12033564 68.3617653,8.31066436 70.7563416,8.82577624 C71.5498891,8.99284059 72.0232446,9.08333366 72.7471861,9.23647327 C74.5431139,9.6193297 75.7404139,10.1622851 75.7404139,11.408301 C75.7404139,12.3549941 74.7380307,13.371296 72.7541366,13.371296 C69.9836812,13.371296 68.3408812,11.8259574 67.999802,9.46618713 L66.3709208,9.46618713 L66.3709208,14.7495703 L67.8118535,14.7495703 L68.2782436,13.4896327 C68.6193198,13.7889554 69.9697446,15.1672297 72.5383535,15.1672297 C75.8100168,15.1672297 78.2811673,13.7123842 78.2811673,10.837502 C78.2811673,8.0531099 75.9770812,6.85581881 73.1648366,6.29197921 C72.6636465,6.16668614 72.2042248,6.09011188 71.6891188,5.97177525 C69.9419099,5.59588119 68.8211842,5.16430297 68.8211842,3.91132475 C68.8211842,2.82541386 69.9697446,2.08058812 71.6960663,2.08058812 C74.2925277,2.08058812 75.2949109,3.73033861 75.830904,5.50538812 L77.4110485,5.50538812 L77.4110485,0.702316832 L76.2694386,0.702316832 L75.5663812,1.76038416 Z M11.0937851,36.6488129 L11.0937851,35.0686683 L10.0357178,35.0686683 C9.05422178,35.0686683 8.69225842,34.7763079 8.69225842,33.9827574 L8.69225842,30.1542168 L9.5623802,30.1542168 C10.878002,30.1542168 11.448798,30.7250188 11.448798,32.2146673 L11.448798,32.6810545 L12.9245337,32.6810545 L12.9245337,26.214305 L11.448798,26.214305 L11.448798,26.4927436 C11.448798,27.5856168 11.0520139,28.587997 9.68767327,28.587997 L8.69225842,28.587997 L8.69225842,24.1608139 L11.4557663,24.1608139 C14.5673158,24.1608139 14.8944762,25.7270337 15.1033089,27.3907089 L16.620798,27.3907089 L16.620798,22.5945941 L3.32534158,22.5945941 L3.32534158,24.1608139 L4.73145347,24.1608139 C5.36490495,24.1608139 5.71991782,24.4462149 5.71991782,24.9543673 L5.71991782,34.0314851 C5.71991782,34.6231683 5.39970792,35.0686683 4.64791386,35.0686683 L3.32534158,35.0686683 L3.32534158,36.6488129 L11.0937851,36.6488129 Z M69.9210257,22.1699752 C65.3128505,22.1699752 62.2639564,25.3929079 62.2639564,29.6182238 C62.2639564,33.8365772 65.3128505,37.0873535 69.9210257,37.0873535 C74.5152792,37.0873535 77.5711446,33.8365772 77.5711446,29.6182238 C77.5711446,25.3929079 74.5152792,22.1699752 69.9210257,22.1699752 Z M69.9210257,23.8266881 C73.2483762,23.8266881 74.2437911,26.590196 74.2437911,29.6182238 C74.2437911,32.6462485 73.2483762,35.4167188 69.9210257,35.4167188 C66.5727881,35.4167188 65.5843416,32.6462485 65.5843416,29.6182238 C65.5843416,26.590196 66.5727881,23.8266881 69.9210257,23.8266881 Z M56.9596772,23.7431634 C56.653401,23.4716871 55.3377792,22.1699842 52.7413356,22.1699842 C48.5856168,22.1699842 45.9752545,25.3372297 45.9752545,29.6182327 C45.9752545,33.9340386 48.6273851,37.0873624 52.7413356,37.0873624 C55.386498,37.0873624 56.8204653,35.8761525 57.1476257,35.5768297 L57.9342228,36.6488218 L59.3751376,36.6488218 L59.3751376,31.7761356 C59.3751376,30.9477792 59.6814317,30.7250277 60.5028139,30.7250277 L60.8926267,30.7250277 L60.8926267,29.1518455 L54.405005,29.1518455 L54.405005,30.7250277 L55.3656139,30.7250277 C56.0617208,30.7250277 56.4863396,31.0382723 56.4863396,31.7204485 L56.4863396,32.5418426 C56.4863396,34.1498307 55.4978752,35.2705475 53.3469347,35.2705475 C50.6530327,35.2705475 49.3026079,32.8481248 49.3026079,29.6182327 C49.3026079,26.4370653 50.6530327,24.0007208 53.263395,24.0007208 C55.9851495,24.0007208 56.9109554,26.5345178 57.224197,27.3907178 L58.9644376,27.3907178 L58.9644376,22.594603 L57.4817515,22.594603 L56.9596772,23.7431634 Z M45.272197,33.3493149 L45.272197,33.7321713 C45.272197,36.1545911 44.1166713,37.0873624 42.3625149,37.0873624 C40.3090119,37.0873624 39.6198733,36.098904 39.6198733,34.1846337 L39.6198733,33.4537327 C39.6198733,31.0382723 38.5896584,30.0637327 36.2368505,30.0637327 L35.123096,30.0637327 L35.123096,34.3099327 C35.123096,34.8737723 35.3806475,35.0686772 35.9932149,35.0686772 L37.5385564,35.0686772 L37.5385564,36.6488218 L23.5052227,36.6488218 L23.5052227,35.0686772 L25.0644822,35.0686772 C25.4960485,35.0686772 25.6561624,34.9642713 25.6561624,34.7136673 C25.6561624,34.5814089 25.6144624,34.3656198 25.5308871,34.1359059 C25.4542594,33.9479604 24.7930267,32.1381079 24.7930267,32.1381079 L19.7811228,32.1381079 C19.7811228,32.1381079 19.1616079,33.8087426 19.0571812,34.0871812 C18.987504,34.2960109 18.9319059,34.4700347 18.9319059,34.671902 C18.9319059,34.9712248 19.1824921,35.0686772 19.6001604,35.0686772 L21.0898149,35.0686772 L21.0898149,36.6488218 L14.4768792,36.6488218 L14.4768792,35.0686772 C15.597605,35.0686772 16.3076099,34.9085842 16.7043941,33.9270792 L21.1872554,22.594603 L23.8811556,22.594603 L28.4754109,33.9270792 C28.8582584,34.9225 29.5822,35.0686772 30.7029228,35.0686772 L31.2737188,35.0686772 C31.8793178,35.0686772 32.1508089,34.8737723 32.1508089,34.3099327 L32.1508089,24.9265327 C32.1508089,24.3626901 31.935005,24.1608228 31.2737188,24.1608228 L29.798001,24.1608228 L29.798001,22.594603 L39.0282465,22.594603 C42.0910772,22.594603 43.5320129,24.0424861 43.5320129,26.235195 C43.5320129,28.9569376 40.8241921,29.4929337 39.5572891,29.5625426 L39.5572891,29.5973455 C41.0399752,29.7087228 42.2929446,30.3212871 42.2929446,32.4861525 L42.2929446,33.3075495 C42.2929446,34.7484703 42.5992356,35.0686772 43.1073941,35.0686772 C43.6085842,35.0686772 43.8730891,34.671902 43.8730891,33.7321683 L43.8730891,33.3493149 L45.272197,33.3493149 Z M24.2152294,30.5788475 L22.3218436,25.4625257 L22.259295,25.4625257 L20.3659089,30.5788475 L24.2152294,30.5788475 Z M40.580503,26.3256881 C40.580503,25.0935941 39.6964475,24.1608228 37.7334554,24.1608228 L35.123096,24.1608228 L35.123096,28.4975129 L37.7334554,28.4975129 C39.5433198,28.4975129 40.580503,27.6830812 40.580503,26.3256881 Z" id="path20"></path>
        </g>
    </g>
</svg>