<?xml version="1.0" encoding="UTF-8"?>
<svg width="89px" height="89px" viewBox="0 0 89 89" version="1.1" xmlns="http://www.w3.org/2000/svg" xmlns:xlink="http://www.w3.org/1999/xlink">
    <!-- Generator: Sketch 50.2 (55047) - http://www.bohemiancoding.com/sketch -->
    <title>wells</title>
    <desc>Created with Sketch.</desc>
    <defs></defs>
    <g id="Page-1" stroke="none" stroke-width="1" fill="none" fill-rule="evenodd">
        <g id="wells">
            <rect id="biz_act" fill="#CD1309" x="0" y="0" width="89" height="89" rx="8"></rect>
            <g id="Wells_Fargo_Bank" transform="translate(7.000000, 8.000000)" fill-rule="nonzero">
                <polygon id="Shape" fill="#CD1309" points="0 0 77 0 77 77 0 77"></polygon>
                <path d="M18.7057226,45.2889659 C18.7057226,44.4083127 18.5881668,43.6386937 18.2354995,42.9779317 C17.7652764,42.4271153 16.9412221,42.3193469 15.6469447,42.3193469 L12.7057226,42.3193469 L12.7057226,45.6188026 L13.6473327,45.6188026 C15.0591659,45.6188026 15.2942774,45.2889659 15.2942774,43.6397823 L16.470999,43.6397823 L16.470999,49.1403266 L15.2942774,49.1403266 C15.2942774,47.2690747 15.0591659,46.8292924 13.6473327,46.8292924 L12.7057226,46.8292924 L12.7057226,49.691143 C12.7057226,50.6817417 12.8232784,50.6817417 13.8824442,50.6817417 L15.1767216,50.6817417 L15.1767216,52 L8,52 L8,50.6817417 L8.70533463,50.6817417 C9.64694471,50.6817417 9.99961203,50.5707076 9.99961203,49.691143 C9.99961203,43.1978229 9.99961203,49.691143 9.99961203,43.1978229 C9.99961203,42.3193469 9.6457808,42.2094013 8.70533463,42.2094013 L8,42.2094013 L8,41 C20,41 8,41 20,41 L20,45.2900544 L18.7057226,45.2900544 L18.7057226,45.2889659 Z" id="Shape" fill="#FFFF00"></path>
                <path d="M43,49.4731225 L42.0081328,49.4731225 C42.0081328,50.7667378 42.0081328,51.3559092 41.3476147,51.3559092 C41.0173556,51.3559092 40.6870965,51.0007762 40.6870965,50.2963322 C40.6870965,50.0599651 40.6870965,49.8259266 40.6870965,49.7071609 C40.5770101,48.0607413 40.2467511,47.3539686 38.373103,46.7647972 C40.4658338,46.5307588 41.6778737,45.4711818 41.6778737,43.8247623 C41.6778737,41.8232098 40.3557475,41 37.6014086,41 L30,41 L30,42.2936154 L30.8817808,42.2936154 C31.873648,42.2936154 31.9837344,42.4123811 31.9837344,43.3508636 L31.9837344,50.2963322 C31.9837344,51.119542 31.5433889,51.3559092 30.8817808,51.3559092 L30.1100864,51.3559092 C29.4495682,51.3559092 29.1182192,51.119542 28.7879601,50.2963322 L25.2630167,41 L22.6187641,41 L18.8725581,50.2963322 C18.542299,51.119542 18.3221263,51.3559092 17.4403454,51.3559092 L17,51.3559092 L17,52.7659616 L22.7288505,52.7659616 L22.7288505,51.3559092 L21.5168106,51.3559092 C20.9663788,51.3559092 20.6350298,51.3559092 20.6350298,51.0007762 C20.6350298,50.8820105 20.7451161,50.6479721 20.8552025,50.4116049 L21.4056343,48.9992238 L25.5921858,48.9992238 L26.1426176,50.2951679 C26.2527039,50.5292063 26.2527039,50.7655735 26.2527039,50.8820105 C26.2527039,51.3547448 25.9224449,51.3547448 25.3709231,51.3547448 L24.1588832,51.3547448 L24.1588832,52.7647972 L36.6073614,52.7647972 L36.6073614,51.3547448 L35.6154943,51.3547448 C34.6236271,51.3547448 34.5135407,51.3547448 34.5135407,50.2951679 L34.5135407,47.2340384 L35.6154943,47.2340384 C37.4880523,47.2340384 38.0395741,47.5891714 38.1496604,49.5872307 L38.1496604,50.8808461 C38.2597468,52.5295944 39.251614,53 40.793913,53 C42.1149493,53 42.9967301,52.1767902 42.9967301,49.9388706 C43,49.8247623 43,49.5883951 43,49.4731225 Z M21.8481596,47.5891714 L23.6106313,43.1156608 L25.2630167,47.5891714 L21.8481596,47.5891714 Z M36.8308041,45.8228217 L34.5168106,45.9415874 L34.5168106,42.2936154 L36.8308041,42.2936154 C38.373103,42.2936154 39.1447975,42.764021 39.1447975,44.0588007 L39.1447975,44.1775665 C39.1437076,45.3524161 38.373103,45.8228217 36.8308041,45.8228217 Z" id="Shape" fill="#FFFF00"></path>
                <path d="M52.2727763,44.9223744 C51.7266841,43.1917808 50.636658,42.3847032 48.891537,42.3847032 C47.146416,42.3847032 45.7272237,43.8847032 45.7272237,46.8835616 C45.7272237,49.8847032 46.818329,51.3847032 48.891537,51.4988584 C50.3096501,51.4988584 51.6187607,50.6917808 51.6187607,49.423516 L51.6187607,48.7305936 C51.6187607,47.923516 51.5086788,47.923516 50.4186528,47.923516 L49.8736397,47.923516 L49.8736397,46.6552511 L55,46.6552511 L55,47.923516 L54.5639896,47.923516 C53.8009713,47.923516 53.6908895,47.923516 53.6908895,48.847032 L53.6908895,52.6552511 L52.7087868,52.6552511 L52.1626945,51.7317352 C51.1805918,52.5388128 49.7624786,53 48.4533681,53 C46.9262524,53 45.7261444,52.4223744 44.745121,51.2694064 C43.6540156,50.1141553 43,48.6141553 43,46.8835616 C43,45.0376712 43.545013,43.652968 44.6361184,42.5 C45.6182211,41.4611872 47.0363342,41 48.56345,41 C49.7624786,41 51.181671,41.3458904 51.9446893,42.2682648 L52.4897023,41 L53.3628024,41 L53.3628024,44.9223744 L52.2727763,44.9223744 Z" id="Shape" fill="#FFFF00"></path>
                <path d="M62.0512474,53 C58.6668922,53 56,50.670317 56,46.9412104 C56,43.329683 58.6668922,41 62.0512474,41 C65.4356025,41 68,43.329683 68,47.0587896 C68,50.670317 65.4356025,53 62.0512474,53 Z M65.5380973,47.0587896 C65.5380973,42.8639769 63.0761945,42.3982709 62.0502326,42.3982709 C60.1018182,42.3982709 58.5623679,44.0305476 58.5623679,47.0587896 C58.5623679,50.0870317 60.1018182,51.7193084 62.0502326,51.7193084 C63.0772093,51.7193084 65.5380973,51.1360231 65.5380973,47.0587896 Z" id="Shape" fill="#FFFF00"></path>
                <path d="M45.153934,33.9094776 C44.8080107,34.5689553 43.9997146,34.6799565 42.6148796,34.6799565 L39.729902,34.6799565 L39.729902,27.3103482 C39.729902,26.4310447 39.9616592,26.3200435 41.1147369,26.3200435 L41.923033,26.3200435 L41.923033,25 L35,25 L35,26.3200435 L35.5765389,26.3200435 C36.6154505,26.3200435 37.1919893,26.3200435 37.1919893,27.3103482 L37.1919893,33.8006529 C37.1919893,34.6799565 36.7307583,34.7898694 35.6918466,34.7898694 L35.1141661,34.7898694 L35.1141661,36 L47,36 L47,31.6002176 C47,31.6002176 45.8457806,31.6002176 45.6151651,31.6002176 C45.6151651,32.5894341 45.4998573,33.25 45.153934,33.9094776 Z" id="Shape" fill="#FFFF00"></path>
                <path d="M30.2099511,34.6809142 L26.7445798,34.6809142 L26.7445798,30.9402394 L27.5032325,30.9402394 C28.8030146,30.9402394 29.0194664,31.1600871 29.1276923,33.0298803 L30.3192485,33.0298803 L30.3192485,27.5293361 L29.1276923,27.5293361 C29.0194664,29.1792817 28.8030146,29.6189769 27.5032325,29.6189769 L26.7445798,29.6189769 L26.7445798,26.3190858 L29.6688217,26.3190858 C31.8344108,26.3190858 32.4848377,26.758781 32.5930635,29.2892055 L33.7846198,29.2892055 L33.7846198,25 C22.4123299,25 33.1352645,25 23.0627567,25 L17.7554024,25 L17.7554024,26.3201741 L18.5140551,26.3201741 C19.1634104,26.3201741 19.3809337,26.4311863 19.3809337,26.7598694 C19.3809337,26.9808054 19.3809337,27.200653 19.2727078,27.6403483 L17.2153445,33.1408925 C17.2153445,33.1408925 17.2153445,33.1408925 17.1071186,33.1408925 C16.1320141,30.3906204 14.832232,27.200653 14.832232,27.200653 C14.7240061,26.9808054 14.7240061,26.8697932 14.7240061,26.7598694 C14.7240061,26.430098 14.9404579,26.3201741 15.4826589,26.3201741 L16.3495375,26.3201741 L16.3495375,25 L10.6092796,25 L10.6092796,26.3201741 L11.3679323,26.3201741 C12.2348109,26.3201741 12.5594885,26.7598694 12.6677144,27.6403483 L10.5021252,33.1408925 C10.5021252,33.1408925 10.5021252,33.1408925 10.3938993,33.1408925 C9.41879487,30.1707727 8.11901275,27.0907292 8.11901275,27.0907292 C8.01078687,26.9808054 8.11901275,26.8708816 8.11901275,26.7609578 C8.01078687,26.4311863 8.33546451,26.3212625 8.98589135,26.3212625 L9.41879487,26.3212625 L9.41879487,25 L4,25 L4,26.3201741 L4.21645176,26.3201741 C4.97510448,26.3201741 5.62338822,26.7598694 5.94913741,27.7502721 L9.19805693,36 L11.1471943,36 L13.5303068,29.9498367 L16.0216452,36 L17.9707826,36 L21.0032503,27.6392599 C21.4361539,26.6488572 21.6526056,26.3190858 22.6277101,26.3190858 L22.735936,26.3190858 C23.7110405,26.3190858 24.2521699,26.3190858 24.2521699,27.3094885 C24.2521699,33.8004353 24.2521699,27.3094885 24.2521699,33.8004353 C24.2521699,34.6798259 23.7110405,34.7897497 22.735936,34.7897497 L22.0865807,34.7897497 L22.0865807,36 L34,36 L34,31.5997823 L32.7002179,31.5997823 C32.5930635,33.8015237 32.1590885,34.6809142 30.2099511,34.6809142 Z" id="Shape" fill="#FFFF00"></path>
                <path d="M58.6163067,31.6002176 C58.6163067,32.5905224 58.500999,33.25 58.153934,33.9105659 C57.8080107,34.5700435 57.0008562,34.6810447 55.6160213,34.6810447 L52.8463514,34.6810447 L52.8463514,27.3114365 C52.8463514,26.432133 53.076967,26.3211318 54.1158786,26.3211318 L55.0394824,26.3211318 L55.0394824,25 L48,25 L48,26.3200435 L48.8082961,26.3200435 C49.7318999,26.3200435 50.1919893,26.3200435 50.1919893,27.3103482 L50.1919893,33.8006529 C50.1919893,34.6799565 49.846066,34.7898694 48.8082961,34.7898694 L48.5765389,34.7898694 L48.5765389,36 L60,36 L60,31.6002176 C60,31.6002176 58.8469223,31.6002176 58.6163067,31.6002176 Z" id="Shape" fill="#FFFF00"></path>
                <path d="M70,32.423516 C70,35.0776256 67.8947456,36 64.8531795,36 C62.9817136,36 61.1102478,34.9611872 60.7584076,34.6152968 L60.2908304,35.7694064 L59.1207303,35.7694064 L59.1207303,31.1541096 L60.524619,31.1541096 C60.8753018,33.3458904 62.3960849,34.2694064 64.5024967,34.3847032 C66.3739625,34.5 67.660957,34.0388128 67.7778513,32.7694064 C68.0116398,31.2694064 66.3739625,31.3847032 64.9712312,31.1541096 L62.9817136,30.8082192 C60.0581992,30.2305936 59.0049933,29.423516 59.0049933,27.4611872 C58.8869417,25.3847032 60.8764592,24 63.4492908,24 C64.7362852,24 66.3739625,24.2305936 67.5440627,25.1541096 L68.1285341,24.2305936 L69.18174,24.2305936 L69.18174,28.2694064 L67.8947456,28.2694064 C67.660957,26.0776256 65.3207566,25.3847032 63.4492908,25.3847032 C62.045402,25.5011416 61.2271421,26.1929224 61.2271421,27.1164384 C61.2271421,28.0388128 62.045402,28.1552511 63.0986079,28.3858447 L65.5545452,28.7317352 C68.1285341,29.1929224 70,29.6552511 70,32.423516 Z" id="Shape" fill="#FFFF00"></path>
            </g>
        </g>
    </g>
</svg>