<?xml version="1.0" encoding="UTF-8"?>
<svg width="80px" height="80px" viewBox="0 0 80 80" version="1.1" xmlns="http://www.w3.org/2000/svg" xmlns:xlink="http://www.w3.org/1999/xlink">
    <!-- Generator: Sketch 52.6 (67491) - http://www.bohemiancoding.com/sketch -->
    <title>youtube</title>
    <desc>Created with Sketch.</desc>
    <g id="youtube" stroke="none" stroke-width="1" fill="none" fill-rule="evenodd">
        <circle id="Oval-Copy" stroke="#5042D3" stroke-width="2" fill="#EDDBFB" cx="40" cy="39" r="30"></circle>
        <path d="M12.9553195,26 L67.0446889,26 C68.9386734,29.9330065 70,34.3425602 70,39 C70,43.6574398 68.9386734,48.0669935 67.0446796,52.0000019 L12.9553195,52 C11.0613262,48.0669921 10,43.6574391 10,39 C10,34.3425609 11.0613262,29.9330079 12.9553195,26 Z" id="Combined-Shape" fill="#000099"></path>
        <path d="M40.2115367,31 C40.265468,31 40.3253917,31 40.3773255,31 C41.0125161,33.1002562 41.6337246,35.2204768 42.2908872,37.306758 C44.3902122,37.306758 46.4935321,37.306758 48.5928571,37.306758 C48.5928571,37.356669 48.5928571,37.4185587 48.5928571,37.4724626 C46.8430867,38.7042669 45.1612298,40.0119359 43.5333041,41.3735088 C44.1105685,43.4777579 44.841637,45.4302775 45.3589778,47.5984127 C45.307044,47.5984127 45.2451229,47.5984127 45.193189,47.5984127 C43.647159,46.2887472 41.9872741,45.1028611 40.3773255,43.8610746 C38.6155703,44.9950533 37.041576,46.3266796 35.4016655,47.5984127 C35.3457368,47.5984127 35.2898081,47.5984127 35.2358768,47.5984127 C35.825126,45.4702063 36.4822886,43.4178647 37.1454436,41.3735088 C35.469579,40.0019537 33.7138162,38.7182419 32,37.3886121 C32,37.356669 32,37.3367046 32,37.3087544 C34.1013225,37.3087544 36.2026449,37.3087544 38.3079623,37.3087544 C38.9691198,35.2424377 39.6442596,33.1681352 40.2115367,31 Z" id="Shape" stroke="#000099" stroke-width="0.75" fill="#F4F0ED" fill-rule="nonzero"></path>
        <circle id="Oval-Copy" stroke="#5042D3" stroke-width="2" fill="#EDDBFB" cx="40" cy="39" r="30"></circle>
        <path d="M12.9553195,26 L67.0446889,26 C68.9386734,29.9330065 70,34.3425602 70,39 C70,43.6574398 68.9386734,48.0669935 67.0446796,52.0000019 L12.9553195,52 C11.0613262,48.0669921 10,43.6574391 10,39 C10,34.3425609 11.0613262,29.9330079 12.9553195,26 Z" id="Combined-Shape" fill="#000099"></path>
        <path d="M33,31 L48,31 C49.1045695,31 50,31.8954305 50,33 L50,45 C50,46.1045695 49.1045695,47 48,47 L33,47 C31.8954305,47 31,46.1045695 31,45 L31,33 C31,31.8954305 31.8954305,31 33,31 Z M44.5,39 L38.5,42.5 L38.5,35.5 L44.5,39 Z" id="Rectangle-2" fill="#F4F0ED"></path>
    </g>
</svg>