<?xml version="1.0" encoding="UTF-8"?>
<svg width="80px" height="80px" viewBox="0 0 80 80" version="1.1" xmlns="http://www.w3.org/2000/svg" xmlns:xlink="http://www.w3.org/1999/xlink">
    <!-- Generator: Sketch 52.6 (67491) - http://www.bohemiancoding.com/sketch -->
    <title>youtube</title>
    <desc>Created with Sketch.</desc>
    <g id="youtube" stroke="none" stroke-width="1" fill="none" fill-rule="evenodd">
        <path d="M11.9553195,27 L66.0446889,27 C67.9386734,30.9330065 69,35.3425602 69,40 C69,44.6574398 67.9386734,49.0669935 66.0446796,53.0000019 L11.9553195,53 C10.0613262,49.0669921 9,44.6574391 9,40 C9,35.3425609 10.0613262,30.9330079 11.9553195,27 Z" id="Combined-Shape" fill="#000099"></path>
        <circle id="Oval-Copy" fill="#EDDBFB" cx="39" cy="40" r="30"></circle>
        <path d="M11.9553195,27 L66.0446889,27 C67.9386734,30.9330065 69,35.3425602 69,40 C69,44.6574398 67.9386734,49.0669935 66.0446796,53.0000019 L11.9553195,53 C10.0613262,49.0669921 9,44.6574391 9,40 C9,35.3425609 10.0613262,30.9330079 11.9553195,27 Z" id="Combined-Shape" fill="#000099"></path>
        <circle id="Oval-Copy-2" stroke="#5042D3" stroke-width="2" cx="39" cy="41" r="30"></circle>
        <path d="M32,33 L47,33 C48.1045695,33 49,33.8954305 49,35 L49,47 C49,48.1045695 48.1045695,49 47,49 L32,49 C30.8954305,49 30,48.1045695 30,47 L30,35 C30,33.8954305 30.8954305,33 32,33 Z M43.5,41 L37.5,44.5 L37.5,37.5 L43.5,41 Z" id="Rectangle-2" fill="#FFFFFF"></path>
    </g>
</svg>