<?xml version="1.0" encoding="UTF-8"?>
<svg width="160px" height="112px" viewBox="0 0 160 112" version="1.1" xmlns="http://www.w3.org/2000/svg" xmlns:xlink="http://www.w3.org/1999/xlink">
    <!-- Generator: Sketch 52.6 (67491) - http://www.bohemiancoding.com/sketch -->
    <title>youtube</title>
    <desc>Created with Sketch.</desc>
    <defs>
        <linearGradient x1="49.9804764%" y1="8.68053889e-07%" x2="49.9804764%" y2="100.030167%" id="linearGradient-1">
            <stop stop-color="#E52D27" offset="0%"></stop>
            <stop stop-color="#BF171D" offset="100%"></stop>
        </linearGradient>
    </defs>
    <g id="youtube" stroke="none" stroke-width="1" fill="none" fill-rule="evenodd">
        <g>
            <polygon id="Path" fill="#FFFFFF" points="64 77 107 54.5938804 64 32"></polygon>
            <polygon id="Path" fill="#420000" opacity="0.12" points="64 32 101.718208 57 107 54.2839506"></polygon>
            <path d="M158.313159,24.1422222 C158.313159,24.1422222 156.751269,13.1911111 151.940648,8.33777778 C145.880516,1.99111111 139.070676,1.99111111 135.88442,1.61777778 C113.580633,0 80.0312375,0 80.0312375,0 L79.9687625,0 C79.9687625,0 46.4193674,0 23.9906287,1.61777778 C20.8668489,1.99111111 14.057009,1.99111111 7.93440063,8.33777778 C3.18625537,13.1911111 1.62436548,24.1422222 1.62436548,24.1422222 C1.62436548,24.1422222 0,37.0844444 0,49.9644444 L0,62.0355556 C0,74.9155556 1.62436548,87.7955556 1.62436548,87.7955556 C1.62436548,87.7955556 3.18625537,98.7466667 7.99687625,103.6 C14.057009,109.946667 22.0538852,109.76 25.6149941,110.382222 C38.4224912,111.626667 79.9687625,112 79.9687625,112 C79.9687625,112 113.580633,111.937778 135.946896,110.32 C139.070676,109.946667 145.880516,109.946667 152.003124,103.6 C156.813744,98.7466667 158.375634,87.7955556 158.375634,87.7955556 C158.375634,87.7955556 160,74.9155556 160,62.0355556 L160,49.9644444 C159.937524,37.0844444 158.313159,24.1422222 158.313159,24.1422222 Z M63.475205,76.6577778 L63.475205,31.92 L106.708317,54.3822222 L63.475205,76.6577778 Z" id="Shape" fill="url(#linearGradient-1)" fill-rule="nonzero"></path>
        </g>
    </g>
</svg>