<?xml version="1.0" encoding="UTF-8"?>
<svg width="49px" height="35px" viewBox="0 0 49 35" version="1.1" xmlns="http://www.w3.org/2000/svg" xmlns:xlink="http://www.w3.org/1999/xlink">
    <!-- Generator: Sketch 52.6 (67491) - http://www.bohemiancoding.com/sketch -->
    <title>youtube2</title>
    <desc>Created with Sketch.</desc>
    <defs>
        <linearGradient x1="49.9804764%" y1="8.68053889e-07%" x2="49.9804764%" y2="100.030167%" id="linearGradient-1">
            <stop stop-color="#E52D27" offset="0%"></stop>
            <stop stop-color="#BF171D" offset="100%"></stop>
        </linearGradient>
    </defs>
    <g id="youtube2" stroke="none" stroke-width="1" fill="none" fill-rule="evenodd">
        <g id="youtube">
            <polygon id="Path" fill="#FFFFFF" points="20 24 33 17.0292072 20 10"></polygon>
            <polygon id="Path" fill="#420000" opacity="0.12" points="20 10 31.4031792 18 33 17.1308642"></polygon>
            <path d="M48.4834047,7.54444445 C48.4834047,7.54444445 48.0050762,4.12222222 46.5318236,2.60555556 C44.6759078,0.62222222 42.5903944,0.62222222 41.6146036,0.505555555 C34.7840687,0 24.5095665,0 24.5095665,0 L24.4904335,0 C24.4904335,0 14.2159313,0 7.34713003,0.505555555 C6.39047246,0.62222222 4.30495901,0.62222222 2.42991019,2.60555556 C0.975790705,4.12222222 0.497461928,7.54444445 0.497461928,7.54444445 C0.497461928,7.54444445 0,11.5888889 0,15.6138889 L0,19.3861111 C0,23.4111111 0.497461928,27.4361111 0.497461928,27.4361111 C0.497461928,27.4361111 0.975790705,30.8583333 2.44904335,32.375 C4.30495901,34.3583333 6.75400233,34.3 7.84459195,34.4944444 C11.7668879,34.8833333 24.4904335,35 24.4904335,35 C24.4904335,35 34.7840687,34.9805556 41.6337368,34.475 C42.5903944,34.3583333 44.6759078,34.3583333 46.5509566,32.375 C48.0242092,30.8583333 48.5025381,27.4361111 48.5025381,27.4361111 C48.5025381,27.4361111 49,23.4111111 49,19.3861111 L49,15.6138889 C48.980867,11.5888889 48.4834047,7.54444445 48.4834047,7.54444445 Z M19.4392815,23.9555556 L19.4392815,9.975 L32.679422,16.9944444 L19.4392815,23.9555556 Z" id="Shape" fill="url(#linearGradient-1)" fill-rule="nonzero"></path>
        </g>
    </g>
</svg>