<?xml version="1.0" encoding="UTF-8"?>
<svg width="94px" height="100px" viewBox="0 0 94 100" version="1.1" xmlns="http://www.w3.org/2000/svg" xmlns:xlink="http://www.w3.org/1999/xlink">
    <!-- Generator: Sketch 50.2 (55047) - http://www.bohemiancoding.com/sketch -->
    <title>batchgeo</title>
    <desc>Created with Sketch.</desc>
    <defs>
        <polygon id="path-1" points="-0.00029088754 0.549851141 93.5292848 0.549851141 93.5292848 99.8780977 -0.00029088754 99.8780977"></polygon>
    </defs>
    <g id="Page-1" stroke="none" stroke-width="1" fill="none" fill-rule="evenodd">
        <g id="batchgeo" transform="translate(0.000000, -0.550000)">
            <mask id="mask-2" fill="white">
                <use xlink:href="#path-1"></use>
            </mask>
            <g id="Clip-2"></g>
            <path d="M15.7238436,0.5498 C17.64033,1.09317115 14.7936988,13.520389 16.479854,14.869228 C17.1592554,15.4125992 21.7467265,12.5978087 22.2759338,12.3121873 C30.1669184,8.05241316 39.8370476,3.97060907 52.5163501,5.66388143 C74.9169385,8.65536336 91.436774,26.5682007 93.3409122,48.6221654 C94.3529581,60.3423616 91.148986,69.6313234 87.0408255,76.7496133 C84.6384764,80.9124756 81.9180989,85.0758493 78.220704,87.2334803 C79.3852121,77.1216627 79.7050045,62.5935802 79.7327248,52.4577265 C79.7795975,35.4360179 66.4964946,22.7198544 51.5083363,21.0061257 C49.3733629,20.7619283 46.8041875,20.8284114 45.2082495,21.0061257 C29.6359471,22.7410778 18.6863964,35.2030715 17.2358644,50.4120939 C16.9216161,53.7068409 17.3061734,56.3403371 17.9918748,59.6174405 C20.4179122,71.2125974 30.9509012,82.3408385 43.9482322,83.9093273 C51.7144751,84.8464827 57.7575183,82.6937102 62.8484924,80.8408785 C62.4009342,86.9314937 60.8659811,92.1256105 57.808423,95.4160105 C56.4642365,96.8625285 53.9006052,99.0572365 52.0123432,99.5072757 C49.3784029,100.134773 44.296249,99.8483849 41.176194,99.5072757 C20.4358045,97.2399477 2.24165798,78.7448722 0.351631958,56.0375835 C-0.440414947,46.5223236 0.351631958,35.7776385 0.351631958,25.3530949 C0.351631958,21.9445597 -0.288708858,17.9156863 0.351631958,15.1249321 C0.841022695,12.9921044 4.4802048,9.65439917 6.90372216,7.45380993 C10.1147504,4.53827211 13.1004875,2.48650264 15.7238436,0.5498" id="Fill-1" fill="#FF9933" mask="url(#mask-2)"></path>
            <path d="M45.7122565,38.1382985 C57.7192138,36.0151876 67.1239833,46.8544832 63.1004959,58.5946242 C58.4749722,72.0919637 36.1421727,71.0862795 33.8680934,55.7818795 C32.531215,46.7844203 37.7786832,39.5410911 45.7122565,38.1382985" id="Fill-4" fill="#FF9933" mask="url(#mask-2)"></path>
        </g>
    </g>
</svg>