<?xml version="1.0" encoding="UTF-8"?>
<svg width="89px" height="139px" viewBox="0 0 89 139" version="1.1" xmlns="http://www.w3.org/2000/svg" xmlns:xlink="http://www.w3.org/1999/xlink">
    <!-- Generator: Sketch 50.2 (55047) - http://www.bohemiancoding.com/sketch -->
    <title>clothing</title>
    <desc>Created with Sketch.</desc>
    <defs></defs>
    <g id="Page-1" stroke="none" stroke-width="1" fill="none" fill-rule="evenodd">
        <g id="clothing">
            <path d="M44.5,138.015964 C44.5,138.041334 44.5507412,138.092075 44.5507412,138.092075 C44.5507412,138.092075 89,69.8452109 89,47.4176169 C89,14.4104903 66.4709236,0.0507411631 44.5,0 C22.5290764,0.0507411631 0,14.4104903 0,47.4176169 C0,69.8452109 44.4746294,138.092075 44.4746294,138.092075 C44.4746294,138.092075 44.5,138.015964 44.5,138.015964 Z" id="law" fill="#A150E3" fill-rule="nonzero"></path>
            <g id="coat-hanger" transform="translate(44.684301, 33.664419) rotate(-6.000000) translate(-44.684301, -33.664419) translate(8.684301, 15.664419)" stroke="#F8E71C" stroke-width="3">
                <path d="M43.5976971,4.86255053 C43.0562815,2.93060305 42.04214,0.977339021 40.0323542,0.211629388 C38.6698044,-0.307487997 37.1085191,0.200216606 36.0320475,0.957774441 C34.5324529,2.01310343 34.153916,4.32444906 34.7949047,6.0398899 C35.4933023,7.90897384 37.8794633,8.98050792 37.6514061,11.2378169 C37.445623,13.2746713 37.1407389,15.3628728 37.3010793,17.3959987 C48.1417185,22.9392023 59.4896744,27.3784052 70.574726,32.3885742 C71.6477489,32.8735517 72.4174638,34.3521202 71.7522118,35.2851775 C70.8300961,36.5785017 68.8736416,35.7475698 67.477597,35.6180275 C45.5839363,33.5864526 23.6920817,31.2846443 1.81186973,29.026617 C0.797198963,28.9219044 -0.31201684,28.1027964 0.0811980677,26.9084902 C0.551666676,25.4795443 2.36075204,25.4194006 3.58877573,25.1258781 C14.6688695,22.4775126 25.8218197,20.1035333 36.9056053,17.4670994 C37.0370673,17.427768 37.1685292,17.3884379 37.2999912,17.3491078" id="path3698"></path>
            </g>
        </g>
    </g>
</svg>