<?xml version="1.0" encoding="UTF-8"?>
<svg width="89px" height="139px" viewBox="0 0 89 139" version="1.1" xmlns="http://www.w3.org/2000/svg" xmlns:xlink="http://www.w3.org/1999/xlink">
    <!-- Generator: Sketch 50.2 (55047) - http://www.bohemiancoding.com/sketch -->
    <title>edu</title>
    <desc>Created with Sketch.</desc>
    <defs></defs>
    <g id="Page-1" stroke="none" stroke-width="1" fill="none" fill-rule="evenodd">
        <g id="edu" fill-rule="nonzero">
            <path d="M44.5,138.015964 C44.5,138.041334 44.5507412,138.092075 44.5507412,138.092075 C44.5507412,138.092075 89,69.8452109 89,47.4176169 C89,14.4104903 66.4709236,0.0507411631 44.5,0 C22.5290764,0.0507411631 0,14.4104903 0,47.4176169 C0,69.8452109 44.4746294,138.092075 44.4746294,138.092075 C44.4746294,138.092075 44.5,138.015964 44.5,138.015964 Z" fill="#1B1464"></path>
            <g id="Vector_Book_blue" transform="translate(11.000000, 30.000000)" fill="#F8E71C">
                <path d="M2.54104608,26.3178119 C2.9461059,25.372404 10.9560777,6.93236572 11.3381879,5.97721723 C11.7208719,5.02206875 10.955504,4.59233787 10.621014,5.49992948 C10.2865241,6.40694811 0.819828734,27.1297168 0.293709965,28.3232226 C-0.231835065,29.5173015 -0.231835065,30.3286334 1.82387219,30.3286334 C3.87957944,30.3286334 30.1763381,30.3286334 30.1763381,30.3286334 L30.1763381,32 L36.8701523,32 L36.8701523,30.1853898 C36.8701523,30.1853898 64.600685,30.1853898 65.6047285,30.1853898 C66.6087719,30.1853898 67.5170009,29.9945893 66.6563923,28.179979 C65.7957836,26.3653688 56.9028273,6.74099224 56.472523,5.69072998 C56.0422186,4.64046773 55.229804,5.0701986 55.5642939,5.88210347 C55.8987838,6.69400833 64.1703807,25.5540369 64.5048706,26.4616285 C64.8393605,27.3686471 65.2696648,28.8010834 61.3969258,28.8010834 C56.1856534,28.8010834 47.0534479,25.1724359 43.0848944,25.1724359 C39.116341,25.1724359 35.3893317,27.5118908 33.5000088,29.9945893 C31.6106859,28.2281089 29.219915,25.1718629 24.1038833,25.1718629 C18.9878516,25.1718629 12.4856662,28.7529535 5.840046,28.7529535 C3.35403441,28.7529535 1.59552402,28.5254826 2.54104608,26.3178119 Z" id="Shape"></path>
                <path d="M61.5224734,24.4981765 C60.762557,22.4607843 53.3036323,2.93752941 53.3036323,2.93752941 C53.3036323,2.93752941 52.5910325,3.17464706 51.1185162,3.17464706 C46.3201541,3.17464706 40.9043956,0 38.7665962,0 C36.5335934,0 33.6130744,2.46386275 33.6130744,2.46386275 C33.6130744,2.46386275 30.2153985,0 28.6003623,0 C25.6074431,0 21.7120875,3.12745098 15.8687691,3.12745098 C14.5860894,3.12745098 13.826173,2.93809804 13.826173,2.93809804 C13.826173,2.93809804 5.89237174,23.8823529 5.32229189,25.3039216 C4.75221205,26.7254902 4.75164197,27.6733922 6.89001147,27.6733922 C12.0207301,27.6733922 21.2845276,23.0294118 24.1822435,23.0294118 C29.5027987,23.0294118 33.6130744,29 33.6130744,29 C33.6130744,29 38.1491997,23.0766078 42.9948784,23.0766078 C47.8405571,23.0766078 54.3964753,27.7677843 60.4296303,27.7677843 C62.2823899,27.7677843 62.2823899,26.5355686 61.5224734,24.4981765 Z M32.3058813,24.0717059 C32.3058813,24.0717059 29.740522,20.9442549 24.7050067,20.9442549 C19.4790847,20.9442549 11.6883735,25.4932745 9.50268741,25.4932745 C8.26732438,25.4932745 7.55472457,25.2089608 8.07748779,23.4558824 C8.60025101,21.7028039 14.8711293,4.9754902 14.8711293,4.9754902 C14.8711293,4.9754902 15.7747059,5.07045098 17.0562454,5.07045098 C22.8995638,5.07045098 25.0373632,2.36947059 28.4578423,2.36947059 C30.7854783,2.36947059 32.0208414,3.69607843 32.3058813,4.64398039 L32.3058813,24.0717059 Z M57.8112536,25.4932745 C55.6261376,25.4932745 47.8348563,20.9442549 42.6089343,20.9442549 C37.5734191,20.9442549 35.0080597,24.0717059 35.0080597,24.0717059 L35.0080597,4.64341176 C35.2930997,3.6955098 36.5284627,2.36890196 38.8560987,2.36890196 C42.2765778,2.36890196 44.4143772,5.06988235 50.2576956,5.06988235 C51.5392351,5.06988235 52.4428117,4.97492157 52.4428117,4.97492157 C52.4428117,4.97492157 58.71369,21.7022353 59.2364532,23.4553137 C59.7592164,25.2089608 59.0466166,25.4932745 57.8112536,25.4932745 Z" id="Shape"></path>
            </g>
        </g>
    </g>
</svg>