<?xml version="1.0" encoding="UTF-8"?>
<svg width="89px" height="139px" viewBox="0 0 89 139" version="1.1" xmlns="http://www.w3.org/2000/svg" xmlns:xlink="http://www.w3.org/1999/xlink">
    <!-- Generator: Sketch 50.2 (55047) - http://www.bohemiancoding.com/sketch -->
    <title>food</title>
    <desc>Created with Sketch.</desc>
    <defs></defs>
    <g id="Page-1" stroke="none" stroke-width="1" fill="none" fill-rule="evenodd">
        <g id="food" fill-rule="nonzero">
            <path d="M44.5,138.015964 C44.5,138.041334 44.5507412,138.092075 44.5507412,138.092075 C44.5507412,138.092075 89,69.8452109 89,47.4176169 C89,14.4104903 66.4709236,0.0507411631 44.5,0 C22.5290764,0.0507411631 0,14.4104903 0,47.4176169 C0,69.8452109 44.4746294,138.092075 44.4746294,138.092075 C44.4746294,138.092075 44.5,138.015964 44.5,138.015964 Z" fill="#F8E71C"></path>
            <g id="cutlery" transform="translate(24.000000, 14.000000)" fill="#1B1464">
                <path d="M18.0576988,30.1407084 C18.0576988,33.8713291 14.5394959,59.8153589 16.5324874,69.2367346 C17.3651818,73.1730847 21.7140264,72.6601776 22.4382193,69.2367346 C24.2774364,60.5422867 20.9849144,52.5403253 20.9849144,29.9347325 C20.9849144,26.8399856 23.3322093,26.7600363 24.6025121,22.7672294 C25.7367352,19.2021146 24.1355493,0.00224294975 23.6196186,0.00224294975 C23.0309082,0.00224294975 23.3190789,16.6290238 22.2030546,16.6290238 C21.077132,16.6290238 21.6465464,0.227730779 20.9344613,0.00224294975 C20.2223761,-0.223252593 20.7446441,16.6290238 19.4272172,16.6290238 C18.0964923,16.6290238 18.9613891,0.00224294975 18.2493,0.00224294975 C17.5372185,0.00224294975 17.7375607,16.6290238 16.6513761,16.6290238 C15.4556073,16.6290238 16.0982158,0.00224294975 15.5641463,0.00224294975 C14.656414,0.00224294975 13.5932425,18.0592807 14.1578161,21.8733112 C14.7223973,25.6873514 18.0576988,26.4100879 18.0576988,30.1407086 L18.0576988,30.1407084 Z" id="path3642"></path>
                <path d="M36.9622353,29.383384 C36.9622353,52.0695353 33.4738058,61.29393 35.4782727,69.3038665 C36.4332912,73.1201194 40.5196823,72.6702733 41.2242896,69.3038665 C42.8482409,61.5450522 39.8102817,51.6124838 39.8102817,29.383384 C39.8102817,26.7962348 46,27.2408298 46,18.3973126 C46,7.32897676 42.0611729,0 38.307095,0 C34.8035228,0 31,8.03449524 31,18.3973126 C31,26.7016494 36.9622353,27.2510173 36.9622353,29.383384 Z" id="path3686"></path>
                <path d="M2.01555886,39.0450427 C2.01555886,57.1316468 -1.3245195,63.4645282 0.594705686,69.8504268 C1.5091061,72.8929946 5.42164323,72.5344531 6.09629918,69.8504268 C7.6512017,63.6647193 4.74248128,59.1230146 4.74248128,39.2893375 C4.74248128,36.8630944 8,33.4797781 8,27.2275725 C8,16.1116665 6.5224903,1 3.3032142,1 C0.21705572,1 0.923671624,20.4801476 0.923671624,31.1339747 C0.923671624,35.7099512 2.01555886,36.9010269 2.01555886,39.0450427 Z" id="path3688"></path>
                <path d="M15.4402476,15.5613929 C15.4252636,15.8354242 15.3149426,16.0300684 15.1938336,15.9961648 C15.0727396,15.9622612 14.9867106,15.7126296 15.0016951,15.438607 C15.0166791,15.1645804 15.1270001,14.9699315 15.2481091,15.0038352 C15.3692106,15.0377347 15.4552396,15.2873703 15.4402476,15.5613929 Z" id="path3811" opacity="0.3"></path>
                <path d="M18,68.7898143 C18.3944679,70.3807941 20.0683518,71.4987336 21.7956744,70.7749427 C23.7111591,69.972297 23.9854035,67.3150152 23.9986961,65.8750997 C24.0222619,63.322018 23.7229709,61.4352879 23.3792535,58.9345171 C23.2724757,58.1576754 23.0990865,56.7118399 22.9239109,56 C22.9186584,58.0145658 23.2703334,59.9671932 22.849541,61.9704146 C22.2252099,63.8528971 22.9197501,67.2936659 20.9059496,68.5546852 C19.9071387,69.180137 18.1112695,67.9420429 18.0000003,68.7898143 L18,68.7898143 Z" id="path3882" opacity="0.3"></path>
                <path d="M35,68.7898143 C35.3944638,70.3807941 37.0683518,71.4987336 38.7956744,70.7749427 C40.7111591,69.972297 40.9854035,67.3150152 40.9986961,65.8750997 C41.0222619,63.322018 40.7229709,61.4352879 40.3792535,58.9345171 C40.2724757,58.1576754 40.0990784,56.7118399 39.9239109,56 C39.9186584,58.0145658 40.270325,59.9671932 39.849541,61.9704146 C39.2252099,63.8528971 39.9197501,67.2936659 37.9059496,68.5546852 C36.9071387,69.180137 35.1112695,67.9420429 35.0000003,68.7898143 L35,68.7898143 Z" id="path3886" opacity="0.3"></path>
            </g>
        </g>
    </g>
</svg>