<?xml version="1.0" encoding="UTF-8"?>
<svg width="89px" height="139px" viewBox="0 0 89 139" version="1.1" xmlns="http://www.w3.org/2000/svg" xmlns:xlink="http://www.w3.org/1999/xlink">
    <!-- Generator: Sketch 50.2 (55047) - http://www.bohemiancoding.com/sketch -->
    <title>jobs</title>
    <desc>Created with Sketch.</desc>
    <defs></defs>
    <g id="Page-1" stroke="none" stroke-width="1" fill="none" fill-rule="evenodd">
        <g id="jobs" fill-rule="nonzero">
            <path d="M44.5,138.015964 C44.5,138.041334 44.5507412,138.092075 44.5507412,138.092075 C44.5507412,138.092075 89,69.8452109 89,47.4176169 C89,14.4104903 66.4709236,0.0507411631 44.5,0 C22.5290764,0.0507411631 0,14.4104903 0,47.4176169 C0,69.8452109 44.4746294,138.092075 44.4746294,138.092075 C44.4746294,138.092075 44.5,138.015964 44.5,138.015964 Z" fill="#417505"></path>
            <g id="60473" transform="translate(9.000000, 19.000000)">
                <path d="M4.66208468,25.6571967 C5.03536226,26.9370056 5.55338014,28.171107 6.20852039,29.3290293 L4.34213246,31.6829635 C3.73269967,32.4523724 3.80126086,33.5493514 4.48687275,34.2425812 L7.70163073,37.4573392 C8.39486053,38.150569 9.49183956,38.2114361 10.2612485,37.6020033 L12.5999468,35.7508512 C13.8035766,36.4441571 15.0833854,36.9849526 16.4165197,37.3658481 L16.7669435,40.3749225 C16.8812122,41.3500149 17.7039464,42.0813343 18.6790389,42.0813343 L23.2269311,42.0813343 C24.2020236,42.0813343 25.0247578,41.3499388 25.1390265,40.3749225 L25.4742145,37.4724988 C26.9063816,37.0992212 28.2776054,36.5431138 29.5650321,35.8194124 L31.8275514,37.6096212 C32.5969603,38.219054 33.6939393,38.1504928 34.3871691,37.4648809 L37.6019271,34.2501229 C38.2951569,33.5568931 38.3561002,32.4599141 37.7466674,31.6905052 L35.9869302,29.4584576 C36.7182495,28.1938084 37.2895928,26.8455145 37.6704883,25.4362012 L40.3824642,25.1238669 C41.3576328,25.0095982 42.088876,24.1868639 42.088876,23.2117715 L42.088876,18.6638793 C42.088876,17.6887868 41.3575567,16.8660525 40.3824642,16.7517839 L37.7085778,16.4394496 C37.342842,15.0453721 36.7944286,13.7122378 36.0936571,12.4629006 L37.7391256,10.3832112 C38.3485584,9.61380229 38.2799972,8.51682327 37.5943854,7.82359347 L34.3872453,4.6164534 C33.6940155,3.9232236 32.5970365,3.86228032 31.8276276,4.47171311 L29.8088814,6.07147419 C28.4986009,5.30206529 27.0968293,4.71548623 25.6266489,4.31935491 L25.3219325,1.70641182 C25.2076639,0.73131935 24.3849296,0 23.4098371,0 L18.8619449,0 C17.8868524,0 17.0641182,0.73131935 16.9498495,1.70641182 L16.6451331,4.31935491 C15.136787,4.72310414 13.697002,5.33253693 12.3562499,6.13241747 L10.2613246,4.47171311 C9.49191574,3.86228032 8.39493671,3.93084151 7.70170691,4.6164534 L4.48694893,7.83121138 C3.79371913,8.52444118 3.73277585,9.6214202 4.34220864,10.3908291 L6.09432792,12.6076409 C5.39348021,13.8722139 4.86022652,15.220584 4.50980266,16.6222794 L1.70641182,16.9422316 C0.73131935,17.0565003 0,17.8792345 0,18.854327 L0,23.4022192 C0,24.3773117 0.73131935,25.2000459 1.70641182,25.3143146 L4.66208468,25.6571967 Z M21.1396238,13.3542722 C25.2837668,13.3542722 28.6585009,16.7290063 28.6585009,20.8731493 C28.6585009,25.0172923 25.2837668,28.3920264 21.1396238,28.3920264 C16.995557,28.3920264 13.6207467,25.0172923 13.6207467,20.8731493 C13.6207467,16.7290063 16.9954808,13.3542722 21.1396238,13.3542722 Z" id="Shape" fill="#F8E71C"></path>
                <path d="M66.4804287,26.7636269 L64.0807871,24.7372629 C63.341926,24.1125943 62.2524887,24.1430659 61.5517172,24.8058241 L60.2262009,26.0475434 C59.1064443,25.5066718 57.9180504,25.1257763 56.6914907,24.9048569 L56.3183655,23.0765585 C56.1279177,22.1319377 55.2518581,21.4767975 54.2918491,21.5529766 L51.1608881,21.8196034 C50.2010315,21.9034004 49.4468584,22.6880451 49.4163867,23.6555197 L49.3555196,25.5142897 C48.1518137,25.9485106 47.0167451,26.5427075 45.9807094,27.2892627 L44.3962603,26.2379912 C43.5886095,25.7047375 42.5145604,25.8570957 41.8899679,26.5960329 L39.8636039,29.0109104 C39.2388591,29.7498476 39.2693308,30.8392087 39.9320127,31.5400564 L41.3185485,33.0178548 C40.838544,34.099598 40.4957381,35.2347427 40.2977486,36.4002068 L38.317092,36.803956 C37.3724712,36.9944038 36.7173309,37.8704634 36.79351,38.8303962 L37.0601369,41.9613572 C37.1439339,42.9212138 37.9285786,43.6753869 38.8960532,43.7058586 L41.0366859,43.7743436 C41.4253516,44.7951435 41.9356754,45.7626942 42.5526499,46.6691493 L41.3567143,48.474594 C40.8234606,49.2820924 40.9758188,50.3562177 41.7146798,50.9808863 L44.1143215,53.0072504 C44.8533349,53.631919 45.9426198,53.6014473 46.6435437,52.9386892 L48.2128332,51.4684326 C49.241251,51.9483609 50.322918,52.3064027 51.4351329,52.5197041 L51.8694299,54.6679547 C52.0598777,55.6125755 52.9359373,56.2677158 53.8957939,56.1915367 L57.0267549,55.9249099 C57.9866116,55.8411128 58.7407846,55.0565443 58.7712563,54.0889936 L58.8398175,51.9863743 C59.982504,51.582625 61.064171,51.0341355 62.0621172,50.3562177 L63.7914589,51.4989042 C64.5989574,52.0321579 65.6730065,51.8797997 66.2977513,51.1408624 L68.3241153,48.7412208 C68.9487077,48.0022836 68.9182361,46.9129224 68.2555541,46.2120747 L66.8614004,44.7342764 C67.3718766,43.6525332 67.7452303,42.5098467 67.9583794,41.3366124 L69.8628569,40.948099 C70.8074777,40.7576512 71.462618,39.8815916 71.3864389,38.9216588 L71.1198121,35.7906978 C71.036015,34.8308412 70.2513703,34.0766681 69.2838958,34.0461964 L67.3718004,33.9852532 C66.9755929,32.8730383 66.4423392,31.8218429 65.7796572,30.8466743 L66.8232347,29.2773848 C67.3718004,28.4700388 67.2194422,27.3882955 66.4804287,26.7636269 Z M54.6804387,44.8637047 C51.2980867,45.1532614 48.3117136,42.6316571 48.0299271,39.2493813 C47.7403704,35.8670293 50.2620509,32.8807324 53.6442506,32.5988697 C57.0266026,32.3093892 60.0129756,34.8309935 60.2947621,38.2132693 C60.5843188,41.5956975 58.0626383,44.5819182 54.6804387,44.8637047 Z" id="Shape" fill="#1B1464"></path>
                <path d="M15.9189664,53.6679961 C14.9591097,53.767029 14.2201725,54.5744512 14.2125545,55.542002 L14.1897008,57.4693332 C14.174465,58.4368077 14.8905485,59.259542 15.8504052,59.3815047 L17.2673364,59.5642584 C17.5034916,60.4251584 17.8386797,61.2478927 18.2729005,62.0249195 L17.3587513,63.1523701 C16.7493185,63.906467 16.795026,64.9882864 17.47302,65.6815162 L18.82139,67.0603579 C19.499384,67.7535877 20.5811272,67.8297668 21.3505361,67.2355698 L22.4855285,66.3595102 C23.2854091,66.8318206 24.1310732,67.2051744 25.0146746,67.4641071 L25.1670328,68.9267458 C25.2660656,69.8866025 26.0735641,70.6255397 27.0410386,70.6331577 L28.968446,70.6560114 C29.9358444,70.6712472 30.7586549,69.9551637 30.8805414,68.995307 L31.0557533,67.6088474 C32.0156862,67.372616 32.9298354,67.0146505 33.7982009,66.54234 L34.8647083,67.4031639 C35.6188814,68.0125967 36.7007008,67.9668892 37.3939306,67.2888952 L38.7727722,65.9405252 C39.466002,65.2626074 39.5421811,64.180788 38.9480604,63.4113791 L38.1327916,62.3524134 C38.6355737,61.5144433 39.0241633,60.6231479 39.2907901,59.686145 L40.5553632,59.5566405 C41.5152198,59.4576077 42.2540809,58.6501092 42.261775,57.6826346 L42.2845525,55.7552273 C42.2998645,54.7878289 41.583781,53.9650184 40.6239244,53.8431319 L39.3897468,53.6831558 C39.1535916,52.7537708 38.8032439,51.8548574 38.3461693,51.0168873 L39.1155782,50.0722665 C39.725011,49.3180934 39.6793035,48.2363502 39.0013095,47.5431204 L37.6530157,46.1642787 C36.9750217,45.4709727 35.8931261,45.3947936 35.1237934,45.9890668 L34.2019501,46.6975324 C33.3335846,46.1718966 32.4041234,45.7681474 31.4291071,45.4939026 L31.3071444,44.2978908 C31.2081115,43.3379579 30.4006893,42.5990969 29.4331385,42.591479 L27.5058073,42.5686252 C26.5383328,42.5533894 25.7155985,43.2694729 25.5936358,44.2293296 L25.4412776,45.4177997 C24.4357896,45.6767325 23.4683151,46.07294 22.5694017,46.5908817 L21.617163,45.8138548 C20.8629899,45.2044221 19.7811705,45.2502057 19.0879407,45.9281235 L17.7014811,47.2841876 C17.0082513,47.9621054 16.9320722,49.0439248 17.5262692,49.8132575 L18.3413855,50.8646053 C17.8690751,51.7025754 17.4957975,52.5937947 17.2520244,53.5308738 L15.9189664,53.6679961 Z M28.3590132,51.4891977 C31.1243145,51.5196694 33.3410501,53.7975006 33.3106547,56.5628019 C33.280183,59.3281032 31.0023518,61.5448388 28.2370505,61.5144433 C25.4717492,61.4839717 23.2550136,59.2062166 23.2854091,56.4408392 C23.3159569,53.675614 25.5937119,51.4588023 28.3590132,51.4891977 Z" id="Shape" fill="#D0021B"></path>
            </g>
        </g>
    </g>
</svg>