<?xml version="1.0" encoding="UTF-8"?>
<svg width="89px" height="139px" viewBox="0 0 89 139" version="1.1" xmlns="http://www.w3.org/2000/svg" xmlns:xlink="http://www.w3.org/1999/xlink">
    <!-- Generator: Sketch 50.2 (55047) - http://www.bohemiancoding.com/sketch -->
    <title>law</title>
    <desc>Created with Sketch.</desc>
    <defs></defs>
    <g id="Page-1" stroke="none" stroke-width="1" fill="none" fill-rule="evenodd">
        <g id="law">
            <path d="M44.5,138.015964 C44.5,138.041334 44.5507412,138.092075 44.5507412,138.092075 C44.5507412,138.092075 89,69.8452109 89,47.4176169 C89,14.4104903 66.4709236,0.0507411631 44.5,0 C22.5290764,0.0507411631 0,14.4104903 0,47.4176169 C0,69.8452109 44.4746294,138.092075 44.4746294,138.092075 C44.4746294,138.092075 44.5,138.015964 44.5,138.015964 Z" fill="#F5A623" fill-rule="nonzero"></path>
            <g id="lw" transform="translate(19.000000, 20.000000)" fill="#1B1464">
                <path d="M8.78849627,17.0704407 L12.9465449,17.0704407 L13.5857218,39.5255567 L8.22906127,39.5257318 L8.78849401,17.0703886 L8.78849627,17.0704407 Z M4.86967655,40.3327771 L46.1303555,40.3327771 L46.1303555,43.2219675 L48.6026035,43.2219675 L48.602429,46.1111579 L51,46.1111579 L51,49 L0,48.9998249 L0,46.111157 L2.39757102,46.111157 L2.39757102,43.2219666 L4.86964543,43.2219666 L4.86964543,40.3327762 L4.86967655,40.3327771 Z M48.282223,10.8007004 L25.4995633,0 L2.71652617,10.8007004 L2.71670067,12.5664308 L48.282223,12.5666059 L48.2821711,10.8007014 L48.282223,10.8007004 Z M7.10877788,13.3743555 L43.8914051,13.3743555 L43.8914051,16.2630234 L7.10877788,16.2630234 L7.10877788,13.3743555 Z M37.9733921,17.070418 L42.1314407,17.070418 L42.7707919,39.5257612 L37.4141314,39.5257612 L37.9733891,17.0704701 L37.9733921,17.070418 Z M28.2450884,17.070418 L32.403137,17.0705931 L33.0424883,39.5255576 L27.6856542,39.5257327 L28.2450869,17.0703896 L28.2450884,17.070418 Z M18.5167848,17.070418 L22.6746598,17.0702429 L23.3143605,39.5255861 L17.9573528,39.5255861 L18.5167856,17.0704701 L18.5167848,17.070418 Z" id="path10"></path>
            </g>
        </g>
    </g>
</svg>